<?xml version="1.0" encoding="UTF-8" standalone="no"?><svg xmlns="http://www.w3.org/2000/svg" xmlns:xlink="http://www.w3.org/1999/xlink" contentStyleType="text/css" height="2375px" preserveAspectRatio="none" style="width:681px;height:2375px;background:#FAF0E6;" version="1.1" viewBox="0 0 681 2375" width="681px" zoomAndPan="magnify"><defs><filter height="300%" id="f10v5mq5qbt5e" width="300%" x="-1" y="-1"><feGaussianBlur result="blurOut" stdDeviation="2.0"/><feColorMatrix in="blurOut" result="blurOut2" type="matrix" values="0 0 0 0 0 0 0 0 0 0 0 0 0 0 0 0 0 0 .4 0"/><feOffset dx="4.0" dy="4.0" in="blurOut2" result="blurOut3"/><feBlend in="SourceGraphic" in2="blurOut3" mode="normal"/></filter></defs><g><rect fill="#FAF0E6" height="38.2969" style="stroke:#00000000;stroke-width:1.0;" width="447" x="115.5" y="15"/><text fill="#000000" font-family="sans-serif" font-size="14" font-weight="bold" lengthAdjust="spacing" textLength="425" x="126.5" y="38.9951">Workflow of a brainstorming session with »frag.jetzt«</text><rect fill="#CE93D8" height="2267.3809" style="stroke:#CE93D8;stroke-width:1.0;" width="321" x="15" y="60.2969"/><ellipse cx="173.5" cy="100.792" fill="#222222" filter="url(#f10v5mq5qbt5e)" rx="10" ry="10" style="stroke:#222222;stroke-width:1.0;"/><rect fill="none" filter="url(#f10v5mq5qbt5e)" height="414.375" style="stroke:#000000;stroke-width:1.5;" width="296" x="25.5" y="120.792"/><path d="M88.5,120.792 L88.5,142.0889 L78.5,152.0889 L25.5,152.0889 " fill="none" style="stroke:#000000;stroke-width:1.5;"/><text fill="#000000" font-family="sans-serif" font-size="14" lengthAdjust="spacing" textLength="41" x="34.5" y="140.7871">Setup</text><rect fill="#F1F1F1" filter="url(#f10v5mq5qbt5e)" height="64.5938" rx="12.5" ry="12.5" style="stroke:#181818;stroke-width:0.5;" width="276" x="35.5" y="169.0889"/><text fill="#000000" font-family="sans-serif" font-size="14" lengthAdjust="spacing" textLength="244" x="51.5" y="198.084">Activate brainstorming option in the</text><text fill="#000000" font-family="sans-serif" font-size="14" lengthAdjust="spacing" textLength="211" x="51.5" y="214.3809">room settings (→ »My rooms«)</text><rect fill="#F1F1F1" filter="url(#f10v5mq5qbt5e)" height="64.5938" rx="12.5" ry="12.5" style="stroke:#181818;stroke-width:0.5;" width="248" x="49.5" y="253.6826"/><text fill="#000000" font-family="sans-serif" font-size="14" lengthAdjust="spacing" textLength="172" x="65.5" y="282.6777">Click on »Brainstorming«</text><text fill="#000000" font-family="sans-serif" font-size="14" lengthAdjust="spacing" textLength="216" x="65.5" y="298.9746">in the header of the Q&amp;A forum</text><rect fill="#F1F1F1" filter="url(#f10v5mq5qbt5e)" height="48.2969" rx="12.5" ry="12.5" style="stroke:#181818;stroke-width:0.5;" width="236" x="55.5" y="338.2764"/><text fill="#000000" font-family="sans-serif" font-size="14" lengthAdjust="spacing" textLength="200" x="75.5" y="367.2715">Enter focus question or topic</text><rect fill="#F1F1F1" filter="url(#f10v5mq5qbt5e)" height="48.2969" rx="12.5" ry="12.5" style="stroke:#181818;stroke-width:0.5;" width="209" x="69" y="406.5732"/><text fill="#000000" font-family="sans-serif" font-size="14" lengthAdjust="spacing" textLength="173" x="89" y="435.5684">Set input length for ideas</text><rect fill="#F1F1F1" filter="url(#f10v5mq5qbt5e)" height="48.2969" rx="12.5" ry="12.5" style="stroke:#181818;stroke-width:0.5;" width="236" x="55.5" y="474.8701"/><text fill="#000000" font-family="sans-serif" font-size="14" lengthAdjust="spacing" textLength="200" x="75.5" y="503.8652">Set duration of brainstorming</text><rect fill="none" filter="url(#f10v5mq5qbt5e)" height="176.8906" style="stroke:#000000;stroke-width:1.5;" width="277" x="35" y="545.167"/><path d="M118,545.167 L118,566.4639 L108,576.4639 L35,576.4639 " fill="none" style="stroke:#000000;stroke-width:1.5;"/><text fill="#000000" font-family="sans-serif" font-size="14" lengthAdjust="spacing" textLength="61" x="44" y="565.1621">Warm up</text><rect fill="#FFC0CB" filter="url(#f10v5mq5qbt5e)" height="48.2969" rx="12.5" ry="12.5" style="stroke:#181818;stroke-width:0.5;" width="257" x="45" y="593.4639"/><text fill="#000000" font-family="sans-serif" font-size="14" lengthAdjust="spacing" textLength="221" x="65" y="622.459">Explain brainstorming technique</text><rect fill="#F1F1F1" filter="url(#f10v5mq5qbt5e)" height="48.2969" rx="12.5" ry="12.5" style="stroke:#181818;stroke-width:0.5;" width="250" x="48.5" y="661.7607"/><text fill="#000000" font-family="sans-serif" font-size="14" lengthAdjust="spacing" textLength="218" x="64.5" y="690.7559">Act out a brainstorming session</text><rect fill="#FFC0CB" filter="url(#f10v5mq5qbt5e)" height="48.2969" rx="12.5" ry="12.5" style="stroke:#181818;stroke-width:0.5;" width="167" x="90" y="742.0576"/><text fill="#000000" font-family="sans-serif" font-size="14" lengthAdjust="spacing" textLength="131" x="110" y="771.0527">Start brainstorming</text><rect fill="none" filter="url(#f10v5mq5qbt5e)" height="245.1875" style="stroke:#000000;stroke-width:1.5;" width="220" x="63.5" y="1019.7402"/><path d="M206.5,1019.7402 L206.5,1041.0371 L196.5,1051.0371 L63.5,1051.0371 " fill="none" style="stroke:#000000;stroke-width:1.5;"/><text fill="#000000" font-family="sans-serif" font-size="14" lengthAdjust="spacing" textLength="121" x="72.5" y="1039.7354">Idea presentation</text><rect fill="#FFC0CB" filter="url(#f10v5mq5qbt5e)" height="48.2969" rx="12.5" ry="12.5" style="stroke:#181818;stroke-width:0.5;" width="125" x="111" y="1068.0371"/><text fill="#000000" font-family="sans-serif" font-size="14" lengthAdjust="spacing" textLength="89" x="131" y="1097.0322">Freeze ideas</text><rect fill="#FFC0CB" filter="url(#f10v5mq5qbt5e)" height="48.2969" rx="12.5" ry="12.5" style="stroke:#181818;stroke-width:0.5;" width="183" x="82" y="1136.334"/><text fill="#000000" font-family="sans-serif" font-size="14" lengthAdjust="spacing" textLength="147" x="102" y="1165.3291">Go to Question focus</text><rect fill="#F1F1F1" filter="url(#f10v5mq5qbt5e)" height="48.2969" rx="12.5" ry="12.5" style="stroke:#181818;stroke-width:0.5;" width="200" x="73.5" y="1204.6309"/><text fill="#000000" font-family="sans-serif" font-size="14" lengthAdjust="spacing" textLength="168" x="89.5" y="1233.626">Present &amp; discuss ideas</text><rect fill="none" filter="url(#f10v5mq5qbt5e)" height="313.4844" style="stroke:#000000;stroke-width:1.5;" width="244" x="51.5" y="1461.8184"/><path d="M154.5,1461.8184 L154.5,1483.1152 L144.5,1493.1152 L51.5,1493.1152 " fill="none" style="stroke:#000000;stroke-width:1.5;"/><text fill="#000000" font-family="sans-serif" font-size="14" lengthAdjust="spacing" textLength="81" x="60.5" y="1481.8135">Idea sorting</text><rect fill="#FFC0CB" filter="url(#f10v5mq5qbt5e)" height="48.2969" rx="12.5" ry="12.5" style="stroke:#181818;stroke-width:0.5;" width="174" x="86.5" y="1510.1152"/><text fill="#000000" font-family="sans-serif" font-size="14" lengthAdjust="spacing" textLength="138" x="106.5" y="1539.1104">Create topic catalog</text><rect fill="#F1F1F1" filter="url(#f10v5mq5qbt5e)" height="48.2969" rx="12.5" ry="12.5" style="stroke:#181818;stroke-width:0.5;" width="213" x="67" y="1578.4121"/><text fill="#000000" font-family="sans-serif" font-size="14" lengthAdjust="spacing" textLength="181" x="83" y="1607.4072">Hover over the word cloud</text><rect fill="#F1F1F1" filter="url(#f10v5mq5qbt5e)" height="48.2969" rx="12.5" ry="12.5" style="stroke:#181818;stroke-width:0.5;" width="183" x="82" y="1646.709"/><text fill="#000000" font-family="sans-serif" font-size="14" lengthAdjust="spacing" textLength="151" x="98" y="1675.7041">Assign topics to ideas</text><rect fill="#F1F1F1" filter="url(#f10v5mq5qbt5e)" height="48.2969" rx="12.5" ry="12.5" style="stroke:#181818;stroke-width:0.5;" width="224" x="61.5" y="1715.0059"/><text fill="#000000" font-family="sans-serif" font-size="14" lengthAdjust="spacing" textLength="192" x="77.5" y="1744.001">Blacklist inappropriate ideas</text><rect fill="#FFC0CB" filter="url(#f10v5mq5qbt5e)" height="48.2969" rx="12.5" ry="12.5" style="stroke:#181818;stroke-width:0.5;" width="153" x="97" y="1795.3027"/><text fill="#000000" font-family="sans-serif" font-size="14" lengthAdjust="spacing" textLength="117" x="117" y="1824.2979">Reset idea rating</text><rect fill="none" filter="url(#f10v5mq5qbt5e)" height="245.1875" style="stroke:#000000;stroke-width:1.5;" width="305" x="21" y="2040.4902"/><path d="M151,2040.4902 L151,2061.7871 L141,2071.7871 L21,2071.7871 " fill="none" style="stroke:#000000;stroke-width:1.5;"/><text fill="#000000" font-family="sans-serif" font-size="14" lengthAdjust="spacing" textLength="108" x="30" y="2060.4854">Record session</text><rect fill="#FFC0CB" filter="url(#f10v5mq5qbt5e)" height="48.2969" rx="12.5" ry="12.5" style="stroke:#181818;stroke-width:0.5;" width="142" x="102.5" y="2088.7871"/><text fill="#000000" font-family="sans-serif" font-size="14" lengthAdjust="spacing" textLength="106" x="122.5" y="2117.7822">Freeze session</text><rect fill="#F1F1F1" filter="url(#f10v5mq5qbt5e)" height="48.2969" rx="12.5" ry="12.5" style="stroke:#181818;stroke-width:0.5;" width="285" x="31" y="2157.084"/><text fill="#000000" font-family="sans-serif" font-size="14" lengthAdjust="spacing" textLength="253" x="47" y="2186.0791">Take a screenshot of the word cloud</text><rect fill="#FFC0CB" filter="url(#f10v5mq5qbt5e)" height="48.2969" rx="12.5" ry="12.5" style="stroke:#181818;stroke-width:0.5;" width="121" x="113" y="2225.3809"/><text fill="#000000" font-family="sans-serif" font-size="14" lengthAdjust="spacing" textLength="85" x="133" y="2254.376">Export ideas</text><ellipse cx="173.5" cy="2316.6777" filter="url(#f10v5mq5qbt5e)" rx="11" ry="11" style="stroke:#222222;stroke-width:1.0;fill:none;"/><ellipse cx="173.5" cy="2316.6777" fill="#222222" rx="6" ry="6" style="stroke:#111111;stroke-width:1.0;"/><line style="stroke:#000000;stroke-width:1.5;" x1="15" x2="15" y1="60.2969" y2="2327.6777"/><rect fill="#90CAF9" height="2267.3809" style="stroke:#90CAF9;stroke-width:1.0;" width="320" x="336" y="60.2969"/><rect fill="none" filter="url(#f10v5mq5qbt5e)" height="208.8906" style="stroke:#000000;stroke-width:1.5;" width="304" x="342" y="800.3545"/><path d="M443,800.3545 L443,821.6514 L433,831.6514 L342,831.6514 " fill="none" style="stroke:#000000;stroke-width:1.5;"/><text fill="#000000" font-family="sans-serif" font-size="14" lengthAdjust="spacing" textLength="79" x="351" y="820.3496">Idea finding</text><rect fill="#F1F1F1" filter="url(#f10v5mq5qbt5e)" height="48.2969" rx="12.5" ry="12.5" style="stroke:#181818;stroke-width:0.5;" width="266" x="352" y="892.6514"/><text fill="#000000" font-family="sans-serif" font-size="14" lengthAdjust="spacing" textLength="234" x="368" y="921.6465">Click the plus button to enter idea</text><polygon fill="#F1F1F1" filter="url(#f10v5mq5qbt5e)" points="485,848.6514,497,860.6514,485,872.6514,473,860.6514,485,848.6514" style="stroke:#181818;stroke-width:0.5;"/><polygon fill="#F1F1F1" filter="url(#f10v5mq5qbt5e)" points="386.5,960.9482,583.5,960.9482,595.5,975.0967,583.5,989.2451,386.5,989.2451,374.5,975.0967,386.5,960.9482" style="stroke:#181818;stroke-width:0.5;"/><text fill="#000000" font-family="sans-serif" font-size="14" lengthAdjust="spacing" textLength="18" x="495" y="1008.2402">no</text><text fill="#000000" font-family="sans-serif" font-size="14" lengthAdjust="spacing" textLength="185" x="392.5" y="979.9434">Still time for brainstorming?</text><text fill="#000000" font-family="sans-serif" font-size="14" lengthAdjust="spacing" textLength="24" x="601.5" y="965.7949">yes</text><rect fill="none" filter="url(#f10v5mq5qbt5e)" height="176.8906" style="stroke:#000000;stroke-width:1.5;" width="261" x="354.5" y="1274.9277"/><path d="M486.5,1274.9277 L486.5,1296.2246 L476.5,1306.2246 L354.5,1306.2246 " fill="none" style="stroke:#000000;stroke-width:1.5;"/><text fill="#000000" font-family="sans-serif" font-size="14" lengthAdjust="spacing" textLength="110" x="363.5" y="1294.9229">Idea elaboration</text><rect fill="#FFC0CB" filter="url(#f10v5mq5qbt5e)" height="48.2969" rx="12.5" ry="12.5" style="stroke:#181818;stroke-width:0.5;" width="154" x="408" y="1323.2246"/><text fill="#000000" font-family="sans-serif" font-size="14" lengthAdjust="spacing" textLength="118" x="428" y="1352.2197">Go to Q&amp;A forum</text><rect fill="#F1F1F1" filter="url(#f10v5mq5qbt5e)" height="48.2969" rx="12.5" ry="12.5" style="stroke:#181818;stroke-width:0.5;" width="241" x="364.5" y="1391.5215"/><text fill="#000000" font-family="sans-serif" font-size="14" lengthAdjust="spacing" textLength="209" x="380.5" y="1420.5166">Further elaborate on the ideas</text><rect fill="none" filter="url(#f10v5mq5qbt5e)" height="176.8906" style="stroke:#000000;stroke-width:1.5;" width="233" x="368.5" y="1853.5996"/><path d="M493.5,1853.5996 L493.5,1874.8965 L483.5,1884.8965 L368.5,1884.8965 " fill="none" style="stroke:#000000;stroke-width:1.5;"/><text fill="#000000" font-family="sans-serif" font-size="14" lengthAdjust="spacing" textLength="103" x="377.5" y="1873.5947">Idea evaluation</text><rect fill="#F1F1F1" filter="url(#f10v5mq5qbt5e)" height="48.2969" rx="12.5" ry="12.5" style="stroke:#181818;stroke-width:0.5;" width="213" x="378.5" y="1901.8965"/><text fill="#000000" font-family="sans-serif" font-size="14" lengthAdjust="spacing" textLength="181" x="394.5" y="1930.8916">Hover over the word cloud</text><rect fill="#F1F1F1" filter="url(#f10v5mq5qbt5e)" height="48.2969" rx="12.5" ry="12.5" style="stroke:#181818;stroke-width:0.5;" width="105" x="432.5" y="1970.1934"/><text fill="#000000" font-family="sans-serif" font-size="14" lengthAdjust="spacing" textLength="73" x="448.5" y="1999.1885">Rate ideas</text><line style="stroke:#000000;stroke-width:1.5;" x1="336" x2="336" y1="60.2969" y2="2327.6777"/><line style="stroke:#000000;stroke-width:1.5;" x1="656" x2="656" y1="60.2969" y2="2327.6777"/><line style="stroke:#181818;stroke-width:1.0;" x1="173.5" x2="173.5" y1="233.6826" y2="253.6826"/><polygon fill="#181818" points="169.5,243.6826,173.5,253.6826,177.5,243.6826,173.5,247.6826" style="stroke:#181818;stroke-width:1.0;"/><line style="stroke:#181818;stroke-width:1.0;" x1="173.5" x2="173.5" y1="318.2764" y2="338.2764"/><polygon fill="#181818" points="169.5,328.2764,173.5,338.2764,177.5,328.2764,173.5,332.2764" style="stroke:#181818;stroke-width:1.0;"/><line style="stroke:#181818;stroke-width:1.0;" x1="173.5" x2="173.5" y1="386.5732" y2="406.5732"/><polygon fill="#181818" points="169.5,396.5732,173.5,406.5732,177.5,396.5732,173.5,400.5732" style="stroke:#181818;stroke-width:1.0;"/><line style="stroke:#181818;stroke-width:1.0;" x1="173.5" x2="173.5" y1="454.8701" y2="474.8701"/><polygon fill="#181818" points="169.5,464.8701,173.5,474.8701,177.5,464.8701,173.5,468.8701" style="stroke:#181818;stroke-width:1.0;"/><line style="stroke:#181818;stroke-width:1.0;" x1="173.5" x2="173.5" y1="110.792" y2="169.0889"/><polygon fill="#181818" points="169.5,159.0889,173.5,169.0889,177.5,159.0889,173.5,163.0889" style="stroke:#181818;stroke-width:1.0;"/><line style="stroke:#181818;stroke-width:1.0;" x1="173.5" x2="173.5" y1="641.7607" y2="661.7607"/><polygon fill="#181818" points="169.5,651.7607,173.5,661.7607,177.5,651.7607,173.5,655.7607" style="stroke:#181818;stroke-width:1.0;"/><line style="stroke:#181818;stroke-width:1.0;" x1="173.5" x2="173.5" y1="523.167" y2="593.4639"/><polygon fill="#181818" points="169.5,583.4639,173.5,593.4639,177.5,583.4639,173.5,587.4639" style="stroke:#181818;stroke-width:1.0;"/><line style="stroke:#181818;stroke-width:1.0;" x1="173.5" x2="173.5" y1="710.0576" y2="742.0576"/><polygon fill="#181818" points="169.5,732.0576,173.5,742.0576,177.5,732.0576,173.5,736.0576" style="stroke:#181818;stroke-width:1.0;"/><line style="stroke:#181818;stroke-width:1.0;" x1="173.5" x2="173.5" y1="1116.334" y2="1136.334"/><polygon fill="#181818" points="169.5,1126.334,173.5,1136.334,177.5,1126.334,173.5,1130.334" style="stroke:#181818;stroke-width:1.0;"/><line style="stroke:#181818;stroke-width:1.0;" x1="173.5" x2="173.5" y1="1184.6309" y2="1204.6309"/><polygon fill="#181818" points="169.5,1194.6309,173.5,1204.6309,177.5,1194.6309,173.5,1198.6309" style="stroke:#181818;stroke-width:1.0;"/><line style="stroke:#181818;stroke-width:1.0;" x1="173.5" x2="173.5" y1="1558.4121" y2="1578.4121"/><polygon fill="#181818" points="169.5,1568.4121,173.5,1578.4121,177.5,1568.4121,173.5,1572.4121" style="stroke:#181818;stroke-width:1.0;"/><line style="stroke:#181818;stroke-width:1.0;" x1="173.5" x2="173.5" y1="1626.709" y2="1646.709"/><polygon fill="#181818" points="169.5,1636.709,173.5,1646.709,177.5,1636.709,173.5,1640.709" style="stroke:#181818;stroke-width:1.0;"/><line style="stroke:#181818;stroke-width:1.0;" x1="173.5" x2="173.5" y1="1695.0059" y2="1715.0059"/><polygon fill="#181818" points="169.5,1705.0059,173.5,1715.0059,177.5,1705.0059,173.5,1709.0059" style="stroke:#181818;stroke-width:1.0;"/><line style="stroke:#181818;stroke-width:1.0;" x1="173.5" x2="173.5" y1="1763.3027" y2="1795.3027"/><polygon fill="#181818" points="169.5,1785.3027,173.5,1795.3027,177.5,1785.3027,173.5,1789.3027" style="stroke:#181818;stroke-width:1.0;"/><line style="stroke:#181818;stroke-width:1.0;" x1="173.5" x2="173.5" y1="2137.084" y2="2157.084"/><polygon fill="#181818" points="169.5,2147.084,173.5,2157.084,177.5,2147.084,173.5,2151.084" style="stroke:#181818;stroke-width:1.0;"/><line style="stroke:#181818;stroke-width:1.0;" x1="173.5" x2="173.5" y1="2205.3809" y2="2225.3809"/><polygon fill="#181818" points="169.5,2215.3809,173.5,2225.3809,177.5,2215.3809,173.5,2219.3809" style="stroke:#181818;stroke-width:1.0;"/><line style="stroke:#181818;stroke-width:1.0;" x1="173.5" x2="173.5" y1="2273.6777" y2="2305.6777"/><polygon fill="#181818" points="169.5,2295.6777,173.5,2305.6777,177.5,2295.6777,173.5,2299.6777" style="stroke:#181818;stroke-width:1.0;"/><line style="stroke:#181818;stroke-width:1.0;" x1="485" x2="485" y1="872.6514" y2="892.6514"/><polygon fill="#181818" points="481,882.6514,485,892.6514,489,882.6514,485,886.6514" style="stroke:#181818;stroke-width:1.0;"/><line style="stroke:#181818;stroke-width:1.0;" x1="595.5" x2="630" y1="975.0967" y2="975.0967"/><polygon fill="#181818" points="626,927.874,630,917.874,634,927.874,630,923.874" style="stroke:#181818;stroke-width:1.0;"/><line style="stroke:#181818;stroke-width:1.0;" x1="630" x2="630" y1="860.6514" y2="975.0967"/><line style="stroke:#181818;stroke-width:1.0;" x1="630" x2="497" y1="860.6514" y2="860.6514"/><polygon fill="#181818" points="507,856.6514,497,860.6514,507,864.6514,503,860.6514" style="stroke:#181818;stroke-width:1.0;"/><line style="stroke:#181818;stroke-width:1.0;" x1="485" x2="485" y1="940.9482" y2="960.9482"/><polygon fill="#181818" points="481,950.9482,485,960.9482,489,950.9482,485,954.9482" style="stroke:#181818;stroke-width:1.0;"/><line style="stroke:#181818;stroke-width:1.0;" x1="485" x2="485" y1="1371.5215" y2="1391.5215"/><polygon fill="#181818" points="481,1381.5215,485,1391.5215,489,1381.5215,485,1385.5215" style="stroke:#181818;stroke-width:1.0;"/><line style="stroke:#181818;stroke-width:1.0;" x1="485" x2="485" y1="1950.1934" y2="1970.1934"/><polygon fill="#181818" points="481,1960.1934,485,1970.1934,489,1960.1934,485,1964.1934" style="stroke:#181818;stroke-width:1.0;"/><line style="stroke:#181818;stroke-width:1.0;" x1="173.5" x2="173.5" y1="790.3545" y2="807.0029"/><line style="stroke:#181818;stroke-width:1.0;" x1="173.5" x2="485" y1="807.0029" y2="807.0029"/><line style="stroke:#181818;stroke-width:1.0;" x1="485" x2="485" y1="807.0029" y2="848.6514"/><polygon fill="#181818" points="481,838.6514,485,848.6514,489,838.6514,485,842.6514" style="stroke:#181818;stroke-width:1.0;"/><line style="stroke:#181818;stroke-width:1.0;" x1="485" x2="485" y1="989.2451" y2="1016.3887"/><line style="stroke:#181818;stroke-width:1.0;" x1="485" x2="173.5" y1="1016.3887" y2="1016.3887"/><line style="stroke:#181818;stroke-width:1.0;" x1="173.5" x2="173.5" y1="1016.3887" y2="1068.0371"/><polygon fill="#181818" points="169.5,1058.0371,173.5,1068.0371,177.5,1058.0371,173.5,1062.0371" style="stroke:#181818;stroke-width:1.0;"/><line style="stroke:#181818;stroke-width:1.0;" x1="173.5" x2="173.5" y1="1252.9277" y2="1271.5762"/><line style="stroke:#181818;stroke-width:1.0;" x1="173.5" x2="485" y1="1271.5762" y2="1271.5762"/><line style="stroke:#181818;stroke-width:1.0;" x1="485" x2="485" y1="1271.5762" y2="1323.2246"/><polygon fill="#181818" points="481,1313.2246,485,1323.2246,489,1313.2246,485,1317.2246" style="stroke:#181818;stroke-width:1.0;"/><line style="stroke:#181818;stroke-width:1.0;" x1="485" x2="485" y1="1439.8184" y2="1458.4668"/><line style="stroke:#181818;stroke-width:1.0;" x1="485" x2="173.5" y1="1458.4668" y2="1458.4668"/><line style="stroke:#181818;stroke-width:1.0;" x1="173.5" x2="173.5" y1="1458.4668" y2="1510.1152"/><polygon fill="#181818" points="169.5,1500.1152,173.5,1510.1152,177.5,1500.1152,173.5,1504.1152" style="stroke:#181818;stroke-width:1.0;"/><line style="stroke:#181818;stroke-width:1.0;" x1="173.5" x2="173.5" y1="1843.5996" y2="1860.248"/><line style="stroke:#181818;stroke-width:1.0;" x1="173.5" x2="485" y1="1860.248" y2="1860.248"/><line style="stroke:#181818;stroke-width:1.0;" x1="485" x2="485" y1="1860.248" y2="1901.8965"/><polygon fill="#181818" points="481,1891.8965,485,1901.8965,489,1891.8965,485,1895.8965" style="stroke:#181818;stroke-width:1.0;"/><line style="stroke:#181818;stroke-width:1.0;" x1="485" x2="485" y1="2018.4902" y2="2037.1387"/><line style="stroke:#181818;stroke-width:1.0;" x1="485" x2="173.5" y1="2037.1387" y2="2037.1387"/><line style="stroke:#181818;stroke-width:1.0;" x1="173.5" x2="173.5" y1="2037.1387" y2="2088.7871"/><polygon fill="#181818" points="169.5,2078.7871,173.5,2088.7871,177.5,2078.7871,173.5,2082.7871" style="stroke:#181818;stroke-width:1.0;"/><text fill="#000000" font-family="sans-serif" font-size="14" lengthAdjust="spacing" textLength="71" x="140" y="79.292">Moderator</text><text fill="#000000" font-family="sans-serif" font-size="14" lengthAdjust="spacing" textLength="72" x="460" y="79.292">Participant</text><rect fill="#FAF0E6" height="28.2969" style="stroke:#00000000;stroke-width:1.0;" width="483" x="97.5" y="2333.6777"/><text fill="#000000" font-family="sans-serif" font-size="14" lengthAdjust="spacing" textLength="471" x="103.5" y="2352.6729">Note: The actions highlighted in pink are items of the Options menu.</text><!--MD5=[2226b6d9796011bc5b4883ea47395687]
@startuml
title Workflow of a brainstorming session with »frag.jetzt«

caption Note: The actions highlighted in pink are items of the Options menu.   

skinparam backgroundColor Linen
skinparam shadowing true
skinparam defaultFontSize 14
skinparam Padding 6

|#CE93D8|Moderator|

start

partition "Setup" {
:Activate brainstorming option in the
room settings (→ »My rooms«);

:Click on »Brainstorming« 
in the header of the Q&A forum;
: Enter focus question or topic;
: Set input length for ideas;
: Set duration of brainstorming;
}

partition "Warm up" {
#pink: Explain brainstorming technique;
:Act out a brainstorming session;
}

#pink: Start brainstorming;

|#90CAF9|Participant|

partition "Idea finding" {
repeat
:Click the plus button to enter idea;

repeat while (Still time for brainstorming?) is (yes) not (no)
}

|Moderator|

partition "Idea presentation" {

#pink: Freeze ideas;
#pink: Go to Question focus;
:Present & discuss ideas;
}

|Participant|

partition "Idea elaboration" {

#pink: Go to Q&A forum;
:Further elaborate on the ideas;
}

|Moderator|

partition "Idea sorting" {
#pink: Create topic catalog;
:Hover over the word cloud;
:Assign topics to ideas;
:Blacklist inappropriate ideas;
}

#pink: Reset idea rating;


partition "Idea evaluation" {

|Participant|

:Hover over the word cloud;
:Rate ideas;
}

|Moderator|

partition "Record session" {
#pink: Freeze session;
:Take a screenshot of the word cloud;
#pink: Export ideas;
}

stop
@enduml

PlantUML version 1.2022.2(Sat Mar 05 16:30:19 UTC 2022)
(GPL source distribution)
Java Runtime: OpenJDK Runtime Environment
JVM: OpenJDK 64-Bit Server VM
Default Encoding: UTF-8
Language: en
Country: null
--></g></svg>