<?xml version="1.0" encoding="UTF-8"?>
<svg id="Слой_1" width="512px" height="512px" enable-background="new 0 0 512 512" version="1.1" viewBox="0 0 512 512" xml:space="preserve" xmlns="http://www.w3.org/2000/svg"><g id="g20" transform="matrix(.78222 0 0 .78205 55.702 61.192)"><g id="g18"><g id="g4"><path id="path2" d="m378.34 66.574c4.048 4.023 6.075 8.875 6.083 14.555-8e-3 5.703-2.035 10.578-6.083 14.625-4.046 4.045-8.923 6.072-14.625 6.082-3.081 3e-3 -5.907-0.59-8.476-1.776l-12.439 27.265h18.453c19.629-0.015 36.396 6.934 50.305 20.843h-0.069c13.94 13.879 20.911 30.621 20.915 50.227v11.617h4.921c12.028 0 22.326 4.283 30.892 12.848 8.567 8.564 12.85 18.86 12.85 30.887v28.907c-0.053 2.469-0.28 4.86-0.683 7.175-1.564 8.579-5.62 16.145-12.167 22.687-8.565 8.566-18.863 12.848-30.892 12.848h-4.921v29.796c8e-3 19.646-6.94 36.432-20.846 50.362-13.49 13.486-29.666 20.435-48.526 20.843-0.163 3e-3 -0.299 3e-3 -0.411 0h-85.022c-0.95 1.338-2.044 2.613-3.281 3.825-5.03 4.994-11.091 7.501-18.18 7.517-7.114-0.016-13.197-2.522-18.25-7.517-5.051-4.971-7.581-11.006-7.586-18.108 5e-3 -7.101 2.535-13.139 7.586-18.109 5.053-4.971 11.136-7.453 18.25-7.447 7.089-6e-3 13.149 2.477 18.18 7.447 1.405 1.377 2.612 2.835 3.623 4.375h84.681c11.307-0.32 21.012-4.535 29.117-12.642 8.433-8.449 12.646-18.633 12.644-30.546v-156.76c-2e-3 -11.867-4.218-22.004-12.644-30.409-8.431-8.429-18.59-12.643-30.484-12.643h-210.3c-11.917-4e-3 -22.101 4.211-30.551 12.643-8.427 8.405-12.643 18.542-12.644 30.409v126.97c-9.342-0.021-18.682-0.045-28.022-0.069v0.069h-4.922c-12.029 0-22.326-4.281-30.893-12.848-6.546-6.542-10.6-14.107-12.166-22.687-0.402-2.314-0.63-4.706-0.684-7.175v-28.907c0-12.026 4.284-22.322 12.85-30.887 8.566-8.564 18.864-12.848 30.893-12.848h4.922v-11.617c1e-3 -19.605 6.973-36.348 20.914-50.227h-0.068c13.931-13.903 30.721-20.853 50.371-20.843h18.317l-12.372-27.265c-2.591 1.187-5.44 1.779-8.543 1.776-5.703-0.01-10.579-2.037-14.625-6.082-4.024-4.047-6.029-8.921-6.015-14.625-0.015-5.68 1.99-10.532 6.015-14.555 4.046-4.046 8.923-6.074 14.625-6.082 5.681 8e-3 10.534 2.036 14.559 6.082 4.047 4.023 6.074 8.875 6.083 14.555 0.012 5.435-1.788 10.126-5.4 14.077l34.993 32.118h114.96l34.993-32.118c-3.612-3.95-5.412-8.642-5.399-14.077-0.014-5.68 1.99-10.532 6.015-14.555 4.024-4.046 8.877-6.074 14.559-6.082 5.702 8e-3 10.579 2.036 14.625 6.082z" clip-rule="evenodd" fill="#018000" fill-rule="evenodd"/></g><g id="g8"><path id="path6" d="m383.32 325.29h-59.053c-3.045 4.527-6.621 8.831-10.729 12.917-15.837 15.87-34.975 23.798-57.411 23.781-22.431 0.017-41.59-7.911-57.48-23.781-4.089-4.086-7.642-8.39-10.663-12.917h-59.188v-17.903h254.52z" clip-rule="evenodd" fill="#018000" fill-rule="evenodd"/></g><g id="g12"><path id="path10" d="m179.1 229.14c-2.915 2.916-4.373 6.469-4.373 10.661 0 4.191 1.458 7.744 4.373 10.66 2.917 2.914 6.425 4.374 10.526 4.374s7.61-1.46 10.526-4.374c2.917-2.916 4.375-6.469 4.375-10.66 0-4.192-1.458-7.745-4.375-10.661-2.916-2.915-6.425-4.372-10.526-4.372s-7.609 1.457-10.526 4.372zm-22.964 10.661c0-9.295 3.281-17.221 9.842-23.781s14.444-9.841 23.648-9.841 17.087 3.281 23.648 9.841c6.562 6.561 9.842 14.486 9.842 23.781 0 9.294-3.28 17.221-9.842 23.781-6.561 6.559-14.444 9.84-23.648 9.84s-17.087-3.281-23.648-9.84c-6.561-6.56-9.842-14.487-9.842-23.781z" clip-rule="evenodd" fill="#018000" fill-rule="evenodd"/></g><g id="g16"><path id="path14" d="m312.11 229.14c-2.916 2.916-4.374 6.469-4.374 10.661 0 4.191 1.458 7.744 4.374 10.66 2.916 2.914 6.424 4.374 10.524 4.374 4.102 0 7.61-1.46 10.526-4.374 2.917-2.916 4.374-6.469 4.374-10.66 0-4.192-1.457-7.745-4.374-10.661-2.916-2.915-6.425-4.372-10.526-4.372-4.1 0-7.608 1.457-10.524 4.372zm-13.123-13.12c6.562-6.56 14.445-9.841 23.647-9.841 9.204 0 17.087 3.281 23.649 9.841 6.562 6.561 9.841 14.486 9.841 23.781 0 9.294-3.279 17.221-9.841 23.781-6.563 6.559-14.445 9.84-23.649 9.84-9.202 0-17.086-3.281-23.647-9.84-6.561-6.561-9.842-14.487-9.842-23.781 0-9.295 3.282-17.221 9.842-23.781z" clip-rule="evenodd" fill="#018000" fill-rule="evenodd"/></g></g></g></svg>
