<svg version="1" xmlns="http://www.w3.org/2000/svg" width="933.333" height="933.333" viewBox="0 0 700.000000 700.000000"><path d="M196.7 27.7c-.1.1-25.2.3-55.7.6-48.2.4-56.1.7-59.9 2.1-4.8 1.8-13.3 5.8-14.1 6.6-.3.3-1.8 1.4-3.5 2.5-9.8 6.2-20.1 20.1-23.7 32-.5 1.6-1.2 5.5-1.6 8.5-.9 7-.9 395.9 0 406 2.1 22.8 20.3 43.7 44.8 51.6 5.2 1.6 19.5 1.7 231.9 2.2l226.4.4 16.1 16.3c8.9 9 36.5 37.1 61.5 62.4 25 25.3 45.7 45.8 46 45.6 1.5-1.6 2.2-412.6.9-532.6l-.7-57.7-4.5-8.8c-7.7-15.3-17-25-29.8-31.5-7.5-3.8-12.3-4.7-30.5-5.5-12.1-.6-403.1-1.3-403.6-.7zm184.1 93.7c18.2 1 34.2 5.6 48.1 13.8 12 7.2 24.7 22.5 30.2 36.4 6.6 17 7.2 43.1 1.3 59.6-5.4 15-12.9 25.1-37.3 50.3-23.7 24.6-28.5 31.3-30.5 43.5-.3 1.9-.8 4.6-1.1 5.9-.2 1.4-.7 4.7-1 7.4-.3 2.8-.8 5.3-1 5.6-.2.4-12.9.6-28.2.6-27.1 0-27.8-.1-27.7-2 1.2-24.4 5.3-42.5 12.7-55.5 4.3-7.6 8.7-12.7 25.6-29.9 18.6-19.1 25.8-28.4 27.8-36.5 1.1-4.4 1-21-.2-25.4-2.5-9.6-8.2-16.4-17-20.3-7.2-3.2-20.6-3.2-28.9.1-7.3 2.8-14.6 9.4-17.6 15.7-2.2 4.8-2.6 6.2-3.6 12.3-.3 1.9-.6 4-.8 4.5-.3.7-11.4 1.2-32.1 1.4l-31.7.2.6-7.3c1.4-17 6.2-31 14.7-43.9 14.4-21.5 42.4-35.9 71.9-36.8 4.1-.1 7.6-.4 7.8-.5.1-.2 1.9-.2 4 0 2 .1 8.3.5 14 .8zM377 381c12.6 4.7 19.8 14.5 20.8 28.2 1.4 20.1-11.6 34.4-32.4 35.6-15.6.9-27.3-5.4-34.1-18.3-2.3-4.2-2.7-6.3-2.7-13.5 0-11.3 2.3-17.7 8.9-24.5 3.6-3.7 6.5-5.7 10.4-7 10.2-3.3 20.9-3.5 29.1-.5z"/></svg>