<?xml version="1.0" standalone="no"?>
<!DOCTYPE svg PUBLIC "-//W3C//DTD SVG 20010904//EN"
 "http://www.w3.org/TR/2001/REC-SVG-20010904/DTD/svg10.dtd">
<svg version="1.0" xmlns="http://www.w3.org/2000/svg"
 width="1024.000000pt" height="1024.000000pt" viewBox="0 0 1024.000000 1024.000000"
 preserveAspectRatio="xMidYMid meet">
<metadata>
Created by potrace 1.14, written by Peter Selinger 2001-2017
</metadata>
<g transform="translate(0.000000,1024.000000) scale(0.100000,-0.100000)"
fill="#000000" stroke="none">
<path d="M0 5120 l0 -5120 5120 0 5120 0 0 5120 0 5120 -5120 0 -5120 0 0
-5120z m7018 2749 c611 -66 1005 -363 1108 -834 26 -118 23 -329 -5 -465 -60
-285 -195 -565 -413 -853 -77 -102 -231 -284 -378 -447 -254 -281 -371 -458
-433 -655 -35 -110 -46 -180 -56 -339 -9 -145 -17 -170 -68 -203 -25 -17 -63
-18 -458 -18 -492 0 -479 -2 -518 83 -19 42 -22 64 -21 207 0 137 4 176 26
272 47 198 131 382 269 588 75 113 157 215 353 441 224 259 323 405 382 563
105 279 47 514 -149 611 -102 50 -188 63 -372 57 -177 -7 -271 -24 -438 -82
-57 -19 -117 -35 -134 -35 -41 0 -69 35 -81 103 -13 66 -63 499 -69 592 -8
125 38 170 250 248 217 80 438 133 667 161 141 17 407 20 538 5z m-2778 -1938
c113 -15 161 -48 123 -86 -19 -19 -19 -19 -507 5 -182 10 -293 10 -460 1 -443
-22 -748 -70 -1513 -237 -143 -31 -176 -36 -197 -26 -33 15 -34 47 -3 67 43
28 714 175 1047 229 132 21 305 44 465 60 83 8 964 -3 1045 -13z m242 -760
c194 -34 288 -72 288 -116 0 -33 -46 -36 -164 -10 -298 64 -540 59 -1066 -25
-417 -66 -483 -72 -520 -42 -19 15 -21 22 -12 39 14 25 58 36 227 58 66 9 234
34 374 56 341 54 368 56 578 58 139 1 208 -4 295 -18z m477 -790 c28 -16 28
-57 -1 -73 -16 -8 -114 -14 -298 -20 -944 -26 -1389 -127 -2330 -530 -277
-119 -289 -123 -315 -104 -16 12 -17 18 -8 39 14 30 81 64 389 195 621 265
1043 391 1514 451 401 52 987 75 1049 42z m1624 -811 c264 -88 472 -299 577
-588 151 -415 -2 -752 -373 -819 -193 -34 -436 29 -622 162 -87 62 -212 198
-269 293 -27 45 -65 128 -84 184 -29 86 -36 121 -40 212 -3 66 0 130 8 165 43
199 218 368 430 416 106 24 255 14 373 -25z"/>
</g>
</svg>
