<svg version="1" xmlns="http://www.w3.org/2000/svg" width="682.667" height="682.667" viewBox="0 0 512.000000 512.000000"><path d="M63 21.1c-6.4 1.3-16.2 6.6-21.6 11.7-6.1 5.9-10 12.2-12.4 20.1-2 6.2-2 10-2 154.6s0 148.4 2 154.6c4.9 16 18.5 28.4 34.8 31.8 3.8.8 52.7 1.1 168.7 1.1h163.3l45.5 46.1 45.4 46.1.6-71.4c.8-83.1.7-211.1-.2-299.3l-.6-62-3.6-7.6c-4.2-8.8-11.7-16.9-19.5-21.1-11.4-6.2 1.2-5.8-206.4-5.7-104.2.1-191.5.5-194 1zm231.5 69.8c30.5 8 47.1 30.9 45.2 62.6-1.1 18.6-6.8 28.5-30.2 52.5-20.7 21.2-21.2 22-24.1 42.7l-.5 3.3h-41.1l.7-8.8c1.4-17.2 4.6-27.6 11.6-37.9 1.8-2.6 9.4-10.9 16.9-18.3 16.8-16.6 20.2-22.4 20.2-34.2 0-10.4-1.6-15.5-6.6-20.4-4.6-4.6-9.3-6.4-17.2-6.4-14.3 0-24.3 8.4-26.3 21.9l-.6 4.6-23.4.3-23.4.2.7-6.7c1-10 2.4-14.9 6.6-23.8 8.2-17.2 24.7-28.8 46.7-33 11.2-2.1 34.1-1.4 44.8 1.4zm-17 188.5c2.8 1.3 6.2 3.6 7.7 5.2 9.5 10.1 7.4 29.2-3.9 36.5-14.1 8.9-33 4.3-39.4-9.6-3.7-8.1-1.7-20.8 4.4-27.3 6.7-7.2 21.4-9.5 31.2-4.8z"/></svg>