<?xml version="1.0" encoding="UTF-8" standalone="no"?><svg xmlns="http://www.w3.org/2000/svg" xmlns:xlink="http://www.w3.org/1999/xlink" contentScriptType="application/ecmascript" contentStyleType="text/css" height="1359px" preserveAspectRatio="none" style="width:786px;height:1359px;background:#FAF0E6;" version="1.1" viewBox="0 0 786 1359" width="786px" zoomAndPan="magnify"><defs><filter height="300%" id="f1py7g1wtp6ye9" width="300%" x="-1" y="-1"><feGaussianBlur result="blurOut" stdDeviation="2.0"/><feColorMatrix in="blurOut" result="blurOut2" type="matrix" values="0 0 0 0 0 0 0 0 0 0 0 0 0 0 0 0 0 0 .4 0"/><feOffset dx="4.0" dy="4.0" in="blurOut2" result="blurOut3"/><feBlend in="SourceGraphic" in2="blurOut3" mode="normal"/></filter></defs><g><rect fill="#87CEEB" filter="url(#f1py7g1wtp6ye9)" height="1135.7148" style="stroke: #000000; stroke-width: 2.0;" width="765" x="10" y="10.5762"/><path d="M97,11.5762 L97,21.1855 L87,31.1855 L10,31.1855 " fill="none" style="stroke: #000000; stroke-width: 2.0;"/><text fill="#000000" font-family="sans-serif" font-size="14" lengthAdjust="spacingAndGlyphs" textLength="77" x="13" y="26.1094">Topic-Cloud</text><ellipse cx="200.75" cy="51.1855" fill="#000000" filter="url(#f1py7g1wtp6ye9)" rx="10" ry="10" style="stroke: none; stroke-width: 1.0;"/><polygon fill="#FEFECE" filter="url(#f1py7g1wtp6ye9)" points="176.25,81.1855,225.25,81.1855,237.25,93.1855,225.25,105.1855,176.25,105.1855,164.25,93.1855,176.25,81.1855" style="stroke: #A80036; stroke-width: 1.5;"/><text fill="#000000" font-family="sans-serif" font-size="11" lengthAdjust="spacingAndGlyphs" textLength="49" x="176.25" y="97.6865">decision ?</text><rect fill="#FEFECE" filter="url(#f1py7g1wtp6ye9)" height="35.0938" rx="12.5" ry="12.5" style="stroke: #A80036; stroke-width: 1.5;" width="86" x="89.75" y="115.1855"/><text fill="#000000" font-family="sans-serif" font-size="12" lengthAdjust="spacingAndGlyphs" textLength="66" x="99.75" y="137.6426">create room</text><rect fill="#FEFECE" filter="url(#f1py7g1wtp6ye9)" height="35.0938" rx="12.5" ry="12.5" style="stroke: #A80036; stroke-width: 1.5;" width="146" x="195.75" y="115.1855"/><text fill="#000000" font-family="sans-serif" font-size="12" lengthAdjust="spacingAndGlyphs" textLength="126" x="205.75" y="137.6426">enter room-code/name</text><polygon fill="#FEFECE" filter="url(#f1py7g1wtp6ye9)" points="200.75,156.2793,212.75,168.2793,200.75,180.2793,188.75,168.2793,200.75,156.2793" style="stroke: #A80036; stroke-width: 1.5;"/><rect fill="#FEFECE" filter="url(#f1py7g1wtp6ye9)" height="35.0938" rx="12.5" ry="12.5" style="stroke: #A80036; stroke-width: 1.5;" width="88" x="156.75" y="200.2793"/><text fill="#000000" font-family="sans-serif" font-size="12" lengthAdjust="spacingAndGlyphs" textLength="68" x="166.75" y="222.7363">click options</text><rect fill="#FEFECE" filter="url(#f1py7g1wtp6ye9)" height="35.0938" rx="12.5" ry="12.5" style="stroke: #A80036; stroke-width: 1.5;" width="116" x="142.75" y="255.373"/><text fill="#000000" font-family="sans-serif" font-size="12" lengthAdjust="spacingAndGlyphs" textLength="96" x="152.75" y="277.8301">select topic-cloud</text><rect fill="#B0E0E6" filter="url(#f1py7g1wtp6ye9)" height="257.9844" style="stroke: #000000; stroke-width: 2.0;" width="338" x="31.75" y="301.043"/><path d="M100.75,302.043 L100.75,311.6523 L90.75,321.6523 L31.75,321.6523 " fill="none" style="stroke: #000000; stroke-width: 2.0;"/><text fill="#000000" font-family="sans-serif" font-size="14" lengthAdjust="spacingAndGlyphs" textLength="59" x="34.75" y="316.5762">select-list</text><polygon fill="#FEFECE" filter="url(#f1py7g1wtp6ye9)" points="200.75,338.6523,200.75,338.6523,212.75,350.6523,200.75,362.6523,200.75,362.6523,188.75,350.6523,200.75,338.6523" style="stroke: #A80036; stroke-width: 1.5;"/><rect fill="#FEFECE" filter="url(#f1py7g1wtp6ye9)" height="65.2813" rx="12.5" ry="12.5" style="stroke: #A80036; stroke-width: 1.5;" width="92" x="41.75" y="382.6523"/><text fill="#000000" font-family="sans-serif" font-size="12" lengthAdjust="spacingAndGlyphs" textLength="72" x="51.75" y="405.1094">continue with</text><text fill="#000000" font-family="sans-serif" font-size="12" lengthAdjust="spacingAndGlyphs" textLength="70" x="51.75" y="420.2031">complete list</text><text fill="#000000" font-family="sans-serif" font-size="12" lengthAdjust="spacingAndGlyphs" textLength="68" x="51.75" y="435.2969">of questions</text><rect fill="#FEFECE" filter="url(#f1py7g1wtp6ye9)" height="50.1875" rx="12.5" ry="12.5" style="stroke: #A80036; stroke-width: 1.5;" width="94" x="153.75" y="382.6523"/><text fill="#000000" font-family="sans-serif" font-size="12" lengthAdjust="spacingAndGlyphs" textLength="72" x="163.75" y="405.1094">continue with</text><text fill="#000000" font-family="sans-serif" font-size="12" lengthAdjust="spacingAndGlyphs" textLength="71" x="166.75" y="420.2031">current filters</text><rect fill="#FEFECE" filter="url(#f1py7g1wtp6ye9)" height="65.2813" rx="12.5" ry="12.5" style="stroke: #A80036; stroke-width: 1.5;" width="92" x="267.75" y="382.6523"/><text fill="#000000" font-family="sans-serif" font-size="12" lengthAdjust="spacingAndGlyphs" textLength="72" x="277.75" y="405.1094">continue with</text><text fill="#000000" font-family="sans-serif" font-size="12" lengthAdjust="spacingAndGlyphs" textLength="71" x="277.75" y="420.2031">all questions</text><text fill="#000000" font-family="sans-serif" font-size="12" lengthAdjust="spacingAndGlyphs" textLength="51" x="289.75" y="435.2969">from now</text><polygon fill="#FEFECE" filter="url(#f1py7g1wtp6ye9)" points="200.75,467.9336,200.75,467.9336,212.75,479.9336,200.75,491.9336,200.75,491.9336,188.75,479.9336,200.75,467.9336" style="stroke: #A80036; stroke-width: 1.5;"/><rect fill="#FEFECE" filter="url(#f1py7g1wtp6ye9)" height="35.0938" rx="12.5" ry="12.5" style="stroke: #A80036; stroke-width: 1.5;" width="90" x="155.75" y="511.9336"/><text fill="#000000" font-family="sans-serif" font-size="12" lengthAdjust="spacingAndGlyphs" textLength="70" x="165.75" y="534.3906">select option</text><polygon fill="#FEFECE" filter="url(#f1py7g1wtp6ye9)" points="178.25,579.0273,223.25,579.0273,235.25,591.0273,223.25,603.0273,178.25,603.0273,166.25,591.0273,178.25,579.0273" style="stroke: #A80036; stroke-width: 1.5;"/><text fill="#000000" font-family="sans-serif" font-size="11" lengthAdjust="spacingAndGlyphs" textLength="45" x="178.25" y="595.5283">choose ?</text><text fill="#000000" font-family="sans-serif" font-size="11" lengthAdjust="spacingAndGlyphs" textLength="32" x="134.25" y="588.6104">cancel</text><text fill="#000000" font-family="sans-serif" font-size="11" lengthAdjust="spacingAndGlyphs" textLength="122" x="235.25" y="588.6104">confirm "continue-button"</text><ellipse cx="45" cy="623.0273" fill="#FFFFFF" filter="url(#f1py7g1wtp6ye9)" rx="10" ry="10" style="stroke: #000000; stroke-width: 1.5;"/><line style="stroke: #000000; stroke-width: 2.5;" x1="38.8128" x2="51.1872" y1="616.8402" y2="629.2145"/><line style="stroke: #000000; stroke-width: 2.5;" x1="51.1872" x2="38.8128" y1="616.8402" y2="629.2145"/><path d="M435,613.0273 L435,655.7305 L600,655.7305 L600,623.0273 L590,613.0273 L435,613.0273 " fill="#FBFB77" filter="url(#f1py7g1wtp6ye9)" style="stroke: #A80036; stroke-width: 1.0;"/><path d="M590,613.0273 L590,623.0273 L600,623.0273 L590,613.0273 " fill="#FBFB77" style="stroke: #A80036; stroke-width: 1.0;"/><text fill="#000000" font-family="sans-serif" font-size="13" lengthAdjust="spacingAndGlyphs" textLength="144" x="441" y="631.5225">edit your own topic-cloud</text><text fill="#000000" font-family="sans-serif" font-size="13" lengthAdjust="spacingAndGlyphs" textLength="82" x="477" y="647.874">or demo-cloud</text><rect fill="#FEFECE" filter="url(#f1py7g1wtp6ye9)" height="35.0938" rx="12.5" ry="12.5" style="stroke: #A80036; stroke-width: 1.5;" width="117" x="298" y="616.832"/><text fill="#000000" font-family="sans-serif" font-size="12" lengthAdjust="spacingAndGlyphs" textLength="97" x="308" y="639.2891">modify cloud-view</text><polygon fill="#FEFECE" filter="url(#f1py7g1wtp6ye9)" points="356.5,675.7305,356.5,675.7305,368.5,687.7305,356.5,699.7305,356.5,699.7305,344.5,687.7305,356.5,675.7305" style="stroke: #A80036; stroke-width: 1.5;"/><rect fill="#FEFECE" filter="url(#f1py7g1wtp6ye9)" height="50.1875" rx="12.5" ry="12.5" style="stroke: #A80036; stroke-width: 1.5;" width="86" x="260.5" y="719.7305"/><text fill="#000000" font-family="sans-serif" font-size="12" lengthAdjust="spacingAndGlyphs" textLength="41" x="282.5" y="742.1875">activate</text><text fill="#000000" font-family="sans-serif" font-size="12" lengthAdjust="spacingAndGlyphs" textLength="66" x="270.5" y="757.2813">demo-cloud</text><rect fill="#FEFECE" filter="url(#f1py7g1wtp6ye9)" height="50.1875" rx="12.5" ry="12.5" style="stroke: #A80036; stroke-width: 1.5;" width="86" x="366.5" y="719.7305"/><text fill="#000000" font-family="sans-serif" font-size="12" lengthAdjust="spacingAndGlyphs" textLength="55" x="382.5" y="742.1875">deactivate</text><text fill="#000000" font-family="sans-serif" font-size="12" lengthAdjust="spacingAndGlyphs" textLength="66" x="376.5" y="757.2813">demo-cloud</text><polygon fill="#FEFECE" filter="url(#f1py7g1wtp6ye9)" points="356.5,779.918,356.5,779.918,368.5,791.918,356.5,803.918,356.5,803.918,344.5,791.918,356.5,779.918" style="stroke: #A80036; stroke-width: 1.5;"/><rect fill="#B0E0E6" filter="url(#f1py7g1wtp6ye9)" height="136.7031" style="stroke: #000000; stroke-width: 2.0;" width="683" x="80" y="814.4941"/><path d="M152,815.4941 L152,825.1035 L142,835.1035 L80,835.1035 " fill="none" style="stroke: #000000; stroke-width: 2.0;"/><text fill="#000000" font-family="sans-serif" font-size="14" lengthAdjust="spacingAndGlyphs" textLength="62" x="83" y="830.0273">edit-cloud</text><path d="M631,874.2988 L631,917.002 L753,917.002 L753,884.2988 L743,874.2988 L631,874.2988 " fill="#FBFB77" filter="url(#f1py7g1wtp6ye9)" style="stroke: #A80036; stroke-width: 1.0;"/><path d="M743,874.2988 L743,884.2988 L753,884.2988 L743,874.2988 " fill="#FBFB77" style="stroke: #A80036; stroke-width: 1.0;"/><text fill="#000000" font-family="sans-serif" font-size="13" lengthAdjust="spacingAndGlyphs" textLength="101" x="637" y="892.7939">options for weight</text><text fill="#000000" font-family="sans-serif" font-size="13" lengthAdjust="spacingAndGlyphs" textLength="89" x="641" y="909.1455">classes 1 to 10</text><rect fill="#000000" filter="url(#f1py7g1wtp6ye9)" height="6" rx="2.5" ry="2.5" style="stroke: #000000; stroke-width: 1.0;" width="531" x="90" y="852.1035"/><rect fill="#FEFECE" filter="url(#f1py7g1wtp6ye9)" height="35.0938" rx="12.5" ry="12.5" style="stroke: #A80036; stroke-width: 1.5;" width="106" x="104" y="878.1035"/><text fill="#000000" font-family="sans-serif" font-size="12" lengthAdjust="spacingAndGlyphs" textLength="86" x="114" y="900.5605">general options</text><rect fill="#FEFECE" filter="url(#f1py7g1wtp6ye9)" height="35.0938" rx="12.5" ry="12.5" style="stroke: #A80036; stroke-width: 1.5;" width="84" x="238" y="878.1035"/><text fill="#000000" font-family="sans-serif" font-size="12" lengthAdjust="spacingAndGlyphs" textLength="64" x="248" y="900.5605">font options</text><rect fill="#FEFECE" filter="url(#f1py7g1wtp6ye9)" height="35.0938" rx="12.5" ry="12.5" style="stroke: #A80036; stroke-width: 1.5;" width="97" x="350" y="878.1035"/><text fill="#000000" font-family="sans-serif" font-size="12" lengthAdjust="spacingAndGlyphs" textLength="74" x="363" y="900.5605">hover options</text><rect fill="#FEFECE" filter="url(#f1py7g1wtp6ye9)" height="35.0938" rx="12.5" ry="12.5" style="stroke: #A80036; stroke-width: 1.5;" width="134" x="475" y="878.1035"/><text fill="#000000" font-family="sans-serif" font-size="12" lengthAdjust="spacingAndGlyphs" textLength="114" x="485" y="900.5605">weight-class options</text><rect fill="#000000" filter="url(#f1py7g1wtp6ye9)" height="6" rx="2.5" ry="2.5" style="stroke: #000000; stroke-width: 1.0;" width="531" x="90" y="933.1973"/><polygon fill="#FEFECE" filter="url(#f1py7g1wtp6ye9)" points="356.5,971.1973,356.5,971.1973,368.5,983.1973,356.5,995.1973,356.5,995.1973,344.5,983.1973,356.5,971.1973" style="stroke: #A80036; stroke-width: 1.5;"/><rect fill="#FEFECE" filter="url(#f1py7g1wtp6ye9)" height="35.0938" rx="12.5" ry="12.5" style="stroke: #A80036; stroke-width: 1.5;" width="48" x="261.5" y="1015.1973"/><text fill="#000000" font-family="sans-serif" font-size="12" lengthAdjust="spacingAndGlyphs" textLength="28" x="271.5" y="1037.6543">reset</text><rect fill="#FEFECE" filter="url(#f1py7g1wtp6ye9)" height="35.0938" rx="12.5" ry="12.5" style="stroke: #A80036; stroke-width: 1.5;" width="56" x="329.5" y="1015.1973"/><text fill="#000000" font-family="sans-serif" font-size="12" lengthAdjust="spacingAndGlyphs" textLength="36" x="339.5" y="1037.6543">cancel</text><rect fill="#FEFECE" filter="url(#f1py7g1wtp6ye9)" height="35.0938" rx="12.5" ry="12.5" style="stroke: #A80036; stroke-width: 1.5;" width="46" x="405.5" y="1015.1973"/><text fill="#000000" font-family="sans-serif" font-size="12" lengthAdjust="spacingAndGlyphs" textLength="26" x="415.5" y="1037.6543">save</text><polygon fill="#FEFECE" filter="url(#f1py7g1wtp6ye9)" points="356.5,1070.291,356.5,1070.291,368.5,1082.291,356.5,1094.291,356.5,1094.291,344.5,1082.291,356.5,1070.291" style="stroke: #A80036; stroke-width: 1.5;"/><ellipse cx="356.5" cy="1124.291" fill="#FFFFFF" filter="url(#f1py7g1wtp6ye9)" rx="10" ry="10" style="stroke: #000000; stroke-width: 1.5;"/><line style="stroke: #000000; stroke-width: 2.5;" x1="350.3128" x2="362.6872" y1="1118.1038" y2="1130.4782"/><line style="stroke: #000000; stroke-width: 2.5;" x1="362.6872" x2="350.3128" y1="1118.1038" y2="1130.4782"/><line style="stroke: #000000; stroke-width: 1.5;" x1="164.25" x2="132.75" y1="93.1855" y2="93.1855"/><line style="stroke: #000000; stroke-width: 1.5;" x1="132.75" x2="132.75" y1="93.1855" y2="115.1855"/><polygon fill="#000000" points="128.75,105.1855,132.75,115.1855,136.75,105.1855,132.75,109.1855" style="stroke: #000000; stroke-width: 1.0;"/><line style="stroke: #000000; stroke-width: 1.5;" x1="237.25" x2="268.75" y1="93.1855" y2="93.1855"/><line style="stroke: #000000; stroke-width: 1.5;" x1="268.75" x2="268.75" y1="93.1855" y2="115.1855"/><polygon fill="#000000" points="264.75,105.1855,268.75,115.1855,272.75,105.1855,268.75,109.1855" style="stroke: #000000; stroke-width: 1.0;"/><line style="stroke: #000000; stroke-width: 1.5;" x1="132.75" x2="132.75" y1="150.2793" y2="168.2793"/><line style="stroke: #000000; stroke-width: 1.5;" x1="132.75" x2="188.75" y1="168.2793" y2="168.2793"/><polygon fill="#000000" points="178.75,164.2793,188.75,168.2793,178.75,172.2793,182.75,168.2793" style="stroke: #000000; stroke-width: 1.0;"/><line style="stroke: #000000; stroke-width: 1.5;" x1="268.75" x2="268.75" y1="150.2793" y2="168.2793"/><line style="stroke: #000000; stroke-width: 1.5;" x1="268.75" x2="212.75" y1="168.2793" y2="168.2793"/><polygon fill="#000000" points="222.75,164.2793,212.75,168.2793,222.75,172.2793,218.75,168.2793" style="stroke: #000000; stroke-width: 1.0;"/><line style="stroke: #000000; stroke-width: 1.5;" x1="200.75" x2="200.75" y1="61.1855" y2="81.1855"/><polygon fill="#000000" points="196.75,71.1855,200.75,81.1855,204.75,71.1855,200.75,75.1855" style="stroke: #000000; stroke-width: 1.0;"/><line style="stroke: #000000; stroke-width: 1.5;" x1="200.75" x2="200.75" y1="180.2793" y2="200.2793"/><polygon fill="#000000" points="196.75,190.2793,200.75,200.2793,204.75,190.2793,200.75,194.2793" style="stroke: #000000; stroke-width: 1.0;"/><line style="stroke: #000000; stroke-width: 1.5;" x1="200.75" x2="200.75" y1="235.373" y2="255.373"/><polygon fill="#000000" points="196.75,245.373,200.75,255.373,204.75,245.373,200.75,249.373" style="stroke: #000000; stroke-width: 1.0;"/><line style="stroke: #000000; stroke-width: 1.5;" x1="188.75" x2="87.75" y1="350.6523" y2="350.6523"/><line style="stroke: #000000; stroke-width: 1.5;" x1="87.75" x2="87.75" y1="350.6523" y2="382.6523"/><polygon fill="#000000" points="83.75,372.6523,87.75,382.6523,91.75,372.6523,87.75,376.6523" style="stroke: #000000; stroke-width: 1.0;"/><line style="stroke: #000000; stroke-width: 1.5;" x1="212.75" x2="313.75" y1="350.6523" y2="350.6523"/><line style="stroke: #000000; stroke-width: 1.5;" x1="313.75" x2="313.75" y1="350.6523" y2="382.6523"/><polygon fill="#000000" points="309.75,372.6523,313.75,382.6523,317.75,372.6523,313.75,376.6523" style="stroke: #000000; stroke-width: 1.0;"/><line style="stroke: #000000; stroke-width: 1.5;" x1="87.75" x2="87.75" y1="447.9336" y2="479.9336"/><line style="stroke: #000000; stroke-width: 1.5;" x1="87.75" x2="188.75" y1="479.9336" y2="479.9336"/><polygon fill="#000000" points="178.75,475.9336,188.75,479.9336,178.75,483.9336,182.75,479.9336" style="stroke: #000000; stroke-width: 1.0;"/><line style="stroke: #000000; stroke-width: 1.5;" x1="313.75" x2="313.75" y1="447.9336" y2="479.9336"/><line style="stroke: #000000; stroke-width: 1.5;" x1="313.75" x2="212.75" y1="479.9336" y2="479.9336"/><polygon fill="#000000" points="222.75,475.9336,212.75,479.9336,222.75,483.9336,218.75,479.9336" style="stroke: #000000; stroke-width: 1.0;"/><line style="stroke: #000000; stroke-width: 1.5;" x1="200.75" x2="200.75" y1="362.6523" y2="369.319"/><line style="stroke: #000000; stroke-width: 1.5;" x1="200.75" x2="200.75" y1="369.319" y2="382.6523"/><polygon fill="#000000" points="196.75,372.6523,200.75,382.6523,204.75,372.6523,200.75,376.6523" style="stroke: #000000; stroke-width: 1.0;"/><line style="stroke: #000000; stroke-width: 1.5;" x1="200.75" x2="200.75" y1="432.8398" y2="452.9336"/><line style="stroke: #000000; stroke-width: 1.5;" x1="200.75" x2="200.75" y1="452.9336" y2="467.9336"/><polygon fill="#000000" points="196.75,457.9336,200.75,467.9336,204.75,457.9336,200.75,461.9336" style="stroke: #000000; stroke-width: 1.0;"/><line style="stroke: #000000; stroke-width: 1.5;" x1="200.75" x2="200.75" y1="491.9336" y2="511.9336"/><polygon fill="#000000" points="196.75,501.9336,200.75,511.9336,204.75,501.9336,200.75,505.9336" style="stroke: #000000; stroke-width: 1.0;"/><line style="stroke: #000000; stroke-width: 1.5;" x1="200.75" x2="200.75" y1="290.4668" y2="338.6523"/><polygon fill="#000000" points="196.75,328.6523,200.75,338.6523,204.75,328.6523,200.75,332.6523" style="stroke: #000000; stroke-width: 1.0;"/><line style="stroke: #000000; stroke-width: 1.5;" x1="344.5" x2="303.5" y1="687.7305" y2="687.7305"/><line style="stroke: #000000; stroke-width: 1.5;" x1="303.5" x2="303.5" y1="687.7305" y2="719.7305"/><polygon fill="#000000" points="299.5,709.7305,303.5,719.7305,307.5,709.7305,303.5,713.7305" style="stroke: #000000; stroke-width: 1.0;"/><line style="stroke: #000000; stroke-width: 1.5;" x1="368.5" x2="409.5" y1="687.7305" y2="687.7305"/><line style="stroke: #000000; stroke-width: 1.5;" x1="409.5" x2="409.5" y1="687.7305" y2="719.7305"/><polygon fill="#000000" points="405.5,709.7305,409.5,719.7305,413.5,709.7305,409.5,713.7305" style="stroke: #000000; stroke-width: 1.0;"/><line style="stroke: #000000; stroke-width: 1.5;" x1="303.5" x2="303.5" y1="769.918" y2="791.918"/><line style="stroke: #000000; stroke-width: 1.5;" x1="303.5" x2="344.5" y1="791.918" y2="791.918"/><polygon fill="#000000" points="334.5,787.918,344.5,791.918,334.5,795.918,338.5,791.918" style="stroke: #000000; stroke-width: 1.0;"/><line style="stroke: #000000; stroke-width: 1.5;" x1="409.5" x2="409.5" y1="769.918" y2="791.918"/><line style="stroke: #000000; stroke-width: 1.5;" x1="409.5" x2="368.5" y1="791.918" y2="791.918"/><polygon fill="#000000" points="378.5,787.918,368.5,791.918,378.5,795.918,374.5,791.918" style="stroke: #000000; stroke-width: 1.0;"/><line style="stroke: #000000; stroke-width: 1.5;" x1="356.5" x2="356.5" y1="651.9258" y2="675.7305"/><polygon fill="#000000" points="352.5,665.7305,356.5,675.7305,360.5,665.7305,356.5,669.7305" style="stroke: #000000; stroke-width: 1.0;"/><line style="stroke: #000000; stroke-width: 1.5;" x1="157" x2="157" y1="858.1035" y2="878.1035"/><polygon fill="#000000" points="153,868.1035,157,878.1035,161,868.1035,157,872.1035" style="stroke: #000000; stroke-width: 1.0;"/><line style="stroke: #000000; stroke-width: 1.5;" x1="280" x2="280" y1="858.1035" y2="878.1035"/><polygon fill="#000000" points="276,868.1035,280,878.1035,284,868.1035,280,872.1035" style="stroke: #000000; stroke-width: 1.0;"/><line style="stroke: #000000; stroke-width: 1.5;" x1="398.5" x2="398.5" y1="858.1035" y2="878.1035"/><polygon fill="#000000" points="394.5,868.1035,398.5,878.1035,402.5,868.1035,398.5,872.1035" style="stroke: #000000; stroke-width: 1.0;"/><line style="stroke: #000000; stroke-width: 1.5;" x1="542" x2="542" y1="858.1035" y2="878.1035"/><polygon fill="#000000" points="538,868.1035,542,878.1035,546,868.1035,542,872.1035" style="stroke: #000000; stroke-width: 1.0;"/><line style="stroke: #000000; stroke-width: 1.5;" x1="157" x2="157" y1="913.1973" y2="933.1973"/><polygon fill="#000000" points="153,923.1973,157,933.1973,161,923.1973,157,927.1973" style="stroke: #000000; stroke-width: 1.0;"/><line style="stroke: #000000; stroke-width: 1.5;" x1="280" x2="280" y1="913.1973" y2="933.1973"/><polygon fill="#000000" points="276,923.1973,280,933.1973,284,923.1973,280,927.1973" style="stroke: #000000; stroke-width: 1.0;"/><line style="stroke: #000000; stroke-width: 1.5;" x1="398.5" x2="398.5" y1="913.1973" y2="933.1973"/><polygon fill="#000000" points="394.5,923.1973,398.5,933.1973,402.5,923.1973,398.5,927.1973" style="stroke: #000000; stroke-width: 1.0;"/><line style="stroke: #000000; stroke-width: 1.5;" x1="542" x2="542" y1="913.1973" y2="933.1973"/><polygon fill="#000000" points="538,923.1973,542,933.1973,546,923.1973,542,927.1973" style="stroke: #000000; stroke-width: 1.0;"/><line style="stroke: #000000; stroke-width: 1.5;" x1="356.5" x2="356.5" y1="803.918" y2="852.1035"/><polygon fill="#000000" points="352.5,842.1035,356.5,852.1035,360.5,842.1035,356.5,846.1035" style="stroke: #000000; stroke-width: 1.0;"/><line style="stroke: #000000; stroke-width: 1.5;" x1="344.5" x2="285.5" y1="983.1973" y2="983.1973"/><line style="stroke: #000000; stroke-width: 1.5;" x1="285.5" x2="285.5" y1="983.1973" y2="1015.1973"/><polygon fill="#000000" points="281.5,1005.1973,285.5,1015.1973,289.5,1005.1973,285.5,1009.1973" style="stroke: #000000; stroke-width: 1.0;"/><line style="stroke: #000000; stroke-width: 1.5;" x1="368.5" x2="428.5" y1="983.1973" y2="983.1973"/><line style="stroke: #000000; stroke-width: 1.5;" x1="428.5" x2="428.5" y1="983.1973" y2="1015.1973"/><polygon fill="#000000" points="424.5,1005.1973,428.5,1015.1973,432.5,1005.1973,428.5,1009.1973" style="stroke: #000000; stroke-width: 1.0;"/><line style="stroke: #000000; stroke-width: 1.5;" x1="285.5" x2="285.5" y1="1050.291" y2="1082.291"/><line style="stroke: #000000; stroke-width: 1.5;" x1="285.5" x2="344.5" y1="1082.291" y2="1082.291"/><polygon fill="#000000" points="334.5,1078.291,344.5,1082.291,334.5,1086.291,338.5,1082.291" style="stroke: #000000; stroke-width: 1.0;"/><line style="stroke: #000000; stroke-width: 1.5;" x1="428.5" x2="428.5" y1="1050.291" y2="1082.291"/><line style="stroke: #000000; stroke-width: 1.5;" x1="428.5" x2="368.5" y1="1082.291" y2="1082.291"/><polygon fill="#000000" points="378.5,1078.291,368.5,1082.291,378.5,1086.291,374.5,1082.291" style="stroke: #000000; stroke-width: 1.0;"/><line style="stroke: #000000; stroke-width: 1.5;" x1="356.5" x2="356.5" y1="995.1973" y2="1001.8639"/><line style="stroke: #000000; stroke-width: 1.5;" x1="356.5" x2="357.5" y1="1001.8639" y2="1001.8639"/><line style="stroke: #000000; stroke-width: 1.5;" x1="357.5" x2="357.5" y1="1001.8639" y2="1015.1973"/><polygon fill="#000000" points="353.5,1005.1973,357.5,1015.1973,361.5,1005.1973,357.5,1009.1973" style="stroke: #000000; stroke-width: 1.0;"/><line style="stroke: #000000; stroke-width: 1.5;" x1="357.5" x2="357.5" y1="1050.291" y2="1055.291"/><line style="stroke: #000000; stroke-width: 1.5;" x1="357.5" x2="356.5" y1="1055.291" y2="1055.291"/><line style="stroke: #000000; stroke-width: 1.5;" x1="356.5" x2="356.5" y1="1055.291" y2="1070.291"/><polygon fill="#000000" points="352.5,1060.291,356.5,1070.291,360.5,1060.291,356.5,1064.291" style="stroke: #000000; stroke-width: 1.0;"/><line style="stroke: #000000; stroke-width: 1.5;" x1="356.5" x2="356.5" y1="939.1973" y2="971.1973"/><polygon fill="#000000" points="352.5,961.1973,356.5,971.1973,360.5,961.1973,356.5,965.1973" style="stroke: #000000; stroke-width: 1.0;"/><line style="stroke: #000000; stroke-width: 1.5;" x1="356.5" x2="356.5" y1="1094.291" y2="1114.291"/><polygon fill="#000000" points="352.5,1104.291,356.5,1114.291,360.5,1104.291,356.5,1108.291" style="stroke: #000000; stroke-width: 1.0;"/><line style="stroke: #000000; stroke-width: 1.5;" x1="166.25" x2="45" y1="591.0273" y2="591.0273"/><line style="stroke: #000000; stroke-width: 1.5;" x1="45" x2="45" y1="591.0273" y2="613.0273"/><polygon fill="#000000" points="41,603.0273,45,613.0273,49,603.0273,45,607.0273" style="stroke: #000000; stroke-width: 1.0;"/><line style="stroke: #000000; stroke-width: 1.5;" x1="235.25" x2="356.5" y1="591.0273" y2="591.0273"/><line style="stroke: #000000; stroke-width: 1.5;" x1="356.5" x2="356.5" y1="591.0273" y2="616.832"/><polygon fill="#000000" points="352.5,606.832,356.5,616.832,360.5,606.832,356.5,610.832" style="stroke: #000000; stroke-width: 1.0;"/><line style="stroke: #000000; stroke-width: 1.5;" x1="200.75" x2="200.75" y1="547.0273" y2="579.0273"/><polygon fill="#000000" points="196.75,569.0273,200.75,579.0273,204.75,569.0273,200.75,573.0273" style="stroke: #000000; stroke-width: 1.0;"/><rect fill="#F6E4CC" height="195.125" rx="5" ry="5" style="stroke: #F6E4CC; stroke-width: 1.0;" width="390" x="375" y="1153.291"/><text fill="#000000" font-family="sans-serif" font-size="12" lengthAdjust="spacingAndGlyphs" textLength="0" x="384" y="1172.748"/><text fill="#000000" font-family="sans-serif" font-size="12" font-weight="bold" lengthAdjust="spacingAndGlyphs" textLength="0" x="499" y="1172.748"/><text fill="#000000" font-family="sans-serif" font-size="12" font-weight="bold" lengthAdjust="spacingAndGlyphs" textLength="64" x="499" y="1187.8418">»frag.jetzt«</text><text fill="#000000" font-family="sans-serif" font-size="12" font-weight="bold" lengthAdjust="spacingAndGlyphs" textLength="0" x="499" y="1202.9355"/><text fill="#000000" font-family="sans-serif" font-size="12" lengthAdjust="spacingAndGlyphs" textLength="59" x="384" y="1218.0293">Produktion</text><text fill="#000000" font-family="sans-serif" font-size="12" lengthAdjust="spacingAndGlyphs" textLength="0" x="499" y="1218.0293"/><a href="https://frag.jetzt" target="_top" title="https://frag.jetzt" xlink:actuate="onRequest" xlink:href="https://frag.jetzt" xlink:show="new" xlink:title="https://frag.jetzt" xlink:type="simple"><text fill="#0000FF" font-family="sans-serif" font-size="12" lengthAdjust="spacingAndGlyphs" text-decoration="underline" textLength="81" x="499" y="1218.0293">https://frag.jetzt</text></a><text fill="#000000" font-family="sans-serif" font-size="12" lengthAdjust="spacingAndGlyphs" textLength="0" x="583" y="1218.0293"/><text fill="#000000" font-family="sans-serif" font-size="12" lengthAdjust="spacingAndGlyphs" textLength="59" x="384" y="1233.123">Repository</text><text fill="#000000" font-family="sans-serif" font-size="12" lengthAdjust="spacingAndGlyphs" textLength="0" x="499" y="1233.123"/><a href="https://git.thm.de/arsnova/frag.jetzt" target="_top" title="https://git.thm.de/arsnova/frag.jetzt" xlink:actuate="onRequest" xlink:href="https://git.thm.de/arsnova/frag.jetzt" xlink:show="new" xlink:title="https://git.thm.de/arsnova/frag.jetzt" xlink:type="simple"><text fill="#0000FF" font-family="sans-serif" font-size="12" lengthAdjust="spacingAndGlyphs" text-decoration="underline" textLength="185" x="499" y="1233.123">https://git.thm.de/arsnova/frag.jetzt</text></a><text fill="#000000" font-family="sans-serif" font-size="12" lengthAdjust="spacingAndGlyphs" textLength="0" x="687" y="1233.123"/><text fill="#000000" font-family="sans-serif" font-size="12" lengthAdjust="spacingAndGlyphs" textLength="80" x="384" y="1248.2168">Staging Server</text><text fill="#000000" font-family="sans-serif" font-size="12" lengthAdjust="spacingAndGlyphs" textLength="0" x="499" y="1248.2168"/><a href="https://staging.frag.jetzt" target="_top" title="https://staging.frag.jetzt" xlink:actuate="onRequest" xlink:href="https://staging.frag.jetzt" xlink:show="new" xlink:title="https://staging.frag.jetzt" xlink:type="simple"><text fill="#0000FF" font-family="sans-serif" font-size="12" lengthAdjust="spacingAndGlyphs" text-decoration="underline" textLength="125" x="499" y="1248.2168">https://staging.frag.jetzt</text></a><text fill="#000000" font-family="sans-serif" font-size="12" lengthAdjust="spacingAndGlyphs" textLength="0" x="627" y="1248.2168"/><text fill="#000000" font-family="sans-serif" font-size="12" lengthAdjust="spacingAndGlyphs" textLength="53" x="384" y="1263.3105">UML-Tool</text><text fill="#000000" font-family="sans-serif" font-size="12" lengthAdjust="spacingAndGlyphs" textLength="109" x="499" y="1263.3105">PlantUML v1.2021.5</text><text fill="#000000" font-family="sans-serif" font-size="12" lengthAdjust="spacingAndGlyphs" textLength="46" x="384" y="1278.4043">Ersteller</text><text fill="#000000" font-family="sans-serif" font-size="12" lengthAdjust="spacingAndGlyphs" textLength="260" x="499" y="1278.4043">Lauryn Lorna Monthe Djomeni, Aliye Tanriseven</text><text fill="#000000" font-family="sans-serif" font-size="12" lengthAdjust="spacingAndGlyphs" textLength="109" x="384" y="1293.498">Vorherige Änderung</text><text fill="#000000" font-family="sans-serif" font-size="12" lengthAdjust="spacingAndGlyphs" textLength="62" x="499" y="1293.498">18.06.2021</text><text fill="#000000" font-family="sans-serif" font-size="12" lengthAdjust="spacingAndGlyphs" textLength="88" x="384" y="1308.5918">Letzte Änderung</text><text fill="#000000" font-family="sans-serif" font-size="12" lengthAdjust="spacingAndGlyphs" textLength="62" x="499" y="1308.5918">20.06.2021</text><text fill="#000000" font-family="sans-serif" font-size="12" lengthAdjust="spacingAndGlyphs" textLength="110" x="384" y="1323.6855">Letzte Änderung von</text><text fill="#000000" font-family="sans-serif" font-size="12" lengthAdjust="spacingAndGlyphs" textLength="165" x="499" y="1323.6855">Lauryn Lorna Monthe Djomeni</text><text fill="#000000" font-family="sans-serif" font-size="12" lengthAdjust="spacingAndGlyphs" textLength="89" x="499" y="1338.7793">Aliye Tanriseven</text><line style="stroke: #000000; stroke-width: 1.0;" x1="381" x2="759" y1="1160.291" y2="1160.291"/><line style="stroke: #000000; stroke-width: 1.0;" x1="381" x2="759" y1="1205.5723" y2="1205.5723"/><line style="stroke: #000000; stroke-width: 1.0;" x1="381" x2="759" y1="1220.666" y2="1220.666"/><line style="stroke: #000000; stroke-width: 1.0;" x1="381" x2="759" y1="1235.7598" y2="1235.7598"/><line style="stroke: #000000; stroke-width: 1.0;" x1="381" x2="759" y1="1250.8535" y2="1250.8535"/><line style="stroke: #000000; stroke-width: 1.0;" x1="381" x2="759" y1="1265.9473" y2="1265.9473"/><line style="stroke: #000000; stroke-width: 1.0;" x1="381" x2="759" y1="1281.041" y2="1281.041"/><line style="stroke: #000000; stroke-width: 1.0;" x1="381" x2="759" y1="1296.1348" y2="1296.1348"/><line style="stroke: #000000; stroke-width: 1.0;" x1="381" x2="759" y1="1311.2285" y2="1311.2285"/><line style="stroke: #000000; stroke-width: 1.0;" x1="381" x2="759" y1="1341.416" y2="1341.416"/><line style="stroke: #000000; stroke-width: 1.0;" x1="381" x2="381" y1="1160.291" y2="1341.416"/><line style="stroke: #000000; stroke-width: 1.0;" x1="496" x2="496" y1="1160.291" y2="1341.416"/><line style="stroke: #000000; stroke-width: 1.0;" x1="759" x2="759" y1="1160.291" y2="1341.416"/><!--MD5=[1a5204f5a884029499e62fa05bc7ca92]
@startuml
partition Topic-Cloud #skyblue {
skinparam backgroundColor #skyblue

skinparam class{
BackgroundColor Application
BorderColor black
ArrowColor black
}

skinparam BorderColor black
skinparam ArrowColor black
skinparam backgroundColor #powderblue
skinparam backgroundColor Linen
skinparam LegendBackgroundColor Strategy
skinparam LegendBorderThickness 0
skinparam LegendFontSize 12

start
if (decision ?) then
 :create room;
else
 :enter room-code/name;
endif

 :click options;
 :select topic-cloud;

partition #powderblue select-list {
switch ()
case()
 :continue with\ncomplete list\nof questions;
case()
 :continue with\n current filters;
case()
  :continue with\nall questions\n    from now;
endswitch
 :select option;
}

if (choose ?) then (cancel)
-[#black]->
end
else (confirm "continue-button")
:modify cloud-view;

 floating note right:edit your own topic-cloud\n         or demo-cloud
switch ()
case()
 :    activate\ndemo-cloud;
case()
 :  deactivate\ndemo-cloud;
endswitch

partition #powderblue edit-cloud {
fork
:general options;

fork again
:font options;

fork again
: hover options;

fork again
:weight-class options;
end fork
floating note right:options for weight\n classes 1 to 10

}
switch ()
case()
 :reset;
case()
 :cancel;
case()
 :save;
endswitch
end

legend right
  | |= \n »frag.jetzt« \n|
  | Produktion | [[https://frag.jetzt]] |
  | Repository | [[https://git.thm.de/arsnova/frag.jetzt]] |
  | Staging Server | [[https://staging.frag.jetzt]] |
  | UML-Tool| PlantUML v1.2021.5|
  | Ersteller| Lauryn Lorna Monthe Djomeni, Aliye Tanriseven|
  | Vorherige Änderung | 18.06.2021 |
  | Letzte Änderung| 20.06.2021 |
  | Letzte Änderung von| Lauryn Lorna Monthe Djomeni\n Aliye Tanriseven |
end legend


@enduml

PlantUML version 1.2020.03beta6(Unknown compile time)
(GPL source distribution)
Java Runtime: OpenJDK Runtime Environment
JVM: OpenJDK 64-Bit Server VM
Java Version: 11.0.4+10-b304.69
Operating System: Windows 10
Default Encoding: Cp1252
Language: de
Country: DE
--></g></svg>