<?xml version="1.0" encoding="UTF-8" standalone="no"?><svg xmlns="http://www.w3.org/2000/svg" xmlns:xlink="http://www.w3.org/1999/xlink" contentStyleType="text/css" height="2444px" preserveAspectRatio="none" style="width:637px;height:2444px;background:#FAF0E6;" version="1.1" viewBox="0 0 637 2444" width="637px" zoomAndPan="magnify"><defs><filter height="300%" id="f1vz74qbp6u4ji" width="300%" x="-1" y="-1"><feGaussianBlur result="blurOut" stdDeviation="2.0"/><feColorMatrix in="blurOut" result="blurOut2" type="matrix" values="0 0 0 0 0 0 0 0 0 0 0 0 0 0 0 0 0 0 .4 0"/><feOffset dx="4.0" dy="4.0" in="blurOut2" result="blurOut3"/><feBlend in="SourceGraphic" in2="blurOut3" mode="normal"/></filter></defs><g><rect fill="#FAF0E6" height="38.2969" style="stroke:#00000000;stroke-width:1.0;" width="447" x="93.5" y="15"/><text fill="#000000" font-family="sans-serif" font-size="14" font-weight="bold" lengthAdjust="spacing" textLength="425" x="104.5" y="38.9951">Workflow of a brainstorming session with »frag.jetzt«</text><rect fill="#CE93D8" height="2335.6777" style="stroke:#CE93D8;stroke-width:1.0;" width="294" x="15" y="60.2969"/><ellipse cx="160" cy="100.792" fill="#222222" filter="url(#f1vz74qbp6u4ji)" rx="10" ry="10" style="stroke:#222222;stroke-width:1.0;"/><rect fill="none" filter="url(#f1vz74qbp6u4ji)" height="414.375" style="stroke:#000000;stroke-width:1.5;" width="269" x="25.5" y="120.792"/><path d="M88.5,120.792 L88.5,142.0889 L78.5,152.0889 L25.5,152.0889 " fill="none" style="stroke:#000000;stroke-width:1.5;"/><text fill="#000000" font-family="sans-serif" font-size="14" lengthAdjust="spacing" textLength="41" x="34.5" y="140.7871">Setup</text><rect fill="#F1F1F1" filter="url(#f1vz74qbp6u4ji)" height="64.5938" rx="12.5" ry="12.5" style="stroke:#181818;stroke-width:0.5;" width="249" x="35.5" y="169.0889"/><text fill="#000000" font-family="sans-serif" font-size="14" lengthAdjust="spacing" textLength="217" x="51.5" y="198.084">Activate brainstorming option in</text><text fill="#000000" font-family="sans-serif" font-size="14" lengthAdjust="spacing" textLength="201" x="51.5" y="214.3809">room settings → »My rooms«</text><rect fill="#F1F1F1" filter="url(#f1vz74qbp6u4ji)" height="64.5938" rx="12.5" ry="12.5" style="stroke:#181818;stroke-width:0.5;" width="248" x="36" y="253.6826"/><text fill="#000000" font-family="sans-serif" font-size="14" lengthAdjust="spacing" textLength="172" x="52" y="282.6777">Click on »Brainstorming«</text><text fill="#000000" font-family="sans-serif" font-size="14" lengthAdjust="spacing" textLength="216" x="52" y="298.9746">in the header of the Q&amp;A forum</text><rect fill="#F1F1F1" filter="url(#f1vz74qbp6u4ji)" height="48.2969" rx="12.5" ry="12.5" style="stroke:#181818;stroke-width:0.5;" width="236" x="42" y="338.2764"/><text fill="#000000" font-family="sans-serif" font-size="14" lengthAdjust="spacing" textLength="200" x="62" y="367.2715">Enter focus question or topic</text><rect fill="#F1F1F1" filter="url(#f1vz74qbp6u4ji)" height="48.2969" rx="12.5" ry="12.5" style="stroke:#181818;stroke-width:0.5;" width="209" x="55.5" y="406.5732"/><text fill="#000000" font-family="sans-serif" font-size="14" lengthAdjust="spacing" textLength="173" x="75.5" y="435.5684">Set input length for ideas</text><rect fill="#F1F1F1" filter="url(#f1vz74qbp6u4ji)" height="48.2969" rx="12.5" ry="12.5" style="stroke:#181818;stroke-width:0.5;" width="236" x="42" y="474.8701"/><text fill="#000000" font-family="sans-serif" font-size="14" lengthAdjust="spacing" textLength="200" x="62" y="503.8652">Set duration of brainstorming</text><rect fill="none" filter="url(#f1vz74qbp6u4ji)" height="176.8906" style="stroke:#000000;stroke-width:1.5;" width="277" x="21.5" y="545.167"/><path d="M104.5,545.167 L104.5,566.4639 L94.5,576.4639 L21.5,576.4639 " fill="none" style="stroke:#000000;stroke-width:1.5;"/><text fill="#000000" font-family="sans-serif" font-size="14" lengthAdjust="spacing" textLength="61" x="30.5" y="565.1621">Warm up</text><rect fill="#FFC0CB" filter="url(#f1vz74qbp6u4ji)" height="48.2969" rx="12.5" ry="12.5" style="stroke:#181818;stroke-width:0.5;" width="257" x="31.5" y="593.4639"/><text fill="#000000" font-family="sans-serif" font-size="14" lengthAdjust="spacing" textLength="221" x="51.5" y="622.459">Explain brainstorming technique</text><rect fill="#F1F1F1" filter="url(#f1vz74qbp6u4ji)" height="48.2969" rx="12.5" ry="12.5" style="stroke:#181818;stroke-width:0.5;" width="250" x="35" y="661.7607"/><text fill="#000000" font-family="sans-serif" font-size="14" lengthAdjust="spacing" textLength="218" x="51" y="690.7559">Act out a brainstorming session</text><rect fill="#FFC0CB" filter="url(#f1vz74qbp6u4ji)" height="48.2969" rx="12.5" ry="12.5" style="stroke:#181818;stroke-width:0.5;" width="167" x="76.5" y="742.0576"/><text fill="#000000" font-family="sans-serif" font-size="14" lengthAdjust="spacing" textLength="131" x="96.5" y="771.0527">Start brainstorming</text><rect fill="#FFC0CB" filter="url(#f1vz74qbp6u4ji)" height="48.2969" rx="12.5" ry="12.5" style="stroke:#181818;stroke-width:0.5;" width="167" x="76.5" y="1029.7402"/><text fill="#000000" font-family="sans-serif" font-size="14" lengthAdjust="spacing" textLength="131" x="96.5" y="1058.7354">Stop brainstorming</text><rect fill="none" filter="url(#f1vz74qbp6u4ji)" height="245.1875" style="stroke:#000000;stroke-width:1.5;" width="220" x="50" y="1088.0371"/><path d="M193,1088.0371 L193,1109.334 L183,1119.334 L50,1119.334 " fill="none" style="stroke:#000000;stroke-width:1.5;"/><text fill="#000000" font-family="sans-serif" font-size="14" lengthAdjust="spacing" textLength="121" x="59" y="1108.0322">Idea presentation</text><rect fill="#FFC0CB" filter="url(#f1vz74qbp6u4ji)" height="48.2969" rx="12.5" ry="12.5" style="stroke:#181818;stroke-width:0.5;" width="125" x="97.5" y="1136.334"/><text fill="#000000" font-family="sans-serif" font-size="14" lengthAdjust="spacing" textLength="89" x="117.5" y="1165.3291">Freeze ideas</text><rect fill="#FFC0CB" filter="url(#f1vz74qbp6u4ji)" height="48.2969" rx="12.5" ry="12.5" style="stroke:#181818;stroke-width:0.5;" width="183" x="68.5" y="1204.6309"/><text fill="#000000" font-family="sans-serif" font-size="14" lengthAdjust="spacing" textLength="147" x="88.5" y="1233.626">Go to Question focus</text><rect fill="#F1F1F1" filter="url(#f1vz74qbp6u4ji)" height="48.2969" rx="12.5" ry="12.5" style="stroke:#181818;stroke-width:0.5;" width="200" x="60" y="1272.9277"/><text fill="#000000" font-family="sans-serif" font-size="14" lengthAdjust="spacing" textLength="168" x="76" y="1301.9229">Present &amp; discuss ideas</text><rect fill="none" filter="url(#f1vz74qbp6u4ji)" height="313.4844" style="stroke:#000000;stroke-width:1.5;" width="244" x="38" y="1530.1152"/><path d="M141,1530.1152 L141,1551.4121 L131,1561.4121 L38,1561.4121 " fill="none" style="stroke:#000000;stroke-width:1.5;"/><text fill="#000000" font-family="sans-serif" font-size="14" lengthAdjust="spacing" textLength="81" x="47" y="1550.1104">Idea sorting</text><rect fill="#FFC0CB" filter="url(#f1vz74qbp6u4ji)" height="48.2969" rx="12.5" ry="12.5" style="stroke:#181818;stroke-width:0.5;" width="174" x="73" y="1578.4121"/><text fill="#000000" font-family="sans-serif" font-size="14" lengthAdjust="spacing" textLength="138" x="93" y="1607.4072">Create topic catalog</text><rect fill="#F1F1F1" filter="url(#f1vz74qbp6u4ji)" height="48.2969" rx="12.5" ry="12.5" style="stroke:#181818;stroke-width:0.5;" width="213" x="53.5" y="1646.709"/><text fill="#000000" font-family="sans-serif" font-size="14" lengthAdjust="spacing" textLength="181" x="69.5" y="1675.7041">Hover over the word cloud</text><rect fill="#F1F1F1" filter="url(#f1vz74qbp6u4ji)" height="48.2969" rx="12.5" ry="12.5" style="stroke:#181818;stroke-width:0.5;" width="183" x="68.5" y="1715.0059"/><text fill="#000000" font-family="sans-serif" font-size="14" lengthAdjust="spacing" textLength="151" x="84.5" y="1744.001">Assign topics to ideas</text><rect fill="#F1F1F1" filter="url(#f1vz74qbp6u4ji)" height="48.2969" rx="12.5" ry="12.5" style="stroke:#181818;stroke-width:0.5;" width="224" x="48" y="1783.3027"/><text fill="#000000" font-family="sans-serif" font-size="14" lengthAdjust="spacing" textLength="192" x="64" y="1812.2979">Blacklist inappropriate ideas</text><rect fill="#FFC0CB" filter="url(#f1vz74qbp6u4ji)" height="48.2969" rx="12.5" ry="12.5" style="stroke:#181818;stroke-width:0.5;" width="153" x="83.5" y="1863.5996"/><text fill="#000000" font-family="sans-serif" font-size="14" lengthAdjust="spacing" textLength="117" x="103.5" y="1892.5947">Reset idea rating</text><rect fill="none" filter="url(#f1vz74qbp6u4ji)" height="245.1875" style="stroke:#000000;stroke-width:1.5;" width="278" x="21" y="2108.7871"/><path d="M151,2108.7871 L151,2130.084 L141,2140.084 L21,2140.084 " fill="none" style="stroke:#000000;stroke-width:1.5;"/><text fill="#000000" font-family="sans-serif" font-size="14" lengthAdjust="spacing" textLength="108" x="30" y="2128.7822">Record session</text><rect fill="#FFC0CB" filter="url(#f1vz74qbp6u4ji)" height="48.2969" rx="12.5" ry="12.5" style="stroke:#181818;stroke-width:0.5;" width="142" x="89" y="2157.084"/><text fill="#000000" font-family="sans-serif" font-size="14" lengthAdjust="spacing" textLength="106" x="109" y="2186.0791">Freeze session</text><rect fill="#F1F1F1" filter="url(#f1vz74qbp6u4ji)" height="48.2969" rx="12.5" ry="12.5" style="stroke:#181818;stroke-width:0.5;" width="258" x="31" y="2225.3809"/><text fill="#000000" font-family="sans-serif" font-size="14" lengthAdjust="spacing" textLength="226" x="47" y="2254.376">Create screenshot of word cloud</text><rect fill="#FFC0CB" filter="url(#f1vz74qbp6u4ji)" height="48.2969" rx="12.5" ry="12.5" style="stroke:#181818;stroke-width:0.5;" width="121" x="99.5" y="2293.6777"/><text fill="#000000" font-family="sans-serif" font-size="14" lengthAdjust="spacing" textLength="85" x="119.5" y="2322.6729">Export ideas</text><ellipse cx="160" cy="2384.9746" filter="url(#f1vz74qbp6u4ji)" rx="11" ry="11" style="stroke:#222222;stroke-width:1.0;fill:none;"/><ellipse cx="160" cy="2384.9746" fill="#222222" rx="6" ry="6" style="stroke:#111111;stroke-width:1.0;"/><line style="stroke:#000000;stroke-width:1.5;" x1="15" x2="15" y1="60.2969" y2="2395.9746"/><rect fill="#90CAF9" height="2335.6777" style="stroke:#90CAF9;stroke-width:1.0;" width="303" x="309" y="60.2969"/><rect fill="none" filter="url(#f1vz74qbp6u4ji)" height="208.8906" style="stroke:#000000;stroke-width:1.5;" width="287" x="315" y="800.3545"/><path d="M416,800.3545 L416,821.6514 L406,831.6514 L315,831.6514 " fill="none" style="stroke:#000000;stroke-width:1.5;"/><text fill="#000000" font-family="sans-serif" font-size="14" lengthAdjust="spacing" textLength="79" x="324" y="820.3496">Idea finding</text><rect fill="#F1F1F1" filter="url(#f1vz74qbp6u4ji)" height="48.2969" rx="12.5" ry="12.5" style="stroke:#181818;stroke-width:0.5;" width="249" x="325" y="892.6514"/><text fill="#000000" font-family="sans-serif" font-size="14" lengthAdjust="spacing" textLength="217" x="341" y="921.6465">Click the + button to enter idea</text><polygon fill="#F1F1F1" filter="url(#f1vz74qbp6u4ji)" points="449.5,848.6514,461.5,860.6514,449.5,872.6514,437.5,860.6514,449.5,848.6514" style="stroke:#181818;stroke-width:0.5;"/><polygon fill="#F1F1F1" filter="url(#f1vz74qbp6u4ji)" points="351,960.9482,548,960.9482,560,975.0967,548,989.2451,351,989.2451,339,975.0967,351,960.9482" style="stroke:#181818;stroke-width:0.5;"/><text fill="#000000" font-family="sans-serif" font-size="14" lengthAdjust="spacing" textLength="18" x="459.5" y="1008.2402">no</text><text fill="#000000" font-family="sans-serif" font-size="14" lengthAdjust="spacing" textLength="185" x="357" y="979.9434">Still time for brainstorming?</text><text fill="#000000" font-family="sans-serif" font-size="14" lengthAdjust="spacing" textLength="24" x="566" y="965.7949">yes</text><rect fill="none" filter="url(#f1vz74qbp6u4ji)" height="176.8906" style="stroke:#000000;stroke-width:1.5;" width="234" x="332.5" y="1343.2246"/><path d="M464.5,1343.2246 L464.5,1364.5215 L454.5,1374.5215 L332.5,1374.5215 " fill="none" style="stroke:#000000;stroke-width:1.5;"/><text fill="#000000" font-family="sans-serif" font-size="14" lengthAdjust="spacing" textLength="110" x="341.5" y="1363.2197">Idea elaboration</text><rect fill="#FFC0CB" filter="url(#f1vz74qbp6u4ji)" height="48.2969" rx="12.5" ry="12.5" style="stroke:#181818;stroke-width:0.5;" width="154" x="372.5" y="1391.5215"/><text fill="#000000" font-family="sans-serif" font-size="14" lengthAdjust="spacing" textLength="118" x="392.5" y="1420.5166">Go to Q&amp;A forum</text><rect fill="#F1F1F1" filter="url(#f1vz74qbp6u4ji)" height="48.2969" rx="12.5" ry="12.5" style="stroke:#181818;stroke-width:0.5;" width="214" x="342.5" y="1459.8184"/><text fill="#000000" font-family="sans-serif" font-size="14" lengthAdjust="spacing" textLength="182" x="358.5" y="1488.8135">Further elaborate on ideas</text><rect fill="none" filter="url(#f1vz74qbp6u4ji)" height="176.8906" style="stroke:#000000;stroke-width:1.5;" width="233" x="333" y="1921.8965"/><path d="M458,1921.8965 L458,1943.1934 L448,1953.1934 L333,1953.1934 " fill="none" style="stroke:#000000;stroke-width:1.5;"/><text fill="#000000" font-family="sans-serif" font-size="14" lengthAdjust="spacing" textLength="103" x="342" y="1941.8916">Idea evaluation</text><rect fill="#F1F1F1" filter="url(#f1vz74qbp6u4ji)" height="48.2969" rx="12.5" ry="12.5" style="stroke:#181818;stroke-width:0.5;" width="213" x="343" y="1970.1934"/><text fill="#000000" font-family="sans-serif" font-size="14" lengthAdjust="spacing" textLength="181" x="359" y="1999.1885">Hover over the word cloud</text><rect fill="#F1F1F1" filter="url(#f1vz74qbp6u4ji)" height="48.2969" rx="12.5" ry="12.5" style="stroke:#181818;stroke-width:0.5;" width="105" x="397" y="2038.4902"/><text fill="#000000" font-family="sans-serif" font-size="14" lengthAdjust="spacing" textLength="73" x="413" y="2067.4854">Rate ideas</text><line style="stroke:#000000;stroke-width:1.5;" x1="309" x2="309" y1="60.2969" y2="2395.9746"/><line style="stroke:#000000;stroke-width:1.5;" x1="612" x2="612" y1="60.2969" y2="2395.9746"/><line style="stroke:#181818;stroke-width:1.0;" x1="160" x2="160" y1="233.6826" y2="253.6826"/><polygon fill="#181818" points="156,243.6826,160,253.6826,164,243.6826,160,247.6826" style="stroke:#181818;stroke-width:1.0;"/><line style="stroke:#181818;stroke-width:1.0;" x1="160" x2="160" y1="318.2764" y2="338.2764"/><polygon fill="#181818" points="156,328.2764,160,338.2764,164,328.2764,160,332.2764" style="stroke:#181818;stroke-width:1.0;"/><line style="stroke:#181818;stroke-width:1.0;" x1="160" x2="160" y1="386.5732" y2="406.5732"/><polygon fill="#181818" points="156,396.5732,160,406.5732,164,396.5732,160,400.5732" style="stroke:#181818;stroke-width:1.0;"/><line style="stroke:#181818;stroke-width:1.0;" x1="160" x2="160" y1="454.8701" y2="474.8701"/><polygon fill="#181818" points="156,464.8701,160,474.8701,164,464.8701,160,468.8701" style="stroke:#181818;stroke-width:1.0;"/><line style="stroke:#181818;stroke-width:1.0;" x1="160" x2="160" y1="110.792" y2="169.0889"/><polygon fill="#181818" points="156,159.0889,160,169.0889,164,159.0889,160,163.0889" style="stroke:#181818;stroke-width:1.0;"/><line style="stroke:#181818;stroke-width:1.0;" x1="160" x2="160" y1="641.7607" y2="661.7607"/><polygon fill="#181818" points="156,651.7607,160,661.7607,164,651.7607,160,655.7607" style="stroke:#181818;stroke-width:1.0;"/><line style="stroke:#181818;stroke-width:1.0;" x1="160" x2="160" y1="523.167" y2="593.4639"/><polygon fill="#181818" points="156,583.4639,160,593.4639,164,583.4639,160,587.4639" style="stroke:#181818;stroke-width:1.0;"/><line style="stroke:#181818;stroke-width:1.0;" x1="160" x2="160" y1="710.0576" y2="742.0576"/><polygon fill="#181818" points="156,732.0576,160,742.0576,164,732.0576,160,736.0576" style="stroke:#181818;stroke-width:1.0;"/><line style="stroke:#181818;stroke-width:1.0;" x1="160" x2="160" y1="1184.6309" y2="1204.6309"/><polygon fill="#181818" points="156,1194.6309,160,1204.6309,164,1194.6309,160,1198.6309" style="stroke:#181818;stroke-width:1.0;"/><line style="stroke:#181818;stroke-width:1.0;" x1="160" x2="160" y1="1252.9277" y2="1272.9277"/><polygon fill="#181818" points="156,1262.9277,160,1272.9277,164,1262.9277,160,1266.9277" style="stroke:#181818;stroke-width:1.0;"/><line style="stroke:#181818;stroke-width:1.0;" x1="160" x2="160" y1="1078.0371" y2="1136.334"/><polygon fill="#181818" points="156,1126.334,160,1136.334,164,1126.334,160,1130.334" style="stroke:#181818;stroke-width:1.0;"/><line style="stroke:#181818;stroke-width:1.0;" x1="160" x2="160" y1="1626.709" y2="1646.709"/><polygon fill="#181818" points="156,1636.709,160,1646.709,164,1636.709,160,1640.709" style="stroke:#181818;stroke-width:1.0;"/><line style="stroke:#181818;stroke-width:1.0;" x1="160" x2="160" y1="1695.0059" y2="1715.0059"/><polygon fill="#181818" points="156,1705.0059,160,1715.0059,164,1705.0059,160,1709.0059" style="stroke:#181818;stroke-width:1.0;"/><line style="stroke:#181818;stroke-width:1.0;" x1="160" x2="160" y1="1763.3027" y2="1783.3027"/><polygon fill="#181818" points="156,1773.3027,160,1783.3027,164,1773.3027,160,1777.3027" style="stroke:#181818;stroke-width:1.0;"/><line style="stroke:#181818;stroke-width:1.0;" x1="160" x2="160" y1="1831.5996" y2="1863.5996"/><polygon fill="#181818" points="156,1853.5996,160,1863.5996,164,1853.5996,160,1857.5996" style="stroke:#181818;stroke-width:1.0;"/><line style="stroke:#181818;stroke-width:1.0;" x1="160" x2="160" y1="2205.3809" y2="2225.3809"/><polygon fill="#181818" points="156,2215.3809,160,2225.3809,164,2215.3809,160,2219.3809" style="stroke:#181818;stroke-width:1.0;"/><line style="stroke:#181818;stroke-width:1.0;" x1="160" x2="160" y1="2273.6777" y2="2293.6777"/><polygon fill="#181818" points="156,2283.6777,160,2293.6777,164,2283.6777,160,2287.6777" style="stroke:#181818;stroke-width:1.0;"/><line style="stroke:#181818;stroke-width:1.0;" x1="160" x2="160" y1="2341.9746" y2="2373.9746"/><polygon fill="#181818" points="156,2363.9746,160,2373.9746,164,2363.9746,160,2367.9746" style="stroke:#181818;stroke-width:1.0;"/><line style="stroke:#181818;stroke-width:1.0;" x1="449.5" x2="449.5" y1="872.6514" y2="892.6514"/><polygon fill="#181818" points="445.5,882.6514,449.5,892.6514,453.5,882.6514,449.5,886.6514" style="stroke:#181818;stroke-width:1.0;"/><line style="stroke:#181818;stroke-width:1.0;" x1="560" x2="586" y1="975.0967" y2="975.0967"/><polygon fill="#181818" points="582,927.874,586,917.874,590,927.874,586,923.874" style="stroke:#181818;stroke-width:1.0;"/><line style="stroke:#181818;stroke-width:1.0;" x1="586" x2="586" y1="860.6514" y2="975.0967"/><line style="stroke:#181818;stroke-width:1.0;" x1="586" x2="461.5" y1="860.6514" y2="860.6514"/><polygon fill="#181818" points="471.5,856.6514,461.5,860.6514,471.5,864.6514,467.5,860.6514" style="stroke:#181818;stroke-width:1.0;"/><line style="stroke:#181818;stroke-width:1.0;" x1="449.5" x2="449.5" y1="940.9482" y2="960.9482"/><polygon fill="#181818" points="445.5,950.9482,449.5,960.9482,453.5,950.9482,449.5,954.9482" style="stroke:#181818;stroke-width:1.0;"/><line style="stroke:#181818;stroke-width:1.0;" x1="449.5" x2="449.5" y1="1439.8184" y2="1459.8184"/><polygon fill="#181818" points="445.5,1449.8184,449.5,1459.8184,453.5,1449.8184,449.5,1453.8184" style="stroke:#181818;stroke-width:1.0;"/><line style="stroke:#181818;stroke-width:1.0;" x1="449.5" x2="449.5" y1="2018.4902" y2="2038.4902"/><polygon fill="#181818" points="445.5,2028.4902,449.5,2038.4902,453.5,2028.4902,449.5,2032.4902" style="stroke:#181818;stroke-width:1.0;"/><line style="stroke:#181818;stroke-width:1.0;" x1="160" x2="160" y1="790.3545" y2="807.0029"/><line style="stroke:#181818;stroke-width:1.0;" x1="160" x2="449.5" y1="807.0029" y2="807.0029"/><line style="stroke:#181818;stroke-width:1.0;" x1="449.5" x2="449.5" y1="807.0029" y2="848.6514"/><polygon fill="#181818" points="445.5,838.6514,449.5,848.6514,453.5,838.6514,449.5,842.6514" style="stroke:#181818;stroke-width:1.0;"/><line style="stroke:#181818;stroke-width:1.0;" x1="449.5" x2="449.5" y1="989.2451" y2="1014.7402"/><line style="stroke:#181818;stroke-width:1.0;" x1="449.5" x2="160" y1="1014.7402" y2="1014.7402"/><line style="stroke:#181818;stroke-width:1.0;" x1="160" x2="160" y1="1014.7402" y2="1029.7402"/><polygon fill="#181818" points="156,1019.7402,160,1029.7402,164,1019.7402,160,1023.7402" style="stroke:#181818;stroke-width:1.0;"/><line style="stroke:#181818;stroke-width:1.0;" x1="160" x2="160" y1="1321.2246" y2="1339.873"/><line style="stroke:#181818;stroke-width:1.0;" x1="160" x2="449.5" y1="1339.873" y2="1339.873"/><line style="stroke:#181818;stroke-width:1.0;" x1="449.5" x2="449.5" y1="1339.873" y2="1391.5215"/><polygon fill="#181818" points="445.5,1381.5215,449.5,1391.5215,453.5,1381.5215,449.5,1385.5215" style="stroke:#181818;stroke-width:1.0;"/><line style="stroke:#181818;stroke-width:1.0;" x1="449.5" x2="449.5" y1="1508.1152" y2="1526.7637"/><line style="stroke:#181818;stroke-width:1.0;" x1="449.5" x2="160" y1="1526.7637" y2="1526.7637"/><line style="stroke:#181818;stroke-width:1.0;" x1="160" x2="160" y1="1526.7637" y2="1578.4121"/><polygon fill="#181818" points="156,1568.4121,160,1578.4121,164,1568.4121,160,1572.4121" style="stroke:#181818;stroke-width:1.0;"/><line style="stroke:#181818;stroke-width:1.0;" x1="160" x2="160" y1="1911.8965" y2="1928.5449"/><line style="stroke:#181818;stroke-width:1.0;" x1="160" x2="449.5" y1="1928.5449" y2="1928.5449"/><line style="stroke:#181818;stroke-width:1.0;" x1="449.5" x2="449.5" y1="1928.5449" y2="1970.1934"/><polygon fill="#181818" points="445.5,1960.1934,449.5,1970.1934,453.5,1960.1934,449.5,1964.1934" style="stroke:#181818;stroke-width:1.0;"/><line style="stroke:#181818;stroke-width:1.0;" x1="449.5" x2="449.5" y1="2086.7871" y2="2105.4355"/><line style="stroke:#181818;stroke-width:1.0;" x1="449.5" x2="160" y1="2105.4355" y2="2105.4355"/><line style="stroke:#181818;stroke-width:1.0;" x1="160" x2="160" y1="2105.4355" y2="2157.084"/><polygon fill="#181818" points="156,2147.084,160,2157.084,164,2147.084,160,2151.084" style="stroke:#181818;stroke-width:1.0;"/><text fill="#000000" font-family="sans-serif" font-size="14" lengthAdjust="spacing" textLength="71" x="126.5" y="79.292">Moderator</text><text fill="#000000" font-family="sans-serif" font-size="14" lengthAdjust="spacing" textLength="72" x="424.5" y="79.292">Participant</text><rect fill="#FAF0E6" height="28.2969" style="stroke:#00000000;stroke-width:1.0;" width="501" x="66.5" y="2401.9746"/><text fill="#000000" font-family="sans-serif" font-size="14" lengthAdjust="spacing" textLength="489" x="72.5" y="2420.9697">Note: The actions highlighted in pink are items of the »Options« menu.</text><!--MD5=[3c2021e342718ff85485ebfd53906841]
@startuml
title Workflow of a brainstorming session with »frag.jetzt«

caption Note: The actions highlighted in pink are items of the »Options« menu.   

skinparam backgroundColor Linen
skinparam shadowing true
skinparam defaultFontSize 14
skinparam Padding 6

|#CE93D8|Moderator|

start

partition "Setup" {
:Activate brainstorming option in
room settings → »My rooms«;
:Click on »Brainstorming« 
in the header of the Q&A forum;
: Enter focus question or topic;
: Set input length for ideas;
: Set duration of brainstorming;
}

partition "Warm up" {
#pink: Explain brainstorming technique;
:Act out a brainstorming session;
}

#pink: Start brainstorming;

|#90CAF9|Participant|

partition "Idea finding" {
repeat
:Click the + button to enter idea;
repeat while (Still time for brainstorming?) is (yes) not (no)
}

|Moderator|

#pink: Stop brainstorming;

partition "Idea presentation" {
#pink: Freeze ideas;
#pink: Go to Question focus;
:Present & discuss ideas;
}

|Participant|

partition "Idea elaboration" {
#pink: Go to Q&A forum;
:Further elaborate on ideas;
}

|Moderator|

partition "Idea sorting" {
#pink: Create topic catalog;
:Hover over the word cloud;
:Assign topics to ideas;
:Blacklist inappropriate ideas;
}

#pink: Reset idea rating;

|Participant|

partition "Idea evaluation" {
:Hover over the word cloud;
:Rate ideas;
}

|Moderator|

partition "Record session" {
#pink: Freeze session;
:Create screenshot of word cloud;
#pink: Export ideas;
}

stop
@enduml

PlantUML version 1.2022.2(Sat Mar 05 16:30:19 UTC 2022)
(GPL source distribution)
Java Runtime: OpenJDK Runtime Environment
JVM: OpenJDK 64-Bit Server VM
Default Encoding: UTF-8
Language: en
Country: null
--></g></svg>