<?xml version='1.0' encoding='utf-8'?>
<svg xmlns="http://www.w3.org/2000/svg" viewBox="0 0 1065 1065"><defs><style>.cls-1{fill:#018000;}.cls-2{fill:#fdfdfd;}.cls-3{fill:#fff;}</style></defs><title>pixabay_icons_all inclusive resort</title><g id="Layer_8" data-name="Layer 8"><g id="Layer_10" data-name="Layer 10"><circle class="cls-1" cx="520.58" cy="517.95" r="269.33"/><path class="cls-2" d="M320.68,715.07a6.7,6.7,0,1,0-1.6,13.31,24,24,0,0,0,22.43-8.25,23.29,23.29,0,0,1,2.33-2.33,24.3,24.3,0,0,1,34.28,2.33,38.33,38.33,0,0,0,3.6,3.61,37.55,37.55,0,0,0,53-3.61A23.29,23.29,0,0,1,437,717.8a24.3,24.3,0,0,1,34.28,2.33,38.33,38.33,0,0,0,3.6,3.61,37.55,37.55,0,0,0,53-3.61,23.29,23.29,0,0,1,2.33-2.33,24.3,24.3,0,0,1,34.28,2.33,38.33,38.33,0,0,0,3.6,3.61,37.55,37.55,0,0,0,53-3.61,23.29,23.29,0,0,1,2.33-2.33,24.3,24.3,0,0,1,34.28,2.33,37.61,37.61,0,0,0,52.58,3.73,6.66,6.66,0,1,0-8.66-10.12,24.29,24.29,0,0,1-33.94-2.4,38.44,38.44,0,0,0-3.61-3.61,37.53,37.53,0,0,0-53,3.61,25.62,25.62,0,0,1-2.33,2.33,24.3,24.3,0,0,1-34.28-2.33,38.44,38.44,0,0,0-3.61-3.61,37.53,37.53,0,0,0-53,3.61,25.62,25.62,0,0,1-2.33,2.33,24.3,24.3,0,0,1-34.28-2.33,38.44,38.44,0,0,0-3.61-3.61,37.53,37.53,0,0,0-53,3.61,25.62,25.62,0,0,1-2.33,2.33,24.3,24.3,0,0,1-34.28-2.33,38.44,38.44,0,0,0-3.61-3.61,37.53,37.53,0,0,0-53,3.61,10.79,10.79,0,0,1-10.85,3.8Z"/><path class="cls-2" d="M321.41,765.32a6.8,6.8,0,0,0-2.8,13.31A37.4,37.4,0,0,0,355,766.72a24.3,24.3,0,0,1,36.61,0,38.44,38.44,0,0,0,3.61,3.61,37.53,37.53,0,0,0,53-3.61,24.3,24.3,0,0,1,36.61,0,38.44,38.44,0,0,0,3.61,3.61,37.53,37.53,0,0,0,53-3.61,24.3,24.3,0,0,1,36.61,0,38.44,38.44,0,0,0,3.61,3.61,37.53,37.53,0,0,0,53-3.61,24.3,24.3,0,0,1,36.61,0,37.4,37.4,0,0,0,36.34,11.91h0a6.67,6.67,0,0,0,5.1-7.92l0-.13a6.65,6.65,0,0,0-8-4.93A24.47,24.47,0,0,1,681,757.93a38.44,38.44,0,0,0-3.61-3.61,37.53,37.53,0,0,0-53,3.61,24.3,24.3,0,0,1-36.61,0,38.44,38.44,0,0,0-3.61-3.61,37.53,37.53,0,0,0-53,3.61,24.3,24.3,0,0,1-36.61,0,38.44,38.44,0,0,0-3.61-3.61,37.53,37.53,0,0,0-53,3.61,24.3,24.3,0,0,1-36.61,0,38.44,38.44,0,0,0-3.61-3.61,37.53,37.53,0,0,0-53,3.61,24.47,24.47,0,0,1-23.56,7.72Z"/><path class="cls-3" d="M592.73,545.32c.16-2.68.33-5.38.68-8.09A160.27,160.27,0,0,1,596.89,518q1.3-4.71,2.8-9.28c1.27-3,2.51-5.9,3.74-8.78a75.72,75.72,0,0,1,9.65-15.25c.89-1.13,1.77-2.23,2.63-3.33s2-1.93,2.91-2.88a74.59,74.59,0,0,1,5.72-5.2c4-2.94,7.5-5.74,11.08-7.48a65.86,65.86,0,0,1,9.08-4.54c5.23-2.1,8.2-3.16,8.2-3.16s-2.53,2-7,5.27a97.81,97.81,0,0,0-7.59,6.26c-3,2.3-5.73,5.6-9,8.76-1.62,1.61-2.87,3.64-4.4,5.51-.75.95-1.51,1.91-2.3,2.88-.63,1.08-1.29,2.15-2,3.25-2.86,4.24-5,9.21-7.22,14.25-.91,2.64-1.83,5.31-2.78,8-.64,2.81-1.36,5.65-2.13,8.48a154.43,154.43,0,0,0-2.82,17.85c-.34,2.21-.5,4.45-.71,6.69,48.47,0,86,0,138.49,0,.18-2.3.28-4.63.28-7,0-44.22-32.22-80.64-73.68-85.46a13.73,13.73,0,1,0-18.72,0c-41.46,4.82-73.67,41.24-73.67,85.46,0,2.33.09,4.63.26,6.92Z"/><circle class="cls-3" cx="660.6" cy="429.2" r="6.3"/><rect class="cls-3" x="562.43" y="550.44" width="196.31" height="17.32"/><path class="cls-3" d="M634,590.56c5.17,3.44,26.6,29.76,55.42,34.37,7.08,1.39,59.26,0,65.29,0s12,10.31,12,10.31l7.74-49-29.23-10.52s-44-1.82-49.06-1.82-13,10.3-3.89,12.34,36.64,8.59,36.64,8.59l-19.12,1.2a104.13,104.13,0,0,1-43.48-6.58c-9.16-3.47-18.77-7.24-23.29-9.44C633,575.2,628.84,587.13,634,590.56Z"/><polygon class="cls-3" points="780.17 585.63 768.97 646.62 813.75 655 813.75 591.54 780.17 585.63"/><path class="cls-3" d="M367.47,398.39a82.83,82.83,0,0,0-10.3,37.69c9.17-9.5,16.84-18.85,25-27s16.31-14.92,25.14-19.43a62.82,62.82,0,0,1,29.25-6.81,105.85,105.85,0,0,1,17.4,1.44,28.5,28.5,0,0,0-3.67,1.63A26.42,26.42,0,0,0,438,400.9a32.13,32.13,0,0,0,0,18.83,37.74,37.74,0,0,0,8.8,15.4c-.11-6-.66-11.46-.64-16.66a45.67,45.67,0,0,1,1.83-14.31,28.55,28.55,0,0,1,7.2-11.58,54.11,54.11,0,0,1,8.2-6.54c.82.18,1.67.38,2.5.58a2.16,2.16,0,0,0-.27.33c.33-.07.63-.12.95-.2,1.3.31,2.59.59,3.92.91a179.18,179.18,0,0,1,7.87,19.72c5.05,15.42,42.3,184.33-8.52,269.38h50.82c17.56-164.51-25.2-258.47-33.51-273.3a183,183,0,0,0-11.83-18.34,48.8,48.8,0,0,1,6.25-.5,28.49,28.49,0,0,1,13.27,3.09,46.19,46.19,0,0,1,11.41,8.83c3.7,3.68,7.18,7.93,11.34,12.23a37.81,37.81,0,0,0-4.67-17.1,32.06,32.06,0,0,0-13.33-13.3,26.38,26.38,0,0,0-14.75-2.74A111.39,111.39,0,0,1,499,365.16a62.85,62.85,0,0,1,28.47-9.52c9.89-.8,20.5.66,31.6,3.35s37.18,19.73,50,23c-7.19-11.06-31.47-33.14-43.11-39.83s-25.63-10.77-40.34-9.55a58.32,58.32,0,0,0-38.34,18.78,59.88,59.88,0,0,0-14.48,28.09,128.11,128.11,0,0,1,4.78-27.5,62.84,62.84,0,0,1,15-26c6.87-7.16,15.78-13.09,25.89-18.44s21.29-10.07,33-16.1a82.57,82.57,0,0,0-39-1.05c-13,2.77-26.33,8.93-36.54,19.61a58.26,58.26,0,0,0-16.25,39.48,59,59,0,0,0,.47,6.67,66,66,0,0,0-7.84-10.57,58.44,58.44,0,0,0-38.54-18.45c-14.74-1.09-28.75,3.26-40.28,9.91A82.73,82.73,0,0,0,345.09,364c12.77-3.36,24.17-7.43,35.31-10.16s21.69-4.34,31.59-3.63a62.88,62.88,0,0,1,28.55,9.28c9,5.37,17.61,12.77,26.48,21.6.44.81.92,1.58,1.33,2.4a2,2,0,0,0-.18.21c-.13-.18-.29-.37-.44-.55.11-.07.18-.13.29-.19-.15,0-.3,0-.45-.05A59.2,59.2,0,0,0,439.32,365a58.28,58.28,0,0,0-42.51,4.1C383.63,375.75,373.89,386.71,367.47,398.39Z"/><path class="cls-3" d="M377.71,619.44a3.73,3.73,0,1,0,3.73-3.72A3.73,3.73,0,0,0,377.71,619.44Z"/><path class="cls-3" d="M392.6,617.52a3.72,3.72,0,0,0,5.06,1.44,33.54,33.54,0,0,0,17.27-29.29,3.72,3.72,0,0,0-7.44,0A26.12,26.12,0,0,1,394,612.46,3.72,3.72,0,0,0,392.6,617.52Z"/><path class="cls-3" d="M318,490.68a3.71,3.71,0,0,0,3.72,3.72h34.06l4.94,29.77h-9a3.72,3.72,0,0,0-3.54,2.59L337.21,561a81.18,81.18,0,0,0-2.48,10.3,3.76,3.76,0,0,0-.37,1.6,3.25,3.25,0,0,0,0,.44,107.72,107.72,0,0,0-1.33,16v.28a48.45,48.45,0,0,0,37.21,47.07v33.31h-26a3.72,3.72,0,0,0,0,7.44h74.43a3.72,3.72,0,1,0,0-7.44h-26V636.76a48.42,48.42,0,0,0,37.21-47.09V589A84.34,84.34,0,0,0,428,572.11c-.41-2-.91-4-1.48-6,.36-.15-13.14-34.52-12.25-35.19s15.52,33.66,15.86,33.49a31.81,31.81,0,0,0,9.8-7.23h0a24.4,24.4,0,0,0,2.19-2.37c.38-.46-27.45-24.63-26.73-25.57s30.1,21,30.43,20.51c3.84-5.63,5.08-9.13,5.74-16,0-.39-35.52-6.35-35.29-7.42s35.63,2.42,35.65,2.09c0-.61,0,.41,0-.21,0-.12,0-.23,0-.35v-.1A36.33,36.33,0,0,0,449,513c-.14-.32-32.65,11.22-32.95,10.45-.49-1.25,31.27-14.64,31.1-15-1.93-3.92-3.95-6-7.09-9.16a26.61,26.61,0,0,0-3.57-3.25c-.26-.2-21.44,25.63-22.07,25.07s18.88-27.4,18.62-27.58c-6.44-4.46-11.11-6.24-19-6.44-.36,0-1.69,33.51-2.29,33.42s-1.48-25.88-1.63-33.51h.72l-.91,0h-.41a6.08,6.08,0,0,0-.61,0,37.38,37.38,0,0,0-18.64,5.48c-.29.18,19.91,27.68,18.87,28.45-.81.61-22.22-26.57-22.53-26.35a30.22,30.22,0,0,0-4.82,4.46c-6.11,6.15-9.78,12.66-11,21.12-.05.29,38.32,2.61,38.35,2.91.06.81-7.08.45-38.88,1.09h-2l-5.66-34.1a3.73,3.73,0,0,0-3.67-3.11H321.71A3.71,3.71,0,0,0,318,490.68Zm100.57,74.67a.14.14,0,0,0,0,.07c.41,1.29.77,2.54,1.11,3.78h-44l-6.23-37.58h38.95Zm-40.85,72.7h7.45v32h-7.45Zm-36.28-61.41h79.88a77.29,77.29,0,0,1,1.06,12.4v.63a40.94,40.94,0,0,1-81.87,0h0v-.27A98.46,98.46,0,0,1,341.43,576.64Zm20.51-45,6.24,37.58H342.73c.47-2.13,1-4.13,1.57-5.92l10.09-31.66Z"/></g></g></svg>