<?xml version="1.0" encoding="UTF-8"?>
<svg viewBox="0 0 69.300499 71.702141" xmlns="http://www.w3.org/2000/svg" xmlns:xlink="http://www.w3.org/1999/xlink">
 <defs>
  <linearGradient id="a">
   <stop stop-color="#767676" offset="0"/>
   <stop stop-color="#bbb" offset=".66667"/>
   <stop stop-color="#dfdfdf" offset="1"/>
  </linearGradient>
  <linearGradient id="c" x1="212.53" x2="221.9" y1="-858.64" y2="-845.52" gradientUnits="userSpaceOnUse" xlink:href="#a" spreadMethod="reflect"/>
  <linearGradient id="b" x1="225.21" x2="231.55" y1="-872.67" y2="-863.9" gradientUnits="userSpaceOnUse" xlink:href="#a" spreadMethod="reflect"/>
 </defs>
 <g transform="translate(-547.74 89.562)">
  <path d="m583.84-88.562c9.8001 6e-5 17.617 2.8504 23.45 8.551s8.7493 13.184 8.7494 22.449c-1e-4 5.2674-1.5667 10.134-4.6998 14.6-3.4668 4.8666-7.5999 7.2998-12.399 7.2998-1.6013 1e-5 -3.1017-0.51624-4.5014-1.5488s-2.3326-2.3158-2.7985-3.8498c-1.4018 1.9999-3.3025 3.5497-5.7022 4.6494s-4.8996 1.6495-7.4997 1.6495c-3.8655 1e-5 -7.0821-1.4831-9.6496-4.4495s-3.8514-6.3822-3.8513-10.248c-1e-4 -5.601 1.6001-10.469 4.8004-14.603 3.4667-4.4657 7.8674-6.6986 13.202-6.6986 1.8656 5e-5 3.6483 0.41661 5.3482 1.2497s3.0502 2.0168 4.0512 3.5507l0.6989-3.7018h8.9996l-3.6987 19.101c-0.1995 0.86673-0.3658 1.6668-0.499 2.4002s-0.1999 1.4338-0.1999 2.1011c0 2.065 0.6998 3.0976 2.0996 3.0975 2.4658 2e-5 4.5654-2.066 6.2988-6.1981 1.3997-3.3996 2.0996-6.4666 2.0996-9.201 0-6.9336-2.2334-12.35-6.7001-16.251s-10.233-5.8502-17.299-5.8502c-7.3344 6e-5 -13.618 2.6836-18.851 8.0505s-7.8491 11.551-7.8491 18.552c0 7.8654 2.3168 14.315 6.9504 19.348s10.817 7.55 18.55 7.55c3.4667 0 6.8501-0.23295 10.15-0.69885s6.5501-1.2329 9.7504-2.301l2.0996 8.0994c-3.1332 1.001-6.6498 1.7517-10.55 2.2522s-7.7169 0.75073-11.45 0.75073c-10.067 0-18.284-3.4169-24.651-10.251s-9.5505-15.084-9.5505-24.75 3.4668-17.868 10.4-24.602 15.167-10.1 24.701-10.1zm0 27.402c-2.4679 4e-5 -4.535 1.0997-6.2012 3.299s-2.4994 4.5665-2.4994 7.1014c0 1.7985 0.5666 3.3982 1.6998 4.7989s2.6662 2.1012 4.599 2.1011c2.4678 3e-5 4.5181-1.0671 6.1508-3.2013s2.449-4.4677 2.4491-7.0007c-1e-4 -2.1993-0.5667-3.9322-1.6999-5.1987s-2.6326-1.8997-4.4982-1.8997z" fill="url(#c)" stroke="url(#b)" stroke-width="2"/>
 </g>
</svg>
