<?xml version="1.0" encoding="UTF-8"?>
<svg viewBox="0 0 423.41574 458.79999" xmlns="http://www.w3.org/2000/svg">
 <g transform="translate(-118.07 -407.25)">
  <g transform="matrix(.42486 0 0 .42486 205.8 743.31)">
   <path d="m272.23 147.44 254.49 21.231c1.5721 0.16498 1.8431 1.0917 0.60768 2.0778l-115.2 116.07c-1.2354 0.9861-3.4956 1.6472-5.0678 1.4822l-282.2-26.999c-1.5721-0.16498-1.8431-1.0917-0.60768-2.0778l142.91-110.3c1.2354-0.9861 3.4956-1.6471 5.0678-1.4822z" fill="#728870"/>
   <path d="m390.87 268.19 126.99-127.59c-6.1327 20.694-6.8892 27.393 1.5771 32.168l-112.33 111.62-16.243-16.193z" fill="#f2f0e9" stroke="#bec1c0" stroke-linecap="round" stroke-linejoin="round" stroke-width="1.1769"/>
   <path d="m271.68 114.99 254.49 21.231c1.5721 0.16498 1.8431 1.0917 0.60768 2.0778l-115.2 116.07c-1.2354 0.9861-1.9243 1.909-3.4964 1.744l-283.77-27.261c-1.5721-0.16498-1.8431-1.0917-0.60768-2.0778l142.91-110.3c1.2354-0.9861 3.4956-1.6471 5.0678-1.4822z" fill="#88a086"/>
   <path transform="matrix(.9955,.09479,.11265,.99363,0,0)" d="m98.264 220.21 285.21 0.55194c1.517 0 2.0159 0.6313 2.0159 2.1483-2.7738 10.045-11.089 21.442-0.96095 28.68 0 1.517-1.2213 2.7383-2.7383 2.7383h-284.09c-1.517 0-2.7383-1.2213-2.7383-2.7383-7.702-5.5871-4.6328-16.565 0-28.325 0-1.517 1.7833-3.0555 3.3003-3.0555z" fill="#82a982"/>
   <path d="m121.85 232.75 279.25 27.407" fill="none" stroke="#6e896e" stroke-width="1.883"/>
   <path d="m127.04 259.41 279.25 27.407" fill="none" stroke="#7d957d" stroke-width="1.883"/>
   <path d="m413.52 257.01 97.16-97.946" fill="none" stroke="#9d9d9d" stroke-width=".23537"/>
   <path d="m411.82 264.34 97.16-97.946" fill="none" stroke="#9d9d9d" stroke-width=".23537"/>
   <path d="m412.6 269.06 97.16-97.946" fill="none" stroke="#9d9d9d" stroke-width=".23537"/>
   <path d="m416.53 270.89 97.16-97.946" fill="none" stroke="#9d9d9d" stroke-width=".23537"/>
  </g>
  <g transform="matrix(.45108 0 0 .45108 191.89 724.72)">
   <path d="m277.57 115.88 249.55 21.556c8.3592 1.6814 6.6412 30.304-0.0512 31.899l-246.21-19.608c-1.5102-0.14379-2.8636-1.4731-3.0345-2.9804-8.2967-6.2816-6.4779-16.898-3.1908-28.144-0.1709-1.5074 1.4311-2.867 2.9413-2.7232z" fill="#649264"/>
   <path d="m272.23 147.44 254.49 21.231c1.5721 0.16498 1.8431 1.0917 0.60768 2.0778l-115.2 116.07c-1.2354 0.9861-3.4956 1.6472-5.0678 1.4822l-282.2-26.999c-1.5721-0.16498-1.8431-1.0917-0.60768-2.0778l142.91-110.3c1.2354-0.9861 3.4956-1.6471 5.0678-1.4822z" fill="#6b6b6b"/>
   <path d="m130.42 227.64 278.34 28.4c8.3643 15.597 2.1521 20.71-1.2685 27.974l-278.62-26.076c8.6419-10.228 9.5841-18.433 1.5416-30.297z" fill="#f2f0e9" stroke="#bec1c0" stroke-linecap="round" stroke-linejoin="round" stroke-width="1.1085"/>
   <path d="m407.7 255.25 114.05-113.79c6.0091 9.4359 6.8943 13.145 1.1458 27.855l-115.78 115.07c8.6806-12.322 6.7895-21.392 0.57924-29.133z" fill="#f2f0e9" stroke="#bec1c0" stroke-linecap="round" stroke-linejoin="round" stroke-width="1.1085"/>
   <path d="m271.68 114.99 254.49 21.231c1.5721 0.16498 1.8431 1.0917 0.60768 2.0778l-115.2 116.07c-1.2354 0.9861-1.9243 1.909-3.4964 1.744l-283.77-27.261c-1.5721-0.16498-1.8431-1.0917-0.60768-2.0778l142.91-110.3c1.2354-0.9861 3.4956-1.6471 5.0678-1.4822z" fill="#b5b5b5"/>
   <path d="m413.52 257.01 97.16-97.946" fill="none" stroke="#9d9d9d" stroke-width=".22169"/>
   <path d="m419.15 257.01 97.16-97.946" fill="none" stroke="#9d9d9d" stroke-width=".22169"/>
   <path d="m421.23 261.29 97.16-97.946" fill="none" stroke="#9d9d9d" stroke-width=".22169"/>
   <path d="m421.71 266.58 97.16-97.946" fill="none" stroke="#9d9d9d" stroke-width=".22169"/>
   <path d="m142.08 237.87 260.53 22.433" fill="none" stroke="#9d9d9d" stroke-width=".22169"/>
   <path d="m144.89 243.69 255.79 22.864" fill="none" stroke="#9d9d9d" stroke-width=".22169"/>
   <path d="m142.3 248.87 258.81 24.158" fill="none" stroke="#9d9d9d" stroke-width=".22169"/>
   <path d="m138.42 255.34 261.83 23.295" fill="none" stroke="#9d9d9d" stroke-width=".22169"/>
  </g>
  <g transform="matrix(.48798 0 0 .48798 179.95 694.57)">
   <path d="m272.23 147.44 254.49 21.231c1.5721 0.16498 1.8431 1.0917 0.60768 2.0778l-115.2 116.07c-1.2354 0.9861-3.4956 1.6472-5.0678 1.4822l-282.2-26.999c-1.5721-0.16498-1.8431-1.0917-0.60768-2.0778l142.91-110.3c1.2354-0.9861 3.4956-1.6471 5.0678-1.4822z" fill="#a78870"/>
   <path d="m390.87 268.19 126.99-127.59c-6.1327 20.694-6.8892 27.393 1.5771 32.168l-112.33 111.62-16.243-16.193z" fill="#f2f0e9" stroke="#bec1c0" stroke-linecap="round" stroke-linejoin="round" stroke-width="1.0246"/>
   <path d="m271.68 114.99 254.49 21.231c1.5721 0.16498 1.8431 1.0917 0.60768 2.0778l-115.2 116.07c-1.2354 0.9861-1.9243 1.909-3.4964 1.744l-283.77-27.261c-1.5721-0.16498-1.8431-1.0917-0.60768-2.0778l142.91-110.3c1.2354-0.9861 3.4956-1.6471 5.0678-1.4822z" fill="#c3a086"/>
   <path transform="matrix(.9955,.09479,.11265,.99363,0,0)" d="m98.264 220.21 285.21 0.55194c1.517 0 2.0159 0.6313 2.0159 2.1483-2.7738 10.045-11.089 21.442-0.96095 28.68 0 1.517-1.2213 2.7383-2.7383 2.7383h-284.09c-1.517 0-2.7383-1.2213-2.7383-2.7383-7.702-5.5871-4.6328-16.565 0-28.325 0-1.517 1.7833-3.0555 3.3003-3.0555z" fill="#d6a982"/>
   <path d="m121.85 232.75 279.25 27.407" fill="none" stroke="#6e896e" stroke-width="1.6394"/>
   <path d="m127.04 259.41 279.25 27.407" fill="none" stroke="#7d957d" stroke-width="1.6394"/>
   <path d="m413.52 257.01 97.16-97.946" fill="none" stroke="#9d9d9d" stroke-width=".20493"/>
   <path d="m411.82 264.34 97.16-97.946" fill="none" stroke="#9d9d9d" stroke-width=".20493"/>
   <path d="m412.6 269.06 97.16-97.946" fill="none" stroke="#9d9d9d" stroke-width=".20493"/>
   <path d="m416.53 270.89 97.16-97.946" fill="none" stroke="#9d9d9d" stroke-width=".20493"/>
  </g>
  <g transform="matrix(.51979 -.00159 -.07628 .51155 180.18 671.99)">
   <path d="m272.23 147.44 254.49 21.231c1.5721 0.16498 1.8431 1.0917 0.60768 2.0778l-115.2 116.07c-1.2354 0.9861-3.4956 1.6472-5.0678 1.4822l-282.2-26.999c-1.5721-0.16498-1.8431-1.0917-0.60768-2.0778l142.91-110.3c1.2354-0.9861 3.4956-1.6471 5.0678-1.4822z" fill="#7288a1"/>
   <path d="m390.87 268.19 126.99-127.59c-6.1327 20.694-6.8892 27.393 1.5771 32.168l-112.33 111.62-16.243-16.193z" fill="#f2f0e9" stroke="#bec1c0" stroke-linecap="round" stroke-linejoin="round" stroke-width=".96987"/>
   <path d="m271.68 114.99 254.49 21.231c1.5721 0.16498 1.8431 1.0917 0.60768 2.0778l-115.2 116.07c-1.2354 0.9861-1.9243 1.909-3.4964 1.744l-283.77-27.261c-1.5721-0.16498-1.8431-1.0917-0.60768-2.0778l142.91-110.3c1.2354-0.9861 3.4956-1.6471 5.0678-1.4822z" fill="#88a0c0"/>
   <path transform="matrix(.9955,.09479,.11265,.99363,0,0)" d="m98.264 220.21 285.21 0.55194c1.517 0 2.0159 0.6313 2.0159 2.1483-2.7738 10.045-11.089 21.442-0.96095 28.68 0 1.517-1.2213 2.7383-2.7383 2.7383h-284.09c-1.517 0-2.7383-1.2213-2.7383-2.7383-7.702-5.5871-4.6328-16.565 0-28.325 0-1.517 1.7833-3.0555 3.3003-3.0555z" fill="#82a9d6"/>
   <path d="m121.85 232.75 279.25 27.407" fill="none" stroke="#6e896e" stroke-width="1.5518"/>
   <path d="m127.04 259.41 279.25 27.407" fill="none" stroke="#7d957d" stroke-width="1.5518"/>
   <path d="m413.52 257.01 97.16-97.946" fill="none" stroke="#9d9d9d" stroke-width=".19397"/>
   <path d="m411.82 264.34 97.16-97.946" fill="none" stroke="#9d9d9d" stroke-width=".19397"/>
   <path d="m412.6 269.06 97.16-97.946" fill="none" stroke="#9d9d9d" stroke-width=".19397"/>
   <path d="m416.53 270.89 97.16-97.946" fill="none" stroke="#9d9d9d" stroke-width=".19397"/>
  </g>
  <g transform="matrix(.58479 0 0 .58479 137.68 636.76)">
   <path d="m277.57 115.88 249.55 21.556c8.3592 1.6814 6.6412 30.304-0.0512 31.899l-246.21-19.608c-1.5102-0.14379-2.8636-1.4731-3.0345-2.9804-8.2967-6.2816-6.4779-16.898-3.1908-28.144-0.1709-1.5074 1.4311-2.867 2.9413-2.7232z" fill="#649264"/>
   <path d="m272.23 147.44 254.49 21.231c1.5721 0.16498 1.8431 1.0917 0.60768 2.0778l-115.2 116.07c-1.2354 0.9861-3.4956 1.6472-5.0678 1.4822l-282.2-26.999c-1.5721-0.16498-1.8431-1.0917-0.60768-2.0778l142.91-110.3c1.2354-0.9861 3.4956-1.6471 5.0678-1.4822z" fill="#728870"/>
   <path d="m130.42 227.64 278.34 28.4c8.3643 15.597 2.1521 20.71-1.2685 27.974l-278.62-26.076c8.6419-10.228 9.5841-18.433 1.5416-30.297z" fill="#f2f0e9" stroke="#bec1c0" stroke-linecap="round" stroke-linejoin="round" stroke-width=".85501"/>
   <path d="m407.7 255.25 114.05-113.79c6.0091 9.4359 6.8943 13.145 1.1458 27.855l-115.78 115.07c8.6806-12.322 6.7895-21.392 0.57924-29.133z" fill="#f2f0e9" stroke="#bec1c0" stroke-linecap="round" stroke-linejoin="round" stroke-width=".85501"/>
   <path d="m271.68 114.99 254.49 21.231c1.5721 0.16498 1.8431 1.0917 0.60768 2.0778l-115.2 116.07c-1.2354 0.9861-1.9243 1.909-3.4964 1.744l-283.77-27.261c-1.5721-0.16498-1.8431-1.0917-0.60768-2.0778l142.91-110.3c1.2354-0.9861 3.4956-1.6471 5.0678-1.4822z" fill="#88a086"/>
   <path d="m413.52 257.01 97.16-97.946" fill="none" stroke="#9d9d9d" stroke-width=".171"/>
   <path d="m419.15 257.01 97.16-97.946" fill="none" stroke="#9d9d9d" stroke-width=".171"/>
   <path d="m421.23 261.29 97.16-97.946" fill="none" stroke="#9d9d9d" stroke-width=".171"/>
   <path d="m421.71 266.58 97.16-97.946" fill="none" stroke="#9d9d9d" stroke-width=".171"/>
   <path d="m142.08 237.87 260.53 22.433" fill="none" stroke="#9d9d9d" stroke-width=".171"/>
   <path d="m144.89 243.69 255.79 22.864" fill="none" stroke="#9d9d9d" stroke-width=".171"/>
   <path d="m142.3 248.87 258.81 24.158" fill="none" stroke="#9d9d9d" stroke-width=".171"/>
   <path d="m138.42 255.34 261.83 23.295" fill="none" stroke="#9d9d9d" stroke-width=".171"/>
  </g>
  <g transform="matrix(.54668 -.00086339 .04087 .51548 143.4 631.97)">
   <path d="m272.23 147.44 254.49 21.231c1.5721 0.16498 1.8431 1.0917 0.60768 2.0778l-115.2 116.07c-1.2354 0.9861-3.4956 1.6472-5.0678 1.4822l-282.2-26.999c-1.5721-0.16498-1.8431-1.0917-0.60768-2.0778l142.91-110.3c1.2354-0.9861 3.4956-1.6471 5.0678-1.4822z" fill="#723a70"/>
   <path d="m390.87 268.19 126.99-127.59c-6.1327 20.694-6.8892 27.393 1.5771 32.168l-112.33 111.62-16.243-16.193z" fill="#f2f0e9" stroke="#bec1c0" stroke-linecap="round" stroke-linejoin="round" stroke-width=".94182"/>
   <path d="m271.68 114.99 254.49 21.231c1.5721 0.16498 1.8431 1.0917 0.60768 2.0778l-115.2 116.07c-1.2354 0.9861-1.9243 1.909-3.4964 1.744l-283.77-27.261c-1.5721-0.16498-1.8431-1.0917-0.60768-2.0778l142.91-110.3c1.2354-0.9861 3.4956-1.6471 5.0678-1.4822z" fill="#885386"/>
   <path transform="matrix(.9955,.09479,.11265,.99363,0,0)" d="m98.264 220.21 285.21 0.55194c1.517 0 2.0159 0.6313 2.0159 2.1483-2.7738 10.045-11.089 21.442-0.96095 28.68 0 1.517-1.2213 2.7383-2.7383 2.7383h-284.09c-1.517 0-2.7383-1.2213-2.7383-2.7383-7.702-5.5871-4.6328-16.565 0-28.325 0-1.517 1.7833-3.0555 3.3003-3.0555z" fill="#826e82"/>
   <path d="m121.85 232.75 279.25 27.407" fill="none" stroke="#6e896e" stroke-width="1.5069"/>
   <path d="m127.04 259.41 279.25 27.407" fill="none" stroke="#7d957d" stroke-width="1.5069"/>
   <path d="m413.52 257.01 97.16-97.946" fill="none" stroke="#9d9d9d" stroke-width=".18836"/>
   <path d="m411.82 264.34 97.16-97.946" fill="none" stroke="#9d9d9d" stroke-width=".18836"/>
   <path d="m412.6 269.06 97.16-97.946" fill="none" stroke="#9d9d9d" stroke-width=".18836"/>
   <path d="m416.53 270.89 97.16-97.946" fill="none" stroke="#9d9d9d" stroke-width=".18836"/>
  </g>
  <g transform="matrix(.6485 0 0 .57215 128.79 597.05)">
   <path d="m272.23 147.44 254.49 21.231c1.5721 0.16498 1.8431 1.0917 0.60768 2.0778l-115.2 116.07c-1.2354 0.9861-3.4956 1.6472-5.0678 1.4822l-282.2-26.999c-1.5721-0.16498-1.8431-1.0917-0.60768-2.0778l142.91-110.3c1.2354-0.9861 3.4956-1.6471 5.0678-1.4822z" fill="#728870"/>
   <path d="m390.87 268.19 126.99-127.59c-6.1327 20.694-6.8892 27.393 1.5771 32.168l-112.33 111.62-16.243-16.193z" fill="#f2f0e9" stroke="#bec1c0" stroke-linecap="round" stroke-linejoin="round" stroke-width=".82085"/>
   <path d="m271.68 114.99 254.49 21.231c1.5721 0.16498 1.8431 1.0917 0.60768 2.0778l-115.2 116.07c-1.2354 0.9861-1.9243 1.909-3.4964 1.744l-283.77-27.261c-1.5721-0.16498-1.8431-1.0917-0.60768-2.0778l142.91-110.3c1.2354-0.9861 3.4956-1.6471 5.0678-1.4822z" fill="#88a086"/>
   <path transform="matrix(.9955,.09479,.11265,.99363,0,0)" d="m98.264 220.21 285.21 0.55194c1.517 0 2.0159 0.6313 2.0159 2.1483-2.7738 10.045-11.089 21.442-0.96095 28.68 0 1.517-1.2213 2.7383-2.7383 2.7383h-284.09c-1.517 0-2.7383-1.2213-2.7383-2.7383-7.702-5.5871-4.6328-16.565 0-28.325 0-1.517 1.7833-3.0555 3.3003-3.0555z" fill="#82a982"/>
   <path d="m121.85 232.75 279.25 27.407" fill="none" stroke="#6e896e" stroke-width="1.3134"/>
   <path d="m127.04 259.41 279.25 27.407" fill="none" stroke="#7d957d" stroke-width="1.3134"/>
   <path d="m413.52 257.01 97.16-97.946" fill="none" stroke="#9d9d9d" stroke-width=".16417"/>
   <path d="m411.82 264.34 97.16-97.946" fill="none" stroke="#9d9d9d" stroke-width=".16417"/>
   <path d="m412.6 269.06 97.16-97.946" fill="none" stroke="#9d9d9d" stroke-width=".16417"/>
   <path d="m416.53 270.89 97.16-97.946" fill="none" stroke="#9d9d9d" stroke-width=".16417"/>
  </g>
  <g transform="matrix(.63528 0 0 .63528 123.29 563.57)">
   <path d="m272.23 147.44 254.49 21.231c1.5721 0.16498 1.8431 1.0917 0.60768 2.0778l-115.2 116.07c-1.2354 0.9861-3.4956 1.6472-5.0678 1.4822l-282.2-26.999c-1.5721-0.16498-1.8431-1.0917-0.60768-2.0778l142.91-110.3c1.2354-0.9861 3.4956-1.6471 5.0678-1.4822z" fill="#727070"/>
   <path d="m390.87 268.19 126.99-127.59c-6.1327 20.694-6.8892 27.393 1.5771 32.168l-112.33 111.62-16.243-16.193z" fill="#f2f0e9" stroke="#bec1c0" stroke-linecap="round" stroke-linejoin="round" stroke-width=".78706"/>
   <path d="m271.68 114.99 254.49 21.231c1.5721 0.16498 1.8431 1.0917 0.60768 2.0778l-115.2 116.07c-1.2354 0.9861-1.9243 1.909-3.4964 1.744l-283.77-27.261c-1.5721-0.16498-1.8431-1.0917-0.60768-2.0778l142.91-110.3c1.2354-0.9861 3.4956-1.6471 5.0678-1.4822z" fill="#494847"/>
   <path transform="matrix(.9955,.09479,.11265,.99363,0,0)" d="m98.264 220.21 285.21 0.55194c1.517 0 2.0159 0.6313 2.0159 2.1483-2.7738 10.045-11.089 21.442-0.96095 28.68 0 1.517-1.2213 2.7383-2.7383 2.7383h-284.09c-1.517 0-2.7383-1.2213-2.7383-2.7383-7.702-5.5871-4.6328-16.565 0-28.325 0-1.517 1.7833-3.0555 3.3003-3.0555z" fill="#626363"/>
   <path d="m121.85 232.75 279.25 27.407" fill="none" stroke="#6e896e" stroke-width="1.2593"/>
   <path d="m127.04 259.41 279.25 27.407" fill="none" stroke="#7d957d" stroke-width="1.2593"/>
   <path d="m413.52 257.01 97.16-97.946" fill="none" stroke="#9d9d9d" stroke-width=".15741"/>
   <path d="m411.82 264.34 97.16-97.946" fill="none" stroke="#9d9d9d" stroke-width=".15741"/>
   <path d="m412.6 269.06 97.16-97.946" fill="none" stroke="#9d9d9d" stroke-width=".15741"/>
   <path d="m416.53 270.89 97.16-97.946" fill="none" stroke="#9d9d9d" stroke-width=".15741"/>
  </g>
  <g transform="matrix(.75014 0 0 .71146 81.316 525.82)">
   <path d="m277.57 115.88 249.55 21.556c8.3592 1.6814 6.6412 30.304-0.0512 31.899l-246.21-19.608c-1.5102-0.14379-2.8636-1.4731-3.0345-2.9804-8.2967-6.2816-6.4779-16.898-3.1908-28.144-0.1709-1.5074 1.4311-2.867 2.9413-2.7232z" fill="#9b9264"/>
   <path d="m272.23 147.44 254.49 21.231c1.5721 0.16498 1.8431 1.0917 0.60768 2.0778l-115.2 116.07c-1.2354 0.9861-3.4956 1.6472-5.0678 1.4822l-282.2-26.999c-1.5721-0.16498-1.8431-1.0917-0.60768-2.0778l142.91-110.3c1.2354-0.9861 3.4956-1.6471 5.0678-1.4822z" fill="#a8a770"/>
   <path d="m130.42 227.64 278.34 28.4c8.3643 15.597 2.1521 20.71-1.2685 27.974l-278.62-26.076c8.6419-10.228 9.5841-18.433 1.5416-30.297z" fill="#f2f0e9" stroke="#bec1c0" stroke-linecap="round" stroke-linejoin="round" stroke-width=".68442"/>
   <path d="m407.7 255.25 114.05-113.79c6.0091 9.4359 6.8943 13.145 1.1458 27.855l-115.78 115.07c8.6806-12.322 6.7895-21.392 0.57924-29.133z" fill="#f2f0e9" stroke="#bec1c0" stroke-linecap="round" stroke-linejoin="round" stroke-width=".68442"/>
   <path d="m271.68 114.99 254.49 21.231c1.5721 0.16498 1.8431 1.0917 0.60768 2.0778l-115.2 116.07c-1.2354 0.9861-1.9243 1.909-3.4964 1.744l-283.77-27.261c-1.5721-0.16498-1.8431-1.0917-0.60768-2.0778l142.91-110.3c1.2354-0.9861 3.4956-1.6471 5.0678-1.4822z" fill="#c8c886"/>
   <path d="m413.52 257.01 97.16-97.946" fill="none" stroke="#9d9d9d" stroke-width=".13688"/>
   <path d="m419.15 257.01 97.16-97.946" fill="none" stroke="#9d9d9d" stroke-width=".13688"/>
   <path d="m421.23 261.29 97.16-97.946" fill="none" stroke="#9d9d9d" stroke-width=".13688"/>
   <path d="m421.71 266.58 97.16-97.946" fill="none" stroke="#9d9d9d" stroke-width=".13688"/>
   <path d="m142.08 237.87 260.53 22.433" fill="none" stroke="#9d9d9d" stroke-width=".13688"/>
   <path d="m144.89 243.69 255.79 22.864" fill="none" stroke="#9d9d9d" stroke-width=".13688"/>
   <path d="m142.3 248.87 258.81 24.158" fill="none" stroke="#9d9d9d" stroke-width=".13688"/>
   <path d="m138.42 255.34 261.83 23.295" fill="none" stroke="#9d9d9d" stroke-width=".13688"/>
  </g>
  <g transform="matrix(.73306 -.02453 .0612 .72193 75.346 510.04)">
   <path d="m277.57 115.88 249.55 21.556c8.3592 1.6814 6.6412 30.304-0.0512 31.899l-246.21-19.608c-1.5102-0.14379-2.8636-1.4731-3.0345-2.9804-8.2967-6.2816-6.4779-16.898-3.1908-28.144-0.1709-1.5074 1.4311-2.867 2.9413-2.7232z" fill="#649264"/>
   <path d="m272.23 147.44 254.49 21.231c1.5721 0.16498 1.8431 1.0917 0.60768 2.0778l-115.2 116.07c-1.2354 0.9861-3.4956 1.6472-5.0678 1.4822l-282.2-26.999c-1.5721-0.16498-1.8431-1.0917-0.60768-2.0778l142.91-110.3c1.2354-0.9861 3.4956-1.6471 5.0678-1.4822z" fill="#728870"/>
   <path d="m130.42 227.64 278.34 28.4c8.3643 15.597 2.1521 20.71-1.2685 27.974l-278.62-26.076c8.6419-10.228 9.5841-18.433 1.5416-30.297z" fill="#f2f0e9" stroke="#bec1c0" stroke-linecap="round" stroke-linejoin="round" stroke-width=".68634"/>
   <path d="m407.7 255.25 114.05-113.79c6.0091 9.4359 6.8943 13.145 1.1458 27.855l-115.78 115.07c8.6806-12.322 6.7895-21.392 0.57924-29.133z" fill="#f2f0e9" stroke="#bec1c0" stroke-linecap="round" stroke-linejoin="round" stroke-width=".68634"/>
   <path d="m271.68 114.99 254.49 21.231c1.5721 0.16498 1.8431 1.0917 0.60768 2.0778l-115.2 116.07c-1.2354 0.9861-1.9243 1.909-3.4964 1.744l-283.77-27.261c-1.5721-0.16498-1.8431-1.0917-0.60768-2.0778l142.91-110.3c1.2354-0.9861 3.4956-1.6471 5.0678-1.4822z" fill="#88a086"/>
   <path d="m413.52 257.01 97.16-97.946" fill="none" stroke="#9d9d9d" stroke-width=".13727"/>
   <path d="m419.15 257.01 97.16-97.946" fill="none" stroke="#9d9d9d" stroke-width=".13727"/>
   <path d="m421.23 261.29 97.16-97.946" fill="none" stroke="#9d9d9d" stroke-width=".13727"/>
   <path d="m421.71 266.58 97.16-97.946" fill="none" stroke="#9d9d9d" stroke-width=".13727"/>
   <path d="m142.08 237.87 260.53 22.433" fill="none" stroke="#9d9d9d" stroke-width=".13727"/>
   <path d="m144.89 243.69 255.79 22.864" fill="none" stroke="#9d9d9d" stroke-width=".13727"/>
   <path d="m142.3 248.87 258.81 24.158" fill="none" stroke="#9d9d9d" stroke-width=".13727"/>
   <path d="m138.42 255.34 261.83 23.295" fill="none" stroke="#9d9d9d" stroke-width=".13727"/>
  </g>
  <g transform="matrix(.8088 -.00247 -.11869 .79597 90.449 455.96)">
   <path d="m272.23 147.44 254.49 21.231c1.5721 0.16498 1.8431 1.0917 0.60768 2.0778l-115.2 116.07c-1.2354 0.9861-3.4956 1.6472-5.0678 1.4822l-282.2-26.999c-1.5721-0.16498-1.8431-1.0917-0.60768-2.0778l142.91-110.3c1.2354-0.9861 3.4956-1.6471 5.0678-1.4822z" fill="#7288a1"/>
   <path d="m390.87 268.19 126.99-127.59c-6.1327 20.694-6.8892 27.393 1.5771 32.168l-112.33 111.62-16.243-16.193z" fill="#f2f0e9" stroke="#bec1c0" stroke-linecap="round" stroke-linejoin="round" stroke-width=".62331"/>
   <path d="m271.68 114.99 254.49 21.231c1.5721 0.16498 1.8431 1.0917 0.60768 2.0778l-115.2 116.07c-1.2354 0.9861-1.9243 1.909-3.4964 1.744l-283.77-27.261c-1.5721-0.16498-1.8431-1.0917-0.60768-2.0778l142.91-110.3c1.2354-0.9861 3.4956-1.6471 5.0678-1.4822z" fill="#88a0c0"/>
   <path transform="matrix(.9955,.09479,.11265,.99363,0,0)" d="m98.264 220.21 285.21 0.55194c1.517 0 2.0159 0.6313 2.0159 2.1483-2.7738 10.045-11.089 21.442-0.96095 28.68 0 1.517-1.2213 2.7383-2.7383 2.7383h-284.09c-1.517 0-2.7383-1.2213-2.7383-2.7383-7.702-5.5871-4.6328-16.565 0-28.325 0-1.517 1.7833-3.0555 3.3003-3.0555z" fill="#82a9d6"/>
   <path d="m121.85 232.75 279.25 27.407" fill="none" stroke="#6e896e" stroke-width=".99729"/>
   <path d="m127.04 259.41 279.25 27.407" fill="none" stroke="#7d957d" stroke-width=".99729"/>
   <path d="m413.52 257.01 97.16-97.946" fill="none" stroke="#9d9d9d" stroke-width=".12466"/>
   <path d="m411.82 264.34 97.16-97.946" fill="none" stroke="#9d9d9d" stroke-width=".12466"/>
   <path d="m412.6 269.06 97.16-97.946" fill="none" stroke="#9d9d9d" stroke-width=".12466"/>
   <path d="m416.53 270.89 97.16-97.946" fill="none" stroke="#9d9d9d" stroke-width=".12466"/>
  </g>
  <g transform="matrix(.85826 0 0 .84358 70.422 414.45)">
   <path d="m272.23 147.44 254.49 21.231c1.5721 0.16498 1.8431 1.0917 0.60768 2.0778l-115.2 116.07c-1.2354 0.9861-3.4956 1.6472-5.0678 1.4822l-282.2-26.999c-1.5721-0.16498-1.8431-1.0917-0.60768-2.0778l142.91-110.3c1.2354-0.9861 3.4956-1.6471 5.0678-1.4822z" fill="#727070"/>
   <path d="m390.87 268.19 126.99-127.59c-6.1327 20.694-6.8892 27.393 1.5771 32.168l-112.33 111.62-16.243-16.193z" fill="#f2f0e9" stroke="#bec1c0" stroke-linecap="round" stroke-linejoin="round" stroke-width=".58762"/>
   <path d="m271.68 114.99 254.49 21.231c1.5721 0.16498 1.8431 1.0917 0.60768 2.0778l-115.2 116.07c-1.2354 0.9861-1.9243 1.909-3.4964 1.744l-283.77-27.261c-1.5721-0.16498-1.8431-1.0917-0.60768-2.0778l142.91-110.3c1.2354-0.9861 3.4956-1.6471 5.0678-1.4822z" fill="#494847"/>
   <path transform="matrix(.9955,.09479,.11265,.99363,0,0)" d="m98.264 220.21 285.21 0.55194c1.517 0 2.0159 0.6313 2.0159 2.1483-2.7738 10.045-11.089 21.442-0.96095 28.68 0 1.517-1.2213 2.7383-2.7383 2.7383h-284.09c-1.517 0-2.7383-1.2213-2.7383-2.7383-7.702-5.5871-4.6328-16.565 0-28.325 0-1.517 1.7833-3.0555 3.3003-3.0555z" fill="#626363"/>
   <path d="m121.85 232.75 279.25 27.407" fill="none" stroke="#6e896e" stroke-width=".94019"/>
   <path d="m127.04 259.41 279.25 27.407" fill="none" stroke="#7d957d" stroke-width=".94019"/>
   <path d="m413.52 257.01 97.16-97.946" fill="none" stroke="#9d9d9d" stroke-width=".11752"/>
   <path d="m411.82 264.34 97.16-97.946" fill="none" stroke="#9d9d9d" stroke-width=".11752"/>
   <path d="m412.6 269.06 97.16-97.946" fill="none" stroke="#9d9d9d" stroke-width=".11752"/>
   <path d="m416.53 270.89 97.16-97.946" fill="none" stroke="#9d9d9d" stroke-width=".11752"/>
  </g>
  <g transform="translate(3.9818 344.57)">
   <path d="m277.57 115.88 249.55 21.556c8.3592 1.6814 6.6412 30.304-0.0512 31.899l-246.21-19.608c-1.5102-0.14379-2.8636-1.4731-3.0345-2.9804-8.2967-6.2816-6.4779-16.898-3.1908-28.144-0.1709-1.5074 1.4311-2.867 2.9413-2.7232z" fill="#649264"/>
   <path d="m272.23 147.44 254.49 21.231c1.5721 0.16498 1.8431 1.0917 0.60768 2.0778l-115.2 116.07c-1.2354 0.9861-3.4956 1.6472-5.0678 1.4822l-282.2-26.999c-1.5721-0.16498-1.8431-1.0917-0.60768-2.0778l142.91-110.3c1.2354-0.9861 3.4956-1.6471 5.0678-1.4822z" fill="#728870"/>
   <path d="m130.42 227.64 278.34 28.4c8.3643 15.597 2.1521 20.71-1.2685 27.974l-278.62-26.076c8.6419-10.228 9.5841-18.433 1.5416-30.297z" fill="#f2f0e9" stroke="#bec1c0" stroke-linecap="round" stroke-linejoin="round" stroke-width=".5"/>
   <path d="m407.7 255.25 114.05-113.79c6.0091 9.4359 6.8943 13.145 1.1458 27.855l-115.78 115.07c8.6806-12.322 6.7895-21.392 0.57924-29.133z" fill="#f2f0e9" stroke="#bec1c0" stroke-linecap="round" stroke-linejoin="round" stroke-width=".5"/>
   <path d="m271.68 114.99 254.49 21.231c1.5721 0.16498 1.8431 1.0917 0.60768 2.0778l-115.2 116.07c-1.2354 0.9861-1.9243 1.909-3.4964 1.744l-283.77-27.261c-1.5721-0.16498-1.8431-1.0917-0.60768-2.0778l142.91-110.3c1.2354-0.9861 3.4956-1.6471 5.0678-1.4822z" fill="#88a086"/>
   <path d="m413.52 257.01 97.16-97.946" fill="none" stroke="#9d9d9d" stroke-width=".1"/>
   <path d="m419.15 257.01 97.16-97.946" fill="none" stroke="#9d9d9d" stroke-width=".1"/>
   <path d="m421.23 261.29 97.16-97.946" fill="none" stroke="#9d9d9d" stroke-width=".1"/>
   <path d="m421.71 266.58 97.16-97.946" fill="none" stroke="#9d9d9d" stroke-width=".1"/>
   <path d="m142.08 237.87 260.53 22.433" fill="none" stroke="#9d9d9d" stroke-width=".1"/>
   <path d="m144.89 243.69 255.79 22.864" fill="none" stroke="#9d9d9d" stroke-width=".1"/>
   <path d="m142.3 248.87 258.81 24.158" fill="none" stroke="#9d9d9d" stroke-width=".1"/>
   <path d="m138.42 255.34 261.83 23.295" fill="none" stroke="#9d9d9d" stroke-width=".1"/>
  </g>
  <g transform="matrix(1.0298 0 0 1.0298 -2.3311 288.86)">
   <path d="m272.23 147.44 254.49 21.231c1.5721 0.16498 1.8431 1.0917 0.60768 2.0778l-115.2 116.07c-1.2354 0.9861-3.4956 1.6472-5.0678 1.4822l-282.2-26.999c-1.5721-0.16498-1.8431-1.0917-0.60768-2.0778l142.91-110.3c1.2354-0.9861 3.4956-1.6471 5.0678-1.4822z" fill="#728870"/>
   <path d="m390.87 268.19 126.99-127.59c-6.1327 20.694-6.8892 27.393 1.5771 32.168l-112.33 111.62-16.243-16.193z" fill="#f2f0e9" stroke="#bec1c0" stroke-linecap="round" stroke-linejoin="round" stroke-width=".48555"/>
   <path d="m271.68 114.99 254.49 21.231c1.5721 0.16498 1.8431 1.0917 0.60768 2.0778l-115.2 116.07c-1.2354 0.9861-1.9243 1.909-3.4964 1.744l-283.77-27.261c-1.5721-0.16498-1.8431-1.0917-0.60768-2.0778l142.91-110.3c1.2354-0.9861 3.4956-1.6471 5.0678-1.4822z" fill="#88a086"/>
   <path transform="matrix(.9955,.09479,.11265,.99363,0,0)" d="m98.264 220.21 285.21 0.55194c1.517 0 2.0159 0.6313 2.0159 2.1483-2.7738 10.045-11.089 21.442-0.96095 28.68 0 1.517-1.2213 2.7383-2.7383 2.7383h-284.09c-1.517 0-2.7383-1.2213-2.7383-2.7383-7.702-5.5871-4.6328-16.565 0-28.325 0-1.517 1.7833-3.0555 3.3003-3.0555z" fill="#82a982"/>
   <path d="m121.85 232.75 279.25 27.407" fill="none" stroke="#6e896e" stroke-width=".77688"/>
   <path d="m127.04 259.41 279.25 27.407" fill="none" stroke="#7d957d" stroke-width=".77688"/>
   <path d="m413.52 257.01 97.16-97.946" fill="none" stroke="#9d9d9d" stroke-width=".09711"/>
   <path d="m411.82 264.34 97.16-97.946" fill="none" stroke="#9d9d9d" stroke-width=".09711"/>
   <path d="m412.6 269.06 97.16-97.946" fill="none" stroke="#9d9d9d" stroke-width=".09711"/>
   <path d="m416.53 270.89 97.16-97.946" fill="none" stroke="#9d9d9d" stroke-width=".09711"/>
  </g>
 </g>
</svg>
