<?xml version='1.0' encoding='utf-8'?>
<svg xmlns="http://www.w3.org/2000/svg" clip-rule="evenodd" fill-rule="evenodd" image-rendering="optimizeQuality" shape-rendering="geometricPrecision" text-rendering="geometricPrecision" version="1.1" viewBox="0 0 11530 8291">
 <defs>
  <style type="text/css">
    .fil0 {fill:black}
  </style>
 </defs>
 <path d="m10724 4439c-567-31-1209 338-1388 1054-104 416-12 803 224 1101 201 254 297 516 199 883-116 436-439 685-776 814 385-116 753-377 891-864 113-398 21-718-210-990-348-409-248-1008 42-1412 204-339 582-571 1018-586z" fill="#00f"/><path d="m4251 6247c983 39 1558 442 2325 1196 298 293 616 634 970 379-427-54-911-614-1301-912-646-495-1258-705-1995-663z" fill="#00f"/><path d="m5329 3338c80-358-113-765-447-927-176-86-359-87-510-20 142-29 303 4 451 107 300 208 440 625 325 948-411 270-662 632-662 1029 0 609 591 1135 1443 1376-716-270-1188-730-1188-1253 0-831 1193-1505 2664-1505 104 0 207 3 308 10-11 28-24 54-40 79-99 157-265 214-431 168 234 104 480 24 591-212 131-279 23-670-241-874-134-103-281-138-412-112 119 3 245 60 354 172 183 188 260 474 203 704-238-46-492-71-755-71-633 0-1211 144-1651 380z" fill="#f00"/><path d="m8497 2019c920 223 1571 773 1571 1417 0 841-1112 1523-2485 1523-737 0-1398-197-1853-509 429 194 969 310 1557 310 1395 0 2526-654 2526-1460 0-553-532-1034-1317-1282z" fill="#f00"/><path d="m9859 6145c736 24 1323-290 1561-934 436-1179-465-3015-2011-4102-660-464-1331-716-1917-761 515 96 1077 337 1633 727 1559 1096 2466 2947 2027 4135-209 565-685 878-1294 934z" fill="#00f"/><path d="m1833 6135c-997-304-1690-953-1813-1845-225-1633 1546-3461 3957-4083 1029-266 2007-269 2809-58-721-117-1551-78-2417 146-2430 628-4216 2471-3989 4116 108 783 652 1380 1454 1723z" fill="#00f"/><path d="m6847 1088c-865-135-1831-132-2673 100-572 158-1201 462-1426 960-27 60-48 122-62 185s-21 127-21 191c-2 533 456 1006 924 1326 65 44 132 87 200 128-442-331-841-788-839-1298 0-67 8-135 22-201 15-66 36-131 65-194 236-523 896-843 1497-1008 841-232 1798-245 2671-125-120-25-239-46-358-65z" fill="#f00"/><path d="m4110 4222c-108 764-753 1351-1533 1351-855 0-1549-706-1549-1577 0-533 260-1004 657-1289-292 275-474 668-474 1104 0 831 661 1504 1477 1504 676 0 1246-462 1422-1093z" fill="#f00"/>
</svg>