<svg xmlns="http://www.w3.org/2000/svg" version="1.1" xmlns:xlink="http://www.w3.org/1999/xlink" xmlns:svgjs="http://svgjs.dev/svgjs" viewBox="0 0 800 800"><defs><linearGradient x1="50%" y1="0%" x2="50%" y2="100%" id="ccchaos-grad"><stop stop-color="hsl(206, 75%, 49%)" stop-opacity="1" offset="0%"></stop><stop stop-color="hsl(331, 90%, 56%)" stop-opacity="1" offset="100%"></stop></linearGradient></defs><g stroke-width="2" stroke="url(#ccchaos-grad)" fill="none" stroke-linecap="round"><path d="M399.02 91.39C410.03 95.36 420.91 98.83 431.63 101.63 442.35 103.07 452.91 103.75 463.29 103.72 473.67 102.53 483.86 100.99 493.85 99.35 503.84 97.29 513.63 95.69 523.18 94.82 532.74 94.41 542.06 95.21 551.13 97.36 560.21 100.55 569.03 105.29 577.57 111.52 586.12 118.92 594.39 127.68 602.36 137.63 610.33 148.44 618 160.1 625.33 172.38 632.66 185.03 639.66 197.94 646.29 210.95 652.92 223.85 659.18 236.6 665.04 249.11 670.88 261.22 676.33 273.01 681.33 284.49 686.31 295.48 690.85 306.22 694.92 316.75 698.96 326.85 702.52 336.89 705.58 346.95 708.62 356.7 711.15 366.62 713.15 376.81 715.13 386.82 716.59 397.21 717.51 408.08 718.42 418.87 718.8 430.22 718.62 442.18 718.46 454.15 717.76 466.47 716.55 479.13 715.37 491.78 713.68 504.72 711.52 517.84 709.39 530.86 706.79 543.92 703.73 556.81 700.7 569.39 697.21 581.53 693.29 592.96 689.38 603.7 685.04 613.36 680.27 621.61 675.51 628.74 670.32 634.08 664.73 637.38 659.13 639.29 653.12 639 646.73 636.47 640.33 632.79 633.55 627.2 626.4 620.03 619.24 612.74 611.73 604.86 603.88 597.08 596.02 590.97 587.83 586.37 579.34 584.1 570.85 585.35 562.05 590.1 552.99 598.77 543.92 611.69 534.58 628.5 525 648.82 515.42 671.87 505.61 696.68 495.59 721.94 485.56 746.31 475.33 768.29 464.92 786.33 454.51 799.49 443.92 806.49 433.18 806.58 422.44 800.29 411.56 787.31 400.55 768.44 389.53 745.85 378.66 720.97 367.95 695.77 357.24 672.18 346.7 651.55 336.34 635.13 325.99 623.95 315.82 618.16 305.87 617.64 295.91 622.48 286.17 631.39 276.67 643.29 267.16 657.88 257.89 673.12 248.88 687.8 239.87 701.86 231.11 713.42 222.64 721.8 214.15 727.41 205.95 729.1 198.06 726.94 190.15 721.59 182.54 712.78 175.27 701.02 167.98 686.91 161.03 670.79 154.42 653.31 147.81 634.72 141.56 615.64 135.69 596.58 129.82 577.41 124.33 558.8 119.27 540.98 114.22 523.58 109.59 507.14 105.43 491.71 101.28 476.8 97.6 462.82 94.41 449.7 91.26 436.98 88.6 424.94 86.48 413.5 84.39 402.26 82.84 391.45 81.84 380.99 80.87 370.61 80.46 360.47 80.62 350.57 80.8 340.67 81.53 331.22 82.8 322.22 84.06 313.22 85.84 304.71 88.11 296.72 90.36 288.78 93.08 281.4 96.26 274.65 99.42 267.96 103.02 261.91 107.05 256.52 111.06 251.13 115.49 246.34 120.33 242.12 125.15 237.74 130.38 233.78 135.99 230.12 141.6 226.03 147.6 222.01 153.98 217.91 160.35 213.05 167.09 207.87 174.19 202.24 181.29 195.6 188.75 188.37 196.53 180.52 204.32 171.69 212.44 162.33 220.86 152.54 229.29 142.18 238.02 131.74 247.02 121.48 256.03 111.36 265.31 101.92 274.84 93.46 284.37 85.88 294.14 79.7 304.13 75.14 314.12 71.86 324.32 70.3 334.7 70.44 345.09 71.67 355.66 74.28 366.39 78.05 377.12 82.08 388 86.64 399.01 91.39" stroke-dasharray="26 75" transform="rotate(0, 400, 400)" opacity="0.57"></path><path d="M399 106.78C409.51 110.91 419.89 114.54 430.13 117.49 440.37 119.13 450.46 119.97 460.37 120.08 470.29 119.01 480.03 117.52 489.57 115.82 499.12 113.6 508.47 111.7 517.61 110.36 526.74 109.32 535.66 109.32 544.33 110.51 553.01 112.6 561.44 116.13 569.61 121.09 577.79 127.15 585.69 134.59 593.3 143.27 600.92 152.88 608.24 163.47 615.25 174.84 622.25 186.75 628.93 199.13 635.25 211.79 641.58 224.57 647.54 237.39 653.13 250.11 658.7 262.66 663.88 274.99 668.64 287.08 673.38 298.85 677.7 310.38 681.57 321.68 685.41 332.65 688.8 343.49 691.71 354.25 694.59 364.76 697 375.3 698.91 385.94 700.79 396.45 702.18 407.16 703.06 418.13 703.93 429.06 704.29 440.32 704.12 451.95 703.97 463.58 703.29 475.31 702.14 487.1 701 498.87 699.39 510.63 697.32 522.27 695.28 533.77 692.78 544.98 689.86 555.72 686.95 566.11 683.61 575.77 679.86 584.47 676.12 592.52 671.97 599.3 667.41 604.6 660.38 610.28 644.37 611.16 635.41 606.39 629.32 602.06 622.85 596.47 616.05 590 609.23 584.03 602.07 578.13 594.6 572.94 587.12 569.77 579.32 568.47 571.24 569.68 563.14 574.23 554.77 582.06 546.13 593.4 537.49 608.28 528.59 626.36 519.46 647.12 510.33 669.78 500.97 693.45 491.41 716.95 481.85 739.12 472.09 758.68 462.16 774.33 452.23 785.4 442.13 790.78 431.88 789.91 421.63 783.36 411.24 770.84 400.73 753.05 390.22 731.93 379.84 708.67 369.61 684.95 359.39 662.46 349.32 642.38 339.43 625.81 329.53 613.74 319.82 606.36 310.31 603.7 300.8 605.94 291.49 612.1 282.41 621.33 273.32 633.48 264.45 646.8 255.84 660.25 247.22 673.82 238.84 685.75 230.73 695.34 222.62 702.97 214.77 707.38 207.22 708.46 199.65 706.83 192.38 701.96 185.42 694.17 178.45 684.08 171.79 671.72 165.48 657.64 159.16 642.16 153.18 625.7 147.58 608.75 141.97 591.28 136.74 573.87 131.91 556.83 127.09 539.85 122.68 523.5 118.72 507.91 114.77 492.62 111.26 478.12 108.24 464.45 105.23 451.06 102.71 438.4 100.69 426.44 98.71 414.66 97.23 403.45 96.28 392.78 95.36 382.19 94.96 372.04 95.12 362.34 95.29 352.64 95.99 343.56 97.2 335.1 98.41 326.62 100.11 318.75 102.27 311.49 104.43 304.2 107.04 297.54 110.08 291.5 113.1 285.41 116.56 279.92 120.42 274.99 124.26 269.93 128.5 265.35 133.13 261.18 137.75 256.7 142.75 252.46 148.13 248.35 153.49 243.68 159.22 238.93 165.31 233.96 171.4 228.18 177.84 221.99 184.61 215.31 191.38 207.7 198.49 199.53 205.91 190.81 213.34 181.29 221.08 171.36 229.11 161.16 237.14 150.62 245.46 140.17 254.04 130.06 262.62 120.27 271.47 111.3 280.55 103.39 289.63 96.45 298.95 90.95 308.47 87.05 317.99 84.43 327.72 83.46 337.63 84.13 347.53 85.8 357.62 88.78 367.85 92.84 378.09 97.12 388.47 101.87 398.99 106.78" stroke-dasharray="7 129" transform="rotate(4.428571428571428, 400, 400)" opacity="0.16"></path><path d="M399.03 122.17C409.04 126.44 418.93 130.21 428.69 133.31 438.44 135.13 448.05 136.17 457.5 136.47 466.95 135.58 476.24 134.21 485.34 132.54 494.45 130.26 503.37 128.16 512.07 126.47 520.79 124.91 529.29 124.22 537.56 124.55 545.84 125.62 553.88 127.98 561.67 131.67 569.46 136.36 577 142.4 584.26 149.68 591.52 157.91 598.49 167.21 605.16 177.39 611.83 188.24 618.19 199.72 624.21 211.64 630.22 223.88 635.89 236.33 641.2 248.84 646.49 261.38 651.41 273.85 655.93 286.16 660.43 298.33 664.53 310.3 668.2 322.05 671.85 333.62 675.07 345 677.83 356.23 680.57 367.29 682.85 378.28 684.66 389.22 686.45 400.06 687.78 410.94 688.61 421.88 689.44 432.8 689.78 443.83 689.62 454.96 689.47 466.1 688.83 477.08 687.73 487.84 686.65 498.57 685.1 509.01 683.13 519.06 681.17 528.94 678.79 538.27 675.99 546.9 673.21 555.17 670.02 562.53 666.44 568.8 660.88 576.7 647.86 584.49 640.41 584.05 635.33 582.64 629.88 579.86 624.08 575.88 618.28 571.84 612.14 567.14 605.67 562.17 599.19 558.16 592.39 554.73 585.29 552.45 578.18 552.34 570.77 554.27 563.08 558.7 555.39 566.18 547.43 576.59 539.22 589.99 531.01 606.26 522.55 625.01 513.87 645.7 505.18 667.56 496.28 689.79 487.19 711.34 478.1 731.25 468.81 748.43 459.36 761.81 449.91 770.93 440.29 774.85 430.53 773.14 420.78 766.42 410.88 754.39 400.87 737.66 390.86 717.97 380.97 696.28 371.23 674.04 361.49 652.71 351.89 633.28 342.47 616.75 333.04 604.02 323.78 595.33 314.71 590.8 305.65 590.69 296.77 594.26 288.1 600.86 279.43 610.45 270.98 621.6 262.76 633.4 254.53 645.91 246.54 657.53 238.8 667.58 231.05 676.42 223.56 682.74 216.35 686.32 209.13 687.76 202.19 686.3 195.54 682.11 188.89 675.83 182.55 667.21 176.53 656.67 170.5 644.63 164.8 631.27 159.46 616.99 154.13 601.94 149.15 586.51 144.56 571.02 139.97 555.3 135.78 539.86 132.01 524.87 128.26 509.96 124.94 495.64 122.06 481.99 119.21 468.5 116.82 455.68 114.91 443.55 113.02 431.55 111.62 420.17 110.72 409.41 109.85 398.72 109.47 388.58 109.62 379 109.78 369.42 110.45 360.57 111.6 352.42 112.75 344.23 114.37 336.71 116.44 329.83 118.49 322.88 120.99 316.54 123.9 310.78 126.79 304.89 130.09 299.51 133.78 294.6 137.45 289.45 141.5 284.64 145.93 280.09 150.34 275.13 155.12 270.26 160.25 265.38 165.37 259.88 170.84 254.18 176.64 248.17 182.44 241.38 188.58 234.16 195.03 226.45 201.48 217.93 208.25 208.93 215.32 199.49 222.38 189.44 229.75 179.15 237.38 168.76 245.02 158.24 252.93 147.98 261.09 138.21 269.26 128.93 277.67 120.56 286.3 113.33 294.94 107.13 303.8 102.37 312.86 99.19 321.92 97.24 331.18 96.86 340.61 98.04 350.03 100.14 359.63 103.45 369.38 107.76 379.12 112.24 389.01 117.13 399.02 122.16" stroke-dasharray="98 128" transform="rotate(8.857142857142856, 400, 400)" opacity="0.48"></path><path d="M399.12 137.55C408.63 141.93 418.03 145.82 427.3 149.06 436.57 151.08 445.71 152.34 454.69 152.85 463.67 152.19 472.51 151 481.16 149.46 489.82 147.22 498.3 145.03 506.58 143.12 514.87 141.17 522.95 139.92 530.82 139.52 538.69 139.67 546.34 140.96 553.75 143.43 561.16 146.79 568.32 151.42 575.22 157.24 582.12 163.98 588.74 171.81 595.08 180.59 601.41 190.12 607.44 200.38 613.15 211.22 618.85 222.53 624.23 234.19 629.26 246.07 634.28 258.16 638.94 270.3 643.22 282.39 647.48 294.51 651.36 306.51 654.83 318.33 658.28 330.09 661.33 341.67 663.94 353.05 666.54 364.36 668.7 375.51 670.41 386.5 672.12 397.45 673.37 408.28 674.16 419 674.95 429.71 675.27 440.33 675.12 450.83 674.98 461.33 674.37 471.44 673.32 481.1 672.29 490.72 670.82 499.82 668.93 508.32 667.07 516.65 664.79 524.25 662.12 530.99 657.96 540.15 647.73 552.4 641.7 555.12 635.33 555.91 620.83 551.24 612.74 546.6 607.24 543.64 601.41 540.53 595.27 537.64 589.13 535.99 582.68 535.3 575.94 536 569.2 538.87 562.18 543.77 554.89 551.03 547.6 560.93 540.06 573.35 532.27 588.22 524.48 605.28 516.46 624.16 508.23 644.3 499.99 665 491.55 685.55 482.92 705.02 474.29 722.66 465.47 737.54 456.5 748.77 447.53 756.09 438.4 758.71 429.13 756.29 419.87 749.47 410.47 737.95 400.96 722.28 391.45 703.97 382.06 683.81 372.8 663.03 363.54 642.89 354.42 624.22 345.46 607.9 336.49 594.75 327.69 585.03 319.07 578.91 310.44 576.71 301.99 577.88 293.75 581.96 285.5 589 277.46 597.81 269.63 607.67 261.8 618.68 254.19 629.41 246.82 639.23 239.45 648.5 232.32 655.93 225.46 661.24 218.58 664.97 211.98 666.25 205.65 665.11 199.33 662.19 193.29 657.04 187.57 649.92 181.84 641.35 176.43 631.24 171.35 619.96 166.29 607.75 161.56 594.82 157.21 581.47 152.86 567.68 148.89 553.82 145.32 540.09 141.76 526.26 138.61 512.75 135.9 499.7 133.2 486.69 130.93 474.2 129.13 462.29 127.34 450.46 126.01 439.2 125.16 428.54 124.33 417.93 123.98 407.87 124.12 398.4 124.27 388.92 124.91 380.18 126 372.16 127.09 364.08 128.64 356.67 130.6 349.86 132.56 342.95 134.94 336.6 137.71 330.74 140.46 324.7 143.61 319.08 147.13 313.79 150.62 308.21 154.49 302.84 158.71 297.59 162.92 291.88 167.47 286.15 172.36 280.3 177.23 273.83 182.44 267.1 187.97 260.02 193.48 252.24 199.32 244.05 205.45 235.43 211.59 226.16 218.02 216.52 224.73 206.57 231.44 196.24 238.43 185.81 245.67 175.47 252.92 165.19 260.43 155.32 268.18 146.09 275.92 137.46 283.91 129.83 292.1 123.4 300.3 118.01 308.71 114.04 317.3 111.6 325.9 110.32 334.69 110.54 343.64 112.2 352.59 114.69 361.7 118.29 370.95 122.8 380.21 127.43 389.6 132.44 399.11 137.55" stroke-dasharray="56 93" transform="rotate(13.285714285714285, 400, 400)" opacity="0.74"></path><path d="M399.26 152.94C408.27 157.39 417.18 161.38 425.96 164.75 434.74 166.97 443.41 168.45 451.92 169.2 460.44 168.81 468.81 167.87 477.02 166.52 485.22 164.42 493.27 162.26 501.12 160.24 508.98 158.05 516.65 156.38 524.1 155.39 531.57 154.78 538.82 155.12 545.84 156.51 552.86 158.61 559.65 161.87 566.18 166.25 572.71 171.47 578.99 177.76 584.98 185.01 590.97 193.02 596.68 201.84 602.08 211.33 607.47 221.37 612.56 231.89 617.31 242.76 622.04 253.95 626.45 265.33 630.49 276.79 634.51 288.4 638.17 299.98 641.45 311.45 644.71 322.97 647.58 334.34 650.05 345.51 652.5 356.69 654.55 367.67 656.17 378.42 657.78 389.17 658.96 399.71 659.71 409.99 660.45 420.29 660.76 430.34 660.62 440.09 660.49 449.83 659.91 459.02 658.91 467.6 657.93 476.13 656.53 483.98 654.74 491.1 651.89 501.16 644.3 516.49 639.61 521.48 634.58 525.01 622.81 526.58 616.1 524.99 609.07 522.92 593.43 518.24 584.86 517.23 579.05 518.12 572.95 520.18 566.58 523.74 560.2 529.31 553.56 536.8 546.67 546.37 539.78 558.14 532.64 571.96 525.28 587.68 517.91 604.97 510.32 623.48 502.53 642.67 494.74 661.92 486.76 680.6 478.59 697.92 470.42 713.32 462.08 725.98 453.59 735.22 445.1 740.91 436.45 742.37 427.68 739.36 418.91 732.51 410 721.54 400.99 706.89 391.99 689.92 383.08 671.25 374.31 651.92 365.53 632.99 356.89 615.17 348.39 599.22 339.89 585.87 331.54 575.38 323.37 567.97 315.18 563.96 307.17 562.98 299.35 564.71 291.52 569.26 283.89 575.7 276.46 583.42 269.03 592.58 261.81 601.96 254.82 610.98 247.82 619.99 241.05 627.78 234.54 634.03 228.02 639.26 221.75 642.52 215.75 643.76 209.75 643.59 204.03 641.4 198.6 637.35 193.18 632 188.05 625.06 183.25 616.8 178.45 607.58 173.98 597.4 169.86 586.53 165.75 575.1 162 563.29 158.63 551.32 155.27 539.11 152.3 526.95 149.73 514.99 147.19 502.97 145.05 491.26 143.35 479.96 141.66 468.69 140.41 457.85 139.61 447.5 138.82 437.18 138.49 427.33 138.62 417.99 138.76 408.65 139.37 399.99 140.4 391.97 141.44 383.9 142.9 376.4 144.77 369.44 146.63 362.36 148.88 355.74 151.51 349.51 154.13 343.08 157.12 336.94 160.47 331.02 163.79 324.78 167.47 318.64 171.48 312.51 175.48 305.93 179.81 299.24 184.45 292.36 189.08 284.92 194.03 277.2 199.28 269.14 204.51 260.51 210.05 251.53 215.87 242.2 221.68 232.41 227.78 222.38 234.14 212.19 240.49 201.83 247.11 191.53 253.98 181.47 260.84 171.66 267.95 162.39 275.28 153.86 282.62 146.04 290.17 139.26 297.93 133.7 305.69 129.17 313.65 126.03 321.79 124.34 329.92 123.72 338.24 124.5 346.71 126.61 355.19 129.45 363.82 133.3 372.58 137.97 381.34 142.71 390.24 147.78 399.25 152.94" stroke-dasharray="49 84" transform="rotate(17.71428571428571, 400, 400)" opacity="0.66"></path><path d="M399.44 168.33C407.95 172.82 416.37 176.88 424.66 180.37 432.96 182.77 441.14 184.48 449.19 185.49 457.24 185.41 465.15 184.76 472.91 183.67 480.66 181.8 488.26 179.78 495.68 177.78 503.11 175.49 510.35 173.56 517.4 172.14 524.45 170.93 531.3 170.5 537.93 170.94 544.56 171.94 550.97 173.95 557.14 176.97 563.3 180.71 569.22 185.46 574.87 191.15 580.52 197.55 585.9 204.79 590.99 212.74 596.08 221.28 600.86 230.39 605.34 239.93 609.8 249.89 613.94 260.14 617.74 270.57 621.53 281.25 624.98 292 628.06 302.72 631.13 313.58 633.83 324.34 636.16 334.94 638.46 345.61 640.39 356.08 641.92 366.29 643.43 376.54 644.55 386.53 645.26 396.18 645.96 405.87 646.26 415.2 646.12 424.13 645.99 433.06 645.45 441.33 644.5 448.91 643.57 456.45 642.25 463.24 640.55 469.26 637.84 477.71 630.65 490.11 626.21 493.98 621.44 496.81 610.3 498.6 603.95 498.12 597.3 497.87 582.53 498.87 574.44 501.49 568.96 504.88 563.2 509.51 557.19 515.6 551.18 523.46 544.91 533.01 538.42 544.33 531.92 557.35 525.18 571.97 518.24 587.96 511.3 604.97 504.14 622.67 496.8 640.57 489.45 658.14 481.91 674.83 474.21 689.99 466.51 703.2 458.64 713.78 450.63 721.17 442.61 725.39 434.45 725.84 426.17 722.35 417.88 715.55 409.48 705.14 400.97 691.5 392.46 675.83 384.05 658.61 375.76 640.69 367.47 623.01 359.3 606.11 351.27 590.67 343.24 577.32 335.35 566.32 327.61 557.9 319.88 552.39 312.3 549.53 304.9 549.13 297.5 551.34 290.28 555.43 283.25 560.95 276.22 568.06 269.39 575.73 262.78 583.49 256.16 591.66 249.76 599.15 243.6 605.62 237.43 611.56 231.51 616.03 225.84 618.89 217.47 620.83 202.1 614.73 195.15 607.21 190.62 600.87 186.41 593.43 182.53 585.12 178.66 576.22 175.12 566.71 171.95 556.78 168.79 546.53 165.99 536.08 163.58 525.57 161.18 514.93 159.17 504.38 157.57 494.02 155.98 483.63 154.8 473.49 154.05 463.67 153.31 453.86 152.99 444.38 153.12 435.25 153.26 426.13 153.82 417.55 154.8 409.49 155.78 401.38 157.16 393.72 158.93 386.48 160.69 379.12 162.82 372.09 165.32 365.33 167.8 358.38 170.63 351.6 173.8 344.92 176.95 337.94 180.44 330.97 184.24 323.92 188.03 316.48 192.13 308.87 196.53 301.05 200.92 292.78 205.6 284.23 210.57 275.39 215.53 266.13 220.77 256.61 226.27 246.85 231.77 236.83 237.53 226.7 243.54 216.57 249.55 206.45 255.8 196.54 262.29 187.02 268.77 177.88 275.48 169.39 282.41 161.73 289.33 154.83 296.46 148.99 303.78 144.35 311.1 140.72 318.62 138.4 326.3 137.45 333.98 137.47 341.83 138.78 349.83 141.29 357.83 144.43 365.98 148.48 374.25 153.26 382.52 158.06 390.93 163.16 399.43 168.32" stroke-dasharray="15 53" transform="rotate(22.142857142857142, 400, 400)" opacity="0.63"></path><path d="M399.66 183.72C407.67 188.22 415.59 192.33 423.4 195.9 431.21 198.48 438.91 200.41 446.49 201.69 454.07 201.93 461.52 201.62 468.82 200.85 476.12 199.27 483.27 197.49 490.26 195.63 497.25 193.37 504.07 191.35 510.7 189.68 517.34 188.05 523.78 187.04 530.02 186.73 536.26 186.8 542.29 187.73 548.08 189.54 553.88 191.93 559.44 195.24 564.75 199.42 570.06 204.22 575.11 209.84 579.89 216.19 584.66 223.1 589.16 230.63 593.35 238.66 597.54 247.12 601.42 255.97 604.99 265.09 608.54 274.51 611.77 284.09 614.66 293.73 617.54 303.56 620.08 313.36 622.26 323.06 624.43 332.88 626.23 342.53 627.67 351.95 629.09 361.43 630.15 370.64 630.81 379.51 631.47 388.42 631.75 396.95 631.62 405.04 631.5 413.13 630.99 420.55 630.09 427.29 628.59 436.97 623.81 452.57 620.57 458.44 612.66 466.81 597.8 473.88 591.81 475.26 585.55 477.39 571.63 484.53 564.02 490.63 558.86 496.28 553.44 503.11 547.79 511.29 542.14 520.91 536.25 531.95 530.14 544.39 524.03 558.08 517.7 572.91 511.18 588.64 504.65 604.91 497.92 621.44 491.02 637.78 484.11 653.51 477.03 668.15 469.79 681.17 462.55 692.28 455.15 700.92 447.61 706.64 440.07 709.56 432.39 709.15 424.6 705.29 416.81 698.6 408.9 688.77 400.89 676.12 392.88 661.7 384.96 645.87 377.16 629.35 369.35 612.92 361.66 597.02 354.09 582.2 346.53 569.05 339.09 557.78 331.81 548.62 324.52 541.91 317.38 537.47 310.41 535.21 303.43 535.29 296.63 537.16 290 540.49 283.38 545.46 276.94 551.23 270.71 557.4 264.48 564.27 258.45 570.9 252.64 576.96 246.83 582.91 241.25 587.85 235.92 591.6 228.04 595.6 213.58 595.49 207.05 591.5 202.8 587.68 198.84 582.74 195.2 576.84 191.57 570.38 188.25 563.17 185.28 555.35 182.31 547.2 179.69 538.62 177.43 529.77 175.18 520.75 173.29 511.58 171.79 502.38 170.3 493.12 169.2 483.91 168.49 474.8 167.8 465.69 167.5 456.73 167.62 447.93 167.75 439.14 168.28 430.71 169.2 422.63 170.12 414.52 171.43 406.7 173.09 399.15 174.75 391.51 176.76 384.06 179.11 376.75 181.46 369.28 184.13 361.86 187.12 354.45 190.1 346.8 193.39 339.07 196.98 331.22 200.56 323.06 204.43 314.71 208.59 306.16 212.73 297.28 217.15 288.17 221.84 278.84 226.52 269.26 231.46 259.51 236.65 249.65 241.83 239.71 247.26 229.79 252.93 220.02 258.59 210.42 264.48 201.16 270.59 192.4 276.69 184.12 283.01 176.57 289.53 169.89 296.04 163.99 302.75 159.14 309.64 155.47 316.53 152.73 323.6 151.22 330.83 150.98 338.06 151.6 345.44 153.38 352.97 156.24 360.5 159.63 368.16 163.83 375.95 168.67 383.73 173.5 391.64 178.57 399.65 183.71" stroke-dasharray="21 34" transform="rotate(26.57142857142857, 400, 400)" opacity="0.73"></path><path d="M399.9 199.1C407.4 203.59 414.83 207.71 422.15 211.36 429.48 214.09 436.7 216.24 443.8 217.78 450.91 218.36 457.89 218.4 464.74 217.99 471.58 216.78 478.29 215.31 484.84 213.69 491.39 211.61 497.78 209.64 504 207.89 510.21 206.04 516.25 204.65 522.1 203.8 530.76 203.2 547.04 206.27 554.61 210.09 559.57 213.41 564.3 217.49 568.77 222.27 573.23 227.54 577.43 233.44 581.35 239.88 585.26 246.74 588.89 254.03 592.22 261.66 595.54 269.6 598.56 277.78 601.26 286.11 603.95 294.65 606.32 303.24 608.36 311.81 610.38 320.51 612.08 329.11 613.42 337.54 614.75 346.04 615.74 354.32 616.36 362.31 616.98 370.33 617.24 378.01 617.12 385.29 617.01 392.57 616.52 399.25 615.69 405.31 614.27 414.05 609.77 428.37 606.72 434 603.38 439.09 595.2 447.07 590.39 450.36 585.31 453.96 573.8 462.33 567.39 467.9 563.04 472.64 558.44 478.15 553.6 484.55 548.76 492.05 543.68 500.61 538.38 510.31 533.09 521.12 527.57 533.05 521.85 546 516.12 559.78 510.2 574.3 504.08 589.3 497.97 604.46 491.67 619.53 485.2 634.12 478.74 647.91 472.1 660.5 465.32 671.44 458.54 680.58 451.6 687.43 444.54 691.65 437.48 693.43 430.29 692.29 422.98 688.17 415.68 681.65 408.26 672.41 400.76 660.73 393.25 647.53 385.83 633.05 378.51 617.9 371.19 602.72 363.97 587.86 356.87 573.79 349.77 561 342.8 549.68 335.96 540.06 329.12 532.44 322.42 526.73 315.88 522.89 309.34 521.1 302.95 520.95 296.73 522.21 290.52 525.06 284.48 528.83 278.63 533.21 272.78 538.48 267.13 543.83 261.68 548.98 256.24 554.34 251 559.09 246 563.03 238.62 568.02 225.08 571.82 218.97 570.49 213.14 567.23 202.94 555.11 198.61 546.71 195.84 540.56 193.39 533.84 191.28 526.67 189.18 519.32 187.42 511.63 186.02 503.71 184.63 495.71 183.59 487.56 182.93 479.31 182.28 471.04 182.01 462.72 182.12 454.38 182.24 446.03 182.74 437.86 183.6 429.86 184.47 421.84 185.69 413.96 187.25 406.19 188.81 398.35 190.7 390.57 192.91 382.82 195.11 374.95 197.63 367.04 200.44 359.07 203.24 350.92 206.34 342.64 209.71 334.22 213.08 325.59 216.72 316.78 220.63 307.8 224.53 298.63 228.69 289.29 233.09 279.82 237.49 270.25 242.14 260.63 247.01 251.02 251.88 241.47 256.98 232.08 262.3 222.95 267.62 214.11 273.15 205.72 278.88 197.91 284.6 190.65 290.53 184.15 296.64 178.54 302.75 173.69 309.05 169.86 315.51 167.15 321.97 165.28 328.6 164.55 335.37 164.96 342.15 166.13 349.07 168.32 356.13 171.47 363.18 175.06 370.37 179.35 377.67 184.2 384.97 189 392.38 194.03 399.89 199.1" stroke-dasharray="133 22" transform="rotate(31, 400, 400)" opacity="0.47"></path><path d="M400.14 214.49C407.14 218.93 414.07 223.04 420.91 226.72 427.74 229.59 434.49 231.93 441.11 233.73 447.74 234.64 454.26 235.06 460.65 235.02 467.04 234.23 473.3 233.15 479.41 231.86 485.52 230.07 491.48 228.29 497.28 226.62 505.89 223.96 522.23 220.62 529.91 220.38 537.39 221.16 551.26 226.67 557.62 231.37 561.77 235.12 565.68 239.47 569.32 244.36 572.96 249.61 576.34 255.33 579.44 261.43 582.52 267.81 585.33 274.5 587.85 281.4 590.35 288.51 592.56 295.75 594.45 303.05 596.34 310.49 597.92 317.91 599.16 325.24 600.41 332.65 601.33 339.92 601.91 346.98 602.49 354.07 602.73 360.91 602.62 367.45 602.29 377.02 599.96 393.73 598 400.88 595.74 407.6 589.75 419.11 586.05 424.18 582.09 429.32 572.83 439.9 567.56 445.89 563.98 450.53 560.14 455.62 556.07 461.28 552 467.7 547.7 474.85 543.18 482.83 538.66 491.66 533.92 501.39 528.97 512.01 524.03 523.42 518.88 535.63 513.54 548.53 508.2 561.89 502.67 575.63 496.97 589.52 491.27 603.27 485.39 616.69 479.36 629.41 473.33 641.24 467.14 651.81 460.82 660.77 454.49 668.09 448.02 673.32 441.43 676.22 434.85 677.01 428.14 675.29 421.32 671 414.51 664.7 407.59 656.07 400.58 645.34 393.57 633.31 386.64 620.14 379.81 606.32 372.98 592.4 366.24 578.62 359.61 565.38 352.98 553.1 346.47 541.94 340.08 532.11 333.7 523.88 327.44 517.21 321.33 512.1 312.23 507.77 294.82 507.94 286.54 511.37 281.08 514.87 275.8 518.67 270.72 522.55 263.2 528.87 249.21 539.42 242.78 542.89 231.03 544.74 215.98 537.17 211.96 531.33 209.38 526.92 207.1 521.86 205.14 516.25 203.18 510.46 201.55 504.21 200.24 497.56 198.95 490.83 197.99 483.78 197.38 476.46 196.77 469.11 196.52 461.53 196.62 453.76 196.73 445.98 197.2 438.19 198.01 430.41 198.81 422.62 199.95 414.81 201.41 406.99 202.87 399.13 204.64 391.21 206.7 383.23 208.76 375.17 211.12 367.01 213.75 358.73 216.37 350.35 219.28 341.83 222.44 333.16 225.59 324.39 229 315.47 232.66 306.42 236.31 297.31 240.2 288.12 244.33 278.88 248.44 269.68 252.79 260.52 257.35 251.48 261.91 242.64 266.68 234.04 271.66 225.81 276.62 217.95 281.79 210.6 287.15 203.89 292.5 197.74 298.04 192.37 303.75 187.87 309.46 184.09 315.34 181.27 321.37 179.48 327.4 178.44 333.59 178.43 339.91 179.43 346.24 181.07 352.7 183.61 359.28 186.99 365.87 190.71 372.58 195.04 379.39 199.85 386.2 204.59 393.12 209.51 400.13 214.49" stroke-dasharray="56 52" transform="rotate(35.42857142857142, 400, 400)" opacity="0.48"></path><path d="M400.37 229.88C406.88 234.23 413.31 238.29 419.66 241.99 426 244.96 432.26 247.48 438.42 249.51 444.57 250.74 450.62 251.53 456.55 251.89 465.38 251.21 482.39 247.86 490.53 245.68 498.52 243.18 513.66 239.33 520.79 238.39 527.72 238.13 540.56 240.74 546.45 243.67 552.1 247.6 562.21 258.48 566.64 265.25 569.5 270.13 572.1 275.35 574.43 280.85 576.74 286.52 578.79 292.4 580.54 298.42 582.29 304.56 583.75 310.77 584.91 316.99 586.07 323.28 586.92 329.54 587.46 335.7 588.11 344.92 587.81 362.52 586.87 370.55 585.64 378.27 581.71 392.29 579.05 398.74 576.13 405.18 568.99 417.99 564.79 424.73 561.92 429.62 558.8 434.77 555.46 440.28 552.12 446.28 548.55 452.77 544.76 459.82 540.98 467.47 536.98 475.78 532.77 484.77 528.57 494.38 524.16 504.68 519.57 515.62 514.97 527.06 510.19 539.01 505.23 551.34 500.27 563.84 495.14 576.45 489.85 588.92 484.55 601.07 479.1 612.69 473.5 623.51 467.9 633.39 462.16 642.03 456.29 649.16 450.41 654.81 444.41 658.61 438.3 660.36 432.18 660.34 425.95 658.15 419.63 653.79 413.3 647.76 406.88 639.76 400.37 629.95 393.86 619.05 387.43 607.14 381.08 594.62 374.73 581.94 368.47 569.27 362.32 556.94 356.16 545.31 350.11 534.49 344.18 524.68 338.25 516.12 332.43 508.79 326.76 502.73 318.31 496.41 302.14 491.5 294.45 492.22 286.93 494.97 272.78 502.85 266.19 507.03 253.96 514.06 237.82 518.2 233.29 516.8 229.03 514.32 221.87 505.49 219 499.33 216.44 492.39 212.83 475.86 211.82 466.47 211.26 460.05 211.02 453.27 211.12 446.15 211.22 439.03 211.66 431.75 212.41 424.34 213.16 416.94 214.22 409.4 215.57 401.74 216.92 394.07 218.57 386.26 220.49 378.32 222.41 370.35 224.6 362.23 227.05 353.99 229.5 345.7 232.2 337.27 235.14 328.73 238.08 320.17 241.26 311.51 244.67 302.79 248.07 294.1 251.7 285.4 255.54 276.76 259.37 268.24 263.42 259.86 267.67 251.7 271.91 243.8 276.35 236.23 280.98 229.09 285.6 222.36 290.41 216.19 295.39 210.65 300.37 205.69 305.52 201.47 310.83 198.07 318.87 194.41 335.68 192.58 344.43 194.42 350.31 196.45 356.31 199.26 362.43 202.8 368.55 206.59 374.78 210.9 381.1 215.62 387.43 220.25 393.85 225.04 400.36 229.87" stroke-dasharray="3 26" transform="rotate(39.857142857142854, 400, 400)" opacity="0.78"></path><path d="M400.58 245.27C406.59 249.5 412.52 253.49 418.38 257.16 424.24 260.2 430.01 262.86 435.69 265.1 447.05 267.44 458.02 268.3 468.47 267.99 478.93 265.62 488.87 263.07 498.18 260.9 507.47 258.13 516.13 256.69 524.02 256.88 531.9 257.54 539.01 260.18 545.22 264.7 551.41 269.98 556.71 276.96 561 285.27 565.26 294.13 568.52 303.92 570.66 314.26 572.12 322.16 573.61 338.2 573.62 346.23 573.34 354.17 571.33 369.31 569.64 376.57 567.23 386.3 563.75 395.87 559.32 405.62 554.92 416.15 549.57 427.6 543.37 440.38 537.19 454.72 530.16 471.05 522.38 489.45 514.61 509.45 506.09 531.18 496.93 553.82 487.77 576.26 477.97 597.65 467.63 616.3 457.3 631.33 446.43 641.06 435.14 644.11 429.5 643.42 423.75 640.9 417.91 636.55 412.07 630.84 406.14 623.47 400.14 614.57 394.13 604.75 388.19 594.05 382.33 582.78 376.47 571.33 370.69 559.79 365.01 548.43 353.64 527.35 342.66 509.1 332.18 494.64 321.7 484.72 311.72 478.7 302.36 475.94 293.01 476.73 284.28 479.09 276.31 481.87 268.34 485.96 261.13 488.92 254.8 490.06 248.5 491.05 243.08 489.63 238.67 485.71 234.29 481.32 230.93 474.56 228.71 465.61 227.2 458.52 225.64 441.94 225.62 432.54 225.72 426.13 226.12 419.47 226.81 412.6 227.5 405.73 228.48 398.65 229.73 391.39 232.23 376.89 235.81 361.64 240.35 345.88 244.87 330.19 250.34 314.07 256.66 297.89 262.95 282.14 270.08 266.77 277.95 252.35 285.8 239.16 294.39 227.66 303.61 218.52 312.81 211.45 322.65 207.3 333.01 206.43 343.37 207.68 354.26 211.93 365.55 218.89 371.2 222.68 376.95 226.92 382.79 231.51 388.63 235.98 394.56 240.6 400.57 245.26" stroke-dasharray="126 82" transform="rotate(44.285714285714285, 400, 400)" opacity="0.80"></path><path d="M400.76 260.65C411.77 268.34 422.53 275.06 432.93 280.47 443.34 283.43 453.38 285.1 462.96 285.69 472.53 284.32 481.62 282.6 490.14 281 498.64 278.54 506.56 276.98 513.77 276.61 520.97 276.31 527.47 277.59 533.14 280.49 538.81 283.8 543.65 288.69 547.57 294.95 551.47 301.54 554.45 309.25 556.41 317.82 558.36 326.5 559.3 335.82 559.12 345.6 558.96 355.39 557.7 365.2 555.46 375.07 553.24 385.12 550.04 395.57 545.97 406.62 541.92 418.32 537 431.16 531.3 445.31 525.61 460.57 519.15 477.46 512.01 495.82 504.87 515.01 497.05 535.14 488.64 555.36 480.24 574.8 471.25 592.7 461.77 607.7 452.3 619.38 442.33 626.3 431.98 627.5 421.64 623.9 410.91 614.32 399.9 599.18 388.88 581.05 378.12 560.65 367.7 539.82 357.28 520.21 347.21 502.54 337.61 487.67 328 476.29 318.86 468.04 310.29 462.62 301.73 460.29 293.74 459.65 286.44 459.87 275.86 462.29 258.54 463.19 252.04 459.43 248.04 456.08 244.97 450.66 242.94 443.19 240.93 435.57 239.96 426.04 240.12 414.7 240.3 403.36 241.59 390.87 243.89 377.54 246.18 364.3 249.47 350.31 253.64 335.86 257.79 321.65 262.82 307.19 268.63 292.88 274.41 279.19 280.98 266.1 288.21 254.14 295.42 243.44 303.32 234.47 311.78 227.75 320.24 222.85 329.28 220.58 338.79 221.15 348.29 223.4 358.28 228.2 368.64 235.26 379 242.76 389.74 251.44 400.75 260.65" stroke-dasharray="82 10" transform="rotate(48.714285714285715, 400, 400)" opacity="0.59"></path><path d="M400.89 276.04C410.9 283.42 420.68 290.04 430.13 295.59 439.58 299.09 448.71 301.49 457.4 302.95 466.09 302.63 474.34 301.88 482.06 301.06 489.78 299.26 496.96 298 503.5 297.59 512.97 297.22 528.38 303.11 534.13 309.55 537.67 314.43 540.38 320.52 542.15 327.67 543.93 334.87 544.78 343.01 544.62 352.04 544.47 361.07 543.33 370.62 541.28 380.64 539.26 390.84 536.34 401.79 532.63 413.56 528.94 425.82 524.44 439.23 519.24 453.78 514.06 469 508.17 485.42 501.66 502.73 495.16 520.27 488.03 538.11 480.38 555.44 472.73 571.66 464.55 586.09 455.93 597.67 447.31 606.33 438.25 610.85 428.84 610.55 419.43 606.43 409.67 597.4 399.66 583.79 389.65 567.76 379.86 549.71 370.39 531.06 360.92 513.12 351.77 496.39 343.04 481.65 334.32 469.45 326.02 459.67 318.24 452.19 310.46 447.26 303.21 443.96 296.59 441.7 287 440.66 271.3 437.82 265.42 433.87 261.8 430.79 259.02 426.07 257.18 419.62 255.35 413.09 254.47 404.86 254.62 394.95 254.78 385.04 255.96 374.04 258.04 362.25 260.13 350.59 263.12 338.27 266.92 325.66 270.7 313.36 275.29 300.99 280.58 288.99 285.86 277.66 291.84 267.08 298.43 257.73 305.01 249.54 312.21 243.02 319.92 238.58 327.62 235.63 335.85 234.97 344.51 236.74 353.17 239.77 362.26 244.9 371.69 251.9 381.11 259.13 390.88 267.35 400.89 276.04" stroke-dasharray="117 58" transform="rotate(53.14285714285714, 400, 400)" opacity="0.50"></path><path d="M400.97 291.43C409.98 298.43 418.78 304.86 427.28 310.46 435.78 314.37 443.98 317.42 451.79 319.67 459.6 320.37 467.01 320.64 473.95 320.73 480.87 319.82 487.32 319.21 493.19 319.16 501.69 318.88 515.53 323.19 520.69 328.21 523.87 331.97 526.3 336.92 527.9 343.03 529.5 349.13 530.26 356.36 530.12 364.72 529.99 373.08 528.95 382.25 527.11 392.15 525.28 402.18 522.65 413.13 519.3 424.94 515.96 437.06 511.9 450.19 507.21 464.2 502.53 478.51 497.21 493.59 491.33 509.04 485.47 524.32 479.04 539.41 472.14 553.62 465.25 566.59 457.87 577.72 450.11 586.2 442.34 592.22 434.18 594.75 425.71 593.3 417.24 588.88 408.45 580.5 399.44 568.4 390.43 554.39 381.63 538.61 373.11 522.14 364.59 506.01 356.36 490.53 348.51 476.37 340.67 463.98 333.2 453.34 326.21 444.48 319.23 437.6 312.72 432.14 306.78 427.74 298.16 423.38 284.08 416.02 278.81 411.18 275.56 407.82 273.06 403.29 271.41 397.47 269.78 391.62 268.99 384.42 269.12 375.86 269.26 367.29 270.32 357.85 272.2 347.81 274.08 337.89 276.77 327.52 280.2 317.04 283.61 306.89 287.75 296.88 292.52 287.37 297.28 278.5 302.68 270.47 308.63 263.67 314.57 257.86 321.06 253.59 328.02 251.15 334.97 249.88 342.39 250.54 350.19 253.2 358 256.76 366.19 262.03 374.68 268.81 383.17 275.65 391.96 283.32 400.97 291.43" stroke-dasharray="40 124" transform="rotate(57.57142857142858, 400, 400)" opacity="0.57"></path><path d="M400.99 306.82C409 313.36 416.82 319.51 424.37 325.05 431.92 329.24 439.2 332.79 446.13 335.71 453.06 337.33 459.64 338.58 465.79 339.61 474.79 339.83 490.39 340.96 496.82 342.82 502.66 345.2 511.14 354.88 513.64 362.41 515.06 367.76 515.75 374.27 515.62 381.98 515.5 389.7 514.58 398.32 512.94 407.74 511.31 417.25 508.96 427.64 505.97 438.81 502.99 450.12 499.37 462.21 495.19 474.88 491.01 487.57 486.27 500.65 481.03 513.7 475.8 526.34 470.08 538.47 463.93 549.53 457.79 559.41 451.23 567.53 444.32 573.31 437.41 577.11 430.15 578.04 422.61 575.77 415.08 571.27 407.27 563.63 399.26 553.02 391.25 540.92 383.42 527.32 375.86 513.01 368.29 498.79 360.98 484.82 354.01 471.64 347.05 459.61 340.42 448.76 334.22 439.21 328.02 431.09 322.25 424.1 316.98 418.08 311.73 413.17 306.97 408.78 302.81 404.63 296.88 399.22 288.22 386.92 285.65 379.11 284.2 373.65 283.5 367.25 283.62 359.9 283.75 352.55 284.69 344.64 286.36 336.4 288.03 328.25 290.43 319.92 293.47 311.67 296.51 303.71 300.2 296.06 304.45 289.02 308.69 282.52 313.5 276.88 318.8 272.4 324.09 268.69 329.88 266.35 336.08 265.57 342.27 265.62 348.88 267.26 355.83 270.51 362.77 274.35 370.06 279.56 377.61 285.96 385.17 292.31 392.99 299.36 400.99 306.82" stroke-dasharray="42 13" transform="rotate(62, 400, 400)" opacity="0.62"></path><path d="M400.96 322.2C407.97 328.21 414.8 333.98 421.41 339.33 428.01 343.66 434.37 347.53 440.42 350.95 449.35 354.39 465.45 359.03 472.49 360.96 479.07 362.44 489.79 367.64 493.79 371.93 497.2 376.89 500.93 391.59 501.12 401.58 501.02 408.61 500.21 416.48 498.77 425.05 497.34 433.67 495.28 443.03 492.65 452.95 490.04 462.91 486.86 473.38 483.19 484.12 479.52 494.73 475.36 505.4 470.76 515.77 466.18 525.65 461.15 534.85 455.76 542.94 450.38 550.01 444.63 555.51 438.57 559.04 432.51 561.06 426.15 560.78 419.56 558.01 412.96 553.62 406.13 546.79 399.12 537.63 392.11 527.36 385.26 515.84 378.65 503.65 372.03 491.4 365.64 479.12 359.55 467.25 353.47 456.06 347.68 445.59 342.27 436 336.86 427.36 331.82 419.56 327.22 412.55 322.63 406.36 318.49 400.7 314.86 395.41 309.68 388.29 302.13 374.15 299.89 366.43 298.63 361.19 298.02 355.43 298.12 349.16 298.23 342.88 299.05 336.39 300.51 329.86 301.98 323.39 304.08 316.99 306.74 310.86 311.02 302.21 322.19 288.48 328.95 284.17 336.13 281.77 352.42 283.96 361.41 288.64 367.5 292.51 373.88 297.46 380.49 303.35 387.11 309.12 393.95 315.47 400.96 322.2" stroke-dasharray="44 18" transform="rotate(66.42857142857143, 400, 400)" opacity="0.67"></path><path d="M400.87 337.59C412.88 347.71 424.3 357.16 434.67 365.3 445.03 370.42 454.34 375.01 462.11 379.66 469.87 382.54 476.1 386.88 480.34 393.42 484.57 399.42 486.81 408.45 486.62 420.98 486.44 433.5 483.86 448.63 479.34 465.21 474.85 481.62 468.43 498.75 460.52 514.55 452.64 528.48 443.27 538.88 432.87 543.47 422.47 543.75 411.04 536.74 399.03 522.24 387.02 504.58 375.56 483.84 365.14 462.99 354.72 443.55 345.35 425.84 337.49 410.69 329.65 397.69 323.33 386.18 319.02 375.64 314.73 365.84 312.44 355.68 312.62 345.02 312.81 334.36 315.44 324.2 320.01 315.45 324.58 307.28 331.09 301.47 339.07 299.01 347.05 297.89 356.49 300.67 366.95 307.5 377.39 314.92 388.86 325.27 400.87 337.59" stroke-dasharray="118 92" transform="rotate(70.85714285714285, 400, 400)" opacity="0.87"></path><path d="M400.73 352.98C410.74 361.92 420.25 370.68 428.88 378.69 437.51 384.63 445.25 390.3 451.71 395.96 458.17 400.28 463.36 405.55 466.88 412.25 470.41 418.49 472.28 426.86 472.12 437.64 471.97 448.42 469.81 460.76 466.04 473.65 462.29 486.28 456.92 498.75 450.31 509.56 443.72 518.87 435.9 525.06 427.22 526.7 418.54 525.48 409.01 518.91 399 506.85 388.98 492.66 379.45 475.9 370.77 458.67 362.11 442 354.31 426.07 347.78 411.81 341.26 398.8 336.02 387.01 332.44 376.51 328.87 366.51 326.97 356.97 327.12 348.03 327.28 339.08 329.47 331.49 333.28 325.71 337.09 320.22 342.52 317.08 349.18 316.77 355.83 317.13 363.72 320.56 372.44 327.02 381.16 333.59 390.72 342.45 400.73 352.98" stroke-dasharray="19 55" transform="rotate(75.28571428571429, 400, 400)" opacity="0.37"></path><path d="M400.55 368.37C408.55 375.93 416.16 383.65 423.06 391.06 429.95 397.18 436.14 403.27 441.3 409.34 446.47 414.55 450.61 420.32 453.43 426.86 456.25 433.1 457.75 440.59 457.62 449.41 457.5 458.23 455.77 467.6 452.75 476.81 449.73 485.76 445.42 494.02 440.13 500.59 434.84 506.15 428.57 509.18 421.61 508.86 414.66 506.84 407.03 501.06 399.02 491.47 391.01 480.53 383.39 467.61 376.46 454.09 369.54 440.67 363.31 427.38 358.1 415.07 352.9 403.35 348.72 392.5 345.86 382.89 343.02 373.59 341.5 365.1 341.62 357.79 342.62 347.69 351.77 336.96 359.28 337.06 364.61 338.12 370.92 341.5 377.9 347.08 384.88 352.53 392.54 359.75 400.55 368.37" stroke-dasharray="7 79" transform="rotate(79.71428571428571, 400, 400)" opacity="0.82"></path><path d="M400.33 383.75C412.34 394.97 423.14 407.54 430.88 419.46 438.62 429.51 443.31 441.4 443.12 454.76 442.94 468.12 437.93 480.43 429.97 487.72 422.02 492.73 411.11 489.48 399.1 476.08 387.08 459.75 376.25 438.8 368.45 419.49 360.67 400.96 355.94 384.38 356.12 373.04 356.31 361.68 361.36 357.15 369.36 359.31 377.36 361.51 388.31 370.09 400.33 383.75" stroke-dasharray="51 146" transform="rotate(84.14285714285714, 400, 400)" opacity="0.24"></path><path d="M400.09 399.14C408.1 407.21 415.3 416.82 420.46 426.15 425.62 434.76 428.75 444.12 428.62 452.99 426.83 465.18 410.88 471.42 399.23 460.69 391.22 450.33 384.01 436.89 378.82 424.08 373.64 411.36 370.5 399.66 370.62 391.79 372.43 382.5 388.43 387.11 400.09 399.14" stroke-dasharray="100 32" transform="rotate(88.57142857142857, 400, 400)" opacity="0.26"></path></g></svg>