<svg xmlns="http://www.w3.org/2000/svg" version="1.1" xmlns:xlink="http://www.w3.org/1999/xlink" xmlns:svgjs="http://svgjs.dev/svgjs" viewBox="0 0 800 800"><defs><linearGradient x1="50%" y1="0%" x2="50%" y2="100%" id="ccchaos-grad"><stop stop-color="hsl(305, 77%, 50%)" stop-opacity="1" offset="0%"></stop><stop stop-color="hsl(305, 77%, 80%)" stop-opacity="1" offset="100%"></stop></linearGradient></defs><g stroke-width="2" stroke="url(#ccchaos-grad)" fill="none" stroke-linecap="round"><path d="M399.11 73.47Q407.77 78.84 416.44 84.46 425.13 90.3 433.82 96.34 442.52 102.54 451.23 108.87 459.94 115.27 468.66 121.71 477.37 128.14 486.09 134.53 494.81 140.82 503.52 146.99 512.22 152.99 520.92 158.8 529.6 164.4 538.28 169.77 546.95 174.9 555.6 179.78 564.23 184.44 572.86 188.87 581.46 193.1 590.05 197.15 598.63 201.05 607.19 204.83 615.74 208.53 624.27 212.19 632.79 215.85 641.3 219.54 649.8 223.31 658.29 227.18 670.88 238.28 674.75 255.38 674.52 265.4 674.32 275.41 674.16 285.42 674.05 295.44 674 305.45 674.01 315.46 674.08 325.47 674.2 335.49 674.38 345.5 674.59 355.51 674.83 365.53 675.07 375.54 675.32 385.55 675.54 395.57 675.73 405.58 675.87 415.59 675.96 425.61 675.99 435.62 675.97 445.63 675.88 455.65 675.73 465.66 675.54 475.67 675.32 485.69 675.08 495.7 674.83 505.71 674.6 515.73 674.38 525.74 674.21 535.75 674.08 545.77 674.01 555.78 665.4 561.2 656.81 566.68 648.23 572.21 639.67 577.76 631.13 583.32 622.59 588.86 614.07 594.38 605.57 599.85 597.07 605.27 588.58 610.61 580.1 615.87 571.62 621.05 563.15 626.14 554.68 631.14 546.21 636.05 537.74 640.88 529.26 645.64 520.78 650.32 512.29 654.95 503.8 659.54 495.29 664.1 486.77 668.64 478.24 673.17 469.69 677.72 461.13 682.29 452.55 686.9 443.96 691.54 435.36 696.24 426.74 701 418.1 705.81 400.85 710.64 383.72 705.61 375.17 700.7 366.61 695.84 358.03 691.06 349.43 686.33 340.82 681.66 332.19 677.04 323.55 672.47 314.89 667.92 306.23 663.4 297.55 658.87 288.86 654.35 280.16 649.79 271.45 645.21 262.74 640.57 254.02 635.87 245.31 631.1 236.59 626.25 227.87 621.31 219.16 616.28 210.45 611.16 201.76 605.94 193.07 600.64 184.39 595.26 175.72 589.82 167.06 584.31 158.42 578.77 149.8 573.2 141.19 567.63 132.59 562.07 124.01 556.54 124.08 546.55 124.21 536.56 124.38 526.57 124.6 516.58 124.83 506.59 125.08 496.6 125.32 486.61 125.54 476.62 125.73 466.63 125.88 456.64 125.97 446.65 125.99 436.66 125.96 426.67 125.87 416.68 125.73 406.69 125.54 396.7 125.32 386.71 125.07 376.72 124.83 366.73 124.59 356.74 124.38 346.74 124.2 336.75 124.08 326.76 124.01 316.77 124 306.78 124.05 296.79 124.16 286.8 124.32 276.81 124.52 266.82 124.75 256.83 129.48 239.89 142.66 229.12 151.36 225.39 160.05 221.71 168.73 218.04 177.4 214.34 186.05 210.57 194.69 206.7 203.32 202.69 211.93 198.51 220.53 194.13 229.11 189.55 237.67 184.73 246.22 179.67 254.76 174.38 263.28 168.86 271.79 163.12 280.29 157.18 288.78 151.08 297.27 144.83 305.74 138.49 314.22 132.08 322.69 125.65 331.16 119.25 339.63 112.91 348.1 106.68 356.58 100.6 365.07 94.71 373.56 89.03 382.07 83.58 394.85 75.93 399.11 73.47" stroke-dasharray="11 14" transform="rotate(0, 400, 400)" opacity="0.10"></path><path d="M399.19 79.31Q407.71 84.58 416.23 90.09 424.77 95.81 433.31 101.72 441.86 107.79 450.42 113.98 458.97 120.24 467.53 126.55 476.09 132.87 484.65 139.13 493.2 145.32 501.75 151.4 510.29 157.32 518.82 163.07 527.34 168.61 535.84 173.94 544.34 179.05 552.82 183.92 561.29 188.57 569.74 193 578.18 197.23 586.61 201.27 595.01 205.17 603.41 208.93 611.79 212.61 620.16 216.23 628.52 219.82 636.86 223.44 645.2 227.11 653.53 230.86 665.89 241.64 669.69 258.38 669.47 268.21 669.28 278.03 669.13 287.86 669.04 297.68 669 307.5 669.01 317.33 669.09 327.15 669.22 336.98 669.4 346.8 669.61 356.62 669.84 366.45 670.08 376.27 670.32 386.1 670.54 395.92 670.73 405.74 670.87 415.57 670.96 425.39 670.99 435.22 670.97 445.04 670.89 454.86 670.75 464.69 670.57 474.51 670.36 484.34 670.13 494.16 669.88 503.98 669.65 513.81 669.43 523.63 669.25 533.45 664.84 550.87 652.12 563.89 643.69 569.34 635.28 574.8 626.87 580.27 618.49 585.71 610.11 591.12 601.75 596.48 593.4 601.77 585.06 607 576.73 612.14 568.4 617.2 560.08 622.17 551.76 627.05 543.45 631.84 535.13 636.56 526.81 641.2 518.49 645.78 510.16 650.31 501.83 654.8 493.49 659.26 485.13 663.7 476.77 668.15 468.39 672.6 460 677.08 451.6 681.6 443.18 686.15 434.74 690.76 426.3 695.43 417.83 700.15 400.92 704.89 384.08 699.95 375.67 695.12 367.24 690.36 358.8 685.66 350.35 681.02 341.88 676.44 333.39 671.91 324.89 667.42 316.38 662.97 307.86 658.53 299.33 654.1 290.79 649.67 282.24 645.22 273.69 640.73 265.13 636.2 256.57 631.62 248.01 626.96 239.46 622.23 230.9 617.41 222.35 612.5 213.81 607.5 205.28 602.41 196.75 597.24 188.24 591.98 179.74 586.65 171.25 581.26 162.78 575.83 154.32 570.36 145.87 564.88 133.27 551.77 129.25 534.35 129.43 524.55 129.65 514.75 129.88 504.95 130.13 495.15 130.36 485.35 130.57 475.55 130.75 465.75 130.89 455.95 130.97 446.15 130.99 436.35 130.96 426.56 130.87 416.76 130.73 406.96 130.54 397.16 130.32 387.36 130.08 377.56 129.84 367.76 129.61 357.96 129.4 348.16 129.22 338.36 129.09 328.56 129.01 318.76 129 308.96 129.04 299.16 129.13 289.36 129.28 279.56 129.47 269.76 129.69 259.96 134.33 243.37 147.28 232.87 155.83 229.23 164.36 225.61 172.89 221.99 181.41 218.32 189.92 214.57 198.41 210.7 206.89 206.69 215.36 202.5 223.81 198.12 232.24 193.53 240.66 188.72 249.07 183.68 257.46 178.41 265.84 172.93 274.21 167.25 282.57 161.38 290.91 155.36 299.25 149.21 307.58 142.98 315.9 136.69 324.22 130.39 332.53 124.12 340.85 117.92 349.17 111.83 357.49 105.89 365.81 100.12 374.14 94.56 382.48 89.23 395.01 81.73 399.19 79.31" stroke-dasharray="69 82" transform="rotate(1.9259259259259258, 400, 400)" opacity="0.44"></path><path d="M399.28 85.15Q407.65 90.32 416.03 95.71 424.42 101.31 432.81 107.09 441.21 113.03 449.61 119.08 458.01 125.22 466.41 131.4 474.81 137.58 483.2 143.74 491.59 149.82 499.97 155.8 508.34 161.64 516.7 167.32 525.06 172.81 533.4 178.1 541.72 183.17 550.04 188.03 558.33 192.67 566.62 197.09 574.89 201.32 583.15 205.37 591.39 209.26 599.62 213.01 607.84 216.66 616.04 220.25 624.24 223.8 632.42 227.34 640.6 230.92 648.77 234.56 660.9 245.05 664.63 261.43 664.42 271.06 664.25 280.7 664.11 290.33 664.02 299.97 664 309.6 664.02 319.24 664.1 328.87 664.24 338.5 664.41 348.14 664.62 357.77 664.85 367.41 665.09 377.04 665.32 386.68 665.54 396.31 665.72 405.94 665.86 415.58 665.96 425.21 665.99 434.85 665.98 444.48 665.9 454.11 665.77 463.75 665.6 473.38 665.4 483.02 665.17 492.65 664.93 502.29 664.7 511.92 664.48 521.55 664.29 531.19 659.94 548.29 647.44 561.11 639.15 566.48 630.88 571.86 622.63 577.22 614.39 582.56 606.16 587.86 597.95 593.1 589.74 598.28 581.55 603.38 573.36 608.4 565.19 613.34 557.02 618.19 548.85 622.95 540.69 627.63 532.52 632.23 524.36 636.76 516.2 641.24 508.03 645.66 499.86 650.05 491.68 654.42 483.49 658.77 475.29 663.12 467.08 667.49 458.86 671.88 450.62 676.3 442.38 680.77 434.11 685.29 425.84 689.87 417.55 694.5 400.96 699.14 384.42 694.29 376.15 689.56 367.86 684.88 359.56 680.27 351.25 675.72 342.92 671.23 334.58 666.78 326.23 662.38 317.86 658.02 309.49 653.67 301.11 649.33 292.72 644.99 284.32 640.64 275.92 636.26 267.52 631.83 259.12 627.35 250.72 622.81 242.33 618.19 233.94 613.49 225.55 608.71 217.17 603.84 208.8 598.87 200.45 593.82 192.1 588.69 183.76 583.49 175.44 578.21 167.13 572.89 158.84 567.53 150.56 562.14 138.22 549.26 134.29 532.15 134.48 522.55 134.7 512.94 134.93 503.33 135.17 493.72 135.4 484.11 135.6 474.51 135.77 464.9 135.9 455.29 135.98 445.68 135.99 436.07 135.96 426.47 135.86 416.86 135.72 407.25 135.54 397.64 135.32 388.03 135.09 378.43 134.85 368.82 134.62 359.21 134.41 349.6 134.24 339.99 134.1 330.38 134.02 320.78 134 311.17 134.02 301.56 134.11 291.95 134.25 282.34 134.42 272.73 134.63 263.13 139.18 246.87 151.9 236.63 160.29 233.06 168.67 229.5 177.05 225.91 185.42 222.26 193.77 218.52 202.12 214.66 210.45 210.64 218.77 206.45 227.08 202.07 235.37 197.48 243.65 192.68 251.91 187.66 260.16 182.43 268.4 176.99 276.62 171.36 284.83 165.57 293.03 159.63 301.22 153.59 309.4 147.46 317.58 141.3 325.74 135.13 333.91 128.99 342.07 122.93 350.23 116.98 358.4 111.17 366.56 105.53 374.73 100.09 382.91 94.87 395.19 87.52 399.28 85.15" stroke-dasharray="12 8" transform="rotate(3.8518518518518516, 400, 400)" opacity="0.54"></path><path d="M399.39 90.98Q407.61 96.05 415.84 101.33 424.08 106.81 432.32 112.47 440.56 118.27 448.8 124.19 457.04 130.19 465.28 136.24 473.52 142.3 481.75 148.34 489.97 154.31 498.18 160.19 506.39 165.95 514.58 171.56 522.77 176.99 530.94 182.24 539.09 187.28 547.24 192.11 555.37 196.74 563.49 201.16 571.59 205.38 579.68 209.42 587.76 213.31 595.82 217.05 603.88 220.69 611.92 224.24 619.95 227.75 627.98 231.23 636 234.73 644.01 238.28 655.91 248.48 659.58 264.51 659.38 273.95 659.21 283.4 659.09 292.84 659.01 302.29 659 311.73 659.03 321.18 659.12 330.62 659.26 340.07 659.43 349.51 659.64 358.96 659.87 368.4 660.1 377.85 660.33 387.29 660.54 396.74 660.72 406.18 660.86 415.63 660.95 425.07 660.99 434.51 660.98 443.96 660.91 453.4 660.79 462.85 660.63 472.29 660.43 481.74 660.21 491.18 659.98 500.63 659.75 510.07 659.53 519.52 659.34 528.96 655.04 545.75 642.76 558.36 634.62 563.65 626.5 568.93 618.39 574.19 610.3 579.42 602.21 584.6 594.14 589.73 586.09 594.78 578.04 599.76 570 604.66 561.97 609.47 553.95 614.2 545.94 618.84 537.93 623.4 529.92 627.9 521.91 632.32 513.9 636.69 505.89 641.01 497.88 645.3 489.86 649.57 481.83 653.83 473.8 658.09 465.75 662.37 457.7 666.67 449.63 671.01 441.56 675.39 433.47 679.82 425.36 684.3 417.24 688.85 400.99 693.4 384.74 688.64 376.61 683.99 368.47 679.41 360.31 674.88 352.13 670.42 343.95 666.01 335.75 661.66 327.55 657.34 319.33 653.06 311.11 648.8 302.88 644.56 294.64 640.31 286.4 636.05 278.16 631.77 269.92 627.45 261.68 623.08 253.44 618.65 245.2 614.15 236.97 609.57 228.75 604.91 220.54 600.16 212.34 595.33 204.14 590.4 195.96 585.4 187.8 580.32 179.64 575.17 171.5 569.96 163.37 564.71 155.26 559.42 143.17 546.77 139.34 529.99 139.53 520.58 139.75 511.16 139.98 501.74 140.21 492.32 140.43 482.91 140.63 473.49 140.79 464.07 140.91 454.65 140.98 445.24 140.99 435.82 140.95 426.4 140.86 416.99 140.72 407.57 140.54 398.15 140.33 388.73 140.1 379.31 139.87 369.9 139.64 360.48 139.43 351.06 139.26 341.64 139.12 332.23 139.03 322.81 139 313.39 139.01 303.97 139.09 294.56 139.21 285.14 139.38 275.72 139.58 266.3 144.04 250.39 156.51 240.37 164.75 236.87 172.98 233.36 181.2 229.8 189.42 226.17 197.63 222.44 205.82 218.58 214.01 214.56 222.18 210.37 230.34 205.99 238.49 201.4 246.62 196.61 254.74 191.62 262.84 186.42 270.94 181.03 279.02 175.47 287.08 169.75 295.14 163.91 303.18 157.96 311.22 151.95 319.25 145.91 327.27 139.87 335.28 133.87 343.29 127.95 351.3 122.13 359.31 116.45 367.32 110.94 375.33 105.62 383.34 100.52 395.38 93.31 399.39 90.98" stroke-dasharray="20 0" transform="rotate(5.777777777777778, 400, 400)" opacity="0.23"></path><path d="M399.51 96.83Q407.59 101.79 415.66 106.96 423.74 112.32 431.83 117.85 439.91 123.52 447.99 129.31 456.07 135.18 464.15 141.1 472.22 147.03 480.29 152.95 488.34 158.81 496.39 164.59 504.43 170.26 512.45 175.79 520.47 181.16 528.47 186.36 536.46 191.37 544.43 196.17 552.4 200.78 560.34 205.19 568.28 209.41 576.21 213.45 592.01 221.01 607.79 228.22 623.53 235.12 639.25 242.02 650.92 251.95 654.52 267.63 654.33 276.89 654.18 286.14 654.07 295.4 654.01 304.65 654 313.91 654.04 323.16 654.14 332.41 654.27 341.67 654.45 350.92 654.66 360.18 654.88 369.43 655.11 378.69 655.33 387.94 655.54 397.19 655.72 406.45 655.85 415.7 655.95 424.96 655.99 434.21 655.98 443.47 655.92 452.72 655.81 461.97 655.66 471.23 655.47 480.48 655.26 489.74 655.03 498.99 654.8 508.24 654.58 517.5 654.39 526.75 650.15 543.22 638.08 555.62 630.09 560.81 622.12 565.99 614.16 571.15 606.21 576.27 598.27 581.33 590.35 586.34 582.44 591.27 574.54 596.12 566.65 600.9 558.77 605.59 550.89 610.19 543.03 614.72 535.17 619.17 527.31 623.55 519.45 627.86 511.6 632.13 503.75 636.35 495.89 640.54 488.03 644.72 480.16 648.88 472.29 653.05 464.41 657.24 456.53 661.45 448.63 665.7 440.72 669.99 432.8 674.34 424.87 678.73 416.92 683.19 400.99 687.65 385.05 682.98 377.05 678.42 369.05 673.92 361.03 669.49 353 665.11 344.96 660.79 336.91 656.52 328.85 652.29 320.79 648.1 312.72 643.93 304.64 639.77 296.56 635.62 288.47 631.46 280.39 627.28 272.31 623.06 264.23 618.79 256.15 614.47 248.08 610.09 240.01 605.63 231.96 601.09 223.91 596.47 215.87 591.76 207.84 586.97 199.83 582.09 191.83 577.13 183.84 572.11 175.86 567.02 167.9 561.88 159.95 556.7 148.11 544.29 144.38 527.84 144.57 518.62 144.79 509.39 145.02 500.16 145.25 490.94 145.46 481.71 145.65 472.49 145.8 463.26 145.91 454.03 145.97 444.81 145.98 435.58 145.94 426.35 145.84 417.13 145.71 407.9 145.53 398.68 145.32 389.45 145.1 380.22 144.87 371 144.65 361.77 144.44 352.54 144.26 343.32 144.13 334.09 144.03 324.86 143.99 315.64 144 306.41 144.06 297.18 144.17 287.96 144.32 278.73 144.51 269.5 148.88 253.92 161.12 244.12 169.2 240.68 177.27 237.2 185.34 233.67 193.41 230.05 201.47 226.33 209.51 222.46 217.55 218.44 225.58 214.25 233.59 209.87 241.59 205.3 249.58 200.52 257.55 195.56 265.52 190.4 273.47 185.06 281.4 179.57 289.33 173.93 297.24 168.18 305.14 162.35 313.03 156.45 320.91 150.53 328.78 144.62 336.65 138.76 344.51 132.97 352.37 127.29 360.22 121.74 368.08 116.36 375.93 111.16 383.79 106.17 395.58 99.11 399.51 96.83" stroke-dasharray="61 37" transform="rotate(7.703703703703703, 400, 400)" opacity="0.18"></path><path d="M399.64 102.66Q407.56 107.52 415.49 112.58 423.41 117.83 431.34 123.23 439.26 128.77 447.18 134.43 455.1 140.16 463.01 145.95 470.92 151.76 478.82 157.55 486.7 163.3 494.58 168.98 502.45 174.56 510.31 180.02 518.15 185.32 525.99 190.47 533.81 195.43 541.61 200.21 549.41 204.8 557.19 209.2 572.72 217.37 588.21 225.06 603.65 232.14 619.08 239.01 634.49 245.78 649.89 252.66 649.67 261.73 649.46 270.79 649.29 279.85 649.15 288.92 649.05 297.98 649 307.04 649 316.11 649.05 325.17 649.15 334.23 649.29 343.3 649.47 352.36 649.67 361.42 649.89 370.49 650.12 379.55 650.34 388.61 650.54 397.68 650.71 406.74 650.85 415.8 650.94 424.87 650.99 433.93 650.99 442.99 650.93 452.06 650.83 461.12 650.69 470.19 650.51 479.25 650.3 488.31 650.08 497.38 649.86 506.44 649.64 515.5 649.44 524.57 645.27 540.71 633.42 552.89 625.58 557.99 617.75 563.07 609.93 568.11 602.13 573.11 594.34 578.06 586.56 582.94 578.8 587.75 571.04 592.48 563.3 597.13 555.57 601.69 547.84 606.18 540.12 610.59 532.41 614.92 524.7 619.19 509.3 627.54 493.9 635.78 478.49 643.94 463.07 652.12 455.34 656.24 447.61 660.4 439.87 664.61 432.12 668.86 424.35 673.17 416.58 677.53 400.98 681.9 385.33 677.32 377.48 672.85 369.62 668.44 361.74 664.09 353.86 659.8 345.97 655.57 338.06 651.38 330.16 647.24 322.24 643.13 314.32 639.05 306.4 634.99 298.47 630.93 290.55 626.86 282.62 622.77 274.7 618.66 266.78 614.5 258.87 610.29 250.96 606.02 243.06 601.68 235.17 597.26 227.29 592.76 219.42 588.18 211.56 583.52 203.71 578.77 195.87 573.94 188.05 569.04 180.24 564.07 172.44 559.05 164.66 553.99 153.07 541.82 149.43 525.71 149.63 516.67 149.85 507.63 150.07 498.6 150.29 489.56 150.5 480.53 150.68 471.49 150.82 462.46 150.92 453.42 150.98 444.39 150.98 435.35 150.93 426.32 150.84 417.28 150.7 408.25 150.53 399.21 150.33 390.17 150.11 381.14 149.88 372.1 149.66 363.07 149.46 354.03 149.28 345 149.14 335.96 149.04 326.93 148.99 317.89 148.99 308.86 149.04 299.82 149.14 290.79 149.28 281.75 149.45 272.72 153.73 257.47 165.73 247.86 181.57 240.98 197.4 233.9 205.31 230.17 213.2 226.31 221.09 222.29 228.97 218.09 236.83 213.72 244.69 209.16 252.53 204.41 260.36 199.47 268.18 194.36 275.98 189.08 283.78 183.66 291.56 178.11 299.33 172.45 307.08 166.72 314.83 160.95 322.56 155.15 330.29 149.38 338.01 143.65 345.72 137.99 353.43 132.44 361.14 127.03 368.84 121.77 376.54 116.7 384.24 111.81 395.79 104.89 399.64 102.66" stroke-dasharray="38 87" transform="rotate(9.62962962962963, 400, 400)" opacity="0.90"></path><path d="M399.78 108.49Q407.55 113.26 415.31 118.21 423.08 123.33 430.85 128.61 438.61 134.02 446.37 139.54 454.12 145.15 461.87 150.81 469.6 156.49 477.34 162.16 485.06 167.8 492.77 173.37 500.47 178.86 508.15 184.23 515.83 189.47 523.49 194.55 531.15 199.47 538.79 204.22 554.03 213.08 569.23 221.4 584.39 228.94 599.52 236.1 614.63 242.85 629.72 249.5 640.94 258.96 644.41 273.96 644.25 282.83 644.12 291.71 644.04 300.58 644 309.45 644.01 318.33 644.07 327.2 644.17 336.07 644.31 344.95 644.49 353.82 644.69 362.69 644.91 371.57 645.13 380.44 645.34 389.31 645.54 398.19 645.71 407.06 645.85 415.93 645.94 424.81 645.99 433.68 645.99 442.55 645.94 451.43 645.85 460.3 645.71 469.18 645.54 478.05 645.34 486.92 645.13 495.8 644.91 504.67 644.69 513.54 644.49 522.42 640.39 538.23 628.75 550.18 621.06 555.18 613.38 560.15 605.71 565.08 598.06 569.96 590.42 574.78 582.78 579.54 575.17 584.22 567.56 588.82 559.96 593.35 552.37 597.79 537.23 606.41 522.1 614.83 507 622.98 491.91 631.02 476.81 638.99 461.71 646.99 446.57 655.13 431.42 663.39 416.21 671.91 400.97 680.6 393.29 676.11 385.59 671.67 377.89 667.29 370.17 662.97 362.44 658.7 354.7 654.5 346.96 650.35 339.21 646.25 323.69 638.18 308.16 630.2 292.63 622.25 277.1 614.25 269.34 610.2 261.59 606.1 253.85 601.94 246.12 597.71 238.39 593.42 230.68 589.05 222.97 584.59 215.28 580.06 207.6 575.44 199.93 570.74 192.27 565.97 184.62 561.13 176.99 556.23 169.37 551.28 158.03 539.37 154.48 523.59 154.68 514.75 154.9 505.9 155.12 497.05 155.33 488.21 155.53 479.36 155.7 470.52 155.84 461.67 155.93 452.83 155.98 443.98 155.98 435.14 155.93 426.29 155.84 417.45 155.7 408.6 155.53 399.76 155.33 390.91 155.12 382.07 154.9 373.22 154.68 364.38 154.48 355.53 154.3 346.69 154.16 337.84 154.06 329 154 320.15 153.99 311.31 154.03 302.46 154.11 293.62 154.24 284.77 154.4 275.93 158.58 261 170.34 251.57 185.87 244.75 201.39 237.7 216.88 230.03 232.35 221.9 240.07 217.53 247.78 212.99 255.47 208.26 263.16 203.37 270.83 198.31 278.49 193.09 286.14 187.74 293.78 182.28 301.4 176.72 309.02 171.1 316.62 165.45 324.21 159.78 331.79 154.13 339.37 148.54 346.93 143.02 354.49 137.61 362.05 132.32 369.6 127.19 377.14 122.23 384.69 117.45 396.01 110.68 399.78 108.49" stroke-dasharray="36 21" transform="rotate(11.555555555555555, 400, 400)" opacity="0.60"></path><path d="M399.93 114.34Q415.14 123.84 430.35 134 445.54 144.67 460.71 155.67 475.84 166.78 490.94 177.77 505.99 188.45 520.99 198.63 535.95 208.21 550.86 217.11 565.73 225.32 580.57 232.91 595.38 239.99 610.17 246.7 624.96 253.24 639.75 259.79 639.36 277.16 639.1 294.52 639 311.89 639.08 329.25 639.33 346.62 639.71 363.98 640.14 381.35 640.54 398.71 640.84 416.08 640.99 433.45 640.95 450.81 640.74 468.18 640.39 485.54 639.96 502.91 639.55 520.28 639.21 537.64 624.1 547.47 609.02 557.22 594 566.79 579.01 576.12 564.08 585.15 549.18 593.87 534.33 602.29 519.51 610.45 504.7 618.41 489.92 626.24 475.13 634.03 460.34 641.86 445.54 649.79 430.7 657.9 415.84 666.22 400.93 674.76 385.84 666 370.7 657.48 355.53 649.19 340.34 641.11 325.13 633.2 309.91 625.4 294.7 617.64 279.5 609.83 264.33 601.89 249.18 593.73 234.07 585.31 219.01 576.57 203.99 567.52 189.02 558.17 174.09 548.56 159.2 538.78 159.54 521.47 159.95 504.16 160.38 486.85 160.73 469.55 160.94 452.24 160.98 434.93 160.83 417.62 160.53 400.31 160.13 383 159.7 365.69 159.32 348.38 159.07 331.07 158.99 313.76 159.09 296.45 159.35 279.14 159.74 261.84 174.95 255.27 190.17 248.54 205.38 241.46 220.57 233.87 235.73 225.67 250.86 216.79 265.94 207.25 280.99 197.09 295.99 186.45 310.94 175.49 325.84 164.42 340.71 153.44 355.54 142.78 370.35 132.62 392.53 118.72 399.93 114.34" stroke-dasharray="4 85" transform="rotate(13.481481481481481, 400, 400)" opacity="0.45"></path><path d="M400.07 120.17Q414.97 129.46 429.85 139.38 444.71 149.8 459.54 160.54 474.34 171.39 489.09 182.16 503.81 192.65 518.48 202.7 533.1 212.18 547.68 221.02 562.23 229.21 576.74 236.79 591.24 243.85 605.72 250.52 620.19 256.97 634.68 263.38 634.31 280.36 634.07 297.35 634 314.33 634.09 331.32 634.35 348.31 634.73 365.29 635.15 382.27 635.54 399.26 635.84 416.24 635.98 433.23 635.96 450.21 635.76 467.2 635.43 484.18 635.02 501.17 634.6 518.15 634.26 535.14 619.45 544.76 604.67 554.28 589.94 563.61 575.25 572.69 560.61 581.47 546.01 589.94 531.44 598.13 516.91 606.07 502.41 613.82 487.93 621.47 473.45 629.07 458.97 636.73 444.48 644.49 429.98 652.43 415.44 660.56 400.87 668.92 386.07 660.35 371.22 652 356.35 643.88 341.47 635.97 326.57 628.23 311.67 620.6 296.78 613.02 281.91 605.41 267.06 597.67 252.25 589.74 237.47 581.56 222.74 573.08 208.05 564.28 193.41 555.19 178.81 545.84 164.25 536.29 164.59 519.36 165.01 502.43 165.42 485.5 165.75 468.58 165.95 451.65 165.97 434.72 165.83 417.79 165.53 400.86 165.14 383.93 164.72 367 164.34 350.07 164.08 333.14 163.99 316.21 164.06 299.28 164.3 282.35 164.67 265.42 179.56 258.95 194.46 252.25 209.35 245.18 224.24 237.59 239.09 229.41 253.92 220.57 268.72 211.11 283.47 201.09 298.18 190.62 312.84 179.88 327.46 169.05 342.04 158.34 356.58 147.94 371.1 138.03 392.83 124.46 400.07 120.17" stroke-dasharray="14 58" transform="rotate(15.407407407407407, 400, 400)" opacity="0.50"></path><path d="M400.21 126.01Q414.78 135.09 429.34 144.77 443.87 154.93 458.36 165.4 472.82 176.01 487.24 186.55 501.61 196.85 515.95 206.75 530.24 216.12 544.49 224.9 558.72 233.06 572.91 240.62 587.09 247.66 601.26 254.3 615.43 260.68 629.61 266.96 629.27 283.57 629.05 300.17 629 316.78 629.11 333.38 629.37 349.99 629.74 366.6 630.15 383.2 630.54 399.81 630.83 416.41 630.98 433.02 630.96 449.62 630.78 466.23 630.47 482.83 630.07 499.44 629.66 516.05 629.31 532.65 614.8 542.07 600.32 551.35 585.89 560.43 571.5 569.24 557.14 577.77 542.83 586 528.56 593.96 514.33 601.68 500.12 609.23 485.94 616.69 471.76 624.11 457.6 631.59 443.42 639.19 429.24 646.95 415.03 654.91 400.8 663.09 386.28 654.7 371.74 646.52 357.17 638.57 342.59 630.83 328.01 623.25 313.43 615.8 298.87 608.4 284.32 600.97 269.81 593.44 255.33 585.74 240.89 577.79 226.49 569.57 212.13 561.04 197.82 552.21 183.54 543.11 169.3 533.81 169.65 517.26 170.06 500.71 170.46 484.15 170.77 467.6 170.95 451.05 170.97 434.5 170.82 417.95 170.53 401.4 170.14 384.85 169.73 368.29 169.36 351.74 169.1 335.19 168.99 318.64 169.04 302.09 169.26 285.53 169.6 268.98 184.17 262.57 198.75 255.91 213.33 248.85 227.91 241.27 242.46 233.1 256.99 224.32 271.48 214.95 285.94 205.07 300.36 194.79 314.73 184.27 329.07 173.69 343.36 163.25 357.61 153.12 371.83 143.46 393.12 130.2 400.21 126.01" stroke-dasharray="14 35" transform="rotate(17.333333333333332, 400, 400)" opacity="0.43"></path><path d="M400.35 131.85Q414.59 140.72 428.82 150.17 443.01 160.07 457.17 170.28 471.29 180.63 485.37 190.94 499.41 201.04 513.41 210.79 527.37 220.05 541.3 228.76 555.2 236.87 569.08 244.42 582.95 251.44 596.81 258.05 610.67 264.37 624.54 270.55 624.23 286.77 624.04 303 624 319.23 624.13 335.45 624.4 351.68 624.76 367.91 625.16 384.13 625.54 400.36 625.83 416.58 625.98 432.81 625.97 449.03 625.8 465.26 625.51 481.49 625.13 497.71 624.72 513.94 624.37 530.16 610.16 539.36 595.98 548.4 581.85 557.22 567.75 565.78 553.69 574.05 539.67 582.04 525.7 589.77 511.75 597.28 497.84 604.63 483.95 611.89 470.08 619.15 456.22 626.45 442.36 633.87 428.49 641.46 414.61 649.25 400.7 657.25 386.48 649.03 372.24 641.03 357.98 633.25 343.72 625.68 329.45 618.27 315.2 610.99 300.96 603.77 286.75 596.53 272.56 589.2 258.41 581.71 244.31 574 230.24 566.03 216.21 557.76 202.22 549.2 188.27 540.37 174.36 531.31 174.71 515.14 175.12 498.96 175.5 482.79 175.79 466.62 175.96 450.44 175.97 434.27 175.82 418.09 175.53 401.92 175.15 385.75 174.75 369.57 174.39 353.4 174.12 337.22 173.99 321.05 174.03 304.87 174.22 288.7 174.53 272.53 188.78 266.18 203.05 259.53 217.31 252.48 231.57 244.91 245.82 236.77 260.04 228.05 274.24 218.78 288.4 209.05 302.53 198.96 316.61 188.67 330.66 178.35 344.66 168.17 358.63 158.3 372.56 148.89 393.41 135.95 400.35 131.85" stroke-dasharray="59 86" transform="rotate(19.25925925925926, 400, 400)" opacity="0.70"></path><path d="M400.48 137.69Q414.39 146.35 428.28 155.56 442.14 165.2 455.96 175.16 469.74 185.26 483.49 195.33 497.19 205.24 510.86 214.81 524.49 223.96 538.1 232.58 551.68 240.65 565.24 248.17 578.8 255.18 592.35 261.76 605.91 268.03 619.48 274.12 619.19 289.97 619.02 305.82 619.01 321.67 619.15 337.51 619.42 353.36 619.78 369.21 620.17 385.06 620.54 400.9 620.82 416.75 620.97 432.6 620.98 448.44 620.82 464.29 620.54 480.14 620.18 495.99 619.78 511.83 619.42 527.68 605.52 536.64 591.65 545.44 577.81 554 564.01 562.3 550.25 570.32 536.52 578.07 522.83 585.57 509.18 592.86 495.57 600.02 481.97 607.1 468.4 614.18 454.84 621.31 441.29 628.57 427.74 635.98 414.17 643.59 400.59 651.41 386.67 643.38 372.74 635.55 358.79 627.94 344.84 620.54 330.9 613.3 316.97 606.18 303.06 599.13 289.18 592.07 275.33 584.95 261.51 577.67 247.74 570.2 234 562.47 220.3 554.47 206.64 546.18 193.01 537.61 179.41 528.81 179.77 513.01 180.17 497.21 180.53 481.41 180.81 465.62 180.97 449.82 180.96 434.02 180.81 418.22 180.53 402.43 180.16 386.63 179.77 370.83 179.41 355.03 179.14 339.23 179 323.44 179.01 307.64 179.18 291.84 179.47 276.04 193.4 269.73 207.34 263.11 221.29 256.06 235.24 248.51 249.17 240.4 263.09 231.75 276.99 222.6 290.85 213.02 304.69 203.13 318.48 193.07 332.24 183 345.95 173.08 359.63 163.48 373.28 154.31 393.69 141.69 400.48 137.69" stroke-dasharray="46 18" transform="rotate(21.185185185185183, 400, 400)" opacity="0.11"></path><path d="M400.6 143.52Q414.18 151.97 427.73 160.95 441.25 170.34 454.73 180.04 468.18 189.88 481.59 199.73 494.96 209.42 508.3 218.83 521.61 227.84 534.89 236.38 548.16 244.39 561.41 251.88 574.65 258.87 587.9 265.43 601.15 271.66 614.42 277.67 614.15 293.14 614.01 308.61 614.02 324.08 614.17 339.55 614.44 355.02 614.8 370.49 615.18 385.96 615.54 401.44 615.82 416.91 615.97 432.38 615.98 447.85 615.84 463.32 615.58 478.79 615.23 494.26 614.85 509.73 614.48 525.21 600.89 533.93 587.32 542.47 573.78 550.77 560.28 558.81 546.81 566.58 533.38 574.08 519.98 581.36 506.63 588.45 493.3 595.41 480 602.31 466.73 609.21 453.47 616.17 440.22 623.26 426.98 630.5 413.73 637.94 400.47 645.58 386.86 637.72 373.23 630.07 359.6 622.63 345.97 615.39 332.35 608.32 318.75 601.37 305.17 594.49 291.62 587.62 278.1 580.68 264.62 573.63 251.18 566.38 237.77 558.9 224.4 551.16 211.06 543.13 197.76 534.84 184.47 526.3 184.84 510.87 185.22 495.45 185.57 480.02 185.83 464.6 185.97 449.17 185.96 433.75 185.81 418.33 185.53 402.9 185.17 387.48 184.79 372.05 184.43 356.63 184.16 341.2 184.01 325.78 184 310.36 184.14 294.93 184.41 279.51 198.02 273.24 211.64 266.63 225.27 259.59 238.9 252.06 252.52 244 266.13 235.43 279.73 226.4 293.29 216.98 306.83 207.29 320.33 197.47 333.8 187.66 347.23 178 360.62 168.66 373.98 159.74 393.95 147.43 400.6 143.52" stroke-dasharray="61 88" transform="rotate(23.11111111111111, 400, 400)" opacity="0.87"></path><path d="M400.71 149.36Q413.95 157.61 427.17 166.35 440.35 175.49 453.49 184.93 466.61 194.52 479.68 204.12 492.72 213.61 505.73 222.84 518.72 231.72 531.68 240.15 544.63 248.11 557.57 255.55 570.5 262.52 583.44 269.06 596.39 275.26 609.36 281.2 609.12 296.3 609 311.39 609.03 326.49 609.19 341.58 609.46 356.67 609.81 371.77 610.19 386.86 610.54 401.96 610.81 417.05 610.97 432.15 610.99 447.24 610.86 462.34 610.62 477.43 610.28 492.53 609.91 507.62 609.55 522.72 596.26 531.2 583 539.47 569.76 547.52 556.56 555.29 543.38 562.81 530.25 570.08 517.14 577.13 504.08 584.01 491.04 590.78 478.04 597.5 465.06 604.23 452.1 611.03 439.16 617.94 426.22 625.02 413.28 632.28 400.34 639.73 387.03 632.06 373.72 624.59 360.4 617.32 347.1 610.24 333.81 603.33 320.53 596.55 307.29 589.84 294.07 583.15 280.89 576.41 267.74 569.56 254.62 562.54 241.55 555.3 228.5 547.82 215.49 540.06 202.5 532.04 189.54 523.77 189.9 508.71 190.27 493.66 190.61 478.61 190.85 463.56 190.98 448.51 190.96 433.45 190.8 418.4 190.53 403.35 190.18 388.3 189.8 373.25 189.45 358.2 189.18 343.15 189.02 328.1 188.99 313.05 189.11 297.99 189.35 282.94 202.63 276.7 215.93 270.1 229.24 263.08 242.56 255.57 255.87 247.57 269.17 239.1 282.46 230.19 295.73 220.95 308.96 211.47 322.17 201.88 335.35 192.32 348.49 182.94 361.6 173.85 374.67 165.17 394.21 153.18 400.71 149.36" stroke-dasharray="66 15" transform="rotate(25.037037037037035, 400, 400)" opacity="0.16"></path><path d="M400.8 155.2Q413.71 163.24 426.59 171.75 439.43 180.64 452.24 189.82 465.01 199.15 477.76 208.52 490.47 217.79 503.16 226.84 515.82 235.57 528.46 243.9 541.1 251.78 553.73 259.19 566.36 266.13 578.99 272.65 591.64 278.81 604.31 284.71 604.09 299.43 604 314.14 604.04 328.86 604.21 343.58 604.49 358.3 604.83 373.02 605.2 387.74 605.54 402.46 605.81 417.18 605.96 431.9 605.99 446.62 605.88 461.34 605.65 476.06 605.34 490.78 604.97 505.5 604.61 520.22 591.64 528.44 578.68 536.46 565.75 544.24 552.84 551.76 539.96 559.03 527.12 566.06 514.31 572.89 501.54 579.58 488.8 586.16 476.09 592.7 463.4 599.25 450.74 605.88 438.09 612.63 425.46 619.53 412.83 626.62 400.2 633.9 387.21 626.4 374.21 619.11 361.22 612.01 348.24 605.09 335.27 598.35 322.33 591.73 309.42 585.19 296.53 578.67 283.68 572.12 270.86 565.48 258.08 558.68 245.33 551.68 232.61 544.45 219.92 536.96 207.25 529.21 194.6 521.21 194.96 506.53 195.33 491.85 195.64 477.17 195.87 462.49 195.98 447.81 195.95 433.13 195.8 418.45 195.53 403.77 195.19 389.09 194.82 374.41 194.48 359.73 194.2 345.05 194.03 330.37 193.99 315.69 194.08 301.01 194.3 286.33 207.26 280.11 220.23 273.53 233.22 266.52 246.22 259.05 259.21 251.11 272.21 242.74 285.19 233.97 298.15 224.91 311.09 215.64 324 206.29 336.88 196.99 349.73 187.87 362.55 179.04 375.33 170.6 394.44 158.92 400.8 155.2" stroke-dasharray="44 2" transform="rotate(26.962962962962962, 400, 400)" opacity="0.10"></path><path d="M400.88 161.04Q413.45 168.87 425.99 177.15 438.49 185.8 450.97 194.72 463.41 203.8 475.82 212.93 488.21 221.98 500.57 230.84 512.91 239.42 525.24 247.63 537.57 255.43 549.89 262.78 562.21 269.69 574.54 276.18 586.89 282.32 599.26 288.17 599.07 302.52 599 316.86 599.05 331.21 599.23 345.56 599.51 359.9 599.85 374.25 600.21 388.59 600.54 402.94 600.8 417.28 600.96 431.63 600.99 445.98 600.9 460.32 600.69 474.67 600.39 489.02 600.04 503.36 599.68 517.71 587.02 525.67 574.37 533.43 561.74 540.94 549.13 548.2 536.56 555.22 524.01 562.03 511.5 568.64 499.01 575.12 486.56 581.52 474.14 587.88 461.75 594.27 449.38 600.73 437.04 607.31 424.7 614.05 412.38 620.96 400.06 628.05 387.38 620.74 374.7 613.62 362.03 606.69 349.38 599.94 336.75 593.35 324.14 586.9 311.56 580.52 299.01 574.19 286.49 567.82 274 561.38 261.55 554.8 249.12 548.04 236.73 541.06 224.36 533.84 212.01 526.36 199.67 518.63 200.03 504.32 200.38 490.01 200.68 475.7 200.89 461.39 200.98 447.08 200.95 432.77 200.79 418.46 200.53 404.15 200.2 389.84 199.84 375.53 199.5 361.22 199.22 346.91 199.04 332.6 198.99 318.29 199.06 303.98 199.25 289.67 211.88 283.46 224.53 276.89 237.2 269.91 249.88 262.49 262.56 254.63 275.24 246.36 287.91 237.75 300.56 228.87 313.2 219.82 325.82 210.72 338.4 201.68 350.96 192.81 363.49 184.24 375.98 176.04 394.66 164.67 400.88 161.04" stroke-dasharray="2 5" transform="rotate(28.88888888888889, 400, 400)" opacity="0.52"></path><path d="M400.94 166.88Q413.17 174.5 425.37 182.55 437.54 190.95 449.68 199.62 461.79 208.44 473.88 217.33 485.94 226.16 497.98 234.83 510.01 243.24 522.02 251.33 534.03 259.04 546.05 266.33 558.07 273.2 570.1 279.66 582.14 285.77 594.21 291.59 594.04 305.56 594 319.54 594.07 333.52 594.26 347.49 594.53 361.47 594.87 375.44 595.22 389.42 595.54 403.39 595.79 417.37 595.95 431.34 595.99 445.32 595.91 459.29 595.72 473.27 595.43 487.24 595.1 501.22 594.75 515.19 582.4 522.89 570.06 530.37 557.73 537.62 545.43 544.63 533.15 551.41 520.91 557.98 508.69 564.39 496.5 570.67 484.34 576.88 472.21 583.07 460.11 589.29 448.04 595.58 435.99 602 423.95 608.56 411.93 615.3 399.92 622.22 387.55 615.09 375.2 608.14 362.86 601.38 350.54 594.79 338.23 588.37 325.96 582.07 313.71 575.86 301.49 569.7 289.3 563.52 277.15 557.27 265.02 550.91 252.92 544.38 240.85 537.65 228.8 530.69 216.76 523.49 204.74 516.04 205.09 502.1 205.42 488.15 205.71 474.21 205.9 460.27 205.98 446.32 205.94 432.38 205.78 418.44 205.53 404.49 205.21 390.55 204.86 376.61 204.52 362.66 204.25 348.72 204.06 334.77 203.99 320.83 204.03 306.89 204.2 292.94 216.51 286.75 228.84 280.2 241.18 273.25 253.54 265.88 265.9 258.11 278.26 249.97 290.62 241.51 302.97 232.83 315.31 224 327.62 215.14 339.91 206.36 352.18 197.76 364.41 189.44 376.62 181.48 394.86 170.41 400.94 166.88" stroke-dasharray="23 38" transform="rotate(30.814814814814813, 400, 400)" opacity="0.89"></path><path d="M400.98 172.71Q412.87 180.13 424.73 187.95 436.57 196.11 448.38 204.52 460.16 213.09 471.92 221.73 483.66 230.34 495.38 238.81 507.09 247.06 518.8 255.01 530.5 262.62 542.21 269.84 553.93 276.66 565.65 283.1 577.4 289.18 589.17 294.97 589.03 308.57 589 322.18 589.09 335.78 589.28 349.39 589.56 362.99 589.88 376.6 590.23 390.2 590.54 403.81 590.79 417.41 590.95 431.02 590.99 444.62 590.93 458.23 590.75 471.83 590.48 485.43 590.16 499.04 589.82 512.64 577.78 520.07 565.75 527.29 553.73 534.27 541.74 541.03 529.76 547.57 517.81 553.92 505.89 560.12 494 566.2 482.13 572.23 470.3 578.25 458.49 584.3 446.71 590.43 434.95 596.68 423.21 603.08 411.49 609.65 399.77 616.39 387.73 609.43 375.71 602.66 363.69 596.06 351.7 589.64 339.73 583.38 327.79 577.24 315.87 571.2 303.99 565.2 292.13 559.2 280.3 553.15 268.5 547 256.73 540.69 244.97 534.21 233.24 527.51 221.52 520.57 209.81 513.4 210.15 499.83 210.47 486.25 210.74 472.67 210.92 459.09 210.98 445.52 210.94 431.94 210.78 418.36 210.53 404.79 210.22 391.21 209.87 377.63 209.55 364.05 209.27 350.48 209.08 336.9 208.99 323.32 209.02 309.74 209.16 296.16 221.14 289.99 233.14 283.47 245.17 276.55 257.2 269.25 269.24 261.57 281.29 253.56 293.34 245.27 305.37 236.79 317.4 228.19 329.41 219.57 341.4 211.05 353.37 202.71 365.32 194.64 377.23 186.91 395.05 176.15 400.98 172.71" stroke-dasharray="25 88" transform="rotate(32.74074074074074, 400, 400)" opacity="0.35"></path><path d="M400.99 178.56Q412.55 185.77 424.08 193.36 435.58 201.27 447.06 209.43 458.52 217.75 469.95 226.15 481.37 234.52 492.78 242.79 504.18 250.86 515.57 258.68 526.97 266.17 538.38 273.31 549.79 280.08 561.22 286.48 572.66 292.54 584.13 298.29 584.01 311.53 584.01 324.76 584.11 338 584.31 351.24 584.58 364.47 584.9 377.71 585.23 390.95 585.54 404.18 585.78 417.42 585.94 430.66 585.99 443.89 585.94 457.13 585.78 470.36 585.53 483.6 585.22 496.83 584.89 510.07 573.17 517.23 561.45 524.17 549.74 530.9 538.05 537.4 526.38 543.7 514.73 549.84 503.1 555.83 491.5 561.73 479.93 567.58 468.39 573.42 456.87 579.31 445.39 585.28 433.92 591.36 422.47 597.59 411.05 603.98 399.64 610.54 387.92 603.77 376.22 597.17 364.54 590.74 352.88 584.49 341.24 578.38 329.63 572.41 318.05 566.52 306.5 560.69 294.97 554.87 283.47 549.01 271.99 543.06 260.54 536.98 249.1 530.74 237.69 524.29 226.28 517.63 214.88 510.73 215.21 497.52 215.52 484.31 215.77 471.1 215.93 457.88 215.98 444.67 215.93 431.46 215.77 418.24 215.53 405.03 215.22 391.82 214.89 378.6 214.57 365.39 214.3 352.18 214.1 338.96 214 325.75 214 312.54 214.12 299.32 225.78 293.17 237.46 286.68 249.15 279.81 260.87 272.58 272.59 265.01 284.32 257.14 296.05 249.03 307.77 240.75 319.49 232.38 331.2 224.02 342.89 215.75 354.56 207.67 366.21 199.85 377.83 192.36 395.21 181.9 400.99 178.56" stroke-dasharray="2 7" transform="rotate(34.666666666666664, 400, 400)" opacity="0.53"></path><path d="M400.99 184.39Q412.21 191.4 423.41 198.77 434.58 206.44 445.73 214.34 456.86 222.41 467.98 230.56 479.08 238.71 490.17 246.76 501.26 254.66 512.35 262.32 523.44 269.69 534.54 276.74 545.65 283.45 556.78 289.81 567.93 295.83 579.1 301.55 579 314.42 579.01 327.29 579.13 340.17 579.33 353.04 579.61 365.91 579.92 378.78 580.24 391.65 580.54 404.52 580.78 417.39 580.94 430.26 580.99 443.13 580.95 456 580.8 468.87 580.57 481.74 580.28 494.61 579.96 507.48 568.55 514.37 557.15 521.04 545.75 527.5 534.37 533.76 523 539.83 511.65 545.74 500.32 551.54 489.02 557.25 477.75 562.92 466.5 568.6 455.28 574.32 444.08 580.12 432.9 586.05 421.75 592.11 410.62 598.33 399.51 604.71 388.12 598.12 376.75 591.69 365.4 585.43 354.07 579.34 342.77 573.39 331.49 567.57 320.24 561.85 309.02 556.19 297.82 550.54 286.64 544.86 275.49 539.12 264.36 533.26 253.24 527.24 242.14 521.05 231.04 514.65 219.95 508.04 220.27 495.19 220.56 482.33 220.79 469.48 220.94 456.63 220.98 443.78 220.93 430.93 220.77 418.08 220.53 405.23 220.23 392.37 219.91 379.52 219.6 366.67 219.32 353.82 219.12 340.97 219 328.12 218.99 315.26 219.09 302.41 230.42 296.29 241.77 289.83 253.15 283.02 264.53 275.88 275.93 268.43 287.34 260.71 298.75 252.78 310.17 244.71 321.57 236.58 332.97 228.46 344.36 220.45 355.73 212.62 367.08 205.05 378.41 197.8 395.35 187.64 400.99 184.39" stroke-dasharray="57 49" transform="rotate(36.592592592592595, 400, 400)" opacity="0.75"></path><path d="M400.97 190.22Q411.86 197.03 422.72 204.18 433.57 211.61 444.39 219.26 455.2 227.08 466 234.98 476.79 242.89 487.57 250.74 498.35 258.44 509.13 265.94 519.92 273.19 530.71 280.15 541.53 286.78 552.35 293.09 563.2 299.08 574.07 304.77 574 317.27 574.03 329.77 574.15 342.28 574.36 354.78 574.63 367.29 574.94 379.79 575.25 392.3 575.54 404.8 575.77 417.31 575.93 429.81 575.99 442.32 575.96 454.82 575.83 467.33 575.62 479.83 575.34 492.34 575.04 504.84 563.94 511.46 552.85 517.87 541.76 524.07 530.69 530.09 519.63 535.93 508.58 541.64 497.56 547.23 486.56 552.76 475.58 558.26 464.62 563.77 453.69 569.33 442.78 574.97 431.9 580.73 421.04 586.62 410.21 592.67 399.38 598.87 388.33 592.46 377.29 586.21 366.27 580.12 355.28 574.19 344.31 568.4 333.36 562.74 322.44 557.17 311.55 551.67 300.67 546.19 289.82 540.7 278.99 535.15 268.18 529.5 257.38 523.72 246.59 517.77 235.81 511.63 225.03 505.29 225.33 492.8 225.61 480.31 225.82 467.82 225.95 455.33 225.98 442.84 225.92 430.34 225.76 417.85 225.53 405.36 225.24 392.87 224.93 380.38 224.62 367.89 224.35 355.4 224.14 342.91 224.02 330.42 223.99 317.93 224.06 305.44 235.06 299.35 246.09 292.93 257.14 286.2 268.21 279.15 279.28 271.83 290.37 264.27 301.46 256.53 312.56 248.68 323.65 240.78 334.74 232.92 345.82 225.16 356.89 217.59 367.94 210.26 378.97 203.24 395.47 193.39 400.97 190.22" stroke-dasharray="54 85" transform="rotate(38.51851851851852, 400, 400)" opacity="0.99"></path><path d="M400.92 196.07Q411.48 202.68 422.02 209.59 432.54 216.78 443.04 224.19 453.53 231.76 464.01 239.41 474.49 247.09 484.96 254.71 495.43 262.22 505.91 269.56 516.39 276.67 526.89 283.51 537.4 290.07 547.93 296.32 558.47 302.26 569.04 307.92 569 320.06 569.04 332.2 569.18 344.34 569.39 356.48 569.66 368.62 569.96 380.76 570.26 392.9 570.54 405.04 570.77 417.19 570.92 429.33 570.99 441.47 570.97 453.61 570.85 465.75 570.66 477.89 570.4 490.03 570.11 502.18 559.33 508.52 548.55 514.66 537.78 520.62 527.02 526.39 516.26 532.01 505.52 537.51 494.8 542.91 484.1 548.26 473.42 553.58 462.76 558.93 452.12 564.33 441.51 569.81 430.92 575.4 420.35 581.13 409.8 587 399.28 593.03 388.55 586.8 377.85 580.72 367.16 574.8 356.5 569.03 345.86 563.4 335.25 557.9 324.66 552.49 314.09 547.15 303.54 541.84 293.01 536.52 282.5 531.17 272.01 525.72 261.52 520.16 251.04 514.46 240.57 508.58 230.1 502.5 230.39 490.37 230.65 478.24 230.84 466.11 230.96 453.98 230.98 441.85 230.91 429.71 230.76 417.58 230.53 405.45 230.25 393.32 229.95 381.19 229.65 369.06 229.38 356.93 229.17 344.8 229.03 332.67 228.99 320.54 229.03 308.41 239.71 302.35 250.42 295.99 261.14 289.33 271.88 282.4 282.63 275.21 293.4 267.82 304.17 260.28 314.95 252.65 325.73 244.99 336.51 237.38 347.28 229.88 358.04 222.57 368.78 215.48 379.52 208.69 395.58 199.14 400.92 196.07" stroke-dasharray="4 2" transform="rotate(40.44444444444444, 400, 400)" opacity="0.73"></path><path d="M400.86 201.9Q411.09 208.31 421.3 215 431.5 221.96 441.68 229.12 451.86 236.43 462.02 243.84 472.19 251.28 482.35 258.68 492.52 265.99 502.69 273.15 512.88 280.12 523.07 286.84 533.28 293.3 543.51 299.48 553.76 305.38 564.02 310.99 564 322.77 564.06 334.55 564.2 346.33 564.42 358.11 564.68 369.89 564.97 381.67 565.27 393.45 565.54 405.23 565.76 417.02 565.92 428.8 565.99 440.58 565.98 452.36 565.88 464.14 565.7 475.92 565.46 487.7 565.18 499.48 554.72 505.55 544.26 511.43 533.8 517.14 523.35 522.68 512.9 528.08 502.47 533.37 492.05 538.59 481.65 543.75 471.27 548.91 460.91 554.09 450.56 559.33 440.25 564.65 429.95 570.09 419.67 575.65 409.42 581.35 399.18 587.19 388.79 581.14 378.42 575.24 368.07 569.49 357.74 563.88 347.43 558.41 337.15 553.06 326.89 547.81 316.64 542.63 306.42 537.48 296.21 532.34 286.02 527.17 275.84 521.93 265.66 516.59 255.5 511.12 245.33 505.49 235.17 499.68 235.45 487.91 235.69 476.13 235.87 464.36 235.97 452.58 235.98 440.81 235.91 429.04 235.75 417.26 235.53 405.49 235.26 393.71 234.96 381.94 234.67 370.16 234.41 358.39 234.19 346.62 234.05 334.84 233.99 323.07 234.01 311.3 244.37 305.29 254.75 298.99 265.15 292.43 275.56 285.61 285.99 278.58 296.43 271.37 306.89 264.03 317.34 256.62 327.81 249.21 338.27 241.85 348.72 234.61 359.18 227.54 369.62 220.7 380.05 214.13 395.66 204.88 400.86 201.9" stroke-dasharray="33 63" transform="rotate(42.37037037037037, 400, 400)" opacity="0.46"></path><path d="M400.78 207.74Q410.68 213.94 420.57 220.42 430.45 227.13 440.31 234.05 450.17 241.11 460.03 248.28 469.89 255.47 479.75 262.66 489.61 269.76 499.48 276.74 509.36 283.55 519.26 290.15 529.17 296.51 539.1 302.61 549.04 308.45 559.01 314.02 559 325.44 559.08 336.86 559.23 348.28 559.45 359.69 559.71 371.11 559.99 382.53 560.28 393.95 560.54 405.37 560.76 416.79 560.91 428.21 560.99 439.63 560.98 451.05 560.9 462.47 560.74 473.89 560.51 485.31 560.25 496.73 550.11 502.53 539.96 508.16 529.82 513.62 519.68 518.94 509.55 524.13 499.42 529.22 489.31 534.25 479.21 539.24 469.13 544.23 459.07 549.25 449.02 554.33 439 559.5 429 564.77 419.01 570.16 409.05 575.69 399.11 581.36 389.05 575.49 379.01 569.76 368.99 564.17 359 558.73 349.02 553.42 339.06 548.22 329.12 543.12 319.21 538.1 309.3 533.11 299.41 528.15 289.54 523.16 279.67 518.11 269.81 512.98 259.95 507.74 250.1 502.35 240.24 496.81 240.5 485.39 240.73 473.97 240.89 462.55 240.97 451.14 240.98 439.72 240.9 428.3 240.75 416.88 240.53 405.47 240.27 394.05 239.98 382.63 239.7 371.21 239.44 359.8 239.22 348.38 239.07 336.96 238.99 325.55 239 314.13 249.03 308.17 259.09 301.96 269.16 295.5 279.25 288.81 289.35 281.94 299.47 274.91 309.6 267.78 319.74 260.6 329.88 253.43 340.03 246.33 350.17 239.34 360.31 232.52 370.44 225.92 380.57 219.57 395.73 210.62 400.78 207.74" stroke-dasharray="6 89" transform="rotate(44.2962962962963, 400, 400)" opacity="0.26"></path><path d="M400.68 213.58Q410.26 219.58 419.83 225.84 429.39 232.32 438.94 238.99 448.49 245.81 458.04 252.72 467.59 259.68 477.14 266.63 486.7 273.53 496.27 280.32 505.85 286.97 515.45 293.43 525.06 299.67 534.69 305.69 544.33 311.45 554 316.98 554.01 328.04 554.1 339.1 554.26 350.16 554.48 361.22 554.73 372.28 555.01 383.34 555.29 394.4 555.54 405.46 555.75 416.52 555.9 427.58 555.98 438.64 555.99 449.7 555.92 460.76 555.77 471.82 555.57 482.88 555.32 493.94 545.5 499.48 535.67 504.86 525.84 510.08 516.02 515.17 506.2 520.16 496.38 525.06 486.58 529.9 476.79 534.72 467.01 539.55 457.24 544.41 447.5 549.33 437.77 554.33 428.06 559.44 418.37 564.67 408.7 570.03 399.05 575.52 389.33 569.83 379.62 564.27 369.93 558.85 360.27 553.57 350.62 548.42 340.99 543.38 331.37 538.43 321.78 533.56 312.19 528.74 302.62 523.94 293.06 519.13 283.51 514.27 273.96 509.35 264.41 504.33 254.86 499.18 245.31 493.89 245.56 482.83 245.76 471.77 245.91 460.71 245.98 449.64 245.97 438.58 245.89 427.52 245.74 416.46 245.53 405.4 245.28 394.33 245 383.27 244.72 372.21 244.47 361.15 244.25 350.09 244.09 339.02 244 327.96 243.99 316.9 253.7 311.01 263.43 304.88 273.18 298.54 282.94 291.99 292.72 285.29 302.51 278.45 312.32 271.54 322.13 264.59 331.96 257.67 341.78 250.82 351.61 244.08 361.44 237.51 371.26 231.15 381.08 225.03 395.78 216.37 400.68 213.58" stroke-dasharray="47 80" transform="rotate(46.22222222222222, 400, 400)" opacity="0.71"></path><path d="M400.57 219.42Q409.83 225.22 419.08 231.26 428.33 237.51 437.57 243.93 446.81 250.5 456.05 257.17 465.29 263.89 474.54 270.61 483.8 277.29 493.07 283.89 502.35 290.36 511.65 296.67 520.96 302.79 530.29 308.71 539.63 314.4 549 319.86 549.03 330.56 549.13 341.27 549.29 351.97 549.51 362.68 549.76 373.38 550.03 384.08 550.29 394.79 550.54 405.49 550.74 416.2 550.89 426.9 550.98 437.6 550.99 448.31 550.93 459.01 550.8 469.71 550.62 480.42 550.39 491.12 540.88 496.4 531.38 501.53 521.87 506.52 512.36 511.39 502.85 516.17 493.35 520.88 483.85 525.55 474.37 530.2 464.89 534.86 455.43 539.56 445.98 544.33 436.56 549.17 427.14 554.12 417.75 559.18 408.37 564.37 399.01 569.68 389.62 564.17 380.25 558.79 370.89 553.54 361.55 548.42 352.23 543.42 342.92 538.54 333.63 533.74 324.36 529.03 315.09 524.36 305.84 519.73 296.59 515.09 287.35 510.42 278.11 505.7 268.87 500.89 259.62 495.98 250.38 490.94 250.61 480.23 250.79 469.52 250.92 458.81 250.98 448.1 250.97 437.39 250.88 426.68 250.73 415.98 250.53 405.27 250.28 394.56 250.02 383.85 249.75 373.14 249.5 362.43 249.28 351.72 249.12 341.01 249.02 330.3 248.99 319.59 258.37 313.78 267.78 307.76 277.2 301.54 286.64 295.15 296.09 288.62 305.56 281.99 315.04 275.3 324.54 268.59 334.04 261.91 343.54 255.31 353.05 248.83 362.56 242.51 372.07 236.38 381.58 230.47 395.82 222.12 400.57 219.42" stroke-dasharray="18 73" transform="rotate(48.148148148148145, 400, 400)" opacity="0.32"></path><path d="M400.45 225.25Q409.39 230.85 418.33 236.67 427.26 242.69 436.19 248.88 445.12 255.2 454.06 261.62 463 268.1 471.95 274.59 480.91 281.05 489.88 287.45 498.86 293.74 507.85 299.9 516.86 305.89 525.89 311.69 534.94 317.3 544 322.69 544.04 333.04 544.16 343.38 544.33 353.73 544.54 364.08 544.79 374.43 545.05 384.77 545.3 395.12 545.54 405.47 545.74 415.81 545.89 426.16 545.97 436.51 545.99 446.86 545.95 457.2 545.83 467.55 545.67 477.9 545.45 488.24 536.27 493.27 527.08 498.15 517.89 502.92 508.7 507.58 499.5 512.16 490.31 516.69 481.13 521.18 471.95 525.67 462.79 530.17 453.63 534.72 444.49 539.32 435.36 544.01 426.24 548.8 417.14 553.7 408.06 558.71 399 563.85 389.93 558.52 380.89 553.31 371.86 548.23 362.85 543.27 353.85 538.43 344.87 533.69 335.9 529.05 326.95 524.49 318 519.98 309.06 515.5 300.12 511.03 291.19 506.55 282.25 502.02 273.32 497.42 260.02 485.15 255.82 467.22 255.94 456.86 255.98 446.51 255.96 436.15 255.88 425.8 255.73 415.44 255.53 405.08 255.29 394.73 255.04 384.37 254.78 374.02 254.53 363.66 254.32 353.31 254.15 342.95 254.03 332.6 253.99 322.24 263.05 316.52 272.13 310.61 281.23 304.53 290.34 298.3 299.47 291.96 308.62 285.53 317.77 279.06 326.94 272.59 336.12 266.16 345.3 259.81 354.49 253.58 363.69 247.5 372.88 241.61 382.07 235.92 395.86 227.86 400.45 225.25" stroke-dasharray="6 82" transform="rotate(50.07407407407407, 400, 400)" opacity="0.32"></path><path d="M400.31 231.09Q408.94 236.5 417.57 242.1 426.19 247.89 434.82 253.84 443.44 259.92 452.08 266.09 460.71 272.32 469.36 278.58 478.02 284.82 486.69 291.01 495.37 297.11 504.07 303.1 512.78 308.95 521.5 314.64 530.25 320.14 539 325.45 539.07 335.44 539.19 345.44 539.36 355.43 539.57 365.42 539.81 375.41 540.06 385.4 540.31 395.4 540.54 405.39 540.73 415.38 540.88 425.37 540.97 435.36 540.99 445.35 540.96 455.34 540.86 465.34 536.18 482.71 522.78 494.75 513.91 499.29 505.04 503.75 496.16 508.14 487.28 512.49 478.41 516.81 469.55 521.13 460.69 525.47 451.84 529.86 443 534.32 434.17 538.85 425.36 543.47 416.56 548.2 407.77 553.05 399 558 390.27 552.86 381.55 547.83 372.85 542.91 364.17 538.12 355.49 533.43 346.83 528.85 338.18 524.36 329.54 519.94 320.91 515.59 312.28 511.27 303.65 506.97 295.03 502.66 286.4 498.31 277.77 493.92 264.92 482.16 260.85 464.87 260.95 454.86 260.98 444.86 260.96 434.86 260.87 424.86 260.72 414.85 260.53 404.85 260.3 394.85 260.05 384.85 259.8 374.84 259.56 364.84 259.35 354.84 259.18 344.83 259.06 334.83 258.99 324.83 267.74 319.21 276.49 313.43 285.27 307.49 294.06 301.44 302.86 295.29 311.68 289.08 320.51 282.84 329.35 276.61 338.21 270.43 347.07 264.33 355.94 258.35 364.81 252.51 373.69 246.85 382.56 241.38 395.88 233.61 400.31 231.09" stroke-dasharray="58 9" transform="rotate(52, 400, 400)" opacity="0.86"></path><path d="M400.17 236.93Q408.49 242.13 416.81 247.52 425.12 253.08 433.44 258.8 441.77 264.63 450.1 270.56 458.43 276.55 466.78 282.57 475.14 288.58 483.51 294.56 491.89 300.47 500.29 306.29 508.7 311.98 517.12 317.53 529.83 330.35 534.22 347.42 534.4 357.06 534.61 366.7 534.84 376.33 535.08 385.97 535.32 395.61 535.54 405.25 535.73 414.89 535.87 424.53 535.96 434.16 535.99 443.8 535.97 453.44 535.89 463.08 531.39 479.8 518.49 491.32 509.93 495.65 501.38 499.91 492.82 504.11 484.26 508.28 475.7 512.43 467.15 516.59 458.6 520.78 450.06 525.01 441.52 529.31 433 533.69 424.49 538.15 415.98 542.72 399.06 547.3 382.23 542.35 373.86 537.6 365.49 532.97 357.14 528.44 348.8 524.01 340.47 519.67 332.14 515.4 323.82 511.2 315.5 507.04 307.18 502.9 298.87 498.76 290.55 494.6 282.23 490.39 269.82 479.13 265.88 462.48 265.96 452.83 265.98 443.17 265.95 433.52 265.86 423.87 265.72 414.22 265.53 404.57 265.31 394.91 265.07 385.26 264.83 375.61 264.6 365.96 264.39 356.31 264.21 346.66 268.25 329.43 280.86 316.21 289.31 310.44 297.78 304.56 306.26 298.61 314.75 292.62 323.26 286.62 331.77 280.63 340.3 274.7 348.84 268.85 357.39 263.11 365.94 257.52 374.5 252.08 383.05 246.83 395.89 239.35 400.17 236.93" stroke-dasharray="10 68" transform="rotate(53.925925925925924, 400, 400)" opacity="0.52"></path><path d="M400.03 242.76Q408.04 247.77 416.05 252.95 424.06 258.28 432.08 263.76 440.1 269.35 448.13 275.03 456.16 280.78 464.21 286.56 472.27 292.35 480.34 298.11 488.42 303.82 496.51 309.46 504.62 314.99 512.75 320.4 525 332.87 529.26 349.36 529.43 358.64 529.64 367.93 529.87 377.21 530.1 386.49 530.33 395.78 530.54 405.06 530.72 414.35 530.86 423.63 530.95 432.92 530.99 442.2 530.98 451.49 530.91 460.77 526.6 476.85 514.18 487.85 505.95 491.97 497.71 496.04 489.47 500.06 481.23 504.06 472.99 508.05 464.75 512.05 456.51 516.08 448.28 520.16 440.06 524.31 431.84 528.53 423.63 532.83 415.43 537.23 399.12 541.64 382.93 536.87 374.88 532.29 366.83 527.82 358.8 523.45 350.77 519.17 342.76 514.98 334.74 510.86 326.73 506.81 318.72 502.8 310.71 498.81 302.7 494.84 294.69 490.85 286.68 486.84 274.72 476.06 270.9 460.04 270.97 450.74 270.98 441.44 270.94 432.14 270.85 422.84 270.71 413.54 270.53 404.24 270.32 394.94 270.09 385.64 269.86 376.34 269.63 367.04 269.42 357.74 269.25 348.44 273.12 331.8 285.24 318.97 293.36 313.37 301.51 307.69 309.66 301.95 317.83 296.18 326.01 290.41 334.2 284.67 342.41 278.98 350.62 273.38 358.84 267.89 367.07 262.53 375.31 257.32 383.55 252.29 395.91 245.1 400.03 242.76" stroke-dasharray="14 42" transform="rotate(55.851851851851855, 400, 400)" opacity="0.12"></path><path d="M399.89 248.61Q407.59 253.41 415.29 258.38 423 263.49 430.71 268.73 438.43 274.08 446.16 279.52 453.9 285.03 461.65 290.57 469.41 296.12 477.18 301.67 484.96 307.17 492.75 312.62 500.56 317.98 508.38 323.23 520.18 335.34 524.29 351.24 524.47 360.17 524.67 369.1 524.89 378.03 525.12 386.96 525.34 395.89 525.54 404.83 525.71 413.76 525.85 422.69 525.94 431.62 525.99 440.55 525.99 449.48 525.93 458.42 521.81 473.85 509.88 484.35 501.97 488.27 494.05 492.15 486.13 496 478.21 499.82 470.28 503.65 462.36 507.5 454.43 511.38 446.51 515.31 438.6 519.3 430.69 523.36 422.79 527.5 414.89 531.74 399.19 535.98 383.64 531.38 375.91 526.97 368.18 522.66 352.76 514.37 337.35 506.32 321.95 498.56 306.54 490.91 291.12 483.24 275.68 475.46 275.82 466.51 275.92 457.56 275.98 448.61 275.98 439.67 275.93 430.72 275.84 421.77 275.7 412.82 275.53 403.87 275.33 394.92 275.11 385.97 274.88 377.02 274.66 368.07 274.46 359.12 274.28 350.18 277.98 334.14 289.62 321.71 297.42 316.29 305.24 310.81 313.07 305.28 320.92 299.74 328.77 294.21 336.64 288.72 344.52 283.28 352.41 277.92 360.3 272.68 368.21 267.55 376.12 262.57 384.04 257.75 395.92 250.85 399.89 248.61" stroke-dasharray="35 36" transform="rotate(57.77777777777778, 400, 400)" opacity="0.52"></path><path d="M399.75 254.44Q414.54 263.8 429.36 273.7 444.21 284.01 459.1 294.58 474.02 305.22 489 315.76 504.01 326.03 519.08 335.9 519.33 353.06 519.71 370.22 520.14 387.38 520.54 404.54 520.84 421.7 520.99 438.86 520.95 456.02 520.74 473.18 505.57 480.82 490.39 488.25 475.18 495.59 459.96 502.95 444.75 510.45 429.55 518.2 414.37 526.25 399.21 534.66 384.36 525.9 369.54 517.52 354.74 509.49 339.96 501.78 325.17 494.3 310.38 486.97 295.56 479.66 280.73 472.26 280.94 455.06 280.98 437.86 280.83 420.66 280.53 403.46 280.13 386.26 279.7 369.06 279.32 351.87 279.07 334.67 294 324.43 308.99 313.92 324.01 303.31 339.09 292.77 354.2 282.47 369.36 272.58 384.54 263.21 399.75 254.44 399.75 254.44 399.75 254.44" stroke-dasharray="77 32" transform="rotate(59.7037037037037, 400, 400)" opacity="0.46"></path><path d="M399.61 260.28Q413.8 269.23 428.02 278.68 442.27 288.52 456.55 298.6 470.88 308.78 485.25 318.9 499.66 328.81 514.11 338.39 514.37 354.85 514.74 371.3 515.15 387.76 515.54 404.21 515.83 420.67 515.98 437.12 515.96 453.58 515.78 470.03 501.26 477.27 486.72 484.34 472.15 491.34 457.57 498.4 442.99 505.6 428.41 513.04 413.85 520.76 399.31 528.82 385.1 520.43 370.91 512.37 356.73 504.65 342.56 497.23 328.39 490.05 314.21 483.02 300 476.04 285.77 469 285.95 452.51 285.97 436.01 285.82 419.52 285.53 403.02 285.14 386.53 284.73 370.03 284.36 353.53 284.1 337.04 298.4 327.14 312.74 317.05 327.12 306.9 341.55 296.84 356.01 287.03 370.52 277.6 392.33 264.47 399.61 260.28" stroke-dasharray="53 87" transform="rotate(61.629629629629626, 400, 400)" opacity="0.70"></path><path d="M399.48 266.12Q413.07 274.67 426.69 283.67 440.34 293.03 454.02 302.63 467.75 312.34 481.51 322.03 495.31 331.57 509.15 340.83 509.42 356.59 509.78 372.34 510.17 388.09 510.54 403.84 510.82 419.59 510.97 435.34 510.98 451.09 510.82 466.84 496.95 473.69 483.04 480.4 469.12 487.09 455.18 493.84 441.23 500.74 427.28 507.87 413.35 515.27 399.42 522.98 385.84 514.94 372.28 507.22 358.73 499.81 345.17 492.69 331.61 485.8 318.04 479.07 304.44 472.41 290.81 465.72 290.97 449.93 290.96 434.13 290.81 418.34 290.53 402.55 290.16 386.76 289.77 370.96 289.41 355.17 289.14 339.37 302.8 329.85 316.5 320.18 330.24 310.49 344.02 300.93 357.83 291.61 371.68 282.64 392.52 270.12 399.48 266.12" stroke-dasharray="19 82" transform="rotate(63.55555555555556, 400, 400)" opacity="0.92"></path><path d="M399.36 271.95Q412.35 280.1 425.37 288.66 438.42 297.55 451.5 306.67 464.62 315.91 477.78 325.16 490.97 334.3 504.19 343.23 504.46 358.28 504.81 373.33 505.19 388.38 505.54 403.43 505.81 418.48 505.97 433.53 505.99 448.58 505.86 463.63 492.63 470.09 479.37 476.47 466.08 482.84 452.78 489.29 439.47 495.89 426.16 502.71 412.85 509.78 399.55 517.14 386.6 509.46 373.65 502.08 360.72 494.98 347.78 488.16 334.83 481.55 321.86 475.11 308.87 468.76 295.85 462.42 295.98 447.32 295.96 432.23 295.8 417.14 295.53 402.04 295.18 386.95 294.8 371.86 294.45 356.77 294.18 341.68 307.21 332.54 320.27 323.31 333.36 314.1 346.5 305.02 359.66 296.18 372.87 287.68 392.73 275.77 399.36 271.95" stroke-dasharray="65 39" transform="rotate(65.48148148148148, 400, 400)" opacity="0.58"></path><path d="M399.26 277.8Q411.65 285.54 424.07 293.66 436.51 302.08 449 310.72 461.51 319.49 474.05 328.29 486.63 337.03 499.23 345.6 499.51 359.94 499.85 374.29 500.21 388.63 500.54 402.98 500.8 417.33 500.96 431.67 500.99 446.02 500.9 460.36 488.3 466.47 475.69 472.51 463.04 478.58 450.39 484.73 437.71 491.03 425.04 497.54 412.36 504.29 399.68 511.3 387.35 503.98 375.03 496.93 362.71 490.15 350.38 483.62 338.04 477.3 325.68 471.15 313.29 465.1 300.89 459.08 300.98 444.69 300.95 430.3 300.79 415.91 300.53 401.53 300.2 387.14 299.84 372.75 299.5 358.36 299.22 343.97 311.62 335.25 324.04 326.46 336.5 317.73 348.99 309.13 361.51 300.78 374.06 292.73 392.95 281.43 399.26 277.8" stroke-dasharray="66 0" transform="rotate(67.4074074074074, 400, 400)" opacity="0.99"></path><path d="M399.17 283.63Q410.96 290.98 422.78 298.65 434.62 306.61 446.5 314.78 458.4 323.08 470.34 331.43 482.3 339.75 494.28 347.94 494.56 361.59 494.88 375.23 495.23 388.87 495.54 402.51 495.79 416.15 495.95 429.79 495.99 443.43 495.93 457.07 483.97 462.82 472 468.55 460 474.31 447.98 480.17 435.95 486.18 423.91 492.38 411.87 498.8 399.82 505.46 388.11 498.51 376.41 491.79 364.7 485.32 352.98 479.09 341.24 473.06 329.49 467.19 317.71 461.43 305.92 455.73 305.98 442.04 305.94 428.36 305.78 414.68 305.53 401 305.22 387.31 304.87 373.63 304.55 359.94 304.27 346.26 316.04 337.95 327.83 329.63 339.64 321.37 351.49 313.26 363.37 305.37 375.27 297.78 393.19 287.08 399.17 283.63" stroke-dasharray="77 30" transform="rotate(69.33333333333333, 400, 400)" opacity="0.48"></path><path d="M399.1 289.47Q410.29 296.41 421.5 303.66 432.75 311.15 444.01 318.85 455.31 326.68 466.63 334.57 477.97 342.45 489.33 350.25 489.61 363.19 489.92 376.13 490.24 389.07 490.54 402.01 490.78 414.95 490.94 427.88 490.99 440.82 490.95 453.76 479.64 459.17 468.3 464.59 456.95 470.05 445.57 475.62 434.18 481.33 422.78 487.22 411.38 493.32 399.96 499.63 388.87 493.03 377.78 486.65 366.68 480.5 355.57 474.57 344.44 468.82 333.29 463.24 322.13 457.77 310.94 452.36 310.98 439.39 310.93 426.41 310.77 413.43 310.53 400.45 310.23 387.47 309.91 374.49 309.6 361.51 309.32 348.53 320.46 340.66 331.62 332.8 342.8 325.02 354.01 317.4 365.24 309.98 376.5 302.83 393.44 292.73 399.1 289.47" stroke-dasharray="71 56" transform="rotate(71.25925925925927, 400, 400)" opacity="0.31"></path><path d="M399.04 295.31Q409.63 301.86 420.25 308.67 430.88 315.71 441.54 322.94 452.22 330.29 462.93 337.72 473.65 345.16 484.39 352.56 484.66 364.79 484.96 377.02 485.26 389.25 485.54 401.48 485.77 413.71 485.92 425.95 485.99 438.18 485.97 450.41 475.3 455.51 464.6 460.62 453.89 465.79 443.16 471.06 432.41 476.48 421.65 482.05 410.88 487.82 400.11 493.79 389.63 487.55 379.15 481.51 368.66 475.68 358.15 470.04 347.63 464.58 337.09 459.28 326.54 454.09 315.96 448.98 315.98 436.71 315.91 424.44 315.76 412.17 315.53 399.9 315.25 387.63 314.95 375.35 314.65 363.08 314.38 350.81 324.89 343.39 335.42 336 345.96 328.7 356.53 321.55 367.13 314.6 377.74 307.89 393.71 298.38 399.04 295.31" stroke-dasharray="37 12" transform="rotate(73.18518518518519, 400, 400)" opacity="0.15"></path><path d="M399.01 301.15Q409 307.3 419 313.68 429.03 320.27 439.08 327.03 449.15 333.92 459.23 340.88 469.33 347.88 479.45 354.85 479.71 366.38 479.99 377.9 480.28 389.42 480.54 400.95 480.76 412.47 480.91 423.99 480.99 435.52 480.98 447.04 470.95 451.83 460.9 456.64 450.82 461.53 440.74 466.51 430.63 471.63 420.51 476.9 410.39 482.33 400.25 487.95 390.38 482.07 380.51 476.38 370.63 470.86 360.73 465.53 350.82 460.36 340.89 455.33 330.94 450.42 320.97 445.6 320.98 434.03 320.9 422.47 320.75 410.91 320.53 399.35 320.27 387.79 319.98 376.23 319.7 364.66 319.44 353.1 329.32 346.14 339.22 339.22 349.14 332.4 359.07 325.72 369.02 319.23 379 312.96 394 304.03 399.01 301.15" stroke-dasharray="15 84" transform="rotate(75.11111111111111, 400, 400)" opacity="0.51"></path><path d="M399 306.98Q408.38 312.74 417.78 318.7 427.19 324.85 436.63 331.14 446.08 337.56 455.54 344.06 465.02 350.59 474.51 357.13 474.76 367.95 475.03 378.77 475.29 389.59 475.54 400.41 475.74 411.22 475.89 422.04 475.98 432.86 475.99 443.67 466.6 448.15 457.18 452.68 447.75 457.27 438.3 461.97 428.84 466.78 419.37 471.74 409.88 476.85 400.39 482.12 391.13 476.6 381.86 471.24 372.59 466.05 363.3 461.02 353.99 456.14 344.67 451.39 335.34 446.76 325.98 442.22 325.97 431.37 325.88 420.51 325.73 409.66 325.53 398.81 325.28 387.96 325.02 377.1 324.75 366.25 324.5 355.4 333.76 348.89 343.03 342.45 352.32 336.11 361.62 329.91 370.94 323.87 380.27 318.02 394.31 309.68 399 306.98" stroke-dasharray="72 36" transform="rotate(77.03703703703704, 400, 400)" opacity="0.26"></path><path d="M399 312.82Q407.78 318.19 416.57 323.73 425.37 329.43 434.19 335.27 443.02 341.22 451.86 347.25 460.71 353.33 469.57 359.43 469.81 369.54 470.06 379.64 470.31 389.75 470.54 399.86 470.73 409.96 470.88 420.07 466.6 437.32 453.46 448.7 444.67 453.01 435.86 457.42 427.04 461.93 418.21 466.58 409.37 471.35 400.51 476.27 391.87 471.12 383.21 466.11 374.54 461.24 365.86 456.52 357.16 451.93 348.45 447.46 335.34 435.9 330.87 418.56 330.72 408.42 330.53 398.28 330.3 388.14 330.05 378 329.8 367.86 329.56 357.72 338.2 351.68 346.85 345.72 355.51 339.85 364.18 334.11 372.86 328.52 381.56 323.1 394.64 315.34 399 312.82" stroke-dasharray="13 78" transform="rotate(78.96296296296296, 400, 400)" opacity="0.87"></path><path d="M399.03 318.66Q407.19 323.63 415.37 328.76 423.56 334.02 431.76 339.41 439.96 344.89 448.18 350.46 460.64 363.6 465.1 380.51 465.33 389.91 465.54 399.3 465.72 408.7 465.86 418.09 461.91 434.14 449.73 444.74 441.58 448.76 433.41 452.88 425.23 457.09 417.04 461.42 400.72 465.76 384.54 460.98 376.48 456.44 368.4 452.02 360.32 447.73 352.22 443.54 340.03 432.75 335.85 416.61 335.71 407.19 335.53 397.76 335.32 388.34 335.09 378.91 338.75 362 350.67 349.01 358.71 343.61 366.75 338.33 374.8 333.18 382.86 328.18 394.99 321 399.03 318.66" stroke-dasharray="12 6" transform="rotate(80.88888888888889, 400, 400)" opacity="0.31"></path><path d="M399.08 324.49Q414.19 333.79 429.33 343.56 444.51 353.69 459.71 364.03 460.14 381.4 460.54 398.76 460.84 416.13 460.99 433.5 445.99 440.78 430.95 448.35 415.86 456.27 400.74 464.6 385.86 455.85 370.94 447.54 355.98 439.64 340.98 432.11 340.83 414.69 340.53 397.27 340.13 379.85 339.7 362.44 354.5 352.32 369.33 342.56 391.63 328.87 399.08 324.49" stroke-dasharray="84 49" transform="rotate(82.81481481481481, 400, 400)" opacity="0.27"></path><path d="M399.15 330.34Q413.02 338.83 426.92 347.73 440.84 356.94 454.78 366.37 455.17 382.3 455.54 398.24 455.82 414.17 455.97 430.1 442.24 436.83 428.48 443.81 414.67 451.11 400.82 458.76 387.16 450.73 373.47 443.06 359.73 435.75 345.96 428.77 345.81 412.79 345.53 396.81 345.16 380.83 344.77 364.85 358.33 355.67 371.91 346.81 392.33 334.34 399.15 330.34" stroke-dasharray="60 59" transform="rotate(84.74074074074073, 400, 400)" opacity="0.75"></path><path d="M399.23 336.17Q411.86 343.87 424.51 351.91 437.17 360.22 449.85 368.72 450.21 383.23 450.54 397.73 450.8 412.23 450.96 426.72 438.49 432.89 425.99 439.29 413.46 445.96 400.9 452.93 388.45 445.6 375.98 438.59 363.48 431.88 350.95 425.46 350.79 410.92 350.53 396.38 350.2 381.84 349.84 367.3 362.16 359.04 374.5 351.07 393.04 339.8 399.23 336.17" stroke-dasharray="65 41" transform="rotate(86.66666666666667, 400, 400)" opacity="0.84"></path><path d="M399.33 342.01Q410.71 348.92 422.11 356.1 433.51 363.51 444.92 371.1 445.24 384.17 445.54 397.23 445.78 410.3 445.94 423.37 434.73 428.97 423.49 434.78 412.24 440.81 400.95 447.09 389.73 440.49 378.49 434.14 367.22 428.04 355.93 422.18 355.77 409.08 355.53 395.98 355.23 382.88 354.91 369.78 366 362.45 377.1 355.35 393.77 345.27 399.33 342.01" stroke-dasharray="34 60" transform="rotate(88.5925925925926, 400, 400)" opacity="0.44"></path><path d="M399.45 347.85Q409.57 353.97 419.71 360.31 429.85 366.84 439.99 373.53 440.28 385.15 440.54 396.77 440.76 408.39 440.91 420.02 430.96 425.06 420.99 430.27 410.99 435.66 400.98 441.25 390.99 435.37 380.98 429.69 370.95 424.21 360.9 418.93 360.75 407.27 360.53 395.62 360.27 383.97 359.98 372.32 369.84 365.89 379.7 359.65 394.51 350.74 399.45 347.85" stroke-dasharray="66 82" transform="rotate(90.51851851851852, 400, 400)" opacity="0.28"></path><path d="M399.57 353.68Q408.44 359.03 417.31 364.54 426.19 370.2 435.06 375.99 435.31 386.17 435.54 396.35 431.46 413.84 418.47 425.77 409.74 430.51 400.99 435.41 392.23 430.25 383.46 425.25 370.2 412.96 365.53 395.32 365.3 385.12 365.05 374.91 373.68 369.36 382.31 363.96 395.25 356.21 399.57 353.68" stroke-dasharray="71 60" transform="rotate(92.44444444444444, 400, 400)" opacity="0.97"></path><path d="M399.71 359.52Q414.92 368.78 430.14 378.48 430.54 395.96 430.84 413.42 415.94 421.28 400.99 429.58 385.93 420.83 370.83 412.55 370.53 395.05 370.13 377.55 392.31 363.9 399.71 359.52" stroke-dasharray="78 68" transform="rotate(94.37037037037038, 400, 400)" opacity="0.18"></path><path d="M399.85 365.36Q412.53 373.04 425.21 381.03 425.54 395.59 425.8 410.16 413.39 416.8 400.96 423.73 388.38 416.42 375.79 409.42 375.53 394.83 375.2 380.24 393.68 368.99 399.85 365.36" stroke-dasharray="20 67" transform="rotate(96.29629629629629, 400, 400)" opacity="0.38"></path><path d="M399.99 371.2Q410.14 377.31 420.28 383.63 420.54 395.28 420.76 406.95 410.84 412.32 400.91 417.9 390.83 412.02 380.75 406.34 380.53 394.66 380.27 383 395.06 374.09 399.99 371.2" stroke-dasharray="64 57" transform="rotate(98.22222222222221, 400, 400)" opacity="0.56"></path><path d="M400.14 377.03Q411.64 388.31 415.71 403.78 400.77 407.75 385.7 403.32 394.63 382.49 400.14 377.03" stroke-dasharray="15 16" transform="rotate(100.14814814814814, 400, 400)" opacity="0.94"></path><path d="M400.28 382.87Q397.95 387.19 400.28 382.87" stroke-dasharray="44 14" transform="rotate(102.07407407407408, 400, 400)" opacity="0.23"></path></g></svg>