<?xml version="1.0" ?><!DOCTYPE svg  PUBLIC '-//W3C//DTD SVG 1.1//EN'  'http://www.w3.org/Graphics/SVG/1.1/DTD/svg11.dtd'><svg enable-background="new 0 0 512 512" height="512px" id="Слой_1" version="1.1" viewBox="0 0 512 512" width="512px" xml:space="preserve" xmlns="http://www.w3.org/2000/svg" xmlns:xlink="http://www.w3.org/1999/xlink"><g><g><g><path clip-rule="evenodd" d="M378.335,66.574c4.048,4.023,6.075,8.875,6.083,14.555      c-0.008,5.703-2.035,10.578-6.083,14.625c-4.046,4.045-8.923,6.072-14.625,6.082c-3.081,0.003-5.907-0.59-8.476-1.776      l-12.439,27.265h18.453c19.629-0.015,36.396,6.934,50.305,20.843h-0.069c13.94,13.879,20.911,30.621,20.915,50.227v11.617h4.921      c12.028,0,22.326,4.283,30.892,12.848c8.567,8.564,12.85,18.86,12.85,30.887v28.907c-0.053,2.469-0.28,4.86-0.683,7.175      c-1.564,8.579-5.62,16.145-12.167,22.687c-8.565,8.566-18.863,12.848-30.892,12.848h-4.921c0,9.931,0,19.863,0,29.796      c0.008,19.646-6.94,36.432-20.846,50.362c-13.49,13.486-29.666,20.435-48.526,20.843c-0.163,0.003-0.299,0.003-0.411,0      c-28.347,0-56.688,0-85.022,0c-0.95,1.338-2.044,2.613-3.281,3.825c-5.03,4.994-11.091,7.501-18.18,7.517      c-7.114-0.016-13.197-2.522-18.25-7.517c-5.051-4.971-7.581-11.006-7.586-18.108c0.005-7.101,2.535-13.139,7.586-18.109      c5.053-4.971,11.136-7.453,18.25-7.447c7.089-0.006,13.149,2.477,18.18,7.447c1.405,1.377,2.612,2.835,3.623,4.375h84.681      c11.307-0.32,21.012-4.535,29.117-12.642c8.433-8.449,12.646-18.633,12.644-30.546c0-52.256,0-104.51,0-156.764      c-0.002-11.867-4.218-22.004-12.644-30.409c-8.431-8.429-18.59-12.643-30.484-12.643H150.945      c-11.917-0.004-22.101,4.211-30.551,12.643c-8.427,8.405-12.643,18.542-12.644,30.409v126.968      c-9.342-0.021-18.682-0.045-28.022-0.069v0.069h-4.922c-12.029,0-22.326-4.281-30.893-12.848      c-6.546-6.542-10.6-14.107-12.166-22.687c-0.402-2.314-0.63-4.706-0.684-7.175v-28.907c0-12.026,4.284-22.322,12.85-30.887      c8.566-8.564,18.864-12.848,30.893-12.848h4.922v-11.617c0.001-19.605,6.973-36.348,20.914-50.227h-0.068      c13.931-13.903,30.721-20.853,50.371-20.843h18.317l-12.372-27.265c-2.591,1.187-5.44,1.779-8.543,1.776      c-5.703-0.01-10.579-2.037-14.625-6.082c-4.024-4.047-6.029-8.921-6.015-14.625c-0.015-5.68,1.99-10.532,6.015-14.555      c4.046-4.046,8.923-6.074,14.625-6.082c5.681,0.008,10.534,2.036,14.559,6.082c4.047,4.023,6.074,8.875,6.083,14.555      c0.012,5.435-1.788,10.126-5.4,14.077l34.993,32.118h114.96l34.993-32.118c-3.612-3.95-5.412-8.642-5.399-14.077      c-0.014-5.68,1.99-10.532,6.015-14.555c4.024-4.046,8.877-6.074,14.559-6.082C369.412,60.5,374.289,62.528,378.335,66.574z" fill="#008000" fill-rule="evenodd"/></g><g><path clip-rule="evenodd" d="M383.325,325.291h-59.053      c-3.045,4.527-6.621,8.831-10.729,12.917c-15.837,15.87-34.975,23.798-57.411,23.781c-22.431,0.017-41.59-7.911-57.48-23.781      c-4.089-4.086-7.642-8.39-10.663-12.917h-59.188v-17.903h254.524V325.291z" fill="#008000" fill-rule="evenodd"/></g><g><path clip-rule="evenodd" d="M179.103,229.144c-2.915,2.916-4.373,6.469-4.373,10.661      c0,4.191,1.458,7.744,4.373,10.66c2.917,2.914,6.425,4.374,10.526,4.374c4.101,0,7.61-1.46,10.526-4.374      c2.917-2.916,4.375-6.469,4.375-10.66c0-4.192-1.458-7.745-4.375-10.661c-2.916-2.915-6.425-4.372-10.526-4.372      C185.528,224.772,182.02,226.229,179.103,229.144z M156.139,239.805c0-9.295,3.281-17.221,9.842-23.781      c6.561-6.56,14.444-9.841,23.648-9.841s17.087,3.281,23.648,9.841c6.562,6.561,9.842,14.486,9.842,23.781      c0,9.294-3.28,17.221-9.842,23.781c-6.561,6.559-14.444,9.84-23.648,9.84s-17.087-3.281-23.648-9.84      C159.42,257.026,156.139,249.099,156.139,239.805z" fill="#008000" fill-rule="evenodd"/></g><g><path clip-rule="evenodd" d="M312.107,229.144c-2.916,2.916-4.374,6.469-4.374,10.661      c0,4.191,1.458,7.744,4.374,10.66c2.916,2.914,6.424,4.374,10.524,4.374c4.102,0,7.61-1.46,10.526-4.374      c2.917-2.916,4.374-6.469,4.374-10.66c0-4.192-1.457-7.745-4.374-10.661c-2.916-2.915-6.425-4.372-10.526-4.372      C318.531,224.772,315.023,226.229,312.107,229.144z M298.984,216.024c6.562-6.56,14.445-9.841,23.647-9.841      c9.204,0,17.087,3.281,23.649,9.841c6.562,6.561,9.841,14.486,9.841,23.781c0,9.294-3.279,17.221-9.841,23.781      c-6.563,6.559-14.445,9.84-23.649,9.84c-9.202,0-17.086-3.281-23.647-9.84c-6.561-6.561-9.842-14.487-9.842-23.781      C289.142,230.51,292.424,222.584,298.984,216.024z" fill="#008000" fill-rule="evenodd"/></g></g></g></svg>