<?xml version="1.0" encoding="UTF-8"?>
<svg viewBox="0 0 410.00003 589.69788" xmlns="http://www.w3.org/2000/svg">
 <defs>
  <linearGradient id="l" x2="0" y1="-381.25" y2="-23.16" gradientUnits="userSpaceOnUse">
   <stop stop-color="#515151" offset="0"/>
   <stop stop-color="#9b9b9b" offset=".5"/>
   <stop stop-color="#e5e5e5" offset="1"/>
  </linearGradient>
  <linearGradient id="k" x2="0" y1="-381.25" y2="-23.16" gradientUnits="userSpaceOnUse">
   <stop stop-color="#b9b9b9" offset="0"/>
   <stop stop-color="#747474" offset="1"/>
  </linearGradient>
  <linearGradient id="j" x1="-399.78" x2="-402.72" y1="-50.619" y2="-351.83" gradientUnits="userSpaceOnUse">
   <stop stop-color="#b9b9b9" offset="0"/>
   <stop stop-color="#fff" offset=".1948"/>
   <stop stop-color="#747474" offset=".3759"/>
   <stop stop-color="#dcdcdc" offset=".5546"/>
   <stop stop-color="#747474" offset=".6629"/>
   <stop stop-color="#b9b9b9" offset=".7826"/>
   <stop stop-color="#747474" offset="1"/>
  </linearGradient>
  <linearGradient id="i" x1="-401.74" x2="-397.72" y1="-381.25" y2="-87.46" gradientUnits="userSpaceOnUse">
   <stop stop-color="#b9b9b9" offset="0"/>
   <stop stop-color="#fff" offset=".3076"/>
   <stop stop-color="#747474" offset=".4546"/>
   <stop stop-color="#dcdcdc" offset=".5546"/>
   <stop stop-color="#747474" offset=".6629"/>
   <stop stop-color="#b9b9b9" offset=".851"/>
   <stop stop-color="#747474" offset="1"/>
  </linearGradient>
  <linearGradient id="o" x1="297.33" x2="362.67" gradientUnits="userSpaceOnUse">
   <stop stop-color="#515151" offset="0"/>
   <stop stop-color="#515151" offset=".596"/>
   <stop stop-color="#e5e5e5" offset="1"/>
  </linearGradient>
  <linearGradient id="n" x1="365.77" x2="372.75" y1="591.09" y2="587.72" gradientUnits="userSpaceOnUse">
   <stop stop-color="#070f24" offset="0"/>
   <stop stop-color="#4d4d4d" offset="1"/>
  </linearGradient>
  <linearGradient id="m" x1="315.29" x2="301.12" y1="455.51" y2="462.79" gradientUnits="userSpaceOnUse">
   <stop stop-color="#a29d7d" offset="0"/>
   <stop stop-color="#999" offset="1"/>
  </linearGradient>
  <radialGradient id="h" cx="350" cy="499.51" r="201.43" gradientUnits="userSpaceOnUse">
   <stop stop-color="#fff7ea" offset="0"/>
   <stop stop-color="#f6e7cd" offset=".6"/>
   <stop stop-color="#e6d5b1" offset=".9"/>
   <stop stop-color="#b18e72" offset="1"/>
  </radialGradient>
  <radialGradient id="a" cx="372.12" cy="531.11" r="5.875" gradientUnits="userSpaceOnUse">
   <stop stop-color="#fff" offset="0"/>
   <stop stop-color="#cecece" offset=".8165"/>
   <stop stop-color="#9e9e9e" offset="1"/>
  </radialGradient>
  <radialGradient id="b" cx="372.12" cy="531.11" r="6.375" gradientTransform="matrix(.99264 -.12188 .12187 .99255 -61.987 49.314)" gradientUnits="userSpaceOnUse">
   <stop offset="0"/>
   <stop stop-color="#b7b7b7" offset="1"/>
  </radialGradient>
  <radialGradient id="g" cx="330" cy="307.85" r="32.666" gradientTransform="matrix(1.3598 0 0 .1117 -118.73 273.46)" gradientUnits="userSpaceOnUse">
   <stop stop-color="#515151" offset="0"/>
   <stop stop-color="#515151" offset=".2"/>
   <stop stop-color="#e5e5e5" offset="1"/>
  </radialGradient>
  <radialGradient id="f" cx="317.89" cy="244.5" r="37.656" gradientTransform="matrix(1.4211 -.23506 .2024 1.2236 -183.6 25.628)" gradientUnits="userSpaceOnUse">
   <stop stop-color="#e5e5e5" offset="0"/>
   <stop stop-color="#515151" offset=".6199"/>
   <stop stop-color="#515151" offset="1"/>
  </radialGradient>
  <radialGradient id="d" cx="330" cy="297.56" r="32.166" gradientTransform="matrix(1.8679 -6.4434e-8 0 .2416 -286.41 225.89)" gradientUnits="userSpaceOnUse">
   <stop stop-color="#e5e5e5" offset="0"/>
   <stop stop-color="#515151" offset=".7302"/>
   <stop stop-color="#515151" offset="1"/>
  </radialGradient>
  <radialGradient id="c" cx="330.02" cy="288.47" r="32.666" gradientTransform="matrix(1.1138 0 0 .07056 -37.532 267.4)" gradientUnits="userSpaceOnUse">
   <stop stop-color="#515151" offset="0"/>
   <stop stop-color="#515151" offset=".737"/>
   <stop stop-color="#e5e5e5" offset="1"/>
  </radialGradient>
  <radialGradient id="e" cx="205" cy="76.562" r="77.062" gradientTransform="matrix(.98018 1.1736e-8 -1.0867e-8 .90764 129.06 134.74)" gradientUnits="userSpaceOnUse">
   <stop stop-color="#515151" offset="0"/>
   <stop stop-color="#515151" offset=".8617"/>
   <stop stop-color="#e5e5e5" offset="1"/>
  </radialGradient>
 </defs>
 <g transform="translate(-125 -127.66)">
  <path d="m330 127.66c-42.284 0-76.562 34.279-76.562 76.562s34.279 76.562 76.562 76.562 76.562-34.279 76.562-76.562-34.279-76.562-76.562-76.562zm0 14.375c34.353 0 62.188 27.834 62.188 62.188s-27.834 62.188-62.188 62.188-62.188-27.834-62.188-62.188 27.834-62.188 62.188-62.188z" fill="url(#e)"/>
  <path d="m297.83 305.55h64.332v4.61h-64.332z" fill="url(#g)"/>
  <path transform="matrix(1.145 0 0 1.145 789.98 743.88)" d="m-222.69-202.21c0 98.884-80.162 179.05-179.05 179.05s-179.05-80.162-179.05-179.05 80.162-179.05 179.05-179.05 179.05 80.162 179.05 179.05z" fill="url(#k)"/>
  <path transform="matrix(1.1254 0 0 1.1254 782.12 739.93)" d="m-222.69-202.21c0 98.884-80.162 179.05-179.05 179.05s-179.05-80.162-179.05-179.05 80.162-179.05 179.05-179.05 179.05 80.162 179.05 179.05z" fill="url(#j)"/>
  <path transform="matrix(1.0947 0 0 1.0947 769.78 733.72)" d="m-222.69-202.21c0 98.884-80.162 179.05-179.05 179.05s-179.05-80.162-179.05-179.05 80.162-179.05 179.05-179.05 179.05 80.162 179.05 179.05z" fill="url(#i)"/>
  <path transform="matrix(1.0584 0 0 1.0584 755.2 726.37)" d="m-222.69-202.21c0 98.884-80.162 179.05-179.05 179.05s-179.05-80.162-179.05-179.05 80.162-179.05 179.05-179.05 179.05 80.162 179.05 179.05z" fill="url(#l)"/>
  <path d="m330 232.75c-20.526 0-37.156 15.654-37.156 34.98 0 6.4332 1.7727 14.779 4.9901 19.958h64.332c3.2174-5.1794 4.9901-13.525 4.9901-19.958 0-19.326-16.63-34.98-37.156-34.98z" fill="url(#f)"/>
  <path d="m297.83 287.69h64.332v2.3118h-64.332z" fill="url(#c)"/>
  <path d="m297.83 290h64.332c-6.2821 9.3508-6.0969 6.6367 0 15.543h-64.332c6.5125-9.0408 5.8468-6.4928 0-15.543z" fill="url(#o)"/>
  <path d="m297.83 290h64.332c-6.2821 9.3508-6.0969 6.6367 0 15.543h-64.332c6.5125-9.0408 5.8468-6.4928 0-15.543z" fill="url(#d)" opacity=".3"/>
 </g>
 <path transform="matrix(.91099 0 0 .91099 -113.85 -70.348)" d="m551.43 499.51c0 111.25-90.183 201.43-201.43 201.43s-201.43-90.183-201.43-201.43 90.183-201.43 201.43-201.43 201.43 90.183 201.43 201.43z" fill="url(#h)"/>
 <g transform="translate(-125 -127.66)">
  <path d="m329.5 347.48h1v38h-1z"/>
  <path transform="rotate(20)" d="m484.84 203.71h1v38h-1z"/>
  <path transform="rotate(40)" d="m581.63 15.488h1v38h-1z"/>
  <path transform="rotate(60)" d="m608.22-194.49h1v38h-1z"/>
  <path transform="rotate(80)" d="m561.38-400.9h1v38h-1z"/>
  <path transform="matrix(-.17365,.98481,-.98481,-.17365,0,0)" d="m446.77-578.84h1v38h-1z"/>
  <path transform="matrix(-.5,.86603,-.86603,-.5,0,0)" d="m278.22-706.85h1v38h-1z"/>
  <path transform="matrix(-.76604,.64279,-.64279,-.76604,0,0)" d="m76.045-769.5h1v38h-1z"/>
  <path transform="matrix(-.93969,.34202,-.34202,-.93969,0,0)" d="m-135.36-759.21h1v38h-1z"/>
  <path transform="scale(-1)" d="m-330.5-677.25h1v38h-1z"/>
  <path transform="matrix(-.93969,-.34202,.34202,-.93969,0,0)" d="m-485.84-533.48h1v38h-1z"/>
  <path transform="matrix(-.76604,-.64279,.64279,-.76604,0,0)" d="m-582.63-345.26h1v38h-1z"/>
  <path transform="matrix(-.5,-.86603,.86603,-.5,0,0)" d="m-609.22-135.28h1v38h-1z"/>
  <path transform="matrix(-.17365,-.98481,.98481,-.17365,0,0)" d="m-562.38 71.132h1v38h-1z"/>
  <path transform="matrix(.17365,-.98481,.98481,.17365,0,0)" d="m-447.77 249.07h1v38h-1z"/>
  <path transform="matrix(.5,-.86603,.86603,.5,0,0)" d="m-279.22 377.09h1v38h-1z"/>
  <path transform="matrix(.76604,-.64279,.64279,.76604,0,0)" d="m-77.045 439.73h1v38h-1z"/>
  <path transform="matrix(.93969,-.34202,.34202,.93969,0,0)" d="m134.36 429.45h1v38h-1z"/>
  <path transform="rotate(20)" d="m484.84 203.71h1v38h-1z"/>
  <path transform="rotate(40)" d="m581.63 15.488h1v38h-1z"/>
  <path transform="rotate(60)" d="m608.22-194.49h1v38h-1z"/>
  <path transform="rotate(80)" d="m561.38-400.9h1v38h-1z"/>
  <path transform="matrix(-.17365,.98481,-.98481,-.17365,0,0)" d="m446.77-578.84h1v38h-1z"/>
  <path transform="matrix(-.5,.86603,-.86603,-.5,0,0)" d="m278.22-706.85h1v38h-1z"/>
  <path transform="matrix(-.76604,.64279,-.64279,-.76604,0,0)" d="m76.045-769.5h1v38h-1z"/>
  <path transform="matrix(-.93969,.34202,-.34202,-.93969,0,0)" d="m-135.36-759.21h1v38h-1z"/>
  <path transform="scale(-1)" d="m-330.5-677.25h1v38h-1z"/>
  <path transform="matrix(-.93969,-.34202,.34202,-.93969,0,0)" d="m-485.84-533.48h1v38h-1z"/>
  <path transform="matrix(-.76604,-.64279,.64279,-.76604,0,0)" d="m-582.63-345.26h1v38h-1z"/>
  <path transform="matrix(-.5,-.86603,.86603,-.5,0,0)" d="m-609.22-135.28h1v38h-1z"/>
  <path transform="matrix(-.17365,-.98481,.98481,-.17365,0,0)" d="m-562.38 71.132h1v38h-1z"/>
  <path transform="matrix(.17365,-.98481,.98481,.17365,0,0)" d="m-447.77 249.07h1v38h-1z"/>
  <path transform="matrix(.5,-.86603,.86603,.5,0,0)" d="m-279.22 377.09h1v38h-1z"/>
  <path transform="matrix(.76604,-.64279,.64279,.76604,0,0)" d="m-77.045 439.73h1v38h-1z"/>
  <path transform="matrix(.93969,-.34202,.34202,.93969,0,0)" d="m134.36 429.45h1v38h-1z"/>
  <path transform="rotate(10)" d="m412.96 270.39h2v50h-2z"/>
  <path transform="rotate(30)" d="m540.97 101.83h2v50h-2z"/>
  <path transform="rotate(50)" d="m603.61-100.34h2v50h-2z"/>
  <path transform="rotate(70)" d="m593.33-311.74h2v50h-2z"/>
  <path transform="rotate(90)" d="m511.36-506.88h2v50h-2z"/>
  <path transform="matrix(-.34202,.93969,-.93969,-.34202,0,0)" d="m367.6-662.22h2v50h-2z"/>
  <path transform="matrix(-.64279,.76604,-.76604,-.64279,0,0)" d="m179.37-759.02h2v50h-2z"/>
  <path transform="matrix(-.86603,.5,-.5,-.86603,0,0)" d="m-30.607-785.6h2v50h-2z"/>
  <path transform="matrix(-.98481,.17365,-.17365,-.98481,0,0)" d="m-237.02-738.77h2v50h-2z"/>
  <path transform="matrix(-.98481,-.17365,.17365,-.98481,0,0)" d="m-414.96-624.16h2v50h-2z"/>
  <path transform="matrix(-.86603,-.5,.5,-.86603,0,0)" d="m-542.97-455.6h2v50h-2z"/>
  <path transform="matrix(-.64279,-.76604,.76604,-.64279,0,0)" d="m-605.61-253.43h2v50h-2z"/>
  <path transform="matrix(-.34202,-.93969,.93969,-.34202,0,0)" d="m-595.33-42.024h2v50h-2z"/>
  <path transform="rotate(-90)" d="m-513.36 153.12h2v50h-2z"/>
  <path transform="matrix(.34202,-.93969,.93969,.34202,0,0)" d="m-369.6 308.45h2v50h-2z"/>
  <path transform="matrix(.64279,-.76604,.76604,.64279,0,0)" d="m-181.37 405.25h2v50h-2z"/>
  <path transform="matrix(.86603,-.5,.5,.86603,0,0)" d="m28.607 431.83h2v50h-2z"/>
  <path transform="matrix(.98481,-.17365,.17365,.98481,0,0)" d="m235.02 385h2v50h-2z"/>
  <path transform="rotate(2)" d="m347.18 352.65h1v21h-1z"/>
  <path transform="rotate(4)" d="m364.44 340.21h1v21h-1z"/>
  <path transform="rotate(6)" d="m381.25 327.18h1v21h-1z"/>
  <path transform="rotate(8)" d="m397.6 313.56h1v21h-1z"/>
  <path transform="rotate(12)" d="m428.81 284.67h1v21h-1z"/>
  <path transform="rotate(14)" d="m443.65 269.42h1v21h-1z"/>
  <path transform="rotate(16)" d="m457.94 253.67h1v21h-1z"/>
  <path transform="rotate(18)" d="m471.68 237.43h1v21h-1z"/>
  <path transform="rotate(22)" d="m497.4 203.55h1v21h-1z"/>
  <path transform="rotate(24)" d="m509.37 185.96h1v21h-1z"/>
  <path transform="rotate(26)" d="m520.71 167.96h1v21h-1z"/>
  <path transform="rotate(28)" d="m531.41 149.58h1v21h-1z"/>
  <path transform="rotate(32)" d="m550.87 111.75h1v21h-1z"/>
  <path transform="rotate(34)" d="m559.59 92.35h1v21h-1z"/>
  <path transform="rotate(36)" d="m567.63 72.656h1v21h-1z"/>
  <path transform="rotate(38)" d="m574.99 52.695h1v21h-1z"/>
  <path transform="rotate(42)" d="m587.58 12.062h1v21h-1z"/>
  <path transform="rotate(44)" d="m592.8-8.5588h1v21h-1z"/>
  <path transform="rotate(46)" d="m597.3-29.35h1v21h-1z"/>
  <path transform="rotate(48)" d="m601.07-50.285h1v21h-1z"/>
  <path transform="rotate(52)" d="m606.42-92.486h1v21h-1z"/>
  <path transform="rotate(54)" d="m607.98-113.7h1v21h-1z"/>
  <path transform="rotate(56)" d="m608.8-134.96h1v21h-1z"/>
  <path transform="rotate(58)" d="m608.88-156.23h1v21h-1z"/>
  <path transform="rotate(62)" d="m606.81-198.72h1v21h-1z"/>
  <path transform="rotate(64)" d="m604.67-219.88h1v21h-1z"/>
  <path transform="rotate(66)" d="m601.79-240.96h1v21h-1z"/>
  <path transform="rotate(68)" d="m598.17-261.92h1v21h-1z"/>
  <path transform="rotate(72)" d="m588.76-303.4h1v21h-1z"/>
  <path transform="rotate(74)" d="m582.97-323.87h1v21h-1z"/>
  <path transform="rotate(76)" d="m576.48-344.13h1v21h-1z"/>
  <path transform="rotate(78)" d="m569.28-364.15h1v21h-1z"/>
  <path transform="rotate(82)" d="m552.8-403.37h1v21h-1z"/>
  <path transform="rotate(84)" d="m543.55-422.52h1v21h-1z"/>
  <path transform="rotate(86)" d="m533.63-441.34h1v21h-1z"/>
  <path transform="rotate(88)" d="m523.07-459.8h1v21h-1z"/>
  <path transform="matrix(-.0349,.99939,-.99939,-.0349,0,0)" d="m500.03-495.56h1v21h-1z"/>
  <path transform="matrix(-.06976,.99756,-.99756,-.06976,0,0)" d="m487.59-512.82h1v21h-1z"/>
  <path transform="matrix(-.10453,.99452,-.99452,-.10453,0,0)" d="m474.56-529.63h1v21h-1z"/>
  <path transform="matrix(-.13917,.99027,-.99027,-.13917,0,0)" d="m460.95-545.98h1v21h-1z"/>
  <path transform="matrix(-.20791,.97815,-.97815,-.20791,0,0)" d="m432.05-577.2h1v21h-1z"/>
  <path transform="matrix(-.24192,.9703,-.9703,-.24192,0,0)" d="m416.81-592.03h1v21h-1z"/>
  <path transform="matrix(-.27564,.96126,-.96126,-.27564,0,0)" d="m401.05-606.33h1v21h-1z"/>
  <path transform="matrix(-.30902,.95106,-.95106,-.30902,0,0)" d="m384.81-620.06h1v21h-1z"/>
  <path transform="matrix(-.37461,.92718,-.92718,-.37461,0,0)" d="m350.93-645.79h1v21h-1z"/>
  <path transform="matrix(-.40674,.91355,-.91355,-.40674,0,0)" d="m333.34-657.75h1v21h-1z"/>
  <path transform="matrix(-.43837,.89879,-.89879,-.43837,0,0)" d="m315.35-669.09h1v21h-1z"/>
  <path transform="matrix(-.46947,.88295,-.88295,-.46947,0,0)" d="m296.96-679.8h1v21h-1z"/>
  <path transform="matrix(-.52992,.84805,-.84805,-.52992,0,0)" d="m259.13-699.25h1v21h-1z"/>
  <path transform="matrix(-.55919,.82904,-.82904,-.55919,0,0)" d="m239.73-707.98h1v21h-1z"/>
  <path transform="matrix(-.58779,.80902,-.80902,-.58779,0,0)" d="m220.04-716.02h1v21h-1z"/>
  <path transform="matrix(-.61566,.78801,-.78801,-.61566,0,0)" d="m200.08-723.37h1v21h-1z"/>
  <path transform="matrix(-.66913,.74314,-.74314,-.66913,0,0)" d="m159.45-735.96h1v21h-1z"/>
  <path transform="matrix(-.69466,.71934,-.71934,-.69466,0,0)" d="m138.83-741.18h1v21h-1z"/>
  <path transform="matrix(-.71934,.69466,-.69466,-.71934,0,0)" d="m118.03-745.68h1v21h-1z"/>
  <path transform="matrix(-.74314,.66913,-.66913,-.74314,0,0)" d="m97.099-749.46h1v21h-1z"/>
  <path transform="matrix(-.78801,.61566,-.61566,-.78801,0,0)" d="m54.898-754.8h1v21h-1z"/>
  <path transform="matrix(-.80902,.58779,-.58779,-.80902,0,0)" d="m33.683-756.36h1v21h-1z"/>
  <path transform="matrix(-.82904,.55919,-.55919,-.82904,0,0)" d="m12.427-757.19h1v21h-1z"/>
  <path transform="matrix(-.84805,.52992,-.52992,-.84805,0,0)" d="m-8.8453-757.27h1v21h-1z"/>
  <path transform="matrix(-.88295,.46947,-.46947,-.88295,0,0)" d="m-51.333-755.2h1v21h-1z"/>
  <path transform="matrix(-.89879,.43837,-.43837,-.89879,0,0)" d="m-72.497-753.05h1v21h-1z"/>
  <path transform="matrix(-.91355,.40674,-.40674,-.91355,0,0)" d="m-93.574-750.17h1v21h-1z"/>
  <path transform="matrix(-.92718,.37461,-.37461,-.92718,0,0)" d="m-114.54-746.56h1v21h-1z"/>
  <path transform="matrix(-.95106,.30902,-.30902,-.95106,0,0)" d="m-156.02-737.15h1v21h-1z"/>
  <path transform="matrix(-.96126,.27564,-.27564,-.96126,0,0)" d="m-176.49-731.36h1v21h-1z"/>
  <path transform="matrix(-.9703,.24192,-.24192,-.9703,0,0)" d="m-196.75-724.86h1v21h-1z"/>
  <path transform="matrix(-.97815,.20791,-.20791,-.97815,0,0)" d="m-216.76-717.66h1v21h-1z"/>
  <path transform="matrix(-.99027,.13917,-.13917,-.99027,0,0)" d="m-255.98-701.19h1v21h-1z"/>
  <path transform="matrix(-.99452,.10453,-.10453,-.99452,0,0)" d="m-275.14-691.93h1v21h-1z"/>
  <path transform="matrix(-.99756,.06976,-.06976,-.99756,0,0)" d="m-293.96-682.02h1v21h-1z"/>
  <path transform="matrix(-.99939,.0349,-.0349,-.99939,0,0)" d="m-312.42-671.45h1v21h-1z"/>
  <path transform="matrix(-.99939,-.0349,.0349,-.99939,0,0)" d="m-348.18-648.42h1v21h-1z"/>
  <path transform="matrix(-.99756,-.06976,.06976,-.99756,0,0)" d="m-365.44-635.98h1v21h-1z"/>
  <path transform="matrix(-.99452,-.10453,.10453,-.99452,0,0)" d="m-382.25-622.95h1v21h-1z"/>
  <path transform="matrix(-.99027,-.13917,.13917,-.99027,0,0)" d="m-398.6-609.33h1v21h-1z"/>
  <path transform="matrix(-.97815,-.20791,.20791,-.97815,0,0)" d="m-429.81-580.44h1v21h-1z"/>
  <path transform="matrix(-.9703,-.24192,.24192,-.9703,0,0)" d="m-444.65-565.19h1v21h-1z"/>
  <path transform="matrix(-.96126,-.27564,.27564,-.96126,0,0)" d="m-458.94-549.44h1v21h-1z"/>
  <path transform="matrix(-.95106,-.30902,.30902,-.95106,0,0)" d="m-472.68-533.19h1v21h-1z"/>
  <path transform="matrix(-.92718,-.37461,.37461,-.92718,0,0)" d="m-498.4-499.32h1v21h-1z"/>
  <path transform="matrix(-.91355,-.40674,.40674,-.91355,0,0)" d="m-510.37-481.73h1v21h-1z"/>
  <path transform="matrix(-.89879,-.43837,.43837,-.89879,0,0)" d="m-521.71-463.73h1v21h-1z"/>
  <path transform="matrix(-.88295,-.46947,.46947,-.88295,0,0)" d="m-532.41-445.35h1v21h-1z"/>
  <path transform="matrix(-.84805,-.52992,.52992,-.84805,0,0)" d="m-551.87-407.52h1v21h-1z"/>
  <path transform="matrix(-.82904,-.55919,.55919,-.82904,0,0)" d="m-560.59-388.12h1v21h-1z"/>
  <path transform="matrix(-.80902,-.58779,.58779,-.80902,0,0)" d="m-568.63-368.42h1v21h-1z"/>
  <path transform="matrix(-.78801,-.61566,.61566,-.78801,0,0)" d="m-575.99-348.46h1v21h-1z"/>
  <path transform="matrix(-.74314,-.66913,.66913,-.74314,0,0)" d="m-588.58-307.83h1v21h-1z"/>
  <path transform="matrix(-.71934,-.69466,.69466,-.71934,0,0)" d="m-593.8-287.21h1v21h-1z"/>
  <path transform="matrix(-.69466,-.71934,.71934,-.69466,0,0)" d="m-598.3-266.42h1v21h-1z"/>
  <path transform="matrix(-.66913,-.74314,.74314,-.66913,0,0)" d="m-602.07-245.48h1v21h-1z"/>
  <path transform="matrix(-.61566,-.78801,.78801,-.61566,0,0)" d="m-607.42-203.28h1v21h-1z"/>
  <path transform="matrix(-.58779,-.80902,.80902,-.58779,0,0)" d="m-608.98-182.07h1v21h-1z"/>
  <path transform="matrix(-.55919,-.82904,.82904,-.55919,0,0)" d="m-609.8-160.81h1v21h-1z"/>
  <path transform="matrix(-.52992,-.84805,.84805,-.52992,0,0)" d="m-609.88-139.54h1v21h-1z"/>
  <path transform="matrix(-.46947,-.88295,.88295,-.46947,0,0)" d="m-607.81-97.051h1v21h-1z"/>
  <path transform="matrix(-.43837,-.89879,.89879,-.43837,0,0)" d="m-605.67-75.887h1v21h-1z"/>
  <path transform="matrix(-.40674,-.91355,.91355,-.40674,0,0)" d="m-602.79-54.811h1v21h-1z"/>
  <path transform="matrix(-.37461,-.92718,.92718,-.37461,0,0)" d="m-599.17-33.848h1v21h-1z"/>
  <path transform="matrix(-.30902,-.95106,.95106,-.30902,0,0)" d="m-589.76 7.6359h1v21h-1z"/>
  <path transform="matrix(-.27564,-.96126,.96126,-.27564,0,0)" d="m-583.97 28.106h1v21h-1z"/>
  <path transform="matrix(-.24192,-.9703,.9703,-.24192,0,0)" d="m-577.48 48.362h1v21h-1z"/>
  <path transform="matrix(-.20791,-.97815,.97815,-.20791,0,0)" d="m-570.28 68.379h1v21h-1z"/>
  <path transform="matrix(-.13917,-.99027,.99027,-.13917,0,0)" d="m-553.8 107.6h1v21h-1z"/>
  <path transform="matrix(-.10453,-.99452,.99452,-.10453,0,0)" d="m-544.55 126.75h1v21h-1z"/>
  <path transform="matrix(-.06976,-.99756,.99756,-.06976,0,0)" d="m-534.63 145.57h1v21h-1z"/>
  <path transform="matrix(-.0349,-.99939,.99939,-.0349,0,0)" d="m-524.07 164.03h1v21h-1z"/>
  <path transform="matrix(.0349,-.99939,.99939,.0349,0,0)" d="m-501.03 199.8h1v21h-1z"/>
  <path transform="matrix(.06976,-.99756,.99756,.06976,0,0)" d="m-488.59 217.05h1v21h-1z"/>
  <path transform="matrix(.10453,-.99452,.99452,.10453,0,0)" d="m-475.56 233.86h1v21h-1z"/>
  <path transform="matrix(.13917,-.99027,.99027,.13917,0,0)" d="m-461.95 250.21h1v21h-1z"/>
  <path transform="matrix(.20791,-.97815,.97815,.20791,0,0)" d="m-433.05 281.43h1v21h-1z"/>
  <path transform="matrix(.24192,-.9703,.9703,.24192,0,0)" d="m-417.81 296.27h1v21h-1z"/>
  <path transform="matrix(.27564,-.96126,.96126,.27564,0,0)" d="m-402.05 310.56h1v21h-1z"/>
  <path transform="matrix(.30902,-.95106,.95106,.30902,0,0)" d="m-385.81 324.29h1v21h-1z"/>
  <path transform="matrix(.37461,-.92718,.92718,.37461,0,0)" d="m-351.93 350.02h1v21h-1z"/>
  <path transform="matrix(.40674,-.91355,.91355,.40674,0,0)" d="m-334.34 361.98h1v21h-1z"/>
  <path transform="matrix(.43837,-.89879,.89879,.43837,0,0)" d="m-316.35 373.32h1v21h-1z"/>
  <path transform="matrix(.46947,-.88295,.88295,.46947,0,0)" d="m-297.96 384.03h1v21h-1z"/>
  <path transform="matrix(.52992,-.84805,.84805,.52992,0,0)" d="m-260.13 403.48h1v21h-1z"/>
  <path transform="matrix(.55919,-.82904,.82904,.55919,0,0)" d="m-240.73 412.21h1v21h-1z"/>
  <path transform="matrix(.58779,-.80902,.80902,.58779,0,0)" d="m-221.04 420.25h1v21h-1z"/>
  <path transform="matrix(.61566,-.78801,.78801,.61566,0,0)" d="m-201.08 427.6h1v21h-1z"/>
  <path transform="matrix(.66913,-.74314,.74314,.66913,0,0)" d="m-160.45 440.19h1v21h-1z"/>
  <path transform="matrix(.69466,-.71934,.71934,.69466,0,0)" d="m-139.83 445.41h1v21h-1z"/>
  <path transform="matrix(.71934,-.69466,.69466,.71934,0,0)" d="m-119.03 449.92h1v21h-1z"/>
  <path transform="matrix(.74314,-.66913,.66913,.74314,0,0)" d="m-98.099 453.69h1v21h-1z"/>
  <path transform="matrix(.78801,-.61566,.61566,.78801,0,0)" d="m-55.898 459.03h1v21h-1z"/>
  <path transform="matrix(.80902,-.58779,.58779,.80902,0,0)" d="m-34.683 460.59h1v21h-1z"/>
  <path transform="matrix(.82904,-.55919,.55919,.82904,0,0)" d="m-13.427 461.42h1v21h-1z"/>
  <path transform="matrix(.84805,-.52992,.52992,.84805,0,0)" d="m7.8453 461.5h1v21h-1z"/>
  <path transform="matrix(.88295,-.46947,.46947,.88295,0,0)" d="m50.333 459.43h1v21h-1z"/>
  <path transform="matrix(.89879,-.43837,.43837,.89879,0,0)" d="m71.497 457.29h1v21h-1z"/>
  <path transform="matrix(.91355,-.40674,.40674,.91355,0,0)" d="m92.574 454.41h1v21h-1z"/>
  <path transform="matrix(.92718,-.37461,.37461,.92718,0,0)" d="m113.54 450.79h1v21h-1z"/>
  <path transform="matrix(.95106,-.30902,.30902,.95106,0,0)" d="m155.02 441.38h1v21h-1z"/>
  <path transform="matrix(.96126,-.27564,.27564,.96126,0,0)" d="m175.49 435.59h1v21h-1z"/>
  <path transform="matrix(.9703,-.24192,.24192,.9703,0,0)" d="m195.75 429.09h1v21h-1z"/>
  <path transform="matrix(.97815,-.20791,.20791,.97815,0,0)" d="m215.76 421.89h1v21h-1z"/>
  <path transform="matrix(.99027,-.13917,.13917,.99027,0,0)" d="m254.98 405.42h1v21h-1z"/>
  <path transform="matrix(.99452,-.10453,.10453,.99452,0,0)" d="m274.14 396.17h1v21h-1z"/>
  <path transform="matrix(.99756,-.06976,.06976,.99756,0,0)" d="m292.96 386.25h1v21h-1z"/>
  <path transform="matrix(.99939,-.0349,.0349,.99939,0,0)" d="m311.42 375.68h1v21h-1z"/>
 </g>
 <g transform="translate(-125 -127.66)">
  <path d="m329.99591,333.32041c.60159-.0006 1.15857.16513 1.67094.49736 .52514.31943.94165.77338 1.24951,1.36182 .30782.57567.46211,1.1963.46285,1.8619 .00069.64001-.14585,1.24817-.43959,1.82449s-.70287,1.03757-1.22729,1.38375c-.52445.33337-1.09386.5004-1.70826.50107-.90879.001-1.70279-.36292-2.382-1.09177-.6664-.72887-1.00015-1.59891-1.00127-2.61011-.00074-.66559.1458-1.28016.43957-1.84368 .30657-.57633.72207-1.03759 1.24649-1.38377 .55002-.3334 1.11304-.50042 1.68905-.50106m-.0184.71042c-1.1392.001-1.70771.99388-1.70553,2.97788 .002,1.9712.57286,2.95617 1.71204,2.95491 .6528-.00071 1.10051-.27001 1.34313-.80787s.36342-1.2548.36243-2.15081c-.001-.93438-.12343-1.66386-.36721-2.18839-.23099-.52454-.67927-.78645-1.34486-.78572"/>
  <g transform="matrix(1.2 0 0 1.2 -78.233 -69.636)">
   <path d="m385.59718,345.01873c.16733-.47257.636-.82149 1.406-1.04675 .78361-.23174 1.51226-.22836 2.18595.0101 .64351.22786 1.13246.60465 1.46683,1.13039 .34797.51926.43474,1.02523.26031,1.51792-.16022.45248-.46999.78411-.92934.99487l-2.57016.78734 1.43283.50732c.37203.13171.70249.14122.99134.0285 .2989-.10916.50366-.14416.61428-.10499 .0604.0214.10965.0897.148.20517 .052.10892.0548.22873.009.35945-.13885.39214-.73205.72526-1.77959.99935l-3.83096-1.3564c-.23127-.0819-.39508-.16251-.49145-.2419-.0863-.0758-.11429-.20453-.0839-.38615 .0392-.1106.0842-.17387.13508-.1898l.57061.0663c.33308.05.59963.0482.79967-.005l2.42814-.76973c.42499-.17767.71226-.47766.86179-.89998 .13172-.37203.11995-.73829-.0353-1.09878-.14164-.36698-.39847-.61633-.7705-.74806-.19105-.0676-.39341-.0714-.60706-.0113-.20004.0537-.45518.167-.76538.34005l-.54701.29855c-.21073.0838-.42669.0865-.64789.009-.20111-.0712-.2847-.20263-.25078-.39432"/>
   <path d="m396.21684,346.62106c.46505.18724.84367.48916 1.13589.90578 .30609.41071.48625.89145.54048,1.44221 .0581.54088-.0163,1.06859-.22344,1.58312-.1992.49474-.50221.91893-.90907,1.27257s-.8669.58236-1.38015.68618c-.50927.0939-1.00137.0453-1.47632-.14593-.70254-.28286-1.20248-.81186-1.49981-1.587-.28746-.77116-.27382-1.54759.0409-2.32928 .20715-.51452.51217-.94366.91504-1.28741 .41674-.34965.88175-.57639 1.39499-.68022 .52906-.086 1.01621-.0393 1.46149.13997m-.23595.54319c-.88064-.35456-1.62971.23501-2.24719,1.76869-.61352,1.52381-.47995,2.46299.40069,2.81754 .50464.20318.93461.13482 1.28994-.20507s.67241-.85615.95128-1.54878c.29081-.72232.42388-1.32417.39923-1.80555-.015-.47739-.27943-.81966-.79395-1.02683"/>
  </g>
  <g transform="matrix(1.2 0 0 1.2 -88.321 -75.751)">
   <path d="m438.43847,377.02144 1.8461-2.27269-3.57235.87046 1.72625,1.40223m-2.23616,4.98602c-.1614.19871-.32851.26909-.50134.21117-.17127-.0429-.31072-.10811-.41835-.19553-.0911-.074-.18344-.19711-.27712-.36939-.0921-.1573-.0574-.33529.10394-.53398l2.45138-3.01783-2.98058-2.42111 .32282-.39741 6.87461-1.71295 .75756.61537-3.0163,3.71329 .64579.52458c.0911.074.31304.1306.66592.16989s.59581.0785.72879.11788c.1397.031.21474.1332.22511.30653 .0171.16505-.0214.30553-.11559.42145-.26902.33117-.94293.45025-2.02173.35725l-.99353-.80704-2.45138,3.01783"/>
   <path d="m447.75616,378.65221c.37403.33381.62789.74622.76158,1.23722 .14872.49016.15524,1.0035.0195,1.54004-.12861.52858-.37757.99979-.74688,1.41362-.35512.39792-.784.69427-1.28664.88903s-1.01299.254-1.53104.17769c-.51096-.0843-.95744-.29688-1.33943-.63778-.56505-.50426-.85605-1.17142-.87301-2.00147-.009-.82294.26703-1.54876.82811-2.17748 .36932-.41382.80175-.71416 1.29729-.90096 .51061-.18768 1.02493-.24335 1.54299-.16703 .52686.0985.96936.30752 1.32749.62712m-.40611.43103c-.70831-.63209-1.61288-.33137-2.71372.90216-1.09376,1.22559-1.28649,2.15444-.57819,2.78654 .40587.36221.83356.44367 1.28306.24436s.92284-.5775 1.42-1.13458c.51846-.58097.84769-1.10207.98768-1.5633 .14794-.45413.015-.86585-.39883-1.23518"/>
  </g>
  <g transform="matrix(1.2 0 0 1.2 -96.752 -83.921)">
   <path d="m479.21949,421.40202c.63692-.38967 1.08597-.82071 1.34717-1.29312 .26673-.4633.24424-.94972-.0675-1.45926-.29504-.48224-.72875-.71083-1.30112-.68577-.56328.0198-1.14064.21017-1.73207.572-.54594.334-.93483.74073-1.16668,1.2202-.20809.47745-.17296.94363.10542,1.39858 .2839.46404.67843.71034 1.18359.73892s1.0489-.13529 1.63122-.49155m.63461,1.03728c-.50955.31173-1.03685.47177-1.58193.48014s-1.06293-.11248-1.55354-.36253-.86672-.5889-1.12835-1.01655c-.27277-.44585-.40778-.93221-.405-1.45909s.1327-1.0503.38982-1.57024c.27381-.49265.65185-.88648 1.13409-1.18151 .63691-.38967 1.31891-.64436 2.04597-.76405 .73616-.12526 1.44481-.15242 2.12596-.0814 .69023.0654 1.25358.15839 1.69002.27903l1.35635.40813c.84964.3055 1.39939.51936 1.64924.64161 .25541.13134.40539.23341.44993.30619 .0724.11829.0815.22523.0274.32083s-.10384.15731-.14933.18513c-.0637.0389-.17064.0481-.32081.0274-.13554-.0172-.42634-.11432-.8724-.29158l-1.53315-.54381c-1.14649-.36147-2.22992-.51768-3.25028-.46862 .38793.22532.70437.53816.94932.93851 .26162.42765.39838.90668.41029,1.4371 .021.52485-.0935,1.03258-.34358,1.52319-.2445.4997-.60786.89706-1.09009,1.19211"/>
   <path d="m484.55901,424.62706c.24361.43817.34788.91108.31283,1.41875-.0206.51181-.18306.9988-.48748,1.46097s-.68508.82026-1.16985,1.08979c-.46614.25916-.96857.39815-1.5073.41699s-1.04022-.0929-1.50444-.33518c-.45491-.24746-.80675-.59494-1.05555-1.04242-.36801-.66191-.42368-1.38763-.16701-2.17718 .26186-.78022.76103-1.37508 1.49753-1.78455 .48477-.26953.99186-.41112 1.52127-.42476 .54392-.009 1.04798.10687 1.51222.34915 .46526.26611.81452.60893 1.04778,1.02844m-.52519.27369c-.46132-.82972-1.41447-.84287-2.85947-.0394-1.43569.79822-1.92288,1.61219-1.46156,2.4419 .26434.47545.64153.6929 1.13157.65233s1.06134-.24227 1.71392-.6051c.68055-.37837 1.1627-.76238 1.44645-1.15203 .28892-.38033.29861-.81287.0291-1.29765"/>
  </g>
  <g transform="matrix(1.2 0 0 1.2 -100.54 -96.15)">
   <path d="m502.22714,477.27568c-.0796-.41919-.33156-.74593-.75601-.98023s-.90393-.30075-1.43838-.19932c-.524.0994-.94055.3359-1.24965.70941-.30714.384-.42191.78035-.34436,1.18905 .0795.41919.33156.74593.75602.98024 .42644.24478.90166.31745 1.42564.21803 .53446-.10142.95625-.3389 1.26537-.71241s.4229-.7751.34137-1.20477m.76301.58806c-.005.7175-.211,1.3483-.61801,1.8924s-.94066.87878-1.60087,1.00407c-.48207.0915-.95855.0408-1.42943-.15217-.46042-.19491-.86212-.50953-1.20512-.94386-.341-.42387-.56221-.90302-.66364-1.43748-.15511-.81741-.0281-1.57975.38028-2.287 .41912-.70924 1.00594-1.13545 1.76048-1.27864 .63926-.12131 1.23446-.0169 1.78559.31258 .55311.34017.9814.82346 1.28484,1.44987 .0169-.65463.21913-1.21957.60665-1.69482 .39999-.46676.90389-.75781 1.51172-.87316 .69165-.13125 1.34792.0374 1.96882.50581 .63335.47694 1.02461,1.1084 1.17377,1.89437 .15113.79645.029,1.52536-.36673,2.18672s-.95502,1.06065-1.6781,1.19787c-.3668.0696-.741.0429-1.12262-.0801-.37115-.12499-.72152-.34079-1.05113-.64738-.28372-.29359-.52921-.64327-.7365-1.04907m4.05609-1.45372c-.0756-.39822-.31937-.71024-.73135-.93605-.41001-.21533-.86128-.27627-1.35381-.1828-.47159.0895-.86917.31151-1.19273.66605-.30064.36105-.41316.74068-.33759,1.13891 .0776.4087.3161.72172.71563.93904 .41198.22581.86949.291 1.37251.19554 .5135-.0975.91532-.3257 1.20548-.68476s.39741-.7377.32186-1.13593"/>
   <path d="m504.78919,484.4112c.0726.49605.003.97524-.21007,1.43756-.20055.47134-.52503.86918-.97345,1.19353-.43789.32279-.93123.52435-1.48005.60466-.52771.0772-1.04681.0289-1.55726-.14404s-.93984-.45539-1.28813-.84641c-.33773-.39257-.54367-.84217-.6178-1.34877-.10962-.74936.0954-1.44773.61513-2.09514 .52128-.63685 1.19882-1.01628 2.0326-1.13829 .54882-.0803 1.07319-.0331 1.57311.14172 .512.18381.94214.47122 1.29044.86225 .34081.41368.54597.85799.61548,1.33293m-.58808.0698c-.13746-.93933-1.02415-1.2893-2.66005-1.04991-1.62536.23784-2.36931.82642-2.23186,1.76575 .0788.53826.35447.87523.82708,1.01091s1.07834.14943 1.81714.0413c.77045-.11276 1.35738-.30104 1.76076-.5649 .40493-.2533.56723-.65436.48693-1.20318"/>
  </g>
  <g transform="matrix(1.2 0 0 1.2 -100.16 -108.24)">
   <path d="m499.50135,534.93306-.1048.74467c-.0149.10561-.0781.17212-.18965.19951-.1025.0395-.19072.0539-.26466.0435-.0422-.006-.11396-.0322-.21513-.0787-.10264-.036-.14959-.12338-.14083-.26218l.43481-3.08955c.0164-.1162.0697-.18946.16019-.21982 .0995-.0183.19682-.0207.29188-.007l.18568.0584c.11782.0813.17385.18066.16806.29832l-.10704.76051 4.49966.63326 .10927-.77636c.0149-.10563.0675-.17361.15796-.20397 .10101-.0288.19904-.0366.29411-.0233 .0422.006.11396.0322.21512.0787s.14811.13395.14085.26219l-.43481,3.08955c-.0179.12675-.0765.19928-.17604.2176-.089.0198-.18098.023-.27603.01-.0634-.009-.13963-.0412-.22874-.0968-.0906-.0451-.13228-.13173-.12499-.25996l.10479-.74466-4.49965-.63325"/>
   <path d="m503.97388,540.95909c-.0872.4937-.30443.92651-.65173,1.29846-.33866.38428-.77184.65983-1.29955.82661-.51721.16861-1.04891.2047-1.59513.10822-.52521-.0928-1.00282-.30166-1.43284-.62672s-.74882-.72798-.95638-1.20873c-.19705-.4789-.25106-.97045-.16203-1.47464 .1317-.7458.54608-1.34419 1.24313-1.79518 .69518-.44049 1.45769-.58746 2.28752-.44091 .54621.0965 1.02908.30628 1.44861.6295 .42816.33557.74602.74373.95359,1.22448 .19334.49991.24828.9862.16481,1.45888m-.5802-.11869c.16508-.93487-.56644-1.54607-2.19458-1.83357-1.61764-.28567-2.509.0389-2.67409.97381-.0946.5357.061.9423.467,1.21979s.97653.48114 1.71183.61099c.76679.13542 1.38315.14136 1.84907.0179 .46405-.11303.74431-.44264.84078-.98885"/>
   <path d="m502.592,547.95038c-.1072.48973-.34187.91335-.704,1.27086-.35402.3702-.79805.62788-1.3321.77306-.52364.14745-1.05637.16188-1.59821.0435-.521-.11405-.98973-.3422-1.40617-.68448s-.71857-.75784-.90641-1.24664c-.17742-.48652-.21139-.97985-.10192-1.48002 .16193-.73982.6003-1.32086 1.31511-1.74312 .71253-.41184 1.4804-.52768 2.30358-.3475 .54183.11859 1.01577.3479 1.42179.6879 .41417.35271.71516.77346.903,1.26226 .17285.50735.20796.99549.10529,1.46439m-.57488-.14221c.20297-.92739-.5031-1.56782-2.11819-1.92132-1.60468-.35123-2.50851-.0631-2.71149.86424-.1163.53141.0228.94401.417,1.23778s.95616.52047 1.68556.68012c.76065.16648 1.37626.19749 1.84682.093 .46827-.094.7617-.412.8803-.95384"/>
  </g>
  <g transform="matrix(1.2 0 0 1.2 -96.159 -119.22)">
   <path d="m481.57239,589.85897-.34842.66641c-.0494.0946-.13127.13598-.24557.12438-.10979.003-.19776-.0132-.26393-.0477-.0378-.0198-.0966-.0686-.17627-.14632-.0847-.0683-.0996-.16641-.0448-.29424l1.44555-2.76492c.0543-.10398.12923-.15511.22463-.15337 .0999.0161.19238.0464.27746.0909 .0378.0198.0895.0588.15532.11732 .0838.11602.10321.22849.0583.33741l-.35582.68059 4.02686,2.10532 .36324-.69478c.0494-.0946.12181-.14093.21721-.1392 .10485.007.1998.0322.28488.0768 .0378.0198.0966.0685.17626.14632s.0946.17585.0448.29423l-1.44555,2.76492c-.0593.11343-.13891.16209-.2388.14597-.0905-.0112-.17822-.039-.26329-.0835-.0567-.0296-.11773-.0856-.18304-.16791-.0702-.0728-.0804-.16846-.0306-.28683l.34841-.66641-4.02685-2.10531"/>
   <path d="m483.25188,593.51286c.43546.24838.69585.77144.78116,1.56916 .0893.81227-.0431,1.5288-.3972,2.14959-.33824.59299-.79568,1.00746-1.37233,1.24342-.57268.2505-1.08602.24627-1.54002-.0126-.41696-.23783-.68846-.60146-.81454-1.09087l-.31963-2.66898-.75309,1.32032c-.19554.34282-.26342.66636-.20364.97061 .0545.31351.0526.52123-.005.62316-.0317.0556-.10775.092-.22814.10932-.11639.0318-.23483.0129-.35527-.0553-.36135-.20611-.58413-.84893-.66833-1.92846l2.01352-3.53013c.12155-.21311.22993-.36005.32512-.44083 .0899-.0715.22155-.0763.39491-.0143 .10193.0582.15621.11366.16287.16657l-.16627.54985c-.10824.31894-.15368.5816-.13631.78798l.32745,2.52609c.0995.44974.34395.78561.73311,1.00758 .34282.19553.70537.24882 1.08765.15988 .38627-.0744.67717-.283.87272-.62582 .1004-.17605.13994-.37453.1186-.59546-.0173-.20639-.0837-.47756-.1991-.81351l-.19693-.59124c-.0452-.22224-.01-.43527.10666-.63911 .10569-.18532.24986-.24431.4325-.17697"/>
   <path d="m479.79582,603.67976c-.26653.4246-.63065.74389-1.09237.95782-.45837.22864-.96338.32095-1.51507.27693-.54264-.0383-1.04886-.20497-1.51865-.49984-.45172-.28354-.81564-.6568-1.09177-1.11976s-.41989-.95623-.43132-1.47974c-.003-.51785.1325-.99361.40469-1.42726 .40262-.64144 1.01169-1.03997 1.8272-1.19556 .80984-.14656 1.57161.004 2.28533.45214 .46979.29487.83823.67096 1.10532,1.12827 .27045.47201.41139.96977.42283,1.49329-.009.53592-.14102,1.00714-.39619,1.41371m-.49291-.32828c.50469-.80407.0568-1.64558-1.34346-2.52454-1.3913-.87328-2.3393-.9079-2.844-.10383-.2892.46075-.29795.89603-.0263,1.30586s.72376.81322 1.35617,1.21017c.65951.41395 1.22835.65136 1.7065.71221 .47248.0698.85616-.13008 1.15104-.59987"/>
  </g>
  <g transform="matrix(1.2 0 0 1.2 -88.486 -128.38)">
   <path d="m445.89276,636.05387-.55179.51092c-.0783.0725-.16928.0841-.27306.0348-.10436-.0342-.1819-.0787-.23263-.13348-.029-.0313-.0679-.097-.11696-.19698-.0569-.0927-.038-.19016.0565-.2922l2.28933-2.11976c.0861-.0797.17378-.10276.26306-.0691 .0887.0488.16567.10827.23089.17872 .029.0313.0646.0855.10697.16261 .04.1374.0205.24989-.0582.33743l-.56352.52178 3.08724,3.3342 .57526-.53266c.0783-.0725.16204-.0919.25133-.0583 .0965.0415.1774.0974.24263.16784 .029.0313.0679.097.11697.19698s.0301.1974-.0565.29219l-2.28933,2.11976c-.0939.087-.18523.1061-.27394.0574-.0815-.0409-.15479-.0966-.22001-.16698-.0435-.047-.0822-.12015-.11611-.21957-.0417-.0923-.0193-.18568.0674-.28047l.55178-.51091-3.08724-3.3342"/>
   <path d="m441.63245,640.58964 1.89988,2.22792-.20763-3.67101-1.69225,1.44309m-4.49736-3.10396c-.16611-.19479-.20499-.37191-.11667-.53134 .0734-.16063.1627-.28594.26821-.37592 .0893-.0761.22714-.14462.41356-.20547 .17139-.062.34014.004.50624.19912l2.5228,2.95839 2.92186-2.49165 .33222.38958 .43679,7.07132-.74264.63331-3.10418-3.64016-.63307.53985c-.0893.0761-.18525.28414-.28793.62404s-.1854.57164-.2482.69529c-.0559.13174-.16996.18699-.3423.16573-.1654-.0131-.29656-.0765-.39346-.19016-.27685-.32466-.27164-1.00899.0156-2.05299l.97395-.83055-2.52279-2.95839"/>
   <path d="m438.33723,649.4567c-.39617.30721-.84781.48197-1.35493.52428-.509.0573-1.015-.0296-1.51799-.26039-.49645-.22244-.91462-.5528-1.25452-.99112-.32683-.42146-.54038-.89702-.64066-1.42667s-.0658-1.04228.10325-1.53786c.17564-.48716.46576-.88761.87036-1.20137 .59847-.4641 1.30737-.62913 2.1267-.49511 .8109.14056 1.47455.54379 1.99094,1.20969 .3399.43831.55673.91808.65046,1.43931 .0919.53618.0532,1.05208-.11588,1.54767-.19251.50023-.47841.89741-.85773,1.19157m-.35013-.47763c.75019-.58176.61871-1.52589-.39447-2.83241-1.00663-1.29809-1.88505-1.65626-2.63525-1.0745-.42988.33337-.58763.73916-.47325,1.21738s.40035,1.01235.85792,1.60239c.47717.61533.92983,1.03369 1.35798,1.25509 .41973.22793.84875.17195 1.28707-.16795"/>
  </g>
  <g transform="matrix(1.2 0 0 1.2 -78.131 -134.68)">
   <path d="m395.36367,668.19154-.69423.28904c-.0985.041-.1879.0204-.26829-.0616-.0861-.0681-.14355-.13667-.17225-.20559-.0164-.0394-.0303-.11447-.0418-.22524-.0213-.10668.03-.19158.15391-.25473l2.88033-1.19921c.10832-.0451.19858-.0365.27076.0259 .0664.0763.11812.1588.15502.24743 .0164.0394.0311.10257.0443.18954-.01.14277-.067.24163-.17116.29657l-.709.29519 1.74653,4.19495 .72377-.30135c.0985-.041.18381-.0303.256.0321 .0763.0722.13288.15265.16978.24128 .0164.0394.0303.11446.0418.22524s-.0398.19568-.15391.25473l-2.88034,1.1992c-.11817.0492-.21047.0356-.27691-.0407-.0623-.0665-.11195-.14403-.14886-.23265-.0245-.0591-.0357-.14114-.0332-.24616-.007-.10094.046-.18092.16007-.23995l.69423-.28905-1.74654-4.19494"/>
   <path d="m389.54436,672.97013c.26186.69924.59995,1.22186 1.01427,1.56788 .40433.34974.8862.41987 1.44559.2104 .52944-.19827.8361-.58076.92-1.14752 .0877-.55676.01-1.1598-.23325-1.80909-.22444-.59936-.55007-1.05831-.97689-1.37685-.42932-.29483-.89372-.34873-1.39319-.16169-.50944.19077-.82608.53145-.9499,1.02204s-.066,1.05551.17337,1.69483m-1.13877.42644c-.20947-.55939-.26665-1.10749-.17153-1.64427s.31197-1.02234.65049-1.45663 .74254-.73936 1.21203-.91517c.48948-.1833.99261-.22364 1.50941-.12104s1.00609.32942 1.46786.68045c.43179.36223.74681.80808.94507,1.33751 .26185.69924.38263,1.41715.36231,2.15372-.0166.74655-.12426,1.4475-.32307,2.10285-.19505.66532-.39317,1.20081-.59436,1.60647l-.65789,1.25437c-.46102.77631-.77523,1.27554-.94263,1.4977-.17738.22588-.30603.35378-.38595.38372-.12985.0486-.23659.0374-.3202-.0339s-.13477-.13178-.15348-.18172c-.0262-.07-.0149-.17666.0339-.32021 .0425-.12983.19307-.39692.45167-.80128l.82462-1.40225c.57227-1.05718.93105-2.09134 1.07633-3.1025-.29478.33819-.66194.58958-1.10147.75417-.46949.17581-.96577.21929-1.48882.13041-.51931-.0789-.99611-.28761-1.43042-.62613-.44429-.33479-.76557-.7669-.96383-1.29632"/>
   <path d="m385.36369,677.60102c-.47645.156-.96056.16861-1.45236.0374-.4986-.11734-.94588-.36933-1.34186-.75596-.39266-.37651-.67529-.82833-.8479-1.35545-.16596-.50686-.20705-1.02654-.12327-1.55904s.28868-1.00367.61467-1.41347c.32932-.39965.73728-.67913 1.22385-.83846 .71973-.23567 1.44283-.15257 2.1693.24932 .71632.40521 1.20559,1.00823 1.46782,1.80906 .1726.52712.21535,1.05187.1282,1.57425-.0939.53583-.30388,1.00864-.62988,1.41843-.34959.40629-.75247.68412-1.20863.8335m-.16903-.56759c.90221-.29541 1.09606-1.22875.58156-2.79999-.51116-1.56111-1.21785-2.19396-2.12005-1.89854-.51699.16929-.80208.49834-.85528.98717s.0364,1.08803.26874,1.79763c.24231.74.52781,1.28628.85651,1.63883 .31856.35587.7414.4475 1.26852.2749"/>
  </g>
  <g transform="matrix(1.2 0 0 1.2 -65.653 -137.07)">
   <path d="m334.66531,680.89849-.75169.0217c-.10661.003-.1828-.0481-.22855-.15342-.0561-.0944-.0853-.17893-.0874-.25357-.001-.0427.0125-.11775.0415-.2253 .0183-.10724.0965-.1682.23478-.1829l3.11869-.0907c.11728-.003.1985.037.24361.12097 .0348.095.0536.19052.0563.28648 .001.0427-.008.10694-.0264.19286-.0603.1298-.14887.20174-.26584.21581l-.76769.0221 .13216,4.54208 .78368-.0224c.10662-.003.18249.0374.22762.12143 .0455.0948.0696.19005.0723.28601 .001.0427-.0125.11775-.0415.22531s-.10715.16851-.23478.1829l-3.11868.0907c-.12794.004-.2093-.0419-.24409-.13696-.0345-.0844-.0531-.17453-.0559-.27049-.002-.064.0172-.14457.0569-.24176 .0292-.0969.10761-.15253.23525-.1669l.75168-.0217-.13205-4.54208"/>
   <path d="m329.23974,684.97726c.42667.003.79593-.18124 1.10781-.55245s.46967-.82881.47339-1.3728c.004-.53332-.14792-.9877-.4547-1.36314-.31743-.37551-.68415-.56468-1.10014-.56753-.42666-.003-.79592.18124-1.10781.55244-.32253.37114-.48563.82337-.48927,1.35669-.004.54399.14781,1.0037.45458,1.37914s.67882.56464 1.11614.56765m-.72435.63506c-.70303-.14348-1.28217-.46745-1.7374-.9719s-.68054-1.09268-.67596-1.76466c.003-.49065.14517-.94836.4254-1.37312 .28017-.4141.66646-.74746 1.15886-1.00011 .48174-.25272.9946-.37721 1.53859-.3735 .83198.006 1.55548.27731 2.17048.81486 .61493.54821.91978,1.20631.91452,1.97429-.004.65066-.22163,1.21452-.65156,1.69159-.44061.477-.99752.80386-1.67074.98061 .63903.14303 1.15428.45056 1.54573.92258 .38071.4826.56895,1.03324.56473,1.6519-.005.70397-.297,1.31532-.87656,1.83406-.5903.52929-1.28544.79122-2.08542.78576-.81064-.006-1.50221-.26629-2.0747-.7822s-.85622-1.14188-.85119-1.87786c.003-.37333.10103-.73533.29542-1.086 .19435-.34003.47375-.64212.83822-.90629 .34286-.22167.73339-.39501 1.17158-.52001m.6429,4.26049c.40533.003.75856-.17617 1.05969-.53677 .29048-.3607.43743-.79171.44085-1.29302 .003-.47999-.13776-.91297-.42314-1.29892-.29617-.36471-.64692-.54845-1.05225-.55121-.41599-.003-.76918.17075-1.05959.52078-.30113.3606-.45345.79691-.45695,1.3089-.004.52265.14277.96099.43902,1.31504s.64705.53242 1.05237.5352"/>
   <path d="m321.74724,686.11543c-.50074-.0243-.95746-.18533-1.37019-.48302-.42388-.28758-.75177-.68261-.98367-1.18511-.23242-.49185-.33518-1.01479-.30829-1.5688 .0259-.53271.17297-1.03283.44129-1.50036s.62789-.83453 1.07867-1.10098c.45027-.2558.9311-.37128 1.4425-.34645 .75645.0368 1.40225.37245 1.93743,1.00715 .52452.63418.76636,1.37211.72549,2.21379-.0269.55401-.17425,1.05945-.44206,1.51634-.27898.46702-.64386.83376-1.09465,1.10021-.47157.25476-.94708.37049-1.42652.34723m.0447-.59054c.94822.046 1.46242-.75663 1.54261-2.40801 .0797-1.64074-.35461-2.48412-1.30283-2.53016-.54336-.0264-.92712.17924-1.15127.61688s-.35434,1.02936-.39055,1.77515c-.0377.77775.0341,1.38994.21518,1.8366 .17056.44612.53285.68264 1.08686.70954"/>
  </g>
  <g transform="matrix(1.2 0 0 1.2 -54.651 -134.65)">
   <path d="m282.26012,677.39755c-.14734.47919-.60095.84747-1.36082,1.10484-.7732.26443-1.50135.29163-2.18446.0816-.6525-.20065-1.15683-.5566-1.51297-1.06784-.36946-.50419-.47739-1.00608-.32379-1.50566 .14109-.45881.43668-.80313.88677-1.033l2.53486-.89449-1.45287-.44674c-.37723-.116-.70778-.11162-.99167.0128-.29405.1216-.49716.16517-.60931.13069-.0612-.0188-.11333-.085-.15649-.19878-.0564-.10664-.0643-.22624-.0236-.35878 .12227-.39762.70096-.75534 1.73608-1.07315l3.88451,1.19444c.2345.0721.40155.14579.50116.22105 .0894.0721.12278.19956.10003.3823-.0345.11214-.0768.17725-.12701.19529l-.57289-.0422c-.33486-.036-.60111-.023-.79873.0389l-2.39369.87094c-.41717.19535-.69159.50713-.82326.93534-.116.37723-.0889.74269.0814,1.09634 .15692.36071.424.59907.80123.71507 .19372.0595.39605.0548.60698-.0147 .19762-.062.44776-.18596.75044-.37187l.534-.32124c.20702-.0926.42268-.10438.64697-.0355 .20392.0627.29296.19052.26711.38344"/>
   <path d="m271.58234,676.24214c-.47249-.16759-.86345-.45337-1.17288-.85737-.32303-.39751-.52319-.87027-.60046-1.41828-.0808-.53797-.0284-1.06833.15686-1.59109 .17827-.50266.46324-.93918.8549-1.30957s.84173-.61819 1.35018-.74345c.50488-.1152.99859-.0872 1.48114.0839 .71378.25315 1.23545.76072 1.56503,1.52272 .31954.75843.33847,1.53475.0568,2.32894-.1854.52276-.47215.96431-.86026,1.32465-.40171.36681-.8568.61285-1.36525.7381-.52498.10802-1.01367.0819-1.46606-.0786m.21296-.5526c.89473.31732 1.61842-.30313 2.17106-1.86137 .54908-1.54818.37626-2.48093-.51847-2.79826-.51271-.18184-.93944-.0955-1.28021.25897s-.63592.88359-.8855,1.58731c-.26028.73389-.368,1.34079-.32318,1.8207 .0348.47636.31354.80724.8363.99265"/>
   <path d="m264.91558,673.72362c-.46528-.18667-.84428-.48813-1.13701-.90438-.30659-.41034-.48734-.89086-.54224-1.44156-.0588-.54081.015-1.0686.22149-1.58339 .1986-.49498.50109-.91954.9075-1.27368s.86619-.58342 1.37931-.68788c.50916-.0946 1.00133-.0465 1.4765.14413 .70288.28199 1.20347.81037 1.50177,1.58516 .28839.7708.27571,1.54724-.038,2.32931-.20652.51479-.51101.9443-.91346,1.28854-.41631.35016-.88103.57746-1.39416.68192-.52894.0866-1.01616.0406-1.46165-.13817m.23528-.54347c.88107.35347 1.62941-.23701 2.24502-1.77146 .61164-1.52455.47692-2.46357-.40415-2.81704-.50489-.20255-.93478-.13368-1.28969.20665s-.67136.85698-.94938,1.54995c-.28993.72267-.42226,1.32469-.39701,1.80604 .015.47738.28043.81933.79521,1.02586"/>
  </g>
  <g transform="matrix(1.2 0 0 1.2 -44.037 -128.59)">
   <path d="m227.21174,650.22865c-.30485.398-.85824.58546-1.66019.5624-.81689-.0211-1.50901-.24891-2.07638-.68348-.54194-.41513-.89093-.92429-1.04697-1.52749-.17097-.60124-.0976-1.10932.22027-1.52425 .29188-.38107.6888-.60105 1.19075-.65996l2.6877.0432-1.20669-.92428c-.31331-.23999-.62473-.35089-.93428-.3327-.318.0117-.52356-.0181-.61672-.0894-.0508-.0389-.0766-.11918-.0776-.2408-.0158-.11964.0184-.23449.10271-.34458 .25296-.33025.91996-.46429 2.00097-.40213l3.22632,2.47123c.19476.14919.32575.27639.39294.38161 .0588.0987.0457.2298-.0392.39322-.0714.0931-.13369.13946-.18702.13891l-.5224-.23891c-.30142-.15026-.55555-.23071-.76239-.24134l-2.54717-.0163c-.45907.038-.82482.23486-1.09724.59051-.23998.31332-.34169.66537-.30513,1.05616 .0216.39278.18909.70916.50241.94915 .16089.12323.35223.18917.57401.19782 .20685.0107.4845-.0181.83294-.0876l.6124-.1154c.2263-.0147.43259.0491.61888.19188 .16937.12972.20838.28053.11703.45241"/>
   <path d="m221.1622,645.5557c-.32195.38428-.883.5474-1.68317.48932-.81519-.0567-1.4967-.31461-2.04453-.77355-.5233-.43841-.8497-.96233-.97923-1.57178-.14454-.60813-.049-1.11251.28665-1.51317 .30825-.36794.7144-.57038 1.21845-.6073l2.68324.16063-1.16516-.97611c-.30252-.25345-.6088-.37785-.91884-.37319-.31821-.002-.52229-.041-.61224-.11633-.0491-.0411-.0714-.12241-.0669-.24395-.0105-.12021.0286-.23347.11765-.33977 .26716-.31887.93937-.42365 2.01664-.31432l3.11526,2.60984c.18806.15755.31336.29035.37591.39841 .0543.1012.0356.23158-.0563.39113-.0753.0899-.13966.13348-.19291.13061l-.51147-.2615c-.29457-.1633-.54494-.25477-.75112-.27442l-2.54403-.1275c-.46029.0176-.83428.19858-1.122.542-.25344.30253-.37043.6498-.35096,1.04182 .004.39335.15792.71674.46045.97019 .15535.13015.34363.20438.56483.22272 .20618.0197.48484.003.83596-.0511l.61686-.0885c.22672-.005.43003.068.60991.21874 .16354.13699.19591.28936.0971.4571"/>
   <path d="m211.77352,640.3464c-.37045-.33779-.6199-.75288-.74833-1.24529-.1435-.49171-.14454-1.00509-.003-1.54015 .13424-.52717.38821-.99571.76191-1.40558 .35935-.3941.79136-.68586 1.29605-.87527s1.01565-.24318 1.53286-.16134c.51003.0897.95421.30706 1.33254.65202 .55964.51026.84351,1.18049.85163,2.01067 .00023.82298-.28354,1.54583-.85129,2.16852-.37371.40987-.80932.70557-1.30683.88709-.51257.18221-1.02746.2324-1.54468.15057-.52578-.1041-.96603-.31785-1.32073-.64124m.41069-.42669c.70152.63962 1.60925.34856 2.72319-.87317 1.10676-1.21385 1.30939-2.14059.60787-2.78021-.40199-.36652-.82879-.45253-1.2804-.25803s-.92893.56763-1.43201,1.11937c-.52462.57541-.85939,1.09296-1.00429,1.55268-.15277.45252-.0242.86565.38564,1.23936"/>
  </g>
  <g transform="matrix(1.2 0 0 1.2 -37.201 -120.46)">
   <path d="m186.8769,608.49089c-.41834.27627-1.00261.27224-1.75282-.0121-.76497-.28734-1.34437-.72921-1.7382-1.32557-.37619-.56966-.53927-1.16501-.48922-1.78607 .0352-.62406.27098-1.08012.70712-1.36813 .40055-.26451.84761-.34244 1.34119-.23378l2.52544.92074-.83762-1.26839c-.21748-.32933-.47544-.53607-.77388-.62021-.30431-.093-.48879-.18851-.55346-.28643-.0352-.0534-.0334-.13771.006-.25292 .0242-.11822.0941-.21555.20984-.29197 .34714-.22923 1.02126-.13753 2.02236.27509l2.23952,3.39126c.1352.20473.21732.3678.24637.48922 .0232.11252-.032.23209-.16575.35872-.0979.0647-.17197.088-.22219.0701l-.41541-.39677c-.23562-.24066-.44941-.39986-.64137-.47762l-2.4015-.8492c-.44622-.11436-.85625-.0481-1.23009.19876-.32933.21749-.54069.51685-.63406.89808-.10816.3782-.0535.73197.16399,1.0613 .11168.16912.2709.29408.47763.37485 .19196.0778.46386.14107.8157.18994l.61643.0915c.21867.0601.39266.18809.52196.38392 .11757.17801.10511.33328-.0376.46579"/>
   <path d="m182.95223,597.45357-2.5186,1.49326 3.65282.41977-1.13422-1.91303m3.82367-3.9039c.22021-.13056.40136-.13875.54345-.0246 .14581.0996.25409.20896.32481.32824 .0598.10093.10393.24842.13214.44248 .032.17945-.0621.33445-.28233.465l-3.34437,1.98285 1.95837,3.30309-.44041.26112-7.04258-.77232-.49776-.83953 4.1151-2.43981-.42432-.71567c-.0598-.10092-.24849-.23088-.56596-.38987s-.53179-.27993-.64295-.36284c-.12032-.0775-.15536-.19929-.10508-.36551 .0411-.16075.12587-.27922.25432-.35538 .36701-.2176 1.04048-.0961 2.02042.36457l.6528,1.10103 3.34437-1.98286"/>
   <path d="m174.77498,592.69578c-.23521-.44272-.33046-.91754-.28575-1.42444 .0303-.51133.20207-.99513.51525-1.45142 .30379-.45128.70059-.80705 1.19041-1.0673 .47099-.25023.97598-.37962 1.51497-.38818s1.03826.11271 1.49778.36379c.4501.25609.79526.61021 1.03549,1.06236 .35533.6688.39716,1.39545.12548,2.17996-.27668.77509-.78711,1.36032-1.53126,1.75569-.48983.26024-.99953.39213-1.52911.39569-.54399-.0009-1.04575-.12684-1.50528-.37793-.4601-.27492-.80276-.62433-1.02798-1.04822m.5303-.26362c.44542.83836 1.39815.86967 2.85821.094 1.45064-.77072 1.95325-1.57525 1.50783-2.4136-.25523-.48041-.62821-.705-1.11893-.67379s-1.06576.222-1.72515.57233c-.68763.36534-1.17702.74009-1.46813,1.12425-.29612.37475-.31406.80703-.0539,1.29686"/>
  </g>
  <g transform="matrix(1.2 0 0 1.2 -31.692 -108.03)">
   <path d="m161.12796,550.41229c-.48983.10678-1.03332-.10774-1.63046-.64354-.60981-.54394-.99082-1.16505-1.14302-1.86333-.14537-.667-.0828-1.28109.18798-1.84229 .25801-.56932.64235-.90965 1.15302-1.02096 .469-.10224.91408-.0131 1.33523.26575l2.02328,1.76971-.32369-1.48512c-.0841-.38562-.25007-.67148-.49806-.85761-.25026-.19654-.38789-.35213-.41288-.46679-.0136-.0625.0185-.14048.0964-.23389 .0652-.10154.16554-.16708.30103-.19661 .40646-.0886 1.00211.2401 1.78698.98606l.86546,3.97077c.0522.23971.07.42143.0533.54516-.0189.11331-.11363.2049-.28399.27479-.11464.025-.19214.02-.2325-.0148l-.24432-.5199c-.13294-.30945-.27491-.53506-.42589-.67682l-1.93351-1.65829c-.37491-.26762-.78125-.35373-1.21897-.25834-.38561.0841-.69072.28702-.91532.60891-.23731.31373-.31393.6634-.22988,1.04901 .0432.19802.14658.37198.31025.5219 .151.14177.38176.2989.69227.47138l.54195.30765c.18225.13495.29836.31707.34834.54636 .0455.20843-.0222.34873-.20302.42088"/>
   <path d="m159.53795,538.08169c-.73576.12718-1.31216.36212-1.72922.70483-.41887.33221-.57743.79261-.47569,1.38121 .0963.55707.41507.92956.9563,1.11745 .53074.1897 1.13771.22551 1.82091.10741 .63064-.10903 1.14217-.34356 1.53457-.70367 .36956-.36697.50892-.81322.41807-1.33876-.0926-.53605-.36847-.91055-.82745-1.12348s-1.0248-.26127-1.69749-.14499m-.20712-1.19823c.5886-.10175 1.13775-.0559 1.64746.1374s.94644.49672 1.31017.91013 .5883.86714.6737,1.36115c.089.51503.035,1.01689-.16193,1.50558s-.51086.92723-.94167,1.31561c-.43626.35686-.93292.58344-1.49.67972-.73575.12719-1.46359.11228-2.18353-.0447-.73043-.15518-1.3991-.39141-2.00601-.70867-.61741-.31545-1.10669-.60974-1.46783-.88289l-1.11008-.87978c-.67697-.59741-1.10903-.99902-1.29616-1.20483-.18893-.21631-.29066-.36651-.30521-.4506-.0236-.13663.007-.23941.0929-.30832s.15457-.10789.20711-.11698c.0735-.0127.17636.0182.30831.0929 .11966.0659.35408.26354.70326.59287l1.22434,1.07112c.93224.75897 1.88159,1.3039 2.84806,1.63478-.27743-.35256-.45612-.76008-.53607-1.22256-.0854-.494-.0357-.9897.14889-1.48709 .17414-.49556.46792-.92521.88133-1.28895 .41161-.37424.89594-.6095 1.45302-.7058"/>
   <path d="m155.76501,533.11471c-.0648-.49712.0127-.97515.23255-1.43409 .20791-.46813.53859-.86084.99203-1.17813 .44288-.3159.93933-.5097 1.48934-.58142 .52885-.0689 1.04713-.0129 1.55482.16842s.93259.47006 1.2747.86648c.33155.39783.53041.85058.5966,1.35828 .0979.75098-.11805,1.44607-.64787,2.08525-.53119.62862-1.21458.99739-2.05018,1.10632-.55001.0717-1.07356.0165-1.57069-.16635-.50906-.1918-.93465-.48591-1.27678-.88235-.33429-.41896-.53246-.86643-.59452-1.34241m.5891-.0606c.12273.94137 1.00382,1.30518 2.64327,1.09145 1.62889-.21235 2.38197-.78921 2.25925-1.73058-.0703-.53944-.34071-.88068-.81115-1.02373s-1.07586-.16631-1.81627-.0698c-.77212.1007-1.36192.27975-1.7694.53725-.40883.24692-.5774.64539-.5057,1.1954"/>
  </g>
  <g transform="matrix(1.2 0 0 1.2 -31.612 -96.53)">
   <path d="m157.29493,492.71854c-.49791-.0585-.942-.43817-1.33227-1.13912-.39959-.7128-.55773-1.42408-.47441-2.13388 .0796-.67801.33871-1.23828.7773-1.68083 .42925-.45437.90342-.65109 1.42252-.59015 .47673.0559.86874.28458 1.17605.68581l1.33722,2.33184 .17724-1.50963c.046-.39197-.018-.7163-.19185-.97301-.17267-.26728-.25217-.4592-.2385-.57573 .008-.0636.0633-.12682.16728-.1898 .0947-.0748.21091-.10414.34863-.0879 .41317.0486.86944.55317 1.36881,1.51395l-.47389,4.03627c-.0286.24366-.0709.42127-.127.53283-.0548.10097-.17413.15677-.35796.1674-.11653-.0137-.1882-.0436-.21501-.0897l-.0619-.5711c-.025-.33587-.0858-.5954-.18245-.77859l-1.28858-2.19724c-.26742-.37507-.6236-.58873-1.06855-.64098-.39197-.046-.74652.0466-1.06366.27787-.32647.21944-.51272.52513-.55875.9171-.0236.20129.0174.39945.12353.59447 .0966.18318.26369.40685.50117.67102l.41232.46727c.12843.18691.17895.3969.15158.62996-.0249.21189-.13451.32252-.32894.33191"/>
   <path d="m157.87002,481.9765c-.0684.42116.057.81431.37588,1.17946s.74692.59131 1.28389.67847c.52645.0855.99871.005 1.41678-.24011 .41978-.25605.66299-.58939.72964-1.00001 .0684-.42116-.057-.81431-.37588-1.17946-.31725-.37568-.73909-.60625-1.26553-.6917-.53697-.0872-1.01449-.008-1.43256.23754s-.66214.58413-.73222,1.01581m-.51637-.81324c.24967-.67268.65868-1.19524 1.22703-1.56766s1.18417-.50478 1.84748-.39712c.48434.0786.91486.28898 1.29158.63108 .36619.34041.63633.77328.81041,1.29862 .17578.51482.22009,1.04072.13297,1.57768-.1333.82125-.51274,1.4945-1.13831,2.01971-.63609.52352-1.33318.72375-2.09125.6007-.64227-.10424-1.16611-.4054-1.57156-.90345-.40372-.50859-.64125-1.10908-.71257-1.80145-.23942.60952-.62238,1.07146-1.14888,1.38583-.53532.30213-1.10832.40364-1.719.30451-.6949-.11279-1.25416-.49533-1.6778-1.14764-.43243-.66453-.58458-1.39163-.45641-2.1813 .1299-.80019.49367-1.44355 1.09133-1.93008s1.25977-.67082 1.98625-.55291c.36851.0598.71112.21269 1.0278.4586 .30617.24421.56181.56667.76692.96737 .16642.37282.27776.78533.33404,1.23751m-4.30869-.0186c-.0649.40009.0577.7766.36779,1.12951 .31185.34239.71519.55375 1.21004.63406 .47381.0769.9233.004 1.34847-.21877 .40584-.2367.64123-.5551.70617-.9552 .0666-.41062-.0507-.78627-.35199-1.12695-.31013-.35292-.71788-.57038-1.22327-.65243-.51591-.0837-.97152-.006-1.36683.23201s-.62542.55767-.69038.95777"/>
   <path d="m157.89894,474.39397c.10124-.491.33075-.91744.68852-1.27932 .34948-.37447.79035-.63753 1.3226-.78918 .52182-.15379 1.05434-.17469 1.59758-.0627 .52234.1077.9938.33015 1.41438.66735s.72773.74906.92148,1.23553c.18332.48433.22328.97722.1199,1.47867-.15293.74174-.58421,1.32806-1.29385,1.75896-.70747.42047-1.47387.54563-2.29918.37547-.54324-.112-1.01991-.33554-1.43005-.67059-.41841-.34765-.72449-.76472-.91825-1.2512-.179-.50522-.22003-.99288-.12307-1.463m.57658.13522c-.1917.92977.52209,1.56159 2.14135,1.89545 1.60883.33171 2.5091.0327 2.7008-.89711 .10985-.53279-.0342-.94366-.432-1.23263s-.96241-.50881-1.69369-.65959c-.76262-.15723-1.37856-.18076-1.84782-.0706-.46708.0997-.75663.42123-.86864.96447"/>
  </g>
  <g transform="matrix(1.2 0 0 1.2 -36.003 -85.256)">
   <path d="m177.91112,431.00039c.0887-.24225.17944-.45349.27219-.63369 .24409-.47419.51453-.75488.81132-.84205 .28731-.092.69652-.001 1.22763.27198 .47421.24409.93278.60009 1.37575,1.06802 .44811.43461.75858.81035.93138,1.12723s.29609.78823.36987,1.41404c.0881.62122.0776,1.11962-.0318,1.49521s-.19575.62505-.25921.74834c-.17574.34143-.45337.62441-.83287.84896-.29276.14923-.58613.14818-.88014-.003-.26039-.17002-.41994-.3961-.47866-.67825-.0443-.28677-.025-.51075.0579-.67198 .039-.0758.0996-.15866.18181-.24834 .0917-.0848.29317-.185.60462-.30062 .3258-.12022.54931-.26311.67051-.42866 .0976-.18968.0817-.46179-.0477-.81633-.11506-.35914-.312-.65246-.59079-.87994-.27393-.23697-.51996-.41158-.73809-.52387-.0664-.0342-.1447-.0685-.23493-.10293-.0758-.039-.25176-.0935-.52763-.16361s-.50315-.0131-.68181.17092l-.37429.79708-.55692,1.11696c-.1318.25608-.25461.35482-.36841.29624-.14227-.0732-.20049-.19317-.17469-.35984s.0415-.29052.0472-.37155c.001-.0954-.0117-.22197-.0385-.37972l-.52278-2.4105c-.10963-.41632-.35412-.72212-.73348-.91739-.30349-.15621-.6286-.0956-.97533.1818-.35133.26304-.62952.59373-.83454.99205-.0928.1802-.14771.39185-.16487.63494-.0123.23363-.0288.41711-.0494.55044-.0252.11897-.0479.22127-.068.3069-.0491.1187-.1643.17937-.34562.18201-.24309-.0171-.3502-.24024-.32133-.66926 .0337-.43849.0739-.81967.12073-1.14353s.0932-.62386.13933-.90001c.051-.28563.0962-.47831.13557-.57805 .0298-.1046.0716-.20905.12533-.31339 .0878-.1707.24269-.35494.46444-.55272 .21717-.21213.48104-.34023.79165-.38431 .30112-.0489.53746-.0653.70901-.049s.33794.0659.49917.14897c.38884.20015.6592.53725.81109,1.01131l.48513,1.95924"/>
   <path d="m177.109,423.33143c.24734-.43607.59688-.77126 1.0486-1.00557 .44772-.24883.94813-.36356 1.50121-.34417 .54383.0141 1.05696.15803 1.53943.43167 .4639.26313.84411.6198 1.14058,1.07s.4621.93656.49685,1.45905-.0881.99852-.34069,1.44387c-.37364.65875-.96433,1.08402-1.7721,1.27579-.8025.18251-1.57024.0659-2.30321-.34984-.48247-.27364-.8673-.63293-1.15451-1.07789-.29121-.45948-.4542-.95046-.48895-1.47296-.0152-.53578.096-1.01243.33279-1.42995m.50705.30598c-.46835.82577.0165,1.64648 1.45463,2.46215 1.42885.81043 2.37745.80276 2.84581-.023 .26837-.47318.25772-.90844-.0324-1.30574s-.75927-.78014-1.40875-1.14852c-.6773-.38415-1.25616-.59597-1.73655-.63545-.47512-.0488-.84951.16811-1.12316.65056"/>
   <path d="m180.74874,417.20645c.26476-.42571.62755-.7465 1.08838-.96236 .45741-.23054.96204-.32494 1.5139-.28322 .5428.0361 1.0497.20062 1.52071.49353 .4529.28167.81838.6534 1.09642,1.11522s.42386.95447.43748,1.47793-.12838.99415-.39877,1.42893c-.39996.64312-1.00736,1.04415-1.82221,1.20313-.80923.14993-1.57162.002-2.2872-.44263-.47101-.29292-.841-.66748-1.11-1.12366-.27241-.47088-.41541-.96806-.42902-1.49154 .007-.53593.13683-1.00771.39031-1.41533m.49427.32623c-.50135.80616-.05,1.6458 1.35394,2.51893 1.39492.8675 2.34305.89818 2.8444.092 .28729-.46195.29423-.89727.0208-1.30597s-.72712-.81019-1.36118-1.20451c-.66123-.41121-1.23104-.64625-1.70944-.70512-.47277-.0679-.85562.13364-1.14854.60465"/>
  </g>
  <g transform="matrix(1.2 0 0 1.2 -43.724 -76.032)">
   <path d="m214.47321,383.3636c.1664-.19714.32406-.36445.47298-.50193 .39189-.36175.74218-.53267 1.05088-.51279 .30146.0121.65476.23755 1.05993.67646 .36175.3919.67045.88357.92609,1.47503 .27192.56192.43471,1.02134.48838,1.37826s.008.84198-.13746,1.45514c-.13022.61376-.31109,1.07831-.5426,1.39364s-.39823.52001-.50012.61408c-.28216.26045-.63999.43109-1.07348.51188-.32618.0398-.60141-.0618-.8257-.30476-.1863-.24901-.25865-.5161-.21705-.80127 .0566-.28458.15162-.48838.28486-.61136 .0627-.0579.14802-.11487.25594-.17094 .11516-.0482.33884-.0732.67105-.0751 .34728-.001.60623-.0588.77685-.17275 .15675-.1447.23513-.40576.23513-.78318 .0151-.37683-.0694-.71989-.25323-1.02919-.17606-.31652-.34729-.56492-.51369-.74519l-.1854-.17726c-.0579-.0627-.2044-.17423-.43953-.33461s-.46817-.18478-.69908-.0733l-.62492.62041-.90617.85826c-.21163.19534-.36085.24599-.44767.15194-.10853-.11757-.12209-.25021-.0407-.39793s.13867-.25865.17183-.33281c.0337-.0892.0651-.21252.0941-.36989l.3355-2.44362c.0398-.42867-.0851-.79976-.37442-1.11327-.23152-.25081-.55771-.30537-.97853-.16369-.42023.12662-.79495.34187-1.12413.64574-.14892.13746-.27312.31743-.3726.53991-.0916.21524-.17002.38195-.23514.50012l-.1691.26498c-.0868.0946-.21585.11216-.38708.0524-.22247-.0995-.2466-.34576-.0724-.73887 .18208-.40034.35059-.7446.50554-1.0328s.30145-.55408.43951-.79766c.14591-.25081.25443-.41631.32557-.49651 .0639-.0881.13898-.17183.22519-.25142 .14108-.13022.34969-.2502.62583-.35994 .27674-.1248.56854-.15464.87542-.0896 .29965.0572.52726.12301.68281.19716s.29482.17786.41782.31109c.29664.32136.43501.73074.41512,1.22814l-.21612,2.00681"/>
   <path d="m215.62567,379.37086c-.32426-.38234-.39005-.96291-.19738-1.7417 .19391-.79382.5634-1.42186 1.10844-1.8841 .52064-.44154 1.09226-.67456 1.71484-.69908 .62382-.0396 1.10476.14003 1.44282.53863 .31046.36609.44123.80064.39231,1.30366l-.61248,2.61735 1.15925-.98314c.301-.25526.47544-.53607.52333-.84242 .056-.31324.12878-.50781.21827-.58371 .0488-.0414.13273-.0496.25176-.0247 .12028.01.22525.0677.31495.17346 .26906.31728.25855.99753-.0316,2.04075l-3.09946,2.62858c-.18711.15868-.3392.2597-.45629.30305-.10895.0365-.23426-.004-.37595-.12172-.0759-.0894-.10792-.16023-.0961-.21224l.34431-.45982c.21079-.26268.34332-.49396.39759-.69384l.55625-2.48573c.0602-.45669-.0545-.85587-.34427-1.19755-.25527-.30099-.57774-.47507-.96739-.52225-.38842-.0622-.73312.0344-1.03412.2896-.15457.1311-.2596.30408-.31511.51898-.0542.19988-.0846.4774-.0911.83256l-.0172.62294c-.0336.22427-.13984.41231-.31881.56408-.16271.13799-.31836.14412-.46693.0188"/>
   <path d="m222.34939,370.99923c.39563-.30792.84696-.48348 1.35401-.52668 .5089-.0582 1.01505.0277 1.51845.2577 .49683.22157.91558.55121 1.25626.98892 .32758.42088.54197.89606.64318,1.42553s.0677,1.04216-.10053,1.53805c-.17479.48746-.4642.88843-.86824,1.2029-.59766.46515-1.30626.63145-2.12583.49886-.81115-.13912-1.47551-.54118-1.99307-1.20617-.34068-.43771-.55835-.9171-.653-1.43816-.0927-.53603-.055-1.05198.11316-1.54787 .19162-.50057.47682-.89826.85561-1.19308m.35098.477c-.74917.58309-.61601,1.527.39947,2.83172 1.00892,1.29631 1.88797,1.65292 2.63713,1.06984 .4293-.33412.58634-.74019.47111-1.21821s-.40214-1.01164-.86074-1.60088c-.47827-.61447-.93166-1.03204-1.36021-1.25268-.42013-.2272-.84904-.17046-1.28676.17021"/>
  </g>
  <g transform="matrix(1.2 0 0 1.2 -54.431 -69.915)">
   <path d="m265.70986,350.92702c.22453-.12705.43051-.22914.61791-.30631 .49317-.20304.88103-.2416 1.16358-.11569 .27848.11605.53143.45026.75884,1.00261 .20304.49316.32166,1.06146.35587,1.7049 .0597.62138.0527,1.10875-.021,1.46208s-.28521.79224-.6345,1.31671c-.33538.53028-.66639.90303-.99305,1.11827s-.55411.34924-.68232.40204c-.3551.14618-.74991.18185-1.18447.10703-.31968-.076-.54247-.26692-.66835-.57268-.0882-.29823-.0632-.57382.0749-.82677 .15202-.24716.31188-.40525.47956-.47428 .0789-.0325.1787-.0563.29938-.0714 .12473-.006.34317.049.65531.16279 .32607.11952.58889.15551.78847.10795 .19727-.0813.36148-.29879.49262-.65269 .14506-.34812.18511-.69912.12015-1.05305-.0551-.35797-.12935-.65039-.22275-.87726-.0285-.069-.0659-.14591-.11226-.23063-.0325-.0789-.13112-.23439-.29587-.46648s-.37479-.33595-.63008-.3116l-.80155.36462-1.14793.48992c-.26631.10964-.42383.1053-.47256-.0131-.0609-.14795-.0275-.27703.10011-.38727s.21989-.19435.27676-.25236c.0626-.0719.1349-.17666.21671-.31417l1.16368-2.17479c.18625-.38813.19817-.77947.0357-1.17401-.12996-.31562-.41685-.48012-.86069-.49349-.43805-.0273-.86421.0443-1.27846.2149-.18741.0771-.36641.20276-.53699.37681-.16071.16999-.29214.29908-.39426.38726l-.25065.18971c-.1143.0586-.24136.0302-.38118-.0853-.17405-.17058-.11109-.4099.18889-.71798 .30984-.31212.58747-.57638.8329-.79279s.47519-.4148.68929-.59524c.22397-.18449.38323-.30197.47781-.35244 .0906-.0603.19001-.11283.29851-.15751 .17754-.0731.41484-.11311.7119-.12007 .30286-.0208.58686.0525.852.22023 .26108.15783.45166.29853.57176.42211s.21465.26923.28369.4369c.1665.40441.154.83636-.0375,1.29585l-.89996,1.80667"/>
   <path d="m272.68557,348.72467-.9859-2.75703-1.10824,3.50588 2.09414-.74885m3.10362,4.4976c.0862.24105.0597.42044-.0795.53817-.12553.12418-.25356.20962-.38413.2563-.11049.0395-.26367.0546-.45955.0454-.18226-.003-.31648-.12473-.40267-.36578l-1.30914-3.66097-3.61577,1.29297-.1724-.4821 2.10035-6.76632 .91901-.32863 1.61083,4.50466 .78341-.28015c.11048-.0395.27401-.19993.49059-.48129s.37615-.46868.47873-.56201c.099-.10335.22524-.11452.37883-.0335 .14998.071.25012.17677.30041.31738 .14366.40176-.104,1.03972-.74295,1.91392l-1.20526.43099 1.30914,3.66097"/>
   <path d="m278.91638,341.60466c.47948-.1464.96375-.1493 1.45281-.009 .49615.12734.93829.38826 1.32643.78276 .38501.38432.65852.84172.8205,1.37219 .15576.51009.1864,1.0305.0919,1.56121s-.30877.99768-.64293,1.40083c-.33727.39297-.75075.66421-1.24043.81374-.72431.22118-1.4456.1236-2.16384-.29283-.70805-.41951-1.18512-1.03223-1.43122-1.83816-.16199-.53048-.19419-1.05598-.0966-1.57651 .10466-.53383.32407-1.00234.65823-1.4055 .35768-.39919.76605-.66887 1.22512-.80906m.15759.57087c-.90794.27724-1.12049,1.2065-.63765,2.78774 .47972,1.57106 1.17356,2.21797 2.08152,1.94072 .52027-.15887.81192-.48213.87491-.96979s-.0148-1.08854-.23258-1.80266c-.22742-.74472-.50189-1.29662-.82344-1.6557-.31135-.36219-.73227-.4623-1.26276-.30031"/>
  </g>
 </g>
 <g transform="translate(-125 -127.66)" font-family="DemocraticaRegular" letter-spacing="0" word-spacing="0">
  <text x="107.03876" y="266.32336" fill="#916445" font-size="28">
   <tspan x="107.03876" y="266.32336"/>
  </text>
  <g transform="matrix(1.2 0 0 1.2 109.78 347.59)" font-size="44">
   <path d="m193.89116,48.36656-.0859.34375c-2e-005,.05731-.086.08595-.25781.08594l-1.50391.23633c-.50132.10028-.82359.23635-.96679.4082s-.21487.57293-.21485,1.20313v14.78125c-2e-005,.47266.0143.88802.043,1.24609s.0429.52995.043.51563c-2e-005,.32943-.086.49414-.25781.49414-.20054-1e-006-.37958-.10026-.53711-.30078l-12.48242-15.85547-.19336.92383v12.20313c-1e-005,.51563.20767.8737.62304,1.07422s1.05989.33659 1.9336.4082c.444.02865.666.17904.66601.45117-1e-005,.17188-.0716.25781-.21484.25781h-6.4668c-.44401,0-.66602-.05729-.66601-.17188l.0859-.36523c0-.05729.0859-.08594.25782-.08594l1.5039-.21484c.48698-.08594.80208-.21484.94532-.38672 .15754-.1862.23632-.60156.23632-1.24609v-10.46289c0-1.2604-.0931-2.27017-.27929-3.0293-.17188-.77342-.4297-1.30337-.77344-1.58984-.32943-.30076-.75196-.45115-1.26758-.45117h-.75195c-.11459,1.8e-005-.17188-.10024-.17188-.30078 0-.22915.0286-.34373.0859-.34375h5.45703l11,14.24414 .0859-.9668v-11.08594c-2e-005-.51561-.2077-.87368-.62305-1.07422-.40106-.21483-1.04559-.35806-1.93359-.42969-.44403-.02863-.66603-.17186-.66602-.42969-1e-005-.17186.0788-.25779.23633-.25781h6.4668c.42966,1.9e-005 .64451.05731.64453.17188"/>
  </g>
  <g transform="matrix(1.2 0 0 1.2 109.78 236.82)" font-size="44">
   <path d="m189.87358,313.27747c-1e-005,1.08854-.26499,2.04818-.79492,2.8789s-1.26759,1.4681-2.21289,1.91211c-.931.44401-1.96941.66602-3.11524.66602-1.33203,0-2.49935-.20769-3.50195-.62305s-1.76888-.92383-2.29883-1.52539c-.52995-.61588-.79492-1.20312-.79492-1.76172 0-.84505.39388-1.26757 1.18164-1.26758 .41536,1e-005 .75195.15756 1.00977.47266 .27213.31511.50846.72331.70898,1.22461 .28645.73047.78059,1.36068 1.48242,1.89062 .71614.52995 1.62565.79493 2.72852.79493 1.17447,0 2.11978-.34375 2.83594-1.03125 .73045-.6875 1.09569-1.48242 1.0957-2.38477-1e-005-1.28906-1.1172-2.43489-3.35156-3.4375-1.41798-.65885-2.55665-1.25325-3.41602-1.7832-.84506-.52994-1.53256-1.06705-2.0625-1.61133-.52995-.55858-.90235-1.10285-1.11719-1.63281-.20052-.54426-.30078-1.1315-.30078-1.76172 0-.9453.22917-1.78319.6875-2.51367 .47265-.73046 1.11719-1.29621 1.9336-1.69727 .83072-.41535 1.74022-.62303 2.72851-.62305 1.27473,2e-005 2.44205.18622 3.50196.5586 1.0742.35809 1.68292.63022 1.82617.8164 .0573.0573.0859.20054.0859.42969l.2793,3.30859c-1e-005,.34377-.12176.51564-.36523.51563-.12892,1e-005-.27215-.14322-.42969-.42969l-.92383-1.89062c-.34376-.73046-.88803-1.33918-1.63281-1.82618s-1.49676-.73045-2.25586-.73046c-1.0599,1e-005-1.92644.28647-2.59961.85937-.65886.55861-.98829,1.2676-.98828,2.12695-1e-005,1.3034 1.0384,2.4922 3.11523,3.56641l3.24414,1.67578c1.10286.5586 1.99804,1.26759 2.68555,2.12695s1.03124,1.76173 1.03125,2.70704"/>
  </g>
  <g transform="matrix(0 1.2 -1.2 0 645.73 130.24)" font-size="44">
   <path d="m326.9162,187.47461-.32227,3.60937c-2e-005,.27214-.0287.43685-.0859.49414-.11461.20053-.80211.48698-2.0625.85938-1.26044.35807-2.68557.53711-4.2754.53711-1.34636,0-2.59245-.32227-3.73828-.9668-1.14584-.65885-2.04102-1.54687-2.68554-2.66406s-.9668-2.31315-.9668-3.58789v-10.16211c0-.14321-.0788-.27928-.23633-.4082-.15755-.14321-.3724-.23631-.64453-.2793l-1.39648-.19336c-.32943-.0286-.49415-.17186-.49414-.42969-1e-005-.17185.0573-.25779.17187-.25781h12.67578c1.14582,2e-005 2.05532.0716 2.72852.21484 .17185.28648.28644.54429.34375.77344 .0716.22919.17902.6732.32226,1.33203l.25782,1.46094c.0286.086.043.22918.043.42969-1e-005,.32944-.0573.49415-.17187.49414-.28648,1e-005-.56577-.19335-.83789-.58008l-.70899-1.05273c-.63022-.93098-1.18881-1.5397-1.67578-1.82618-.48699-.30076-1.09571-.45115-1.82617-.45117l-5.28516.0859c-.41537,2e-005-.62305.33661-.62304,1.00977v6.29492h6.46679c.2578,1e-005 .45116.0859.58008.25781 .14322.15756.21483.34376.21485.55859-2e-005,.1146-.043.25066-.12891.40821-.0859.14324-.18621.21485-.30078.21484l-5.58594.25781c-.80209.043-1.20313.3366-1.20312.88086v1.33203c-1e-005,2.06251.40819,3.60222 1.22461,4.61914 .81639,1.00261 2.15558,1.50391 4.01757,1.50391 .84504,0 1.68293-.27213 2.51368-.81641 .83071-.55859 1.43227-1.21744 1.80468-1.97656l1.00977-2.0625c.15753-.3151.31509-.47265.47266-.47265 .27211,0 .40818.1862.4082.55859"/>
  </g>
  <g transform="matrix(0 -1.2 1.2 0 14.5 578.75)" font-size="44">
   <path d="m64.654 183.4c-2.2e-5 1.6901-0.42971 3.2943-1.2891 4.8125-0.84507 1.5039-1.9909 2.7142-3.4375 3.6309-1.4323 0.90234-2.9577 1.3535-4.5762 1.3535-1.2318-1e-5 -2.4206-0.26498-3.5664-0.79493s-2.1556-1.2461-3.0293-2.1484c-0.85938-0.91667-1.5469-1.9694-2.0625-3.1582-0.50131-1.2031-0.75196-2.4349-0.75195-3.6953-3e-6 -1.7044 0.42252-3.2943 1.2676-4.7695s1.9909-2.6497 3.4375-3.5234c1.4609-0.87368 3.015-1.3105 4.6621-1.3106s3.194 0.43687 4.6406 1.3106 2.5924 2.0482 3.4375 3.5234 1.2676 3.0651 1.2676 4.7695m-3.3945 0.21484c-1.8e-5 -1.8333-0.23635-3.4446-0.70898-4.834s-1.1602-2.4492-2.0625-3.1797c-0.88804-0.73045-1.9336-1.0957-3.1367-1.0957-1.2461 2e-5 -2.3275 0.36525-3.2441 1.0957-0.90235 0.73049-1.5898 1.7761-2.0625 3.1367-0.47266 1.3464-0.70899 2.972-0.70898 4.877-6e-6 2.6641 0.52278 4.791 1.5684 6.3809 1.0599 1.5898 2.528 2.3848 4.4043 2.3848 1.862 0 3.3157-0.78776 4.3613-2.3633 1.0599-1.5898 1.5898-3.724 1.5898-6.4024"/>
  </g>
  <g transform="matrix(.84853 .84853 -.84853 .84853 299.06 135.96)" font-size="22">
   <path d="m239.13281,118.10559-.043.17188c-1e-005,.0287-.043.043-.1289.043l-.75196.11817c-.25066.0501-.41179.11817-.48339.2041s-.10744.28647-.10743.60156v7.39063c-1e-005,.23633.007.44401.0215.62304s.0215.26498.0215.25782c-1e-005,.16471-.043.24707-.1289.24707-.10027,0-.18979-.0501-.26856-.15039l-6.24121-7.92774-.0967.46192v6.10156c0,.25781.10384.43685.31152.53711s.52995.16829.9668.2041c.222.0143.333.0895.33301.22559-1e-005,.0859-.0358.1289-.10742.1289h-3.2334c-.22201,0-.33301-.0286-.33301-.0859l.043-.18261c0-.0286.043-.043.12891-.043l.75195-.10742c.24349-.043.40104-.10742.47266-.19336 .0788-.0931.11816-.30078.11816-.62305v-5.23144c0-.63021-.0465-1.13509-.13965-1.51465-.0859-.38671-.21485-.65169-.38672-.79493-.16471-.15038-.37598-.22557-.63379-.22558h-.37597c-.0573,1e-005-.0859-.0501-.0859-.15039 0-.11458.0143-.17187.043-.17188h2.72851l5.5,7.12207 .043-.48339v-5.54297c-1e-005-.25781-.10385-.43684-.31152-.53711-.20053-.10742-.5228-.17903-.9668-.21485-.22201-.0143-.33301-.0859-.33301-.21484 0-.0859.0394-.1289.11817-.12891h3.2334c.21483,1e-005 .32225.0287.32226.0859"/>
   <path d="m249.68164,124.74426-.16113,1.80469c-1e-005,.13607-.0143.21843-.043.24707-.0573.10026-.40105.24349-1.03125.42969-.63022.17903-1.34278.26855-2.1377.26855-.67318,0-1.29623-.16113-1.86914-.4834-.57292-.32942-1.02051-.77343-1.34277-1.33203s-.4834-1.15657-.4834-1.79394v-5.08106c0-.0716-.0394-.13964-.11816-.2041-.0788-.0716-.1862-.11815-.32227-.13965l-.69824-.0967c-.16472-.0143-.24707-.0859-.24707-.21484 0-.0859.0286-.1289.0859-.12891h6.33789c.57291,1e-005 1.02766.0358 1.36425.10743 .0859.14323.14323.27214.17188.38671 .0358.1146.0895.3366.16113.66602l.12891.73047c.0143.043.0215.11459.0215.21484-1e-005,.16472-.0286.24708-.0859.24707-.14324,1e-005-.28289-.0967-.41895-.29004l-.35449-.52636c-.31511-.46549-.59441-.76985-.83789-.91309-.2435-.15038-.54786-.22558-.91309-.22559l-2.64258.043c-.20768,1e-005-.31152.16831-.31152.50489v3.14746h3.2334c.1289,0 .22558.043.29004.1289 .0716.0788.10741.17188.10742.2793-1e-005,.0573-.0215.12533-.0644.2041-.043.0716-.0931.10743-.15039.10742l-2.79297.12891c-.40105.0215-.60157.1683-.60157.44043v.66601c0,1.03126.2041,1.80111.61231,2.30958 .4082.5013 1.07779.75195 2.00879.75195 .42252,0 .84146-.13607 1.25683-.4082 .41536-.2793.71614-.60873.90235-.98829l.50488-1.03125c.0788-.15755.15754-.23632.23633-.23632 .13606,0 .20409.0931.2041.27929"/>
  </g>
  <g transform="matrix(.84853 -.84853 .84853 .84853 48.323 447.36)" font-size="22">
   <path d="m127.26025,118.42053-.043.17188c-2e-005,.0286-.043.043-.12891.043l-.75195.11816c-.25067.0501-.4118.11817-.4834.2041s-.10743.28647-.10742.60156v7.39063c-1e-005,.23633.007.44401.0215.62305s.0215.26497.0215.25781c-1e-005,.16471-.043.24707-.1289.24707-.10027,0-.18979-.0501-.26856-.15039l-6.24121-7.92774-.0967.46192v6.10156c0,.25781.10384.43685.31153.53711s.52994.16829.96679.2041c.222.0143.33301.0895.33301.22559 0,.0859-.0358.1289-.10742.1289h-3.2334c-.22201,0-.33301-.0286-.33301-.0859l.043-.18262c0-.0286.043-.043.12891-.043l.75195-.10742c.24349-.043.40104-.10742.47266-.19336 .0788-.0931.11816-.30078.11816-.62305v-5.23144c0-.6302-.0465-1.13509-.13965-1.51465-.0859-.38671-.21484-.65169-.38672-.79492-.16471-.15039-.37597-.22558-.63379-.22559h-.37597c-.0573,1e-005-.0859-.0501-.0859-.15039 0-.11457.0143-.17187.043-.17188h2.72852l5.5,7.12208 .043-.4834v-5.54297c-1e-005-.25781-.10385-.43684-.31152-.53711-.20053-.10741-.52279-.17903-.9668-.21485-.22201-.0143-.33301-.0859-.333-.21484-1e-005-.0859.0394-.1289.11816-.12891h3.2334c.21483,1e-005 .32225.0287.32226.0859"/>
   <path d="m138.6792,122.95374c-1e-005,.84505-.21486,1.64713-.64453,2.40625-.42254.75195-.99545,1.35709-1.71875,1.81543-.71616.45117-1.47885.67675-2.28809.67675-.61589,0-1.21029-.13248-1.7832-.39746s-1.0778-.62304-1.51465-1.07422c-.42969-.45833-.77344-.9847-1.03125-1.5791-.25065-.60156-.37598-1.21744-.37598-1.84765 0-.85221.21127-1.64713.63379-2.38477s.99544-1.32486 1.71875-1.76172c.73047-.43684 1.50748-.65526 2.33106-.65527s1.597.21843 2.32031.65527 1.29621,1.0241 1.71875,1.76172 .63378,1.53256.63379,2.38477m-1.69727.10742c-1e-005-.91666-.11817-1.72233-.35449-2.41699s-.58008-1.22461-1.03125-1.58985c-.44402-.36522-.9668-.54784-1.56836-.54785-.62305,1e-005-1.16374.18263-1.62207.54785-.45117.36524-.79492.88803-1.03125,1.56836-.23633.67318-.35449,1.48601-.35449,2.43848 0,1.33203.26139,2.39551.78418,3.19043 .52994.79492 1.26399,1.19238 2.20215,1.19238 .93098,0 1.65787-.39388 2.18066-1.18164 .52994-.79492.79491-1.86198.79492-3.20117"/>
  </g>
  <g transform="matrix(-.84853 -.84853 .84853 -.84853 159.2 897.16)" font-size="22">
   <path d="m124.84326,246.11731c-1e-005,.54427-.13249,1.02409-.39746,1.43945s-.63379.73405-1.10644.95606-.98471.33301-1.55762.33301c-.66602,0-1.24968-.10385-1.75098-.31153s-.88444-.46191-1.14941-.76269c-.26498-.30794-.39746-.60156-.39746-.88086 0-.42253.19694-.63379.59082-.63379 .20768,0 .37597.0788.50488.23633 .13607.15755.25423.36165.35449.6123 .14323.36524.3903.68034.74121.94531 .35807.26498.81282.39746 1.36426.39746 .58724,0 1.05989-.17187 1.41797-.51562 .36523-.34375.54784-.74121.54785-1.19238-1e-005-.64453-.5586-1.21745-1.67578-1.71875-.70899-.32943-1.27832-.62663-1.70801-.89161-.42253-.26496-.76628-.53352-1.03125-.80566-.26497-.27929-.45117-.55143-.55859-.81641-.10026-.27212-.15039-.56574-.15039-.88085 0-.47265.11458-.8916.34375-1.25684 .23632-.36523.55859-.6481.96679-.84863 .41537-.20768.87012-.31152 1.36426-.31153 .63737,1e-005 1.22103.0931 1.75098.2793 .5371.17905.84146.31511.91308.4082 .0286.0287.043.10027.043.21485l.13965,1.65429c-1e-005,.17189-.0609.25782-.18262.25782-.0645,0-.13607-.0716-.21484-.21485l-.46191-.94531c-.17188-.36523-.44402-.66959-.81641-.91309s-.74838-.36522-1.12793-.36523c-.52995,1e-005-.96322.14324-1.2998.42969-.32943.2793-.49415.63379-.49414,1.06347-1e-005,.6517.5192,1.2461 1.55761,1.78321l1.62207.83789c.55143.2793.99902.63379 1.34278,1.06347s.51561.88087.51562,1.35352"/>
   <path d="m137.07861,244.03333c-1e-005,.84505-.21485,1.64713-.64453,2.40625-.42253.75195-.99545,1.35709-1.71875,1.81542-.71615.45118-1.47885.67676-2.28808.67676-.61589,0-1.2103-.13248-1.78321-.39746s-1.0778-.62304-1.51465-1.07422c-.42969-.45833-.77344-.9847-1.03125-1.5791-.25065-.60156-.37597-1.21744-.37597-1.84765 0-.85221.21126-1.64713.63379-2.38477s.99544-1.32486 1.71875-1.76172c.73046-.43684 1.50748-.65526 2.33105-.65527s1.597.21843 2.32031.65527 1.29622,1.0241 1.71875,1.76172 .63378,1.53256.63379,2.38477m-1.69726.10742c-1e-005-.91666-.11818-1.72233-.35449-2.417s-.58009-1.2246-1.03125-1.58984c-.44402-.36522-.96681-.54784-1.56836-.54785-.62306,1e-005-1.16375.18263-1.62207.54785-.45118.36524-.79493.88803-1.03125,1.56836-.23634.67318-.3545,1.48601-.3545,2.43848 0,1.33203.26139,2.39551.78418,3.19043 .52995.79492 1.264,1.19238 2.20215,1.19238 .93098,0 1.65787-.39388 2.18067-1.18164 .52993-.79492.79491-1.86198.79492-3.20117"/>
  </g>
  <g transform="matrix(-.84853 .84853 -.84853 -.84853 809.94 587.64)" font-size="22">
   <path d="m236.93066,246.11731c0,.54427-.13249,1.02409-.39746,1.43945s-.63379.73405-1.10644.95606-.98471.33301-1.55762.33301c-.66602,0-1.24968-.10385-1.75098-.31153s-.88444-.46191-1.14941-.76269c-.26498-.30794-.39746-.60156-.39746-.88086 0-.42253.19694-.63379.59082-.63379 .20768,0 .37597.0788.50488.23633 .13607.15755.25423.36165.35449.6123 .14323.36524.3903.68034.74122.94531 .35806.26498.81282.39746 1.36425.39746 .58724,0 1.05989-.17187 1.41797-.51562 .36523-.34375.54785-.74121.54785-1.19238 0-.64453-.5586-1.21745-1.67578-1.71875-.70899-.32943-1.27832-.62663-1.70801-.89161-.42252-.26496-.76627-.53352-1.03125-.80566-.26497-.27929-.45117-.55143-.55859-.81641-.10026-.27212-.15039-.56574-.15039-.88085 0-.47265.11458-.8916.34375-1.25684 .23633-.36523.55859-.6481.9668-.84863 .41536-.20768.87011-.31152 1.36425-.31153 .63737,1e-005 1.22103.0931 1.75098.2793 .5371.17905.84147.31511.91309.4082 .0286.0287.043.10027.043.21485l.13964,1.65429c0,.17189-.0609.25782-.18261.25782-.0645,0-.13608-.0716-.21485-.21485l-.46191-.94531c-.17188-.36523-.44402-.66959-.81641-.91309s-.74837-.36522-1.12793-.36523c-.52995,1e-005-.96322.14324-1.2998.42969-.32943.2793-.49414.63379-.49414,1.06347 0,.6517.5192,1.2461 1.55762,1.78321l1.62207.83789c.55142.2793.99901.63379 1.34277,1.06347s.51562.88087.51562,1.35352"/>
   <path d="m247.86621,246.13879-.16113,1.80469c-1e-005,.13607-.0143.21843-.043.24707-.0573.10026-.40105.24349-1.03125.42969-.63022.17904-1.34278.26855-2.1377.26855-.67318,0-1.29622-.16113-1.86914-.48339-.57292-.32943-1.02051-.77344-1.34277-1.33204s-.4834-1.15657-.4834-1.79394v-5.08106c0-.0716-.0394-.13964-.11816-.2041-.0788-.0716-.1862-.11815-.32227-.13965l-.69824-.0967c-.16471-.0143-.24707-.0859-.24707-.21484 0-.0859.0286-.1289.0859-.12891h6.33789c.57291,1e-005 1.02766.0358 1.36426.10743 .0859.14323.14322.27214.17187.38672 .0358.11459.0895.33659.16113.66601l.12891.73047c.0143.043.0215.11459.0215.21484-1e-005,.16472-.0286.24708-.0859.24707-.14324,1e-005-.28289-.0967-.41895-.29004l-.35449-.52636c-.31511-.46549-.59441-.76985-.83789-.91309-.2435-.15038-.54786-.22558-.91309-.22558l-2.64258.043c-.20768,1e-005-.31152.16831-.31152.50489v3.14746h3.2334c.1289,0 .22558.043.29004.1289 .0716.0788.10741.17188.10742.2793-1e-005,.0573-.0215.12533-.0644.2041-.043.0716-.0931.10743-.15039.10742l-2.79297.12891c-.40105.0215-.60157.1683-.60157.44043v.66602c0,1.03125.2041,1.8011.61231,2.30957 .4082.5013 1.07779.75195 2.00879.75195 .42252,0 .84146-.13607 1.25683-.4082 .41536-.2793.71614-.60873.90235-.98828l.50488-1.03125c.0788-.15755.15754-.23633.23633-.23633 .13606,0 .20409.0931.2041.27929"/>
  </g>
 </g>
 <g transform="translate(-125 -127.66)" fill="none" stroke="#000">
  <path transform="translate(95.5 277.86)" d="m234.5 122.01v225"/>
  <path transform="translate(95.5 277.86)" d="m122 234.51h225"/>
  <path d="m250.45 432.83 34.681 34.681m89.697 89.697 34.721 34.721"/>
  <path d="m250.45 591.92 34.79-34.79m89.58-89.58 34.729-34.729"/>
 </g>
 <g transform="matrix(.75436 .02986 .24204 .91594 -167.95 -94.445)" stroke-width="1.8141">
  <path d="m342.06 506.47-12.062 5.9062-12.062 5.9062 36.487 74.851 41.169 53.805-17.044-65.618z" fill="url(#n)" stroke="#636469"/>
  <path d="m317.94 518.29 12.062-5.9062 12.062-5.9062-36.487-74.851-41.169-53.805 17.044 65.618z" fill="url(#m)" stroke="#b4a58e"/>
 </g>
 <path transform="matrix(4.5062 .55329 -.55329 4.5062 -1178 -2214.5)" d="m378 531.11c0 3.2447-2.6303 5.875-5.875 5.875s-5.875-2.6303-5.875-5.875 2.6303-5.875 5.875-5.875 5.875 2.6303 5.875 5.875z" fill="url(#a)"/>
 <path transform="matrix(2.5318 .31087 -.31087 2.5318 -572.05 -1075.7)" d="m378 531.11c0 3.2447-2.6303 5.875-5.875 5.875s-5.875-2.6303-5.875-5.875 2.6303-5.875 5.875-5.875 5.875 2.6303 5.875 5.875z" fill="url(#b)" stroke="#c1c1c1"/>
</svg>
