<?xml version="1.0" encoding="UTF-8"?>
<svg width="103.73mm" height="111.64mm" version="1.1" viewBox="0 0 367.55977 395.57448" xmlns="http://www.w3.org/2000/svg" xmlns:xlink="http://www.w3.org/1999/xlink">
 <defs>
  <linearGradient id="r" x1="244.37" x2="303.35" y1="59.237" y2="149.63" gradientTransform="matrix(1.5598,0,0,1.5598,-847.66,-544.9)" gradientUnits="userSpaceOnUse">
   <stop stop-color="#eaf4f4" offset="0"/>
   <stop stop-color="#f2f2f2" offset="1"/>
  </linearGradient>
  <linearGradient id="s" x1="-42" x2="153" y1="596" y2="878" gradientTransform="translate(346.5 -324.5)" gradientUnits="userSpaceOnUse">
   <stop stop-color="#8e908b" offset="0"/>
   <stop stop-color="#eaece9" offset="1"/>
  </linearGradient>
  <filter id="p" color-interpolation-filters="sRGB">
   <feGaussianBlur stdDeviation="1.2703906"/>
  </filter>
  <linearGradient id="t" x1="4" x2="62.016" y1="65.5" y2="205.2" gradientTransform="translate(338,167)" gradientUnits="userSpaceOnUse">
   <stop stop-color="#fff" offset="0"/>
   <stop stop-color="#fff" stop-opacity="0" offset="1"/>
  </linearGradient>
  <linearGradient id="u" x1="-8" x2="-8" y1="475" y2="364" gradientTransform="matrix(.94313 -.33242 .33242 .94313 308.18 90.01)" gradientUnits="userSpaceOnUse">
   <stop stop-color="#e2e4df" offset="0"/>
   <stop stop-color="#e2e4df" stop-opacity="0" offset="1"/>
  </linearGradient>
  <linearGradient id="a">
   <stop stop-color="#f2f2f2" offset="0"/>
   <stop stop-color="#f2f2f2" stop-opacity="0" offset="1"/>
  </linearGradient>
  <filter id="q" color-interpolation-filters="sRGB">
   <feGaussianBlur stdDeviation="1.0392188"/>
  </filter>
  <linearGradient id="v" x1="383.96" x2="372.05" y1="365.79" y2="231.08" gradientUnits="userSpaceOnUse">
   <stop stop-color="#8b0000" offset="0"/>
   <stop stop-color="#a40000" stop-opacity="0" offset="1"/>
  </linearGradient>
  <linearGradient id="w" x1="382.95" x2="372.03" y1="372.06" y2="523.4" gradientUnits="userSpaceOnUse">
   <stop stop-color="#173560" offset="0"/>
   <stop stop-color="#204a87" stop-opacity="0" offset="1"/>
  </linearGradient>
  <linearGradient id="x" x1="372.11" x2="372.11" y1="372.3" y2="223.31" gradientTransform="matrix(1 0 0 .92286 0 14.363)" gradientUnits="userSpaceOnUse" xlink:href="#a"/>
  <linearGradient id="y" x1="372.11" x2="372.11" y1="372.3" y2="223.31" gradientTransform="matrix(1 0 0 -.91048 0 725.31)" gradientUnits="userSpaceOnUse" xlink:href="#a"/>
  <linearGradient id="z" x1="363.45" x2="386.55" y1="362.61" y2="386.55" gradientUnits="userSpaceOnUse">
   <stop stop-color="#eeeeec" offset="0"/>
   <stop stop-color="#d3d7cf" stop-opacity="0" offset="1"/>
  </linearGradient>
  <linearGradient id="aa" x1="286.02" x2="307.96" y1="335.03" y2="370.93" gradientUnits="userSpaceOnUse">
   <stop stop-color="#888a85" offset="0"/>
   <stop stop-color="#d3d7cf" offset="1"/>
  </linearGradient>
  <linearGradient id="ab" x1="372.05" x2="372.05" y1="372.05" y2="372.05" gradientTransform="matrix(.84331 -.53743 .53743 .84331 -141.65 258.25)" gradientUnits="userSpaceOnUse">
   <stop stop-color="#888a85" offset="0"/>
   <stop stop-color="#babdb6" offset="1"/>
  </linearGradient>
  <linearGradient id="ac" x1="372.05" x2="372.05" y1="372.05" y2="372.05" gradientTransform="matrix(.53743 .84331 -.84331 .53743 485.84 -141.65)" gradientUnits="userSpaceOnUse">
   <stop stop-color="#888a85" offset="0"/>
   <stop stop-color="#d3d7cf" offset="1"/>
  </linearGradient>
 </defs>
 <g transform="translate(-214.92 -180.87)">
  <circle transform="scale(-1)" cx="-400" cy="-378" r="143.5" fill="url(#r)"/>
  <path d="m404 236.5c-80.334 0-145.5 65.166-145.5 145.5 0 40.675 16.702 77.467 43.625 103.88 0.0619 0.0631 0.12549 0.12451 0.1875 0.1875l2.9375-2.6875c-0.10591-0.10319-0.20691-0.20898-0.3125-0.3125-25.02-25.521-40.438-60.484-40.438-99.062 0-78.172 63.328-141.5 141.5-141.5 38.578 0 73.542 15.418 99.062 40.438 3.1172 3.1796 6.0672 6.5073 8.875 9.9688l3.1562-2.8438c-2.9228-3.4534-5.991-6.7714-9.2188-9.9375-26.408-26.923-63.2-43.625-103.88-43.625z" color="#000000" fill="#d3d7cf" filter="url(#p)" style="block-progression:tb;text-indent:0;text-transform:none"/>
  <path d="m399 231.5c-80.334 0-145.5 65.166-145.5 145.5 0 40.675 16.702 77.467 43.625 103.88 26.408 26.923 63.2 43.625 103.88 43.625 80.334 0 145.5-65.166 145.5-145.5 0-40.675-16.702-77.467-43.625-103.88-26.408-26.923-63.2-43.625-103.88-43.625zm2 6c38.578 0 73.542 15.418 99.062 40.438 25.02 25.521 40.438 60.484 40.438 99.062 0 78.172-63.328 141.5-141.5 141.5-38.578 0-73.542-15.418-99.062-40.438-25.02-25.52-40.44-60.48-40.44-99.06 0-78.172 63.328-141.5 141.5-141.5z" color="#000000" fill="url(#s)" style="block-progression:tb;text-indent:0;text-transform:none"/>
  <path d="m318.54 495.63c36.693 25.878 84.945 34.208 130.52 18.146 45.572-16.062 77.937-52.806 90.294-95.973l-220.81 77.827z" fill="url(#u)" opacity=".8"/>
  <path d="m400 232.5c-76.903 0-139.66 60.502-143.31 136.5 0 0 90.613 17.662 143.33-30 54.436-49.218 143.33 30 143.33 30-3.66-76-66.45-136.5-143.35-136.5z" fill="url(#t)" opacity=".8"/>
 </g>
 <g transform="translate(-214.92 -433.23)">
  <g transform="matrix(.81707 0 0 .81707 24.147 292.91)">
   <path d="m660.81 413c0 110.9-89.905 200.81-200.81 200.81s-200.81-89.905-200.81-200.81 89.905-200.81 200.81-200.81 200.81 89.905 200.81 200.81z" fill="none" stroke="#000" stroke-width="1.6949"/>
   <g transform="translate(87.955,-267.32)">
    <path d="m371.39 480.39v7.5h1.3125v-7.5h-1.3125z"/>
    <path d="m372.7 880.24v-7.5h-1.3125v7.5h1.3125z"/>
   </g>
   <path d="m424.64 216.22 1.3024 7.3861 1.2926-0.22791-1.3024-7.3861-1.2926 0.22791z"/>
   <path d="m495.36 609.78-1.3024-7.3861-1.2926 0.22792 1.3024 7.3861 1.2926-0.22792z"/>
   <path d="m391 225.35 2.5652 7.0477 1.2333-0.4489-2.5652-7.0477l-1.2333 0.4489z"/>
   <path d="m529 600.65-2.5652-7.0477-1.2334 0.4489 2.5652 7.0477l1.2334-0.4489z"/>
   <path d="m359.47 240.19 3.75 6.4952 1.1367-0.65625-3.75-6.4952-1.1367 0.65625z"/>
   <path d="m560.53 585.81-3.75-6.4952-1.1366 0.65625 3.75 6.4952 1.1367-0.65625z"/>
   <path d="m330.99 260.27 4.8209 5.7453 1.0054-0.84365-4.8209-5.7453-1.0054 0.84366z"/>
   <path d="m589.01 565.73-4.8209-5.7453-1.0054 0.84366 4.8209 5.7453 1.0054-0.84365z"/>
   <path d="m306.42 284.99 5.7453 4.8209 0.84365-1.0054-5.7453-4.8209-0.84366 1.0054z"/>
   <path d="m613.58 541.01-5.7453-4.8209-0.84366 1.0054 5.7453 4.8209 0.84366-1.0054z"/>
   <path d="m286.53 313.6 6.4952 3.75 0.65625-1.1367-6.4952-3.75l-0.65625 1.1367z"/>
   <path d="m633.47 512.4-6.4952-3.75-0.65625 1.1367 6.4952 3.75l0.65625-1.1367z"/>
   <path d="m271.91 345.24 7.0477 2.5652 0.4489-1.2334-7.0477-2.5652-0.4489 1.2334z"/>
   <path d="m648.09 480.76-7.0477-2.5652-0.4489 1.2334 7.0477 2.5652 0.4489-1.2334z"/>
   <path d="m263 378.93 7.3861 1.3024 0.22791-1.2926-7.386-1.3024-0.22792 1.2926z"/>
   <path d="m657 447.07-7.3861-1.3024-0.22792 1.2926 7.3861 1.3024l0.22792-1.2926z"/>
   <path d="m260.07 413.66h7.5v-1.3125h-7.5v1.3125z"/>
   <path d="m659.93 412.34h-7.5v1.3125h7.5v-1.3125z"/>
   <path d="m263.22 448.36 7.3861-1.3024-0.22791-1.2926-7.3861 1.3024 0.22791 1.2926z"/>
   <path d="m656.78 377.64-7.3861 1.3024 0.22792 1.2926 7.3861-1.3024l-0.22792-1.2926z"/>
   <path d="m272.35 482 7.0477-2.5652-0.44891-1.2333-7.0477 2.5652 0.4489 1.2333z"/>
   <path d="m647.65 344-7.0477 2.5652 0.4489 1.2334 7.0477-2.5652-0.4489-1.2333z"/>
   <path d="m287.19 513.53 6.4952-3.75-0.65625-1.1366-6.4952 3.75 0.65625 1.1366z"/>
   <path d="m632.81 312.47-6.4952 3.75 0.65625 1.1367 6.4952-3.75l-0.65625-1.1367z"/>
   <path d="m307.27 542.01 5.7453-4.8209-0.84366-1.0054-5.7453 4.8209 0.84366 1.0054z"/>
   <path d="m612.73 283.99-5.7453 4.8209 0.84366 1.0054 5.7453-4.8209l-0.84366-1.0054z"/>
   <path d="m331.99 566.58 4.8209-5.7453-1.0054-0.84366-4.8209 5.7453 1.0054 0.84366z"/>
   <path d="m588.01 259.42-4.8209 5.7453 1.0054 0.84365 4.8209-5.7453-1.0054-0.84366z"/>
   <path d="m360.6 586.47 3.75-6.4952-1.1367-0.65625-3.75 6.4952 1.1367 0.65625z"/>
   <path d="m559.4 239.53-3.75 6.4952 1.1367 0.65625 3.75-6.4952l-1.1367-0.65625z"/>
   <path d="m392.24 601.09 2.5652-7.0477-1.2334-0.4489-2.5652 7.0477 1.2334 0.4489z"/>
   <path d="m527.76 224.91-2.5652 7.0477 1.2333 0.44891 2.5652-7.0477-1.2333-0.4489z"/>
   <path d="m425.93 610 1.3024-7.3861-1.2926-0.22792-1.3024 7.3861l1.2926 0.22792z"/>
   <g transform="translate(87.955,-267.32)" fill="#2e3436">
    <g transform="translate(64.152,371.01)">
     <path d="m304.68 124.61c0-0.71199 0.06-1.34 0.18-1.884 0.12-0.54399 0.272-0.96799 0.456-1.272 0.18399-0.31199 0.40399-0.56399 0.66-0.756 0.25599-0.19199 0.49999-0.31999 0.732-0.384 0.23999-0.064 0.49199-0.096 0.756-0.096 1.856 1e-5 2.784 1.488 2.784 4.464-1e-5 1.4-0.24001 2.472-0.72 3.216-0.47201 0.736-1.16 1.104-2.064 1.104-0.91201 0-1.604-0.372-2.076-1.116-0.472-0.75199-0.708-1.844-0.708-3.276m4.488-0.024c-1e-5 -2.288-0.56801-3.432-1.704-3.432-1.136 1e-5 -1.704 1.156-1.704 3.468-1e-5 2.336 0.55999 3.504 1.68 3.504 0.59199 0 1.028-0.288 1.308-0.864 0.27999-0.57599 0.41999-1.468 0.42-2.676"/>
    </g>
    <g transform="matrix(-1,0,0,-1,679.94,989.62)">
     <path d="m300.59 122.67h-1.884v-0.756c0.816-0.10399 1.348-0.24799 1.596-0.432 0.248-0.18399 0.464-0.60399 0.648-1.26h0.696v8.508h-1.056v-6.06"/>
     <path d="m308.85 124.25c0.97599 0.46401 1.464 1.172 1.464 2.124-1e-5 0.77601-0.26801 1.408-0.804 1.896-0.52801 0.488-1.212 0.732-2.052 0.732-0.84001 0-1.528-0.244-2.064-0.732-0.528-0.496-0.792-1.132-0.792-1.908 0-0.94399 0.484-1.648 1.452-2.112-0.43201-0.27199-0.732-0.53599-0.9-0.792-0.168-0.25599-0.252-0.57999-0.252-0.972 0-0.66399 0.236-1.208 0.708-1.632 0.47999-0.42399 1.096-0.63599 1.848-0.636 0.75199 1e-5 1.364 0.21201 1.836 0.636 0.47999 0.42401 0.71999 0.96801 0.72 1.632-1e-5 0.40001-0.084 0.72801-0.252 0.984-0.16801 0.25601-0.47201 0.51601-0.912 0.78m-0.324-2.724c-0.26401-0.24799-0.62001-0.37199-1.068-0.372-0.44801 1e-5 -0.80801 0.12401-1.08 0.372-0.26401 0.24001-0.39601 0.56401-0.396 0.972-1e-5 0.40001 0.13199 0.72401 0.396 0.972 0.27199 0.24001 0.63199 0.36001 1.08 0.36 0.43999 1e-5 0.79599-0.11999 1.068-0.36 0.27199-0.23999 0.40799-0.55999 0.408-0.96-1e-5 -0.41599-0.13601-0.74399-0.408-0.984m0.216 3.66c-0.32801-0.31199-0.75601-0.46799-1.284-0.468-0.52801 1e-5 -0.95601 0.15601-1.284 0.468-0.32801 0.30401-0.49201 0.70401-0.492 1.2-1e-5 0.49601 0.15999 0.9 0.48 1.212 0.32799 0.312 0.75199 0.468 1.272 0.468 0.53599 0 0.96799-0.152 1.296-0.456 0.33599-0.312 0.50399-0.71999 0.504-1.224-1e-5 -0.49599-0.16401-0.89599-0.492-1.2"/>
     <path d="m311.36 124.61c0-0.71199 0.06-1.34 0.18-1.884 0.12-0.54399 0.272-0.96799 0.456-1.272 0.184-0.31199 0.404-0.56399 0.66-0.756 0.256-0.19199 0.5-0.31999 0.732-0.384 0.24-0.064 0.492-0.096 0.756-0.096 1.856 1e-5 2.784 1.488 2.784 4.464 0 1.4-0.24 2.472-0.72 3.216-0.472 0.736-1.16 1.104-2.064 1.104-0.912 0-1.604-0.372-2.076-1.116-0.472-0.75199-0.708-1.844-0.708-3.276m4.488-0.024c0-2.288-0.568-3.432-1.704-3.432-1.136 1e-5 -1.704 1.156-1.704 3.468 0 2.336 0.56 3.504 1.68 3.504 0.592 0 1.028-0.288 1.308-0.864 0.28-0.57599 0.42-1.468 0.42-2.676"/>
    </g>
    <g transform="matrix(.98481 -.17365 .17365 .98481 15.12 429.18)">
     <path d="m300.72 121.14c-0.608 1e-5 -1.028 0.16801-1.26 0.504-0.224 0.32801-0.344 0.76801-0.36 1.32h-1.056c0.04-1.832 0.928-2.748 2.664-2.748 0.80799 1e-5 1.44 0.20801 1.896 0.624 0.46399 0.41601 0.69599 0.98801 0.696 1.716-1e-5 0.86401-0.39601 1.452-1.188 1.764 0.51199 0.17601 0.87999 0.42401 1.104 0.744 0.22399 0.31201 0.33599 0.74001 0.336 1.284-1e-5 0.80801-0.26401 1.452-0.792 1.932-0.52001 0.48-1.216 0.72-2.088 0.72-1.744 0-2.68-0.916-2.808-2.748h1.056c0.04 0.61601 0.204 1.072 0.492 1.368s0.72 0.444 1.296 0.444c0.55199 0 0.98399-0.148 1.296-0.444 0.31199-0.304 0.46799-0.72399 0.468-1.26-1e-5 -1.032-0.58801-1.548-1.764-1.548l-0.444 0.012h-0.132v-0.9c0.76-0.016 1.296-0.11199 1.608-0.288 0.31999-0.17599 0.47999-0.52399 0.48-1.044-1e-5 -0.44799-0.13601-0.79999-0.408-1.056-0.26401-0.26399-0.628-0.39599-1.092-0.396"/>
     <path d="m309.87 120.22v1.044h-3.54l-0.336 2.376c0.47199-0.34399 0.99599-0.51599 1.572-0.516 0.81599 1e-5 1.476 0.26401 1.98 0.792 0.51199 0.52001 0.76799 1.2 0.768 2.04-1e-5 0.89601-0.27201 1.628-0.816 2.196-0.54401 0.568-1.244 0.852-2.1 0.852-0.32801 0-0.63201-0.036-0.912-0.108-0.27201-0.072-0.50001-0.156-0.684-0.252-0.17601-0.104-0.34001-0.236-0.492-0.396-0.144-0.168-0.256-0.312-0.336-0.432-0.072-0.128-0.144-0.284-0.216-0.468-0.064-0.19199-0.104-0.32399-0.12-0.396-0.016-0.072-0.036-0.17599-0.06-0.312h1.056c0.24799 0.952 0.82799 1.428 1.74 1.428 0.57599 0 1.028-0.176 1.356-0.528 0.33599-0.35199 0.50399-0.83199 0.504-1.44-1e-5 -0.63199-0.16801-1.128-0.504-1.488-0.33601-0.36799-0.78801-0.55199-1.356-0.552-0.32801 1e-5 -0.60801 0.06-0.84 0.18-0.23201 0.11201-0.47201 0.31601-0.72 0.612h-0.972l0.636-4.632h4.392"/>
     <path d="m311.36 124.61c0-0.71199 0.06-1.34 0.18-1.884 0.12-0.54399 0.272-0.96799 0.456-1.272 0.184-0.31199 0.404-0.56399 0.66-0.756 0.256-0.19199 0.5-0.31999 0.732-0.384 0.24-0.064 0.492-0.096 0.756-0.096 1.856 1e-5 2.784 1.488 2.784 4.464 0 1.4-0.24 2.472-0.72 3.216-0.472 0.736-1.16 1.104-2.064 1.104-0.912 0-1.604-0.372-2.076-1.116-0.472-0.75199-0.708-1.844-0.708-3.276m4.488-0.024c0-2.288-0.568-3.432-1.704-3.432-1.136 1e-5 -1.704 1.156-1.704 3.468 0 2.336 0.56 3.504 1.68 3.504 0.592 0 1.028-0.288 1.308-0.864 0.28-0.57599 0.42-1.468 0.42-2.676"/>
    </g>
    <g transform="matrix(-.98481 .17365 -.17365 -.98481 728.97 931.46)">
     <path d="m300.59 122.67h-1.884v-0.756c0.816-0.10399 1.348-0.24799 1.596-0.432 0.248-0.18399 0.464-0.60399 0.648-1.26h0.696v8.508h-1.056v-6.06"/>
     <path d="m310.4 120.22v0.888c-0.96001 1.28-1.72 2.532-2.28 3.756-0.55201 1.216-0.94401 2.504-1.176 3.864h-1.128c0.31999-1.4 0.72799-2.632 1.224-3.696 0.49599-1.064 1.252-2.32 2.268-3.768h-4.596v-1.044h5.688"/>
     <path d="m311.36 124.61c0-0.71199 0.06-1.34 0.18-1.884 0.12-0.54399 0.272-0.96799 0.456-1.272 0.184-0.31199 0.404-0.56399 0.66-0.756 0.256-0.19199 0.5-0.31999 0.732-0.384 0.24-0.064 0.492-0.096 0.756-0.096 1.856 1e-5 2.784 1.488 2.784 4.464 0 1.4-0.24 2.472-0.72 3.216-0.472 0.736-1.16 1.104-2.064 1.104-0.912 0-1.604-0.372-2.076-1.116-0.472-0.75199-0.708-1.844-0.708-3.276m4.488-0.024c0-2.288-0.568-3.432-1.704-3.432-1.136 1e-5 -1.704 1.156-1.704 3.468 0 2.336 0.56 3.504 1.68 3.504 0.592 0 1.028-0.288 1.308-0.864 0.28-0.57599 0.42-1.468 0.42-2.676"/>
    </g>
    <g transform="matrix(.93969 -.34202 .34202 .93969 -23.067 494.97)">
     <path d="m300.73 121.14c-0.60801 1e-5 -1.028 0.16801-1.26 0.504-0.224 0.32801-0.344 0.76801-0.36 1.32h-1.056c0.04-1.832 0.928-2.748 2.664-2.748 0.80799 1e-5 1.44 0.20801 1.896 0.624 0.46399 0.41601 0.69599 0.98801 0.696 1.716-1e-5 0.86401-0.39601 1.452-1.188 1.764 0.51199 0.17601 0.87999 0.42401 1.104 0.744 0.22399 0.31201 0.33599 0.74001 0.336 1.284-1e-5 0.80801-0.26401 1.452-0.792 1.932-0.52001 0.48-1.216 0.72-2.088 0.72-1.744 0-2.68-0.916-2.808-2.748h1.056c0.04 0.61601 0.204 1.072 0.492 1.368s0.71999 0.444 1.296 0.444c0.55199 0 0.98399-0.148 1.296-0.444 0.31199-0.304 0.46799-0.72399 0.468-1.26-1e-5 -1.032-0.58801-1.548-1.764-1.548l-0.444 0.012h-0.132v-0.9c0.75999-0.016 1.296-0.11199 1.608-0.288 0.31999-0.17599 0.47999-0.52399 0.48-1.044-1e-5 -0.44799-0.13601-0.79999-0.408-1.056-0.26401-0.26399-0.62801-0.39599-1.092-0.396"/>
     <path d="m308.1 126.69h-3.588v-1.116l3.864-5.352h0.78001v5.52h1.26v0.948h-1.26v2.04h-1.056v-2.04m0-0.948v-3.72l-2.664 3.72h2.664"/>
     <path d="m311.34 124.61c-1e-5 -0.71199 0.06-1.34 0.18-1.884 0.11999-0.54399 0.27199-0.96799 0.45599-1.272 0.184-0.31199 0.404-0.56399 0.66-0.756 0.256-0.19199 0.5-0.31999 0.732-0.384 0.24-0.064 0.492-0.096 0.756-0.096 1.856 1e-5 2.784 1.488 2.784 4.464 0 1.4-0.24 2.472-0.72 3.216-0.472 0.736-1.16 1.104-2.064 1.104-0.912 0-1.604-0.372-2.076-1.116-0.472-0.75199-0.708-1.844-0.70799-3.276m4.488-0.024c-1e-5 -2.288-0.56801-3.432-1.704-3.432-1.136 1e-5 -1.704 1.156-1.704 3.468 0 2.336 0.56 3.504 1.68 3.504 0.592 0 1.028-0.288 1.308-0.864 0.28-0.57599 0.42-1.468 0.42001-2.676"/>
    </g>
    <g transform="matrix(-.93969 .34202 -.34202 -.93969 767.16 865.66)">
     <path d="m300.59 122.67h-1.884v-0.756c0.816-0.10399 1.348-0.24799 1.596-0.432 0.248-0.18399 0.464-0.60399 0.648-1.26h0.696v8.508h-1.056v-6.06"/>
     <path d="m304.68 124.85c0-0.75199 0.068-1.412 0.204-1.98 0.136-0.57599 0.304-1.028 0.504-1.356 0.20799-0.32799 0.45199-0.59199 0.732-0.792 0.28799-0.20799 0.55599-0.34399 0.804-0.408 0.25599-0.064 0.52399-0.096 0.804-0.096 0.64799 1e-5 1.184 0.19601 1.608 0.588 0.43199 0.39201 0.69999 0.93601 0.804 1.632h-1.056c-0.088-0.40799-0.25601-0.72399-0.504-0.948-0.24801-0.22399-0.55601-0.33599-0.924-0.336-0.60801 1e-5 -1.076 0.28001-1.404 0.84-0.32001 0.55201-0.48401 1.348-0.492 2.388 0.46399-0.63199 1.116-0.94799 1.956-0.948 0.75999 1e-5 1.384 0.25201 1.872 0.756 0.48799 0.50401 0.73199 1.152 0.732 1.944-1e-5 0.83201-0.26401 1.52-0.792 2.064-0.52001 0.536-1.184 0.804-1.992 0.804-1.904 0-2.856-1.384-2.856-4.152m2.904-0.48c-0.52001 1e-5 -0.94401 0.16801-1.272 0.504-0.32801 0.32801-0.49201 0.75601-0.492 1.284-1e-5 0.54401 0.16399 1 0.492 1.368 0.32799 0.36 0.73999 0.54 1.236 0.54 0.48799 0 0.89199-0.172 1.212-0.516 0.31999-0.35199 0.47999-0.79599 0.48-1.332-1e-5 -0.56799-0.14801-1.016-0.444-1.344-0.29601-0.33599-0.70001-0.50399-1.212-0.504"/>
     <path d="m311.36 124.61c0-0.71199 0.06-1.34 0.18-1.884 0.12-0.54399 0.272-0.96799 0.456-1.272 0.184-0.31199 0.404-0.56399 0.66-0.756 0.256-0.19199 0.5-0.31999 0.732-0.384 0.24-0.064 0.492-0.096 0.756-0.096 1.856 1e-5 2.784 1.488 2.784 4.464 0 1.4-0.24 2.472-0.72 3.216-0.472 0.736-1.16 1.104-2.064 1.104-0.912 0-1.604-0.372-2.076-1.116-0.472-0.75199-0.708-1.844-0.708-3.276m4.488-0.024c0-2.288-0.568-3.432-1.704-3.432-1.136 1e-5 -1.704 1.156-1.704 3.468 0 2.336 0.56 3.504 1.68 3.504 0.592 0 1.028-0.288 1.308-0.864 0.28-0.57599 0.42-1.468 0.42-2.676"/>
    </g>
    <g transform="matrix(.86603 -.5 .5 .86603 -49.249 566.4)">
     <path d="m300.72 121.14c-0.608 1e-5 -1.028 0.16801-1.26 0.504-0.224 0.32801-0.344 0.76801-0.36 1.32h-1.056c0.04-1.832 0.928-2.748 2.664-2.748 0.80799 1e-5 1.44 0.20801 1.896 0.624 0.46399 0.41601 0.69599 0.98801 0.696 1.716-1e-5 0.86401-0.39601 1.452-1.188 1.764 0.51199 0.17601 0.87999 0.42401 1.104 0.744 0.22399 0.31201 0.33599 0.74001 0.336 1.284-1e-5 0.80801-0.26401 1.452-0.792 1.932-0.52001 0.48-1.216 0.72-2.088 0.72-1.744 0-2.68-0.916-2.808-2.748h1.056c0.04 0.61601 0.204 1.072 0.492 1.368s0.72 0.444 1.296 0.444c0.55199 0 0.98399-0.148 1.296-0.444 0.31199-0.304 0.46799-0.72399 0.468-1.26-1e-5 -1.032-0.58801-1.548-1.764-1.548l-0.444 0.012h-0.132v-0.9c0.76-0.016 1.296-0.11199 1.608-0.288 0.31999-0.17599 0.47999-0.52399 0.48-1.044-1e-5 -0.44799-0.13601-0.79999-0.408-1.056-0.26401-0.26399-0.628-0.39599-1.092-0.396"/>
     <path d="m307.4 121.14c-0.60801 1e-5 -1.028 0.16801-1.26 0.504-0.22401 0.32801-0.34401 0.76801-0.36 1.32h-1.056c0.04-1.832 0.92799-2.748 2.664-2.748 0.80799 1e-5 1.44 0.20801 1.896 0.624 0.46399 0.41601 0.69599 0.98801 0.696 1.716-1e-5 0.86401-0.39601 1.452-1.188 1.764 0.51199 0.17601 0.87999 0.42401 1.104 0.744 0.22399 0.31201 0.33599 0.74001 0.336 1.284-1e-5 0.80801-0.26401 1.452-0.792 1.932-0.52001 0.48-1.216 0.72-2.088 0.72-1.744 0-2.68-0.916-2.808-2.748h1.056c0.04 0.61601 0.20399 1.072 0.492 1.368 0.28799 0.296 0.71999 0.444 1.296 0.444 0.55199 0 0.98399-0.148 1.296-0.444 0.31199-0.304 0.46799-0.72399 0.468-1.26-1e-5 -1.032-0.58801-1.548-1.764-1.548l-0.444 0.012h-0.132v-0.9c0.75999-0.016 1.296-0.11199 1.608-0.288 0.31999-0.17599 0.47999-0.52399 0.48-1.044-1e-5 -0.44799-0.13601-0.79999-0.408-1.056-0.26401-0.26399-0.62801-0.39599-1.092-0.396"/>
     <path d="m311.36 124.61c0-0.71199 0.06-1.34 0.18-1.884 0.12-0.54399 0.272-0.96799 0.456-1.272 0.184-0.31199 0.404-0.56399 0.66-0.756 0.256-0.19199 0.5-0.31999 0.732-0.384 0.24-0.064 0.492-0.096 0.756-0.096 1.856 1e-5 2.784 1.488 2.784 4.464 0 1.4-0.24 2.472-0.72 3.216-0.472 0.736-1.16 1.104-2.064 1.104-0.912 0-1.604-0.372-2.076-1.116-0.472-0.75199-0.708-1.844-0.708-3.276m4.488-0.024c0-2.288-0.568-3.432-1.704-3.432-1.136 1e-5 -1.704 1.156-1.704 3.468 0 2.336 0.56 3.504 1.68 3.504 0.592 0 1.028-0.288 1.308-0.864 0.28-0.57599 0.42-1.468 0.42-2.676"/>
    </g>
    <g transform="matrix(-.86603 .5 -.5 -.86603 793.34 794.23)">
     <path d="m300.59 122.67h-1.884v-0.756c0.816-0.10399 1.348-0.24799 1.596-0.432 0.248-0.18399 0.464-0.60399 0.648-1.26h0.696v8.508h-1.056v-6.06"/>
     <path d="m309.87 120.22v1.044h-3.54l-0.336 2.376c0.47199-0.34399 0.99599-0.51599 1.572-0.516 0.81599 1e-5 1.476 0.26401 1.98 0.792 0.51199 0.52001 0.76799 1.2 0.768 2.04-1e-5 0.89601-0.27201 1.628-0.816 2.196-0.54401 0.568-1.244 0.852-2.1 0.852-0.32801 0-0.63201-0.036-0.912-0.108-0.27201-0.072-0.50001-0.156-0.684-0.252-0.17601-0.104-0.34001-0.236-0.492-0.396-0.144-0.168-0.256-0.312-0.336-0.432-0.072-0.128-0.144-0.284-0.216-0.468-0.064-0.19199-0.104-0.32399-0.12-0.396-0.016-0.072-0.036-0.17599-0.06-0.312h1.056c0.24799 0.952 0.82799 1.428 1.74 1.428 0.57599 0 1.028-0.176 1.356-0.528 0.33599-0.35199 0.50399-0.83199 0.504-1.44-1e-5 -0.63199-0.16801-1.128-0.504-1.488-0.33601-0.36799-0.78801-0.55199-1.356-0.552-0.32801 1e-5 -0.60801 0.06-0.84 0.18-0.23201 0.11201-0.47201 0.31601-0.72 0.612h-0.972l0.636-4.632h4.392"/>
     <path d="m311.36 124.61c0-0.71199 0.06-1.34 0.18-1.884 0.12-0.54399 0.272-0.96799 0.456-1.272 0.184-0.31199 0.404-0.56399 0.66-0.756 0.256-0.19199 0.5-0.31999 0.732-0.384 0.24-0.064 0.492-0.096 0.756-0.096 1.856 1e-5 2.784 1.488 2.784 4.464 0 1.4-0.24 2.472-0.72 3.216-0.472 0.736-1.16 1.104-2.064 1.104-0.912 0-1.604-0.372-2.076-1.116-0.472-0.75199-0.708-1.844-0.708-3.276m4.488-0.024c0-2.288-0.568-3.432-1.704-3.432-1.136 1e-5 -1.704 1.156-1.704 3.468 0 2.336 0.56 3.504 1.68 3.504 0.592 0 1.028-0.288 1.308-0.864 0.28-0.57599 0.42-1.468 0.42-2.676"/>
    </g>
    <g transform="matrix(.76604 -.64279 .64279 .76604 -62.63 641.29)">
     <path d="m300.72 121.14c-0.608 1e-5 -1.028 0.16801-1.26 0.504-0.224 0.32801-0.344 0.76801-0.36 1.32h-1.056c0.04-1.832 0.928-2.748 2.664-2.748 0.80799 1e-5 1.44 0.20801 1.896 0.624 0.46399 0.41601 0.69599 0.98801 0.696 1.716-1e-5 0.86401-0.39601 1.452-1.188 1.764 0.51199 0.17601 0.87999 0.42401 1.104 0.744 0.22399 0.31201 0.33599 0.74001 0.336 1.284-1e-5 0.80801-0.26401 1.452-0.792 1.932-0.52001 0.48-1.216 0.72-2.088 0.72-1.744 0-2.68-0.916-2.808-2.748h1.056c0.04 0.61601 0.204 1.072 0.492 1.368s0.72 0.444 1.296 0.444c0.55199 0 0.98399-0.148 1.296-0.444 0.31199-0.304 0.46799-0.72399 0.468-1.26-1e-5 -1.032-0.58801-1.548-1.764-1.548l-0.444 0.012h-0.132v-0.9c0.76-0.016 1.296-0.11199 1.608-0.288 0.31999-0.17599 0.47999-0.52399 0.48-1.044-1e-5 -0.44799-0.13601-0.79999-0.408-1.056-0.26401-0.26399-0.628-0.39599-1.092-0.396"/>
     <path d="m304.76 123.17c0.056-1.968 0.99199-2.952 2.808-2.952 0.80799 1e-5 1.464 0.23201 1.968 0.696 0.50399 0.46401 0.75599 1.064 0.756 1.8-1e-5 1.056-0.60001 1.912-1.8 2.568l-1.2 0.648c-0.52001 0.28001-0.89201 0.55201-1.116 0.816-0.22401 0.26401-0.36401 0.576-0.42 0.936h4.476v1.044h-5.664c0.048-0.936 0.236-1.656 0.564-2.16 0.32799-0.51199 0.93599-1.02 1.824-1.524l1.104-0.624c0.76799-0.43999 1.152-0.99999 1.152-1.68-1e-5 -0.45599-0.16001-0.83599-0.48-1.14-0.32001-0.30399-0.72001-0.45599-1.2-0.456-1.064 1e-5 -1.636 0.67601-1.716 2.028h-1.056"/>
     <path d="m311.36 124.61c0-0.71199 0.06-1.34 0.18-1.884 0.12-0.54399 0.272-0.96799 0.456-1.272 0.184-0.31199 0.404-0.56399 0.66-0.756 0.256-0.19199 0.5-0.31999 0.732-0.384 0.24-0.064 0.492-0.096 0.756-0.096 1.856 1e-5 2.784 1.488 2.784 4.464 0 1.4-0.24 2.472-0.72 3.216-0.472 0.736-1.16 1.104-2.064 1.104-0.912 0-1.604-0.372-2.076-1.116-0.472-0.75199-0.708-1.844-0.708-3.276m4.488-0.024c0-2.288-0.568-3.432-1.704-3.432-1.136 1e-5 -1.704 1.156-1.704 3.468 0 2.336 0.56 3.504 1.68 3.504 0.592 0 1.028-0.288 1.308-0.864 0.28-0.57599 0.42-1.468 0.42-2.676"/>
    </g>
    <g transform="matrix(-.76604 .64279 -.64279 -.76604 806.72 719.35)">
     <path d="m300.6 122.67h-1.884v-0.756c0.816-0.10399 1.348-0.24799 1.596-0.432 0.24799-0.18399 0.46399-0.60399 0.648-1.26h0.696v8.508h-1.056v-6.06"/>
     <path d="m308.1 126.69h-3.588v-1.116l3.864-5.352h0.78001v5.52h1.26v0.948h-1.26v2.04h-1.056v-2.04m0-0.948v-3.72l-2.664 3.72h2.664"/>
     <path d="m311.34 124.61c-1e-5 -0.71199 0.06-1.34 0.18-1.884 0.11999-0.54399 0.27199-0.96799 0.45599-1.272 0.184-0.31199 0.404-0.56399 0.66-0.756 0.256-0.19199 0.5-0.31999 0.732-0.384 0.24-0.064 0.492-0.096 0.756-0.096 1.856 1e-5 2.784 1.488 2.784 4.464 0 1.4-0.24 2.472-0.72 3.216-0.472 0.736-1.16 1.104-2.064 1.104-0.912 0-1.604-0.372-2.076-1.116-0.472-0.75199-0.708-1.844-0.70799-3.276m4.488-0.024c-1e-5 -2.288-0.56801-3.432-1.704-3.432-1.136 1e-5 -1.704 1.156-1.704 3.468 0 2.336 0.56 3.504 1.68 3.504 0.592 0 1.028-0.288 1.308-0.864 0.28-0.57599 0.42-1.468 0.42001-2.676"/>
    </g>
    <g transform="matrix(.64279 -.76604 .76604 .64279 -62.804 717.36)">
     <path d="m300.72 121.14c-0.608 1e-5 -1.028 0.16801-1.26 0.504-0.224 0.32801-0.344 0.76801-0.36 1.32h-1.056c0.04-1.832 0.928-2.748 2.664-2.748 0.80799 1e-5 1.44 0.20801 1.896 0.624 0.46399 0.41601 0.69599 0.98801 0.696 1.716-1e-5 0.86401-0.39601 1.452-1.188 1.764 0.51199 0.17601 0.87999 0.42401 1.104 0.744 0.22399 0.31201 0.33599 0.74001 0.336 1.284-1e-5 0.80801-0.26401 1.452-0.792 1.932-0.52001 0.48-1.216 0.72-2.088 0.72-1.744 0-2.68-0.916-2.808-2.748h1.056c0.04 0.61601 0.204 1.072 0.492 1.368s0.72 0.444 1.296 0.444c0.55199 0 0.98399-0.148 1.296-0.444 0.31199-0.304 0.46799-0.72399 0.468-1.26-1e-5 -1.032-0.58801-1.548-1.764-1.548l-0.444 0.012h-0.132v-0.9c0.76-0.016 1.296-0.11199 1.608-0.288 0.31999-0.17599 0.47999-0.52399 0.48-1.044-1e-5 -0.44799-0.13601-0.79999-0.408-1.056-0.26401-0.26399-0.628-0.39599-1.092-0.396"/>
     <path d="m307.27 122.67h-1.884v-0.756c0.81599-0.10399 1.348-0.24799 1.596-0.432 0.24799-0.18399 0.46399-0.60399 0.648-1.26h0.696v8.508h-1.056v-6.06"/>
     <path d="m311.36 124.61c0-0.71199 0.06-1.34 0.18-1.884 0.12-0.54399 0.272-0.96799 0.456-1.272 0.184-0.31199 0.404-0.56399 0.66-0.756 0.256-0.19199 0.5-0.31999 0.732-0.384 0.24-0.064 0.492-0.096 0.756-0.096 1.856 1e-5 2.784 1.488 2.784 4.464 0 1.4-0.24 2.472-0.72 3.216-0.472 0.736-1.16 1.104-2.064 1.104-0.912 0-1.604-0.372-2.076-1.116-0.472-0.75199-0.708-1.844-0.708-3.276m4.488-0.024c0-2.288-0.568-3.432-1.704-3.432-1.136 1e-5 -1.704 1.156-1.704 3.468 0 2.336 0.56 3.504 1.68 3.504 0.592 0 1.028-0.288 1.308-0.864 0.28-0.57599 0.42-1.468 0.42-2.676"/>
    </g>
    <g transform="matrix(-.64279 .76604 -.76604 -.64279 806.89 643.27)">
     <path d="m300.59 122.67h-1.884v-0.756c0.816-0.10399 1.348-0.24799 1.596-0.432 0.248-0.18399 0.464-0.60399 0.648-1.26h0.696v8.508h-1.056v-6.06"/>
     <path d="m307.4 121.14c-0.60801 1e-5 -1.028 0.16801-1.26 0.504-0.22401 0.32801-0.34401 0.76801-0.36 1.32h-1.056c0.04-1.832 0.92799-2.748 2.664-2.748 0.80799 1e-5 1.44 0.20801 1.896 0.624 0.46399 0.41601 0.69599 0.98801 0.696 1.716-1e-5 0.86401-0.39601 1.452-1.188 1.764 0.51199 0.17601 0.87999 0.42401 1.104 0.744 0.22399 0.31201 0.33599 0.74001 0.336 1.284-1e-5 0.80801-0.26401 1.452-0.792 1.932-0.52001 0.48-1.216 0.72-2.088 0.72-1.744 0-2.68-0.916-2.808-2.748h1.056c0.04 0.61601 0.20399 1.072 0.492 1.368 0.28799 0.296 0.71999 0.444 1.296 0.444 0.55199 0 0.98399-0.148 1.296-0.444 0.31199-0.304 0.46799-0.72399 0.468-1.26-1e-5 -1.032-0.58801-1.548-1.764-1.548l-0.444 0.012h-0.132v-0.9c0.75999-0.016 1.296-0.11199 1.608-0.288 0.31999-0.17599 0.47999-0.52399 0.48-1.044-1e-5 -0.44799-0.13601-0.79999-0.408-1.056-0.26401-0.26399-0.62801-0.39599-1.092-0.396"/>
     <path d="m311.36 124.61c0-0.71199 0.06-1.34 0.18-1.884 0.12-0.54399 0.272-0.96799 0.456-1.272 0.184-0.31199 0.404-0.56399 0.66-0.756 0.256-0.19199 0.5-0.31999 0.732-0.384 0.24-0.064 0.492-0.096 0.756-0.096 1.856 1e-5 2.784 1.488 2.784 4.464 0 1.4-0.24 2.472-0.72 3.216-0.472 0.736-1.16 1.104-2.064 1.104-0.912 0-1.604-0.372-2.076-1.116-0.472-0.75199-0.708-1.844-0.708-3.276m4.488-0.024c0-2.288-0.568-3.432-1.704-3.432-1.136 1e-5 -1.704 1.156-1.704 3.468 0 2.336 0.56 3.504 1.68 3.504 0.592 0 1.028-0.288 1.308-0.864 0.28-0.57599 0.42-1.468 0.42-2.676"/>
    </g>
    <g transform="matrix(.5 -.86603 .86603 .5 -49.765 792.31)">
     <path d="m300.72 121.14c-0.608 1e-5 -1.028 0.16801-1.26 0.504-0.224 0.32801-0.344 0.76801-0.36 1.32h-1.056c0.04-1.832 0.928-2.748 2.664-2.748 0.80799 1e-5 1.44 0.20801 1.896 0.624 0.46399 0.41601 0.69599 0.98801 0.696 1.716-1e-5 0.86401-0.39601 1.452-1.188 1.764 0.51199 0.17601 0.87999 0.42401 1.104 0.744 0.22399 0.31201 0.33599 0.74001 0.336 1.284-1e-5 0.80801-0.26401 1.452-0.792 1.932-0.52001 0.48-1.216 0.72-2.088 0.72-1.744 0-2.68-0.916-2.808-2.748h1.056c0.04 0.61601 0.204 1.072 0.492 1.368s0.72 0.444 1.296 0.444c0.55199 0 0.98399-0.148 1.296-0.444 0.31199-0.304 0.46799-0.72399 0.468-1.26-1e-5 -1.032-0.58801-1.548-1.764-1.548l-0.444 0.012h-0.132v-0.9c0.76-0.016 1.296-0.11199 1.608-0.288 0.31999-0.17599 0.47999-0.52399 0.48-1.044-1e-5 -0.44799-0.13601-0.79999-0.408-1.056-0.26401-0.26399-0.628-0.39599-1.092-0.396"/>
     <path d="m304.68 124.61c0-0.71199 0.06-1.34 0.18-1.884 0.12-0.54399 0.272-0.96799 0.456-1.272 0.18399-0.31199 0.40399-0.56399 0.66-0.756 0.25599-0.19199 0.49999-0.31999 0.732-0.384 0.23999-0.064 0.49199-0.096 0.756-0.096 1.856 1e-5 2.784 1.488 2.784 4.464-1e-5 1.4-0.24001 2.472-0.72 3.216-0.47201 0.736-1.16 1.104-2.064 1.104-0.91201 0-1.604-0.372-2.076-1.116-0.472-0.75199-0.708-1.844-0.708-3.276m4.488-0.024c-1e-5 -2.288-0.56801-3.432-1.704-3.432-1.136 1e-5 -1.704 1.156-1.704 3.468-1e-5 2.336 0.55999 3.504 1.68 3.504 0.59199 0 1.028-0.288 1.308-0.864 0.27999-0.57599 0.41999-1.468 0.42-2.676"/>
     <path d="m311.36 124.61c0-0.71199 0.06-1.34 0.18-1.884 0.12-0.54399 0.272-0.96799 0.456-1.272 0.184-0.31199 0.404-0.56399 0.66-0.756 0.256-0.19199 0.5-0.31999 0.732-0.384 0.24-0.064 0.492-0.096 0.756-0.096 1.856 1e-5 2.784 1.488 2.784 4.464 0 1.4-0.24 2.472-0.72 3.216-0.472 0.736-1.16 1.104-2.064 1.104-0.912 0-1.604-0.372-2.076-1.116-0.472-0.75199-0.708-1.844-0.708-3.276m4.488-0.024c0-2.288-0.568-3.432-1.704-3.432-1.136 1e-5 -1.704 1.156-1.704 3.468 0 2.336 0.56 3.504 1.68 3.504 0.592 0 1.028-0.288 1.308-0.864 0.28-0.57599 0.42-1.468 0.42-2.676"/>
    </g>
    <g transform="matrix(-.5 .86603 -.86603 -.5 793.86 568.33)">
     <path d="m300.59 122.67h-1.884v-0.756c0.816-0.10399 1.348-0.24799 1.596-0.432 0.248-0.18399 0.464-0.60399 0.648-1.26h0.696v8.508h-1.056v-6.06"/>
     <path d="m304.76 123.17c0.056-1.968 0.99199-2.952 2.808-2.952 0.80799 1e-5 1.464 0.23201 1.968 0.696 0.50399 0.46401 0.75599 1.064 0.756 1.8-1e-5 1.056-0.60001 1.912-1.8 2.568l-1.2 0.648c-0.52001 0.28001-0.89201 0.55201-1.116 0.816-0.22401 0.26401-0.36401 0.576-0.42 0.936h4.476v1.044h-5.664c0.048-0.936 0.236-1.656 0.564-2.16 0.32799-0.51199 0.93599-1.02 1.824-1.524l1.104-0.624c0.76799-0.43999 1.152-0.99999 1.152-1.68-1e-5 -0.45599-0.16001-0.83599-0.48-1.14-0.32001-0.30399-0.72001-0.45599-1.2-0.456-1.064 1e-5 -1.636 0.67601-1.716 2.028h-1.056"/>
     <path d="m311.36 124.61c0-0.71199 0.06-1.34 0.18-1.884 0.12-0.54399 0.272-0.96799 0.456-1.272 0.184-0.31199 0.404-0.56399 0.66-0.756 0.256-0.19199 0.5-0.31999 0.732-0.384 0.24-0.064 0.492-0.096 0.756-0.096 1.856 1e-5 2.784 1.488 2.784 4.464 0 1.4-0.24 2.472-0.72 3.216-0.472 0.736-1.16 1.104-2.064 1.104-0.912 0-1.604-0.372-2.076-1.116-0.472-0.75199-0.708-1.844-0.708-3.276m4.488-0.024c0-2.288-0.568-3.432-1.704-3.432-1.136 1e-5 -1.704 1.156-1.704 3.468 0 2.336 0.56 3.504 1.68 3.504 0.592 0 1.028-0.288 1.308-0.864 0.28-0.57599 0.42-1.468 0.42-2.676"/>
    </g>
    <g transform="matrix(.34202 -.93969 .93969 .34202 -23.91 863.85)">
     <path d="m298.09 123.17c0.056-1.968 0.992-2.952 2.808-2.952 0.80799 1e-5 1.464 0.23201 1.968 0.696 0.50399 0.46401 0.75599 1.064 0.756 1.8-1e-5 1.056-0.60001 1.912-1.8 2.568l-1.2 0.648c-0.52001 0.28001-0.892 0.55201-1.116 0.816-0.224 0.26401-0.364 0.576-0.42 0.936h4.476v1.044h-5.664c0.048-0.936 0.236-1.656 0.564-2.16 0.328-0.51199 0.936-1.02 1.824-1.524l1.104-0.624c0.76799-0.43999 1.152-0.99999 1.152-1.68-1e-5 -0.45599-0.16001-0.83599-0.48-1.14-0.32001-0.30399-0.72001-0.45599-1.2-0.456-1.064 1e-5 -1.636 0.67601-1.716 2.028h-1.056"/>
     <path d="m310.28 124.37c0 0.75201-0.068 1.416-0.204 1.992-0.136 0.56801-0.308 1.016-0.516 1.344-0.2 0.328-0.444 0.596-0.732 0.804-0.28 0.2-0.548 0.332-0.804 0.396s-0.524 0.096-0.804 0.096c-0.648 0-1.188-0.196-1.62-0.588-0.424-0.392-0.688-0.936-0.79199-1.632h1.056c0.088 0.40801 0.256 0.724 0.50401 0.948 0.24799 0.224 0.55599 0.336 0.92399 0.336 0.608 0 1.072-0.276 1.392-0.828 0.328-0.55999 0.496-1.36 0.50401-2.4-0.52801 0.63201-1.176 0.94801-1.944 0.948-0.768 1e-5 -1.396-0.25199-1.884-0.756-0.488-0.50399-0.732-1.152-0.73199-1.944-1e-5 -0.83199 0.25999-1.516 0.77999-2.052 0.528-0.54399 1.196-0.81599 2.004-0.816 1.912 1e-5 2.868 1.384 2.868 4.152m-2.88-3.228c-0.488 1e-5 -0.892 0.17601-1.212 0.528-0.32001 0.35201-0.48001 0.79601-0.48001 1.332 0 0.56801 0.148 1.02 0.44401 1.356 0.29599 0.32801 0.69999 0.49201 1.212 0.492 0.512 1e-5 0.932-0.16799 1.26-0.504 0.336-0.33599 0.504-0.76399 0.50401-1.284-1e-5 -0.55199-0.16401-1.008-0.49201-1.368-0.328-0.36799-0.74-0.55199-1.236-0.552"/>
     <path d="m311.34 124.61c-1e-5 -0.71199 0.06-1.34 0.18-1.884 0.11999-0.54399 0.27199-0.96799 0.45599-1.272 0.184-0.31199 0.404-0.56399 0.66-0.756 0.256-0.19199 0.5-0.31999 0.732-0.384 0.24-0.064 0.492-0.096 0.756-0.096 1.856 1e-5 2.784 1.488 2.784 4.464 0 1.4-0.24 2.472-0.72 3.216-0.472 0.736-1.16 1.104-2.064 1.104-0.912 0-1.604-0.372-2.076-1.116-0.472-0.75199-0.708-1.844-0.70799-3.276m4.488-0.024c-1e-5 -2.288-0.56801-3.432-1.704-3.432-1.136 1e-5 -1.704 1.156-1.704 3.468 0 2.336 0.56 3.504 1.68 3.504 0.592 0 1.028-0.288 1.308-0.864 0.28-0.57599 0.42-1.468 0.42001-2.676"/>
    </g>
    <g transform="matrix(-.34202 .93969 -.93969 -.34202 768 496.78)">
     <path d="m300.59 122.67h-1.884v-0.756c0.816-0.10399 1.348-0.24799 1.596-0.432 0.248-0.18399 0.464-0.60399 0.648-1.26h0.696v8.508h-1.056v-6.06"/>
     <path d="m307.27 122.67h-1.884v-0.756c0.81599-0.10399 1.348-0.24799 1.596-0.432 0.24799-0.18399 0.46399-0.60399 0.648-1.26h0.696v8.508h-1.056v-6.06"/>
     <path d="m311.36 124.61c0-0.71199 0.06-1.34 0.18-1.884 0.12-0.54399 0.272-0.96799 0.456-1.272 0.184-0.31199 0.404-0.56399 0.66-0.756 0.256-0.19199 0.5-0.31999 0.732-0.384 0.24-0.064 0.492-0.096 0.756-0.096 1.856 1e-5 2.784 1.488 2.784 4.464 0 1.4-0.24 2.472-0.72 3.216-0.472 0.736-1.16 1.104-2.064 1.104-0.912 0-1.604-0.372-2.076-1.116-0.472-0.75199-0.708-1.844-0.708-3.276m4.488-0.024c0-2.288-0.568-3.432-1.704-3.432-1.136 1e-5 -1.704 1.156-1.704 3.468 0 2.336 0.56 3.504 1.68 3.504 0.592 0 1.028-0.288 1.308-0.864 0.28-0.57599 0.42-1.468 0.42-2.676"/>
    </g>
    <g transform="matrix(.17365 -.98481 .98481 .17365 13.976 929.82)">
     <path d="m298.08 123.17c0.056-1.968 0.992-2.952 2.808-2.952 0.80799 1e-5 1.464 0.23201 1.968 0.696 0.50399 0.46401 0.75599 1.064 0.756 1.8-1e-5 1.056-0.60001 1.912-1.8 2.568l-1.2 0.648c-0.52 0.28001-0.892 0.55201-1.116 0.816-0.224 0.26401-0.364 0.576-0.42 0.936h4.476v1.044h-5.664c0.048-0.936 0.236-1.656 0.564-2.16 0.328-0.51199 0.936-1.02 1.824-1.524l1.104-0.624c0.76799-0.43999 1.152-0.99999 1.152-1.68-1e-5 -0.45599-0.16001-0.83599-0.48-1.14-0.32001-0.30399-0.72001-0.45599-1.2-0.456-1.064 1e-5 -1.636 0.67601-1.716 2.028h-1.056"/>
     <path d="m308.85 124.25c0.97599 0.46401 1.464 1.172 1.464 2.124-1e-5 0.77601-0.26801 1.408-0.804 1.896-0.52801 0.488-1.212 0.732-2.052 0.732-0.84001 0-1.528-0.244-2.064-0.732-0.528-0.496-0.792-1.132-0.792-1.908 0-0.94399 0.484-1.648 1.452-2.112-0.43201-0.27199-0.732-0.53599-0.9-0.792-0.168-0.25599-0.252-0.57999-0.252-0.972 0-0.66399 0.236-1.208 0.708-1.632 0.47999-0.42399 1.096-0.63599 1.848-0.636 0.75199 1e-5 1.364 0.21201 1.836 0.636 0.47999 0.42401 0.71999 0.96801 0.72 1.632-1e-5 0.40001-0.084 0.72801-0.252 0.984-0.16801 0.25601-0.47201 0.51601-0.912 0.78m-0.324-2.724c-0.26401-0.24799-0.62001-0.37199-1.068-0.372-0.44801 1e-5 -0.80801 0.12401-1.08 0.372-0.26401 0.24001-0.39601 0.56401-0.396 0.972-1e-5 0.40001 0.13199 0.72401 0.396 0.972 0.27199 0.24001 0.63199 0.36001 1.08 0.36 0.43999 1e-5 0.79599-0.11999 1.068-0.36 0.27199-0.23999 0.40799-0.55999 0.408-0.96-1e-5 -0.41599-0.13601-0.74399-0.408-0.984m0.216 3.66c-0.32801-0.31199-0.75601-0.46799-1.284-0.468-0.52801 1e-5 -0.95601 0.15601-1.284 0.468-0.32801 0.30401-0.49201 0.70401-0.492 1.2-1e-5 0.49601 0.15999 0.9 0.48 1.212 0.32799 0.312 0.75199 0.468 1.272 0.468 0.53599 0 0.96799-0.152 1.296-0.456 0.33599-0.312 0.50399-0.71999 0.504-1.224-1e-5 -0.49599-0.16401-0.89599-0.492-1.2"/>
     <path d="m311.36 124.61c0-0.71199 0.06-1.34 0.18-1.884 0.12-0.54399 0.272-0.96799 0.456-1.272 0.184-0.31199 0.404-0.56399 0.66-0.756 0.256-0.19199 0.5-0.31999 0.732-0.384 0.24-0.064 0.492-0.096 0.756-0.096 1.856 1e-5 2.784 1.488 2.784 4.464 0 1.4-0.24 2.472-0.72 3.216-0.472 0.736-1.16 1.104-2.064 1.104-0.912 0-1.604-0.372-2.076-1.116-0.472-0.75199-0.708-1.844-0.708-3.276m4.488-0.024c0-2.288-0.568-3.432-1.704-3.432-1.136 1e-5 -1.704 1.156-1.704 3.468 0 2.336 0.56 3.504 1.68 3.504 0.592 0 1.028-0.288 1.308-0.864 0.28-0.57599 0.42-1.468 0.42-2.676"/>
    </g>
    <g transform="matrix(-.17365 .98481 -.98481 -.17365 730.11 430.81)">
     <path d="m300.59 122.67h-1.884v-0.756c0.816-0.10399 1.348-0.24799 1.596-0.432 0.248-0.18399 0.464-0.60399 0.648-1.26h0.696v8.508h-1.056v-6.06"/>
     <path d="m304.68 124.61c0-0.71199 0.06-1.34 0.18-1.884 0.12-0.54399 0.272-0.96799 0.456-1.272 0.18399-0.31199 0.40399-0.56399 0.66-0.756 0.25599-0.19199 0.49999-0.31999 0.732-0.384 0.23999-0.064 0.49199-0.096 0.756-0.096 1.856 1e-5 2.784 1.488 2.784 4.464-1e-5 1.4-0.24001 2.472-0.72 3.216-0.47201 0.736-1.16 1.104-2.064 1.104-0.91201 0-1.604-0.372-2.076-1.116-0.472-0.75199-0.708-1.844-0.708-3.276m4.488-0.024c-1e-5 -2.288-0.56801-3.432-1.704-3.432-1.136 1e-5 -1.704 1.156-1.704 3.468-1e-5 2.336 0.55999 3.504 1.68 3.504 0.59199 0 1.028-0.288 1.308-0.864 0.27999-0.57599 0.41999-1.468 0.42-2.676"/>
     <path d="m311.36 124.61c0-0.71199 0.06-1.34 0.18-1.884 0.12-0.54399 0.272-0.96799 0.456-1.272 0.184-0.31199 0.404-0.56399 0.66-0.756 0.256-0.19199 0.5-0.31999 0.732-0.384 0.24-0.064 0.492-0.096 0.756-0.096 1.856 1e-5 2.784 1.488 2.784 4.464 0 1.4-0.24 2.472-0.72 3.216-0.472 0.736-1.16 1.104-2.064 1.104-0.912 0-1.604-0.372-2.076-1.116-0.472-0.75199-0.708-1.844-0.708-3.276m4.488-0.024c0-2.288-0.568-3.432-1.704-3.432-1.136 1e-5 -1.704 1.156-1.704 3.468 0 2.336 0.56 3.504 1.68 3.504 0.592 0 1.028-0.288 1.308-0.864 0.28-0.57599 0.42-1.468 0.42-2.676"/>
    </g>
    <g transform="matrix(-1.8612e-8,-1,1,-1.8612e-8,62.742,988.21)">
     <path d="m298.08 123.17c0.056-1.968 0.992-2.952 2.808-2.952 0.80799 1e-5 1.464 0.23201 1.968 0.696 0.50399 0.46401 0.75599 1.064 0.756 1.8-1e-5 1.056-0.60001 1.912-1.8 2.568l-1.2 0.648c-0.52 0.28001-0.892 0.55201-1.116 0.816-0.224 0.26401-0.364 0.576-0.42 0.936h4.476v1.044h-5.664c0.048-0.936 0.236-1.656 0.564-2.16 0.328-0.51199 0.936-1.02 1.824-1.524l1.104-0.624c0.76799-0.43999 1.152-0.99999 1.152-1.68-1e-5 -0.45599-0.16001-0.83599-0.48-1.14-0.32001-0.30399-0.72001-0.45599-1.2-0.456-1.064 1e-5 -1.636 0.67601-1.716 2.028h-1.056"/>
     <path d="m310.4 120.22v0.888c-0.96001 1.28-1.72 2.532-2.28 3.756-0.55201 1.216-0.94401 2.504-1.176 3.864h-1.128c0.31999-1.4 0.72799-2.632 1.224-3.696 0.49599-1.064 1.252-2.32 2.268-3.768h-4.596v-1.044h5.688"/>
     <path d="m311.36 124.61c0-0.71199 0.06-1.34 0.18-1.884 0.12-0.54399 0.272-0.96799 0.456-1.272 0.184-0.31199 0.404-0.56399 0.66-0.756 0.256-0.19199 0.5-0.31999 0.732-0.384 0.24-0.064 0.492-0.096 0.756-0.096 1.856 1e-5 2.784 1.488 2.784 4.464 0 1.4-0.24 2.472-0.72 3.216-0.472 0.736-1.16 1.104-2.064 1.104-0.912 0-1.604-0.372-2.076-1.116-0.472-0.75199-0.708-1.844-0.708-3.276m4.488-0.024c0-2.288-0.568-3.432-1.704-3.432-1.136 1e-5 -1.704 1.156-1.704 3.468 0 2.336 0.56 3.504 1.68 3.504 0.592 0 1.028-0.288 1.308-0.864 0.28-0.57599 0.42-1.468 0.42-2.676"/>
    </g>
    <g transform="matrix(1.8612e-8,1,-1,1.8612e-8,681.35,372.42)">
     <path d="m306.94 124.37c0 0.75201-0.068 1.416-0.204 1.992-0.136 0.56801-0.308 1.016-0.516 1.344-0.2 0.328-0.444 0.596-0.732 0.804-0.28 0.2-0.548 0.332-0.804 0.396s-0.524 0.096-0.804 0.096c-0.648 0-1.188-0.196-1.62-0.588-0.424-0.392-0.688-0.936-0.792-1.632h1.056c0.088 0.40801 0.256 0.724 0.504 0.948s0.556 0.336 0.924 0.336c0.608 0 1.072-0.276 1.392-0.828 0.328-0.55999 0.496-1.36 0.504-2.4-0.528 0.63201-1.176 0.94801-1.944 0.948-0.768 1e-5 -1.396-0.25199-1.884-0.756-0.488-0.50399-0.732-1.152-0.732-1.944 0-0.83199 0.26-1.516 0.78-2.052 0.528-0.54399 1.196-0.81599 2.004-0.816 1.912 1e-5 2.868 1.384 2.868 4.152m-2.88-3.228c-0.488 1e-5 -0.892 0.17601-1.212 0.528-0.32 0.35201-0.48 0.79601-0.48 1.332 0 0.56801 0.148 1.02 0.444 1.356 0.296 0.32801 0.7 0.49201 1.212 0.492 0.512 1e-5 0.932-0.16799 1.26-0.504 0.336-0.33599 0.504-0.76399 0.504-1.284 0-0.55199-0.164-1.008-0.492-1.368-0.328-0.36799-0.74-0.55199-1.236-0.552"/>
     <path d="m308 124.61c0-0.71199 0.06-1.34 0.18-1.884 0.12-0.54399 0.272-0.96799 0.456-1.272 0.184-0.31199 0.404-0.56399 0.66-0.756 0.256-0.19199 0.5-0.31999 0.732-0.384 0.24-0.064 0.492-0.096 0.756-0.096 1.856 1e-5 2.784 1.488 2.784 4.464 0 1.4-0.24 2.472-0.72 3.216-0.472 0.736-1.16 1.104-2.064 1.104-0.912 0-1.604-0.372-2.076-1.116-0.472-0.75199-0.708-1.844-0.708-3.276m4.488-0.024c0-2.288-0.568-3.432-1.704-3.432-1.136 1e-5 -1.704 1.156-1.704 3.468 0 2.336 0.56 3.504 1.68 3.504 0.592 0 1.028-0.288 1.308-0.864 0.28-0.57599 0.42-1.468 0.42-2.676"/>
    </g>
    <g transform="matrix(-.17365 -.98481 .98481 -.17365 120.91 1037.2)">
     <path d="m298.08 123.17c0.056-1.968 0.992-2.952 2.808-2.952 0.80799 1e-5 1.464 0.23201 1.968 0.696 0.50399 0.46401 0.75599 1.064 0.756 1.8-1e-5 1.056-0.60001 1.912-1.8 2.568l-1.2 0.648c-0.52 0.28001-0.892 0.55201-1.116 0.816-0.224 0.26401-0.364 0.576-0.42 0.936h4.476v1.044h-5.664c0.048-0.936 0.236-1.656 0.564-2.16 0.328-0.51199 0.936-1.02 1.824-1.524l1.104-0.624c0.76799-0.43999 1.152-0.99999 1.152-1.68-1e-5 -0.45599-0.16001-0.83599-0.48-1.14-0.32001-0.30399-0.72001-0.45599-1.2-0.456-1.064 1e-5 -1.636 0.67601-1.716 2.028h-1.056"/>
     <path d="m304.68 124.85c0-0.75199 0.068-1.412 0.204-1.98 0.136-0.57599 0.304-1.028 0.504-1.356 0.20799-0.32799 0.45199-0.59199 0.732-0.792 0.28799-0.20799 0.55599-0.34399 0.804-0.408 0.25599-0.064 0.52399-0.096 0.804-0.096 0.64799 1e-5 1.184 0.19601 1.608 0.588 0.43199 0.39201 0.69999 0.93601 0.804 1.632h-1.056c-0.088-0.40799-0.25601-0.72399-0.504-0.948-0.24801-0.22399-0.55601-0.33599-0.924-0.336-0.60801 1e-5 -1.076 0.28001-1.404 0.84-0.32001 0.55201-0.48401 1.348-0.492 2.388 0.46399-0.63199 1.116-0.94799 1.956-0.948 0.75999 1e-5 1.384 0.25201 1.872 0.756 0.48799 0.50401 0.73199 1.152 0.732 1.944-1e-5 0.83201-0.26401 1.52-0.792 2.064-0.52001 0.536-1.184 0.804-1.992 0.804-1.904 0-2.856-1.384-2.856-4.152m2.904-0.48c-0.52001 1e-5 -0.94401 0.16801-1.272 0.504-0.32801 0.32801-0.49201 0.75601-0.492 1.284-1e-5 0.54401 0.16399 1 0.492 1.368 0.32799 0.36 0.73999 0.54 1.236 0.54 0.48799 0 0.89199-0.172 1.212-0.516 0.31999-0.35199 0.47999-0.79599 0.48-1.332-1e-5 -0.56799-0.14801-1.016-0.444-1.344-0.29601-0.33599-0.70001-0.50399-1.212-0.504"/>
     <path d="m311.36 124.61c0-0.71199 0.06-1.34 0.18-1.884 0.12-0.54399 0.272-0.96799 0.456-1.272 0.184-0.31199 0.404-0.56399 0.66-0.756 0.256-0.19199 0.5-0.31999 0.732-0.384 0.24-0.064 0.492-0.096 0.756-0.096 1.856 1e-5 2.784 1.488 2.784 4.464 0 1.4-0.24 2.472-0.72 3.216-0.472 0.736-1.16 1.104-2.064 1.104-0.912 0-1.604-0.372-2.076-1.116-0.472-0.75199-0.708-1.844-0.708-3.276m4.488-0.024c0-2.288-0.568-3.432-1.704-3.432-1.136 1e-5 -1.704 1.156-1.704 3.468 0 2.336 0.56 3.504 1.68 3.504 0.592 0 1.028-0.288 1.308-0.864 0.28-0.57599 0.42-1.468 0.42-2.676"/>
    </g>
    <g transform="matrix(.17365 .98481 -.98481 .17365 623.18 323.39)">
     <path d="m305.51 124.25c0.976 0.46401 1.464 1.172 1.464 2.124 0 0.77601-0.268 1.408-0.804 1.896-0.528 0.488-1.212 0.732-2.052 0.732s-1.528-0.244-2.064-0.732c-0.528-0.496-0.792-1.132-0.792-1.908 0-0.94399 0.484-1.648 1.452-2.112-0.432-0.27199-0.732-0.53599-0.9-0.792-0.168-0.25599-0.252-0.57999-0.252-0.972 0-0.66399 0.236-1.208 0.708-1.632 0.48-0.42399 1.096-0.63599 1.848-0.636 0.752 1e-5 1.364 0.21201 1.836 0.636 0.48 0.42401 0.72 0.96801 0.72 1.632 0 0.40001-0.084 0.72801-0.252 0.984-0.168 0.25601-0.472 0.51601-0.912 0.78m-0.324-2.724c-0.264-0.24799-0.62-0.37199-1.068-0.372-0.448 1e-5 -0.808 0.12401-1.08 0.372-0.264 0.24001-0.396 0.56401-0.396 0.972 0 0.40001 0.132 0.72401 0.396 0.972 0.272 0.24001 0.632 0.36001 1.08 0.36 0.44 1e-5 0.796-0.11999 1.068-0.36 0.272-0.23999 0.408-0.55999 0.408-0.96 0-0.41599-0.136-0.74399-0.408-0.984m0.216 3.66c-0.328-0.31199-0.756-0.46799-1.284-0.468-0.528 1e-5 -0.956 0.15601-1.284 0.468-0.328 0.30401-0.492 0.70401-0.492 1.2 0 0.49601 0.16 0.9 0.48 1.212 0.328 0.312 0.752 0.468 1.272 0.468 0.536 0 0.968-0.152 1.296-0.456 0.336-0.312 0.504-0.71999 0.504-1.224 0-0.49599-0.164-0.89599-0.492-1.2"/>
     <path d="m308.02 124.61c0-0.71199 0.06-1.34 0.18-1.884 0.12-0.54399 0.272-0.96799 0.456-1.272 0.184-0.31199 0.404-0.56399 0.66-0.756 0.256-0.19199 0.5-0.31999 0.732-0.384 0.24-0.064 0.492-0.096 0.756-0.096 1.856 1e-5 2.784 1.488 2.784 4.464-1e-5 1.4-0.24001 2.472-0.72 3.216-0.472 0.736-1.16 1.104-2.064 1.104-0.912 0-1.604-0.372-2.076-1.116-0.472-0.75199-0.708-1.844-0.708-3.276m4.488-0.024c-1e-5 -2.288-0.568-3.432-1.704-3.432-1.136 1e-5 -1.704 1.156-1.704 3.468 0 2.336 0.56 3.504 1.68 3.504 0.592 0 1.028-0.288 1.308-0.864 0.28-0.57599 0.41999-1.468 0.42-2.676"/>
    </g>
    <g transform="matrix(-.34202 -.93969 .93969 -.34202 186.7 1075.4)">
     <path d="m298.08 123.17c0.056-1.968 0.992-2.952 2.808-2.952 0.80799 1e-5 1.464 0.23201 1.968 0.696 0.50399 0.46401 0.75599 1.064 0.756 1.8-1e-5 1.056-0.60001 1.912-1.8 2.568l-1.2 0.648c-0.52 0.28001-0.892 0.55201-1.116 0.816-0.224 0.26401-0.364 0.576-0.42 0.936h4.476v1.044h-5.664c0.048-0.936 0.236-1.656 0.564-2.16 0.328-0.51199 0.936-1.02 1.824-1.524l1.104-0.624c0.76799-0.43999 1.152-0.99999 1.152-1.68-1e-5 -0.45599-0.16001-0.83599-0.48-1.14-0.32001-0.30399-0.72001-0.45599-1.2-0.456-1.064 1e-5 -1.636 0.67601-1.716 2.028h-1.056"/>
     <path d="m309.87 120.22v1.044h-3.54l-0.336 2.376c0.47199-0.34399 0.99599-0.51599 1.572-0.516 0.81599 1e-5 1.476 0.26401 1.98 0.792 0.51199 0.52001 0.76799 1.2 0.768 2.04-1e-5 0.89601-0.27201 1.628-0.816 2.196-0.54401 0.568-1.244 0.852-2.1 0.852-0.32801 0-0.63201-0.036-0.912-0.108-0.27201-0.072-0.50001-0.156-0.684-0.252-0.17601-0.104-0.34001-0.236-0.492-0.396-0.144-0.168-0.256-0.312-0.336-0.432-0.072-0.128-0.144-0.284-0.216-0.468-0.064-0.19199-0.104-0.32399-0.12-0.396-0.016-0.072-0.036-0.17599-0.06-0.312h1.056c0.24799 0.952 0.82799 1.428 1.74 1.428 0.57599 0 1.028-0.176 1.356-0.528 0.33599-0.35199 0.50399-0.83199 0.504-1.44-1e-5 -0.63199-0.16801-1.128-0.504-1.488-0.33601-0.36799-0.78801-0.55199-1.356-0.552-0.32801 1e-5 -0.60801 0.06-0.84 0.18-0.23201 0.11201-0.47201 0.31601-0.72 0.612h-0.972l0.636-4.632h4.392"/>
     <path d="m311.36 124.61c0-0.71199 0.06-1.34 0.18-1.884 0.12-0.54399 0.272-0.96799 0.456-1.272 0.184-0.31199 0.404-0.56399 0.66-0.756 0.256-0.19199 0.5-0.31999 0.732-0.384 0.24-0.064 0.492-0.096 0.756-0.096 1.856 1e-5 2.784 1.488 2.784 4.464 0 1.4-0.24 2.472-0.72 3.216-0.472 0.736-1.16 1.104-2.064 1.104-0.912 0-1.604-0.372-2.076-1.116-0.472-0.75199-0.708-1.844-0.708-3.276m4.488-0.024c0-2.288-0.568-3.432-1.704-3.432-1.136 1e-5 -1.704 1.156-1.704 3.468 0 2.336 0.56 3.504 1.68 3.504 0.592 0 1.028-0.288 1.308-0.864 0.28-0.57599 0.42-1.468 0.42-2.676"/>
    </g>
    <g transform="matrix(.34202 .93969 -.93969 .34202 557.39 285.2)">
     <path d="m307.06 120.22v0.888c-0.96 1.28-1.72 2.532-2.28 3.756-0.552 1.216-0.944 2.504-1.176 3.864h-1.128c0.32-1.4 0.728-2.632 1.224-3.696s1.252-2.32 2.268-3.768h-4.596v-1.044h5.688"/>
     <path d="m308.02 124.61c0-0.71199 0.06-1.34 0.18-1.884 0.12-0.54399 0.272-0.96799 0.456-1.272 0.184-0.31199 0.404-0.56399 0.66-0.756 0.256-0.19199 0.5-0.31999 0.732-0.384 0.24-0.064 0.492-0.096 0.756-0.096 1.856 1e-5 2.784 1.488 2.784 4.464-1e-5 1.4-0.24001 2.472-0.72 3.216-0.472 0.736-1.16 1.104-2.064 1.104-0.912 0-1.604-0.372-2.076-1.116-0.472-0.75199-0.708-1.844-0.708-3.276m4.488-0.024c-1e-5 -2.288-0.568-3.432-1.704-3.432-1.136 1e-5 -1.704 1.156-1.704 3.468 0 2.336 0.56 3.504 1.68 3.504 0.592 0 1.028-0.288 1.308-0.864 0.28-0.57599 0.41999-1.468 0.42-2.676"/>
    </g>
    <g transform="matrix(-.5 -.86603 .86603 -.5 258.13 1101.6)">
     <path d="m298.09 123.17c0.056-1.968 0.992-2.952 2.808-2.952 0.80799 1e-5 1.464 0.23201 1.968 0.696 0.50399 0.46401 0.75599 1.064 0.756 1.8-1e-5 1.056-0.60001 1.912-1.8 2.568l-1.2 0.648c-0.52001 0.28001-0.892 0.55201-1.116 0.816-0.224 0.26401-0.364 0.576-0.42 0.936h4.476v1.044h-5.664c0.048-0.936 0.236-1.656 0.564-2.16 0.328-0.51199 0.936-1.02 1.824-1.524l1.104-0.624c0.76799-0.43999 1.152-0.99999 1.152-1.68-1e-5 -0.45599-0.16001-0.83599-0.48-1.14-0.32001-0.30399-0.72001-0.45599-1.2-0.456-1.064 1e-5 -1.636 0.67601-1.716 2.028h-1.056"/>
     <path d="m308.1 126.69h-3.588v-1.116l3.864-5.352h0.78001v5.52h1.26v0.948h-1.26v2.04h-1.056v-2.04m0-0.948v-3.72l-2.664 3.72h2.664"/>
     <path d="m311.34 124.61c-1e-5 -0.71199 0.06-1.34 0.18-1.884 0.11999-0.54399 0.27199-0.96799 0.45599-1.272 0.184-0.31199 0.404-0.56399 0.66-0.756 0.256-0.19199 0.5-0.31999 0.732-0.384 0.24-0.064 0.492-0.096 0.756-0.096 1.856 1e-5 2.784 1.488 2.784 4.464 0 1.4-0.24 2.472-0.72 3.216-0.472 0.736-1.16 1.104-2.064 1.104-0.912 0-1.604-0.372-2.076-1.116-0.472-0.75199-0.708-1.844-0.70799-3.276m4.488-0.024c-1e-5 -2.288-0.56801-3.432-1.704-3.432-1.136 1e-5 -1.704 1.156-1.704 3.468 0 2.336 0.56 3.504 1.68 3.504 0.592 0 1.028-0.288 1.308-0.864 0.28-0.57599 0.42-1.468 0.42001-2.676"/>
    </g>
    <g transform="matrix(.5 .86603 -.86603 .5 485.96 259.02)">
     <path d="m301.34 124.85c0-0.75199 0.068-1.412 0.204-1.98 0.136-0.57599 0.304-1.028 0.504-1.356 0.208-0.32799 0.452-0.59199 0.732-0.792 0.288-0.20799 0.556-0.34399 0.804-0.408 0.256-0.064 0.524-0.096 0.804-0.096 0.648 1e-5 1.184 0.19601 1.608 0.588 0.432 0.39201 0.7 0.93601 0.804 1.632h-1.056c-0.088-0.40799-0.256-0.72399-0.504-0.948-0.248-0.22399-0.556-0.33599-0.924-0.336-0.608 1e-5 -1.076 0.28001-1.404 0.84-0.32 0.55201-0.484 1.348-0.492 2.388 0.464-0.63199 1.116-0.94799 1.956-0.948 0.76 1e-5 1.384 0.25201 1.872 0.756 0.488 0.50401 0.732 1.152 0.732 1.944 0 0.83201-0.264 1.52-0.792 2.064-0.52 0.536-1.184 0.804-1.992 0.804-1.904 0-2.856-1.384-2.856-4.152m2.904-0.48c-0.52 1e-5 -0.944 0.16801-1.272 0.504-0.328 0.32801-0.492 0.75601-0.492 1.284 0 0.54401 0.164 1 0.492 1.368 0.328 0.36 0.74 0.54 1.236 0.54 0.488 0 0.892-0.172 1.212-0.516 0.32-0.35199 0.48-0.79599 0.48-1.332 0-0.56799-0.148-1.016-0.444-1.344-0.296-0.33599-0.7-0.50399-1.212-0.504"/>
     <path d="m308.02 124.61c0-0.71199 0.06-1.34 0.18-1.884 0.12-0.54399 0.272-0.96799 0.456-1.272 0.184-0.31199 0.404-0.56399 0.66-0.756 0.256-0.19199 0.5-0.31999 0.732-0.384 0.24-0.064 0.492-0.096 0.756-0.096 1.856 1e-5 2.784 1.488 2.784 4.464-1e-5 1.4-0.24001 2.472-0.72 3.216-0.472 0.736-1.16 1.104-2.064 1.104-0.912 0-1.604-0.372-2.076-1.116-0.472-0.75199-0.708-1.844-0.708-3.276m4.488-0.024c-1e-5 -2.288-0.568-3.432-1.704-3.432-1.136 1e-5 -1.704 1.156-1.704 3.468 0 2.336 0.56 3.504 1.68 3.504 0.592 0 1.028-0.288 1.308-0.864 0.28-0.57599 0.41999-1.468 0.42-2.676"/>
    </g>
    <g transform="matrix(-.64279 -.76604 .76604 -.64279 333.02 1115)">
     <path d="m298.08 123.17c0.056-1.968 0.992-2.952 2.808-2.952 0.80799 1e-5 1.464 0.23201 1.968 0.696 0.50399 0.46401 0.75599 1.064 0.756 1.8-1e-5 1.056-0.60001 1.912-1.8 2.568l-1.2 0.648c-0.52 0.28001-0.892 0.55201-1.116 0.816-0.224 0.26401-0.364 0.576-0.42 0.936h4.476v1.044h-5.664c0.048-0.936 0.236-1.656 0.564-2.16 0.328-0.51199 0.936-1.02 1.824-1.524l1.104-0.624c0.76799-0.43999 1.152-0.99999 1.152-1.68-1e-5 -0.45599-0.16001-0.83599-0.48-1.14-0.32001-0.30399-0.72001-0.45599-1.2-0.456-1.064 1e-5 -1.636 0.67601-1.716 2.028h-1.056"/>
     <path d="m307.4 121.14c-0.60801 1e-5 -1.028 0.16801-1.26 0.504-0.22401 0.32801-0.34401 0.76801-0.36 1.32h-1.056c0.04-1.832 0.92799-2.748 2.664-2.748 0.80799 1e-5 1.44 0.20801 1.896 0.624 0.46399 0.41601 0.69599 0.98801 0.696 1.716-1e-5 0.86401-0.39601 1.452-1.188 1.764 0.51199 0.17601 0.87999 0.42401 1.104 0.744 0.22399 0.31201 0.33599 0.74001 0.336 1.284-1e-5 0.80801-0.26401 1.452-0.792 1.932-0.52001 0.48-1.216 0.72-2.088 0.72-1.744 0-2.68-0.916-2.808-2.748h1.056c0.04 0.61601 0.20399 1.072 0.492 1.368 0.28799 0.296 0.71999 0.444 1.296 0.444 0.55199 0 0.98399-0.148 1.296-0.444 0.31199-0.304 0.46799-0.72399 0.468-1.26-1e-5 -1.032-0.58801-1.548-1.764-1.548l-0.444 0.012h-0.132v-0.9c0.75999-0.016 1.296-0.11199 1.608-0.288 0.31999-0.17599 0.47999-0.52399 0.48-1.044-1e-5 -0.44799-0.13601-0.79999-0.408-1.056-0.26401-0.26399-0.62801-0.39599-1.092-0.396"/>
     <path d="m311.36 124.61c0-0.71199 0.06-1.34 0.18-1.884 0.12-0.54399 0.272-0.96799 0.456-1.272 0.184-0.31199 0.404-0.56399 0.66-0.756 0.256-0.19199 0.5-0.31999 0.732-0.384 0.24-0.064 0.492-0.096 0.756-0.096 1.856 1e-5 2.784 1.488 2.784 4.464 0 1.4-0.24 2.472-0.72 3.216-0.472 0.736-1.16 1.104-2.064 1.104-0.912 0-1.604-0.372-2.076-1.116-0.472-0.75199-0.708-1.844-0.708-3.276m4.488-0.024c0-2.288-0.568-3.432-1.704-3.432-1.136 1e-5 -1.704 1.156-1.704 3.468 0 2.336 0.56 3.504 1.68 3.504 0.592 0 1.028-0.288 1.308-0.864 0.28-0.57599 0.42-1.468 0.42-2.676"/>
    </g>
    <g transform="matrix(.64279 .76604 -.76604 .64279 411.07 245.64)">
     <path d="m306.53 120.22v1.044h-3.54l-0.336 2.376c0.472-0.34399 0.996-0.51599 1.572-0.516 0.816 1e-5 1.476 0.26401 1.98 0.792 0.512 0.52001 0.768 1.2 0.768 2.04 0 0.89601-0.272 1.628-0.816 2.196s-1.244 0.852-2.1 0.852c-0.328 0-0.632-0.036-0.912-0.108-0.272-0.072-0.5-0.156-0.684-0.252-0.176-0.104-0.34-0.236-0.492-0.396-0.144-0.168-0.256-0.312-0.336-0.432-0.072-0.128-0.144-0.284-0.216-0.468-0.064-0.19199-0.104-0.32399-0.12-0.396-0.016-0.072-0.036-0.17599-0.06-0.312h1.056c0.248 0.952 0.828 1.428 1.74 1.428 0.576 0 1.028-0.176 1.356-0.528 0.336-0.35199 0.504-0.83199 0.504-1.44 0-0.63199-0.168-1.128-0.504-1.488-0.336-0.36799-0.788-0.55199-1.356-0.552-0.328 1e-5 -0.608 0.06-0.84 0.18-0.232 0.11201-0.472 0.31601-0.72 0.612h-0.972l0.636-4.632h4.392"/>
     <path d="m308.02 124.61c0-0.71199 0.06-1.34 0.18-1.884 0.12-0.54399 0.272-0.96799 0.456-1.272 0.184-0.31199 0.404-0.56399 0.66-0.756 0.256-0.19199 0.5-0.31999 0.732-0.384 0.24-0.064 0.492-0.096 0.756-0.096 1.856 1e-5 2.784 1.488 2.784 4.464-1e-5 1.4-0.24001 2.472-0.72 3.216-0.472 0.736-1.16 1.104-2.064 1.104-0.912 0-1.604-0.372-2.076-1.116-0.472-0.75199-0.708-1.844-0.708-3.276m4.488-0.024c-1e-5 -2.288-0.568-3.432-1.704-3.432-1.136 1e-5 -1.704 1.156-1.704 3.468 0 2.336 0.56 3.504 1.68 3.504 0.592 0 1.028-0.288 1.308-0.864 0.28-0.57599 0.41999-1.468 0.42-2.676"/>
    </g>
    <g transform="matrix(-.76604 -.64279 .64279 -.76604 409.09 1115.2)">
     <path d="m298.08 123.17c0.056-1.968 0.992-2.952 2.808-2.952 0.80799 1e-5 1.464 0.23201 1.968 0.696 0.50399 0.46401 0.75599 1.064 0.756 1.8-1e-5 1.056-0.60001 1.912-1.8 2.568l-1.2 0.648c-0.52 0.28001-0.892 0.55201-1.116 0.816-0.224 0.26401-0.364 0.576-0.42 0.936h4.476v1.044h-5.664c0.048-0.936 0.236-1.656 0.564-2.16 0.328-0.51199 0.936-1.02 1.824-1.524l1.104-0.624c0.76799-0.43999 1.152-0.99999 1.152-1.68-1e-5 -0.45599-0.16001-0.83599-0.48-1.14-0.32001-0.30399-0.72001-0.45599-1.2-0.456-1.064 1e-5 -1.636 0.67601-1.716 2.028h-1.056"/>
     <path d="m304.76 123.17c0.056-1.968 0.99199-2.952 2.808-2.952 0.80799 1e-5 1.464 0.23201 1.968 0.696 0.50399 0.46401 0.75599 1.064 0.756 1.8-1e-5 1.056-0.60001 1.912-1.8 2.568l-1.2 0.648c-0.52001 0.28001-0.89201 0.55201-1.116 0.816-0.22401 0.26401-0.36401 0.576-0.42 0.936h4.476v1.044h-5.664c0.048-0.936 0.236-1.656 0.564-2.16 0.32799-0.51199 0.93599-1.02 1.824-1.524l1.104-0.624c0.76799-0.43999 1.152-0.99999 1.152-1.68-1e-5 -0.45599-0.16001-0.83599-0.48-1.14-0.32001-0.30399-0.72001-0.45599-1.2-0.456-1.064 1e-5 -1.636 0.67601-1.716 2.028h-1.056"/>
     <path d="m311.36 124.61c0-0.71199 0.06-1.34 0.18-1.884 0.12-0.54399 0.272-0.96799 0.456-1.272 0.184-0.31199 0.404-0.56399 0.66-0.756 0.256-0.19199 0.5-0.31999 0.732-0.384 0.24-0.064 0.492-0.096 0.756-0.096 1.856 1e-5 2.784 1.488 2.784 4.464 0 1.4-0.24 2.472-0.72 3.216-0.472 0.736-1.16 1.104-2.064 1.104-0.912 0-1.604-0.372-2.076-1.116-0.472-0.75199-0.708-1.844-0.708-3.276m4.488-0.024c0-2.288-0.568-3.432-1.704-3.432-1.136 1e-5 -1.704 1.156-1.704 3.468 0 2.336 0.56 3.504 1.68 3.504 0.592 0 1.028-0.288 1.308-0.864 0.28-0.57599 0.42-1.468 0.42-2.676"/>
    </g>
    <g transform="matrix(.76604 .64279 -.64279 .76604 335 245.47)">
     <path d="m304.76 126.69h-3.588v-1.116l3.864-5.352h0.78v5.52h1.26v0.948h-1.26v2.04h-1.056v-2.04m0-0.948v-3.72l-2.664 3.72h2.664"/>
     <path d="m308 124.61c0-0.71199 0.06-1.34 0.18-1.884 0.12-0.54399 0.272-0.96799 0.456-1.272 0.184-0.31199 0.404-0.56399 0.66-0.756 0.256-0.19199 0.5-0.31999 0.732-0.384 0.24-0.064 0.492-0.096 0.756-0.096 1.856 1e-5 2.784 1.488 2.784 4.464 0 1.4-0.24 2.472-0.72 3.216-0.472 0.736-1.16 1.104-2.064 1.104-0.912 0-1.604-0.372-2.076-1.116-0.472-0.75199-0.708-1.844-0.708-3.276m4.488-0.024c0-2.288-0.568-3.432-1.704-3.432-1.136 1e-5 -1.704 1.156-1.704 3.468 0 2.336 0.56 3.504 1.68 3.504 0.592 0 1.028-0.288 1.308-0.864 0.28-0.57599 0.42-1.468 0.42-2.676"/>
    </g>
    <g transform="matrix(-.86603 -.5 .5 -.86603 484.04 1102.1)">
     <path d="m298.08 123.17c0.056-1.968 0.992-2.952 2.808-2.952 0.80799 1e-5 1.464 0.23201 1.968 0.696 0.50399 0.46401 0.75599 1.064 0.756 1.8-1e-5 1.056-0.60001 1.912-1.8 2.568l-1.2 0.648c-0.52 0.28001-0.892 0.55201-1.116 0.816-0.224 0.26401-0.364 0.576-0.42 0.936h4.476v1.044h-5.664c0.048-0.936 0.236-1.656 0.564-2.16 0.328-0.51199 0.936-1.02 1.824-1.524l1.104-0.624c0.76799-0.43999 1.152-0.99999 1.152-1.68-1e-5 -0.45599-0.16001-0.83599-0.48-1.14-0.32001-0.30399-0.72001-0.45599-1.2-0.456-1.064 1e-5 -1.636 0.67601-1.716 2.028h-1.056"/>
     <path d="m307.27 122.67h-1.884v-0.756c0.81599-0.10399 1.348-0.24799 1.596-0.432 0.24799-0.18399 0.46399-0.60399 0.648-1.26h0.696v8.508h-1.056v-6.06"/>
     <path d="m311.36 124.61c0-0.71199 0.06-1.34 0.18-1.884 0.12-0.54399 0.272-0.96799 0.456-1.272 0.184-0.31199 0.404-0.56399 0.66-0.756 0.256-0.19199 0.5-0.31999 0.732-0.384 0.24-0.064 0.492-0.096 0.756-0.096 1.856 1e-5 2.784 1.488 2.784 4.464 0 1.4-0.24 2.472-0.72 3.216-0.472 0.736-1.16 1.104-2.064 1.104-0.912 0-1.604-0.372-2.076-1.116-0.472-0.75199-0.708-1.844-0.708-3.276m4.488-0.024c0-2.288-0.568-3.432-1.704-3.432-1.136 1e-5 -1.704 1.156-1.704 3.468 0 2.336 0.56 3.504 1.68 3.504 0.592 0 1.028-0.288 1.308-0.864 0.28-0.57599 0.42-1.468 0.42-2.676"/>
    </g>
    <g transform="matrix(.86603 .5 -.5 .86603 260.05 258.51)">
     <path d="m304.06 121.14c-0.608 1e-5 -1.028 0.16801-1.26 0.504-0.224 0.32801-0.344 0.76801-0.36 1.32h-1.056c0.04-1.832 0.928-2.748 2.664-2.748 0.808 1e-5 1.44 0.20801 1.896 0.624 0.464 0.41601 0.696 0.98801 0.696 1.716 0 0.86401-0.396 1.452-1.188 1.764 0.512 0.17601 0.88 0.42401 1.104 0.744 0.224 0.31201 0.336 0.74001 0.336 1.284 0 0.80801-0.264 1.452-0.792 1.932-0.52 0.48-1.216 0.72-2.088 0.72-1.744 0-2.68-0.916-2.808-2.748h1.056c0.04 0.61601 0.204 1.072 0.492 1.368s0.72 0.444 1.296 0.444c0.552 0 0.984-0.148 1.296-0.444 0.312-0.304 0.468-0.72399 0.468-1.26 0-1.032-0.588-1.548-1.764-1.548l-0.444 0.012h-0.132v-0.9c0.76-0.016 1.296-0.11199 1.608-0.288 0.32-0.17599 0.48-0.52399 0.48-1.044 0-0.44799-0.136-0.79999-0.408-1.056-0.264-0.26399-0.628-0.39599-1.092-0.396"/>
     <path d="m308.02 124.61c0-0.71199 0.06-1.34 0.18-1.884 0.12-0.54399 0.272-0.96799 0.456-1.272 0.184-0.31199 0.404-0.56399 0.66-0.756 0.256-0.19199 0.5-0.31999 0.732-0.384 0.24-0.064 0.492-0.096 0.756-0.096 1.856 1e-5 2.784 1.488 2.784 4.464-1e-5 1.4-0.24001 2.472-0.72 3.216-0.472 0.736-1.16 1.104-2.064 1.104-0.912 0-1.604-0.372-2.076-1.116-0.472-0.75199-0.708-1.844-0.708-3.276m4.488-0.024c-1e-5 -2.288-0.568-3.432-1.704-3.432-1.136 1e-5 -1.704 1.156-1.704 3.468 0 2.336 0.56 3.504 1.68 3.504 0.592 0 1.028-0.288 1.308-0.864 0.28-0.57599 0.41999-1.468 0.42-2.676"/>
    </g>
    <g transform="matrix(-.93969 -.34202 .34202 -.93969 555.58 1076.3)">
     <path d="m298.08 123.17c0.056-1.968 0.992-2.952 2.808-2.952 0.80799 1e-5 1.464 0.23201 1.968 0.696 0.50399 0.46401 0.75599 1.064 0.756 1.8-1e-5 1.056-0.60001 1.912-1.8 2.568l-1.2 0.648c-0.52 0.28001-0.892 0.55201-1.116 0.816-0.224 0.26401-0.364 0.576-0.42 0.936h4.476v1.044h-5.664c0.048-0.936 0.236-1.656 0.564-2.16 0.328-0.51199 0.936-1.02 1.824-1.524l1.104-0.624c0.76799-0.43999 1.152-0.99999 1.152-1.68-1e-5 -0.45599-0.16001-0.83599-0.48-1.14-0.32001-0.30399-0.72001-0.45599-1.2-0.456-1.064 1e-5 -1.636 0.67601-1.716 2.028h-1.056"/>
     <path d="m304.68 124.61c0-0.71199 0.06-1.34 0.18-1.884 0.12-0.54399 0.272-0.96799 0.456-1.272 0.18399-0.31199 0.40399-0.56399 0.66-0.756 0.25599-0.19199 0.49999-0.31999 0.732-0.384 0.23999-0.064 0.49199-0.096 0.756-0.096 1.856 1e-5 2.784 1.488 2.784 4.464-1e-5 1.4-0.24001 2.472-0.72 3.216-0.47201 0.736-1.16 1.104-2.064 1.104-0.91201 0-1.604-0.372-2.076-1.116-0.472-0.75199-0.708-1.844-0.708-3.276m4.488-0.024c-1e-5 -2.288-0.56801-3.432-1.704-3.432-1.136 1e-5 -1.704 1.156-1.704 3.468-1e-5 2.336 0.55999 3.504 1.68 3.504 0.59199 0 1.028-0.288 1.308-0.864 0.27999-0.57599 0.41999-1.468 0.42-2.676"/>
     <path d="m311.36 124.61c0-0.71199 0.06-1.34 0.18-1.884 0.12-0.54399 0.272-0.96799 0.456-1.272 0.184-0.31199 0.404-0.56399 0.66-0.756 0.256-0.19199 0.5-0.31999 0.732-0.384 0.24-0.064 0.492-0.096 0.756-0.096 1.856 1e-5 2.784 1.488 2.784 4.464 0 1.4-0.24 2.472-0.72 3.216-0.472 0.736-1.16 1.104-2.064 1.104-0.912 0-1.604-0.372-2.076-1.116-0.472-0.75199-0.708-1.844-0.708-3.276m4.488-0.024c0-2.288-0.568-3.432-1.704-3.432-1.136 1e-5 -1.704 1.156-1.704 3.468 0 2.336 0.56 3.504 1.68 3.504 0.592 0 1.028-0.288 1.308-0.864 0.28-0.57599 0.42-1.468 0.42-2.676"/>
    </g>
    <g transform="matrix(.93969 .34202 -.34202 .93969 188.51 284.36)">
     <path d="m301.42 123.17c0.056-1.968 0.992-2.952 2.808-2.952 0.808 1e-5 1.464 0.23201 1.968 0.696 0.504 0.46401 0.756 1.064 0.756 1.8 0 1.056-0.6 1.912-1.8 2.568l-1.2 0.648c-0.52 0.28001-0.892 0.55201-1.116 0.816-0.224 0.26401-0.364 0.576-0.42 0.936h4.476v1.044h-5.664c0.048-0.936 0.236-1.656 0.564-2.16 0.328-0.51199 0.936-1.02 1.824-1.524l1.104-0.624c0.768-0.43999 1.152-0.99999 1.152-1.68 0-0.45599-0.16-0.83599-0.48-1.14-0.32-0.30399-0.72-0.45599-1.2-0.456-1.064 1e-5 -1.636 0.67601-1.716 2.028h-1.056"/>
     <path d="m308.02 124.61c0-0.71199 0.06-1.34 0.18-1.884 0.12-0.54399 0.272-0.96799 0.456-1.272 0.184-0.31199 0.404-0.56399 0.66-0.756 0.256-0.19199 0.5-0.31999 0.732-0.384 0.24-0.064 0.492-0.096 0.756-0.096 1.856 1e-5 2.784 1.488 2.784 4.464-1e-5 1.4-0.24001 2.472-0.72 3.216-0.472 0.736-1.16 1.104-2.064 1.104-0.912 0-1.604-0.372-2.076-1.116-0.472-0.75199-0.708-1.844-0.708-3.276m4.488-0.024c-1e-5 -2.288-0.568-3.432-1.704-3.432-1.136 1e-5 -1.704 1.156-1.704 3.468 0 2.336 0.56 3.504 1.68 3.504 0.592 0 1.028-0.288 1.308-0.864 0.28-0.57599 0.41999-1.468 0.42-2.676"/>
    </g>
    <g transform="matrix(-.98481 -.17365 .17365 -.98481 621.55 1038.4)">
     <path d="m300.6 122.67h-1.884v-0.756c0.816-0.10399 1.348-0.24799 1.596-0.432 0.24799-0.18399 0.46399-0.60399 0.648-1.26h0.696v8.508h-1.056v-6.06"/>
     <path d="m310.28 124.37c0 0.75201-0.068 1.416-0.204 1.992-0.136 0.56801-0.308 1.016-0.516 1.344-0.2 0.328-0.444 0.596-0.732 0.804-0.28 0.2-0.548 0.332-0.804 0.396s-0.524 0.096-0.804 0.096c-0.648 0-1.188-0.196-1.62-0.588-0.424-0.392-0.688-0.936-0.79199-1.632h1.056c0.088 0.40801 0.256 0.724 0.50401 0.948 0.24799 0.224 0.55599 0.336 0.92399 0.336 0.608 0 1.072-0.276 1.392-0.828 0.328-0.55999 0.496-1.36 0.50401-2.4-0.52801 0.63201-1.176 0.94801-1.944 0.948-0.768 1e-5 -1.396-0.25199-1.884-0.756-0.488-0.50399-0.732-1.152-0.73199-1.944-1e-5 -0.83199 0.25999-1.516 0.77999-2.052 0.528-0.54399 1.196-0.81599 2.004-0.816 1.912 1e-5 2.868 1.384 2.868 4.152m-2.88-3.228c-0.488 1e-5 -0.892 0.17601-1.212 0.528-0.32001 0.35201-0.48001 0.79601-0.48001 1.332 0 0.56801 0.148 1.02 0.44401 1.356 0.29599 0.32801 0.69999 0.49201 1.212 0.492 0.512 1e-5 0.932-0.16799 1.26-0.504 0.336-0.33599 0.504-0.76399 0.50401-1.284-1e-5 -0.55199-0.16401-1.008-0.49201-1.368-0.328-0.36799-0.74-0.55199-1.236-0.552"/>
     <path d="m311.34 124.61c-1e-5 -0.71199 0.06-1.34 0.18-1.884 0.11999-0.54399 0.27199-0.96799 0.45599-1.272 0.184-0.31199 0.404-0.56399 0.66-0.756 0.256-0.19199 0.5-0.31999 0.732-0.384 0.24-0.064 0.492-0.096 0.756-0.096 1.856 1e-5 2.784 1.488 2.784 4.464 0 1.4-0.24 2.472-0.72 3.216-0.472 0.736-1.16 1.104-2.064 1.104-0.912 0-1.604-0.372-2.076-1.116-0.472-0.75199-0.708-1.844-0.70799-3.276m4.488-0.024c-1e-5 -2.288-0.56801-3.432-1.704-3.432-1.136 1e-5 -1.704 1.156-1.704 3.468 0 2.336 0.56 3.504 1.68 3.504 0.592 0 1.028-0.288 1.308-0.864 0.28-0.57599 0.42-1.468 0.42001-2.676"/>
    </g>
    <g transform="matrix(.98481 .17365 -.17365 .98481 122.54 322.25)">
     <path d="m303.93 122.67h-1.884v-0.756c0.816-0.10399 1.348-0.24799 1.596-0.432 0.248-0.18399 0.464-0.60399 0.648-1.26h0.696v8.508h-1.056v-6.06"/>
     <path d="m308.02 124.61c0-0.71199 0.06-1.34 0.18-1.884 0.12-0.54399 0.272-0.96799 0.456-1.272 0.184-0.31199 0.404-0.56399 0.66-0.756 0.256-0.19199 0.5-0.31999 0.732-0.384 0.24-0.064 0.492-0.096 0.756-0.096 1.856 1e-5 2.784 1.488 2.784 4.464-1e-5 1.4-0.24001 2.472-0.72 3.216-0.472 0.736-1.16 1.104-2.064 1.104-0.912 0-1.604-0.372-2.076-1.116-0.472-0.75199-0.708-1.844-0.708-3.276m4.488-0.024c-1e-5 -2.288-0.568-3.432-1.704-3.432-1.136 1e-5 -1.704 1.156-1.704 3.468 0 2.336 0.56 3.504 1.68 3.504 0.592 0 1.028-0.288 1.308-0.864 0.28-0.57599 0.41999-1.468 0.42-2.676"/>
    </g>
   </g>
   <path d="m494.07 216-1.3024 7.386 1.2926 0.22792 1.3024-7.3861-1.2926-0.22791z"/>
   <path d="m653.31 413c0 106.76-86.547 193.31-193.31 193.31s-193.31-86.547-193.31-193.31 86.547-193.31 193.31-193.31 193.31 86.547 193.31 193.31z" fill="none" stroke="#000" stroke-width="1.6949"/>
   <g transform="matrix(.99939 -.0349 .0349 .99939 64.439 -253.92)">
    <path d="m371.39 480.39v7.5h1.3125v-7.5h-1.3125z"/>
    <path d="m372.7 880.24v-7.5h-1.3125v7.5h1.3125z"/>
   </g>
   <g transform="matrix(.99756 -.069756 .069756 .99756 41.405 -239.71)">
    <path d="m371.39 480.39v7.5h1.3125v-7.5h-1.3125z"/>
    <path d="m372.7 880.24v-7.5h-1.3125v7.5h1.3125z"/>
   </g>
   <g transform="matrix(.99452 -.10453 .10453 .99452 18.881 -224.7)">
    <path d="m371.39 480.39v7.5h1.3125v-7.5h-1.3125z"/>
    <path d="m372.7 880.24v-7.5h-1.3125v7.5h1.3125z"/>
   </g>
   <g transform="matrix(.99027 -.13917 .13917 .99027 -3.1062 -208.92)">
    <path d="m371.39 480.39v7.5h1.3125v-7.5h-1.3125z"/>
    <path d="m372.7 880.24v-7.5h-1.3125v7.5h1.3125z"/>
   </g>
   <g transform="matrix(.97815 -.20791 .20791 .97815 -45.361 -175.1)">
    <path d="m371.39 480.39v7.5h1.3125v-7.5h-1.3125z"/>
    <path d="m372.7 880.24v-7.5h-1.3125v7.5h1.3125z"/>
   </g>
   <g transform="matrix(.9703 -.24192 .24192 .9703 -65.577 -157.1)">
    <path d="m371.39 480.39v7.5h1.3125v-7.5h-1.3125z"/>
    <path d="m372.7 880.24v-7.5h-1.3125v7.5h1.3125z"/>
   </g>
   <g transform="matrix(.96126 -.27564 .27564 .96126 -85.153 -138.41)">
    <path d="m371.39 480.39v7.5h1.3125v-7.5h-1.3125z"/>
    <path d="m372.7 880.24v-7.5h-1.3125v7.5h1.3125z"/>
   </g>
   <g transform="matrix(.95106 -.30902 .30902 .95106 -104.07 -119.05)">
    <path d="m371.39 480.39v7.5h1.3125v-7.5h-1.3125z"/>
    <path d="m372.7 880.24v-7.5h-1.3125v7.5h1.3125z"/>
   </g>
   <g transform="matrix(.92718 -.37461 .37461 .92718 -139.81 -78.409)">
    <path d="m371.39 480.39v7.5h1.3125v-7.5h-1.3125z"/>
    <path d="m372.7 880.24v-7.5h-1.3125v7.5h1.3125z"/>
   </g>
   <g transform="matrix(.91355 -.40674 .40674 .91355 -156.59 -57.176)">
    <path d="m371.39 480.39v7.5h1.3125v-7.5h-1.3125z"/>
    <path d="m372.7 880.24v-7.5h-1.3125v7.5h1.3125z"/>
   </g>
   <g transform="matrix(.89879 -.43837 .43837 .89879 -172.62 -35.371)">
    <path d="m371.39 480.39v7.5h1.3125v-7.5h-1.3125z"/>
    <path d="m372.7 880.24v-7.5h-1.3125v7.5h1.3125z"/>
   </g>
   <g transform="matrix(.88295 -.46947 .46947 .88295 -187.89 -13.02)">
    <path d="m371.39 480.39v7.5h1.3125v-7.5h-1.3125z"/>
    <path d="m372.7 880.24v-7.5h-1.3125v7.5h1.3125z"/>
   </g>
   <g transform="matrix(.84805 -.52992 .52992 .84805 -216.03 33.212)">
    <path d="m371.39 480.39v7.5h1.3125v-7.5h-1.3125z"/>
    <path d="m372.7 880.24v-7.5h-1.3125v7.5h1.3125z"/>
   </g>
   <g transform="matrix(.82904 -.55919 .55919 .82904 -228.87 57.036)">
    <path d="m371.39 480.39v7.5h1.3125v-7.5h-1.3125z"/>
    <path d="m372.7 880.24v-7.5h-1.3125v7.5h1.3125z"/>
   </g>
   <g transform="matrix(.80902 -.58779 .58779 .80902 -240.87 81.294)">
    <path d="m371.39 480.39v7.5h1.3125v-7.5h-1.3125z"/>
    <path d="m372.7 880.24v-7.5h-1.3125v7.5h1.3125z"/>
   </g>
   <g transform="matrix(.78801 -.61566 .61566 .78801 -252.02 105.96)">
    <path d="m371.39 480.39v7.5h1.3125v-7.5h-1.3125z"/>
    <path d="m372.7 880.24v-7.5h-1.3125v7.5h1.3125z"/>
   </g>
   <g transform="matrix(.74314 -.66913 .66913 .74314 -271.7 156.37)">
    <path d="m371.39 480.39v7.5h1.3125v-7.5h-1.3125z"/>
    <path d="m372.7 880.24v-7.5h-1.3125v7.5h1.3125z"/>
   </g>
   <g transform="matrix(.71934 -.69466 .69466 .71934 -280.21 182.06)">
    <path d="m371.39 480.39v7.5h1.3125v-7.5h-1.3125z"/>
    <path d="m372.7 880.24v-7.5h-1.3125v7.5h1.3125z"/>
   </g>
   <g transform="matrix(.69466 -.71934 .71934 .69466 -287.82 208.04)">
    <path d="m371.39 480.39v7.5h1.3125v-7.5h-1.3125z"/>
    <path d="m372.7 880.24v-7.5h-1.3125v7.5h1.3125z"/>
   </g>
   <g transform="matrix(.66913 -.74314 .74314 .66913 -294.52 234.26)">
    <path d="m371.39 480.39v7.5h1.3125v-7.5h-1.3125z"/>
    <path d="m372.7 880.24v-7.5h-1.3125v7.5h1.3125z"/>
   </g>
   <g transform="matrix(.61566 -.78801 .78801 .61566 -305.15 287.33)">
    <path d="m371.39 480.39v7.5h1.3125v-7.5h-1.3125z"/>
    <path d="m372.7 880.24v-7.5h-1.3125v7.5h1.3125z"/>
   </g>
   <g transform="matrix(.58779 -.80902 .80902 .58779 -309.07 314.11)">
    <path d="m371.39 480.39v7.5h1.3125v-7.5h-1.3125z"/>
    <path d="m372.7 880.24v-7.5h-1.3125v7.5h1.3125z"/>
   </g>
   <g transform="matrix(.55919 -.82904 .82904 .55919 -312.05 341.01)">
    <path d="m371.39 480.39v7.5h1.3125v-7.5h-1.3125z"/>
    <path d="m372.7 880.24v-7.5h-1.3125v7.5h1.3125z"/>
   </g>
   <g transform="matrix(.52992 -.84805 .84805 .52992 -314.1 368)">
    <path d="m371.39 480.39v7.5h1.3125v-7.5h-1.3125z"/>
    <path d="m372.7 880.24v-7.5h-1.3125v7.5h1.3125z"/>
   </g>
   <g transform="matrix(.46947 -.88295 .88295 .46947 -315.35 422.11)">
    <path d="m371.39 480.39v7.5h1.3125v-7.5h-1.3125z"/>
    <path d="m372.7 880.24v-7.5h-1.3125v7.5h1.3125z"/>
   </g>
   <g transform="matrix(.43837 -.89879 .89879 .43837 -314.56 449.16)">
    <path d="m371.39 480.39v7.5h1.3125v-7.5h-1.3125z"/>
    <path d="m372.7 880.24v-7.5h-1.3125v7.5h1.3125z"/>
   </g>
   <g transform="matrix(.40674 -.91355 .91355 .40674 -312.83 476.17)">
    <path d="m371.39 480.39v7.5h1.3125v-7.5h-1.3125z"/>
    <path d="m372.7 880.24v-7.5h-1.3125v7.5h1.3125z"/>
   </g>
   <g transform="matrix(.37461 -.92718 .92718 .37461 -310.15 503.1)">
    <path d="m371.39 480.39v7.5h1.3125v-7.5h-1.3125z"/>
    <path d="m372.7 880.24v-7.5h-1.3125v7.5h1.3125z"/>
   </g>
   <g transform="matrix(.30902 -.95106 .95106 .30902 -301.99 556.61)">
    <path d="m371.39 480.39v7.5h1.3125v-7.5h-1.3125z"/>
    <path d="m372.7 880.24v-7.5h-1.3125v7.5h1.3125z"/>
   </g>
   <g transform="matrix(.27564 -.96126 .96126 .27564 -296.51 583.11)">
    <path d="m371.39 480.39v7.5h1.3125v-7.5h-1.3125z"/>
    <path d="m372.7 880.24v-7.5h-1.3125v7.5h1.3125z"/>
   </g>
   <g transform="matrix(.24192 -.9703 .9703 .24192 -290.11 609.41)">
    <path d="m371.39 480.39v7.5h1.3125v-7.5h-1.3125z"/>
    <path d="m372.7 880.24v-7.5h-1.3125v7.5h1.3125z"/>
   </g>
   <g transform="matrix(.20791 -.97815 .97815 .20791 -282.8 635.47)">
    <path d="m371.39 480.39v7.5h1.3125v-7.5h-1.3125z"/>
    <path d="m372.7 880.24v-7.5h-1.3125v7.5h1.3125z"/>
   </g>
   <g transform="matrix(.13917 -.99027 .99027 .13917 -265.48 686.74)">
    <path d="m371.39 480.39v7.5h1.3125v-7.5h-1.3125z"/>
    <path d="m372.7 880.24v-7.5h-1.3125v7.5h1.3125z"/>
   </g>
   <g transform="matrix(.10453 -.99452 .99452 .10453 -255.48 711.89)">
    <path d="m371.39 480.39v7.5h1.3125v-7.5h-1.3125z"/>
    <path d="m372.7 880.24v-7.5h-1.3125v7.5h1.3125z"/>
   </g>
   <g transform="matrix(.069756 -.99756 .99756 .069756 -244.61 736.68)">
    <path d="m371.39 480.39v7.5h1.3125v-7.5h-1.3125z"/>
    <path d="m372.7 880.24v-7.5h-1.3125v7.5h1.3125z"/>
   </g>
   <g transform="matrix(.034899 -.99939 .99939 .034899 -232.89 761.08)">
    <path d="m371.39 480.39v7.5h1.3125v-7.5h-1.3125z"/>
    <path d="m372.7 880.24v-7.5h-1.3125v7.5h1.3125z"/>
   </g>
   <g transform="matrix(-.0349 -.99939 .99939 -.0349 -206.92 808.56)">
    <path d="m371.39 480.39v7.5h1.3125v-7.5h-1.3125z"/>
    <path d="m372.7 880.24v-7.5h-1.3125v7.5h1.3125z"/>
   </g>
   <g transform="matrix(-.069756 -.99756 .99756 -.069756 -192.71 831.6)">
    <path d="m371.39 480.39v7.5h1.3125v-7.5h-1.3125z"/>
    <path d="m372.7 880.24v-7.5h-1.3125v7.5h1.3125z"/>
   </g>
   <g transform="matrix(-.10453 -.99452 .99452 -.10453 -177.7 854.12)">
    <path d="m371.39 480.39v7.5h1.3125v-7.5h-1.3125z"/>
    <path d="m372.7 880.24v-7.5h-1.3125v7.5h1.3125z"/>
   </g>
   <g transform="matrix(-.13917 -.99027 .99027 -.13917 -161.92 876.11)">
    <path d="m371.39 480.39v7.5h1.3125v-7.5h-1.3125z"/>
    <path d="m372.7 880.24v-7.5h-1.3125v7.5h1.3125z"/>
   </g>
   <g transform="matrix(-.20791 -.97815 .97815 -.20791 -128.1 918.36)">
    <path d="m371.39 480.39v7.5h1.3125v-7.5h-1.3125z"/>
    <path d="m372.7 880.24v-7.5h-1.3125v7.5h1.3125z"/>
   </g>
   <g transform="matrix(-.24192 -.9703 .9703 -.24192 -110.1 938.58)">
    <path d="m371.39 480.39v7.5h1.3125v-7.5h-1.3125z"/>
    <path d="m372.7 880.24v-7.5h-1.3125v7.5h1.3125z"/>
   </g>
   <g transform="matrix(-.27564 -.96126 .96126 -.27564 -91.413 958.15)">
    <path d="m371.39 480.39v7.5h1.3125v-7.5h-1.3125z"/>
    <path d="m372.7 880.24v-7.5h-1.3125v7.5h1.3125z"/>
   </g>
   <g transform="matrix(-.30902 -.95106 .95106 -.30902 -72.052 977.07)">
    <path d="m371.39 480.39v7.5h1.3125v-7.5h-1.3125z"/>
    <path d="m372.7 880.24v-7.5h-1.3125v7.5h1.3125z"/>
   </g>
   <g transform="matrix(-.37461 -.92718 .92718 -.37461 -31.409 1012.8)">
    <path d="m371.39 480.39v7.5h1.3125v-7.5h-1.3125z"/>
    <path d="m372.7 880.24v-7.5h-1.3125v7.5h1.3125z"/>
   </g>
   <g transform="matrix(-.40674 -.91355 .91355 -.40674 -10.176 1029.6)">
    <path d="m371.39 480.39v7.5h1.3125v-7.5h-1.3125z"/>
    <path d="m372.7 880.24v-7.5h-1.3125v7.5h1.3125z"/>
   </g>
   <g transform="matrix(-.43837 -.89879 .89879 -.43837 11.629 1045.6)">
    <path d="m371.39 480.39v7.5h1.3125v-7.5h-1.3125z"/>
    <path d="m372.7 880.24v-7.5h-1.3125v7.5h1.3125z"/>
   </g>
   <g transform="matrix(-.46947 -.88295 .88295 -.46947 33.98 1060.9)">
    <path d="m371.39 480.39v7.5h1.3125v-7.5h-1.3125z"/>
    <path d="m372.7 880.24v-7.5h-1.3125v7.5h1.3125z"/>
   </g>
   <g transform="matrix(-.52992 -.84805 .84805 -.52992 80.212 1089)">
    <path d="m371.39 480.39v7.5h1.3125v-7.5h-1.3125z"/>
    <path d="m372.7 880.24v-7.5h-1.3125v7.5h1.3125z"/>
   </g>
   <g transform="matrix(-.55919 -.82904 .82904 -.55919 104.04 1101.9)">
    <path d="m371.39 480.39v7.5h1.3125v-7.5h-1.3125z"/>
    <path d="m372.7 880.24v-7.5h-1.3125v7.5h1.3125z"/>
   </g>
   <g transform="matrix(-.58779 -.80902 .80902 -.58779 128.29 1113.9)">
    <path d="m371.39 480.39v7.5h1.3125v-7.5h-1.3125z"/>
    <path d="m372.7 880.24v-7.5h-1.3125v7.5h1.3125z"/>
   </g>
   <g transform="matrix(-.61566 -.78801 .78801 -.61566 152.96 1125)">
    <path d="m371.39 480.39v7.5h1.3125v-7.5h-1.3125z"/>
    <path d="m372.7 880.24v-7.5h-1.3125v7.5h1.3125z"/>
   </g>
   <g transform="matrix(-.66913 -.74314 .74314 -.66913 203.37 1144.7)">
    <path d="m371.39 480.39v7.5h1.3125v-7.5h-1.3125z"/>
    <path d="m372.7 880.24v-7.5h-1.3125v7.5h1.3125z"/>
   </g>
   <g transform="matrix(-.69466 -.71934 .71934 -.69466 229.06 1153.2)">
    <path d="m371.39 480.39v7.5h1.3125v-7.5h-1.3125z"/>
    <path d="m372.7 880.24v-7.5h-1.3125v7.5h1.3125z"/>
   </g>
   <g transform="matrix(-.71934 -.69466 .69466 -.71934 255.04 1160.8)">
    <path d="m371.39 480.39v7.5h1.3125v-7.5h-1.3125z"/>
    <path d="m372.7 880.24v-7.5h-1.3125v7.5h1.3125z"/>
   </g>
   <g transform="matrix(-.74314 -.66913 .66913 -.74314 281.26 1167.5)">
    <path d="m371.39 480.39v7.5h1.3125v-7.5h-1.3125z"/>
    <path d="m372.7 880.24v-7.5h-1.3125v7.5h1.3125z"/>
   </g>
   <g transform="matrix(-.78801 -.61566 .61566 -.78801 334.33 1178.2)">
    <path d="m371.39 480.39v7.5h1.3125v-7.5h-1.3125z"/>
    <path d="m372.7 880.24v-7.5h-1.3125v7.5h1.3125z"/>
   </g>
   <g transform="matrix(-.80902 -.58779 .58779 -.80902 361.11 1182.1)">
    <path d="m371.39 480.39v7.5h1.3125v-7.5h-1.3125z"/>
    <path d="m372.7 880.24v-7.5h-1.3125v7.5h1.3125z"/>
   </g>
   <g transform="matrix(-.82904 -.55919 .55919 -.82904 388.01 1185.1)">
    <path d="m371.39 480.39v7.5h1.3125v-7.5h-1.3125z"/>
    <path d="m372.7 880.24v-7.5h-1.3125v7.5h1.3125z"/>
   </g>
   <g transform="matrix(-.84805 -.52992 .52992 -.84805 415 1187.1)">
    <path d="m371.39 480.39v7.5h1.3125v-7.5h-1.3125z"/>
    <path d="m372.7 880.24v-7.5h-1.3125v7.5h1.3125z"/>
   </g>
   <g transform="matrix(-.88295 -.46947 .46947 -.88295 469.11 1188.3)">
    <path d="m371.39 480.39v7.5h1.3125v-7.5h-1.3125z"/>
    <path d="m372.7 880.24v-7.5h-1.3125v7.5h1.3125z"/>
   </g>
   <g transform="matrix(-.89879 -.43837 .43837 -.89879 496.16 1187.6)">
    <path d="m371.39 480.39v7.5h1.3125v-7.5h-1.3125z"/>
    <path d="m372.7 880.24v-7.5h-1.3125v7.5h1.3125z"/>
   </g>
   <g transform="matrix(-.91355 -.40674 .40674 -.91355 523.17 1185.8)">
    <path d="m371.39 480.39v7.5h1.3125v-7.5h-1.3125z"/>
    <path d="m372.7 880.24v-7.5h-1.3125v7.5h1.3125z"/>
   </g>
   <g transform="matrix(-.92718 -.37461 .37461 -.92718 550.1 1183.1)">
    <path d="m371.39 480.39v7.5h1.3125v-7.5h-1.3125z"/>
    <path d="m372.7 880.24v-7.5h-1.3125v7.5h1.3125z"/>
   </g>
   <g transform="matrix(-.95106 -.30902 .30902 -.95106 603.61 1175)">
    <path d="m371.39 480.39v7.5h1.3125v-7.5h-1.3125z"/>
    <path d="m372.7 880.24v-7.5h-1.3125v7.5h1.3125z"/>
   </g>
   <g transform="matrix(-.96126 -.27564 .27564 -.96126 630.11 1169.5)">
    <path d="m371.39 480.39v7.5h1.3125v-7.5h-1.3125z"/>
    <path d="m372.7 880.24v-7.5h-1.3125v7.5h1.3125z"/>
   </g>
   <g transform="matrix(-.9703 -.24192 .24192 -.9703 656.41 1163.1)">
    <path d="m371.39 480.39v7.5h1.3125v-7.5h-1.3125z"/>
    <path d="m372.7 880.24v-7.5h-1.3125v7.5h1.3125z"/>
   </g>
   <g transform="matrix(-.97815 -.20791 .20791 -.97815 682.47 1155.8)">
    <path d="m371.39 480.39v7.5h1.3125v-7.5h-1.3125z"/>
    <path d="m372.7 880.24v-7.5h-1.3125v7.5h1.3125z"/>
   </g>
   <g transform="matrix(-.99027 -.13917 .13917 -.99027 733.74 1138.5)">
    <path d="m371.39 480.39v7.5h1.3125v-7.5h-1.3125z"/>
    <path d="m372.7 880.24v-7.5h-1.3125v7.5h1.3125z"/>
   </g>
   <g transform="matrix(-.99452 -.10453 .10453 -.99452 758.89 1128.5)">
    <path d="m371.39 480.39v7.5h1.3125v-7.5h-1.3125z"/>
    <path d="m372.7 880.24v-7.5h-1.3125v7.5h1.3125z"/>
   </g>
   <g transform="matrix(-.99756 -.069756 .069756 -.99756 783.68 1117.6)">
    <path d="m371.39 480.39v7.5h1.3125v-7.5h-1.3125z"/>
    <path d="m372.7 880.24v-7.5h-1.3125v7.5h1.3125z"/>
   </g>
   <g transform="matrix(-.99939 -.034899 .034899 -.99939 808.08 1105.9)">
    <path d="m371.39 480.39v7.5h1.3125v-7.5h-1.3125z"/>
    <path d="m372.7 880.24v-7.5h-1.3125v7.5h1.3125z"/>
   </g>
   <path d="m562.42 413c0 56.567-45.857 102.42-102.42 102.42-56.567 0-102.42-45.857-102.42-102.42 0-56.567 45.857-102.42 102.42-102.42 56.567 0 102.42 45.857 102.42 102.42z" fill="none" stroke="#d3d7cf" stroke-linecap="round" stroke-linejoin="round" stroke-width=".85672"/>
   <g transform="translate(87.955,-267.32)" fill="#d3d7cf" stroke="#d3d7cf" stroke-width=".85672">
    <path d="m200.18 751.5 343.73-142.37"/>
    <path d="m300.86 852.18 142.37-343.73"/>
    <path d="m443.23 852.18-142.37-343.73"/>
    <path d="m543.91 751.5-343.73-142.37"/>
   </g>
   <path d="m459.66 274.68-7.4484 123.47-60.9-53.452 53.616 60.539-123.24 7.4156 123.31 8.0391-53.681 60.605 60.9-53.452 7.4484 123.47 8.0391-123.34 60.539 53.648-53.484-60.9 123.57-8.0719-123.47-7.4484 53.386-60.834-60.539 53.648-8.0391-123.34z" fill="#afc6c5" stroke="#afc6c5" stroke-width="1.2239px"/>
   <path d="m459.66 274.68c-2.4828 41.158-4.9656 82.316-7.4484 123.47-20.3-17.817-40.6-35.634-60.9-53.452 17.872 20.18 35.744 40.359 53.616 60.539-41.081 2.4719-82.162 4.9438-123.24 7.4156 41.103 2.6797 82.206 5.3594 123.31 8.0391-17.894 20.202-35.788 40.403-53.681 60.605 20.3-17.817 40.6-35.634 60.9-53.452 2.4828 41.158 4.9656 82.316 7.4484 123.47 2.6797-41.114 5.3594-82.228 8.0391-123.34 20.18 17.883 40.359 35.766 60.539 53.648-17.828-20.3-35.656-40.6-53.484-60.9 41.191-2.6906 82.381-5.3812 123.57-8.0719-41.158-2.4828-82.316-4.9656-123.47-7.4484 17.795-20.278 35.591-40.556 53.386-60.834-20.18 17.883-40.359 35.766-60.539 53.648-2.6797-41.114-5.3594-82.228-8.0391-123.34z" fill="#afc6c5" stroke="#afc6c5" stroke-width="1.2239px"/>
   <g transform="translate(90.887,41.308)">
    <g transform="matrix(0,1,-1,0,739.72,2.5782)">
     <g transform="translate(10.116,149.99)">
      <path d="m353.3 97.534c-1e-5 1.0633 0.29332 1.7233 0.88 1.98 0.62332 0.25667 2.255 0.385 4.895 0.385h1.485c3.9233 2e-6 6.7283-0.45833 8.415-1.375 1.6866-0.95333 3.2083-2.915 4.565-5.885h1.54l-2.475 9.295h-29.7v-1.045c2.0167-0.14667 3.3183-0.51334 3.905-1.1 0.58666-0.62333 0.87999-1.9067 0.88-3.85v-24.42c-1e-5 -1.9433-0.29334-3.2083-0.88-3.795-0.58667-0.6233-1.8883-1.0083-3.905-1.155v-1.045h29.205l0.165 7.865h-1.375c-0.47669-2.4566-1.21-4.0333-2.2-4.73-0.99003-0.69663-3.0434-1.045-6.16-1.045h-7.425c-0.73335 3.5e-5 -1.2283 0.12837-1.485 0.385-0.22001 0.22003-0.33001 0.71503-0.33 1.485v12.21h8.47c2.3466 2.1e-5 3.85-0.34831 4.51-1.045 0.69664-0.73331 1.21-2.1266 1.54-4.18h1.265v12.76h-1.265c-0.36669-2.2733-0.89836-3.7216-1.595-4.345-0.69669-0.62332-2.1817-0.93498-4.455-0.935h-8.47v13.585"/>
     </g>
     <g transform="matrix(-1,0,0,-1,767.75,590.45)">
      <path d="m424.13 65.524v1.045c-1.4667 0.29337-2.475 0.66004-3.025 1.1-0.51338 0.44003-1.0267 1.375-1.54 2.805-3.0434 8.1767-5.0967 13.787-6.16 16.83-1.0634 3.0433-2.75 8.1217-5.06 15.235h-0.825l-8.8-23.265-8.47 23.265h-0.825l-10.615-29.535c-0.91667-2.5666-1.7417-4.235-2.475-5.005-0.69667-0.80663-1.76-1.2833-3.19-1.43v-1.045h13.475v1.045c-1.3934 0.07337-2.3467 0.23837-2.86 0.495-0.47668 0.22004-0.71501 0.6417-0.715 1.265-1e-5 0.66003 0.20165 1.5034 0.605 2.53l7.92 20.68 5.885-15.51-1.815-4.51c-0.88002-2.2-1.6317-3.5566-2.255-4.07-0.62336-0.54996-1.7234-0.8433-3.3-0.88v-1.045h14.685v1.045c-2.8234 0.0367-4.235 0.67837-4.235 1.925-3e-5 0.40337 0.49497 1.8884 1.485 4.455l7.26 18.755 6.875-18.645c0.58662-1.65 0.87995-3.025 0.88-4.125-5e-5 -0.7333-0.29338-1.265-0.88-1.595-0.55005-0.36663-1.5217-0.6233-2.915-0.77v-1.045h10.89"/>
     </g>
    </g>
    <g transform="translate(-31.99,152.07)">
     <path d="m417.82 66.569c-1.0267 0.11004-1.7967 0.23837-2.31 0.385-0.4767 0.11004-0.99003 0.38504-1.54 0.825-0.51336 0.44003-0.88003 1.1367-1.1 2.09-0.18336 0.9167-0.27503 2.1634-0.275 3.74v28.93h-0.935l-24.31-30.25v21.56c-1e-5 2.7867 0.32999 4.6383 0.99 5.555 0.65999 0.88 2.0533 1.375 4.18 1.485v1.045h-12.925v-1.045c2.2733-0.14667 3.7217-0.64167 4.345-1.485 0.66-0.88 0.99-2.7317 0.99-5.555v-24.255c-1.1-1.2833-1.98-2.1083-2.64-2.475-0.62333-0.36663-1.5217-0.54996-2.695-0.55v-1.045h9.405l21.175 26.62v-18.535c-3e-5 -2.7866-0.34836-4.6016-1.045-5.445-0.66003-0.87996-2.0717-1.4116-4.235-1.595v-1.045h12.925v1.045" opacity=".9"/>
    </g>
    <g transform="matrix(-1,0,0,-1,764.94,592.53)">
     <path d="m405.01 94.509c-2e-5 -1.7233-0.60502-3.245-1.815-4.565-1.21-1.3567-2.6767-2.5117-4.4-3.465-1.7233-0.95332-3.4467-1.925-5.17-2.915-1.6867-1.0266-3.135-2.3283-4.345-3.905-1.21-1.5766-1.815-3.41-1.815-5.5 0-2.7866 0.935-5.0416 2.805-6.765 1.9067-1.76 4.1433-2.64 6.71-2.64 1.54 3.7e-5 3.2083 0.3117 5.005 0.935 1.7966 0.62337 2.8783 0.93504 3.245 0.935 0.95331 3.6e-5 1.54-0.6233 1.76-1.87h1.155l1.21 11.715h-1.375c-0.88002-3.2266-2.2367-5.61-4.07-7.15-1.7967-1.54-3.795-2.31-5.995-2.31-1.6867 3.5e-5 -3.0617 0.4767-4.125 1.43-1.0633 0.95337-1.595 2.1817-1.595 3.685 0 1.4667 0.62333 2.86 1.87 4.18s3.3183 2.7867 6.215 4.4c3.63 1.9434 6.2516 3.8684 7.865 5.775 1.6133 1.87 2.42 3.9417 2.42 6.215-2e-5 2.8233-1.0817 5.2067-3.245 7.15-2.1634 1.9067-4.8217 2.86-7.975 2.86-1.8333 0-3.7033-0.31167-5.61-0.935-1.87-0.62334-3.025-0.935-3.465-0.935-0.40334 0-0.75167 0.18333-1.045 0.55-0.29333 0.33-0.45833 0.75166-0.495 1.265h-1.21l-1.65-11.66h1.265c1.3567 3.3367 2.9333 5.7933 4.73 7.37s3.9233 2.365 6.38 2.365c2.0166 0 3.6483-0.56834 4.895-1.705 1.2466-1.1733 1.87-2.6767 1.87-4.51"/>
    </g>
    <g transform="translate(3.5876 -.41572)">
     <g transform="matrix(.70711 .70711 -.70711 .70711 370.18 -149.48)">
      <g transform="translate(-32.161,189.68)">
       <path d="m399.93 60.383c-0.52269 0.05602-0.91469 0.12135-1.176 0.196-0.24269 0.05602-0.50402 0.19602-0.784 0.42-0.26135 0.22402-0.44802 0.57868-0.56 1.064-0.0933 0.46668-0.14002 1.1013-0.14 1.904v14.728h-0.476l-12.376-15.4v10.976c-1e-5 1.4187 0.16799 2.3613 0.504 2.828 0.33599 0.448 1.0453 0.7 2.128 0.756v0.532h-6.58v-0.532c1.1573-0.07467 1.8947-0.32667 2.212-0.756 0.336-0.448 0.504-1.3907 0.504-2.828v-12.348c-0.56-0.65332-1.008-1.0733-1.344-1.26-0.31734-0.18665-0.77467-0.27998-1.372-0.28v-0.532h4.788l10.78 13.552v-9.436c-2e-5 -1.4187-0.17735-2.3426-0.532-2.772-0.33602-0.44798-1.0547-0.71865-2.156-0.812v-0.532h6.58v0.532"/>
       <path d="m406 76.147c0 0.54134 0.14933 0.87733 0.448 1.008 0.31733 0.13067 1.148 0.196 2.492 0.196h0.756c1.9973 1e-6 3.4253-0.23333 4.284-0.7 0.85866-0.48533 1.6333-1.484 2.324-2.996h0.784l-1.26 4.732h-15.12v-0.532c1.0267-0.07467 1.6893-0.26133 1.988-0.56 0.29867-0.31733 0.448-0.97066 0.448-1.96v-12.432c0-0.98932-0.14933-1.6333-0.448-1.932-0.29866-0.31732-0.96133-0.51332-1.988-0.588v-0.532h14.868l0.084 4.004h-0.7c-0.24268-1.2507-0.61601-2.0533-1.12-2.408-0.50401-0.35465-1.5493-0.53198-3.136-0.532h-3.78c-0.37334 1.7e-5 -0.62534 0.06535-0.756 0.196-0.112 0.11202-0.168 0.36402-0.168 0.756v6.216h4.312c1.1947 1e-5 1.96-0.17732 2.296-0.532 0.35466-0.37332 0.61599-1.0827 0.784-2.128h0.644v6.496h-0.644c-0.18668-1.1573-0.45734-1.8947-0.812-2.212-0.35467-0.31732-1.1107-0.47599-2.268-0.476h-4.312v6.916"/>
      </g>
      <g transform="matrix(-1,0,0,-1,764.77,554.14)">
       <path d="m389.31 74.607c-1e-5 -0.87733-0.30801-1.652-0.924-2.324-0.61601-0.69066-1.3627-1.2787-2.24-1.764-0.87734-0.48532-1.7547-0.97999-2.632-1.484-0.85867-0.52266-1.596-1.1853-2.212-1.988-0.616-0.80266-0.924-1.736-0.924-2.8 0-1.4187 0.476-2.5666 1.428-3.444 0.97066-0.89598 2.1093-1.344 3.416-1.344 0.78399 1.9e-5 1.6333 0.15868 2.548 0.476 0.91466 0.31735 1.4653 0.47602 1.652 0.476 0.48532 1.8e-5 0.78399-0.31732 0.896-0.952h0.588l0.616 5.964h-0.7c-0.44801-1.6427-1.1387-2.856-2.072-3.64-0.91468-0.78398-1.932-1.176-3.052-1.176-0.85867 1.7e-5 -1.5587 0.24268-2.1 0.728-0.54134 0.48535-0.81201 1.1107-0.812 1.876-1e-5 0.74668 0.31733 1.456 0.952 2.128 0.63466 0.67201 1.6893 1.4187 3.164 2.24 1.848 0.98934 3.1826 1.9693 4.004 2.94 0.82132 0.95201 1.232 2.0067 1.232 3.164-1e-5 1.4373-0.55068 2.6507-1.652 3.64-1.1014 0.97067-2.4547 1.456-4.06 1.456-0.93334-1e-6 -1.8853-0.15867-2.856-0.476-0.95201-0.31733-1.54-0.476-1.764-0.476-0.20534 0-0.38267 0.09333-0.532 0.28-0.14934 0.168-0.23334 0.38267-0.252 0.644h-0.616l-0.84-5.936h0.644c0.69066 1.6987 1.4933 2.9493 2.408 3.752 0.91466 0.80267 1.9973 1.204 3.248 1.204 1.0267 0 1.8573-0.28933 2.492-0.868 0.63465-0.59733 0.95199-1.3627 0.952-2.296"/>
       <path d="m418.92 59.851v0.532c-0.74669 0.14935-1.26 0.33602-1.54 0.56-0.26136 0.22402-0.52269 0.70002-0.784 1.428-1.5494 4.1627-2.5947 7.0187-3.136 8.568-0.54135 1.5493-1.4 4.1347-2.576 7.756h-0.42l-4.48-11.844-4.312 11.844h-0.42l-5.404-15.036c-0.46667-1.3067-0.88667-2.156-1.26-2.548-0.35467-0.41065-0.896-0.65332-1.624-0.728v-0.532h6.86v0.532c-0.70934 0.03735-1.1947 0.12135-1.456 0.252-0.24267 0.11202-0.36401 0.32668-0.364 0.644-1e-5 0.33602 0.10266 0.76535 0.308 1.288l4.032 10.528 2.996-7.896-0.924-2.296c-0.44801-1.12-0.83068-1.8106-1.148-2.072-0.31734-0.27998-0.87734-0.42932-1.68-0.448v-0.532h7.476v0.532c-1.4374 0.01868-2.156 0.34535-2.156 0.98-2e-5 0.20535 0.25198 0.96135 0.756 2.268l3.696 9.548 3.5-9.492c0.29864-0.83998 0.44798-1.54 0.448-2.1-2e-5 -0.37332-0.14936-0.64398-0.448-0.812-0.28002-0.18665-0.77469-0.31732-1.484-0.392v-0.532h5.544"/>
      </g>
     </g>
     <g transform="matrix(-.70711 .70711 -.70711 -.70711 887.74 376.99)">
      <g transform="translate(-32.161,189.68)">
       <path d="m393.96 74.607c-1e-5 -0.87733-0.30801-1.652-0.924-2.324-0.61601-0.69066-1.3627-1.2787-2.24-1.764-0.87734-0.48532-1.7547-0.97999-2.632-1.484-0.85867-0.52266-1.596-1.1853-2.212-1.988-0.61601-0.80266-0.92401-1.736-0.924-2.8-1e-5 -1.4187 0.47599-2.5666 1.428-3.444 0.97066-0.89598 2.1093-1.344 3.416-1.344 0.78399 1.9e-5 1.6333 0.15868 2.548 0.476 0.91465 0.31735 1.4653 0.47602 1.652 0.476 0.48532 1.8e-5 0.78398-0.31732 0.896-0.952h0.588l0.616 5.964h-0.7c-0.44802-1.6427-1.1387-2.856-2.072-3.64-0.91468-0.78398-1.932-1.176-3.052-1.176-0.85868 1.7e-5 -1.5587 0.24268-2.1 0.728-0.54134 0.48535-0.81201 1.1107-0.812 1.876-1e-5 0.74668 0.31732 1.456 0.952 2.128 0.63466 0.67201 1.6893 1.4187 3.164 2.24 1.848 0.98934 3.1826 1.9693 4.004 2.94 0.82132 0.95201 1.232 2.0067 1.232 3.164-2e-5 1.4373-0.55068 2.6507-1.652 3.64-1.1014 0.97067-2.4547 1.456-4.06 1.456-0.93334-1e-6 -1.8853-0.15867-2.856-0.476-0.95201-0.31733-1.54-0.476-1.764-0.476-0.20534 0-0.38267 0.09333-0.532 0.28-0.14934 0.168-0.23334 0.38267-0.252 0.644h-0.616l-0.84-5.936h0.644c0.69066 1.6987 1.4933 2.9493 2.408 3.752 0.91466 0.80267 1.9973 1.204 3.248 1.204 1.0266 0 1.8573-0.28933 2.492-0.868 0.63465-0.59733 0.95199-1.3627 0.952-2.296"/>
       <path d="m403.1 76.147c-1e-5 0.54134 0.14932 0.87733 0.448 1.008 0.31732 0.13067 1.148 0.196 2.492 0.196h0.756c1.9973 1e-6 3.4253-0.23333 4.284-0.7 0.85865-0.48533 1.6333-1.484 2.324-2.996h0.784l-1.26 4.732h-15.12v-0.532c1.0267-0.07467 1.6893-0.26133 1.988-0.56 0.29866-0.31733 0.44799-0.97066 0.448-1.96v-12.432c-1e-5 -0.98932-0.14934-1.6333-0.448-1.932-0.29867-0.31732-0.96134-0.51332-1.988-0.588v-0.532h14.868l0.084 4.004h-0.7c-0.24268-1.2507-0.61602-2.0533-1.12-2.408-0.50402-0.35465-1.5494-0.53198-3.136-0.532h-3.78c-0.37334 1.7e-5 -0.62534 0.06535-0.756 0.196-0.11201 0.11202-0.16801 0.36402-0.168 0.756v6.216h4.312c1.1946 1e-5 1.96-0.17732 2.296-0.532 0.35465-0.37332 0.61598-1.0827 0.784-2.128h0.644v6.496h-0.644c-0.18668-1.1573-0.45735-1.8947-0.812-2.212-0.35468-0.31732-1.1107-0.47599-2.268-0.476h-4.312v6.916"/>
      </g>
      <g transform="matrix(-1,0,0,-1,764.77,554.14)">
       <path d="m395.28 60.383c-0.52268 0.05602-0.91468 0.12135-1.176 0.196-0.24268 0.05602-0.50402 0.19602-0.784 0.42-0.26135 0.22402-0.44802 0.57868-0.56 1.064-0.0933 0.46668-0.14002 1.1013-0.14 1.904v14.728h-0.476l-12.376-15.4v10.976c0 1.4187 0.168 2.3613 0.504 2.828 0.336 0.448 1.0453 0.7 2.128 0.756v0.532h-6.58v-0.532c1.1573-0.07467 1.8947-0.32667 2.212-0.756 0.336-0.448 0.504-1.3907 0.504-2.828v-12.348c-0.56-0.65332-1.008-1.0733-1.344-1.26-0.31733-0.18665-0.77467-0.27998-1.372-0.28v-0.532h4.788l10.78 13.552v-9.436c-1e-5 -1.4187-0.17735-2.3426-0.532-2.772-0.33601-0.44798-1.0547-0.71865-2.156-0.812v-0.532h6.58v0.532"/>
       <path d="m421.82 59.851v0.532c-0.7467 0.14935-1.26 0.33602-1.54 0.56-0.26136 0.22402-0.52269 0.70002-0.784 1.428-1.5494 4.1627-2.5947 7.0187-3.136 8.568-0.54136 1.5493-1.4 4.1347-2.576 7.756h-0.42l-4.48-11.844-4.312 11.844h-0.42l-5.404-15.036c-0.46667-1.3067-0.88667-2.156-1.26-2.548-0.35467-0.41065-0.896-0.65332-1.624-0.728v-0.532h6.86v0.532c-0.70934 0.03735-1.1947 0.12135-1.456 0.252-0.24268 0.11202-0.36401 0.32668-0.364 0.644-1e-5 0.33602 0.10266 0.76535 0.308 1.288l4.032 10.528 2.996-7.896-0.924-2.296c-0.44801-1.12-0.83068-1.8106-1.148-2.072-0.31735-0.27998-0.87735-0.42932-1.68-0.448v-0.532h7.476v0.532c-1.4374 0.01868-2.156 0.34535-2.156 0.98-2e-5 0.20535 0.25198 0.96135 0.756 2.268l3.696 9.548 3.5-9.492c0.29864-0.83998 0.44797-1.54 0.448-2.1-3e-5 -0.37332-0.14936-0.64398-0.448-0.812-0.28003-0.18665-0.77469-0.31732-1.484-0.392v-0.532h5.544"/>
      </g>
     </g>
    </g>
   </g>
   <path transform="matrix(.95106 .30902 -.30902 .95106 221.35 -57.164)" d="m378.97 186.03-11.25 167.34c-6.3067 3.8134-10.5 10.74-10.5 18.656h7.3125c0 0.0104-2e-5 0.0209 0 0.0312h-7.25c0 7.916 4.1933 14.843 10.5 18.656l11.25 167.34 11.25-167.31c1.5874-0.9514 3.0217-2.0963 4.3125-3.4062 1.9436-1.9683 3.5099-4.2838 4.5938-6.875 0.18015-0.43066 0.34727-0.86828 0.5-1.3125 0.61093-1.7769 0.99446-3.673 1.125-5.625 0.0326-0.488 0.0625-0.97241 0.0625-1.4688h-7.3438c2e-5 -0.0104 0-0.0208 0-0.0312h7.2812c0-3.4644-0.81216-6.75-2.25-9.6562-4e-3 -8e-3 4e-3 -0.0231 0-0.0312-1.656-3.3364-4.1386-6.154-7.1875-8.25-0.37988-0.26182-0.75939-0.51215-1.1562-0.75l-11.25-167.31z" fill="#babdb6" filter="url(#q)"/>
   <g transform="matrix(.95106 .30902 -.30902 .95106 221.35 -57.164)">
    <path d="m371.98 186.03-11.25 167.34c-6.3067 3.8134-10.5 10.74-10.5 18.656h43.594c0-7.9414-4.2441-14.882-10.594-18.688l-11.25-167.31z" fill="#c00" stroke="#a40000" stroke-linecap="round" stroke-linejoin="round" stroke-width="1.7134"/>
    <path d="m372.02 558.06-11.25-167.34c-6.3067-3.8134-10.5-10.74-10.5-18.656h43.594c0 7.9414-4.2441 14.882-10.594 18.688l-11.25 167.31z" fill="#3465a4" stroke="#204a87" stroke-linecap="round" stroke-linejoin="round" stroke-width="1.7134"/>
    <path d="m372.03 186.97v185.06h21.782c0-7.9414-4.2441-14.882-10.594-18.688l-11.188-166.38z" fill="url(#v)"/>
    <path d="m372.03 372.06v186l11.25-167.31c6.3497-3.8056 10.594-10.746 10.594-18.688h-21.844z" fill="url(#w)"/>
    <path d="m371.94 186.18 0.35355 171.3" fill="#f2f2f2" stroke="url(#x)" stroke-width="1.2239"/>
    <path d="m371.94 555.8 0.35355-169" fill="#f2f2f2" stroke="url(#y)" stroke-width="1.2239"/>
    <path d="m372.05 357.55c-8.0081 0-14.5 6.4919-14.5 14.5s6.4919 14.5 14.5 14.5 14.5-6.4919 14.5-14.5-6.4919-14.5-14.5-14.5zm0 2.125c6.8366 0 12.406 5.5384 12.406 12.375s-5.5697 12.406-12.406 12.406c-6.8366 0-12.375-5.5697-12.375-12.406 0-6.8366 5.5384-12.375 12.375-12.375z" fill="url(#z)"/>
    <ellipse transform="matrix(.83362 0 0 .51521 121.23 187.06)" cx="300.87" cy="359.06" rx="14.849" ry="24.027" fill="url(#aa)"/>
    <path d="m366.77 363.77c0.33036-0.21053 0.76579-0.11406 0.97632 0.21629l5.3028 7.4162 4.4828 7.9387c0.21053 0.33036 0.11408 0.7658-0.21628 0.97633s-0.7658 0.11407-0.97633-0.21628l-5.4146-7.3449-4.371-8.01c-0.21053-0.33035-0.11407-0.76579 0.21629-0.97633z" fill="url(#ab)"/>
    <path d="m380.32 366.77c0.21053 0.33036 0.11407 0.76579-0.21629 0.97633l-7.4874 5.1909-7.8675 4.5946c-0.33035 0.21053-0.76579 0.11408-0.97633-0.21628-0.21053-0.33036-0.11407-0.7658 0.21628-0.97633l7.3924-5.34 7.9625-4.4456c0.33035-0.21053 0.7658-0.11407 0.97633 0.21629z" fill="url(#ac)"/>
   </g>
  </g>
 </g>
</svg>
