<svg xmlns="http://www.w3.org/2000/svg" version="1.1" xmlns:xlink="http://www.w3.org/1999/xlink" xmlns:svgjs="http://svgjs.dev/svgjs" width="1440" height="560" preserveAspectRatio="none" viewBox="0 0 1440 560"><g mask="url(&quot;#SvgjsMask1006&quot;)" fill="none"><path d="M487.82 643.15C617.89 638.72 697.57 449.41 965.25 435.57 1232.92 421.73 1304.67 165.65 1442.67 155.57" stroke="rgba(94, 0, 255, 0.58)" stroke-width="2"></path><path d="M471.29 592.26C609.49 555.83 648.74 183.13 862.62 175.48 1076.49 167.83 1058.28 245.48 1253.94 245.48 1449.61 245.48 1545.89 175.75 1645.27 175.48" stroke="rgba(94, 0, 255, 0.58)" stroke-width="2"></path><path d="M524.77 621.9C691.03 589.84 763.76 170.88 1026.78 167.22 1289.8 163.56 1398.51 305.92 1528.79 307.22" stroke="rgba(94, 0, 255, 0.58)" stroke-width="2"></path><path d="M798.93 633.55C908.42 571.85 855.9 201.8 1053.54 200.06 1251.17 198.32 1423.2 424.43 1562.75 429.66" stroke="rgba(94, 0, 255, 0.58)" stroke-width="2"></path><path d="M923.63 583.49C1040.88 573.54 1085.97 356.29 1322.92 334.27 1559.88 312.25 1602.5 77.6 1722.22 65.47" stroke="rgba(94, 0, 255, 0.58)" stroke-width="2"></path></g><defs><mask id="SvgjsMask1006"><rect width="1440" height="560" fill="#ffffff"></rect></mask></defs></svg>