<svg xmlns:xlink="http://www.w3.org/1999/xlink" viewBox="13.05084745762712 60.587999999999994 182.71186440677965 175.82399999999998" style="max-height: 500px" xml:space="preserve" xmlns="http://www.w3.org/2000/svg" width="182.71186440677965" height="175.82399999999998">
 <defs>
  <style type="text/css">
   
    .fil2 {fill:#71625B}
    .fil0 {fill:#003399;fill-rule:nonzero}
    .fil1 {fill:#FFCC00;fill-rule:nonzero}
   
  </style>
 </defs>
 <g id="Warstwa_x0020_1">
  <metadata id="CorelCorpID_0Corel-Layer"/>
  <g id="_173795272">
   <g>
    <path d="M87.4668 70.1712c21.6446,-1.7904 39.1385,5.9181 53.4493,22.2489 14.0326,16.0134 32.1526,23.2337 53.4708,22.2577 -4.9468,11.8839 -9.8975,23.7771 -14.8405,35.6519 -4.943,11.8748 -9.8898,23.7587 -14.8289,35.6243 -21.6554,1.7859 -39.1528,-5.9391 -53.467,-22.267 -14.0331,-16.0073 -32.1457,-23.22 -53.4531,-22.2396 4.9391,-11.8656 9.8859,-23.7495 14.8289,-35.6243 4.943,-11.8748 9.8937,-23.7679 14.8405,-35.6519z" class="fil0" id="_173795944"/>
    <path d="M133.017 104.857c0.7699,0.3205 1.5397,0.6409 2.3241,0.9567 0.3023,1.4434 0.6116,2.9006 0.9245,4.3485 0.1719,-1.2568 0.34,-2.5045 0.5188,-3.7477 0.7737,0.3112 1.5657,0.6085 2.3808,0.8505 -0.7132,-0.9988 -1.3882,-2.0898 -2.0562,-3.167 0.1681,-1.2478 0.3361,-2.4954 0.515,-3.7386 -0.5906,0.575 -1.1774,1.1407 -1.7641,1.7065 -0.6711,-1.1002 -1.3422,-2.2002 -2.0256,-3.2408 0.3139,1.4159 0.6269,2.8639 0.94,4.3118 -0.5906,0.5749 -1.1812,1.1499 -1.7573,1.7201zm-2.8331 57.4661c-0.9109,-0.012 -1.8178,-0.033 -2.7141,-0.0498 -0.1367,1.142 -0.2626,2.2883 -0.3924,3.444 -0.428,-1.1718 -0.8338,-2.3667 -1.2281,-3.5893 -0.8801,-0.0856 -1.7603,-0.1711 -2.6106,-0.2982 0.6106,-0.6531 1.2319,-1.3018 1.8607,-1.9688 -0.3935,-1.2546 -0.7755,-2.5368 -1.1392,-3.8331 0.7447,0.8932 1.5039,1.7817 2.2938,2.5965 0.6289,-0.667 1.2577,-1.3341 1.8867,-2.0011 -0.1443,1.1603 -0.2779,2.3251 -0.4115,3.49 0.7982,0.7643 1.6264,1.487 2.4547,2.2098zm9.2549 -8.341c-0.1136,1.0867 -0.2166,2.1779 -0.3195,3.269 0.8979,0.525 1.8105,1.0453 2.7498,1.501 -0.999,0.1998 -1.9757,0.3765 -2.9448,0.5347 -0.1099,1.0775 -0.2089,2.1594 -0.3119,3.2507 -0.5009,-0.997 -0.9978,-2.003 -1.4803,-3.0139 -0.9644,0.117 -1.9096,0.1879 -2.8481,0.2725 0.6451,-0.7359 1.3046,-1.4765 1.9604,-2.208 -0.474,-1.0614 -0.9296,-2.1366 -1.3738,-3.2395 0.852,0.6354 1.7223,1.2569 2.5965,1.8691 0.6412,-0.7266 1.3084,-1.4857 1.9717,-2.2356zm10.0316 -24.0993c-0.1136,1.0867 -0.2204,2.1871 -0.3272,3.2874 0.9018,0.5158 1.8258,1.0085 2.7612,1.4735 -0.9951,0.1905 -1.9756,0.3764 -2.9486,0.5438 -0.1098,1.0775 -0.2089,2.1594 -0.308,3.2414 -0.5085,-0.9784 -1.0054,-1.9845 -1.4879,-2.9954 -0.9606,0.1078 -1.9212,0.2156 -2.8635,0.3094 0.6489,-0.7452 1.3123,-1.495 1.9681,-2.2265 -0.4779,-1.0521 -0.9335,-2.1274 -1.3853,-3.2119 0.852,0.6354 1.7262,1.2477 2.6118,1.8324 0.6489,-0.7451 1.3161,-1.5042 1.9794,-2.2541zm-8.3055 -15.1863c0.7638,0.8471 1.5499,1.6711 2.3474,2.4675 0.6289,-0.6671 1.2578,-1.3341 1.8905,-2.0103 -0.1366,1.1419 -0.2626,2.2883 -0.3923,3.444 0.8174,0.7182 1.6494,1.4317 2.493,2.1177 -0.9262,0.0248 -1.837,0.013 -2.7333,-0.0037 -0.1367,1.142 -0.2626,2.2883 -0.3885,3.4348 -0.4357,-1.1535 -0.8568,-2.3115 -1.2741,-3.4789 -0.884,-0.0763 -1.768,-0.1527 -2.6298,-0.2522 0.6145,-0.6623 1.2472,-1.3385 1.8722,-1.9963 -0.405,-1.2271 -0.8061,-2.4633 -1.1851,-3.7226zm5.5621 37.2972c-0.5352,-0.914 -1.0484,-1.8512 -1.5576,-2.7976 -0.9913,0.1814 -1.9748,0.3443 -2.9362,0.4842 0.6527,-0.7543 1.3237,-1.5226 1.9909,-2.2817 -0.4969,-1.0061 -0.9901,-2.0214 -1.4725,-3.0322 0.8971,0.557 1.8019,1.0957 2.7182,1.6067 0.6604,-0.7728 1.3314,-1.541 2.0102,-2.3278 -0.106,1.0683 -0.1975,2.132 -0.2928,3.2047 0.9325,0.4421 1.8871,0.8611 2.8532,1.2524 -1.0257,0.2642 -2.0362,0.4917 -3.0359,0.7235 -0.0983,1.0499 -0.1898,2.1135 -0.2775,3.1678zm-41.0373 -19.037c0.4441,1.1029 0.8798,2.2563 1.3154,3.4097 -0.6404,0.6946 -1.2808,1.3892 -1.9144,2.0975 0.904,-0.0017 1.7965,0.0242 2.7034,0.0453 0.3982,1.2133 0.807,2.4311 1.212,3.6582 0.1375,-1.174 0.2749,-2.3481 0.4192,-3.5084 0.8656,0.0903 1.742,0.185 2.5991,0.3258 -0.7707,-0.8608 -1.5567,-1.6848 -2.3436,-2.4767 0.1375,-1.174 0.2711,-2.3388 0.4047,-3.5036 -0.6366,0.6854 -1.277,1.38 -1.9029,2.07 -0.8243,-0.732 -1.6524,-1.4548 -2.4929,-2.1178zm-4.3896 -13.9559c0.5055,0.9556 1.0033,1.9297 1.5156,2.8989 -0.6711,0.7683 -1.3422,1.5366 -2.0026,2.3094 0.973,-0.1675 1.9489,-0.3121 2.9172,-0.4382 0.4786,1.02 0.9603,2.0629 1.4381,3.115 0.1105,-1.1095 0.2173,-2.21 0.3387,-3.315 0.9461,-0.103 1.873,-0.16 2.8144,-0.2217 -0.8626,-0.6399 -1.7329,-1.2613 -2.6117,-1.8324 0.1067,-1.1004 0.2136,-2.2007 0.3273,-3.2875 -0.6635,0.7499 -1.3307,1.509 -1.9796,2.2541 -0.9124,-0.5202 -1.8325,-1.0221 -2.7574,-1.4826zm14.7685 -24.8708c-0.6634,0.7499 -1.3307,1.509 -1.9872,2.2725 -0.9086,-0.5294 -1.8172,-1.0588 -2.7459,-1.5102 0.5093,0.9464 1.0071,1.9204 1.5117,2.9081 -0.671,0.7683 -1.3421,1.5366 -1.9987,2.3001 0.9692,-0.1582 1.9412,-0.2936 2.9096,-0.4197 0.4785,1.02 0.9526,2.0813 1.4227,3.1519 0.1144,-1.1188 0.225,-2.2284 0.3502,-3.3427 0.9346,-0.0754 1.8654,-0.1416 2.803,-0.1941 -0.8627,-0.6399 -1.733,-1.2614 -2.6003,-1.86 0.1144,-1.1188 0.2213,-2.2191 0.3349,-3.3059zm13.1643 3.5141c-0.7554,-0.8976 -1.5146,-1.7861 -2.2938,-2.5964 0.1375,-1.1739 0.2711,-2.3389 0.4124,-3.522 -0.6328,0.6762 -1.2617,1.3433 -1.8838,2.0239 -0.809,-0.7688 -1.6333,-1.5007 -2.4584,-2.2006 0.4326,1.1305 0.8645,2.2931 1.2963,3.4556 -0.6405,0.6948 -1.2809,1.3894 -1.9106,2.0885 0.8963,0.0166 1.7773,0.0702 2.6612,0.1465 0.3944,1.2226 0.7955,2.4588 1.189,3.7134 0.1452,-1.1924 0.2903,-2.3849 0.4307,-3.536 0.8579,0.1087 1.7113,0.2587 2.557,0.4271zm-26.499 13.0002c1.0035,-0.2412 1.988,-0.4362 2.9869,-0.636 0.5016,0.9648 1.01,1.9433 1.507,2.9494 0.1068,-1.1004 0.2098,-2.1916 0.3196,-3.2691 0.9653,-0.149 1.9335,-0.2751 2.9017,-0.4013 -0.9009,-0.5479 -1.8057,-1.0865 -2.722,-1.5975 0.103,-1.0912 0.2021,-2.1732 0.3042,-3.2322 -0.6748,0.7774 -1.3535,1.5641 -2.0177,2.3461 -0.9431,-0.4466 -1.8978,-0.8656 -2.8532,-1.2524 0.5399,0.8727 1.0714,1.7959 1.6066,2.71 -0.6786,0.7867 -1.3651,1.5918 -2.0331,2.383zm10.4997 41.7394c0.7699,0.3205 1.5503,0.6454 2.3348,0.9611 0.3061,1.4342 0.6085,2.8777 0.9138,4.344 0.1719,-1.2568 0.3438,-2.5137 0.5226,-3.7569 0.7737,0.3113 1.5542,0.6362 2.3501,0.9243 -0.694,-1.045 -1.3652,-2.1452 -2.0255,-3.2409 0.1719,-1.2568 0.3438,-2.5137 0.5189,-3.7477 -0.5868,0.5658 -1.1774,1.1408 -1.768,1.7157 -0.6749,-1.0909 -1.3536,-2.1726 -2.0562,-3.1671 0.333,1.3698 0.6575,2.7902 0.9706,4.2381 -0.5906,0.575 -1.1812,1.15 -1.7611,1.7294z" class="fil1" id="_173795968"/>
   </g>
   <path d="M18.8897 234.863l-3.2767 -1.3648 68.7938 -165.167c-0.2192,-0.5209 -0.2424,-1.1067 -0.0177,-1.6461 0.1596,-0.3833 0.4242,-0.6939 0.7517,-0.9176 0.0183,-0.172 0.0609,-0.3435 0.1302,-0.5096 0.1391,-0.3343 0.368,-0.6064 0.6513,-0.8047 0.0203,-0.1132 0.0529,-0.2256 0.0986,-0.3355 0.1589,-0.3816 0.4501,-0.6714 0.8072,-0.8467 0.0154,-0.1024 0.0432,-0.2047 0.0845,-0.3039 0.2968,-0.7121 1.1672,-1.0269 1.9442,-0.7035 0.7771,0.3238 1.1666,1.1636 0.8701,1.8756 -0.0413,0.0993 -0.0936,0.1911 -0.1554,0.2742 0.127,0.377 0.1257,0.7878 -0.0333,1.1696 -0.0457,0.1097 -0.1024,0.212 -0.1684,0.3059 0.0589,0.3409 0.0268,0.695 -0.1126,1.0293 -0.0692,0.1662 -0.1608,0.3171 -0.2699,0.4512 0.0719,0.3903 0.0379,0.7968 -0.1217,1.1801 -0.2248,0.5395 -0.6571,0.9358 -1.1818,1.1471l-68.7941 165.167z" class="fil2" id="_156954400"/>
  </g>
 </g>
</svg>