<?xml version="1.0" encoding="UTF-8"?>
<svg viewBox="0 0 109.74219 120.73828" xmlns="http://www.w3.org/2000/svg" xmlns:xlink="http://www.w3.org/1999/xlink">
 <defs>
  <linearGradient id="e">
   <stop stop-color="#fff" offset="0"/>
   <stop stop-color="#fcfc80" offset="1"/>
  </linearGradient>
  <linearGradient id="f">
   <stop stop-color="#fff" offset="0"/>
   <stop stop-color="#fff" stop-opacity="0" offset="1"/>
  </linearGradient>
  <linearGradient id="b" x2="0" y1="313.54" y2="396.15" gradientUnits="userSpaceOnUse">
   <stop stop-color="#a46800" offset="0"/>
   <stop stop-color="#e8d050" offset="1"/>
  </linearGradient>
  <linearGradient id="a" x2="0" y1="405.28" y2="253.23" gradientUnits="userSpaceOnUse">
   <stop stop-color="#b3b3b3" offset="0"/>
   <stop stop-color="#e6e6e6" offset="1"/>
  </linearGradient>
  <linearGradient id="n" x2="0" y1="184" y2="204.18" gradientUnits="userSpaceOnUse" xlink:href="#e"/>
  <linearGradient id="d" x2="0" y1="167.78" y2="183.86" gradientUnits="userSpaceOnUse" xlink:href="#f"/>
  <linearGradient id="h" x2="0" y1="187.78" y2="203.86" gradientUnits="userSpaceOnUse" xlink:href="#f"/>
  <linearGradient id="j" x2="0" y1="207.78" y2="223.86" gradientUnits="userSpaceOnUse" xlink:href="#f"/>
  <linearGradient id="l" x2="0" y1="227.78" y2="243.86" gradientUnits="userSpaceOnUse" xlink:href="#f"/>
  <linearGradient id="m" x2="0" y1="247.78" y2="263.86" gradientUnits="userSpaceOnUse" xlink:href="#f"/>
  <linearGradient id="k" x2="0" y1="204" y2="224.18" gradientUnits="userSpaceOnUse" xlink:href="#e"/>
  <linearGradient id="i" x2="0" y1="224" y2="244.18" gradientUnits="userSpaceOnUse" xlink:href="#e"/>
  <linearGradient id="g" x2="0" y1="244" y2="264.18" gradientUnits="userSpaceOnUse" xlink:href="#e"/>
  <linearGradient id="c" x2="0" y1="264" y2="284.18" gradientUnits="userSpaceOnUse" xlink:href="#e"/>
 </defs>
 <g transform="translate(-321.27 -166.79)" fill-rule="evenodd">
  <path transform="matrix(.125 0 0 .125 323.44 156.29)" d="m121.59 405.29-51.329-26.415-50.859 27.309 9.2602-56.98-41.689-39.931 57.052-8.8007 25.094-51.988 26 51.54 57.198 7.8008-40.983 40.654z" fill="url(#b)" stroke="#945800" stroke-width="4"/>
  <path transform="matrix(.125 0 0 .125 323.44 136.29)" d="m121.59 405.29-51.329-26.415-50.859 27.309 9.2602-56.98-41.689-39.931 57.052-8.8007 25.094-51.988 26 51.54 57.198 7.8008-40.983 40.654z" fill="url(#a)" stroke="#666" stroke-width="4"/>
  <path d="m332.07 167.36-3.125 6.5-7.1406 1.0938 4.6406 4.4375c3.6057-1.9156 10.069-3.1284 14.547-3.1406l1.4844-1.4688-7.1562-0.98437-3.25-6.4375z" fill="url(#d)"/>
  <path d="m332.07 187.36-3.125 6.5-7.1406 1.0938 4.6406 4.4375c3.6057-1.9156 10.069-3.1284 14.547-3.1406l1.4844-1.4688-7.1562-0.98437-3.25-6.4375z" fill="url(#n)" opacity=".6"/>
  <path transform="matrix(.125 0 0 .125 345.44 136.29)" d="m121.59 405.29-51.329-26.415-50.859 27.309 9.2602-56.98-41.689-39.931 57.052-8.8007 25.094-51.988 26 51.54 57.198 7.8008-40.983 40.654z" fill="url(#a)" stroke="#666" stroke-width="4"/>
  <path d="m354.07 167.36-3.125 6.5-7.1406 1.0938 4.6406 4.4375c3.6057-1.9156 10.069-3.1284 14.547-3.1406l1.4844-1.4688-7.1562-0.98437-3.25-6.4375z" fill="url(#d)"/>
  <path transform="matrix(.125 0 0 .125 367.44 136.29)" d="m121.59 405.29-51.329-26.415-50.859 27.309 9.2602-56.98-41.689-39.931 57.052-8.8007 25.094-51.988 26 51.54 57.198 7.8008-40.983 40.654z" fill="url(#a)" stroke="#666" stroke-width="4"/>
  <path d="m376.07 167.36-3.125 6.5-7.1406 1.0938 4.6406 4.4375c3.6057-1.9156 10.069-3.1284 14.547-3.1406l1.4844-1.4688-7.1562-0.98437-3.25-6.4375z" fill="url(#d)"/>
  <path transform="matrix(.125 0 0 .125 389.44 136.29)" d="m121.59 405.29-51.329-26.415-50.859 27.309 9.2602-56.98-41.689-39.931 57.052-8.8007 25.094-51.988 26 51.54 57.198 7.8008-40.983 40.654z" fill="url(#a)" stroke="#666" stroke-width="4"/>
  <path d="m398.07 167.36-3.125 6.5-7.1406 1.0938 4.6406 4.4375c3.6057-1.9156 10.069-3.1284 14.547-3.1406l1.4844-1.4688-7.1562-0.98437-3.25-6.4375z" fill="url(#d)"/>
  <path transform="matrix(.125 0 0 .125 411.44 136.29)" d="m121.59 405.29-51.329-26.415-50.859 27.309 9.2602-56.98-41.689-39.931 57.052-8.8007 25.094-51.988 26 51.54 57.198 7.8008-40.983 40.654z" fill="url(#a)" stroke="#666" stroke-width="4"/>
  <path d="m420.07 167.36-3.125 6.5-7.1406 1.0938 4.6406 4.4375c3.6057-1.9156 10.069-3.1284 14.547-3.1406l1.4844-1.4688-7.1562-0.98437-3.25-6.4375z" fill="url(#d)"/>
  <path transform="matrix(.125 0 0 .125 345.44 156.29)" d="m121.59 405.29-51.329-26.415-50.859 27.309 9.2602-56.98-41.689-39.931 57.052-8.8007 25.094-51.988 26 51.54 57.198 7.8008-40.983 40.654z" fill="url(#a)" stroke="#666" stroke-width="4"/>
  <path d="m354.07 187.36-3.125 6.5-7.1406 1.0938 4.6406 4.4375c3.6057-1.9156 10.069-3.1284 14.547-3.1406l1.4844-1.4688-7.1562-0.98437-3.25-6.4375z" fill="url(#h)"/>
  <path transform="matrix(.125 0 0 .125 367.44 156.29)" d="m121.59 405.29-51.329-26.415-50.859 27.309 9.2602-56.98-41.689-39.931 57.052-8.8007 25.094-51.988 26 51.54 57.198 7.8008-40.983 40.654z" fill="url(#a)" stroke="#666" stroke-width="4"/>
  <path d="m376.07 187.36-3.125 6.5-7.1406 1.0938 4.6406 4.4375c3.6057-1.9156 10.069-3.1284 14.547-3.1406l1.4844-1.4688-7.1562-0.98437-3.25-6.4375z" fill="url(#h)"/>
  <path transform="matrix(.125 0 0 .125 389.44 156.29)" d="m121.59 405.29-51.329-26.415-50.859 27.309 9.2602-56.98-41.689-39.931 57.052-8.8007 25.094-51.988 26 51.54 57.198 7.8008-40.983 40.654z" fill="url(#a)" stroke="#666" stroke-width="4"/>
  <path d="m398.07 187.36-3.125 6.5-7.1406 1.0938 4.6406 4.4375c3.6057-1.9156 10.069-3.1284 14.547-3.1406l1.4844-1.4688-7.1562-0.98437-3.25-6.4375z" fill="url(#h)"/>
  <path transform="matrix(.125 0 0 .125 411.44 156.29)" d="m121.59 405.29-51.329-26.415-50.859 27.309 9.2602-56.98-41.689-39.931 57.052-8.8007 25.094-51.988 26 51.54 57.198 7.8008-40.983 40.654z" fill="url(#a)" stroke="#666" stroke-width="4"/>
  <path d="m420.07 187.36-3.125 6.5-7.1406 1.0938 4.6406 4.4375c3.6057-1.9156 10.069-3.1284 14.547-3.1406l1.4844-1.4688-7.1562-0.98437-3.25-6.4375z" fill="url(#h)"/>
  <path transform="matrix(.125 0 0 .125 367.44 176.29)" d="m121.59 405.29-51.329-26.415-50.859 27.309 9.2602-56.98-41.689-39.931 57.052-8.8007 25.094-51.988 26 51.54 57.198 7.8008-40.983 40.654z" fill="url(#a)" stroke="#666" stroke-width="4"/>
  <path d="m376.07 207.36-3.125 6.5-7.1406 1.0938 4.6406 4.4375c3.6057-1.9156 10.069-3.1284 14.547-3.1406l1.4844-1.4688-7.1562-0.98437-3.25-6.4375z" fill="url(#j)"/>
  <path transform="matrix(.125 0 0 .125 389.44 176.29)" d="m121.59 405.29-51.329-26.415-50.859 27.309 9.2602-56.98-41.689-39.931 57.052-8.8007 25.094-51.988 26 51.54 57.198 7.8008-40.983 40.654z" fill="url(#a)" stroke="#666" stroke-width="4"/>
  <path d="m398.07 207.36-3.125 6.5-7.1406 1.0938 4.6406 4.4375c3.6057-1.9156 10.069-3.1284 14.547-3.1406l1.4844-1.4688-7.1562-0.98437-3.25-6.4375z" fill="url(#j)"/>
  <path transform="matrix(.125 0 0 .125 411.44 176.29)" d="m121.59 405.29-51.329-26.415-50.859 27.309 9.2602-56.98-41.689-39.931 57.052-8.8007 25.094-51.988 26 51.54 57.198 7.8008-40.983 40.654z" fill="url(#a)" stroke="#666" stroke-width="4"/>
  <path d="m420.07 207.36-3.125 6.5-7.1406 1.0938 4.6406 4.4375c3.6057-1.9156 10.069-3.1284 14.547-3.1406l1.4844-1.4688-7.1562-0.98437-3.25-6.4375z" fill="url(#j)"/>
  <path transform="matrix(.125 0 0 .125 389.44 196.29)" d="m121.59 405.29-51.329-26.415-50.859 27.309 9.2602-56.98-41.689-39.931 57.052-8.8007 25.094-51.988 26 51.54 57.198 7.8008-40.983 40.654z" fill="url(#a)" stroke="#666" stroke-width="4"/>
  <path d="m398.07 227.36-3.125 6.5-7.1406 1.0938 4.6406 4.4375c3.6057-1.9156 10.069-3.1284 14.547-3.1406l1.4844-1.4688-7.1562-0.98437-3.25-6.4375z" fill="url(#l)"/>
  <path transform="matrix(.125 0 0 .125 411.44 196.29)" d="m121.59 405.29-51.329-26.415-50.859 27.309 9.2602-56.98-41.689-39.931 57.052-8.8007 25.094-51.988 26 51.54 57.198 7.8008-40.983 40.654z" fill="url(#a)" stroke="#666" stroke-width="4"/>
  <path d="m420.07 227.36-3.125 6.5-7.1406 1.0938 4.6406 4.4375c3.6057-1.9156 10.069-3.1284 14.547-3.1406l1.4844-1.4688-7.1562-0.98437-3.25-6.4375z" fill="url(#l)"/>
  <path transform="matrix(.125 0 0 .125 411.44 216.29)" d="m121.59 405.29-51.329-26.415-50.859 27.309 9.2602-56.98-41.689-39.931 57.052-8.8007 25.094-51.988 26 51.54 57.198 7.8008-40.983 40.654z" fill="url(#a)" stroke="#666" stroke-width="4"/>
  <path d="m420.07 247.36-3.125 6.5-7.1406 1.0938 4.6406 4.4375c3.6057-1.9156 10.069-3.1284 14.547-3.1406l1.4844-1.4688-7.1562-0.98437-3.25-6.4375z" fill="url(#m)"/>
  <path transform="matrix(.125 0 0 .125 323.44 176.29)" d="m121.59 405.29-51.329-26.415-50.859 27.309 9.2602-56.98-41.689-39.931 57.052-8.8007 25.094-51.988 26 51.54 57.198 7.8008-40.983 40.654z" fill="url(#b)" stroke="#945800" stroke-width="4"/>
  <path d="m332.07 207.36-3.125 6.5-7.1406 1.0938 4.6406 4.4375c3.6057-1.9156 10.069-3.1284 14.547-3.1406l1.4844-1.4688-7.1562-0.98437-3.25-6.4375z" fill="url(#k)" opacity=".6"/>
  <path transform="matrix(.125 0 0 .125 345.44 176.29)" d="m121.59 405.29-51.329-26.415-50.859 27.309 9.2602-56.98-41.689-39.931 57.052-8.8007 25.094-51.988 26 51.54 57.198 7.8008-40.983 40.654z" fill="url(#b)" stroke="#945800" stroke-width="4"/>
  <path d="m354.07 207.36-3.125 6.5-7.1406 1.0938 4.6406 4.4375c3.6057-1.9156 10.069-3.1284 14.547-3.1406l1.4844-1.4688-7.1562-0.98437-3.25-6.4375z" fill="url(#k)" opacity=".6"/>
  <path transform="matrix(.125 0 0 .125 323.44 196.29)" d="m121.59 405.29-51.329-26.415-50.859 27.309 9.2602-56.98-41.689-39.931 57.052-8.8007 25.094-51.988 26 51.54 57.198 7.8008-40.983 40.654z" fill="url(#b)" stroke="#945800" stroke-width="4"/>
  <path d="m332.07 227.36-3.125 6.5-7.1406 1.0938 4.6406 4.4375c3.6057-1.9156 10.069-3.1284 14.547-3.1406l1.4844-1.4688-7.1562-0.98437-3.25-6.4375z" fill="url(#i)" opacity=".6"/>
  <path transform="matrix(.125 0 0 .125 345.44 196.29)" d="m121.59 405.29-51.329-26.415-50.859 27.309 9.2602-56.98-41.689-39.931 57.052-8.8007 25.094-51.988 26 51.54 57.198 7.8008-40.983 40.654z" fill="url(#b)" stroke="#945800" stroke-width="4"/>
  <path d="m354.07 227.36-3.125 6.5-7.1406 1.0938 4.6406 4.4375c3.6057-1.9156 10.069-3.1284 14.547-3.1406l1.4844-1.4688-7.1562-0.98437-3.25-6.4375z" fill="url(#i)" opacity=".6"/>
  <path transform="matrix(.125 0 0 .125 323.44 216.29)" d="m121.59 405.29-51.329-26.415-50.859 27.309 9.2602-56.98-41.689-39.931 57.052-8.8007 25.094-51.988 26 51.54 57.198 7.8008-40.983 40.654z" fill="url(#b)" stroke="#945800" stroke-width="4"/>
  <path d="m332.07 247.36-3.125 6.5-7.1406 1.0938 4.6406 4.4375c3.6057-1.9156 10.069-3.1284 14.547-3.1406l1.4844-1.4688-7.1562-0.98437-3.25-6.4375z" fill="url(#g)" opacity=".6"/>
  <path transform="matrix(.125 0 0 .125 345.44 216.29)" d="m121.59 405.29-51.329-26.415-50.859 27.309 9.2602-56.98-41.689-39.931 57.052-8.8007 25.094-51.988 26 51.54 57.198 7.8008-40.983 40.654z" fill="url(#b)" stroke="#945800" stroke-width="4"/>
  <path d="m354.07 247.36-3.125 6.5-7.1406 1.0938 4.6406 4.4375c3.6057-1.9156 10.069-3.1284 14.547-3.1406l1.4844-1.4688-7.1562-0.98437-3.25-6.4375z" fill="url(#g)" opacity=".6"/>
  <path transform="matrix(.125 0 0 .125 367.44 216.29)" d="m121.59 405.29-51.329-26.415-50.859 27.309 9.2602-56.98-41.689-39.931 57.052-8.8007 25.094-51.988 26 51.54 57.198 7.8008-40.983 40.654z" fill="url(#b)" stroke="#945800" stroke-width="4"/>
  <path d="m376.07 247.36-3.125 6.5-7.1406 1.0938 4.6406 4.4375c3.6057-1.9156 10.069-3.1284 14.547-3.1406l1.4844-1.4688-7.1562-0.98437-3.25-6.4375z" fill="url(#g)" opacity=".6"/>
  <path transform="matrix(.125 0 0 .125 389.44 216.29)" d="m121.59 405.29-51.329-26.415-50.859 27.309 9.2602-56.98-41.689-39.931 57.052-8.8007 25.094-51.988 26 51.54 57.198 7.8008-40.983 40.654z" fill="url(#b)" stroke="#945800" stroke-width="4"/>
  <path d="m398.07 247.36-3.125 6.5-7.1406 1.0938 4.6406 4.4375c3.6057-1.9156 10.069-3.1284 14.547-3.1406l1.4844-1.4688-7.1562-0.98437-3.25-6.4375z" fill="url(#g)" opacity=".6"/>
  <path transform="matrix(.125 0 0 .125 367.44 196.29)" d="m121.59 405.29-51.329-26.415-50.859 27.309 9.2602-56.98-41.689-39.931 57.052-8.8007 25.094-51.988 26 51.54 57.198 7.8008-40.983 40.654z" fill="url(#b)" stroke="#945800" stroke-width="4"/>
  <path d="m376.07 227.36-3.125 6.5-7.1406 1.0938 4.6406 4.4375c3.6057-1.9156 10.069-3.1284 14.547-3.1406l1.4844-1.4688-7.1562-0.98437-3.25-6.4375z" fill="url(#i)" opacity=".6"/>
  <path transform="matrix(.125 0 0 .125 323.44 236.29)" d="m121.59 405.29-51.329-26.415-50.859 27.309 9.2602-56.98-41.689-39.931 57.052-8.8007 25.094-51.988 26 51.54 57.198 7.8008-40.983 40.654z" fill="url(#b)" stroke="#945800" stroke-width="4"/>
  <path d="m332.07 267.36-3.125 6.5-7.1406 1.0938 4.6406 4.4375c3.6057-1.9156 10.069-3.1284 14.547-3.1406l1.4844-1.4688-7.1562-0.98437-3.25-6.4375z" fill="url(#c)" opacity=".6"/>
  <path transform="matrix(.125 0 0 .125 345.44 236.29)" d="m121.59 405.29-51.329-26.415-50.859 27.309 9.2602-56.98-41.689-39.931 57.052-8.8007 25.094-51.988 26 51.54 57.198 7.8008-40.983 40.654z" fill="url(#b)" stroke="#945800" stroke-width="4"/>
  <path d="m354.07 267.36-3.125 6.5-7.1406 1.0938 4.6406 4.4375c3.6057-1.9156 10.069-3.1284 14.547-3.1406l1.4844-1.4688-7.1562-0.98437-3.25-6.4375z" fill="url(#c)" opacity=".6"/>
  <path transform="matrix(.125 0 0 .125 367.44 236.29)" d="m121.59 405.29-51.329-26.415-50.859 27.309 9.2602-56.98-41.689-39.931 57.052-8.8007 25.094-51.988 26 51.54 57.198 7.8008-40.983 40.654z" fill="url(#b)" stroke="#945800" stroke-width="4"/>
  <path d="m376.07 267.36-3.125 6.5-7.1406 1.0938 4.6406 4.4375c3.6057-1.9156 10.069-3.1284 14.547-3.1406l1.4844-1.4688-7.1562-0.98437-3.25-6.4375z" fill="url(#c)" opacity=".6"/>
  <path transform="matrix(.125 0 0 .125 389.44 236.29)" d="m121.59 405.29-51.329-26.415-50.859 27.309 9.2602-56.98-41.689-39.931 57.052-8.8007 25.094-51.988 26 51.54 57.198 7.8008-40.983 40.654z" fill="url(#b)" stroke="#945800" stroke-width="4"/>
  <path d="m398.07 267.36-3.125 6.5-7.1406 1.0938 4.6406 4.4375c3.6057-1.9156 10.069-3.1284 14.547-3.1406l1.4844-1.4688-7.1562-0.98437-3.25-6.4375z" fill="url(#c)" opacity=".6"/>
  <path transform="matrix(.125 0 0 .125 411.44 236.29)" d="m121.59 405.29-51.329-26.415-50.859 27.309 9.2602-56.98-41.689-39.931 57.052-8.8007 25.094-51.988 26 51.54 57.198 7.8008-40.983 40.654z" fill="url(#b)" stroke="#945800" stroke-width="4"/>
  <path d="m420.07 267.36-3.125 6.5-7.1406 1.0938 4.6406 4.4375c3.6057-1.9156 10.069-3.1284 14.547-3.1406l1.4844-1.4688-7.1562-0.98437-3.25-6.4375z" fill="url(#c)" opacity=".6"/>
 </g>
</svg>
