<?xml version="1.0" encoding="UTF-8"?>
<svg viewBox="0 0 308.42752 234.61765" xmlns="http://www.w3.org/2000/svg" xmlns:xlink="http://www.w3.org/1999/xlink">
 <defs>
  <filter id="j">
   <feGaussianBlur stdDeviation="1.01729"/>
  </filter>
  <filter id="k">
   <feGaussianBlur stdDeviation="1.02081"/>
  </filter>
  <filter id="m" x="-.01287" y="-.17679" width="1.0258" height="1.3536">
   <feGaussianBlur stdDeviation=".73981"/>
  </filter>
  <filter id="l" x="-.11909" y="-.0212" width="1.2382" height="1.0424">
   <feGaussianBlur stdDeviation=".81591"/>
  </filter>
  <linearGradient id="e" x1="-350.51" x2="-490.15" y1="-66.063" y2="-15.945" gradientUnits="userSpaceOnUse">
   <stop stop-color="#d8d8d8" offset="0"/>
   <stop stop-color="#f0f0f0" offset=".22455"/>
   <stop stop-color="#fff" offset=".46812"/>
   <stop stop-color="#f3f3f3" offset=".76308"/>
   <stop stop-color="#d6d6d6" offset="1"/>
  </linearGradient>
  <linearGradient id="ad" x1="-553.84" x2="-321.64" y1="20.977" y2="-106.24" gradientUnits="userSpaceOnUse">
   <stop stop-color="#288a29" offset="0"/>
   <stop stop-color="#00e91a" offset="1"/>
  </linearGradient>
  <linearGradient id="ae" x1="664.32" x2="255.14" y1="393.51" y2="778.66" gradientTransform="matrix(.31458 .0331 -.031703 .28489 -530.57 -223.1)" gradientUnits="userSpaceOnUse">
   <stop stop-color="#019300" stop-opacity=".8" offset="0"/>
   <stop stop-color="#7dff85" stop-opacity=".71765" offset="1"/>
  </linearGradient>
  <linearGradient id="af" x1="-502.89" x2="-433.84" y1="-122.77" y2="3.8131" gradientUnits="userSpaceOnUse">
   <stop stop-color="#288a2a" offset="0"/>
   <stop stop-color="#00e910" offset="1"/>
  </linearGradient>
  <linearGradient id="ag" x1="218.06" x2="274.43" y1="352.41" y2="77.316" gradientTransform="matrix(.30595 -.029586 .042229 .31115 -530.13 -128.34)" gradientUnits="userSpaceOnUse">
   <stop stop-color="#2cc84e" offset="0"/>
   <stop stop-color="#c2ffc8" offset="1"/>
  </linearGradient>
  <linearGradient id="z" x1="-553.84" x2="-321.64" y1="20.977" y2="-106.24" gradientUnits="userSpaceOnUse">
   <stop stop-color="#8a6b28" offset="0"/>
   <stop stop-color="#e99400" offset="1"/>
  </linearGradient>
  <linearGradient id="aa" x1="664.32" x2="255.14" y1="393.51" y2="778.66" gradientTransform="matrix(.31458 .0331 -.031703 .28489 -530.57 -223.1)" gradientUnits="userSpaceOnUse">
   <stop stop-color="#936200" stop-opacity=".8" offset="0"/>
   <stop stop-color="#ffce7d" stop-opacity=".71765" offset="1"/>
  </linearGradient>
  <linearGradient id="ab" x1="-502.89" x2="-433.84" y1="-122.77" y2="3.8131" gradientUnits="userSpaceOnUse">
   <stop stop-color="#8a6b28" offset="0"/>
   <stop stop-color="#e99500" offset="1"/>
  </linearGradient>
  <linearGradient id="ac" x1="218.06" x2="274.43" y1="352.41" y2="77.316" gradientTransform="matrix(.30595 -.029586 .042229 .31115 -530.13 -128.34)" gradientUnits="userSpaceOnUse">
   <stop stop-color="#ffcd55" offset="0"/>
   <stop stop-color="#ffebc2" offset="1"/>
  </linearGradient>
  <linearGradient id="v" x1="664.32" x2="255.14" y1="393.51" y2="778.66" gradientTransform="matrix(.31458 .0331 -.031703 .28489 -530.57 -223.1)" gradientUnits="userSpaceOnUse">
   <stop stop-color="#003a93" stop-opacity=".79866" offset="0"/>
   <stop stop-color="#7db1ff" stop-opacity=".71812" offset="1"/>
  </linearGradient>
  <linearGradient id="p">
   <stop stop-color="#283f8a" offset="0"/>
   <stop stop-color="#0089e9" offset="1"/>
  </linearGradient>
  <linearGradient id="x" x1="218.06" x2="274.43" y1="352.41" y2="77.316" gradientTransform="matrix(.30595 -.029586 .042229 .31115 -530.13 -128.34)" gradientUnits="userSpaceOnUse">
   <stop stop-color="#59f" offset="0"/>
   <stop stop-color="#c2dbff" offset="1"/>
  </linearGradient>
  <linearGradient id="a">
   <stop stop-color="#fff" offset="0"/>
   <stop stop-color="#fff" stop-opacity="0" offset="1"/>
  </linearGradient>
  <linearGradient id="n">
   <stop offset="0"/>
   <stop stop-opacity="0" offset="1"/>
  </linearGradient>
  <linearGradient id="q" x1="-553.84" x2="-321.64" y1="20.977" y2="-106.24" gradientUnits="userSpaceOnUse">
   <stop stop-color="#8a2883" offset="0"/>
   <stop stop-color="#e900de" offset="1"/>
  </linearGradient>
  <linearGradient id="r" x1="664.32" x2="255.14" y1="393.51" y2="778.66" gradientTransform="matrix(.31458 .0331 -.031703 .28489 -530.57 -223.1)" gradientUnits="userSpaceOnUse">
   <stop stop-color="#930085" stop-opacity=".8" offset="0"/>
   <stop stop-color="#ff7df9" stop-opacity=".71765" offset="1"/>
  </linearGradient>
  <linearGradient id="s" x1="-502.89" x2="-433.84" y1="-122.77" y2="3.8131" gradientUnits="userSpaceOnUse">
   <stop stop-color="#8a2884" offset="0"/>
   <stop stop-color="#e900df" offset="1"/>
  </linearGradient>
  <linearGradient id="t" x1="218.06" x2="274.43" y1="352.41" y2="77.316" gradientTransform="matrix(.30595 -.029586 .042229 .31115 -530.13 -128.34)" gradientUnits="userSpaceOnUse">
   <stop stop-color="#c82cbd" offset="0"/>
   <stop stop-color="#ffc2fa" offset="1"/>
  </linearGradient>
  <linearGradient id="b" x1="-467.75" x2="-434.4" y1="-107.29" y2="-22.899" gradientUnits="userSpaceOnUse" xlink:href="#a"/>
  <linearGradient id="c" x1="-473.62" x2="-398.92" y1="53.068" y2="-84.863" gradientUnits="userSpaceOnUse" xlink:href="#n"/>
  <linearGradient id="o" x1="-399.03" x2="-395.47" y1="-93.498" y2="-59.365" gradientUnits="userSpaceOnUse" xlink:href="#a"/>
  <linearGradient id="d" x1="-624.49" x2="-421.88" y1="158.38" y2="-60.505" gradientUnits="userSpaceOnUse" xlink:href="#n"/>
  <linearGradient id="f" x1="-450.34" x2="-502.24" y1="-141.59" y2="-184.51" gradientUnits="userSpaceOnUse" xlink:href="#a"/>
  <linearGradient id="g" x1="-426.92" x2="-498.89" y1="-124.93" y2="-68.811" gradientUnits="userSpaceOnUse" xlink:href="#a"/>
  <linearGradient id="h" x1="-480.9" x2="-517.49" y1="47.299" y2="-218.05" gradientUnits="userSpaceOnUse" xlink:href="#n"/>
  <linearGradient id="i" x1="79.246" x2="140.07" y1="-126.4" y2="166.59" gradientTransform="matrix(1 0 0 .66342 -549.1 -146.13)" gradientUnits="userSpaceOnUse" xlink:href="#a"/>
  <linearGradient id="y" x1="-401.03" x2="-395.47" y1="-93.498" y2="-62.365" gradientUnits="userSpaceOnUse" xlink:href="#a"/>
  <linearGradient id="u" x1="-553.84" x2="-321.64" y1="20.977" y2="-106.24" gradientUnits="userSpaceOnUse" xlink:href="#p"/>
  <linearGradient id="w" x1="-502.89" x2="-433.84" y1="-122.77" y2="3.8131" gradientUnits="userSpaceOnUse" xlink:href="#p"/>
 </defs>
 <g transform="matrix(.8611 0 0 .8611 451.15 353.1)">
  <g transform="matrix(.76627 0 0 1 -124.26 -271.81)">
   <path d="m-506.24-108.72 42.281-4.0888c2.8887-0.26972 4.2508 0.75289 4.6977 3.3352l0.74041 5.1659 85.666-8.2843c1.4772-0.14285 2.8305 0.95159 3.0344 2.4539l10.673 78.641c0.20389 1.5023-0.82117 2.8268-2.2983 2.9696l-132.18 12.782c-1.4772 0.14285-2.8305-0.9516-3.0344-2.4539l-11.882-87.551c-0.2039-1.5023 0.82116-2.8268 2.2983-2.9696z" fill="url(#ag)" stroke="url(#af)" stroke-width="1.5"/>
   <path d="m-462.98-112.48c-0.31457-0.00477-0.63891-0.00164-1 0.02073l-42.281 2.7159c-1.4772 0.09477-2.5164 0.97286-2.3125 1.9695l7.5846 38.83c10.618-6.4657 25.434-17.117 46.54-19.01 41.255-3.6616 62.901-10.743 84.702-15.203l-0.10822-7.5195c-0.20388-0.99667-1.5541-1.7326-3.0312-1.6378l-85.656 5.4939-0.75-3.4208c-0.39105-1.499-1.4855-2.2056-3.6875-2.239z" fill="url(#i)" opacity=".32114"/>
   <path d="m-492.36-17.091c-1.4788 0.13958-2.8336-0.92985-3.0378-2.3978l-11.895-85.55c-0.20413-1.468 0.82206-2.7622 2.3009-2.9017" fill="none" filter="url(#l)" stroke="url(#h)" stroke-width="1.4836"/>
   <path d="m-507.13-107.5 42.281-4.0888c2.8887-0.26971 4.2508 0.7529 4.6977 3.3352l0.74041 5.1659 85.666-8.2843c1.4772-0.14285 2.8305 0.9516 3.0344 2.4539" fill="none" filter="url(#m)" stroke="url(#g)" stroke-width="1.5"/>
   <path transform="matrix(.99454,-.10431,.10431,.99454,0,0)" d="m-489.59-157.33h38.989a1.3321 1.3321 0 0 1 1.3321 1.3321v4.1151a1.3321 1.3321 0 0 1 -1.3321 1.3321h-38.989a1.3321 1.3321 0 0 1 -1.3321 -1.3321v-4.1151a1.3321 1.3321 0 0 1 1.3321 -1.3321" fill="url(#f)" opacity=".85772"/>
   <path d="m-477.4-80.856 134.94-13.38c1.4929-0.14724 2.2386 0.68894 1.6719 1.8748l-15.738 61.762c-0.56669 1.1859-2.2247 2.2592-3.7176 2.4064l-133.58 13.175c-1.4929 0.14724-2.2386-0.68895-1.6719-1.8749l14.379-61.556c0.56668-1.1859 2.2248-2.2592 3.7176-2.4064z" fill="url(#ae)" stroke="url(#ad)" stroke-width="1.5"/>
   <path d="m-350.51-56.712c-44.059 4.4534-101.95 10.275-137.28 13.688l-5.9062 25.219c-0.55749 1.1667 0.18756 1.9886 1.6562 1.8438l131.41-12.969c1.4687-0.14485 3.0988-1.2083 3.6562-2.375l6.4688-25.406z" fill="url(#e)" opacity=".80488"/>
   <path d="m-476.72-80.098 132.75-13.163c1.4687-0.14486 2.2022 0.67777 1.6448 1.8444l-15.483 60.76c-0.55751 1.1667-2.1887 2.2225-3.6574 2.3674l-131.42 12.962c-1.4687 0.14485-2.2022-0.67778-1.6448-1.8445l14.145-60.558c0.5575-1.1667 2.1887-2.2225 3.6574-2.3674z" fill="url(#d)" opacity=".82114"/>
   <path d="m-343.13-93.482-132.75 13.156c-1.4687 0.14485-3.0988 1.2083-3.6562 2.375l-8.0938 34.625c17.474-8.0151 37.188-14.445 54.188-16.312 38.013-4.1764 64.403-6.5357 89.875-23.875l2.0625-8.125c0.55747-1.1667-0.15633-1.9886-1.625-1.8438z" fill="url(#o)" opacity=".51626"/>
   <path d="m-357.25-31.25c-0.55985 1.1479-2.1979 2.1868-3.6727 2.3294l-131.97 12.753c-1.4749 0.14253-2.2115-0.66689-1.6517-1.8148l14.205-59.585c0.55984-1.1479 2.1979-2.1868 3.6728-2.3294" fill="none" filter="url(#k)" stroke="url(#c)" stroke-width="1.4668"/>
   <path d="m-478.57-79.88 134.94-13.38c1.4929-0.14724 2.2386 0.68894 1.6719 1.8748l-15.738 61.762" fill="none" filter="url(#j)" stroke="url(#b)" stroke-width="1.5"/>
  </g>
 </g>
 <g transform="matrix(.8611 0 0 .8611 664.5 382.65)">
  <g transform="matrix(.76602 0 0 1 -302.28 -265.52)">
   <path d="m-506.24-108.72 42.281-4.0888c2.8887-0.26972 4.2508 0.75289 4.6977 3.3352l0.74041 5.1659 85.666-8.2843c1.4772-0.14285 2.8305 0.95159 3.0344 2.4539l10.673 78.641c0.20389 1.5023-0.82117 2.8268-2.2983 2.9696l-132.18 12.782c-1.4772 0.14285-2.8305-0.9516-3.0344-2.4539l-11.882-87.551c-0.2039-1.5023 0.82116-2.8268 2.2983-2.9696z" fill="url(#ac)" stroke="url(#ab)" stroke-width="1.5"/>
   <path d="m-462.98-112.48c-0.31457-0.00477-0.63891-0.00164-1 0.02073l-42.281 2.7159c-1.4772 0.09477-2.5164 0.97286-2.3125 1.9695l7.5846 38.83c10.618-6.4657 25.434-17.117 46.54-19.01 41.255-3.6616 62.901-10.743 84.702-15.203l-0.10822-7.5195c-0.20388-0.99667-1.5541-1.7326-3.0312-1.6378l-85.656 5.4939-0.75-3.4208c-0.39105-1.499-1.4855-2.2056-3.6875-2.239z" fill="url(#i)" opacity=".32114"/>
   <path d="m-492.36-17.091c-1.4788 0.13958-2.8336-0.92985-3.0378-2.3978l-11.895-85.55c-0.20413-1.468 0.82206-2.7622 2.3009-2.9017" fill="none" filter="url(#l)" stroke="url(#h)" stroke-width="1.4836"/>
   <path d="m-507.13-107.5 42.281-4.0888c2.8887-0.26971 4.2508 0.7529 4.6977 3.3352l0.74041 5.1659 85.666-8.2843c1.4772-0.14285 2.8305 0.9516 3.0344 2.4539" fill="none" filter="url(#m)" stroke="url(#g)" stroke-width="1.5"/>
   <path transform="matrix(.99454,-.10431,.10431,.99454,0,0)" d="m-489.59-157.33h38.989a1.3321 1.3321 0 0 1 1.3321 1.3321v4.1151a1.3321 1.3321 0 0 1 -1.3321 1.3321h-38.989a1.3321 1.3321 0 0 1 -1.3321 -1.3321v-4.1151a1.3321 1.3321 0 0 1 1.3321 -1.3321" fill="url(#f)" opacity=".85772"/>
  </g>
  <g transform="matrix(.76602 0 0 1 -302.28 -265.52)">
   <path d="m-477.4-80.856 134.94-13.38c1.4929-0.14724 2.2386 0.68894 1.6719 1.8748l-15.738 61.762c-0.56669 1.1859-2.2247 2.2592-3.7176 2.4064l-133.58 13.175c-1.4929 0.14724-2.2386-0.68895-1.6719-1.8749l14.379-61.556c0.56668-1.1859 2.2248-2.2592 3.7176-2.4064z" fill="url(#aa)" stroke="url(#z)" stroke-width="1.5"/>
   <path d="m-350.51-56.712c-44.059 4.4534-101.95 10.275-137.28 13.688l-5.9062 25.219c-0.55749 1.1667 0.18756 1.9886 1.6562 1.8438l131.41-12.969c1.4687-0.14485 3.0988-1.2083 3.6562-2.375l6.4688-25.406z" fill="url(#e)" opacity=".80488"/>
   <path d="m-476.72-80.098 132.75-13.163c1.4687-0.14486 2.2022 0.67777 1.6448 1.8444l-15.483 60.76c-0.55751 1.1667-2.1887 2.2225-3.6574 2.3674l-131.42 12.962c-1.4687 0.14485-2.2022-0.67778-1.6448-1.8445l14.145-60.558c0.5575-1.1667 2.1887-2.2225 3.6574-2.3674z" fill="url(#d)" opacity=".82114"/>
   <path d="m-343.13-93.482-132.75 13.156c-1.4687 0.14485-3.0988 1.2083-3.6562 2.375l-8.0938 34.625c17.474-8.0151 37.188-14.445 54.188-16.312 38.013-4.1764 64.403-6.5357 89.875-23.875l2.0625-8.125c0.55747-1.1667-0.15633-1.9886-1.625-1.8438z" fill="url(#y)" opacity=".51626"/>
   <path d="m-357.25-31.25c-0.55985 1.1479-2.1979 2.1868-3.6727 2.3294l-131.97 12.753c-1.4749 0.14253-2.2115-0.66689-1.6517-1.8148l14.205-59.585c0.55984-1.1479 2.1979-2.1868 3.6728-2.3294" fill="none" filter="url(#k)" stroke="url(#c)" stroke-width="1.4668"/>
   <path d="m-478.57-79.88 134.94-13.38c1.4929-0.14724 2.2386 0.68894 1.6719 1.8748l-15.738 61.762" fill="none" filter="url(#j)" stroke="url(#b)" stroke-width="1.5"/>
  </g>
 </g>
 <g transform="matrix(.8611 0 0 .8611 429.73 138.48)">
  <g transform="matrix(.76591 0 0 1 40.152 59.737)">
   <path d="m-506.24-108.72 42.281-4.0888c2.8887-0.26972 4.2508 0.75289 4.6977 3.3352l0.74041 5.1659 85.666-8.2843c1.4772-0.14285 2.8305 0.95159 3.0344 2.4539l10.673 78.641c0.20389 1.5023-0.82117 2.8268-2.2983 2.9696l-132.18 12.782c-1.4772 0.14285-2.8305-0.9516-3.0344-2.4539l-11.882-87.551c-0.2039-1.5023 0.82116-2.8268 2.2983-2.9696z" fill="url(#x)" stroke="url(#w)" stroke-width="1.5"/>
   <path d="m-462.98-112.48c-0.31457-0.00477-0.63891-0.00164-1 0.02073l-42.281 2.7159c-1.4772 0.09477-2.5164 0.97286-2.3125 1.9695l7.5846 38.83c10.618-6.4657 25.434-17.117 46.54-19.01 41.255-3.6616 62.901-10.743 84.702-15.203l-0.10822-7.5195c-0.20388-0.99667-1.5541-1.7326-3.0312-1.6378l-85.656 5.4939-0.75-3.4208c-0.39105-1.499-1.4855-2.2056-3.6875-2.239z" fill="url(#i)" opacity=".32114"/>
   <path d="m-492.36-17.091c-1.4788 0.13958-2.8336-0.92985-3.0378-2.3978l-11.895-85.55c-0.20413-1.468 0.82206-2.7622 2.3009-2.9017" fill="none" filter="url(#l)" stroke="url(#h)" stroke-width="1.4836"/>
   <path d="m-507.13-107.5 42.281-4.0888c2.8887-0.26971 4.2508 0.7529 4.6977 3.3352l0.74041 5.1659 85.666-8.2843c1.4772-0.14285 2.8305 0.9516 3.0344 2.4539" fill="none" filter="url(#m)" stroke="url(#g)" stroke-width="1.5"/>
   <path transform="matrix(.99454,-.10431,.10431,.99454,0,0)" d="m-489.59-157.33h38.989a1.3321 1.3321 0 0 1 1.3321 1.3321v4.1151a1.3321 1.3321 0 0 1 -1.3321 1.3321h-38.989a1.3321 1.3321 0 0 1 -1.3321 -1.3321v-4.1151a1.3321 1.3321 0 0 1 1.3321 -1.3321" fill="url(#f)" opacity=".85772"/>
   <path d="m-477.4-80.856 134.94-13.38c1.4929-0.14724 2.2386 0.68894 1.6719 1.8748l-15.738 61.762c-0.56669 1.1859-2.2247 2.2592-3.7176 2.4064l-133.58 13.175c-1.4929 0.14724-2.2386-0.68895-1.6719-1.8749l14.379-61.556c0.56668-1.1859 2.2248-2.2592 3.7176-2.4064z" fill="url(#v)" stroke="url(#u)" stroke-width="1.5"/>
   <path d="m-350.51-56.712c-44.059 4.4534-101.95 10.275-137.28 13.688l-5.9062 25.219c-0.55749 1.1667 0.18756 1.9886 1.6562 1.8438l131.41-12.969c1.4687-0.14485 3.0988-1.2083 3.6562-2.375l6.4688-25.406z" fill="url(#e)" opacity=".80488"/>
   <path d="m-476.72-80.098 132.75-13.163c1.4687-0.14486 2.2022 0.67777 1.6448 1.8444l-15.483 60.76c-0.55751 1.1667-2.1887 2.2225-3.6574 2.3674l-131.42 12.962c-1.4687 0.14485-2.2022-0.67778-1.6448-1.8445l14.145-60.558c0.5575-1.1667 2.1887-2.2225 3.6574-2.3674z" fill="url(#d)" opacity=".82114"/>
   <path d="m-343.13-93.482-132.75 13.156c-1.4687 0.14485-3.0988 1.2083-3.6562 2.375l-8.0938 34.625c17.474-8.0151 37.188-14.445 54.188-16.312 38.013-4.1764 64.403-6.5357 89.875-23.875l2.0625-8.125c0.55747-1.1667-0.15633-1.9886-1.625-1.8438z" fill="url(#o)" opacity=".51626"/>
   <path d="m-357.25-31.25c-0.55985 1.1479-2.1979 2.1868-3.6727 2.3294l-131.97 12.753c-1.4749 0.14253-2.2115-0.66689-1.6517-1.8148l14.205-59.585c0.55984-1.1479 2.1979-2.1868 3.6728-2.3294" fill="none" filter="url(#k)" stroke="url(#c)" stroke-width="1.4668"/>
   <path d="m-478.57-79.88 134.94-13.38c1.4929-0.14724 2.2386 0.68894 1.6719 1.8748l-15.738 61.762" fill="none" filter="url(#j)" stroke="url(#b)" stroke-width="1.5"/>
  </g>
 </g>
 <g transform="matrix(.8611 0 0 .8611 631.58 459.72)">
  <g transform="matrix(.76627 0 0 1 -124.26 -271.81)">
   <path d="m-506.24-108.72 42.281-4.0888c2.8887-0.26972 4.2508 0.75289 4.6977 3.3352l0.74041 5.1659 85.666-8.2843c1.4772-0.14285 2.8305 0.95159 3.0344 2.4539l10.673 78.641c0.20389 1.5023-0.82117 2.8268-2.2983 2.9696l-132.18 12.782c-1.4772 0.14285-2.8305-0.9516-3.0344-2.4539l-11.882-87.551c-0.2039-1.5023 0.82116-2.8268 2.2983-2.9696z" fill="url(#t)" stroke="url(#s)" stroke-width="1.5"/>
   <path d="m-462.98-112.48c-0.31457-0.00477-0.63891-0.00164-1 0.02073l-42.281 2.7159c-1.4772 0.09477-2.5164 0.97286-2.3125 1.9695l7.5846 38.83c10.618-6.4657 25.434-17.117 46.54-19.01 41.255-3.6616 62.901-10.743 84.702-15.203l-0.10822-7.5195c-0.20388-0.99667-1.5541-1.7326-3.0312-1.6378l-85.656 5.4939-0.75-3.4208c-0.39105-1.499-1.4855-2.2056-3.6875-2.239z" fill="url(#i)" opacity=".32114"/>
   <path d="m-492.36-17.091c-1.4788 0.13958-2.8336-0.92985-3.0378-2.3978l-11.895-85.55c-0.20413-1.468 0.82206-2.7622 2.3009-2.9017" fill="none" filter="url(#l)" stroke="url(#h)" stroke-width="1.4836"/>
   <path d="m-507.13-107.5 42.281-4.0888c2.8887-0.26971 4.2508 0.7529 4.6977 3.3352l0.74041 5.1659 85.666-8.2843c1.4772-0.14285 2.8305 0.9516 3.0344 2.4539" fill="none" filter="url(#m)" stroke="url(#g)" stroke-width="1.5"/>
   <path transform="matrix(.99454,-.10431,.10431,.99454,0,0)" d="m-489.59-157.33h38.989a1.3321 1.3321 0 0 1 1.3321 1.3321v4.1151a1.3321 1.3321 0 0 1 -1.3321 1.3321h-38.989a1.3321 1.3321 0 0 1 -1.3321 -1.3321v-4.1151a1.3321 1.3321 0 0 1 1.3321 -1.3321" fill="url(#f)" opacity=".85772"/>
   <path d="m-477.4-80.856 134.94-13.38c1.4929-0.14724 2.2386 0.68894 1.6719 1.8748l-15.738 61.762c-0.56669 1.1859-2.2247 2.2592-3.7176 2.4064l-133.58 13.175c-1.4929 0.14724-2.2386-0.68895-1.6719-1.8749l14.379-61.556c0.56668-1.1859 2.2248-2.2592 3.7176-2.4064z" fill="url(#r)" stroke="url(#q)" stroke-width="1.5"/>
   <path d="m-350.51-56.712c-44.059 4.4534-101.95 10.275-137.28 13.688l-5.9062 25.219c-0.55749 1.1667 0.18756 1.9886 1.6562 1.8438l131.41-12.969c1.4687-0.14485 3.0988-1.2083 3.6562-2.375l6.4688-25.406z" fill="url(#e)" opacity=".80488"/>
   <path d="m-476.72-80.098 132.75-13.163c1.4687-0.14486 2.2022 0.67777 1.6448 1.8444l-15.483 60.76c-0.55751 1.1667-2.1887 2.2225-3.6574 2.3674l-131.42 12.962c-1.4687 0.14485-2.2022-0.67778-1.6448-1.8445l14.145-60.558c0.5575-1.1667 2.1887-2.2225 3.6574-2.3674z" fill="url(#d)" opacity=".82114"/>
   <path d="m-343.13-93.482-132.75 13.156c-1.4687 0.14485-3.0988 1.2083-3.6562 2.375l-8.0938 34.625c17.474-8.0151 37.188-14.445 54.188-16.312 38.013-4.1764 64.403-6.5357 89.875-23.875l2.0625-8.125c0.55747-1.1667-0.15633-1.9886-1.625-1.8438z" fill="url(#o)" opacity=".51626"/>
   <path d="m-357.25-31.25c-0.55985 1.1479-2.1979 2.1868-3.6727 2.3294l-131.97 12.753c-1.4749 0.14253-2.2115-0.66689-1.6517-1.8148l14.205-59.585c0.55984-1.1479 2.1979-2.1868 3.6728-2.3294" fill="none" filter="url(#k)" stroke="url(#c)" stroke-width="1.4668"/>
   <path d="m-478.57-79.88 134.94-13.38c1.4929-0.14724 2.2386 0.68894 1.6719 1.8748l-15.738 61.762" fill="none" filter="url(#j)" stroke="url(#b)" stroke-width="1.5"/>
  </g>
 </g>
</svg>
