<?xml version="1.0" encoding="UTF-8"?>
<svg viewBox="0 0 500 450" xmlns="http://www.w3.org/2000/svg">
 <defs>
  <filter id="a">
   <feGaussianBlur stdDeviation="6.923063"/>
  </filter>
 </defs>
 <g fill-rule="evenodd" stroke-linecap="round">
  <path d="m150.78 171.14c-64.775 1.0408-121.91 37.138-134.04 88.345-13.858 58.498 36.239 114.67 111.84 125.43 0.0159 0.090149-0.01088 0.22348-0.018066 0.3523l-0.4336 0.0185-58.909 54.787 121.03-56.864-1.1923 0.0371 0.7768-0.5933 1.7342-0.0556-1.3187 0.6118 1.662-0.0556v-0.57477h0.018066c52.372-11.537 89.089-42.795 98.904-84.229 13.863-58.522-36.296-114.72-111.95-125.44-9.4564-1.3405-18.855-1.91-28.109-1.7613z" fill-opacity=".498" filter="url(#a)" stroke-width="2.5"/>
  <path d="m167.43 150.34c-64.776 1.0408-121.91 37.138-134.04 88.345-13.858 58.498 36.239 114.67 111.84 125.43 0.0159 0.090118-0.010895 0.22348-0.018082 0.3523l-0.4335 0.0185-58.909 54.787 121.03-56.864-1.1923 0.0371 0.7768-0.5933 1.7342-0.0556-1.3187 0.6118 1.662-0.0556v-0.57477h0.018066c52.372-11.537 89.089-42.795 98.904-84.229 13.863-58.522-36.296-114.72-111.95-125.44-9.4564-1.3405-18.855-1.91-28.109-1.7613z" fill="#fff" stroke="#ff7f00" stroke-linejoin="round" stroke-width="15"/>
  <path d="m282.32 39.994c81.465 1.309 153.32 46.707 168.58 111.11 17.428 73.57-45.577 144.21-140.65 157.74-0.02002 0.11334 0.013672 0.28104 0.022705 0.44302l0.5453 0.0233 74.087 68.903-152.22-71.514 1.4995 0.0466-0.9769-0.7462-2.181-0.07 1.6585 0.7695-2.0902-0.07v-0.72284h-0.02272c-65.866-14.509-112.04-53.821-124.39-105.93-17.435-73.601 45.648-144.28 140.79-157.77 11.893-1.6859 23.713-2.4022 35.351-2.2152z" fill-opacity=".498" filter="url(#a)" stroke-width="2.5"/>
  <path d="m304.09 19.957c81.465 1.309 153.32 46.707 168.58 111.11 17.428 73.57-45.577 144.21-140.65 157.74-0.019989 0.11337 0.013702 0.28107 0.022736 0.44305l0.5453 0.0233 74.087 68.903-152.22-71.514 1.4995 0.0466-0.9769-0.7462-2.181-0.0699 1.6585 0.7695-2.0902-0.0699v-0.72287h-0.02272c-65.866-14.509-112.04-53.821-124.39-105.93-17.435-73.601 45.648-144.28 140.79-157.77 11.893-1.6859 23.713-2.4022 35.351-2.2152z" fill="#fff" stroke="#ff7f00" stroke-linejoin="round" stroke-width="20"/>
 </g>
</svg>
