<?xml version="1.0" encoding="UTF-8"?>
<svg viewBox="0 0 640 480" xmlns="http://www.w3.org/2000/svg">
 <g fill="#007f7f" fill-rule="evenodd" stroke="#007f7f">
  <path d="m132.52 208.87l191.84 128.02 193.95-136.37c-37.852-0.48148-181.62 85.522-191.93 115.16-7.071-29.294-155.56-106.07-193.86-106.8z"/>
  <path d="m130.5 186.37l186.79-113.87 205.06 113.14c-37.852 0.48149-192.73-62.288-203.04-91.924-7.0711 29.294-150.51 91.924-188.81 92.66z"/>
  <path d="m216.99 264.85s2.3162 18.724-6.7752 43.978c-14.142 25.254-6.0609-9.0914 51.518 30.305 52.528 32.325 30.436 26.049 76.772 41.416 5.5558-0.50507-37.418-28.854-58.007-47.455-22.429-20.263-35.937-21.741-55.13-23.256 2.0203-3.0305 9.5098-19.142 10.52-32.274l-18.897-12.714z"/>
  <path d="m428.86 262.6s-1.8477 16.115 3.6952 40.806c-24.235 24.69-61.395 52.239-78.217 74.406-3.3873-0.49384 14.242-35.353 26.795-53.539 13.675-19.811 23.339-19.827 35.041-21.308-1.2318-2.9628 2.0591-17.985 1.4433-30.824l11.242-9.5409z" stroke-width=".772"/>
  <path d="m464.26 291.38s18.557-1.3503 21.429 17.857c3.0052 20.104-4.1686 9.356-6.0714 31.429-1.7857 20.714 8.5714 36.786 8.5714 36.786s-32.079-6.873-19.643-41.429c2.831-7.8666 3.2143-6.4286 5.7143-23.571-6.6798-21.481-10.357-20.714-10-21.072z"/>
  <path d="m459.95 294.6s-24.272-2.7788-27.143 16.429c-3.0053 20.104 4.1686 9.3561 6.0714 31.429 1.7857 20.714-12.5 32.143-12.5 32.143s36.007-2.2301 23.571-36.786c-2.831-7.8666-3.2143-6.4286-5.7143-23.571 6.6798-21.481 16.071-19.286 15.714-19.643z"/>
  <path d="m325.89 197.9c-7.7467-0.107-17.007 1.2473-22.854-5.0885-4.5715-4.4369-4.8839-13.388 0.73346-17.019 6.8551-3.1319 6.6286 5.4836 8.2115 9.5997 2.5559 5.8608 9.98 9.72 16.027 6.79 4.4995-0.84936 3.7729 5.7258-0.42627 4.5861-0.64652 0.22273-1.2666 0.58385-1.6925 1.1315v-1.5e-5z"/>
  <path d="m334.62 175.31c-1.6072-2.8572 1.4286-5.7143 18.571-5.7143 17.143 0 5.8928-4.2857 16.429 2.1428 10.536 6.4286 2.3214 11.964 25.714 23.571s48.393 9.6428 67.857 22.857 9.8214 13.75 10 30c0.17859 16.25-4.6428 40.179-9.2857 35-4.6428-5.1785 6.7857-39.107-9.2857-55.714s-35.179-3.3929-55-10.714c-19.821-7.3214-14.286-9.6429-24.286-18.571-10-8.9286-5.5357-11.429-15.714-17.143-10.179-5.7143-23.393-2.8572-25-5.7143z"/>
 </g>
</svg>
