<?xml version='1.0' encoding='utf-8'?>
<svg xmlns="http://www.w3.org/2000/svg" id="svg8" version="1.1" viewBox="0 0 199.80257 122.95841" height="122.95841mm" width="199.80257mm"> <defs id="defs2"/> <metadata id="metadata5"> </metadata> <g transform="translate(76.127223,-9.9673211)" id="layer1"> <path id="path11024" transform="matrix(0.26458333,0,0,0.26458333,-76.127223,9.9673211)" d="M 490.5918 76.771484 C 463.49266 76.771484 438.11238 83.845763 416.16406 96.234375 C 422.36608 113.37755 425.75195 131.87721 425.75195 151.17969 C 425.75195 208.33341 396.11463 258.46896 351.34766 287.08398 C 374.27978 341.28331 427.84706 379.13281 490.5918 379.13281 L 533.99219 379.13281 L 603.97852 464.72461 L 603.97852 379.13281 C 687.73284 379.13281 755.16016 311.70746 755.16016 227.95312 C 755.16016 144.1988 687.73284 76.771484 603.97852 76.771484 L 490.5918 76.771484 z " style="opacity:1;fill:#ff8039;fill-opacity:1;stroke:none;stroke-width:10.99842548;stroke-linecap:butt;stroke-linejoin:miter;stroke-miterlimit:3.94740677;stroke-dasharray:none;stroke-opacity:1;paint-order:normal"/> <g id="g11028" transform="matrix(-0.26738718,0,0,-0.26742126,744.6767,292.47908)" style="opacity:1;fill:none;stroke:#ffffff;stroke-width:9.89450836;stroke-miterlimit:4;stroke-dasharray:none"> <path style="fill:none;fill-rule:evenodd;stroke:#ffffff;stroke-width:9.89450836;stroke-linecap:round;stroke-linejoin:round;stroke-miterlimit:4;stroke-dasharray:none;stroke-opacity:1" d="m 2604.2314,938.13175 h -111.1661 -53.4469 c -12.3857,0 -22.3568,-9.32207 -22.3568,-20.90157 v -80.31082 c 0,-11.57948 9.9711,-20.90158 22.3568,-20.90158 h 37.7096 c 13.3743,0 43.2949,-32.31184 53.3271,-44.43597 10.0322,-12.12412 29.4864,-51.60524 37.9367,-47.67645 22.9867,13.2668 -13.4858,74.98605 -16.718,79.24365 h 60.2807 c 12.3858,0 22.3569,7.52529 22.3569,16.87285 0,9.34755 -9.9711,16.87284 -22.3569,16.87284 h -16.3411 20.9165 c 12.3857,0 22.3568,7.52528 22.3568,16.87284 0,9.34756 -9.9718,16.99265 -22.3568,16.87285 l -28.4836,-0.27552 23.4842,0.27552 c 12.3848,0.14529 22.3569,7.52529 22.3569,16.87284 0,9.34756 -9.9713,16.87284 -22.3569,16.87284 h -28.5127 l 21.0136,10e-6 c 12.3858,0 22.357,7.52529 22.357,16.87288 0,9.34755 -9.9712,16.87279 -22.357,16.87279" id="path11026"/> </g> <path id="rect7404" d="m -36.127081,9.9673211 c -22.159999,0 -40.000142,17.8401429 -40.000142,40.0001419 0,22.16 17.840143,39.999626 40.000142,39.999626 v 22.646161 l 18.517214,-22.646161 h 11.4830223 c 22.1599997,0 39.9996237,-17.839626 39.9996237,-39.999626 0,-22.159999 -17.839624,-40.0001419 -39.9996237,-40.0001419 z" style="opacity:1;fill:#27ad88;fill-opacity:1;stroke:none;stroke-width:2.91000009;stroke-linecap:butt;stroke-linejoin:miter;stroke-miterlimit:3.94740677;stroke-dasharray:none;stroke-opacity:1;paint-order:normal"/> <g style="opacity:1;fill:none;stroke:#ffffff;stroke-width:9.89450836;stroke-miterlimit:4;stroke-dasharray:none" transform="matrix(0.26738718,0,0,0.26742126,-697.12858,-172.23222)" id="g10953"> <path id="path10984" d="m 2604.2314,938.13175 h -111.1661 -53.4469 c -12.3857,0 -22.3568,-9.32207 -22.3568,-20.90157 v -80.31082 c 0,-11.57948 9.9711,-20.90158 22.3568,-20.90158 h 37.7096 c 13.3743,0 43.2949,-32.31184 53.3271,-44.43597 10.0322,-12.12412 29.4864,-51.60524 37.9367,-47.67645 22.9867,13.2668 -13.4858,74.98605 -16.718,79.24365 h 60.2807 c 12.3858,0 22.3569,7.52529 22.3569,16.87285 0,9.34755 -9.9711,16.87284 -22.3569,16.87284 h -16.3411 20.9165 c 12.3857,0 22.3568,7.52528 22.3568,16.87284 0,9.34756 -9.9718,16.99265 -22.3568,16.87285 l -28.4836,-0.27552 23.4842,0.27552 c 12.3848,0.14529 22.3569,7.52529 22.3569,16.87284 0,9.34756 -9.9713,16.87284 -22.3569,16.87284 h -28.5127 l 21.0136,10e-6 c 12.3858,0 22.357,7.52529 22.357,16.87288 0,9.34755 -9.9712,16.87279 -22.357,16.87279" style="fill:none;fill-rule:evenodd;stroke:#ffffff;stroke-width:9.89450836;stroke-linecap:round;stroke-linejoin:round;stroke-miterlimit:4;stroke-dasharray:none;stroke-opacity:1"/> </g> </g> </svg>