<?xml version="1.0" encoding="UTF-8"?>
<svg width="500" height="500" version="1.1" viewBox="0 0 500.00001 500.00001" xmlns="http://www.w3.org/2000/svg">
 <g transform="translate(0 -552.36)">
  <path transform="translate(0 552.36)" d="m250 19.068c-127.54 3.03e-4 -230.93 103.39-230.93 230.93 3.04e-4 127.54 103.39 230.93 230.93 230.93 127.54-3e-4 230.93-103.39 230.93-230.93-3e-4 -127.54-103.39-230.93-230.93-230.93zm-13.734 94.056h27.468c5.0488 0 9.1218 4.0644 9.1133 9.1133v104.92h104.92c5.0488 0 9.1133 4.0644 9.1133 9.1133v27.468c0 5.0488-4.0644 9.1133-9.1133 9.1133h-104.92v104.92c0 5.0488-4.0644 9.1133-9.1133 9.1133h-27.468c-5.0488 0-9.1218-4.0644-9.1133-9.1133v-104.92h-104.92c-5.0488 0-9.1133-4.0644-9.1133-9.1133v-27.468c0-5.0488 4.0644-9.1133 9.1133-9.1133h104.92v-104.92c0-5.0488 4.0644-9.1133 9.1133-9.1133z" fill="#ff5252"/>
 </g>
</svg>
