<svg id="visual" viewBox="0 0 960 540" width="960" height="540" xmlns="http://www.w3.org/2000/svg" xmlns:xlink="http://www.w3.org/1999/xlink" version="1.1"><rect x="0" y="0" width="960" height="540" fill="#140021"></rect><path d="M370 540L388 540L388 450L395 450L395 360L367 360L367 270L375 270L375 180L395 180L395 90L392 90L392 0L960 0L960 90L960 90L960 180L960 180L960 270L960 270L960 360L960 360L960 450L960 450L960 540L960 540Z" fill="#560090"></path><path d="M475 540L466 540L466 450L470 450L470 360L467 360L467 270L475 270L475 180L498 180L498 90L475 90L475 0L960 0L960 90L960 90L960 180L960 180L960 270L960 270L960 360L960 360L960 450L960 450L960 540L960 540Z" fill="#6300a5"></path><path d="M564 540L590 540L590 450L593 450L593 360L572 360L572 270L562 270L562 180L574 180L574 90L561 90L561 0L960 0L960 90L960 90L960 180L960 180L960 270L960 270L960 360L960 360L960 450L960 450L960 540L960 540Z" fill="#7000bb"></path><path d="M675 540L666 540L666 450L656 450L656 360L673 360L673 270L667 270L667 180L670 180L670 90L679 90L679 0L960 0L960 90L960 90L960 180L960 180L960 270L960 270L960 360L960 360L960 450L960 450L960 540L960 540Z" fill="#7e00d1"></path><path d="M753 540L779 540L779 450L767 450L767 360L764 360L764 270L781 270L781 180L773 180L773 90L754 90L754 0L960 0L960 90L960 90L960 180L960 180L960 270L960 270L960 360L960 360L960 450L960 450L960 540L960 540Z" fill="#8b00e8"></path><path d="M873 540L850 540L850 450L884 450L884 360L880 360L880 270L861 270L861 180L859 180L859 90L872 90L872 0L960 0L960 90L960 90L960 180L960 180L960 270L960 270L960 360L960 360L960 450L960 450L960 540L960 540Z" fill="#9900ff"></path></svg>