<?xml version="1.0" encoding="UTF-8"?>
<svg viewBox="0 0 463.07864 463.07864" xmlns="http://www.w3.org/2000/svg">
 <defs>
  <filter id="l">
   <feGaussianBlur stdDeviation=".8107"/>
  </filter>
  <filter id="c">
   <feGaussianBlur stdDeviation="1.0174"/>
  </filter>
  <linearGradient id="k" x1="277.5" x2="284.25" y1="484.14" y2="443.88" gradientUnits="userSpaceOnUse">
   <stop stop-color="#89269d" offset="0"/>
   <stop stop-color="#a40000" offset=".33681"/>
   <stop stop-color="#89269d" stop-opacity="0" offset="1"/>
  </linearGradient>
  <linearGradient id="j" x1="242.38" x2="252.07" y1="226.28" y2="338.55" gradientUnits="userSpaceOnUse">
   <stop stop-color="#2a5e89" offset="0"/>
   <stop stop-color="#2a5e89" stop-opacity="0" offset="1"/>
  </linearGradient>
  <linearGradient id="i" x1="-356.81" x2="47.811" gradientTransform="matrix(0 1 -1 0 511.38 554.38)" gradientUnits="userSpaceOnUse">
   <stop offset="0"/>
   <stop stop-color="#fff" stop-opacity=".99608" offset="1"/>
  </linearGradient>
  <linearGradient id="a" x1="-838.19" x2="-807.77" y1="-119.64" y2="-191.78" gradientUnits="userSpaceOnUse" spreadMethod="reflect">
   <stop stop-color="#cdd0ce" offset="0"/>
   <stop stop-color="#cdd0ce" stop-opacity="0" offset="1"/>
  </linearGradient>
  <linearGradient id="b" x1="-228.89" x2="22.886" gradientUnits="userSpaceOnUse">
   <stop stop-color="#aed3ff" offset="0"/>
   <stop stop-color="#d6e9ff" stop-opacity=".13245" offset=".21015"/>
   <stop stop-color="#c2deff" stop-opacity=".13245" offset=".77785"/>
   <stop stop-color="#aed3ff" offset="1"/>
  </linearGradient>
  <linearGradient id="h" x1="-210.09" x2="-149.5" gradientUnits="userSpaceOnUse">
   <stop stop-color="#fff" offset="0"/>
   <stop stop-color="#fff" stop-opacity=".03793" offset="1"/>
  </linearGradient>
  <linearGradient id="g" x1="-210.09" x2="-164.83" y1="245.86" y2="249.55" gradientUnits="userSpaceOnUse">
   <stop stop-color="#fff" offset="0"/>
   <stop stop-color="#fff" stop-opacity=".05314" offset="1"/>
  </linearGradient>
  <linearGradient id="f" x1="-153" x2="-145.56" y1="-47.638" y2="-89.638" gradientUnits="userSpaceOnUse">
   <stop stop-color="#2ad4ff" offset="0"/>
   <stop stop-color="#2ad4ff" stop-opacity="0" offset="1"/>
  </linearGradient>
  <radialGradient id="e" cx="-167" cy="337.36" r="56" gradientTransform="matrix(1.3393 0 0 1.1719 495.16 127.69)" gradientUnits="userSpaceOnUse">
   <stop stop-color="#042b76" offset="0"/>
   <stop stop-color="#2e75f8" offset="1"/>
  </radialGradient>
  <radialGradient id="d" cx="81.5" cy="127.88" r="231.54" gradientTransform="matrix(1.5048 .23121 -.16112 1.0486 317.46 104.94)" gradientUnits="userSpaceOnUse">
   <stop stop-color="#acacac" offset="0"/>
   <stop offset="1"/>
  </radialGradient>
 </defs>
 <g transform="translate(-45.961 -168.34)">
  <path transform="translate(-18.5 73.514)" d="m483 326.36a187 187 0 1 1 -374 0 187 187 0 1 1 374 0z" fill="#212121" stroke="#000" stroke-linecap="round" stroke-linejoin="round" stroke-width="3.5433"/>
  <path d="m478.27 399.88c0-110.63-90.149-200.77-200.77-200.77s-200.77 90.149-200.77 200.77 90.149 200.77 200.77 200.77 200.77-90.149 200.77-200.77zm-36.87 0c0 90.677-73.228 163.9-163.9 163.9s-163.9-73.228-163.9-163.9 73.228-163.9 163.9-163.9 163.9 73.228 163.9 163.9z" fill="#a3a3a3" stroke="url(#i)" stroke-linecap="round" stroke-linejoin="round" stroke-width="3.0725"/>
  <path d="m277.5 168.34c-127.58 0-231.54 103.96-231.54 231.54s103.96 231.54 231.54 231.54 231.54-103.96 231.54-231.54-103.96-231.54-231.54-231.54zm0 42.52c104.57 0 189.02 84.448 189.02 189.02s-84.448 189.02-189.02 189.02-189.02-84.448-189.02-189.02 84.448-189.02 189.02-189.02z" fill="url(#d)"/>
  <path transform="matrix(0 -1 1 0 28.138 296.88)" d="m22 249.36a125 125 0 1 1 -250 0 125 125 0 1 1 250 0z" fill="none" stroke="url(#b)" stroke-linecap="round" stroke-linejoin="round" stroke-width="1.7716"/>
  <path transform="matrix(0 1 -1 0 523.36 549.38)" d="m-96 245.86a53.5 51.5 0 1 1 -107 0 53.5 51.5 0 1 1 107 0z" fill="none" filter="url(#l)" stroke="url(#h)" stroke-linecap="round" stroke-linejoin="round" stroke-width="8.8583"/>
  <path transform="matrix(0 1.3049 -1.3556 0 610.78 594.96)" d="m-96 245.86a53.5 51.5 0 1 1 -107 0 53.5 51.5 0 1 1 107 0z" fill="none" opacity=".55517" stroke="url(#g)" stroke-linecap="round" stroke-linejoin="round" stroke-width="4.7956"/>
  <path d="m277.5 235.74c-69.05 0-126.98 47.899-142.34 112.27h284.69c-15.359-64.367-73.294-112.27-142.34-112.27z" fill="url(#j)"/>
  <path transform="matrix(0 -.86893 .86893 0 60.822 310.38)" d="m22 249.36a125 125 0 1 1 -250 0 125 125 0 1 1 250 0z" fill="none" stroke="url(#b)" stroke-linecap="round" stroke-linejoin="round" stroke-width="1.7716"/>
  <path d="m271.5 457.42c-41.4 0-75 29.4-75 65.625 0 6.5774 1.1265 12.914 3.1875 18.906 23.49 12.983 50.517 20.375 79.312 20.375 21.347 0 41.721-4.0486 60.406-11.438 4.5404-8.4563 7.0938-17.888 7.0938-27.844 0-36.225-33.6-65.625-75-65.625z" fill="url(#e)" opacity=".34138"/>
  <path transform="translate(430.5 404.51)" d="m-114-68.638a39 21 0 1 1 -78 0 39 21 0 1 1 78 0z" fill="#5fd3bc" opacity=".3838"/>
  <path d="m300.01 403.61-46.931 1.1588-9.3247 73.004c9.5194 4.0389 20.63 6.3734 32.501 6.3734 12.924 0 24.951-2.7718 34.999-7.496l-11.244-73.04z" fill="url(#k)" opacity=".92759"/>
  <path transform="matrix(1.6795 0 0 1 535.96 383.51)" d="m-114-68.638a39 21 0 1 1 -78 0 39 21 0 1 1 78 0z" fill="url(#f)" opacity=".3838"/>
  <path d="m64.548 410.36 1.6557-0.16702c-0.43896 0.57824-0.74991 1.1802-0.93284 1.8059-0.18343 0.62051-0.24117 1.2676-0.17323 1.9412 0.13384 1.3266 0.64308 2.3012 1.5277 2.9239s2.0862 0.85746 3.6201 0.70272 2.6643-0.62472 3.4068-1.4116 1.039-1.8428 0.90523-3.1694c-0.06796-0.67366-0.25377-1.2962-0.55744-1.8676-0.30419-0.57654-0.72909-1.1043-1.2747-1.5832l1.6401-0.16545c0.42852 0.51167 0.76716 1.0664 1.0159 1.6643 0.24823 0.59267 0.40685 1.231 0.47585 1.915 0.17721 1.7567-0.21956 3.1944-1.1903 4.3131-0.97592 1.1192-2.3941 1.7727-4.2544 1.9603-1.8655 0.18819-3.3856-0.16886-4.5602-1.0712-1.1798-0.90177-1.8583-2.231-2.0355-3.9877-0.07004-0.69439-0.04263-1.3567 0.08223-1.987s0.33554-1.2404 0.64909-1.8165m0.27665-6.963 5.8964 1.8733-0.19587-4.2846-5.7005 2.4113m-1.5124 0.9607-0.08171-1.7872 11.449-4.9734 0.07493 1.6389-2.9405 1.198 0.24012 5.2523 3.0376 0.92474 0.07599 1.6623-11.855-3.9158m-0.29902-8.5927 0.02445-2.1249 9.8167-5.0592-9.7572-0.11229 0.01762-1.5312 11.663 0.13422-0.02445 2.1249-9.8167 5.0592 9.7572 0.11229-0.01762 1.5311-11.663-0.13422m0.26083-12.667 0.15191-2.1196 10.103-4.4611-9.7328-0.69755 0.10946-1.5273 11.634 0.83382-0.15191 2.1196-10.103 4.4611 9.7328 0.69756-0.10946 1.5273-11.634-0.83383m2.7064-17.2c-0.15227 1.1357 0.1499 2.0958 0.9065 2.8804s1.8664 1.2671 3.3273 1.463 2.6515 0.01659 3.5874-0.53582c0.93657-0.55755 1.481-1.4042 1.6333-2.5398s-0.15058-2.0906-0.90857-2.8649c-0.7573-0.77942-1.8638-1.2667-3.3195-1.4619s-2.6593-0.01761-3.5951 0.53478-1.4789 1.3887-1.6312 2.5244m-1.2699-0.17027c0.21735-1.6209 0.93569-2.8436 2.155-3.668 1.2142-0.82511 2.735-1.1152 4.5624-0.87015 1.8222 0.24435 3.2129 0.92478 4.172 2.0413 0.95392 1.1158 1.3222 2.4842 1.1049 4.1051-0.21804 1.6261-0.93449 2.8542-2.1494 3.6845s-2.735 1.1152-4.5624 0.87015-3.218-0.92546-4.172-2.0413c-0.95838-1.1217-1.3286-2.4956-1.1105-4.1216m1.4771-8.4584 0.41183-2.0847 10.575-3.1828-9.5728-1.8911 0.29676-1.5022 11.443 2.2605-0.41183 2.0847-10.575 3.1828 9.5728 1.8911-0.29676 1.5022-11.443-2.2605m3.7047-16.959 2.5161-8.8119 1.1569 0.33032 6.757 9.5991 2.0742-7.2644 1.2771 0.36465-2.6147 9.1575-1.1569-0.33033-6.757-9.5991-1.9755 6.9188-1.2771-0.36465m6.0464-15.945c-0.3789 1.0814-0.27725 2.0828 0.30495 3.0042s1.5714 1.6185 2.9624 2.1059 2.5933 0.55274 3.6216 0.20112c1.03-0.35652 1.7345-1.0755 2.1134-2.1568s0.27554-2.0778-0.31011-2.9895c-0.58393-0.91653-1.569-1.6176-2.9551-2.1034s-2.6007-0.55531-3.629-0.20371-1.7293 1.0607-2.1082 2.1421m-1.2092-0.42369c0.54082-1.5434 1.4917-2.5954 2.8526-3.1561s2.904-0.53872 4.644 0.07097 2.9593 1.5557 3.6727 2.8432 0.79222 2.7004 0.25141 4.2438c-0.54253 1.5483-1.4927 2.6061-2.8504 3.1734-1.356 0.56239-2.904 0.53874-4.6441-0.07097s-2.9642-1.5574-3.6727-2.8432-0.79614-2.7128-0.25361-4.2611m5.9839-11.943c-0.44597 1.0555-0.40731 2.0613 0.11596 3.0174 0.52531 0.95136 1.4668 1.7139 2.8246 2.2876 1.3529 0.57166 2.5536 0.71427 3.6019 0.42782s1.7985-0.96459 2.2445-2.0201 0.40529-2.0565-0.12204-3.003-1.4644-1.7128-2.8174-2.2845c-1.3577-0.57367-2.5608-0.7173-3.6091-0.43087-1.0463 0.28166-1.7924 0.95022-2.2384 2.0057m-1.1802-0.49869c0.63654-1.5064 1.6515-2.4968 3.0449-2.971 1.3886-0.47624 2.9321-0.35556 4.6305 0.36205 1.6936 0.7156 2.856 1.7382 3.4871 3.0679s0.62133 2.7447-0.01519 4.2512-1.6532 2.5074-3.0438 2.9885-2.9321 0.35557-4.6305-0.36205-2.8607-1.7402-3.4871-3.0679-0.62447-2.7574 0.01408-4.2686m3.6513-7.8209 1.0552-2.1015 8.4292 0.90155-5.7509-6.2357 1.0552-2.1015 10.424 5.2338-0.69059 1.3754-9.1532-4.5958 5.7998 6.2777-0.71163 1.4173-8.499-0.90167 9.1532 4.5958-0.68709 1.3684-10.424-5.2338m9.3286-17.523 0.82044-1.3481 8.8294 5.3735 2.9528-4.8518 1.1345 0.69046-3.7732 6.1999-9.9639-6.0639m4.9769-8.0385 4.1256-6.1131 1.1009 0.74297-3.2428 4.805 2.8623 1.9317 3.1074-4.6042 1.1009 0.74296-3.1074 4.6042 3.5034 2.3644 3.3215-4.9215 1.1009 0.74297-4.2043 6.2296-9.6682-6.525m6.0844-8.8762 1.2829-1.6941 10.901 1.7678-7.779-5.8908 0.92443-1.2207 9.2987 7.0417-1.2829 1.6941-10.901-1.7678 7.779 5.8908-0.92442 1.2207-9.2987-7.0417m12.522-15.06 1.1745 0.99464c-0.60568 0.27196-1.1338 0.56519-1.5845 0.8797s-0.83583 0.66059-1.1556 1.0382c-0.55537 0.65581-0.85735 1.2703-0.90592 1.8434s0.16671 1.0523 0.6357 1.4495c0.39348 0.33324 0.79087 0.46843 1.1922 0.40559 0.40069-0.07017 0.94201-0.38297 1.624-0.93841l0.76501-0.60112c0.93162-0.7535 1.7941-1.1594 2.5875-1.2178 0.79277-0.06571 1.5508 0.20772 2.2742 0.82032 0.86248 0.73042 1.2706 1.5743 1.2243 2.5315-0.04292 0.9533-0.53729 1.9884-1.4831 3.1052-0.3568 0.42131-0.78485 0.83004-1.2842 1.2262-0.49594 0.39219-1.0527 0.76356-1.6704 1.1141l-1.2401-1.0502c0.68826-0.25662 1.3005-0.56052 1.8368-0.91171s0.9963-0.75333 1.38-1.2064c0.5823-0.68759 0.89653-1.3326 0.94266-1.9351s-0.1812-1.1158-0.68199-1.5399c-0.43721-0.37025-0.89346-0.52459-1.3688-0.46302-0.47194 0.05762-1.0287 0.34029-1.6703 0.84802l-0.76411 0.61213c-0.93955 0.74678-1.7701 1.1593-2.4916 1.2376s-1.4221-0.17033-2.1018-0.74592c-0.78695-0.66645-1.173-1.4678-1.1583-2.404 0.01814-0.94015 0.43954-1.8971 1.2642-2.8709 0.35343-0.41732 0.75135-0.81062 1.1938-1.1799s0.93099-0.7165 1.4657-1.0417m9.9918-9.2179 1.6387 7.2083 2.7965-2.8381-4.4352-4.3702m-1.27-0.67012 1.3928-1.4135 5.4146 5.3353 1.168-1.1853 0.93491 0.9212-1.168 1.1853 1.9588 1.9301-1.1022 1.1186-1.9588-1.9301-3.6958 3.7508-1.0852-1.0692-1.8593-8.643m12.045-7.4379 0.5565 5.2755 5.4912 1.0503-1.2471 1.1484-4.202-0.80359 0.45487 4.254-1.2471 1.1484-0.60106-5.6699-5.1133-0.96281 1.2471-1.1484 3.8184 0.72142-0.40457-3.8648 1.2471-1.1484" fill="#e6e6e6"/>
  <path transform="matrix(.87231 0 0 .87231 823.57 506.11)" d="m-414-119.64a212 212 0 1 1 -424 0 212 212 0 1 1 424 0z" fill="none" opacity=".67606" stroke="url(#a)" stroke-linecap="round" stroke-linejoin="round" stroke-width=".37938"/>
  <path transform="matrix(.85351 .077215 -.077215 .85351 799.31 555.44)" d="m-414-119.64a212 212 0 1 1 -424 0 212 212 0 1 1 424 0z" fill="none" opacity=".67606" stroke="url(#a)" stroke-linecap="round" stroke-linejoin="round" stroke-width=".37938"/>
  <path d="m275.5 211.84c-104.57 0-189.03 84.46-189.03 189.03s84.46 189.03 189.03 189.03 189.03-84.46 189.03-189.03-84.46-189.03-189.03-189.03z" fill="none" stroke="#000" stroke-linecap="round" stroke-linejoin="round" stroke-width="3.5433"/>
  <path transform="matrix(.63005 0 0 .54478 371.29 255.09)" d="m-137 243.36-21.624 9.4545-19-14 2.6244-23.454 21.624-9.4545 19 14-2.6244 23.454z" fill="#ff7f2a" filter="url(#c)" opacity=".67606"/>
  <path transform="matrix(.7919 0 0 .7919 414.23 209.03)" d="m-137 243.36-21.624 9.4545-19-14 2.6244-23.454 21.624-9.4545 19 14-2.6244 23.454z" fill="#636667" filter="url(#c)" opacity=".67606"/>
  <path transform="matrix(.83843 .12016 -.12016 .83843 782.61 582.64)" d="m-414-119.64a212 212 0 1 1 -424 0 212 212 0 1 1 424 0z" fill="none" opacity=".67606" stroke="url(#a)" stroke-linecap="round" stroke-linejoin="round" stroke-width=".37938"/>
 </g>
</svg>
