<?xml version='1.0' encoding='utf-8'?>
<svg xmlns="http://www.w3.org/2000/svg" xmlns:xlink="http://www.w3.org/1999/xlink" width="333.33" height="287.889">
<defs>
<linearGradient id="svg_1" xlink:href="#linearGradient6125" y1="0.499528" y2="0.498751" x1="0.850219" x2="0"/>
<linearGradient id="linearGradient6131" xlink:href="#linearGradient6125" y1="0.45268" y2="0.676374" x1="0.505055" x2="0.562749"/>
<linearGradient id="linearGradient6004" xlink:href="#linearGradient5872-4" y1="0.788098" y2="0.551001" x1="0.947193" x2="0.632643"/>
<linearGradient id="linearGradient6006" xlink:href="#linearGradient5872-4" y1="0.162496" y2="0.5" x1="0.110561" x2="0.546552"/>
<linearGradient id="linearGradient6163" xlink:href="#linearGradient6125" y1="-Infinity" y2="-Infinity" x1="0" x2="1"/>
<linearGradient id="linearGradient6230" xlink:href="#linearGradient6224" y1="0.5" y2="0.5" x1="0" x2="1"/>
<linearGradient id="linearGradient6254" xlink:href="#linearGradient6224" y1="-0.000453" y2="1.003233" x1="0" x2="0.001972"/>
<linearGradient id="linearGradient6238" xlink:href="#linearGradient6224" y1="-0.008558" y2="0.99291" x1="0.98337" x2="0.988431"/>
<linearGradient id="linearGradient6246" xlink:href="#linearGradient6224" y1="0.5" y2="0.5" x1="0" x2="1"/>
<linearGradient id="linearGradient5996" xlink:href="#linearGradient5872-4" y1="0.162496" y2="0.5" x1="0.110561" x2="0.546552"/>
<linearGradient id="linearGradient5994" xlink:href="#linearGradient5872-4" y1="0.788098" y2="0.551001" x1="0.947193" x2="0.632643"/>
<linearGradient id="linearGradient5872">
<stop offset="0" style="stop-color:#fff;stop-opacity:.651" id="stop5874"/>
</linearGradient>
<linearGradient id="linearGradient6224">
<stop offset="0" style="stop-opacity:.502" id="stop6226"/>
</linearGradient>
<linearGradient id="linearGradient6125">
<stop offset="0" style="stop-color:#fff;stop-opacity:.651" id="stop6127"/>
</linearGradient>
<linearGradient id="linearGradient5878" xlink:href="#linearGradient5872" y1="1.000001" y2="0.000001" x1="0.482493" x2="0.482493"/>
<linearGradient id="linearGradient5898" xlink:href="#linearGradient5872" y1="-Infinity" y2="Infinity" x1="0.110561" x2="0.546552"/>
<linearGradient id="linearGradient5872-4">
<stop offset="0" style="stop-color:#fff;stop-opacity:.651" id="stop5874-9"/>
</linearGradient>
<linearGradient id="linearGradient5910" xlink:href="#linearGradient5872" y1="Infinity" y2="Infinity" x1="0.947193" x2="0.632643"/>
<linearGradient id="linearGradient5932" xlink:href="#linearGradient5872" y1="0.999999" y2="0" x1="0.482493" x2="0.482493"/>
</defs>
<g>
<g id="g3426" externalResourcesRequired="false">
<g style="fill:none">
<polygon points="19.374,136.983 98.932,136.983 59.083,18.273  " id="polygon3428"/>
<polygon points="235.574,191.345 315.132,191.345 275.282,72.635  " id="polygon3430"/>
</g>
<path style="fill:#f00" id="path3432" d="m 318.627,191.345 l -42.85,-127.627 6.892,1.386 c -0.562988,2.401 0.902008,4.816 3.30402,5.41 2.41901,0.598999 4.86899,-0.876999 5.47,-3.298 0.60199,-2.42001 -0.877991,-4.868 -3.301,-5.469 -2.095,-0.518002 -4.20502,0.522999 -5.125,2.38399 l -58.157,-17.148 -54.361,-16.029 -.509,-9.298 c 5.801,-0.210001 10.444,-4.966 10.444,-10.818 0.000992,-5.985 -4.85501,-10.838 -10.84,-10.838 -5.985,0 -10.837,4.853 -10.837,10.838 0,5.288 3.79001,9.686 8.8,10.64 l -.477,8.708 -53.88,-10.838 -60.542,-12.179 c 0.079998,-2.094 -1.315,-4.028 -3.429,-4.552 -2.419,-0.599 -4.867,0.879 -5.466,3.299 -0.598999,2.421 0.876999,4.869 3.297,5.468 2.418,0.598001 4.865,-0.875999 5.468,-3.292 l 5.889,1.736 -42.537,127.155 h -15.88 c 0,0 9.255,20.324 58.069,20.324 s 54.804,-20.324 54.804,-20.324 h -10.446 l -42.542,-126.721 51.784,15.269 54.78,16.151 -11.758,214.818 c 0,0 0.460999,9.69299 -14.772,12.002 -15.234,2.30798 -34.621,3.22897 -43.853,8.30899 -9.23299,5.078 -10.617,11.078 -10.617,11.078 h 80.318 6.00101 80.319 c 0,0 -1.386,-6 -10.615,-11.078 -9.23399,-5.07901 -28.621,-6.00101 -43.854,-8.30899 -15.233,-2.30902 -14.772,-12.002 -14.772,-12.002 l -11.704,-213.833 52.188,10.499 51.506,10.362 -42.755,127.817 h -11.623 c 0,0 9.25501,20.324 58.068,20.324 s 54.804,-20.324 54.804,-20.324 h -14.703 z  m -219.695,-54.362 h -79.558 l 39.709,-118.71 39.849,118.71 z  m 136.642,54.362 l 39.708,-118.709 39.85,118.709 h -79.558 z "/>
<path style="fill:url(#linearGradient5878)" id="path5790" d="m 239.0896,198.2186 c 0,0 11.2383,11.5172 38.9153,11.5172 27.677,0 39.793,-11.5172 39.793,-11.5172 h -17.0598 -1.9845 -45.1119 -1.98451 -12.5675 z "/>
<path style="fill:url(#linearGradient6131)" id="path6123" d="m 97.0747,287.8888 c 0.722527,-0.606537 1.22942,-1.11703 2.15625,-1.78125 1.86824,-1.33887 4.12382,-2.73462 6.71875,-3.875 1.29745,-0.57019 2.67181,-1.08792 4.125,-1.5 1.45318,-0.412079 3.00213,-0.72464 4.59375,-0.90625 5.41421,-1.02719 13.3395,-2.05905 20.5313,-3.59375 3.59586,-0.767365 6.99576,-1.65265 9.8125,-2.71875 1.40837,-0.533051 2.6581,-1.12076 3.71875,-1.75 1.06065,-0.629242 1.95152,-1.32275 2.5625,-2.0625 0.821152,-1.34744 1.46684,-2.63245 2,-3.90625 0.533142,-1.2738 0.94693,-2.5325 1.25,-3.75 0.606125,-2.435 0.810364,-4.77997 0.84375,-7.09375 0.033401,-2.3138 -0.111588,-4.57498 -0.1875,-6.90625 -0.013107,-0.403671 0.039505,-0.843369 0.031204,-1.25 l -.5312,9.7188 c 0,0 0.075394,3.35907 -2.90625,6.59375 -2.08177,2.25842 -5.61211,4.45694 -11.875,5.40625 -0.305069,0.046204 -0.660477,0.079803 -0.96875,0.125 -15.086,2.20966 -33.8279,3.20923 -42.875,8.1875 -9.23299,5.078 -10.625,11.0625 -10.625,11.0625 h 11.625 5.3e-05 z "/>
<path style="fill:url(#linearGradient5910)" id="path5890" d="m 180.4236,10.8139 a 10.8497,10.8497 0 1,1 -21.6993,0 10.8497,10.8497 0 1,1 21.6993,0 z "/>
<path style="fill:url(#linearGradient5898)" id="path5888" d="m 175.6827,8.9561 a 7.59476,7.59476 0 1,1 -15.1895,0 7.59476,7.59476 0 1,1 15.1895,0 z "/>
<path style="fill:url(#linearGradient5932)" id="path5930" d="m 17.0581,143.4178 c 0,0 11.2383,11.5172 38.9153,11.5172 27.677,0 39.793,-11.5172 39.793,-11.5172 h -17.0598 -1.9845 -45.1119 -1.9845 -12.5675 z "/>
<g id="g5990" transform="matrix(0.41895,0,0,0.41895,-14.1572,-7.9624555)">
<path style="fill:url(#linearGradient5994)" id="path5890-6" d="m 159.5997,35.639 c 0,5.99211 -4.85754,10.8497 -10.8497,10.8497 -5.99211,0 -10.8497,-4.85755 -10.8497,-10.8497 0,-5.99211 4.85756,-10.8497 10.8497,-10.8497 5.99211,0 10.8497,4.85755 10.8497,10.8497 z "/>
<path style="fill:url(#linearGradient5996)" id="path5888-3" d="m 154.8587,33.7812 c 0,4.19448 -3.40028,7.59477 -7.59476,7.59477 -4.19447,0 -7.59477,-3.40029 -7.59477,-7.59477 0,-4.19448 3.4003,-7.59476 7.59477,-7.59476 4.19447,0 7.59476,3.40029 7.59476,7.59476 z "/>
</g>
<g id="g5998" transform="matrix(0.41895,0,0,0.41895,224.75299,51.155106)">
<path style="fill:url(#linearGradient6004)" id="path6000" d="m 159.5997,35.639 c 0,5.99211 -4.85754,10.8497 -10.8497,10.8497 -5.99211,0 -10.8497,-4.85755 -10.8497,-10.8497 0,-5.99211 4.85756,-10.8497 10.8497,-10.8497 5.99211,0 10.8497,4.85755 10.8497,10.8497 z "/>
<path style="fill:url(#linearGradient6006)" id="path6002" d="m 154.8587,33.7812 c 0,4.19448 -3.40028,7.59477 -7.59476,7.59477 -4.19447,0 -7.59477,-3.40029 -7.59477,-7.59477 0,-4.19448 3.4003,-7.59476 7.59477,-7.59476 4.19447,0 7.59476,3.40029 7.59476,7.59476 z "/>
</g>
<path style="fill:url(#svg_1)" id="path6140" d="m 170.6475,150.2926 c -2.6696,-59.5971 -0.901016,-107.591 0.464432,-107.653 1.36543,-0.06218 3.46692,47.893 6.13652,107.49 2.6696,59.5972 6.84357,107.721 5.47812,107.784 -1.36543,0.062164 -9.40947,-48.0237 -12.0791,-107.621 z "/>
<path style="fill:url(#linearGradient6163)" id="path6161" d="m 169.1197,37.1712 a 0.596051,25.8026 0 1,1 -1.19211,4.80405 0.596051,25.8026 0 1,1 1.19211,-4.80405 z "/>
<path style="fill:url(#linearGradient6238)" id="path6202" d="m 275.3047,63.6211 l -.4688,-.0937 -42.75,127.8125 h 3.5 l 39.7188,-118.7187 v -9 -5e-05 z "/>
<path style="fill:url(#linearGradient6230)" id="path6192" d="m 275.2812,63.6211 v 9 l 39.8438,118.7187 h 3.5 l -42.8438,-127.625 -.5,-.0937 v -5e-05 z "/>
<path style="fill:url(#linearGradient6254)" id="path6204" d="m 58.4188,9.8267 l -42.5508,127.1641 h 3.5 l 39.7188,-118.7188 v -8.24609 l -.668,-.1992 z "/>
<path style="fill:url(#linearGradient6246)" id="path6206" d="m 59.0868,18.272 l 39.8438,118.7188 h 3.50002 l -42.5469,-126.7344 -.7969,-.2304 v 8.24605 z "/>
</g>
</g>
</svg>