<?xml version="1.0" encoding="UTF-8"?>
<svg viewBox="0 0 437.5 437.5" xmlns="http://www.w3.org/2000/svg" xmlns:xlink="http://www.w3.org/1999/xlink">
 <path d="m118.08 429.81c-16.289 3.4746-34.942-3.7581-39.113-22.96-3.0718-17.63-62.627-292.11-64.001-300.66-4.5999-23.509 8.2258-35.538 25.602-39.367 23.96-5.4421 227.49-49.67 245.09-53.131 19.524-4.3522 37.732 1.0521 42.978 24.5 4.0672 18.834 61.865 286.3 65.441 301.87 3.6772 16.704-8.9761 32.539-27.284 35.83-13.691 2.6221-239.6 51.812-248.71 53.916z" fill="#ffffeb" fill-rule="evenodd" stroke="#99bf99" stroke-width="15.575"/>
 <path d="m92.686 408.54c-16.655-0.0553-33.353-11.076-33.361-30.725 0.73303-17.881 0.68143-298.74 1.1504-307.39 0.48516-23.95 15.568-32.989 33.361-33.049 24.569-0.2423 232.85-0.34472 250.78-3e-5 20.003-0.11685 36.652 9.0221 36.812 33.049-0.0154 19.268-0.1951 292.91-1e-4 308.88 0.055 17.104-15.666 29.898-34.256 29.236-13.936-0.3381-245.14-0.128-254.49 0z" fill="#ffffeb" fill-rule="evenodd" stroke="#a6bf99" stroke-width="15.575"/>
 <path d="m101.29 143.49v75.965h94.252v-75.965h-94.252z" fill="#3a8b39" fill-rule="evenodd"/>
 <path d="m102.69 230.71v36.576h91.439v-36.576h-91.439z" fill="#e1cf80" fill-rule="evenodd"/>
 <path d="m237.74 144.9v122.39h102.69v-122.39h-102.69z" fill="#d8d2e1" fill-rule="evenodd"/>
 <path d="m101.29 94.252v32.355h241.96v-32.355h-241.96z" fill="#eb7e58" fill-rule="evenodd"/>
 <path d="m338.9 346.94v-47.303h-239.53v47.303h239.53z" fill="#80b26b" fill-rule="evenodd"/>
</svg>
