<?xml version="1.0" standalone="no"?>
<svg xmlns="http://www.w3.org/2000/svg" viewBox="0 0 1000 608.6966207034817" preserveAspectRatio="xMaxYMax slice" fill="transparent">
  <g transform="scale(0.5569045020159943)">
    <rect x="0" y="0" width="1795.642857142857" height="1093" />
    <rect x="1197.8310168589173" y="104.83101685891748" width="24.55225199645075" height="24.55225199645075"
          />
    <rect x="1433.7211712511091" y="106.50688553682343" width="21.200514640638858" height="21.200514640638858"
          />
    <rect x="492.9536681455191" y="180.66795385980478" width="29.021235137533267" height="29.021235137533267"
          />
    <g transform="translate(492.95,195.18) scale(0.7255) rotate(0)">
      <path d="M10 5L5 0L0 5L5 10L0 15L5 20L10 15L15 20L20 15L15 10L20 5L15 0L10 5Z" fill="#E5FCC2"/>
    </g>
    <rect x="569.907850931677" y="179.55070807453416" width="31.255726708074533" height="31.255726708074533"
          />
    <g transform="translate(585.54,179.55) scale(0.7815000000000001) rotate(0)">
      <path d="M10 0L20 10L10 20L0 10L10 0Z" fill="#E5FCC2"/>
    </g>
    <rect x="723.8162165039929" y="177.3162165039929" width="35.724709849157044" height="35.724709849157044"
          />
    <rect x="801.2359183673469" y="176.66448979591837" width="37.02816326530611" height="37.02816326530611"
          />
    <circle cx="810.495" cy="185.915" r="9.255" fill="#45ADA8"/>
    <g transform="translate(819.75,176.66) scale(0.9255000000000001) rotate(0)">
      <path d="M10 0L20 10L10 20L0 10L10 0Z" fill="#9DE0AD"/>
    </g>
    <rect x="819.75" y="195.18" width="18.51" height="18.51" fill="#9DE0AD"/>
    <rect x="879.3073469387755" y="176.66448979591837" width="37.02816326530611" height="37.02816326530611"
          />
    <rect x="879.31" y="195.18" width="18.51" height="18.51" fill="#45ADA8"/>
    <rect x="957.3787755102042" y="176.66448979591837" width="37.02816326530611" height="37.02816326530611"
          />
    <circle cx="966.635" cy="185.915" r="9.255" fill="#547980"/>
    <rect x="1035.4502040816326" y="176.66448979591837" width="37.02816326530611" height="37.02816326530611"
          />
    <g transform="translate(1035.45,195.18) scale(0.9255000000000001) rotate(0)">
      <path d="M10 0L20 10L10 20L0 10L10 0Z" fill="#45ADA8"/>
    </g>
    <circle cx="1063.2150000000001" cy="204.435" r="9.255" fill="#9DE0AD"/>
    <rect x="1114.1733593611357" y="177.3162165039929" width="35.724709849157044" height="35.724709849157044"
          />
    <g transform="translate(1132.04,195.18) scale(0.893) rotate(0)">
      <path fill-rule="evenodd" clip-rule="evenodd"
            d="M10 20C15.5228 20 20 15.5228 20 10C20 4.47715 15.5228 0 10 0C4.47715 0 0 4.47715 0 10C0 15.5228 4.47715 20 10 20ZM10 17C13.866 17 17 13.866 17 10C17 6.13401 13.866 3 10 3C6.13401 3 3 6.13401 3 10C3 13.866 6.13401 17 10 17Z"
            fill="#9DE0AD"/>
    </g>
    <rect x="1272.5507080745342" y="179.55070807453416" width="31.255726708074533" height="31.255726708074533"
          />
    <rect x="1351.7393824312335" y="180.66795385980478" width="29.021235137533267" height="29.021235137533267"
          />
    <circle cx="1358.9950000000001" cy="187.92499999999998" r="7.255" fill="#9DE0AD"/>
    <rect x="413.2063708961845" y="257.0635137533274" width="32.37297249334516" height="32.37297249334516"
          />
    <rect x="489.6019307897072" y="255.3876450754215" width="35.72470984915705" height="35.72470984915705"
          />
    <g transform="translate(489.6,255.39) scale(0.893) rotate(0)">
      <path d="M10 5L5 0L0 5L5 10L0 15L5 20L10 15L15 20L20 15L15 10L20 5L15 0L10 5Z" fill="#45ADA8"/>
    </g>
    <rect x="507.46" y="255.39" width="17.86" height="17.86" fill="#45ADA8"/>
    <rect x="795.8824489795918" y="249.38244897959186" width="47.73510204081633" height="47.73510204081633"
          />
    <circle cx="807.8149999999999" cy="261.315" r="11.935" fill="#E5FCC2"/>
    <rect x="795.88" y="273.25" width="23.87" height="23.87" fill="#594F4F"/>
    <g transform="translate(819.75,273.25) scale(1.1935) rotate(0)">
      <path fill-rule="evenodd" clip-rule="evenodd"
            d="M10 20C15.5228 20 20 15.5228 20 10C20 4.47715 15.5228 0 10 0C4.47715 0 0 4.47715 0 10C0 15.5228 4.47715 20 10 20ZM10 17C13.866 17 17 13.866 17 10C17 6.13401 13.866 3 10 3C6.13401 3 3 6.13401 3 10C3 13.866 6.13401 17 10 17Z"
            fill="#594F4F"/>
    </g>
    <rect x="873.9538775510204" y="249.38244897959186" width="47.73510204081633" height="47.73510204081633"
          />
    <g transform="translate(873.95,249.38) scale(1.1935) rotate(0)">
      <path d="M10 5L5 0L0 5L5 10L0 15L5 20L10 15L15 20L20 15L15 10L20 5L15 0L10 5Z" fill="#E5FCC2"/>
    </g>
    <rect x="952.025306122449" y="249.38244897959186" width="47.73510204081633" height="47.73510204081633"
          />
    <g transform="translate(952.03,249.38) scale(1.1935) rotate(0)">
      <path fill-rule="evenodd" clip-rule="evenodd"
            d="M10 20C15.5228 20 20 15.5228 20 10C20 4.47715 15.5228 0 10 0C4.47715 0 0 4.47715 0 10C0 15.5228 4.47715 20 10 20ZM10 17C13.866 17 17 13.866 17 10C17 6.13401 13.866 3 10 3C6.13401 3 3 6.13401 3 10C3 13.866 6.13401 17 10 17Z"
            fill="#E5FCC2"/>
    </g>
    <g transform="translate(975.89,249.38) scale(1.1935) rotate(0)">
      <path d="M10 5L5 0L0 5L5 10L0 15L5 20L10 15L15 20L20 15L15 10L20 5L15 0L10 5Z" fill="#594F4F"/>
    </g>
    <rect x="952.03" y="273.25" width="23.87" height="23.87" fill="#594F4F"/>
    <rect x="1428.134942324756" y="257.0635137533274" width="32.37297249334516" height="32.37297249334516"
          />
    <rect x="334.57631943212067" y="334.57631943212067" width="33.490218278615785" height="33.490218278615785"
          />
    <circle cx="342.955" cy="342.955" r="8.375" fill="#547980"/>
    <rect x="486.25019343389533" y="330.10733629103817" width="42.42818456078083" height="42.42818456078083"
          />
    <rect x="486.25" y="351.32" width="21.21" height="21.21" fill="#594F4F"/>
    <g transform="translate(507.46,351.32) scale(1.0605) rotate(0)">
      <path fill-rule="evenodd" clip-rule="evenodd"
            d="M10 20C15.5228 20 20 15.5228 20 10C20 4.47715 15.5228 0 10 0C4.47715 0 0 4.47715 0 10C0 15.5228 4.47715 20 10 20ZM10 17C13.866 17 17 13.866 17 10C17 6.13401 13.866 3 10 3C6.13401 3 3 6.13401 3 10C3 13.866 6.13401 17 10 17Z"
            fill="#594F4F"/>
    </g>
    <rect x="562.0871304347826" y="327.8728447204969" width="46.897167701863346" height="46.897167701863346"
          />
    <g transform="translate(562.09,327.87) scale(1.1724999999999999) rotate(0)">
      <path d="M10 0L20 10L10 20L0 10L10 0Z" fill="#E5FCC2"/>
    </g>
    <circle cx="597.265" cy="339.595" r="11.725" fill="#45ADA8"/>
    <g transform="translate(585.54,351.32) scale(1.1724999999999999) rotate(0)">
      <path d="M10 5L5 0L0 5L5 10L0 15L5 20L10 15L15 20L20 15L15 10L20 5L15 0L10 5Z" fill="#547980"/>
    </g>
    <rect x="713.7610044365572" y="323.40386157941435" width="55.83513398402839" height="55.83513398402839"
          />
    <circle cx="727.72" cy="337.35999999999996" r="13.96" fill="#9DE0AD"/>
    <g transform="translate(713.76,351.32) scale(1.3960000000000001) rotate(0)">
      <path d="M10 5L5 0L0 5L5 10L0 15L5 20L10 15L15 20L20 15L15 10L20 5L15 0L10 5Z" fill="#594F4F"/>
    </g>
    <rect x="790.5289795918367" y="322.1004081632653" width="58.442040816326525" height="58.442040816326525"
          />
    <g transform="translate(790.53,322.1) scale(1.4609999999999999) rotate(0)">
      <path d="M10 0L20 10L10 20L0 10L10 0Z" fill="#594F4F"/>
    </g>
    <g transform="translate(819.75,322.1) scale(1.4609999999999999) rotate(0)">
      <path d="M10 0L20 10L10 20L0 10L10 0Z" fill="#547980"/>
    </g>
    <rect x="819.75" y="351.32" width="29.22" height="29.22" fill="#E5FCC2"/>
    <rect x="868.6004081632652" y="322.1004081632653" width="58.442040816326525" height="58.442040816326525"
          />
    <g transform="translate(868.6,322.1) scale(1.4609999999999999) rotate(0)">
      <path d="M10 5L5 0L0 5L5 10L0 15L5 20L10 15L15 20L20 15L15 10L20 5L15 0L10 5Z" fill="#45ADA8"/>
    </g>
    <circle cx="912.4300000000001" cy="336.71000000000004" r="14.61" fill="#E5FCC2"/>
    <circle cx="883.21" cy="365.93" r="14.61" fill="#594F4F"/>
    <g transform="translate(897.82,351.32) scale(1.4609999999999999) rotate(0)">
      <path d="M10 5L5 0L0 5L5 10L0 15L5 20L10 15L15 20L20 15L15 10L20 5L15 0L10 5Z" fill="#547980"/>
    </g>
    <rect x="1024.7432653061226" y="322.1004081632653" width="58.442040816326525" height="58.442040816326525"
          />
    <circle cx="1039.35" cy="336.71000000000004" r="14.61" fill="#594F4F"/>
    <g transform="translate(1053.96,322.1) scale(1.4609999999999999) rotate(0)">
      <path d="M10 5L5 0L0 5L5 10L0 15L5 20L10 15L15 20L20 15L15 10L20 5L15 0L10 5Z" fill="#45ADA8"/>
    </g>
    <g transform="translate(1024.74,351.32) scale(1.4609999999999999) rotate(0)">
      <path d="M10 5L5 0L0 5L5 10L0 15L5 20L10 15L15 20L20 15L15 10L20 5L15 0L10 5Z" fill="#9DE0AD"/>
    </g>
    <g transform="translate(1053.96,351.32) scale(1.4609999999999999) rotate(0)">
      <path d="M10 0L20 10L10 20L0 10L10 0Z" fill="#45ADA8"/>
    </g>
    <rect x="1104.1181472937" y="323.40386157941435" width="55.83513398402839" height="55.83513398402839"
          />
    <g transform="translate(1104.12,323.4) scale(1.3960000000000001) rotate(0)">
      <path d="M10 5L5 0L0 5L5 10L0 15L5 20L10 15L15 20L20 15L15 10L20 5L15 0L10 5Z" fill="#547980"/>
    </g>
    <g transform="translate(1132.04,323.4) scale(1.3960000000000001) rotate(0)">
      <path d="M10 0L20 10L10 20L0 10L10 0Z" fill="#E5FCC2"/>
    </g>
    <rect x="257.0635137533274" y="413.2063708961845" width="32.37297249334516" height="32.37297249334516"
          />
    <circle cx="265.15500000000003" cy="421.305" r="8.095" fill="#E5FCC2"/>
    <g transform="translate(257.06,429.39) scale(0.8095000000000001) rotate(0)">
      <path d="M10 0L20 10L10 20L0 10L10 0Z" fill="#594F4F"/>
    </g>
    <circle cx="281.345" cy="437.485" r="8.095" fill="#45ADA8"/>
    <rect x="332.3418278615794" y="410.413256433008" width="37.95920141969831" height="37.95920141969831"
          />
    <g transform="translate(332.34,410.41) scale(0.9490000000000001) rotate(0)">
      <path d="M10 0L20 10L10 20L0 10L10 0Z" fill="#9DE0AD"/>
    </g>
    <g transform="translate(332.34,429.39) scale(0.9490000000000001) rotate(0)">
      <path fill-rule="evenodd" clip-rule="evenodd"
            d="M10 20C15.5228 20 20 15.5228 20 10C20 4.47715 15.5228 0 10 0C4.47715 0 0 4.47715 0 10C0 15.5228 4.47715 20 10 20ZM10 17C13.866 17 17 13.866 17 10C17 6.13401 13.866 3 10 3C6.13401 3 3 6.13401 3 10C3 13.866 6.13401 17 10 17Z"
            fill="#594F4F"/>
    </g>
    <rect x="482.8984560780834" y="404.8270275066548" width="49.131659272404605" height="49.131659272404605"
          />
    <g transform="translate(507.46,404.83) scale(1.2285) rotate(0)">
      <path fill-rule="evenodd" clip-rule="evenodd"
            d="M10 20C15.5228 20 20 15.5228 20 10C20 4.47715 15.5228 0 10 0C4.47715 0 0 4.47715 0 10C0 15.5228 4.47715 20 10 20ZM10 17C13.866 17 17 13.866 17 10C17 6.13401 13.866 3 10 3C6.13401 3 3 6.13401 3 10C3 13.866 6.13401 17 10 17Z"
            fill="#45ADA8"/>
    </g>
    <g transform="translate(482.9,429.39) scale(1.2285) rotate(0)">
      <path fill-rule="evenodd" clip-rule="evenodd"
            d="M10 20C15.5228 20 20 15.5228 20 10C20 4.47715 15.5228 0 10 0C4.47715 0 0 4.47715 0 10C0 15.5228 4.47715 20 10 20ZM10 17C13.866 17 17 13.866 17 10C17 6.13401 13.866 3 10 3C6.13401 3 3 6.13401 3 10C3 13.866 6.13401 17 10 17Z"
            fill="#547980"/>
    </g>
    <rect x="558.1767701863354" y="402.03391304347826" width="54.717888198757755" height="54.717888198757755"
          />
    <rect x="585.54" y="402.03" width="27.36" height="27.36" fill="#E5FCC2"/>
    <g transform="translate(558.18,429.39) scale(1.3679999999999999) rotate(0)">
      <path d="M10 5L5 0L0 5L5 10L0 15L5 20L10 15L15 20L20 15L15 10L20 5L15 0L10 5Z" fill="#E5FCC2"/>
    </g>
    <circle cx="599.2199999999999" cy="443.07" r="13.68" fill="#547980"/>
    <rect x="708.7333984028394" y="396.4476841171251" width="65.89034605146405" height="65.89034605146405"
          />
    <g transform="translate(708.73,396.45) scale(1.6475000000000002) rotate(0)">
      <path fill-rule="evenodd" clip-rule="evenodd"
            d="M10 20C15.5228 20 20 15.5228 20 10C20 4.47715 15.5228 0 10 0C4.47715 0 0 4.47715 0 10C0 15.5228 4.47715 20 10 20ZM10 17C13.866 17 17 13.866 17 10C17 6.13401 13.866 3 10 3C6.13401 3 3 6.13401 3 10C3 13.866 6.13401 17 10 17Z"
            fill="#9DE0AD"/>
    </g>
    <rect x="741.68" y="396.45" width="32.95" height="32.95" fill="#45ADA8"/>
    <g transform="translate(708.73,429.39) scale(1.6475000000000002) rotate(0)">
      <path fill-rule="evenodd" clip-rule="evenodd"
            d="M10 20C15.5228 20 20 15.5228 20 10C20 4.47715 15.5228 0 10 0C4.47715 0 0 4.47715 0 10C0 15.5228 4.47715 20 10 20ZM10 17C13.866 17 17 13.866 17 10C17 6.13401 13.866 3 10 3C6.13401 3 3 6.13401 3 10C3 13.866 6.13401 17 10 17Z"
            fill="#E5FCC2"/>
    </g>
    <circle cx="758.155" cy="445.865" r="16.475" fill="#594F4F"/>
    <rect x="785.1755102040815" y="394.81836734693877" width="69.14897959183672" height="69.14897959183672"
          />
    <g transform="translate(819.75,394.82) scale(1.7285) rotate(0)">
      <path d="M10 5L5 0L0 5L5 10L0 15L5 20L10 15L15 20L20 15L15 10L20 5L15 0L10 5Z" fill="#45ADA8"/>
    </g>
    <g transform="translate(785.18,429.39) scale(1.7285) rotate(0)">
      <path d="M10 0L20 10L10 20L0 10L10 0Z" fill="#45ADA8"/>
    </g>
    <rect x="863.2469387755101" y="394.81836734693877" width="69.14897959183672" height="69.14897959183672"
          />
    <g transform="translate(863.25,394.82) scale(1.7285) rotate(0)">
      <path fill-rule="evenodd" clip-rule="evenodd"
            d="M10 20C15.5228 20 20 15.5228 20 10C20 4.47715 15.5228 0 10 0C4.47715 0 0 4.47715 0 10C0 15.5228 4.47715 20 10 20ZM10 17C13.866 17 17 13.866 17 10C17 6.13401 13.866 3 10 3C6.13401 3 3 6.13401 3 10C3 13.866 6.13401 17 10 17Z"
            fill="#45ADA8"/>
    </g>
    <circle cx="915.105" cy="412.105" r="17.285" fill="#E5FCC2"/>
    <circle cx="880.535" cy="446.675" r="17.285" fill="#E5FCC2"/>
    <g transform="translate(897.82,429.39) scale(1.7285) rotate(0)">
      <path d="M10 0L20 10L10 20L0 10L10 0Z" fill="#45ADA8"/>
    </g>
    <rect x="941.3183673469388" y="394.81836734693877" width="69.14897959183672" height="69.14897959183672"
          />
    <g transform="translate(941.32,394.82) scale(1.7285) rotate(0)">
      <path d="M10 5L5 0L0 5L5 10L0 15L5 20L10 15L15 20L20 15L15 10L20 5L15 0L10 5Z" fill="#45ADA8"/>
    </g>
    <g transform="translate(975.89,394.82) scale(1.7285) rotate(0)">
      <path d="M10 5L5 0L0 5L5 10L0 15L5 20L10 15L15 20L20 15L15 10L20 5L15 0L10 5Z" fill="#594F4F"/>
    </g>
    <rect x="941.32" y="429.39" width="34.57" height="34.57" fill="#45ADA8"/>
    <rect x="1099.0905412599823" y="396.4476841171251" width="65.89034605146405" height="65.89034605146405"
          />
    <g transform="translate(1099.09,396.45) scale(1.6475000000000002) rotate(0)">
      <path fill-rule="evenodd" clip-rule="evenodd"
            d="M10 20C15.5228 20 20 15.5228 20 10C20 4.47715 15.5228 0 10 0C4.47715 0 0 4.47715 0 10C0 15.5228 4.47715 20 10 20ZM10 17C13.866 17 17 13.866 17 10C17 6.13401 13.866 3 10 3C6.13401 3 3 6.13401 3 10C3 13.866 6.13401 17 10 17Z"
            fill="#9DE0AD"/>
    </g>
    <circle cx="1148.5149999999999" cy="412.925" r="16.475" fill="#45ADA8"/>
    <g transform="translate(1099.09,429.39) scale(1.6475000000000002) rotate(0)">
      <path d="M10 5L5 0L0 5L5 10L0 15L5 20L10 15L15 20L20 15L15 10L20 5L15 0L10 5Z" fill="#9DE0AD"/>
    </g>
    <g transform="translate(1132.04,429.39) scale(1.6475000000000002) rotate(0)">
      <path fill-rule="evenodd" clip-rule="evenodd"
            d="M10 20C15.5228 20 20 15.5228 20 10C20 4.47715 15.5228 0 10 0C4.47715 0 0 4.47715 0 10C0 15.5228 4.47715 20 10 20ZM10 17C13.866 17 17 13.866 17 10C17 6.13401 13.866 3 10 3C6.13401 3 3 6.13401 3 10C3 13.866 6.13401 17 10 17Z"
            fill="#45ADA8"/>
    </g>
    <rect x="1260.8196273291926" y="402.03391304347826" width="54.717888198757755" height="54.717888198757755"
          />
    <g transform="translate(1260.82,402.03) scale(1.3679999999999999) rotate(0)">
      <path fill-rule="evenodd" clip-rule="evenodd"
            d="M10 20C15.5228 20 20 15.5228 20 10C20 4.47715 15.5228 0 10 0C4.47715 0 0 4.47715 0 10C0 15.5228 4.47715 20 10 20ZM10 17C13.866 17 17 13.866 17 10C17 6.13401 13.866 3 10 3C6.13401 3 3 6.13401 3 10C3 13.866 6.13401 17 10 17Z"
            fill="#594F4F"/>
    </g>
    <rect x="1288.18" y="402.03" width="27.36" height="27.36" fill="#9DE0AD"/>
    <circle cx="1301.8600000000001" cy="443.07" r="13.68" fill="#547980"/>
    <rect x="1341.6841703637976" y="404.8270275066548" width="49.131659272404605" height="49.131659272404605"
          />
    <g transform="translate(1341.68,404.83) scale(1.2285) rotate(0)">
      <path d="M10 5L5 0L0 5L5 10L0 15L5 20L10 15L15 20L20 15L15 10L20 5L15 0L10 5Z" fill="#547980"/>
    </g>
    <rect x="1366.25" y="404.83" width="24.57" height="24.57" fill="#594F4F"/>
    <g transform="translate(1366.25,429.39) scale(1.2285) rotate(0)">
      <path fill-rule="evenodd" clip-rule="evenodd"
            d="M10 20C15.5228 20 20 15.5228 20 10C20 4.47715 15.5228 0 10 0C4.47715 0 0 4.47715 0 10C0 15.5228 4.47715 20 10 20ZM10 17C13.866 17 17 13.866 17 10C17 6.13401 13.866 3 10 3C6.13401 3 3 6.13401 3 10C3 13.866 6.13401 17 10 17Z"
            fill="#9DE0AD"/>
    </g>
    <rect x="1422.5487133984027" y="407.62014196983137" width="43.545430346051454" height="43.545430346051454"
          />
    <rect x="1444.32" y="407.62" width="21.77" height="21.77" fill="#547980"/>
    <g transform="translate(1422.55,429.39) scale(1.0885) rotate(0)">
      <path d="M10 0L20 10L10 20L0 10L10 0Z" fill="#E5FCC2"/>
    </g>
    <rect x="1665.1423425022183" y="415.99948535936113" width="26.786743566992016" height="26.786743566992016"
          />
    <g transform="translate(1678.54,416) scale(0.6695) rotate(0)">
      <path d="M10 5L5 0L0 5L5 10L0 15L5 20L10 15L15 20L20 15L15 10L20 5L15 0L10 5Z" fill="#E5FCC2"/>
    </g>
    <g transform="translate(1665.14,429.39) scale(0.6695) rotate(0)">
      <path fill-rule="evenodd" clip-rule="evenodd"
            d="M10 20C15.5228 20 20 15.5228 20 10C20 4.47715 15.5228 0 10 0C4.47715 0 0 4.47715 0 10C0 15.5228 4.47715 20 10 20ZM10 17C13.866 17 17 13.866 17 10C17 6.13401 13.866 3 10 3C6.13401 3 3 6.13401 3 10C3 13.866 6.13401 17 10 17Z"
            fill="#45ADA8"/>
    </g>
    <rect x="255.66695652173914" y="489.88124223602483" width="35.16608695652174" height="35.16608695652174"
          />
    <rect x="255.67" y="507.46" width="17.58" height="17.58" fill="#547980"/>
    <rect x="480.1053416149069" y="480.1053416149069" width="54.717888198757755" height="54.717888198757755"
          />
    <g transform="translate(507.46,480.11) scale(1.3679999999999999) rotate(0)">
      <path d="M10 0L20 10L10 20L0 10L10 0Z" fill="#E5FCC2"/>
    </g>
    <g transform="translate(507.46,507.46) scale(1.3679999999999999) rotate(0)">
      <path d="M10 0L20 10L10 20L0 10L10 0Z" fill="#45ADA8"/>
    </g>
    <rect x="554.9181366459627" y="476.84670807453415" width="61.235155279503104" height="61.235155279503104"
          />
    <rect x="585.54" y="476.85" width="30.62" height="30.62" fill="#9DE0AD"/>
    <g transform="translate(554.92,507.46) scale(1.5310000000000001) rotate(0)">
      <path d="M10 0L20 10L10 20L0 10L10 0Z" fill="#E5FCC2"/>
    </g>
    <rect x="629.7309316770186" y="473.5880745341615" width="67.75242236024845" height="67.75242236024845"
          />
    <rect x="629.73" y="507.46" width="33.88" height="33.88" fill="#45ADA8"/>
    <rect x="663.61" y="507.46" width="33.88" height="33.88" fill="#E5FCC2"/>
    <rect x="704.5437267080745" y="470.3294409937888" width="74.26968944099379" height="74.26968944099379"
          />
    <circle cx="723.105" cy="488.895" r="18.565" fill="#547980"/>
    <g transform="translate(741.68,470.33) scale(1.8565) rotate(0)">
      <path d="M10 0L20 10L10 20L0 10L10 0Z" fill="#547980"/>
    </g>
    <rect x="704.54" y="507.46" width="37.13" height="37.13" fill="#594F4F"/>
    <circle cx="760.245" cy="526.025" r="18.565" fill="#E5FCC2"/>
    <rect x="780.7142857142857" y="468.42857142857144" width="78.07142857142857" height="78.07142857142857"
          />
    <g transform="translate(780.71,468.43) scale(1.952) rotate(0)">
      <path fill-rule="evenodd" clip-rule="evenodd"
            d="M10 20C15.5228 20 20 15.5228 20 10C20 4.47715 15.5228 0 10 0C4.47715 0 0 4.47715 0 10C0 15.5228 4.47715 20 10 20ZM10 17C13.866 17 17 13.866 17 10C17 6.13401 13.866 3 10 3C6.13401 3 3 6.13401 3 10C3 13.866 6.13401 17 10 17Z"
            fill="#9DE0AD"/>
    </g>
    <rect x="819.75" y="468.43" width="39.04" height="39.04" fill="#E5FCC2"/>
    <g transform="translate(780.71,507.46) scale(1.952) rotate(0)">
      <path fill-rule="evenodd" clip-rule="evenodd"
            d="M10 20C15.5228 20 20 15.5228 20 10C20 4.47715 15.5228 0 10 0C4.47715 0 0 4.47715 0 10C0 15.5228 4.47715 20 10 20ZM10 17C13.866 17 17 13.866 17 10C17 6.13401 13.866 3 10 3C6.13401 3 3 6.13401 3 10C3 13.866 6.13401 17 10 17Z"
            fill="#9DE0AD"/>
    </g>
    <circle cx="839.27" cy="526.98" r="19.52" fill="#547980"/>
    <rect x="858.7857142857142" y="468.42857142857144" width="78.07142857142857" height="78.07142857142857"
          />
    <g transform="translate(858.79,468.43) scale(1.952) rotate(0)">
      <path d="M10 0L20 10L10 20L0 10L10 0Z" fill="#E5FCC2"/>
    </g>
    <g transform="translate(897.82,468.43) scale(1.952) rotate(0)">
      <path d="M10 0L20 10L10 20L0 10L10 0Z" fill="#45ADA8"/>
    </g>
    <circle cx="878.31" cy="526.98" r="19.52" fill="#E5FCC2"/>
    <circle cx="917.34" cy="526.98" r="19.52" fill="#547980"/>
    <rect x="936.8571428571429" y="468.42857142857144" width="78.07142857142857" height="78.07142857142857"
          />
    <g transform="translate(936.86,468.43) scale(1.952) rotate(0)">
      <path d="M10 5L5 0L0 5L5 10L0 15L5 20L10 15L15 20L20 15L15 10L20 5L15 0L10 5Z" fill="#9DE0AD"/>
    </g>
    <g transform="translate(975.89,468.43) scale(1.952) rotate(0)">
      <path d="M10 0L20 10L10 20L0 10L10 0Z" fill="#9DE0AD"/>
    </g>
    <g transform="translate(936.86,507.46) scale(1.952) rotate(0)">
      <path d="M10 0L20 10L10 20L0 10L10 0Z" fill="#594F4F"/>
    </g>
    <g transform="translate(975.89,507.46) scale(1.952) rotate(0)">
      <path fill-rule="evenodd" clip-rule="evenodd"
            d="M10 20C15.5228 20 20 15.5228 20 10C20 4.47715 15.5228 0 10 0C4.47715 0 0 4.47715 0 10C0 15.5228 4.47715 20 10 20ZM10 17C13.866 17 17 13.866 17 10C17 6.13401 13.866 3 10 3C6.13401 3 3 6.13401 3 10C3 13.866 6.13401 17 10 17Z"
            fill="#594F4F"/>
    </g>
    <rect x="1014.9285714285714" y="468.42857142857144" width="78.07142857142857" height="78.07142857142857"
          />
    <rect x="1014.93" y="468.43" width="39.04" height="39.04" fill="#E5FCC2"/>
    <circle cx="1073.48" cy="487.95" r="19.52" fill="#547980"/>
    <g transform="translate(1014.93,507.46) scale(1.952) rotate(0)">
      <path d="M10 0L20 10L10 20L0 10L10 0Z" fill="#9DE0AD"/>
    </g>
    <rect x="1053.96" y="507.46" width="39.04" height="39.04" fill="#547980"/>
    <rect x="1094.9008695652174" y="470.3294409937888" width="74.26968944099379" height="74.26968944099379"
          />
    <g transform="translate(1094.9,470.33) scale(1.8565) rotate(0)">
      <path d="M10 5L5 0L0 5L5 10L0 15L5 20L10 15L15 20L20 15L15 10L20 5L15 0L10 5Z" fill="#E5FCC2"/>
    </g>
    <g transform="translate(1132.04,470.33) scale(1.8565) rotate(0)">
      <path d="M10 5L5 0L0 5L5 10L0 15L5 20L10 15L15 20L20 15L15 10L20 5L15 0L10 5Z" fill="#594F4F"/>
    </g>
    <circle cx="1113.4650000000001" cy="526.025" r="18.565" fill="#594F4F"/>
    <g transform="translate(1132.04,507.46) scale(1.8565) rotate(0)">
      <path fill-rule="evenodd" clip-rule="evenodd"
            d="M10 20C15.5228 20 20 15.5228 20 10C20 4.47715 15.5228 0 10 0C4.47715 0 0 4.47715 0 10C0 15.5228 4.47715 20 10 20ZM10 17C13.866 17 17 13.866 17 10C17 6.13401 13.866 3 10 3C6.13401 3 3 6.13401 3 10C3 13.866 6.13401 17 10 17Z"
            fill="#45ADA8"/>
    </g>
    <rect x="1176.2309316770186" y="473.5880745341615" width="67.75242236024845" height="67.75242236024845"
          />
    <g transform="translate(1176.23,473.59) scale(1.6940000000000002) rotate(0)">
      <path d="M10 0L20 10L10 20L0 10L10 0Z" fill="#9DE0AD"/>
    </g>
    <g transform="translate(1210.11,473.59) scale(1.6940000000000002) rotate(0)">
      <path d="M10 0L20 10L10 20L0 10L10 0Z" fill="#45ADA8"/>
    </g>
    <rect x="1210.11" y="507.46" width="33.88" height="33.88" fill="#E5FCC2"/>
    <rect x="1257.5609937888198" y="476.84670807453415" width="61.235155279503104" height="61.235155279503104"
          />
    <g transform="translate(1257.56,476.85) scale(1.5310000000000001) rotate(0)">
      <path d="M10 0L20 10L10 20L0 10L10 0Z" fill="#547980"/>
    </g>
    <g transform="translate(1288.18,476.85) scale(1.5310000000000001) rotate(0)">
      <path d="M10 5L5 0L0 5L5 10L0 15L5 20L10 15L15 20L20 15L15 10L20 5L15 0L10 5Z" fill="#E5FCC2"/>
    </g>
    <rect x="1420.2211180124223" y="483.3639751552795" width="48.20062111801242" height="48.20062111801242"
          />
    <g transform="translate(1420.22,483.36) scale(1.205) rotate(0)">
      <path d="M10 0L20 10L10 20L0 10L10 0Z" fill="#9DE0AD"/>
    </g>
    <g transform="translate(1420.22,507.46) scale(1.205) rotate(0)">
      <path d="M10 0L20 10L10 20L0 10L10 0Z" fill="#9DE0AD"/>
    </g>
    <rect x="1444.32" y="507.46" width="24.1" height="24.1" fill="#9DE0AD"/>
    <rect x="1582.8812422360247" y="489.88124223602483" width="35.16608695652174" height="35.16608695652174"
          />
    <circle cx="1609.25" cy="516.25" r="8.79" fill="#547980"/>
    <rect x="1664.2113043478262" y="493.1398757763975" width="28.648819875776397" height="28.648819875776397"
          />
    <rect x="554.9181366459627" y="554.9181366459627" width="61.235155279503104" height="61.235155279503104"
          />
    <g transform="translate(554.92,554.92) scale(1.5310000000000001) rotate(0)">
      <path d="M10 0L20 10L10 20L0 10L10 0Z" fill="#45ADA8"/>
    </g>
    <g transform="translate(585.54,554.92) scale(1.5310000000000001) rotate(0)">
      <path fill-rule="evenodd" clip-rule="evenodd"
            d="M10 20C15.5228 20 20 15.5228 20 10C20 4.47715 15.5228 0 10 0C4.47715 0 0 4.47715 0 10C0 15.5228 4.47715 20 10 20ZM10 17C13.866 17 17 13.866 17 10C17 6.13401 13.866 3 10 3C6.13401 3 3 6.13401 3 10C3 13.866 6.13401 17 10 17Z"
            fill="#45ADA8"/>
    </g>
    <g transform="translate(554.92,585.54) scale(1.5310000000000001) rotate(0)">
      <path d="M10 0L20 10L10 20L0 10L10 0Z" fill="#594F4F"/>
    </g>
    <rect x="585.54" y="585.54" width="30.62" height="30.62" fill="#45ADA8"/>
    <rect x="629.7309316770186" y="551.65950310559" width="67.75242236024845" height="67.75242236024845"
          />
    <g transform="translate(629.73,551.66) scale(1.6940000000000002) rotate(0)">
      <path d="M10 5L5 0L0 5L5 10L0 15L5 20L10 15L15 20L20 15L15 10L20 5L15 0L10 5Z" fill="#E5FCC2"/>
    </g>
    <g transform="translate(663.61,551.66) scale(1.6940000000000002) rotate(0)">
      <path d="M10 5L5 0L0 5L5 10L0 15L5 20L10 15L15 20L20 15L15 10L20 5L15 0L10 5Z" fill="#E5FCC2"/>
    </g>
    <g transform="translate(629.73,585.54) scale(1.6940000000000002) rotate(0)">
      <path fill-rule="evenodd" clip-rule="evenodd"
            d="M10 20C15.5228 20 20 15.5228 20 10C20 4.47715 15.5228 0 10 0C4.47715 0 0 4.47715 0 10C0 15.5228 4.47715 20 10 20ZM10 17C13.866 17 17 13.866 17 10C17 6.13401 13.866 3 10 3C6.13401 3 3 6.13401 3 10C3 13.866 6.13401 17 10 17Z"
            fill="#9DE0AD"/>
    </g>
    <rect x="704.5437267080745" y="548.4008695652174" width="74.26968944099379" height="74.26968944099379"
          />
    <g transform="translate(741.68,548.4) scale(1.8565) rotate(0)">
      <path d="M10 5L5 0L0 5L5 10L0 15L5 20L10 15L15 20L20 15L15 10L20 5L15 0L10 5Z" fill="#9DE0AD"/>
    </g>
    <rect x="704.54" y="585.54" width="37.13" height="37.13" fill="#594F4F"/>
    <rect x="741.68" y="585.54" width="37.13" height="37.13" fill="#9DE0AD"/>
    <rect x="780.7142857142857" y="546.5" width="78.07142857142857" height="78.07142857142857" />
    <g transform="translate(780.71,546.5) scale(1.952) rotate(0)">
      <path fill-rule="evenodd" clip-rule="evenodd"
            d="M10 20C15.5228 20 20 15.5228 20 10C20 4.47715 15.5228 0 10 0C4.47715 0 0 4.47715 0 10C0 15.5228 4.47715 20 10 20ZM10 17C13.866 17 17 13.866 17 10C17 6.13401 13.866 3 10 3C6.13401 3 3 6.13401 3 10C3 13.866 6.13401 17 10 17Z"
            fill="#E5FCC2"/>
    </g>
    <circle cx="839.27" cy="566.02" r="19.52" fill="#9DE0AD"/>
    <g transform="translate(780.71,585.54) scale(1.952) rotate(0)">
      <path d="M10 0L20 10L10 20L0 10L10 0Z" fill="#E5FCC2"/>
    </g>
    <rect x="819.75" y="585.54" width="39.04" height="39.04" fill="#9DE0AD"/>
    <rect x="858.7857142857142" y="546.5" width="78.07142857142857" height="78.07142857142857" />
    <g transform="translate(858.79,546.5) scale(1.952) rotate(0)">
      <path d="M10 0L20 10L10 20L0 10L10 0Z" fill="#547980"/>
    </g>
    <g transform="translate(897.82,546.5) scale(1.952) rotate(0)">
      <path fill-rule="evenodd" clip-rule="evenodd"
            d="M10 20C15.5228 20 20 15.5228 20 10C20 4.47715 15.5228 0 10 0C4.47715 0 0 4.47715 0 10C0 15.5228 4.47715 20 10 20ZM10 17C13.866 17 17 13.866 17 10C17 6.13401 13.866 3 10 3C6.13401 3 3 6.13401 3 10C3 13.866 6.13401 17 10 17Z"
            fill="#594F4F"/>
    </g>
    <circle cx="878.31" cy="605.06" r="19.52" fill="#45ADA8"/>
    <rect x="897.82" y="585.54" width="39.04" height="39.04" fill="#9DE0AD"/>
    <rect x="936.8571428571429" y="546.5" width="78.07142857142857" height="78.07142857142857" />
    <circle cx="956.38" cy="566.02" r="19.52" fill="#547980"/>
    <rect x="975.89" y="546.5" width="39.04" height="39.04" fill="#594F4F"/>
    <g transform="translate(936.86,585.54) scale(1.952) rotate(0)">
      <path d="M10 0L20 10L10 20L0 10L10 0Z" fill="#547980"/>
    </g>
    <rect x="975.89" y="585.54" width="39.04" height="39.04" fill="#547980"/>
    <rect x="1014.9285714285714" y="546.5" width="78.07142857142857" height="78.07142857142857" />
    <g transform="translate(1014.93,546.5) scale(1.952) rotate(0)">
      <path d="M10 0L20 10L10 20L0 10L10 0Z" fill="#594F4F"/>
    </g>
    <circle cx="1073.48" cy="566.02" r="19.52" fill="#594F4F"/>
    <g transform="translate(1014.93,585.54) scale(1.952) rotate(0)">
      <path d="M10 0L20 10L10 20L0 10L10 0Z" fill="#E5FCC2"/>
    </g>
    <g transform="translate(1053.96,585.54) scale(1.952) rotate(0)">
      <path d="M10 0L20 10L10 20L0 10L10 0Z" fill="#547980"/>
    </g>
    <rect x="1094.9008695652174" y="548.4008695652174" width="74.26968944099379" height="74.26968944099379"
          />
    <g transform="translate(1094.9,548.4) scale(1.8565) rotate(0)">
      <path fill-rule="evenodd" clip-rule="evenodd"
            d="M10 20C15.5228 20 20 15.5228 20 10C20 4.47715 15.5228 0 10 0C4.47715 0 0 4.47715 0 10C0 15.5228 4.47715 20 10 20ZM10 17C13.866 17 17 13.866 17 10C17 6.13401 13.866 3 10 3C6.13401 3 3 6.13401 3 10C3 13.866 6.13401 17 10 17Z"
            fill="#594F4F"/>
    </g>
    <circle cx="1113.4650000000001" cy="604.105" r="18.565" fill="#547980"/>
    <g transform="translate(1132.04,585.54) scale(1.8565) rotate(0)">
      <path fill-rule="evenodd" clip-rule="evenodd"
            d="M10 20C15.5228 20 20 15.5228 20 10C20 4.47715 15.5228 0 10 0C4.47715 0 0 4.47715 0 10C0 15.5228 4.47715 20 10 20ZM10 17C13.866 17 17 13.866 17 10C17 6.13401 13.866 3 10 3C6.13401 3 3 6.13401 3 10C3 13.866 6.13401 17 10 17Z"
            fill="#E5FCC2"/>
    </g>
    <rect x="1176.2309316770186" y="551.65950310559" width="67.75242236024845" height="67.75242236024845"
          />
    <g transform="translate(1176.23,551.66) scale(1.6940000000000002) rotate(0)">
      <path fill-rule="evenodd" clip-rule="evenodd"
            d="M10 20C15.5228 20 20 15.5228 20 10C20 4.47715 15.5228 0 10 0C4.47715 0 0 4.47715 0 10C0 15.5228 4.47715 20 10 20ZM10 17C13.866 17 17 13.866 17 10C17 6.13401 13.866 3 10 3C6.13401 3 3 6.13401 3 10C3 13.866 6.13401 17 10 17Z"
            fill="#E5FCC2"/>
    </g>
    <circle cx="1227.05" cy="568.6" r="16.94" fill="#45ADA8"/>
    <circle cx="1193.17" cy="602.48" r="16.94" fill="#547980"/>
    <rect x="1257.5609937888198" y="554.9181366459627" width="61.235155279503104" height="61.235155279503104"
          />
    <g transform="translate(1257.56,554.92) scale(1.5310000000000001) rotate(0)">
      <path fill-rule="evenodd" clip-rule="evenodd"
            d="M10 20C15.5228 20 20 15.5228 20 10C20 4.47715 15.5228 0 10 0C4.47715 0 0 4.47715 0 10C0 15.5228 4.47715 20 10 20ZM10 17C13.866 17 17 13.866 17 10C17 6.13401 13.866 3 10 3C6.13401 3 3 6.13401 3 10C3 13.866 6.13401 17 10 17Z"
            fill="#45ADA8"/>
    </g>
    <circle cx="1303.49" cy="570.2299999999999" r="15.31" fill="#594F4F"/>
    <rect x="1420.2211180124223" y="561.435403726708" width="48.20062111801242" height="48.20062111801242"
          />
    <g transform="translate(1420.22,561.44) scale(1.205) rotate(0)">
      <path d="M10 5L5 0L0 5L5 10L0 15L5 20L10 15L15 20L20 15L15 10L20 5L15 0L10 5Z" fill="#594F4F"/>
    </g>
    <circle cx="1456.37" cy="573.49" r="12.05" fill="#547980"/>
    <rect x="1501.5511801242237" y="564.6940372670807" width="41.68335403726708" height="41.68335403726708"
          />
    <g transform="translate(1501.55,564.69) scale(1.042) rotate(0)">
      <path d="M10 0L20 10L10 20L0 10L10 0Z" fill="#594F4F"/>
    </g>
    <g transform="translate(1522.39,585.54) scale(1.042) rotate(0)">
      <path d="M10 5L5 0L0 5L5 10L0 15L5 20L10 15L15 20L20 15L15 10L20 5L15 0L10 5Z" fill="#547980"/>
    </g>
    <rect x="405.29254658385094" y="639.5068322981366" width="48.20062111801242" height="48.20062111801242"
          />
    <rect x="405.29" y="639.51" width="24.1" height="24.1" fill="#45ADA8"/>
    <circle cx="441.44" cy="675.66" r="12.05" fill="#9DE0AD"/>
    <rect x="480.1053416149069" y="636.2481987577639" width="54.717888198757755" height="54.717888198757755"
          />
    <rect x="480.11" y="663.61" width="27.36" height="27.36" fill="#E5FCC2"/>
    <g transform="translate(507.46,663.61) scale(1.3679999999999999) rotate(0)">
      <path fill-rule="evenodd" clip-rule="evenodd"
            d="M10 20C15.5228 20 20 15.5228 20 10C20 4.47715 15.5228 0 10 0C4.47715 0 0 4.47715 0 10C0 15.5228 4.47715 20 10 20ZM10 17C13.866 17 17 13.866 17 10C17 6.13401 13.866 3 10 3C6.13401 3 3 6.13401 3 10C3 13.866 6.13401 17 10 17Z"
            fill="#547980"/>
    </g>
    <rect x="554.9181366459627" y="632.9895652173913" width="61.235155279503104" height="61.235155279503104"
          />
    <g transform="translate(554.92,663.61) scale(1.5310000000000001) rotate(0)">
      <path fill-rule="evenodd" clip-rule="evenodd"
            d="M10 20C15.5228 20 20 15.5228 20 10C20 4.47715 15.5228 0 10 0C4.47715 0 0 4.47715 0 10C0 15.5228 4.47715 20 10 20ZM10 17C13.866 17 17 13.866 17 10C17 6.13401 13.866 3 10 3C6.13401 3 3 6.13401 3 10C3 13.866 6.13401 17 10 17Z"
            fill="#9DE0AD"/>
    </g>
    <rect x="704.5437267080745" y="626.4722981366459" width="74.26968944099379" height="74.26968944099379"
          />
    <g transform="translate(704.54,626.47) scale(1.8565) rotate(0)">
      <path d="M10 5L5 0L0 5L5 10L0 15L5 20L10 15L15 20L20 15L15 10L20 5L15 0L10 5Z" fill="#547980"/>
    </g>
    <g transform="translate(741.68,626.47) scale(1.8565) rotate(0)">
      <path d="M10 5L5 0L0 5L5 10L0 15L5 20L10 15L15 20L20 15L15 10L20 5L15 0L10 5Z" fill="#594F4F"/>
    </g>
    <g transform="translate(704.54,663.61) scale(1.8565) rotate(0)">
      <path fill-rule="evenodd" clip-rule="evenodd"
            d="M10 20C15.5228 20 20 15.5228 20 10C20 4.47715 15.5228 0 10 0C4.47715 0 0 4.47715 0 10C0 15.5228 4.47715 20 10 20ZM10 17C13.866 17 17 13.866 17 10C17 6.13401 13.866 3 10 3C6.13401 3 3 6.13401 3 10C3 13.866 6.13401 17 10 17Z"
            fill="#547980"/>
    </g>
    <rect x="780.7142857142857" y="624.5714285714286" width="78.07142857142857" height="78.07142857142857"
          />
    <rect x="780.71" y="624.57" width="39.04" height="39.04" fill="#547980"/>
    <g transform="translate(819.75,624.57) scale(1.952) rotate(0)">
      <path d="M10 5L5 0L0 5L5 10L0 15L5 20L10 15L15 20L20 15L15 10L20 5L15 0L10 5Z" fill="#E5FCC2"/>
    </g>
    <g transform="translate(780.71,663.61) scale(1.952) rotate(0)">
      <path d="M10 0L20 10L10 20L0 10L10 0Z" fill="#45ADA8"/>
    </g>
    <g transform="translate(819.75,663.61) scale(1.952) rotate(0)">
      <path fill-rule="evenodd" clip-rule="evenodd"
            d="M10 20C15.5228 20 20 15.5228 20 10C20 4.47715 15.5228 0 10 0C4.47715 0 0 4.47715 0 10C0 15.5228 4.47715 20 10 20ZM10 17C13.866 17 17 13.866 17 10C17 6.13401 13.866 3 10 3C6.13401 3 3 6.13401 3 10C3 13.866 6.13401 17 10 17Z"
            fill="#594F4F"/>
    </g>
    <rect x="858.7857142857142" y="624.5714285714286" width="78.07142857142857" height="78.07142857142857"
          />
    <g transform="translate(858.79,624.57) scale(1.952) rotate(0)">
      <path d="M10 5L5 0L0 5L5 10L0 15L5 20L10 15L15 20L20 15L15 10L20 5L15 0L10 5Z" fill="#547980"/>
    </g>
    <g transform="translate(897.82,624.57) scale(1.952) rotate(0)">
      <path fill-rule="evenodd" clip-rule="evenodd"
            d="M10 20C15.5228 20 20 15.5228 20 10C20 4.47715 15.5228 0 10 0C4.47715 0 0 4.47715 0 10C0 15.5228 4.47715 20 10 20ZM10 17C13.866 17 17 13.866 17 10C17 6.13401 13.866 3 10 3C6.13401 3 3 6.13401 3 10C3 13.866 6.13401 17 10 17Z"
            fill="#E5FCC2"/>
    </g>
    <circle cx="878.31" cy="683.13" r="19.52" fill="#9DE0AD"/>
    <circle cx="917.34" cy="683.13" r="19.52" fill="#9DE0AD"/>
    <rect x="936.8571428571429" y="624.5714285714286" width="78.07142857142857" height="78.07142857142857"
          />
    <rect x="936.86" y="624.57" width="39.04" height="39.04" fill="#9DE0AD"/>
    <g transform="translate(975.89,624.57) scale(1.952) rotate(0)">
      <path d="M10 0L20 10L10 20L0 10L10 0Z" fill="#9DE0AD"/>
    </g>
    <g transform="translate(936.86,663.61) scale(1.952) rotate(0)">
      <path d="M10 5L5 0L0 5L5 10L0 15L5 20L10 15L15 20L20 15L15 10L20 5L15 0L10 5Z" fill="#E5FCC2"/>
    </g>
    <g transform="translate(975.89,663.61) scale(1.952) rotate(0)">
      <path d="M10 5L5 0L0 5L5 10L0 15L5 20L10 15L15 20L20 15L15 10L20 5L15 0L10 5Z" fill="#9DE0AD"/>
    </g>
    <rect x="1014.9285714285714" y="624.5714285714286" width="78.07142857142857" height="78.07142857142857"
          />
    <g transform="translate(1014.93,624.57) scale(1.952) rotate(0)">
      <path fill-rule="evenodd" clip-rule="evenodd"
            d="M10 20C15.5228 20 20 15.5228 20 10C20 4.47715 15.5228 0 10 0C4.47715 0 0 4.47715 0 10C0 15.5228 4.47715 20 10 20ZM10 17C13.866 17 17 13.866 17 10C17 6.13401 13.866 3 10 3C6.13401 3 3 6.13401 3 10C3 13.866 6.13401 17 10 17Z"
            fill="#45ADA8"/>
    </g>
    <g transform="translate(1053.96,624.57) scale(1.952) rotate(0)">
      <path d="M10 5L5 0L0 5L5 10L0 15L5 20L10 15L15 20L20 15L15 10L20 5L15 0L10 5Z" fill="#9DE0AD"/>
    </g>
    <g transform="translate(1014.93,663.61) scale(1.952) rotate(0)">
      <path fill-rule="evenodd" clip-rule="evenodd"
            d="M10 20C15.5228 20 20 15.5228 20 10C20 4.47715 15.5228 0 10 0C4.47715 0 0 4.47715 0 10C0 15.5228 4.47715 20 10 20ZM10 17C13.866 17 17 13.866 17 10C17 6.13401 13.866 3 10 3C6.13401 3 3 6.13401 3 10C3 13.866 6.13401 17 10 17Z"
            fill="#9DE0AD"/>
    </g>
    <g transform="translate(1053.96,663.61) scale(1.952) rotate(0)">
      <path d="M10 5L5 0L0 5L5 10L0 15L5 20L10 15L15 20L20 15L15 10L20 5L15 0L10 5Z" fill="#E5FCC2"/>
    </g>
    <rect x="1094.9008695652174" y="626.4722981366459" width="74.26968944099379" height="74.26968944099379"
          />
    <rect x="1094.9" y="626.47" width="37.13" height="37.13" fill="#E5FCC2"/>
    <g transform="translate(1132.04,626.47) scale(1.8565) rotate(0)">
      <path fill-rule="evenodd" clip-rule="evenodd"
            d="M10 20C15.5228 20 20 15.5228 20 10C20 4.47715 15.5228 0 10 0C4.47715 0 0 4.47715 0 10C0 15.5228 4.47715 20 10 20ZM10 17C13.866 17 17 13.866 17 10C17 6.13401 13.866 3 10 3C6.13401 3 3 6.13401 3 10C3 13.866 6.13401 17 10 17Z"
            fill="#547980"/>
    </g>
    <g transform="translate(1094.9,663.61) scale(1.8565) rotate(0)">
      <path d="M10 0L20 10L10 20L0 10L10 0Z" fill="#E5FCC2"/>
    </g>
    <g transform="translate(1132.04,663.61) scale(1.8565) rotate(0)">
      <path fill-rule="evenodd" clip-rule="evenodd"
            d="M10 20C15.5228 20 20 15.5228 20 10C20 4.47715 15.5228 0 10 0C4.47715 0 0 4.47715 0 10C0 15.5228 4.47715 20 10 20ZM10 17C13.866 17 17 13.866 17 10C17 6.13401 13.866 3 10 3C6.13401 3 3 6.13401 3 10C3 13.866 6.13401 17 10 17Z"
            fill="#547980"/>
    </g>
    <rect x="1257.5609937888198" y="632.9895652173913" width="61.235155279503104" height="61.235155279503104"
          />
    <g transform="translate(1288.18,632.99) scale(1.5310000000000001) rotate(0)">
      <path fill-rule="evenodd" clip-rule="evenodd"
            d="M10 20C15.5228 20 20 15.5228 20 10C20 4.47715 15.5228 0 10 0C4.47715 0 0 4.47715 0 10C0 15.5228 4.47715 20 10 20ZM10 17C13.866 17 17 13.866 17 10C17 6.13401 13.866 3 10 3C6.13401 3 3 6.13401 3 10C3 13.866 6.13401 17 10 17Z"
            fill="#547980"/>
    </g>
    <circle cx="1303.49" cy="678.92" r="15.31" fill="#E5FCC2"/>
    <rect x="106.50688553682342" y="731.078314108252" width="21.200514640638872" height="21.200514640638872"
          />
    <rect x="407.62014196983137" y="719.9058562555457" width="43.545430346051454" height="43.545430346051454"
          />
    <g transform="translate(429.39,741.68) scale(1.0885) rotate(0)">
      <path fill-rule="evenodd" clip-rule="evenodd"
            d="M10 20C15.5228 20 20 15.5228 20 10C20 4.47715 15.5228 0 10 0C4.47715 0 0 4.47715 0 10C0 15.5228 4.47715 20 10 20ZM10 17C13.866 17 17 13.866 17 10C17 6.13401 13.866 3 10 3C6.13401 3 3 6.13401 3 10C3 13.866 6.13401 17 10 17Z"
            fill="#E5FCC2"/>
    </g>
    <rect x="785.1755102040815" y="707.104081632653" width="69.14897959183672" height="69.14897959183672"
          />
    <circle cx="802.4649999999999" cy="724.385" r="17.285" fill="#9DE0AD"/>
    <g transform="translate(785.18,741.68) scale(1.7285) rotate(0)">
      <path fill-rule="evenodd" clip-rule="evenodd"
            d="M10 20C15.5228 20 20 15.5228 20 10C20 4.47715 15.5228 0 10 0C4.47715 0 0 4.47715 0 10C0 15.5228 4.47715 20 10 20ZM10 17C13.866 17 17 13.866 17 10C17 6.13401 13.866 3 10 3C6.13401 3 3 6.13401 3 10C3 13.866 6.13401 17 10 17Z"
            fill="#547980"/>
    </g>
    <rect x="941.3183673469388" y="707.104081632653" width="69.14897959183672" height="69.14897959183672"
          />
    <g transform="translate(941.32,707.1) scale(1.7285) rotate(0)">
      <path fill-rule="evenodd" clip-rule="evenodd"
            d="M10 20C15.5228 20 20 15.5228 20 10C20 4.47715 15.5228 0 10 0C4.47715 0 0 4.47715 0 10C0 15.5228 4.47715 20 10 20ZM10 17C13.866 17 17 13.866 17 10C17 6.13401 13.866 3 10 3C6.13401 3 3 6.13401 3 10C3 13.866 6.13401 17 10 17Z"
            fill="#594F4F"/>
    </g>
    <g transform="translate(975.89,707.1) scale(1.7285) rotate(0)">
      <path d="M10 5L5 0L0 5L5 10L0 15L5 20L10 15L15 20L20 15L15 10L20 5L15 0L10 5Z" fill="#E5FCC2"/>
    </g>
    <g transform="translate(941.32,741.68) scale(1.7285) rotate(0)">
      <path d="M10 5L5 0L0 5L5 10L0 15L5 20L10 15L15 20L20 15L15 10L20 5L15 0L10 5Z" fill="#547980"/>
    </g>
    <g transform="translate(975.89,741.68) scale(1.7285) rotate(0)">
      <path d="M10 0L20 10L10 20L0 10L10 0Z" fill="#E5FCC2"/>
    </g>
    <rect x="1019.3897959183673" y="707.104081632653" width="69.14897959183672" height="69.14897959183672"
          />
    <circle cx="1036.675" cy="724.385" r="17.285" fill="#594F4F"/>
    <g transform="translate(1053.96,707.1) scale(1.7285) rotate(0)">
      <path d="M10 5L5 0L0 5L5 10L0 15L5 20L10 15L15 20L20 15L15 10L20 5L15 0L10 5Z" fill="#9DE0AD"/>
    </g>
    <circle cx="1036.675" cy="758.9649999999999" r="17.285" fill="#45ADA8"/>
    <g transform="translate(1053.96,741.68) scale(1.7285) rotate(0)">
      <path d="M10 5L5 0L0 5L5 10L0 15L5 20L10 15L15 20L20 15L15 10L20 5L15 0L10 5Z" fill="#9DE0AD"/>
    </g>
    <rect x="1099.0905412599823" y="708.7333984028394" width="65.89034605146405" height="65.89034605146405"
          />
    <circle cx="1115.5649999999998" cy="725.205" r="16.475" fill="#9DE0AD"/>
    <rect x="1132.04" y="741.68" width="32.95" height="32.95" fill="#45ADA8"/>
    <rect x="1179.9550842945873" y="711.526512866016" width="60.304117125110906" height="60.304117125110906"
          />
    <circle cx="1195.035" cy="726.605" r="15.075" fill="#9DE0AD"/>
    <g transform="translate(1210.11,711.53) scale(1.5074999999999998) rotate(0)">
      <path d="M10 0L20 10L10 20L0 10L10 0Z" fill="#45ADA8"/>
    </g>
    <g transform="translate(1179.96,741.68) scale(1.5074999999999998) rotate(0)">
      <path d="M10 5L5 0L0 5L5 10L0 15L5 20L10 15L15 20L20 15L15 10L20 5L15 0L10 5Z" fill="#547980"/>
    </g>
    <g transform="translate(1210.11,741.68) scale(1.5074999999999998) rotate(0)">
      <path d="M10 0L20 10L10 20L0 10L10 0Z" fill="#9DE0AD"/>
    </g>
    <rect x="1260.8196273291926" y="714.3196273291925" width="54.717888198757755" height="54.717888198757755"
          />
    <g transform="translate(1260.82,714.32) scale(1.3679999999999999) rotate(0)">
      <path d="M10 0L20 10L10 20L0 10L10 0Z" fill="#E5FCC2"/>
    </g>
    <circle cx="1301.8600000000001" cy="728" r="13.68" fill="#45ADA8"/>
    <g transform="translate(1260.82,741.68) scale(1.3679999999999999) rotate(0)">
      <path d="M10 5L5 0L0 5L5 10L0 15L5 20L10 15L15 20L20 15L15 10L20 5L15 0L10 5Z" fill="#E5FCC2"/>
    </g>
    <g transform="translate(1288.18,741.68) scale(1.3679999999999999) rotate(0)">
      <path d="M10 0L20 10L10 20L0 10L10 0Z" fill="#9DE0AD"/>
    </g>
    <rect x="1341.6841703637976" y="717.1127417923691" width="49.131659272404605" height="49.131659272404605"
          />
    <g transform="translate(1341.68,717.11) scale(1.2285) rotate(0)">
      <path d="M10 5L5 0L0 5L5 10L0 15L5 20L10 15L15 20L20 15L15 10L20 5L15 0L10 5Z" fill="#594F4F"/>
    </g>
    <rect x="1366.25" y="717.11" width="24.57" height="24.57" fill="#E5FCC2"/>
    <g transform="translate(1366.25,741.68) scale(1.2285) rotate(0)">
      <path d="M10 5L5 0L0 5L5 10L0 15L5 20L10 15L15 20L20 15L15 10L20 5L15 0L10 5Z" fill="#594F4F"/>
    </g>
    <rect x="182.90244543034606" y="807.4738740017746" width="24.55225199645075" height="24.55225199645075"
          />
    <rect x="486.25019343389533" y="798.5359077196096" width="42.42818456078083" height="42.42818456078083"
          />
    <g transform="translate(486.25,798.54) scale(1.0605) rotate(0)">
      <path fill-rule="evenodd" clip-rule="evenodd"
            d="M10 20C15.5228 20 20 15.5228 20 10C20 4.47715 15.5228 0 10 0C4.47715 0 0 4.47715 0 10C0 15.5228 4.47715 20 10 20ZM10 17C13.866 17 17 13.866 17 10C17 6.13401 13.866 3 10 3C6.13401 3 3 6.13401 3 10C3 13.866 6.13401 17 10 17Z"
            fill="#45ADA8"/>
    </g>
    <g transform="translate(507.46,819.75) scale(1.0605) rotate(0)">
      <path d="M10 0L20 10L10 20L0 10L10 0Z" fill="#45ADA8"/>
    </g>
    <rect x="562.0871304347826" y="796.3014161490682" width="46.897167701863346" height="46.897167701863346"
          />
    <g transform="translate(562.09,796.3) scale(1.1724999999999999) rotate(0)">
      <path d="M10 0L20 10L10 20L0 10L10 0Z" fill="#E5FCC2"/>
    </g>
    <g transform="translate(585.54,796.3) scale(1.1724999999999999) rotate(0)">
      <path d="M10 0L20 10L10 20L0 10L10 0Z" fill="#594F4F"/>
    </g>
    <g transform="translate(562.09,819.75) scale(1.1724999999999999) rotate(0)">
      <path d="M10 0L20 10L10 20L0 10L10 0Z" fill="#45ADA8"/>
    </g>
    <rect x="585.54" y="819.75" width="23.45" height="23.45" fill="#594F4F"/>
    <rect x="637.9240674356699" y="794.066924578527" width="51.366150842945856" height="51.366150842945856"
          />
    <g transform="translate(663.61,794.07) scale(1.284) rotate(0)">
      <path fill-rule="evenodd" clip-rule="evenodd"
            d="M10 20C15.5228 20 20 15.5228 20 10C20 4.47715 15.5228 0 10 0C4.47715 0 0 4.47715 0 10C0 15.5228 4.47715 20 10 20ZM10 17C13.866 17 17 13.866 17 10C17 6.13401 13.866 3 10 3C6.13401 3 3 6.13401 3 10C3 13.866 6.13401 17 10 17Z"
            fill="#594F4F"/>
    </g>
    <rect x="713.7610044365572" y="791.8324330079857" width="55.83513398402839" height="55.83513398402839"
          />
    <g transform="translate(713.76,791.83) scale(1.3960000000000001) rotate(0)">
      <path d="M10 0L20 10L10 20L0 10L10 0Z" fill="#594F4F"/>
    </g>
    <g transform="translate(741.68,791.83) scale(1.3960000000000001) rotate(0)">
      <path fill-rule="evenodd" clip-rule="evenodd"
            d="M10 20C15.5228 20 20 15.5228 20 10C20 4.47715 15.5228 0 10 0C4.47715 0 0 4.47715 0 10C0 15.5228 4.47715 20 10 20ZM10 17C13.866 17 17 13.866 17 10C17 6.13401 13.866 3 10 3C6.13401 3 3 6.13401 3 10C3 13.866 6.13401 17 10 17Z"
            fill="#E5FCC2"/>
    </g>
    <g transform="translate(741.68,819.75) scale(1.3960000000000001) rotate(0)">
      <path d="M10 0L20 10L10 20L0 10L10 0Z" fill="#594F4F"/>
    </g>
    <rect x="868.6004081632652" y="790.5289795918367" width="58.442040816326525" height="58.442040816326525"
          />
    <circle cx="912.4300000000001" cy="805.14" r="14.61" fill="#45ADA8"/>
    <circle cx="912.4300000000001" cy="834.36" r="14.61" fill="#594F4F"/>
    <rect x="946.6718367346939" y="790.5289795918367" width="58.442040816326525" height="58.442040816326525"
          />
    <rect x="946.67" y="790.53" width="29.22" height="29.22" fill="#547980"/>
    <rect x="1104.1181472937" y="791.8324330079857" width="55.83513398402839" height="55.83513398402839"
          />
    <rect x="1345.0359077196097" y="798.5359077196096" width="42.42818456078083" height="42.42818456078083"
          />
    <rect x="1345.04" y="798.54" width="21.21" height="21.21" fill="#45ADA8"/>
    <rect x="1366.25" y="798.54" width="21.21" height="21.21" fill="#9DE0AD"/>
    <rect x="1345.04" y="819.75" width="21.21" height="21.21" fill="#45ADA8"/>
    <rect x="642.3930505767524" y="876.6073362910381" width="42.42818456078083" height="42.42818456078083"
          />
    <g transform="translate(642.39,876.61) scale(1.0605) rotate(0)">
      <path d="M10 5L5 0L0 5L5 10L0 15L5 20L10 15L15 20L20 15L15 10L20 5L15 0L10 5Z" fill="#547980"/>
    </g>
    <g transform="translate(663.61,876.61) scale(1.0605) rotate(0)">
      <path d="M10 0L20 10L10 20L0 10L10 0Z" fill="#45ADA8"/>
    </g>
    <g transform="translate(663.61,897.82) scale(1.0605) rotate(0)">
      <path d="M10 0L20 10L10 20L0 10L10 0Z" fill="#45ADA8"/>
    </g>
    <rect x="873.9538775510204" y="873.9538775510204" width="47.73510204081633" height="47.73510204081633"
          />
    <rect x="897.82" y="873.95" width="23.87" height="23.87" fill="#9DE0AD"/>
    <g transform="translate(873.95,897.82) scale(1.1935) rotate(0)">
      <path d="M10 5L5 0L0 5L5 10L0 15L5 20L10 15L15 20L20 15L15 10L20 5L15 0L10 5Z" fill="#9DE0AD"/>
    </g>
    <g transform="translate(897.82,897.82) scale(1.1935) rotate(0)">
      <path d="M10 0L20 10L10 20L0 10L10 0Z" fill="#547980"/>
    </g>
    <rect x="952.025306122449" y="873.9538775510204" width="47.73510204081633" height="47.73510204081633"
          />
    <rect x="975.89" y="897.82" width="23.87" height="23.87" fill="#9DE0AD"/>
    <rect x="1188.8930505767523" y="876.6073362910381" width="42.42818456078083" height="42.42818456078083"
          />
    <circle cx="1199.4950000000001" cy="887.215" r="10.605" fill="#594F4F"/>
    <circle cx="1220.715" cy="908.4250000000001" r="10.605" fill="#547980"/>
    <rect x="1348.3876450754215" y="879.95907364685" width="35.72470984915705" height="35.72470984915705"
          />
    <g transform="translate(1366.25,897.82) scale(0.893) rotate(0)">
      <path fill-rule="evenodd" clip-rule="evenodd"
            d="M10 20C15.5228 20 20 15.5228 20 10C20 4.47715 15.5228 0 10 0C4.47715 0 0 4.47715 0 10C0 15.5228 4.47715 20 10 20ZM10 17C13.866 17 17 13.866 17 10C17 6.13401 13.866 3 10 3C6.13401 3 3 6.13401 3 10C3 13.866 6.13401 17 10 17Z"
            fill="#9DE0AD"/>
    </g>
    <rect x="1587.6295368234248" y="884.9866796805678" width="25.669497781721383" height="25.669497781721383"
          />
    <rect x="1035.4502040816326" y="957.3787755102042" width="37.02816326530611" height="37.02816326530611"
          />
    <rect x="1035.45" y="957.38" width="18.51" height="18.51" fill="#547980"/>
    <g transform="translate(1035.45,975.89) scale(0.9255000000000001) rotate(0)">
      <path fill-rule="evenodd" clip-rule="evenodd"
            d="M10 20C15.5228 20 20 15.5228 20 10C20 4.47715 15.5228 0 10 0C4.47715 0 0 4.47715 0 10C0 15.5228 4.47715 20 10 20ZM10 17C13.866 17 17 13.866 17 10C17 6.13401 13.866 3 10 3C6.13401 3 3 6.13401 3 10C3 13.866 6.13401 17 10 17Z"
            fill="#45ADA8"/>
    </g>
    <rect x="1193.362033717835" y="959.1477480035493" width="33.490218278615785" height="33.490218278615785"
          />
    <circle cx="1201.735" cy="967.525" r="8.375" fill="#E5FCC2"/>
    <g transform="translate(1210.11,959.15) scale(0.8375) rotate(0)">
      <path d="M10 5L5 0L0 5L5 10L0 15L5 20L10 15L15 20L20 15L15 10L20 5L15 0L10 5Z" fill="#594F4F"/>
    </g>
    <rect x="1351.7393824312335" y="961.3822395740906" width="29.021235137533267" height="29.021235137533267"
          />
    <rect x="418.7925998225377" y="1043.3640283939662" width="21.200514640638858" height="21.200514640638858"
          />
    <rect x="651.3310168589175" y="1041.6881597160605" width="24.55225199645075" height="24.55225199645075"
          />
    <rect x="1040.8036734693878" y="1040.8036734693878" width="26.321224489795917" height="26.321224489795917"
          />
    <rect x="1053.96" y="1040.8" width="13.16" height="13.16" fill="#547980"/>
    <rect x="1040.8" y="1053.96" width="13.16" height="13.16" fill="#45ADA8"/>
    <rect x="1512.351222715173" y="1043.9226512866016" width="20.08326885536824" height="20.08326885536824"
          />
  </g>
</svg>
