<?xml version="1.0" encoding="UTF-8" standalone="no"?>
<!DOCTYPE svg PUBLIC "-//W3C//DTD SVG 1.1//EN" "http://www.w3.org/Graphics/SVG/1.1/DTD/svg11.dtd">
<svg width="100%" height="100%" viewBox="0 0 5334 3642" version="1.1" xmlns="http://www.w3.org/2000/svg" xmlns:xlink="http://www.w3.org/1999/xlink" xml:space="preserve" xmlns:serif="http://www.serif.com/" style="fill-rule:evenodd;clip-rule:evenodd;stroke-linejoin:round;stroke-miterlimit:2;">
    <g transform="matrix(4.16667,0,0,4.16667,0,0)">
        <g>
            <g id="Flächen">
                <g transform="matrix(0.857071,0.0167802,-0.00750797,0.383479,632.846,355.397)">
                    <g style="filter:url(#_Effect1);">
                        <path d="M384.536,747.573C548.647,747.573 682.467,608.915 682.467,659.98C682.467,711.045 547.181,811.288 383.07,811.288C218.959,811.288 85.721,769.829 85.721,718.764C85.721,667.699 220.425,747.573 384.536,747.573Z" style="fill-opacity:0.83;"/>
                    </g>
                </g>
                <g transform="matrix(0.567893,0.12734,-0.0577989,0.257763,205.996,327.29)">
                    <g style="filter:url(#_Effect2);">
                        <path d="M382.662,707.868C546.773,707.868 680.419,667.699 680.419,718.764C680.419,769.829 547.181,811.288 383.07,811.288C218.959,811.288 85.721,769.829 85.721,718.764C85.721,667.699 218.551,707.868 382.662,707.868Z" style="fill-opacity:0.83;"/>
                    </g>
                </g>
                <path d="M446.026,248.717C441.804,242.292 429.363,233.124 408.353,237.707C394.234,240.787 376.095,259.269 376.095,259.269C295.736,258.153 219.351,262.459 149.216,275.292C109.093,284.323 92.823,300.722 87.376,350.988C117.161,275.419 173.48,264.374 253.942,277.801C302.38,288.93 351.046,303.131 400.037,321.691C380.944,308.349 404.031,298.032 427.573,293.654C420.837,273.359 426.988,258.38 446.026,248.717Z" style="fill:rgb(87,93,109);fill-opacity:0.5;"/>
                <path d="M1020.26,445.598C1020.22,445.62 1020.2,445.66 1020.19,445.704C1020.19,445.749 1020.2,445.793 1020.24,445.824C1034.74,459.542 1048.16,453.739 1034.55,443.413C1034.08,443.051 1033.51,442.821 1032.92,442.747C1027.5,442.063 1023.84,443.494 1020.26,445.598Z" style="fill:rgb(255,214,0);"/>
                <path d="M610.037,227.528C610.037,227.528 487.022,230.189 490.863,267.129C487.451,272.021 517.393,348.701 517.393,348.701C517.393,348.701 554.96,357.066 571.011,355.074C544.171,314.98 515.984,281.207 517.393,266.422C520.389,234.965 604.162,237.658 610.037,227.528Z" style="fill:rgb(53,60,83);"/>
                <g transform="matrix(1.77828,0,0,1.36069,-499.934,-206.296)">
                    <path d="M627.833,472.858C646.165,473.121 668.523,510.455 673.352,552.587C675.726,573.296 676.363,595.986 675.711,612.045C672.815,618.438 670.304,624.1 664.382,625.629C653.689,628.375 635.73,628.483 628.808,628.018C606.917,626.548 590.184,593.146 588.081,550.424C585.747,503.022 605.895,472.543 627.833,472.858Z" style="fill:rgb(70,73,82);fill-opacity:0.45;"/>
                </g>
                <path d="M517.393,348.701L490.592,266.283C490.592,266.283 485.367,251.224 472.404,248.843C437.694,242.467 421.841,256.856 426.989,292.943C440.549,291.178 462.995,296.047 469.594,303.549C487.712,324.145 486.978,343.512 486.978,343.512L517.393,348.701Z" style="fill:rgb(58,58,58);"/>
                <g transform="matrix(1.77828,0,0,1.36069,-963.866,-312.117)">
                    <path d="M617.554,474.16C619.845,473.866 624.822,470.118 632.435,478.879C640.653,488.336 646.411,509.832 649.395,535.871C650.53,557.408 650.811,577.297 654.334,592.289C655.961,599.217 658.537,604.511 663.397,607.626C662.282,611.115 657.874,615.506 654.372,616.406C643.679,619.151 625.701,619.62 618.798,618.794C606.654,617.342 592.639,593.264 590.536,550.542C588.203,503.139 599.237,476.511 617.554,474.16Z" style="fill:rgb(70,73,82);fill-opacity:0.45;"/>
                </g>
                <path d="M887.417,318.919L908.8,330.081C876.697,318.798 798.098,249.32 773.692,234.78C773.692,234.78 568.385,217.826 532.615,248.261C516.728,258.857 513.942,268.043 521.175,281.529C528.407,295.016 571.011,355.074 571.011,355.074C571.011,355.074 849.9,357.494 908.8,330.081" style="fill:rgb(207,211,222);"/>
                <path d="M81.123,378.288C81.123,378.288 103.556,320.058 130.431,324.969C157.305,329.88 196.269,350.399 194.745,472.363C196.454,487.752 201.332,506.943 212.712,513.11C221.502,517.874 240.862,520.252 267.522,526.41C297.708,533.383 374.964,546.865 439.293,564.527C466.021,571.865 492.728,584.573 511.065,590.83C529.26,597.038 539.182,596.813 540.959,599.854C514.222,477.933 541.874,429.665 611.448,429.567L626.25,437C676.49,452.888 702.385,516.132 701.067,632.313C987.04,651.008 1151.18,637.433 1200.26,593.386C1203.6,471.326 1172.31,408.166 1122.08,377.224C1060.89,358.174 1004.14,337.629 908.8,330.081C875.558,344.701 729.682,355.48 561.888,355.062C561.888,355.062 510.682,348.886 460.23,338.27C456.345,337.452 452.559,334.885 448.706,334.015C444.197,332.998 439.631,333.669 435.236,332.583C415.148,327.616 396.663,321.946 383.417,315.692C327.148,297.173 219.888,260.055 169.927,275.69C124.238,282.278 80.465,331.897 81.123,378.288Z" style="fill:rgb(53,60,83);"/>
                <path d="M81.123,378.288C81.123,378.288 103.556,320.058 130.431,324.969C157.305,329.88 196.269,350.399 194.745,472.363C196.454,487.752 201.332,506.943 212.712,513.11C221.502,517.874 240.862,520.252 267.522,526.41C297.708,533.383 374.964,546.865 439.293,564.527C466.021,571.865 492.728,584.573 511.065,590.83C529.26,597.038 539.182,596.813 540.959,599.854C514.222,477.933 541.874,429.665 611.448,429.567L626.25,437C676.49,452.888 702.385,516.132 701.067,632.313C987.04,651.008 1151.18,637.433 1200.26,593.386C1203.6,471.326 1172.31,408.166 1122.08,377.224C1060.89,358.174 1004.14,337.629 908.8,330.081C875.558,344.701 729.682,355.48 561.888,355.062C561.888,355.062 510.682,348.886 460.23,338.27C456.345,337.452 452.559,334.885 448.706,334.015C444.197,332.998 439.631,333.669 435.236,332.583C415.148,327.616 396.663,321.946 383.417,315.692C327.148,297.173 219.888,260.055 169.927,275.69C124.238,282.278 80.465,331.897 81.123,378.288Z" style="fill:rgb(53,60,83);"/>
                <path d="M486.978,343.512C486.449,338.089 487.575,316.209 466.26,301.097C450.922,290.222 419.893,294.987 410.557,298.039C378.613,308.484 400.037,321.691 400.037,321.691C410.887,326.394 422.42,329.786 435.02,331.136C440.831,333.228 446.996,331.814 453.308,333.506C456.436,334.345 459.699,337.688 462.942,338.836C470.605,341.549 478.53,342.372 486.978,343.512Z" style="fill:rgb(107,107,107);"/>
            </g>
            <g id="Linien" transform="matrix(1,0,0,1,5.57974,8.69335)">
                <path d="M457.971,342.92C458.911,337.168 458.548,332.991 457.136,329.699C456.25,327.633 454.892,326.013 453.216,324.688C450.812,322.787 447.623,321.648 443.875,320.959C441.118,320.452 438.004,320.292 434.587,320.156C431.188,320.3 428.129,320.624 424.236,320.508C421.348,320.422 418.122,320.162 413.946,319.27C417.84,321.299 420.947,322.508 423.809,323.309C427.655,324.385 430.816,324.639 434.253,325.241C438.987,325.624 443.034,326.209 446.372,327.251C447.862,327.716 449.199,328.252 450.388,328.981C451.195,329.476 451.966,329.977 452.653,330.64C455.258,333.152 457.06,336.844 457.971,342.92Z"/>
                <path d="M1179.63,521.202C1160.43,528.926 1134.88,534.678 1103,538.954C1094.73,540.063 1086.04,541.086 1076.92,542.053C1068.57,542.939 1059.85,543.795 1050.78,544.566C1036,545.821 1020.26,546.863 1003.57,547.73C993.412,548.257 982.901,548.709 972.036,549.151C960.591,549.616 948.76,550.072 936.528,550.444C910.635,551.231 882.996,551.756 853.56,551.798C882.99,553.106 910.643,553.996 936.567,554.25C948.832,554.37 960.701,554.371 972.18,554.182C983.088,554.002 993.639,553.65 1003.83,553.193C1020.61,552.439 1036.42,551.371 1051.26,550.024C1060.38,549.196 1069.14,548.268 1077.53,547.185C1086.68,546.002 1095.39,544.658 1103.66,543.176C1135.49,537.472 1160.77,530 1179.63,521.202Z"/>
                <path d="M1165.87,584.693C1142.9,590.764 1118.16,595.598 1092.89,599.5C1076.6,602.014 1060.11,604.077 1043.71,605.772C1018.36,608.393 993.267,609.99 969.58,610.277C952.175,610.487 935.544,610.056 920.142,608.867C870.997,605.074 834.447,593.352 826.215,570.934C833.249,592.869 866.622,606.461 912.64,612.41C925.934,614.129 940.283,615.205 955.349,615.58C972.42,616.005 990.41,615.543 1008.81,614.32C1026.3,613.159 1044.16,611.353 1061.96,608.737C1079.66,606.135 1097.27,602.727 1114.44,598.794C1132.25,594.712 1149.52,589.941 1165.87,584.693Z"/>
                <path d="M539.36,297.089C541.145,291.327 542.998,286.158 544.644,281.204C545.244,279.399 545.802,277.657 546.317,275.941C546.86,274.129 547.344,272.365 547.82,270.661C549.176,265.809 550.517,261.476 551.807,257.637C552.417,255.824 552.969,254.118 553.541,252.521C554.563,249.67 555.53,247.198 556.638,245.096C559.398,239.861 562.528,237.042 566.309,236.707C561.086,236.032 555.842,239.82 550.739,248.13C549.378,250.346 548.058,252.884 546.843,255.788C545.593,258.775 544.474,262.141 543.439,265.843C542.553,269.01 541.674,272.42 541.052,276.11C540.496,279.412 540.175,282.878 539.884,286.578C539.617,289.957 539.498,293.4 539.36,297.089Z"/>
                <path d="M372.819,297.089C374.481,291.815 376.232,286.942 377.959,282.3C379.892,277.109 381.906,272.384 383.839,267.972C386.065,262.892 388.225,258.312 390.567,254.327C393.368,249.562 396.342,245.662 399.522,242.596C403.531,238.732 407.821,236.193 412.734,235.251C419.567,233.941 427.299,235.371 436.194,239.904C425.806,232.566 416.349,230.247 407.817,232.339C403.612,233.37 399.638,235.502 395.957,238.677C392.238,241.885 388.839,246.216 385.777,251.543C383.348,255.768 381.057,260.627 379.181,266.167C377.6,270.839 376.344,275.964 375.233,281.526C374.258,286.411 373.51,291.57 372.819,297.089Z"/>
                <path d="M349.329,250.577C336.088,250.036 323.248,249.576 310.791,249.361C297.44,249.131 284.573,249.042 272.212,249.311C258.717,249.604 245.846,250.292 233.653,251.141C219.946,252.095 207.092,253.315 195.191,254.865C184.176,256.299 173.98,258.023 164.654,259.943C129.965,267.086 107.354,276.89 99.923,288.927C108.319,276.931 133.079,268.758 170.451,263.283C181.276,261.697 193.15,260.316 205.995,259.063C222.356,257.467 240.288,256.197 259.613,255.037C271.088,254.348 283.039,253.637 295.454,252.987C312.592,252.089 330.554,251.165 349.329,250.577Z"/>
                <g transform="matrix(0.999982,-0.00605135,0.00605135,0.999982,-8.11554,6.26984)">
                    <path d="M924.764,322.031C934.521,323.367 944.527,325.086 954.892,327.034C964.565,328.852 974.481,330.967 984.733,333.219C989.934,334.361 995.223,335.502 1000.59,336.709C1008.33,338.45 1016.23,340.284 1024.3,342.27C1030.76,343.858 1037.31,345.556 1043.98,347.274C1050.43,348.933 1056.98,350.629 1063.65,352.382C1082.4,357.31 1101.99,362.716 1122.4,369.06C1102.46,361.246 1083.37,354.168 1064.9,348.152C1058.31,346.006 1051.8,344.006 1045.37,342.162C1038.71,340.25 1032.12,338.529 1025.63,336.906C1017.52,334.874 1009.56,333.016 1001.75,331.385C996.321,330.253 990.972,329.206 985.684,328.315C975.272,326.56 965.148,325.259 955.301,324.23C944.786,323.131 934.627,322.459 924.764,322.031Z"/>
                </g>
                <path d="M671.341,364.134C671.341,364.134 701.631,373.896 743.316,388.917C764.862,396.681 789.474,405.77 814.459,415.816C845.832,427.968 878.169,444 905.291,455.412C921.005,462.023 935.003,467.063 946.029,469.13C965.915,472.685 991.124,472.028 1016.12,469.355C1067.97,463.812 1118.87,449.906 1118.87,449.906C1118.87,449.906 1067.67,461.93 1015.81,465.971C991.193,467.89 966.433,468.063 946.996,464.086C939.435,462.598 930.463,459.595 920.46,455.691C907.953,450.811 893.874,444.485 878.981,437.775C858.922,428.738 837.39,419.022 816.33,410.964C791.016,401.61 766.144,393.078 744.298,386.039C702.096,372.441 671.341,364.134 671.341,364.134Z"/>
                <path d="M970.118,342.92C978.062,346.329 985.936,350.04 993.887,353.955C1001.59,357.75 1009.27,361.812 1017.04,366.036C1021.08,368.23 1025.15,370.433 1029.23,372.714C1035.21,376.056 1041.23,379.52 1047.26,383.17C1052.15,386.132 1057.05,389.226 1061.99,392.382C1066.81,395.463 1071.67,398.615 1076.57,401.868C1090.53,411.152 1104.68,421.245 1118.87,432.682C1105.64,420.039 1092.5,408.528 1079.13,398.28C1074.42,394.668 1069.68,391.229 1064.91,387.963C1060.01,384.612 1055.07,381.469 1050.13,378.448C1044.05,374.726 1037.96,371.206 1031.85,367.934C1027.67,365.701 1023.5,363.562 1019.3,361.581C1011.23,357.776 1003.12,354.428 995.017,351.356C986.703,348.204 978.409,345.461 970.118,342.92Z"/>
                <path d="M1165.05,466.608C1156.86,458.621 1149.05,449.508 1141.88,440.2C1134.37,430.468 1127.69,420.495 1122.18,411.305C1118.69,405.493 1115.66,400.019 1113.3,395.074C1109.99,388.138 1107.94,382.355 1107.77,378.403C1107.72,377.117 1107.69,376.1 1108.36,375.598C1108.75,375.308 1109.3,375.313 1110,375.384C1118.94,376.266 1127.36,380.664 1135.16,386.813C1142.46,392.568 1149.21,399.863 1155.11,407.695C1170.73,428.415 1180.56,452.61 1179.5,460.324C1181.3,451.406 1170.11,419.257 1151.08,395.828C1145.8,389.339 1139.91,383.541 1133.56,379.078C1126.4,374.05 1118.64,370.77 1110.58,369.885C1108.38,369.648 1106.67,370.084 1105.38,370.912C1103.86,371.891 1102.81,373.466 1102.4,375.67C1101.42,380.952 1104.74,391.406 1111.76,403.802C1116.55,412.259 1123,421.72 1130.54,431.172C1140.6,443.767 1152.63,456.266 1165.05,466.608Z"/>
                <path d="M924.963,500.581C905.115,478.907 878.919,458.533 851.869,442.316C839.972,435.183 827.918,428.853 816.183,423.58C793.659,413.459 772.338,407.155 755.775,405.815C743.89,404.853 734.333,406.561 728.167,410.997C716.615,419.348 714.375,430.063 718.997,441.312C723.645,452.622 735.678,464.624 752.238,474.936C781.312,493.041 824.342,506.203 863.84,502.84C824.683,504.766 782.69,490.203 754.487,471.441C742.304,463.336 732.734,454.469 727.193,445.775C720.005,434.495 719.991,423.528 731.361,415.451C736.71,411.629 745.041,410.546 755.33,411.363C771.423,412.64 792.057,418.859 814.103,428.317C825.779,433.325 837.854,439.211 849.845,445.831C877.301,460.99 904.31,479.905 924.963,500.581Z"/>
                <path d="M349.329,285.211C349.329,285.211 355.556,274.121 364.626,262.117C366.921,259.079 369.392,255.997 371.946,252.966C377.677,246.164 383.957,239.77 390.834,236.388C394.191,234.634 397.386,233.329 400.384,232.287C406.077,230.308 411.097,229.423 415.56,229.393C431.218,229.286 439.586,238.693 439.586,238.693C439.586,238.693 432.068,227.711 415.729,225.975C410.874,225.46 405.26,225.752 398.897,227.48C395.586,228.38 392.105,229.748 388.403,231.498C380.926,235.257 373.747,241.968 367.864,249.696C365.378,252.962 363.152,256.408 361.168,259.816C353.51,272.967 349.329,285.211 349.329,285.211Z"/>
                <path d="M712.512,332.848C712.512,332.848 712.282,324.282 718.408,314.958C719.651,313.066 721.151,311.155 722.95,309.2C725.185,306.771 727.863,304.279 731.303,302.013C734.119,300.045 736.821,298.66 739.329,297.58C742.497,296.216 745.358,295.372 748.03,295.051C758.931,293.738 765.888,299.718 765.888,299.718C765.888,299.718 759.702,291.828 747.891,291.28C744.779,291.136 741.301,291.518 737.506,292.764C734.567,293.728 731.498,295.319 728.226,297.422C724.372,300.051 721.244,302.804 718.902,305.717C717.001,308.081 715.569,310.492 714.526,312.858C712.938,316.46 712.197,319.857 711.9,322.837C711.301,328.841 712.512,332.848 712.512,332.848Z"/>
                <path d="M580.701,424.223C565.326,426.405 553.058,432.323 543.737,441.799C540.49,445.101 537.63,448.85 535.15,453.012C532.828,456.908 530.873,461.185 529.226,465.789C526.606,473.108 524.78,481.289 523.774,490.273C523.186,495.526 522.863,501.058 522.877,506.855C522.892,512.773 523.252,518.958 523.892,525.412C525.191,538.513 527.714,552.649 531.212,567.859C529.086,552.49 527.968,538.268 527.691,525.183C527.556,518.825 527.653,512.758 527.909,506.96C528.158,501.347 528.566,496.001 529.205,490.918C530.278,482.378 531.979,474.602 534.395,467.606C535.884,463.293 537.642,459.287 539.646,455.559C541.773,451.603 544.169,447.97 546.909,444.664C555.094,434.79 566.166,427.863 580.701,424.223Z"/>
                <path d="M745.554,332.848C746.198,325.605 746.313,320.703 747.892,316.883C749.048,314.088 751.08,311.995 754.839,309.944C758.338,307.989 762.302,306.624 766.616,305.528C770.52,304.536 774.714,303.832 779.163,303.342C786.343,302.551 794.164,302.368 802.404,302.566C807.482,302.687 812.716,302.882 818.048,303.244C823.539,303.474 830.034,305.269 836.69,307.679C846.363,311.181 856.293,315.957 863.84,319.758C856.684,315.135 847.286,309.191 837.921,304.734C831.09,301.483 824.291,299.099 818.467,298.346C813.057,297.787 807.746,297.307 802.58,297.097C794.048,296.749 785.923,296.965 778.504,297.949C774.767,298.444 771.203,299.133 767.868,300.089C762.217,301.708 757.224,304.012 752.973,306.964C748.83,309.917 746.75,312.703 745.808,316.172C744.688,320.295 745.215,325.339 745.554,332.848Z"/>
                <path d="M556.309,346.369C579.083,348.448 606.804,349.666 639.797,349.505C648.702,349.462 657.985,349.302 667.656,349.001C676.604,348.723 685.879,348.304 695.488,347.802C711.259,346.979 727.929,345.914 745.513,344.569C756.269,343.747 767.367,342.83 778.806,341.753C790.887,340.615 803.341,339.298 816.191,337.874C843.44,334.853 872.412,331.242 903.22,327.244C872.278,329.901 843.177,332.103 815.843,334.084C802.962,335.018 790.482,335.876 778.391,336.737C766.948,337.551 755.859,338.365 745.114,339.115C727.557,340.341 710.922,341.423 695.187,342.331C685.605,342.885 676.357,343.367 667.44,343.838C657.804,344.347 648.558,344.82 639.687,345.233C606.793,346.765 579.115,347.278 556.309,346.369Z"/>
                <path d="M506.528,324.891C496.831,297.716 488.67,278.214 486.881,264.173C485.572,253.901 487.768,246.689 495.822,241.644C506.25,235.08 524.882,230.462 547.636,227.088C564.108,224.645 582.728,222.89 602.019,221.711C635.433,219.669 670.841,219.41 700.512,220.452C731.044,221.525 755.455,223.856 765.117,227.348C788.078,235.469 834.576,279.998 873.517,305.639C884.202,312.675 894.319,318.291 903.22,321.388C894.439,318.038 884.529,312.13 874.078,304.813C850.015,287.967 823.143,263.627 800.789,245.682C787.282,234.839 775.364,226.353 766.705,223.042C756.867,219.342 731.949,216.316 700.72,215.018C670.888,213.778 635.258,214.014 601.669,216.286C582.221,217.6 563.454,219.613 546.894,222.418C523.574,226.367 504.617,231.924 494.088,238.972C485.226,244.93 482.744,253.018 484.607,264.502C486.888,278.567 495.793,297.902 506.528,324.891Z"/>
                <g transform="matrix(1,0,0,1,24.0379,2.35302)">
                    <path d="M520.015,313.917C507.944,292.784 493.41,276.067 490.127,262.331C488.31,254.731 490.298,248.162 498.773,242.255C504.097,238.475 513.678,235.252 526.322,232.343C544.375,228.189 568.605,224.917 596.048,223.009C603.871,222.465 611.951,222.018 620.22,221.65C632.012,221.124 644.184,220.781 656.551,220.697C686.674,220.495 717.901,221.776 747.39,225.33C718.008,220.463 686.79,217.601 656.6,216.669C644.166,216.285 631.915,216.222 620.046,216.494C611.71,216.685 603.566,217.055 595.684,217.563C567.882,219.353 543.31,222.693 525.092,227.174C511.69,230.471 501.689,234.476 496.14,238.655C486.319,246.185 484.321,254.19 486.95,263.175C490.978,276.945 506.6,293.149 520.015,313.917Z"/>
                </g>
                <path d="M80.18,359.438C80.18,359.438 91.899,330.867 111.527,321.31C119.352,317.5 128.444,316.939 138.765,322.823C143.519,325.532 148.547,329.543 153.803,335.241C164.415,346.519 171.159,359.298 175.699,373.118C179.098,383.463 181.233,394.401 182.728,405.806C184.153,416.674 185.069,427.941 185.746,439.513C186.607,453.362 188.09,463.613 189.727,471.161C193.171,487.047 197.219,490.901 197.219,490.901C197.219,490.901 193.46,486.848 190.956,470.932C189.768,463.374 188.858,453.154 188.776,439.409C188.663,427.71 188.434,416.294 187.389,405.279C186.27,393.479 184.281,382.141 180.898,371.442C176.272,356.811 168.968,343.399 157.771,331.506C151.951,325.446 146.432,321.162 141.183,318.402C133.49,314.357 126.413,313.418 120.051,314.524C111.584,315.997 104.344,321.107 98.495,327.509C86.351,340.8 80.18,359.438 80.18,359.438Z"/>
                <g transform="matrix(-1.19697,0.0333312,-0.0408325,-1.46635,1368.14,1328.92)">
                    <path d="M613.67,484.083C598.724,483.91 584.96,490.318 574.34,501.002C561.631,513.788 553.461,532.699 553.121,553.851C552.882,575.098 561.026,595.628 573.891,609.944C585.024,622.335 599.696,630.04 615.247,630.067C630.778,630.061 644.805,623.765 655.389,613.013C663.228,605.049 669.21,594.636 672.437,582.602C674.289,575.698 675.21,568.258 675.118,560.453C674.741,539.405 666.446,518.627 653.63,504.066C642.782,491.74 628.737,483.872 613.67,484.083ZM613.67,484.083C628.531,484.291 642.047,492.41 652.269,504.838C664.242,519.397 671.703,539.869 671.334,560.453C671.246,568.001 670.142,575.172 668.245,581.83C664.994,593.238 659.315,603.117 651.825,610.666C642.122,620.445 629.417,626.303 615.247,626.298C601.009,626.322 587.789,619.045 577.439,607.795C564.81,594.068 556.449,574.394 556.217,553.851C555.885,533.13 563.331,514.456 575.358,501.657C585.499,490.866 598.896,484.254 613.67,484.083Z"/>
                </g>
                <g transform="matrix(-0.830901,0.0231375,-0.0374849,-1.34614,660.646,1158.64)">
                    <path d="M613.67,484.083C597.406,483.914 582.467,491.517 571.402,503.945C560.134,516.601 552.939,534.265 552.445,553.851C552.094,573.633 558.996,592.787 570.326,606.858C581.881,621.208 598.185,630.209 615.247,630.235C632.5,630.23 648.129,622.725 659.177,609.926C666.02,601.998 671.183,592.037 673.878,580.712C675.393,574.349 676.092,567.553 675.963,560.453C675.411,540.794 667.958,521.369 656.377,507.03C645.068,493.028 629.903,483.879 613.67,484.083ZM613.67,484.083C629.641,484.283 643.931,493.642 654.209,507.666C664.704,521.987 671.031,541.167 670.489,560.453C670.364,567.359 669.377,573.952 667.751,580.127C664.906,590.933 659.962,600.44 653.362,608.003C643.593,619.196 630.372,626.135 615.247,626.13C600.152,626.153 586.502,617.697 576.004,605.087C564.705,591.516 557.235,573.061 556.893,553.851C556.408,534.607 562.636,517.132 573.049,504.482C583.308,492.019 597.638,484.249 613.67,484.083Z"/>
                </g>
                <path d="M745.554,627.951C745.554,627.951 789.906,630.348 844.738,632.212C857.546,632.648 870.921,633.042 884.438,633.333C893.245,633.522 902.11,633.659 910.914,633.74C953.772,634.135 995.174,633.622 1021.34,631.94C1037.36,630.762 1051.91,629.398 1065.12,627.799C1091.92,624.555 1113.19,620.542 1130.09,616.358C1189.16,601.735 1194.68,584.693 1194.68,584.693C1194.68,584.693 1188.61,601.287 1129.53,613.927C1112.61,617.548 1091.35,620.807 1064.64,623.379C1051.46,624.649 1036.96,625.795 1021,626.661C1000.6,627.937 970.907,628.31 938.496,628.376C923.434,628.407 907.787,628.351 892.21,628.317C881.824,628.295 871.472,628.289 861.344,628.295C799.17,628.331 745.554,627.951 745.554,627.951Z"/>
                <path d="M490.465,389.241C490.465,389.241 432.087,372.978 372.669,359.883C355.244,356.043 337.729,352.496 321.573,349.72C296.77,345.459 275.149,343.031 261.94,343.734C257.117,343.991 253.336,344.705 250.791,345.824C248.225,346.953 246.71,348.565 246.088,350.409C245.399,352.467 245.965,357.857 248.123,365.373C251.681,377.764 259.095,396.728 269.171,415.98C280.034,436.736 293.985,457.802 309.002,471.602C317.719,479.543 338.81,488.737 361.981,497.029C400.922,510.963 445.66,522.572 445.66,522.572C445.66,522.572 401.367,509.609 362.883,494.615C340.517,485.9 320.106,476.567 311.811,468.6C297.378,454.857 284.287,433.938 273.893,413.541C264.222,394.562 256.896,376.011 253.446,363.853C252.426,360.258 251.743,357.247 251.448,354.982C251.281,353.693 251.173,352.741 251.362,352.181C251.559,351.59 252.212,351.267 253.032,350.904C255.13,349.976 258.266,349.481 262.244,349.254C275.189,348.515 296.358,351.006 320.723,354.865C336.856,357.42 354.375,360.579 371.835,363.927C431.542,375.377 490.465,389.241 490.465,389.241Z"/>
                <path d="M515.14,395.628C515.14,395.628 537.761,399.005 565.965,407.907C581.252,412.731 598.122,419.265 614.013,427.665C634.792,438.65 653.928,452.875 664.667,472.095C671.31,483.74 676.475,495.737 680.65,507.58C685.199,520.485 688.535,533.225 690.887,545.309C699.357,588.827 695.487,623.62 695.487,623.62C695.487,623.62 701.174,588.791 694.431,544.693C692.538,532.316 689.69,519.209 685.38,505.977C681.394,493.738 676.113,481.424 669.456,469.403C658.124,449.363 638.345,434.082 616.361,423.095C603.473,416.654 589.842,411.732 576.936,407.897C543.66,398.008 515.14,395.628 515.14,395.628Z"/>
                <path d="M131.443,279.162C144.758,272.69 158.511,268.43 174.125,266.537C187.309,264.938 201.795,265.128 218.512,267.072C226.744,268.03 235.513,269.394 244.932,271.199C256.887,273.489 269.883,276.473 284.128,280.227C296.121,283.388 308.99,287.109 322.895,291.305C331.101,293.782 339.679,296.372 348.624,299.208C381.723,309.438 387.312,312.478 404.784,317.515C413.247,319.955 424.486,322.838 442.977,327.244C424.75,321.945 413.691,318.495 405.362,315.673C388.138,309.837 382.666,306.612 350.034,294.97C341.143,291.871 332.639,288.947 324.451,286.313C310.543,281.841 297.603,278.069 285.546,274.867C271.161,271.047 258.017,268.059 245.909,265.907C236.317,264.202 227.373,263.007 218.981,262.326C201.872,260.938 187.076,261.57 173.736,263.911C158.088,266.657 144.482,271.843 131.443,279.162Z"/>
                <path d="M207.132,504.416C206.733,506.078 234.278,513.221 273.974,522.837C283.817,525.222 294.4,527.766 305.512,530.336C315.677,532.687 326.28,535.054 337.119,537.477C355.701,541.631 374.974,545.956 394.013,550.248C406.851,553.141 419.596,555.945 431.919,558.822C442.346,561.164 452.4,564.069 461.971,567.149C490.698,576.393 514.987,587.35 531.212,590.745C515.144,586.614 491.39,574.466 463.055,564.01C453.511,560.488 443.45,557.186 433.001,554.408C421.301,551.4 409.244,548.329 397.035,545.417C378.98,541.11 360.629,537.007 342.823,533.116C331.678,530.68 320.746,528.33 310.211,526.16C302.718,524.617 295.427,523.174 288.412,521.808C241.222,512.625 206.788,506.28 207.132,504.416Z"/>
                <path d="M80.18,447.977C78.927,438.935 78.071,430.283 77.468,421.936C76.814,412.875 76.593,404.239 76.687,395.938C76.741,391.231 76.867,386.643 77.148,382.157C77.591,375.085 78.368,368.279 79.574,361.711C80.623,355.999 82.002,350.477 83.653,345.1C85.339,339.606 87.32,334.274 89.656,329.072C96.445,313.955 106.164,300.018 119.615,286.974C104.864,299.048 93.624,312.253 85.696,327.13C82.907,332.365 80.55,337.809 78.614,343.464C76.717,349.005 75.26,354.759 74.14,360.7C72.861,367.49 72.033,374.541 71.708,381.866C71.503,386.476 71.47,391.196 71.693,396.025C72.081,404.447 73.118,413.177 74.655,422.275C76.055,430.56 77.95,439.086 80.18,447.977Z"/>
                <path d="M578.876,294.158C578.016,287.258 578.018,281.131 578.576,275.63C579.265,268.845 580.987,263.192 583.364,258.449C584.823,255.539 586.525,252.996 588.467,250.813C591.625,247.264 595.389,244.687 599.514,243.07C603.055,241.682 606.838,241.011 610.687,240.96C614.502,240.909 618.37,241.446 622.154,242.629C632.709,245.93 642.459,253.947 647.714,266.859C644.616,255.536 638.036,247.128 630.04,241.871C626.079,239.267 621.77,237.449 617.357,236.486C610.656,235.024 603.739,235.547 597.513,237.918C592.563,239.803 588.018,242.905 584.351,247.243C582.154,249.843 580.232,252.878 578.812,256.392C576.651,261.738 575.506,268.124 575.744,275.532C575.926,281.165 576.95,287.338 578.876,294.158Z"/>
                <g transform="matrix(1,0,0,1,-157.249,0.663592)">
                    <path d="M578.658,283.586C577.878,277.623 577.991,272.405 578.676,267.75C579.508,262.101 581.38,257.496 583.886,253.654C585.354,251.404 587.04,249.442 588.93,247.749C591.871,245.113 595.284,243.154 598.963,241.842C602.065,240.736 605.341,240.101 608.65,239.841C612.003,239.576 615.379,239.682 618.673,240.214C629.228,241.918 638.749,247.753 642.533,257.772C640.47,248.632 633.822,241.885 625.444,238.021C621.888,236.381 618.025,235.281 614.056,234.812C608.372,234.14 602.504,234.78 597.126,236.629C592.73,238.14 588.641,240.506 585.234,243.745C583.034,245.837 581.08,248.279 579.579,251.124C577.607,254.863 576.312,259.226 575.959,264.22C575.558,269.888 576.37,276.299 578.658,283.586Z"/>
                </g>
                <path d="M481.267,332.848C480.973,319.832 478.116,309.851 473.491,302.271C470.886,298.001 467.715,294.506 464.16,291.705C457.851,286.733 450.339,283.944 442.618,282.64C434.918,281.34 426.957,281.633 419.575,282.681C406.716,284.961 395.694,289.568 390.393,295.151C385.118,300.707 385.036,307.202 394.457,312.998C386.668,306.913 386.803,301.295 391.992,296.828C397.447,292.132 408.074,288.789 420.24,287.74C427.131,286.906 434.522,286.905 441.689,288.123C448.582,289.294 455.213,291.704 461.082,295.828C466.426,299.583 471.165,304.671 474.781,311.809C477.689,317.549 479.971,324.434 481.267,332.848Z"/>
                <path d="M1014.52,437C1015.75,438.467 1017,439.755 1018.27,440.865C1019.76,442.159 1021.24,443.221 1022.7,444.037C1024.51,445.045 1026.27,445.676 1027.85,446.038C1030.19,446.575 1032.19,446.478 1033.56,445.91C1035.36,445.16 1036.25,443.668 1035.68,441.687C1035.12,439.739 1032.97,437.219 1028.62,434.471C1032.41,437.529 1034.2,440.07 1034.55,441.954C1034.79,443.242 1034.19,444.112 1033.02,444.539C1031.84,444.97 1030.17,444.976 1028.18,444.536C1026.71,444.21 1025.08,443.622 1023.33,442.802C1021.87,442.117 1020.33,441.292 1018.75,440.239C1017.36,439.313 1015.94,438.257 1014.52,437Z"/>
            </g>
            <g transform="matrix(1.26526,0,0,1.11185,-149.792,-58.8562)">
                <g style="filter:url(#_Effect3);">
                    <path d="M564.701,391.906L284.293,318.259C284.293,318.259 247.037,408.623 307.837,470.33C368.637,532.038 501.968,526.051 501.968,526.051L564.701,391.906Z" style="fill:url(#_Linear4);"/>
                </g>
            </g>
            <g transform="matrix(0.830573,-0.464396,0.663279,1.18628,231.586,168.269)">
                <g style="filter:url(#_Effect5);">
                    <path d="M564.701,391.906L284.293,318.259C284.293,318.259 247.037,408.623 307.837,470.33C368.637,532.038 501.968,526.051 501.968,526.051L564.701,391.906Z" style="fill:url(#_Linear6);"/>
                </g>
            </g>
            <g transform="matrix(1.10275,-0.616579,0.654034,1.16974,-73.9707,49.6705)">
                <g style="filter:url(#_Effect7);">
                    <path d="M494.059,438.634C422.785,388.497 362.357,367.041 307.55,360.446C307.55,360.446 247.037,408.623 307.837,470.33C368.637,532.038 501.968,526.051 501.968,526.051L494.059,438.634Z" style="fill:url(#_Linear8);"/>
                </g>
            </g>
            
        </g>
    </g>
    <defs>
        <filter id="_Effect1" filterUnits="userSpaceOnUse" x="-100.937" y="231.508" width="970.062" height="996.957">
            <feGaussianBlur in="SourceGraphic" stdDeviation="40.1592"/>
        </filter>
        <filter id="_Effect2" filterUnits="userSpaceOnUse" x="-189.213" y="87.1302" width="1144.56" height="1329.88">
            <feGaussianBlur in="SourceGraphic" stdDeviation="59.0085"/>
        </filter>
        <filter id="_Effect3" filterUnits="userSpaceOnUse" x="161.99" y="191.937" width="513.717" height="460.594">
            <feGaussianBlur in="SourceGraphic" stdDeviation="19.654"/>
        </filter>
        <linearGradient id="_Linear4" x1="0" y1="0" x2="1" y2="0.0882496" gradientUnits="userSpaceOnUse" gradientTransform="matrix(83.5135,186.726,-186.726,83.5135,382.141,290.732)"><stop offset="0" style="stop-color:white;stop-opacity:0.07"/><stop offset="1" style="stop-color:white;stop-opacity:0"/></linearGradient>
        <filter id="_Effect5" filterUnits="userSpaceOnUse" x="125.399" y="214.919" width="586.899" height="414.63">
            <feGaussianBlur in="SourceGraphic" stdDeviation="19.953"/>
        </filter>
        <linearGradient id="_Linear6" x1="0" y1="0" x2="1" y2="-0.330322" gradientUnits="userSpaceOnUse" gradientTransform="matrix(83.5135,186.726,-186.726,83.5135,382.141,290.732)"><stop offset="0" style="stop-color:white;stop-opacity:0.07"/><stop offset="1" style="stop-color:white;stop-opacity:0"/></linearGradient>
        <filter id="_Effect7" filterUnits="userSpaceOnUse" x="169.573" y="255.645" width="443.562" height="375.364">
            <feGaussianBlur in="SourceGraphic" stdDeviation="17.9738"/>
        </filter>
        <linearGradient id="_Linear8" x1="0" y1="0" x2="1" y2="-0.0448185" gradientUnits="userSpaceOnUse" gradientTransform="matrix(87.9639,167.707,-167.053,86.5,297.204,330.322)"><stop offset="0" style="stop-color:white;stop-opacity:0.07"/><stop offset="1" style="stop-color:white;stop-opacity:0"/></linearGradient>
    </defs>
</svg>
