<?xml version="1.0" encoding="UTF-8"?>
<svg viewBox="0 0 400 305" xmlns="http://www.w3.org/2000/svg">
 <defs>
  <filter id="c">
   <feGaussianBlur stdDeviation="13.2051"/>
  </filter>
  <filter id="a" x="-.26663" y="-.63587" width="1.5333" height="2.2717">
   <feGaussianBlur stdDeviation="19.04517"/>
  </filter>
  <filter id="d" x="-.07875" y="-.40874" width="1.1575" height="1.8175">
   <feGaussianBlur stdDeviation="23.76054"/>
  </filter>
  <filter id="b" x="-.26298" y="-.16261" width="1.526" height="1.3252">
   <feGaussianBlur stdDeviation="11.41575"/>
  </filter>
 </defs>
 <g transform="translate(0 -747.36)">
  <path transform="matrix(.2859 0 0 .2859 -57.61 775.81)" d="m420 192.36c76.969 258.52 250.53 682.23 565.71 580 324.1-80.503 66.334-721.76-31.429-831.43-5.6152-21.55-105.71 22.857-105.71 22.857s93.1 1.7801 91.429 34.286c-2.5172 48.959-93.585 138.05-165.71 171.43-107.4 49.697-354.29 22.857-354.29 22.857z" filter="url(#c)" opacity=".21463" stroke="#a6a3a3" stroke-width="4.7"/>
  <path d="m62.469 830.81c22.006 73.912 71.626 195.05 161.74 165.82 92.66-23.016 18.965-206.35-8.9854-237.71-1.6056-6.1613-30.224 6.5348-30.224 6.5348s26.617 0.50901 26.14 9.8024c-0.7198 13.997-26.756 39.47-47.378 49.012-30.706 14.208-101.29 6.5348-101.29 6.5348z" fill="#ff7f50" stroke="#a6a3a3" stroke-width=".54321"/>
  <path d="m186.64 764.64 10.69 30.22s23.976-15.122 19.436-23.744c-3.7978-7.2136-30.126-6.4758-30.126-6.4758z" fill="#808080" stroke="#000" stroke-width=".29267"/>
  <path transform="matrix(.19006 0 0 .28942 -6.798 774.56)" d="m588.57 355.22a28.571 34.286 0 1 1 -57.143 0 28.571 34.286 0 1 1 57.143 0z" fill-opacity=".99216" stroke="#a6a3a3" stroke-width="4.7"/>
  <path d="m5.2885 1043.2s-13.07-30.224 2.4506-47.378 26.957-41.66 26.957-41.66-17.971-13.887 0-34.308 61.265-41.66 61.265-41.66l6.535 8.1686s-53.096 23.689-60.448 32.674-11.436 17.971-4.9012 26.14c6.5348 8.1686 9.8021 0.81679-6.535 27.773s-27.773 8.9856-25.323 70.25z" stroke="#000" stroke-width=".2859"/>
  <path d="m235.66 812.16s41.674-11.605 59.15 7.427-6.7216 25.067-1.3443 36.672c8.7183 18.815 122.33 7.427 102.17 10.212-6.0942 0.8418-97.299 6.2981-95.446-7.427 1.9547-14.477 9.4102-35.743 0-44.563s-8.0657-7.4269-22.853-9.2838c-44.863-5.6331-41.674 6.9631-41.674 6.9631z" stroke="#000" stroke-width=".27648"/>
  <path d="m134.52 889.97c-2.668-10.823 14.758-14.951 23.763-17.161 7.8419-1.9238 22.004-5.571 23.763 4.038 1.1499 6.2816-8.1491 8.5728-13.111 10.599-10.908 4.4547-31.076 16.07-34.415 2.5235z" stroke="#000" stroke-width=".15916"/>
  <path d="m201.62 866.87c-2.0759-9.2438 11.484-13.545 18.491-15.833 6.1021-1.9927 17.122-5.7404 18.491 2.492 0.89485 5.3818-6.341 7.7534-10.202 9.7134-8.4881 4.3094-24.181 15.198-26.78 3.6275z" stroke="#000" stroke-width=".13054"/>
  <path d="m184.18 949.25c53.918 35.52 64.012-13.498 49.829-27.773-6.5322 24.612-42.209 21.12-49.829 27.773z" stroke="#000" stroke-width=".2859"/>
  <path transform="matrix(.2859 0 0 .2859 -57.61 775.81)" d="m651.43 366.65c47.753-45.38 108.64-57.921 171.43-65.714 0 0-86.3-15.624-122.86 2.8571-23.631 11.947-48.571 62.857-48.571 62.857z" fill="#b22222" filter="url(#a)" opacity=".54146" stroke="#000"/>
  <path transform="matrix(.2859 0 0 .2859 -57.61 775.81)" d="m885.71 295.22c47.753-45.38 108.64-57.921 171.43-65.714 0 0-86.3-15.624-122.86 2.8571-23.631 11.947-48.571 62.857-48.571 62.857z" fill="#8b0000" filter="url(#a)" opacity=".54146" stroke="#000"/>
  <path transform="matrix(-.30528 0 0 -.39053 523.58 1226.1)" d="m925.71 720.93c47.753-45.38 108.64-57.921 171.43-65.714 0 0-86.3-15.624-122.86 2.8571-23.631 11.947-48.571 62.857-48.571 62.857z" fill="#696969" filter="url(#a)" opacity=".54146" stroke="#000"/>
  <path transform="matrix(-.0888 -.31195 .3314 -.08359 100.47 1205.8)" d="m651.43 366.65c47.753-45.38 108.64-57.921 171.43-65.714 0 0-86.3-15.624-122.86 2.8571-23.631 11.947-48.571 62.857-48.571 62.857z" fill="#f00" filter="url(#a)" opacity=".54146" stroke="#000"/>
  <path transform="matrix(-.25334 -.29642 -.32795 .37103 538.31 996.79)" d="m651.43 366.65c47.753-45.38 108.64-57.921 171.43-65.714 0 0-86.3-15.624-122.86 2.8571-23.631 11.947-48.571 62.857-48.571 62.857z" fill="#f00" filter="url(#a)" opacity=".54146" stroke="#000"/>
  <path transform="matrix(.2859 0 0 .2859 -57.61 775.81)" d="m420 867.23c76.969-42.287 250.53-111.59 565.71-94.871 324.1 13.168 66.334 118.06-31.429 136-5.6152 3.525-105.71-3.7388-105.71-3.7388s93.1-0.29117 91.429-5.6082c-2.5172-8.0082-93.585-22.581-165.71-28.041-107.4-8.129-354.29-3.7388-354.29-3.7388z" fill="#808080" filter="url(#d)" opacity=".5561" stroke="#a6a3a3" stroke-width="1.9009"/>
  <path transform="matrix(.23398 0 0 .2859 -12.156 775.81)" d="m909.52 384.58c4.9114 8.7309 11.395 16.335 17.756 24.021 7.0305 6.7964 13.205 14.291 19.222 21.977 3.8514 5.2934 8.7073 9.6644 13.284 14.293 2.9257 3.5832 5.8249 7.2771 8.7491 10.774 4.4526 5.2462 8.7052 12.056 9.06 19.182 0.14508 2.9138-0.1458 5.8331-0.2187 8.7497-2.7463 12.594-11.465 21.036-21.157 28.745-8.0169 5.7349-15.456 12.169-23.041 18.441-3.2699 3.0059-1.4792 1.4146-5.3996 4.7425-20.071 16.939-44.027-11.446-23.956-28.385 3.3803-2.8286 1.4524-1.1722 5.7366-5.0234 7.8449-6.4339 15.487-13.111 23.757-19.016 4.3018-3.2769 0.9135-0.59658 4.9152-4.03 1.0547-0.90489 2.8441-3.6553 2.321-0.3351 1.4872 8.2083 0.40324 2.893 0.5003 2.3176 0.0689-0.40855 1.1056 1.1656 0.9734 0.77292-0.0924-0.27451-0.35106-0.46078-0.5266-0.69117-2.9158-3.2519-5.8749-6.6735-8.2754-10.281-5.4325-5.6828-11.378-10.914-15.971-17.362-5.8183-7.4329-11.855-14.56-18.594-21.197-8.6048-10.408-17.272-20.867-23.276-33.064-10.346-24.14 23.794-38.772 34.14-14.631z" fill="#8b0000" fill-opacity=".99216" filter="url(#b)" opacity=".1122" stroke="#a6a3a3" stroke-width="1.9"/>
 </g>
</svg>
