<?xml version="1.0" encoding="UTF-8"?>
<svg viewBox="0 0 30 30" xmlns="http://www.w3.org/2000/svg">
 <defs>
  <linearGradient id="b" x1="2" x2="28" y1="2" y2="25" gradientUnits="userSpaceOnUse">
   <stop stop-color="#eeeeec" offset="0"/>
   <stop stop-color="#8a8a7c" offset="1"/>
  </linearGradient>
  <linearGradient id="a" x1="1" x2="29" y1="1" y2="26" gradientUnits="userSpaceOnUse">
   <stop stop-color="#b0b1ae" offset="0"/>
   <stop stop-color="#5f5f5d" offset="1"/>
  </linearGradient>
 </defs>
 <path d="m4.9839 1h20.032c2.2071 0 3.9839 1.7768 3.9839 3.9839v17.032c0 2.2071-1.7768 3.9839-3.9839 3.9839h-20.032c-2.2071 0-3.9839-1.7768-3.9839-3.9839v-17.032c0-2.2071 1.7768-3.9839 3.9839-3.9839z" fill="url(#a)"/>
 <path d="m4.9441 2h20.112c1.631 0 2.9441 1.3131 2.9441 2.9441v17.112c0 1.631-1.3131 2.9441-2.9441 2.9441h-20.112c-1.631 0-2.9441-1.3131-2.9441-2.9441v-17.112c0-1.631 1.3131-2.9441 2.9441-2.9441z" fill="url(#b)"/>
 <path d="m5 5h20v17h-20v-17z" fill="#018000"/>
 <path d="m13 26h4v2h-4v-2z" fill="#555753"/>
 <path d="m5.5,28h19c.277,0 .5.223.5.5s-.223.5-.5.5h-19c-.277,0-.5-.223-.5-.5s.223-.5.5-.5z" fill="#888a85"/>
 <path d="m4 4v19h22v-19h-22zm1 1h20v17h-20v-17z" fill="#555753"/>
 <g transform="matrix(.86806 0 0 .86806 2.0708 2.0711)">
  <path d="m6.53125,7.125c-.23984.04426-.41202.25617-.40625.5v2.125c-.00315.20594.12119.39244.3125.46875l6,2.34375-6,2.34375c-.19131.07631-.31565.26281-.3125.46875v2.125c-.00355.16786.07797.32615.21669.42073s.31585.11265.47081.04802l9.5625-3.9375c.19131-.07631.31564-.26281.3125-.46875v-2c.00314-.20594-.12119-.39244-.3125-.46875l-9.5625-3.9375c-.08873-.03748-.18645-.04834-.28125-.03125z" fill="#888a85"/>
  <path d="m6.6218 9.7398v-2.1279l9.5803 3.9409v2.0087l-9.5803 3.9409v-2.1279l7.2114-2.8088-7.2114-2.8258z" fill="#eeeeec"/>
 </g>
 <g transform="matrix(.87731 0 0 .87731 2.5457 2.2604)">
  <path d="m16.09375,17.71875c-.18975.06027-.31703.23846-.3125.4375v1.25c.00571.23922.19828.43179.4375.4375h6.65625c.23922-.00571.43179-.19828.4375-.4375v-1.25c-.00571-.23922-.19828-.43179-.4375-.4375h-6.65625c-.04146-.00584-.08354-.00584-.125,0z" fill="#888a85"/>
  <path d="m22.881 18.157v1.2368h-6.6656v-1.2368h6.6656z" fill="#eeeeec"/>
 </g>
</svg>
