<svg xmlns="http://www.w3.org/2000/svg" viewBox="106.24829467939972 26.400000879999997 255.7162346521146 262.80000875999997" version="1.1" style="max-height: 500px" width="255.7162346521146" height="262.80000875999997">
 <defs>
  <filter color-interpolation-filters="sRGB" height="1.0063" width="1.0039" y="-.0031596" x="-.0019348" id="a">
   <feGaussianBlur stdDeviation="0.14007104"/>
  </filter>
  <filter color-interpolation-filters="sRGB" height="1.12" width="1.12" y="-.06" x="-.06" id="b">
   <feGaussianBlur stdDeviation="0.25253813"/>
  </filter>
  <filter color-interpolation-filters="sRGB" id="f">
   <feFlood result="flood" flood-opacity=".49804" flood-color="rgb(0,0,0)"/>
   <feComposite result="composite1" operator="in" in2="SourceGraphic" in="flood"/>
   <feGaussianBlur stdDeviation="3" result="blur" in="composite1"/>
   <feOffset result="offset" dy="6" dx="6"/>
   <feComposite result="composite2" in2="offset" in="SourceGraphic"/>
  </filter>
  <filter color-interpolation-filters="sRGB" id="g">
   <feFlood result="flood" flood-opacity=".49804" flood-color="rgb(0,0,0)"/>
   <feComposite result="composite1" operator="in" in2="SourceGraphic" in="flood"/>
   <feGaussianBlur stdDeviation="3" result="blur" in="composite1"/>
   <feOffset result="offset" dy="6" dx="6"/>
   <feComposite result="composite2" in2="offset" in="SourceGraphic"/>
  </filter>
  <filter color-interpolation-filters="sRGB" id="h">
   <feFlood result="flood" flood-opacity=".49804" flood-color="rgb(0,0,0)"/>
   <feComposite result="composite1" operator="in" in2="SourceGraphic" in="flood"/>
   <feGaussianBlur stdDeviation="3" result="blur" in="composite1"/>
   <feOffset result="offset" dy="6" dx="6"/>
   <feComposite result="composite2" in2="offset" in="SourceGraphic"/>
  </filter>
 </defs>
 <g transform="translate(0 -752.36)">
  <g transform="matrix(1.1753 0 0 1.1757 11.203 -119.69)">
   <g stroke-width=".42534" stroke-linecap="round" filter="url(#h)" transform="matrix(.99814 -.06096 .06096 .99814 367.58 220.25)">
    <path stroke="#364e59" fill="#005c93" d="m-243.4 720.04h40.303s-2 7.8993-1 11.849 7 11.849 7 11.849h-52.303s6-7.8993 7-11.849-1-11.849-1-11.849z"/>
    <rect stroke="#0e232e" fill="#005c94" ry="6.0752" rx="6.0775" height="129.3" width="197.99" y="586.68" x="-322.24"/>
    <rect stroke="#005c94" filter="url(#a)" fill="#fff" ry="2.0526" rx="2.0534" height="106.4" width="173.75" y="594.6" x="-310.12"/>
   </g>
   <g filter="url(#f)" transform="matrix(.55215 .1178 -.099505 .46639 552.5 569.62)">
    <rect stroke-width=".81974" stroke-linecap="round" stroke="#0e232e" fill="#005c94" ry="10.765" rx="12.739" height="129.3" width="197.99" y="402.04" x="552.34" transform="rotate(90)"/>
    <rect stroke-width=".81103" stroke-linecap="round" stroke="#005c94" filter="url(#a)" fill="#fff" ry="3.4257" rx="4.4733" height="106.4" width="173.75" y="594.6" x="-553.56" transform="matrix(0 .9622 -1.0617 0 221.08 1096.1)"/>
    <circle filter="url(#b)" fill="#fff" r="5.0508" cy="740.23" cx="-466.69"/>
   </g>
   <g filter="url(#g)" transform="matrix(.22511 -.060558 .075156 .27938 187.37 592.97)">
    <rect stroke-width="1.6379" stroke-linecap="round" stroke="#0e232e" fill="#005c94" ry="26.071" rx="20.999" height="129.3" width="197.99" y="402.04" x="552.34" transform="rotate(90)"/>
    <rect stroke-width="1.6205" stroke-linecap="round" stroke="#005c94" filter="url(#a)" fill="#fff" ry="8.2965" rx="7.3736" height="106.4" width="173.75" y="594.6" x="-553.56" transform="matrix(0 .9622 -1.0617 0 221.08 1096.1)"/>
    <circle filter="url(#b)" fill="#fff" r="5.0508" cy="740.23" cx="-466.69"/>
   </g>
  </g>
 </g>
</svg>