<?xml version="1.0" encoding="UTF-8"?>
<svg viewBox="0 0 582 582" xmlns="http://www.w3.org/2000/svg" xmlns:xlink="http://www.w3.org/1999/xlink">
 <defs>
  <filter id="o" x="-.12557" y="-.13747" width="1.2511" height="1.275">
   <feGaussianBlur stdDeviation="7.5165"/>
  </filter>
  <linearGradient id="a">
   <stop stop-color="#e4e2e2" offset="0"/>
   <stop stop-color="#ddd9dc" stop-opacity=".1635" offset="1"/>
  </linearGradient>
  <radialGradient id="n" cx="479.32" cy="298.28" r="220.13" gradientUnits="userSpaceOnUse">
   <stop stop-color="#bcbaba" offset="0"/>
   <stop stop-color="#b8bab8" offset=".4244"/>
   <stop stop-color="#656567" offset=".6835"/>
   <stop stop-color="#b2b2b2" offset="1"/>
  </radialGradient>
  <radialGradient id="m" cx="479.32" cy="298.28" r="220.13" gradientUnits="userSpaceOnUse" spreadMethod="repeat">
   <stop stop-color="#bcbaba" offset="0"/>
   <stop stop-color="#b8bab8" offset=".5299"/>
   <stop stop-color="#656567" offset=".8075"/>
   <stop stop-color="#b2b2b2" offset="1"/>
  </radialGradient>
  <radialGradient id="l" cx="-16.415" cy="282.37" r="220.13" gradientUnits="userSpaceOnUse">
   <stop stop-color="#bcbaba" stop-opacity="0" offset="0"/>
   <stop stop-color="#b8bab8" stop-opacity="0" offset=".2179"/>
   <stop stop-color="#676563" offset=".7162"/>
   <stop stop-color="#b2b2b2" stop-opacity="0" offset="1"/>
  </radialGradient>
  <radialGradient id="k" cx="-16.415" cy="282.37" r="220.13" gradientUnits="userSpaceOnUse" spreadMethod="repeat">
   <stop stop-color="#bcbaba" offset="0"/>
   <stop stop-color="#b8bab8" offset=".4244"/>
   <stop stop-color="#656567" offset=".9268"/>
   <stop stop-color="#b2b2b2" offset="1"/>
  </radialGradient>
  <radialGradient id="j" cx="477.75" cy="815.82" r="219.71" gradientUnits="userSpaceOnUse">
   <stop stop-color="#dfdfe1" offset="0"/>
   <stop stop-color="#d4d2d4" offset=".5299"/>
   <stop stop-color="#656567" offset=".8075"/>
   <stop stop-color="#d4d2d0" offset="1"/>
  </radialGradient>
  <radialGradient id="i" cx="-19.193" cy="520.01" r="73.741" gradientTransform="matrix(1.0335 -.0308 .03328 1.1422 -16.664 -74.524)" gradientUnits="userSpaceOnUse">
   <stop stop-color="#ff0d1d" offset="0"/>
   <stop stop-color="#d40000" stop-opacity=".8365" offset=".4722"/>
   <stop stop-color="#d40000" stop-opacity=".5975" offset=".6758"/>
   <stop stop-color="#d40000" stop-opacity=".0566" offset="1"/>
  </radialGradient>
  <radialGradient id="h" cx="49.497" cy="86.656" r="78.792" gradientUnits="userSpaceOnUse">
   <stop stop-color="#ffa74d" stop-opacity=".7484" offset="0"/>
   <stop stop-color="#ff270f" offset=".2821"/>
   <stop stop-color="#f00" stop-opacity="0" offset="1"/>
  </radialGradient>
  <radialGradient id="g" cx="-6.3138" cy="527.84" r="13.132" gradientUnits="userSpaceOnUse">
   <stop stop-color="#ff0" offset="0"/>
   <stop stop-color="#ffa500" stop-opacity="0" offset="1"/>
  </radialGradient>
  <radialGradient id="f" cx="185.37" cy="3.8315" r="154.05" gradientTransform="matrix(-1.4236 .02373 -.01478 -.58739 255.89 423.29)" gradientUnits="userSpaceOnUse" xlink:href="#a"/>
  <radialGradient id="e" cx="185.37" cy="3.8315" r="154.05" gradientTransform="matrix(-2.5288 .05134 -.02626 -1.2705 462.54 381.33)" gradientUnits="userSpaceOnUse" xlink:href="#a"/>
  <radialGradient id="d" cx="185.37" cy="3.8315" r="154.05" gradientTransform="matrix(-.69907 .00784 -.00726 -.19415 120.52 444.87)" gradientUnits="userSpaceOnUse" xlink:href="#a"/>
  <radialGradient id="c" cx="185.37" cy="3.8315" r="154.05" gradientTransform="matrix(-.80264 .01199 -.00833 -.29675 518.55 332.9)" gradientUnits="userSpaceOnUse" xlink:href="#a"/>
  <radialGradient id="b" cx="185.37" cy="3.8315" r="154.05" gradientTransform="matrix(-.5097 .00616 -.00529 -.15234 464.24 352.12)" gradientUnits="userSpaceOnUse" xlink:href="#a"/>
 </defs>
 <g transform="translate(297.24 -236.92)">
  <path transform="matrix(1 0 0 -1 -492.7 1071.6)" d="m706.1 543.75c0 121.34-98.367 219.71-219.71 219.71s-219.71-98.367-219.71-219.71 98.367-219.71 219.71-219.71 219.71 98.367 219.71 219.71z" fill="url(#n)" stroke="url(#m)" stroke-linecap="round" stroke-linejoin="round" stroke-width=".848"/>
  <path d="m213.4 527.84c0 121.34-98.367 219.71-219.71 219.71s-219.71-98.367-219.71-219.71 98.367-219.71 219.71-219.71 219.71 98.367 219.71 219.71z" fill="url(#l)" stroke="url(#k)" stroke-linecap="round" stroke-linejoin="round" stroke-width=".848"/>
  <path transform="matrix(.93563 0 0 .93563 -461.39 19.09)" d="m706.1 543.75c0 121.34-98.367 219.71-219.71 219.71s-219.71-98.367-219.71-219.71 98.367-219.71 219.71-219.71 219.71 98.367 219.71 219.71z" fill="url(#j)"/>
  <path transform="matrix(.82759 0 0 .82759 -408.84 77.84)" d="m706.1 543.75c0 121.34-98.367 219.71-219.71 219.71s-219.71-98.367-219.71-219.71 98.367-219.71 219.71-219.71 219.71 98.367 219.71 219.71z"/>
  <path transform="matrix(2.048 0 0 2.0084 32.993 -516.54)" d="m54.548 520.01c0 42.362-33.015 76.703-73.741 76.703s-73.741-34.341-73.741-76.703 33.015-76.703 73.741-76.703c40.377 0 73.245 33.776 73.736 75.771" fill="url(#i)"/>
  <path transform="matrix(1.2372 0 0 1.2372 -67.551 420.63)" d="m128.29 86.656c0 42.958-35.276 77.782-78.792 77.782s-78.792-34.824-78.792-77.782 35.276-77.782 78.792-77.782c43.142 0 78.262 34.251 78.786 76.837" fill="url(#h)"/>
  <path d="m6.8185 527.84c0 7.253-5.8794 13.132-13.132 13.132s-13.132-5.879-13.132-13.132 5.8794-13.132 13.132-13.132c7.1904 0 13.044 5.783 13.131 12.973" fill="url(#g)"/>
  <path d="m-8.0527 418.98c-14.039 0-27.275 2.8379-38.878 7.8309 4.3463 2.6753 8.5176 5.5291 12.508 8.5389 8.2845-2.2477 17.157-3.4676 26.371-3.4676 8.0215 0 15.775 0.92196 23.116 2.644 4.3003-3.0754 8.7912-5.972 13.476-8.6689-11.05-4.4075-23.457-6.8774-36.592-6.8774h-1e-5zm60.059 20.82c-3.8612 1.5093-7.627 3.1392-11.312 4.8835 7.5088 4.4164 14.084 9.826 19.422 15.994 2.5034-0.77301 5.029-1.4891 7.5822-2.1528-3.9252-6.9532-9.2575-13.278-15.692-18.725zm-120.98 0.76575c-6.8004 5.9369-12.317 12.861-16.167 20.488 2.259 0.72614 4.5051 1.4986 6.7202 2.3117 5.3571-6.8645 12.199-12.892 20.143-17.786-3.4749-1.7833-7.0502-3.4438-10.696-5.0135zm144.24 46.769c-0.44152 0.09408-0.87921 0.19155-1.3194 0.28894 0.4077 1.8484 0.7304 3.7233 0.94998 5.6204 0.22624-1.9505 0.35094-3.9156 0.36943-5.9093zm-166.54 2.4706c0.06182 1.1531 0.16705 2.3005 0.29906 3.4387 0.12547-1.0839 0.27006-2.1535 0.45741-3.222-0.25271-0.07229-0.50327-0.1455-0.75647-0.2167z" fill="url(#f)" opacity=".6548"/>
  <path d="m-6.3284 372.01c-24.938 0-48.435 6.1302-69.047 16.93 7.7207 5.7864 15.127 11.967 22.215 18.477 14.716-4.8615 30.465-7.4978 46.832-7.4978 14.249 0 28.028 1.988 41.068 5.7126 7.639-6.6518 15.635-12.911 23.956-18.745-19.629-9.533-41.693-14.877-65.024-14.877zm106.69 45.046c-6.8589 3.2644-13.538 6.7898-20.084 10.562 33.627 24.082 56.625 61.835 60.731 105.03 0.43773-4.5949 0.66045-9.2458 0.66045-13.954 0-39.462-15.727-75.27-41.308-101.64zm-214.92 1.6364c-24.651 26.203-39.747 61.348-39.747 100 0 4.7084 0.22272 9.3594 0.66045 13.954 3.9983-42.06 25.902-78.953 58.09-103.09-6.1728-3.8571-12.527-7.4648-19.003-10.86z" fill="url(#e)" opacity=".9683"/>
  <path d="m-9.0955 443.45c-22.594 0-40.906 10.037-40.906 22.416 0 0.71952 0.06157 1.4303 0.18257 2.1324 1.957-11.38 19.44-20.284 40.723-20.284s38.774 8.9032 40.731 20.284c0.12101-0.70218 0.18258-1.4129 0.18258-2.1324 0-12.379-18.32-22.416-40.914-22.416z" fill="url(#d)" opacity=".4246"/>
 </g>
 <path transform="translate(-80.812 -112.92)" d="m369.73 330.73c-7.9154 0-11.585 0.4217-18.127 2.9441 1.4404 2.8668 1.6445 3.0477 3.263 5.3258 4.671-1.1355 9.6697-1.7513 14.864-1.7513 4.5227 0 8.8961 0.46435 13.035 1.3343 1.1619-1.5537 1.7202-2.9954 3.0987-5.6206-6.2304-2.2266-8.7283-2.2323-16.134-2.2323zm33.864 10.521c-2.0508 1.6464-2.5293 2.091-3.8492 3.9823 10.673 5.6248 15.447 12.928 16.751 23.016 0.13895-1.0732 0.20963-2.1596 0.20963-3.2593 0-9.2172-4.9918-17.581-13.111-23.739zm-68.214 0.38223c-7.8241 6.1203-12.616 14.329-12.616 23.357 0 1.0998 0.07068 2.1861 0.2096 3.2593 1.2691-9.824 6.4536-15.663 16.67-21.302-1.9593-2.795-2.587-3.5114-4.2638-5.3145z" fill="url(#c)" opacity=".5297"/>
 <path transform="translate(-80.812 -112.92)" d="m369.73 351c-5.0265 0-7.357 0.2165-11.512 1.5114 0.9147 1.4717 1.0443 1.5646 2.0721 2.7341 2.9662-0.58292 6.1406-0.89905 9.4394-0.89905 2.872 0 5.6493 0.23837 8.2776 0.68497 0.73786-0.79758 1.0924-1.5378 1.9677-2.8854-3.9565-1.1431-5.5428-1.146-10.245-1.146zm21.505 5.4015c-1.3023 0.84519-1.6062 1.0734-2.4444 2.0444 6.7778 2.8876 9.8097 6.6366 10.637 11.816 0.08819-0.55097 0.13311-1.1086 0.13311-1.6732 0-4.7318-3.1699-9.0256-8.326-12.187zm-43.318 0.1962c-4.9685 3.142-8.0114 7.3562-8.0114 11.991 0 0.56457 0.0449 1.1222 0.13312 1.6732 0.80591-5.0434 4.0982-8.041 10.586-10.936-1.2442-1.4349-1.6428-1.8026-2.7076-2.7283z" fill="url(#b)" opacity=".5297"/>
 <path transform="matrix(.78249 -.62266 .62266 .78249 -249.39 170.8)" d="m434.29 320.58c0 29.389-36.457 53.214-81.429 53.214s-81.429-23.825-81.429-53.214 36.457-53.214 81.429-53.214 81.429 23.825 81.429 53.214z" fill="#fff" filter="url(#o)" opacity=".2738"/>
</svg>
