<?xml version='1.0' encoding='utf-8'?>
<svg xmlns="http://www.w3.org/2000/svg" width="5000" height="5000" viewBox="0 0 1322.9166 1322.9167" version="1.1" id="svg8"> <defs id="defs2"> </defs> <metadata id="metadata5"> </metadata> <g id="layer1" transform="translate(0,1025.9167)"> <path style="opacity:1;fill:#13263c;fill-opacity:1;fill-rule:nonzero;stroke:none;stroke-width:85.12673187;stroke-linecap:round;stroke-linejoin:round;stroke-miterlimit:4;stroke-dasharray:none;stroke-dashoffset:8.12598419;stroke-opacity:1;paint-order:markers stroke fill" d="m 2496.7109,623.07422 a 1874.4569,1876.9264 0 0 0 -132.5937,4.70117 1874.4569,1876.9264 0 0 0 -368.8203,63.69727 1874.4569,1876.9264 0 0 0 -177.8106,59.1582 1874.4569,1876.9264 0 0 0 -1111.51169,1194.69924 1874.4569,1876.9264 0 0 0 -46.35547,181.7812 1874.4569,1876.9264 0 0 0 -28,185.5058 1874.4569,1876.9264 0 0 0 -9.36523,187.3809 1874.4569,1876.9264 0 0 0 203.92773,851.3652 1874.4569,1876.9264 0 0 0 202.21676,315.3476 1874.4569,1876.9264 0 0 0 123.6602,140.9492 1874.4569,1876.9264 0 0 0 137.0937,127.8867 1874.4569,1876.9264 0 0 0 653.6192,357.543 1874.4569,1876.9264 0 0 0 366.8066,74.4531 1874.4569,1876.9264 0 0 0 187.1328,9.377 1874.4569,1876.9264 0 0 0 1837.0918,-1504.0391 1874.4569,1876.9264 0 0 0 28,-185.5058 1874.4569,1876.9264 0 0 0 9.3653,-187.3809 1874.4569,1876.9264 0 0 0 -68.3086,-502.0762 1874.4569,1876.9264 0 0 0 -59.0821,-178.0429 1874.4569,1876.9264 0 0 0 -76.5371,-171.2481 1874.4569,1876.9264 0 0 0 -93.2285,-162.7402 A 1874.4569,1876.9264 0 0 0 3965.0234,1333.2832 1874.4569,1876.9264 0 0 0 3841.3633,1192.334 1874.4569,1876.9264 0 0 0 3704.2695,1064.4473 1874.4569,1876.9264 0 0 0 3555.1094,950.90625 1874.4569,1876.9264 0 0 0 3226.6582,771.23633 1874.4569,1876.9264 0 0 0 3050.6504,706.9043 1874.4569,1876.9264 0 0 0 2683.8438,632.45117 1874.4569,1876.9264 0 0 0 2496.7109,623.07422 Z" transform="matrix(0.26458333,0,0,0.26458333,0,-1025.9167)" id="path826"/> <path style="opacity:1;fill:#ff7402;fill-opacity:1;fill-rule:nonzero;stroke:none;stroke-width:77.74911499;stroke-linecap:round;stroke-linejoin:round;stroke-miterlimit:4;stroke-dasharray:none;stroke-dashoffset:8.12598419;stroke-opacity:1;paint-order:markers stroke fill" d="m 3728.1953,3075.7988 c -126.5473,0.017 -240.7406,75.9292 -289.7344,192.6074 -16.1954,-4.3954 -32.8947,-6.6606 -49.6757,-6.7382 -88.4887,0.1129 -165.5732,60.3677 -187.0489,146.2109 -4.9855,-0.4 -9.9819,-0.6501 -14.9824,-0.75 -137.87,6e-4 -249.6352,111.7667 -249.6348,249.6367 -4e-4,137.87 111.7648,249.6361 249.6348,249.6367 137.8707,4e-4 249.6371,-111.766 249.6367,-249.6367 -0.027,-4.995 -0.2031,-9.9882 -0.5293,-14.9726 24.4199,-6.1644 47.3978,-17.0472 67.6387,-32.0352 59.1165,60.4871 140.1172,94.5944 224.6953,94.6133 115.0796,-0.01 220.9526,-62.9113 275.9902,-163.9766 9.3177,11.2286 20.0413,22.0093 31.1739,31.4414 92.9969,-133.6685 168.4122,-278.7229 223.2768,-431.3081 -19.4602,-4.8691 -41.6702,-8.0706 -61.73,-8.1587 -77.7995,0.122 -151.0942,36.509 -198.2246,98.4082 -56.3834,-95.886 -159.2515,-154.8255 -270.4863,-154.9785 z m -1466.4726,48.8028 c 0,258.137 22.8969,474.9824 -243.8184,709.289 L 2500,4050.002 2982.0957,3833.8906 c -266.7153,-234.3066 -243.8184,-451.152 -243.8184,-709.289 H 2500 Z" transform="matrix(0.26458333,0,0,0.26458333,0,-1025.9167)" id="path890"/> <path style="opacity:1;fill:#ffffff;fill-opacity:1;fill-rule:nonzero;stroke:none;stroke-width:13.07784939;stroke-linecap:round;stroke-linejoin:round;stroke-miterlimit:4;stroke-dasharray:none;stroke-dashoffset:8.12598419;stroke-opacity:1;paint-order:markers stroke fill" id="path965" d="m 316.51004,-332.65151 -13.09605,-48.61063 -48.61063,-13.09604 48.61063,-13.09605 13.09605,-48.61063 13.09605,48.61063 48.61063,13.09604 -48.61063,13.09605 z"/> <path d="m 1019.9005,-440.44498 -10.4834,-38.91308 -38.91313,-10.48346 38.91313,-10.48346 10.4834,-38.91309 10.4835,38.91309 38.9131,10.48346 -38.9131,10.48346 z" id="path967" style="opacity:1;fill:#ffffff;fill-opacity:1;fill-rule:nonzero;stroke:none;stroke-width:10.4688921;stroke-linecap:round;stroke-linejoin:round;stroke-miterlimit:4;stroke-dasharray:none;stroke-dashoffset:8.12598419;stroke-opacity:1;paint-order:markers stroke fill"/> <path style="opacity:1;fill:#ffffff;fill-opacity:1;fill-rule:nonzero;stroke:none;stroke-width:6.84367847;stroke-linecap:round;stroke-linejoin:round;stroke-miterlimit:4;stroke-dasharray:none;stroke-dashoffset:8.12598419;stroke-opacity:1;paint-order:markers stroke fill" id="path969" d="m 929.88306,-295.69503 -6.8532,-25.4381 -25.4381,-6.8532 25.4381,-6.8532 6.8532,-25.43809 6.8532,25.43809 25.43809,6.8532 -25.43809,6.8532 z"/> <path style="opacity:1;fill:#ffa005;fill-opacity:1;fill-rule:nonzero;stroke:none;stroke-width:113.38582611;stroke-linecap:round;stroke-linejoin:round;stroke-miterlimit:4;stroke-dasharray:none;stroke-dashoffset:8.12598419;stroke-opacity:1;paint-order:markers stroke fill" d="m 894.62891,2870.2832 c -79.71798,0.1448 -158.1976,30.7159 -216.32078,85.2748 47.67853,191.8854 126.02991,377.0931 231.90476,542.4947 78.99069,-3.926 153.59741,-37.4888 208.93551,-93.9922 47.1159,120.516 163.281,199.8367 292.6797,199.8497 22.854,-0.1318 45.6254,-2.7561 67.9102,-7.8262 15.8845,119.9974 118.1317,209.7102 239.1758,209.8555 25.8621,-0.1028 51.54,-4.3582 76.0527,-12.6036 13.0328,72.7521 76.3105,125.7187 150.2207,125.7422 6.5293,-0.063 13.0479,-0.5441 19.5156,-1.4414 14.0558,71.5463 76.7443,123.1657 149.6582,123.2324 60.2675,-0.051 114.8646,-35.5531 139.3575,-90.6191 l 186.1972,129.6738 c -0.4662,5.9311 -0.7638,11.8743 -0.8926,17.8223 0.1368,114.7946 62.8503,220.3826 163.5879,275.4258 128.5464,-7.2782 256.0019,-27.7987 380.3477,-61.2364 54.2976,-58.1154 84.5424,-134.6557 84.6367,-214.1894 -0.022,-0.698 -0.047,-1.396 -0.074,-2.0938 36.823,-3.8652 71.6389,-18.6914 99.9433,-42.5605 45.6012,48.5043 109.1992,76.0379 175.7735,76.0977 133.407,0 241.5547,-108.1477 241.5547,-241.5547 -0.046,-22.8587 -3.3355,-45.5953 -9.7715,-67.5293 10.4025,-3.3142 20.518,-7.4699 30.2461,-12.4258 18.4152,51.2191 50.0926,98.7112 91.4051,134.1483 162.4049,-134.9622 300.9816,-297.6884 408.9467,-478.7353 -56.6473,-48.0424 -130.4992,-75.4879 -204.7756,-75.6122 -91.1053,0.074 -177.6954,39.6782 -237.334,108.5507 -38.1082,-43.2358 -92.9315,-68.0484 -150.5645,-68.1445 -111.092,0 -201.1503,90.0565 -201.1504,201.1485 0.064,6.4334 0.4358,12.8601 1.1153,19.2578 -69.1887,8.7294 -131.2287,46.935 -170.1641,104.791 -28.5623,-17.068 -61.1994,-26.1162 -94.4727,-26.1914 -64.3776,0.095 -124.076,33.6529 -157.6191,88.6015 -41.3074,-20.1577 -86.5335,-31.0096 -132.4902,-31.791 -117.4556,-214.3171 -99.6329,-408.0086 -99.6329,-642.4785 H 2500 2341.4688 c 0,238.6896 18.4693,435.1182 -106.1075,654.0684 -28.8639,-37.6285 -73.5761,-59.706 -121,-59.7461 -6.5293,0.063 -13.0479,0.5441 -19.5156,1.4414 -13.4001,-67.8161 -70.6977,-118.1647 -139.6738,-122.7344 3.4911,-16.3942 5.2663,-33.1073 5.2969,-49.8691 -0.1126,-131.2563 -105.0176,-238.4024 -236.2422,-241.2891 1.2239,-11.1154 1.8537,-22.2882 1.8867,-33.4707 8e-4,-173.5755 -140.7097,-314.2868 -314.2852,-314.2871 -84.5433,0.1135 -165.4757,34.2834 -224.5195,94.793 -47.1166,-120.5152 -163.2815,-199.835 -292.67969,-199.8477 z" transform="matrix(0.26458333,0,0,0.26458333,0,-1025.9167)" id="circle832"/> <path style="opacity:1;fill:#ffca05;fill-opacity:1;fill-rule:nonzero;stroke:none;stroke-width:113.38582611;stroke-linecap:round;stroke-linejoin:round;stroke-miterlimit:4;stroke-dasharray:none;stroke-dashoffset:8.12598419;stroke-opacity:1;paint-order:markers stroke fill" d="m 1244.3496,3286.0098 c -88.0004,0.1457 -171.9088,37.1793 -231.3223,102.0957 -27.74095,-24.1144 -63.25099,-37.4102 -100.00777,-37.4453 -26.55004,0.041 -53.50918,7.5921 -76.54492,20.7929 323.34479,618.1436 963.35149,1005.0571 1660.23629,1005.4727 484.5196,-0.1585 950.4004,-187.7338 1299.4941,-524.1718 -38.6761,-74.7703 -116.0397,-122.1956 -200.2206,-122.2774 -102.3921,0.13 -191.8312,69.2615 -217.7598,168.3164 -20.3395,-9.6644 -42.5653,-14.7095 -65.084,-14.7735 -57.8376,0.076 -110.6659,32.8299 -136.4511,84.6016 -10.9123,-2.478 -22.064,-3.7486 -33.254,-3.7891 -42.2034,0.072 -82.4942,17.6115 -111.3027,48.4532 -39.6627,-31.2978 -88.6908,-48.3619 -139.2148,-48.4532 -54.6528,0.104 -107.4062,20.0623 -148.4414,56.1602 -59.5324,-76.2085 -150.8341,-120.7673 -247.5391,-120.8086 -64.7414,0.1369 -127.8608,20.2643 -180.7305,57.6309 -22.6221,-59.0375 -79.2942,-98.022 -142.5175,-98.0372 -39.0517,0.031 -76.6067,15.027 -104.9395,41.9024 -41.9258,-61.5269 -111.5309,-98.3798 -185.9844,-98.4707 -18.4672,0.071 -36.8557,2.4115 -54.7519,6.9687 3.5268,-15.8452 5.3315,-32.025 5.3828,-48.2578 2e-4,-124.481 -100.9116,-225.3928 -225.3926,-225.3926 -18.4505,0.072 -36.8223,2.4091 -54.7031,6.959 -27.4036,-149.1079 -157.3461,-257.4005 -308.9512,-257.4765 z" transform="matrix(0.26458333,0,0,0.26458333,0,-1025.9167)" id="circle830"/> <g id="g935" transform="matrix(1.6839827,0,0,1.6839827,2034.322,216.7822)"> <path id="rect875" d="m -815.03125,-515.61133 c -6.08714,-0.0755 -11.77259,3.03048 -14.99805,8.19336 l -117.88672,188.75391 c -1.72937,2.7689 -2.64635,5.96783 -2.64648,9.23242 v 128.92383 c 0.002,7.88182 5.29344,14.78135 12.90506,16.82739 7.61162,2.04605 15.64909,-1.27063 19.60275,-8.08911 l 102.8086,-177.41406 102.80664,177.41406 c 3.9545,6.81643 11.99077,10.13149 19.60106,8.08568 7.61028,-2.04581 12.90115,-8.94349 12.9048,-16.82396 v -128.92383 c -1.3e-4,-3.26459 -0.91711,-6.46352 -2.64649,-9.23242 l -117.88476,-188.75391 c -3.14413,-5.03269 -8.63276,-8.11996 -14.56641,-8.19336 z" style="color:#000000;font-style:normal;font-variant:normal;font-weight:normal;font-stretch:normal;font-size:medium;line-height:normal;font-family:sans-serif;font-variant-ligatures:normal;font-variant-position:normal;font-variant-caps:normal;font-variant-numeric:normal;font-variant-alternates:normal;font-feature-settings:normal;text-indent:0;text-align:start;text-decoration:none;text-decoration-line:none;text-decoration-style:solid;text-decoration-color:#000000;letter-spacing:normal;word-spacing:normal;text-transform:none;writing-mode:lr-tb;direction:ltr;text-orientation:mixed;dominant-baseline:auto;baseline-shift:baseline;text-anchor:start;white-space:normal;shape-padding:0;clip-rule:nonzero;display:inline;overflow:visible;visibility:visible;opacity:1;isolation:auto;mix-blend-mode:normal;color-interpolation:sRGB;color-interpolation-filters:linearRGB;solid-color:#000000;solid-opacity:1;vector-effect:none;fill:#fa2e24;fill-opacity:1;fill-rule:nonzero;stroke:none;stroke-width:34.85576248;stroke-linecap:round;stroke-linejoin:round;stroke-miterlimit:4;stroke-dasharray:none;stroke-dashoffset:0;stroke-opacity:1;paint-order:normal;color-rendering:auto;image-rendering:auto;shape-rendering:auto;text-rendering:auto;enable-background:accumulate"/> <path id="path863" transform="matrix(0.26458333,0,0,0.26458333,0,-1025.9167)" d="m -3081.25,1296.875 c 0,0 -381.25,237.5 -381.25,840.625 0,198.8417 71.0724,469.3854 174.7324,856.25 95.3966,55.0773 317.6386,55.0773 413.0352,0 C -2746.8081,2606.8854 -2700,2336.3419 -2700,2137.5 c 0,-603.125 -381.25,-840.625 -381.25,-840.625 z" style="opacity:1;fill:#ffffff;fill-opacity:1;fill-rule:nonzero;stroke:none;stroke-width:151.18110657;stroke-linecap:round;stroke-linejoin:round;stroke-miterlimit:4;stroke-dasharray:none;stroke-dashoffset:0;stroke-opacity:1;paint-order:normal"/> <circle r="42.994781" cy="-509.1524" cx="-815.24738" id="path873" style="opacity:1;fill:#127486;fill-opacity:1;fill-rule:nonzero;stroke:none;stroke-width:41.60000229;stroke-linecap:round;stroke-linejoin:round;stroke-miterlimit:4;stroke-dasharray:none;stroke-dashoffset:0;stroke-opacity:1;paint-order:normal"/> <path id="path897" transform="matrix(0.26458333,0,0,0.26458333,0,-1025.9167)" d="m -2853.0508,2926.8398 c -106.3977,51.9212 -342.2649,52.6019 -452.0703,2.0469 5.6849,21.2854 11.4502,42.8317 17.3535,64.8633 95.3966,55.0773 317.6386,55.0773 413.0352,0 7.5081,-22.706 14.7254,-44.9966 21.6816,-66.9102 z" style="opacity:1;fill:#474747;fill-opacity:1;fill-rule:nonzero;stroke:none;stroke-width:151.18110657;stroke-linecap:round;stroke-linejoin:round;stroke-miterlimit:4;stroke-dasharray:none;stroke-dashoffset:0;stroke-opacity:1;paint-order:normal"/> <path id="path887" d="m -815.47266,-356.58789 a 15.0015,15.0015 0 0 0 -14.77539,15.21094 v 138.5625 a 15.0015,15.0015 0 1 0 30,0 v -138.5625 a 15.0015,15.0015 0 0 0 -15.22461,-15.21094 z" style="color:#000000;font-style:normal;font-variant:normal;font-weight:normal;font-stretch:normal;font-size:medium;line-height:normal;font-family:sans-serif;font-variant-ligatures:normal;font-variant-position:normal;font-variant-caps:normal;font-variant-numeric:normal;font-variant-alternates:normal;font-feature-settings:normal;text-indent:0;text-align:start;text-decoration:none;text-decoration-line:none;text-decoration-style:solid;text-decoration-color:#000000;letter-spacing:normal;word-spacing:normal;text-transform:none;writing-mode:lr-tb;direction:ltr;text-orientation:mixed;dominant-baseline:auto;baseline-shift:baseline;text-anchor:start;white-space:normal;shape-padding:0;clip-rule:nonzero;display:inline;overflow:visible;visibility:visible;opacity:1;isolation:auto;mix-blend-mode:normal;color-interpolation:sRGB;color-interpolation-filters:linearRGB;solid-color:#000000;solid-opacity:1;vector-effect:none;fill:#fa2e24;fill-opacity:1;fill-rule:nonzero;stroke:none;stroke-width:30;stroke-linecap:round;stroke-linejoin:round;stroke-miterlimit:4;stroke-dasharray:none;stroke-dashoffset:0;stroke-opacity:1;paint-order:normal;color-rendering:auto;image-rendering:auto;shape-rendering:auto;text-rendering:auto;enable-background:accumulate"/> <circle style="opacity:1;fill:#1db7d3;fill-opacity:1;fill-rule:nonzero;stroke:none;stroke-width:35.66030502;stroke-linecap:round;stroke-linejoin:round;stroke-miterlimit:4;stroke-dasharray:none;stroke-dashoffset:0;stroke-opacity:1;paint-order:normal" id="circle893" cx="-810.99829" cy="-504.43973" r="36.855934"/> <path id="circle889" d="m -815.24805,-559.64648 c -27.79866,0 -50.49414,22.69547 -50.49414,50.49414 0,27.79866 22.69548,50.49414 50.49414,50.49414 27.79867,0 50.4961,-22.69548 50.4961,-50.49414 0,-27.79867 -22.69743,-50.49414 -50.4961,-50.49414 z m 0,15 c 19.69206,0 35.4961,15.80207 35.4961,35.49414 0,19.69206 -15.80404,35.49414 -35.4961,35.49414 -19.69206,0 -35.49414,-15.80208 -35.49414,-35.49414 0,-19.69207 15.80208,-35.49414 35.49414,-35.49414 z" style="color:#000000;font-style:normal;font-variant:normal;font-weight:normal;font-stretch:normal;font-size:medium;line-height:normal;font-family:sans-serif;font-variant-ligatures:normal;font-variant-position:normal;font-variant-caps:normal;font-variant-numeric:normal;font-variant-alternates:normal;font-feature-settings:normal;text-indent:0;text-align:start;text-decoration:none;text-decoration-line:none;text-decoration-style:solid;text-decoration-color:#000000;letter-spacing:normal;word-spacing:normal;text-transform:none;writing-mode:lr-tb;direction:ltr;text-orientation:mixed;dominant-baseline:auto;baseline-shift:baseline;text-anchor:start;white-space:normal;shape-padding:0;clip-rule:nonzero;display:inline;overflow:visible;visibility:visible;opacity:1;isolation:auto;mix-blend-mode:normal;color-interpolation:sRGB;color-interpolation-filters:linearRGB;solid-color:#000000;solid-opacity:1;vector-effect:none;fill:#22303b;fill-opacity:1;fill-rule:nonzero;stroke:none;stroke-width:15;stroke-linecap:round;stroke-linejoin:round;stroke-miterlimit:4;stroke-dasharray:none;stroke-dashoffset:0;stroke-opacity:1;paint-order:normal;color-rendering:auto;image-rendering:auto;shape-rendering:auto;text-rendering:auto;enable-background:accumulate"/> <path id="path901" transform="matrix(0.26458333,0,0,0.26458333,0,-1025.9167)" d="m -3081.25,1296.875 c 0,0 -101.737,63.3832 -200.1016,207.8008 a 472.74308,229.6875 0 0 0 200.1016,21.8867 472.74308,229.6875 0 0 0 200.1113,-21.873 C -2979.506,1360.2627 -3081.25,1296.875 -3081.25,1296.875 Z" style="opacity:1;fill:#fa2e24;fill-opacity:1;fill-rule:nonzero;stroke:none;stroke-width:113.86774445;stroke-linecap:round;stroke-linejoin:round;stroke-miterlimit:4;stroke-dasharray:none;stroke-dashoffset:0;stroke-opacity:1;paint-order:normal"/> <path id="rect908" transform="matrix(0.26458333,0,0,0.26458333,0,-1025.9167)" d="m -3081.25,1296.875 v 1232.9004 638.5937 a 56.698582,56.698582 0 0 0 56.6914,-57.4316 v -78.2637 c 58.9789,-5.0207 113.5671,-17.9896 149.8262,-38.9238 C -2746.8081,2606.8854 -2700,2336.3419 -2700,2137.5 c 0,-603.125 -381.25,-840.625 -381.25,-840.625 z" style="opacity:0.15;fill:#000000;fill-opacity:1;fill-rule:nonzero;stroke:none;stroke-width:56.69291306;stroke-linecap:round;stroke-linejoin:round;stroke-miterlimit:4;stroke-dasharray:none;stroke-dashoffset:0;stroke-opacity:1;paint-order:normal"/> </g> </g> </svg>