<?xml version="1.0" encoding="UTF-8"?>
<svg viewBox="0 0 600 600" xmlns="http://www.w3.org/2000/svg" xmlns:xlink="http://www.w3.org/1999/xlink">
 <defs>
  <filter id="k">
   <feGaussianBlur stdDeviation="1.37372"/>
  </filter>
  <filter id="j">
   <feGaussianBlur stdDeviation="1.88601"/>
  </filter>
  <filter id="i">
   <feGaussianBlur stdDeviation="2.30499"/>
  </filter>
  <filter id="h">
   <feGaussianBlur stdDeviation="2.453"/>
  </filter>
  <filter id="g">
   <feGaussianBlur stdDeviation="1.74914"/>
  </filter>
  <filter id="f">
   <feGaussianBlur stdDeviation="4.8198"/>
  </filter>
  <filter id="e" x="-.02021" y="-.1643" width="1.0404" height="1.3286">
   <feGaussianBlur stdDeviation="3.99213"/>
  </filter>
  <linearGradient id="a">
   <stop stop-color="#fff" offset="0"/>
   <stop stop-color="#fff" stop-opacity="0" offset="1"/>
  </linearGradient>
  <linearGradient id="d" x1="253.4" x2="289.11" y1="608.26" y2="363.68" gradientUnits="userSpaceOnUse" xlink:href="#a"/>
  <linearGradient id="c" x1="364.73" x2="338.11" y1="-.52077" y2="193.54" gradientUnits="userSpaceOnUse" xlink:href="#a"/>
  <radialGradient id="b" cx="486.08" cy="434.19" r="277.44" gradientTransform="matrix(1.5173 .05089 -.03764 1.1222 -236.08 -81.911)" gradientUnits="userSpaceOnUse">
   <stop stop-color="#fff" stop-opacity=".656" offset="0"/>
   <stop stop-color="#fff" stop-opacity="0" offset="1"/>
  </radialGradient>
 </defs>
 <path transform="translate(-93.991 -212.99)" d="m669.08 247.6c-124.67 0.7349-249.35-0.1383-374.02 0.3307-33.876 0.2722-40.957 1.2158-46.264 2.0755-32.004 5.1843-45.23 11.38-65.094 30.594-22.937 22.186-38.61 46.048-52.5 79.875-4.477 10.903-12.027 32.811-15.5 44.938l-1.5 5.25 17.375-0.031 6.3438-10.281c15.054-24.471 33.057-45.134 47.469-54.5 17.984-11.688 41.997-17.162 75.562-17.188h11.344c-2.5989 29.804-4.5922 59.661-6.75 89.5-6.7028 93.243-6.803 94.425-10.562 118.5-10.954 70.149-20.595 96.734-49.812 137.38-26.329 36.623-30.848 45.184-33.031 62.594-3.0318 24.18 9.6834 44.375 33.031 52.5 10.888 3.5794 23.552 3.6494 34.031-1.2187v0.031c12.054-5.9343 26.101-22.343 34.844-40.688 15.985-33.541 33.797-126.34 46-239.59 1.0341-9.5973 13.031-174.36 13.031-178.79l140.25-0.2062c-9.2089 64.187-14.802 128.9-20.312 193.5-1.7146 22.465-2.3431 96.724-1 117.16 3.7518 57.075 12.989 92.631 29.906 115 14.68 19.411 32.214 31.323 52.812 35.906 9.2392 2.0555 28.464 1.5225 37.844-1.0625 15.806-4.3559 32.792-14.858 47.062-29.094 18.537-18.492 30.485-41.756 39.469-76.906 3.464-13.553 8.9688-42.819 8.9688-47.594l-17.406 0.3437c-2.9839 14.493-4.1572 19.007-6.4688 24.688-6.6041 16.228-19.404 28.301-36.125 34.156-20.731 6.1896-42.772 3.0609-61.188-7.8124-17.898-11.691-28.855-31.322-33.406-59.875-4.7688-99.638 6.7697-199.58 20.594-298.16l135-0.25v-81.062z"/>
 <path d="m575.09 34.625c-124.67 0.7349-249.36-0.1565-374.03 0.3125-33.876 0.2722-40.943 1.234-46.25 2.0938-32.004 5.1843-45.23 11.38-65.094 30.594-22.937 22.186-38.61 46.048-52.5 79.875-4.477 10.903-12.027 32.811-15.5 44.938l-1.5 5.25 17.375-0.0312 6.3438-10.281c15.054-24.471 33.057-45.134 47.469-54.5 17.984-11.688 41.997-17.162 75.562-17.188h11.344c-2.5989 29.804-4.5922 59.661-6.75 89.5-6.7028 93.243-6.803 94.425-10.562 118.5-10.954 70.149-20.595 96.734-49.812 137.38-26.329 36.623-30.848 45.184-33.031 62.594-3.0318 24.18 9.6834 44.375 33.031 52.5 10.888 3.5794 23.552 3.6494 34.031-1.2188v0.0312c12.054-5.9343 26.101-22.343 34.844-40.688 15.985-33.541 33.797-126.34 46-239.59 1.0341-9.5973 13.031-174.37 13.031-178.81l140.25-0.1875c-9.2089 64.187-14.802 128.9-20.312 193.5-1.7146 22.465-2.3431 96.724-1 117.16 3.7518 57.075 12.989 92.631 29.906 115 14.68 19.411 32.214 31.323 52.812 35.906 9.2392 2.0555 28.464 1.5225 37.844-1.0625 15.806-4.3559 32.792-14.858 47.062-29.094 18.537-18.492 30.485-41.755 39.469-76.906 3.464-13.553 8.9688-42.819 8.9688-47.594l-17.406 0.34375c-2.9839 14.493-4.1572 19.007-6.4688 24.688-6.6041 16.228-19.404 28.301-36.125 34.156-20.731 6.1896-42.772 3.0608-61.188-7.8125-17.898-11.691-28.855-31.322-33.406-59.875-4.7688-99.638 6.7697-199.58 20.594-298.16l135-0.25v-81.062zm-6.375 6.3438v68.312l-128.62 0.25a6.3725 6.3725 0 0 0 -6.3125 5.5c-13.839 98.675-25.458 199.01-20.656 299.34a6.3725 6.3725 0 0 0 0.0937 0.6875c4.7302 29.674 16.553 51.393 36.188 64.219a6.3725 6.3725 0 0 0 0.25 0.15625c19.871 11.733 43.768 15.118 66.25 8.4062a6.3725 6.3725 0 0 0 0.28125 -0.0937c18.342-6.4233 32.666-19.881 39.938-37.75 2.0881-5.1311 3.534-10.768 5.6875-20.812l5.0625-0.0937c-3e-3 0.0165 3e-3 0.0147 0 0.0312-0.55523 3.5317-1.3231 7.9938-2.2188 12.75-1.7913 9.5125-4.0587 20.224-5.7188 26.719-8.8154 34.491-20.167 56.397-37.781 73.969-13.59 13.557-29.846 23.468-44.25 27.438-7.4463 2.0521-27.599 2.5979-34.781 1-19.062-4.2409-35.129-15.067-49.094-33.531-15.631-20.668-24.938-54.998-28.656-111.56-1.2679-19.288-0.6413-94.671 1-116.22 5.2e-4 -7e-3 -5.2e-4 -0.0244 0-0.0312 5.5093-64.586 11.108-129.15 20.281-193.09a6.3725 6.3725 0 0 0 -6.3125 -7.2812l-140.25 0.21875a6.3725 6.3725 0 0 0 -6.375 6.375c0-0.44027-0.0383 0.82033-0.125 2.25s-0.21044 3.408-0.375 5.875c-0.32912 4.9341-0.80486 11.77-1.375 19.875-1.1403 16.21-2.6548 37.534-4.2188 59s-3.168 43.082-4.4375 59.938-2.2776 29.383-2.4688 31.156c-6.0859 56.483-13.568 107.87-21.5 149.19s-16.5 72.804-23.906 88.344c-8.1788 17.162-22.056 32.729-31.688 37.594a6.3725 6.3725 0 0 0 -0.0937 0.0312c-8.6515 4.0189-19.751 4.0674-29.25 0.96875-0.0134-5e-3 -0.0178-0.0266-0.0312-0.0312-0.0191-6e-3 -0.0434 6e-3 -0.0625 0-20.867-7.3018-31.418-24.127-28.719-45.656 1.04-8.2943 2.3927-13.59 6.7812-21.906s11.997-19.489 25.125-37.75c29.598-41.171 39.902-69.656 50.906-140.12 3.7617-24.089 3.9222-25.757 10.625-119 2.1595-29.862 4.1586-59.688 6.75-89.406a6.3725 6.3725 0 0 0 -6.3438 -6.9375h-11.344c-34.256 0.02582-59.637 5.6143-79.031 18.219-15.969 10.378-34.035 31.461-49.438 56.5l-4.4688 7.25-5.25 0.0312c3.6238-12.134 10.323-31.615 14.344-41.406 13.651-33.243 28.693-56.08 51.031-77.688 19.34-18.707 30.201-23.806 61.688-28.906 5.1401-0.83261 11.525-1.697 45.25-1.9688h0.0312c122.48-0.46054 245.02 0.32596 367.59-0.34375z" fill="#7e7e7e" filter="url(#k)"/>
 <path d="m512.72 105.12-72.625 0.15625c-5.1467-0.73855-10.888 4.67-10.438 9.125h-0.0625c-11.08 90.566-25.034 183.34-21.469 280.72-0.7548 8.7464 5.854 33.507 10.344 38.375-1.7632-5.7821-3.1658-11.988-4.2188-18.594-5.2917-98.426 7.3414-200.42 20.594-299.75l-0.125-0.0312c0.86224-1.8219 2.2332-4.2189 5.375-4.5312l129.69-0.25v-3.0312l-57.062-2.1875z" fill="#fff" filter="url(#h)"/>
 <path d="m568.09 428-4.3125 0.0625c-1.9584 11.838-5.6393 22.847-9.0312 33.969 0.68347-1.1108 1.3446-2.2212 1.9688-3.375-0.6446 2.8932-1.3644 6.7549-1.9062 8.875-8.7058 34.062-19.646 55.062-36.656 72.031-13.124 13.092-28.929 22.638-42.375 26.344-5.7375 1.5812-27.372 2.1269-32.719 0.9375-14-3.1146-26.211-9.8772-37.281-21.062 6.4727 9.6622 15.331 17.163 24.656 22.75 3.7052 1.4446 7.5215 2.6218 11.469 3.5 7.5257 1.6743 27.512 1.1411 35.281-1 14.638-4.0341 31.015-14.048 44.719-27.719 17.768-17.725 29.219-39.867 38.062-74.469 1.6721-6.5422 3.9245-17.222 5.7188-26.75 0.89714-4.7642 1.6923-9.2649 2.25-12.812 0.10631-0.67622 0.0694-0.66065 0.15625-1.2812z" fill="#fff" filter="url(#i)"/>
 <path d="m322.62 105.12-83.531 0.125c-2.9714 0.0318-5.9356 1.0818-7.8125 3.125-2.7427 2.9858-2.9902 9.9421-3.3125 15.375-0.32834 4.9224-0.80497 11.74-1.375 19.844-1.1401 16.208-2.6552 37.508-4.2188 58.969s-3.1683 43.086-4.4375 59.938c-1.2687 16.845-2.304 29.792-2.4375 31.031-1.7057 15.831-3.5329 31.25-5.4375 46.156v0.0312c-0.4695 3.678-0.95771 7.2914-1.4375 10.906-0.1415 1.0661-0.26389 2.1584-0.40625 3.2188-0.0611 0.45446-0.12629 0.92159-0.1875 1.375-4.334 32.122-9.068 61.597-13.969 87.125-7.9006 41.154-16.568 72.668-23.562 87.344-7.7904 16.347-21.89 31.603-29.75 35.594a5.3125 5.3125 0 0 0 -0.0312 0c-7.3828 3.4295-17.496 3.5725-26.031 0.8125l-0.0937-0.0312a5.3125 5.3125 0 0 0 -0.0312 -0.0312c-0.0836-0.0274-0.10831-8e-3 -0.1875-0.0312-9.7634-3.4624-16.883-8.8936-21.188-16 1.0448 6.896 5.8973 12.692 12.5 18 2.2392 1.1642 4.6152 2.2046 7.1562 3.0938 0.0191 6e-3 0.0434-6e-3 0.0625 0 0.0134 5e-3 0.0178 0.0267 0.0312 0.0312 9.7273 3.174 21.079 3.1272 30.031-1.0312a5.3083 5.3083 0 0 1 0.1875 -0.0625c10.023-5.0884 23.876-20.755 32.125-38.062 7.504-15.745 16.06-47.268 24-88.625 3.0084-15.671 5.9306-32.852 8.75-51.156v0.25c0.37482-2.4249 0.72318-4.9095 1.0938-7.375 0.63189-4.2041 1.2564-8.464 1.875-12.781 0.62012-4.3278 1.2381-8.6896 1.8438-13.125 0.0788-0.57788 0.17142-1.1704 0.25-1.75 2.7319-20.135 5.3197-41.337 7.6875-63.312 0.20236-1.8781 1.1991-14.33 2.4688-31.188s2.8735-38.502 4.4375-59.969 3.0784-42.757 4.2188-58.969c0.57019-8.1059 1.0457-14.939 1.375-19.875 0.18355-2.7136 0.36042-5.5712 0.5-8.2188-2e-3 -2.7822 2.5303-5.3147 5.3125-5.3125l140.25-0.21875v-2.5938l-56.719-2.625z" fill="#fff" filter="url(#j)"/>
 <path d="m155.91 105.25c-29.315 1.1417-52.202 6.9176-70.312 18.688-15.611 10.146-32.2 29.299-46.938 52.094-0.01238 0.03-0.01887 0.0637-0.03125 0.0937-2.1823 5.2944-4.3803 10.814-6.4688 16.188h2.4688l4.7812-7.75c15.345-24.944 33.385-45.947 49.094-56.156 19.159-12.451 44.328-18.037 78.469-18.062h11.344v-2.375l-22.406-2.7188z" fill="#fff" filter="url(#g)"/>
 <path d="m136.22 419.62c-6.4423 13.787-14.437 26.701-25.031 41.438-26.329 36.623-30.848 45.184-33.031 62.594-3.0318 24.18 9.6834 44.375 33.031 52.5 10.888 3.5794 23.552 3.6494 34.031-1.2188v0.03125c12.054-5.9343 26.101-22.343 34.844-40.688 6.9805-14.647 14.317-40.608 21.375-74.625-20.899-10.974-42.585-24.186-65.219-40.031zm425.03 64.344c-62.145 11.26-123 26.143-190.16 23.344 4.4658 13.836 10.029 25.02 16.844 34.031 14.68 19.411 32.214 31.323 52.812 35.906 9.2392 2.0555 28.464 1.5225 37.844-1.0625 15.806-4.3559 32.792-14.858 47.062-29.094 15.993-15.955 27.082-35.496 35.594-63.125z" fill="url(#d)" filter="url(#f)"/>
 <path d="m575.09 34.625c-124.67 0.7349-249.36-0.1565-374.03 0.3125-33.876 0.2722-40.943 1.234-46.25 2.0938-25.55 4.1387-39.142 8.9322-53.688 20.469 87.111 22.437 292.82 63.255 473.97 7.0625v-29.938z" fill="url(#c)" filter="url(#e)" stroke="#000"/>
 <path transform="translate(-93.991 -212.99)" d="m666.79 245.3c-124.67 0.7349-249.35-0.1383-374.02 0.3307-33.876 0.2722-40.957 1.2158-46.264 2.0755-32.004 5.1843-45.23 11.38-65.094 30.594-22.937 22.186-38.61 46.048-52.5 79.875-4.477 10.903-12.027 32.811-15.5 44.938l-1.5 5.25 17.375-0.031 6.3438-10.281c15.054-24.471 33.057-45.134 47.469-54.5 17.984-11.688 41.997-17.162 75.562-17.188h11.344c-2.5989 29.804-4.5922 59.661-6.75 89.5-6.7028 93.243-6.803 94.425-10.562 118.5-10.954 70.149-20.595 96.734-49.812 137.38-26.329 36.623-30.848 45.184-33.031 62.594-3.0318 24.18 9.6834 44.375 33.031 52.5 10.888 3.5794 23.552 3.6494 34.031-1.2187v0.031c12.054-5.9343 26.101-22.343 34.844-40.688 15.985-33.541 33.797-126.34 46-239.59 1.0341-9.5973 13.031-174.36 13.031-178.79l140.25-0.2062c-9.2089 64.187-14.802 128.9-20.312 193.5-1.7146 22.465-2.3431 96.724-1 117.16 3.7518 57.075 12.989 92.631 29.906 115 14.68 19.411 32.214 31.323 52.812 35.906 9.2392 2.0555 28.464 1.5225 37.844-1.0625 15.806-4.3559 32.792-14.858 47.062-29.094 18.537-18.492 30.485-41.756 39.469-76.906 3.464-13.553 8.9688-42.819 8.9688-47.594l-17.406 0.3437c-2.9839 14.493-4.1572 19.007-6.4688 24.688-6.6041 16.228-19.404 28.301-36.125 34.156-20.731 6.1896-42.772 3.0609-61.188-7.8124-17.898-11.691-28.855-31.322-33.406-59.875-4.7688-99.638 6.7697-199.58 20.594-298.16l135-0.25v-81.062z" fill="url(#b)"/>
</svg>
